  0
SECTION
  2
HEADER
  9
$ACADVER
  1
AC1024
  9
$ACADMAINTVER
 70
6
  9
$DWGCODEPAGE
  3
ANSI_1252
  9
$LASTSAVEDBY
  1
ezdxf
  9
$INSBASE
 10
0.0
 20
0.0
 30
0.0
  9
$EXTMIN
 10
1e+20
 20
1e+20
 30
1e+20
  9
$EXTMAX
 10
-1e+20
 20
-1e+20
 30
-1e+20
  9
$LIMMIN
 10
0.0
 20
0.0
  9
$LIMMAX
 10
420.0
 20
297.0
  9
$ORTHOMODE
 70
0
  9
$REGENMODE
 70
1
  9
$FILLMODE
 70
1
  9
$QTEXTMODE
 70
0
  9
$MIRRTEXT
 70
1
  9
$LTSCALE
 40
1.0
  9
$ATTMODE
 70
1
  9
$TEXTSIZE
 40
2.5
  9
$TRACEWID
 40
1.0
  9
$TEXTSTYLE
  7
Standard
  9
$CLAYER
  8
0
  9
$CELTYPE
  6
ByLayer
  9
$CECOLOR
 62
256
  9
$CELTSCALE
 40
1.0
  9
$DISPSILH
 70
0
  9
$DIMSCALE
 40
1.0
  9
$DIMASZ
 40
2.5
  9
$DIMEXO
 40
0.625
  9
$DIMDLI
 40
3.75
  9
$DIMRND
 40
0.0
  9
$DIMDLE
 40
0.0
  9
$DIMEXE
 40
1.25
  9
$DIMTP
 40
0.0
  9
$DIMTM
 40
0.0
  9
$DIMTXT
 40
2.5
  9
$DIMCEN
 40
2.5
  9
$DIMTSZ
 40
0.0
  9
$DIMTOL
 70
0
  9
$DIMLIM
 70
0
  9
$DIMTIH
 70
0
  9
$DIMTOH
 70
0
  9
$DIMSE1
 70
0
  9
$DIMSE2
 70
0
  9
$DIMTAD
 70
1
  9
$DIMZIN
 70
8
  9
$DIMBLK
  1

  9
$DIMASO
 70
1
  9
$DIMSHO
 70
1
  9
$DIMPOST
  1

  9
$DIMAPOST
  1

  9
$DIMALT
 70
0
  9
$DIMALTD
 70
3
  9
$DIMALTF
 40
0.03937007874
  9
$DIMLFAC
 40
1.0
  9
$DIMTOFL
 70
1
  9
$DIMTVP
 40
0.0
  9
$DIMTIX
 70
0
  9
$DIMSOXD
 70
0
  9
$DIMSAH
 70
0
  9
$DIMBLK1
  1

  9
$DIMBLK2
  1

  9
$DIMSTYLE
  2
ISO-25
  9
$DIMCLRD
 70
0
  9
$DIMCLRE
 70
0
  9
$DIMCLRT
 70
0
  9
$DIMTFAC
 40
1.0
  9
$DIMGAP
 40
0.625
  9
$DIMJUST
 70
0
  9
$DIMSD1
 70
0
  9
$DIMSD2
 70
0
  9
$DIMTOLJ
 70
0
  9
$DIMTZIN
 70
8
  9
$DIMALTZ
 70
0
  9
$DIMALTTZ
 70
0
  9
$DIMUPT
 70
0
  9
$DIMDEC
 70
2
  9
$DIMTDEC
 70
2
  9
$DIMALTU
 70
2
  9
$DIMALTTD
 70
3
  9
$DIMTXSTY
  7
Standard
  9
$DIMAUNIT
 70
0
  9
$DIMADEC
 70
0
  9
$DIMALTRND
 40
0.0
  9
$DIMAZIN
 70
0
  9
$DIMDSEP
 70
44
  9
$DIMATFIT
 70
3
  9
$DIMFRAC
 70
0
  9
$DIMLDRBLK
  1

  9
$DIMLUNIT
 70
2
  9
$DIMLWD
 70
-2
  9
$DIMLWE
 70
-2
  9
$DIMTMOVE
 70
0
  9
$DIMFXL
 40
1.0
  9
$DIMFXLON
 70
0
  9
$DIMJOGANG
 40
0.785398163397
  9
$DIMTFILL
 70
0
  9
$DIMTFILLCLR
 70
0
  9
$DIMARCSYM
 70
0
  9
$DIMLTYPE
  6

  9
$DIMLTEX1
  6

  9
$DIMLTEX2
  6

  9
$DIMTXTDIRECTION
 70
0
  9
$LUNITS
 70
2
  9
$LUPREC
 70
4
  9
$SKETCHINC
 40
1.0
  9
$FILLETRAD
 40
10.0
  9
$AUNITS
 70
0
  9
$AUPREC
 70
2
  9
$MENU
  1
.
  9
$ELEVATION
 40
0.0
  9
$PELEVATION
 40
0.0
  9
$THICKNESS
 40
0.0
  9
$LIMCHECK
 70
0
  9
$CHAMFERA
 40
0.0
  9
$CHAMFERB
 40
0.0
  9
$CHAMFERC
 40
0.0
  9
$CHAMFERD
 40
0.0
  9
$SKPOLY
 70
0
  9
$TDCREATE
 40
2461162.7449305556
  9
$TDUCREATE
 40
2458532.153996898
  9
$TDUPDATE
 40
2461162.7449305556
  9
$TDUUPDATE
 40
2458532.1544311
  9
$TDINDWG
 40
0.0
  9
$TDUSRTIMER
 40
0.0
  9
$USRTIMER
 70
1
  9
$ANGBASE
 50
0.0
  9
$ANGDIR
 70
0
  9
$PDMODE
 70
0
  9
$PDSIZE
 40
0.0
  9
$PLINEWID
 40
0.0
  9
$SPLFRAME
 70
0
  9
$SPLINETYPE
 70
6
  9
$SPLINESEGS
 70
8
  9
$HANDSEED
  5
51
  9
$SURFTAB1
 70
6
  9
$SURFTAB2
 70
6
  9
$SURFTYPE
 70
6
  9
$SURFU
 70
6
  9
$SURFV
 70
6
  9
$UCSBASE
  2

  9
$UCSNAME
  2

  9
$UCSORG
 10
0.0
 20
0.0
 30
0.0
  9
$UCSXDIR
 10
1.0
 20
0.0
 30
0.0
  9
$UCSYDIR
 10
0.0
 20
1.0
 30
0.0
  9
$UCSORTHOREF
  2

  9
$UCSORTHOVIEW
 70
0
  9
$UCSORGTOP
 10
0.0
 20
0.0
 30
0.0
  9
$UCSORGBOTTOM
 10
0.0
 20
0.0
 30
0.0
  9
$UCSORGLEFT
 10
0.0
 20
0.0
 30
0.0
  9
$UCSORGRIGHT
 10
0.0
 20
0.0
 30
0.0
  9
$UCSORGFRONT
 10
0.0
 20
0.0
 30
0.0
  9
$UCSORGBACK
 10
0.0
 20
0.0
 30
0.0
  9
$PUCSBASE
  2

  9
$PUCSNAME
  2

  9
$PUCSORG
 10
0.0
 20
0.0
 30
0.0
  9
$PUCSXDIR
 10
1.0
 20
0.0
 30
0.0
  9
$PUCSYDIR
 10
0.0
 20
1.0
 30
0.0
  9
$PUCSORTHOREF
  2

  9
$PUCSORTHOVIEW
 70
0
  9
$PUCSORGTOP
 10
0.0
 20
0.0
 30
0.0
  9
$PUCSORGBOTTOM
 10
0.0
 20
0.0
 30
0.0
  9
$PUCSORGLEFT
 10
0.0
 20
0.0
 30
0.0
  9
$PUCSORGRIGHT
 10
0.0
 20
0.0
 30
0.0
  9
$PUCSORGFRONT
 10
0.0
 20
0.0
 30
0.0
  9
$PUCSORGBACK
 10
0.0
 20
0.0
 30
0.0
  9
$USERI1
 70
0
  9
$USERI2
 70
0
  9
$USERI3
 70
0
  9
$USERI4
 70
0
  9
$USERI5
 70
0
  9
$USERR1
 40
0.0
  9
$USERR2
 40
0.0
  9
$USERR3
 40
0.0
  9
$USERR4
 40
0.0
  9
$USERR5
 40
0.0
  9
$WORLDVIEW
 70
1
  9
$SHADEDGE
 70
3
  9
$SHADEDIF
 70
70
  9
$TILEMODE
 70
1
  9
$MAXACTVP
 70
64
  9
$PINSBASE
 10
0.0
 20
0.0
 30
0.0
  9
$PLIMCHECK
 70
0
  9
$PEXTMIN
 10
1e+20
 20
1e+20
 30
1e+20
  9
$PEXTMAX
 10
-1e+20
 20
-1e+20
 30
-1e+20
  9
$PLIMMIN
 10
0.0
 20
0.0
  9
$PLIMMAX
 10
420.0
 20
297.0
  9
$UNITMODE
 70
0
  9
$VISRETAIN
 70
1
  9
$PLINEGEN
 70
0
  9
$PSLTSCALE
 70
1
  9
$TREEDEPTH
 70
3020
  9
$CMLSTYLE
  2
Standard
  9
$CMLJUST
 70
0
  9
$CMLSCALE
 40
20.0
  9
$PROXYGRAPHICS
 70
1
  9
$MEASUREMENT
 70
1
  9
$CELWEIGHT
370
-1
  9
$ENDCAPS
280
0
  9
$JOINSTYLE
280
0
  9
$LWDISPLAY
290
0
  9
$INSUNITS
 70
4
  9
$HYPERLINKBASE
  1

  9
$STYLESHEET
  1

  9
$XEDIT
290
1
  9
$CEPSNTYPE
380
0
  9
$PSTYLEMODE
290
1
  9
$FINGERPRINTGUID
  2
{2340B17F-E6B9-49E1-8510-7E2890BE29CD}
  9
$VERSIONGUID
  2
{D85C0AE7-AB00-4F2E-824E-852BE7DE4EC2}
  9
$EXTNAMES
290
1
  9
$PSVPSCALE
 40
0.0
  9
$OLESTARTUP
290
0
  9
$SORTENTS
280
127
  9
$INDEXCTL
280
0
  9
$HIDETEXT
280
1
  9
$XCLIPFRAME
280
1
  9
$HALOGAP
280
0
  9
$OBSCOLOR
 70
257
  9
$OBSLTYPE
280
0
  9
$INTERSECTIONDISPLAY
280
0
  9
$INTERSECTIONCOLOR
 70
257
  9
$DIMASSOC
280
2
  9
$PROJECTNAME
  1

  9
$CAMERADISPLAY
290
0
  9
$LENSLENGTH
 40
50.0
  9
$CAMERAHEIGHT
 40
0.0
  9
$STEPSPERSEC
 40
24.0
  9
$STEPSIZE
 40
100.0
  9
$3DDWFPREC
 40
2.0
  9
$PSOLWIDTH
 40
0.005
  9
$PSOLHEIGHT
 40
0.08
  9
$LOFTANG1
 40
1.570796326795
  9
$LOFTANG2
 40
1.570796326795
  9
$LOFTMAG1
 40
0.0
  9
$LOFTMAG2
 40
0.0
  9
$LOFTPARAM
 70
7
  9
$LOFTNORMALS
280
1
  9
$LATITUDE
 40
37.795
  9
$LONGITUDE
 40
-122.394
  9
$NORTHDIRECTION
 40
0.0
  9
$TIMEZONE
 70
-8000
  9
$LIGHTGLYPHDISPLAY
280
1
  9
$TILEMODELIGHTSYNCH
280
1
  9
$CMATERIAL
347
20
  9
$SOLIDHIST
280
0
  9
$SHOWHIST
280
1
  9
$DWFFRAME
280
2
  9
$DGNFRAME
280
2
  9
$REALWORLDSCALE
290
1
  9
$INTERFERECOLOR
 62
256
  9
$CSHADOW
280
0
  9
$SHADOWPLANELOCATION
 40
0.0
  0
ENDSEC
  0
SECTION
  2
CLASSES
  0
CLASS
  1
ACDBDICTIONARYWDFLT
  2
AcDbDictionaryWithDefault
  3
ObjectDBX Classes
 90
0
 91
0
280
0
281
0
  0
CLASS
  1
SUN
  2
AcDbSun
  3
SCENEOE
 90
1153
 91
0
280
0
281
0
  0
CLASS
  1
VISUALSTYLE
  2
AcDbVisualStyle
  3
ObjectDBX Classes
 90
4095
 91
0
280
0
281
0
  0
CLASS
  1
MATERIAL
  2
AcDbMaterial
  3
ObjectDBX Classes
 90
1153
 91
0
280
0
281
0
  0
CLASS
  1
SCALE
  2
AcDbScale
  3
ObjectDBX Classes
 90
1153
 91
0
280
0
281
0
  0
CLASS
  1
TABLESTYLE
  2
AcDbTableStyle
  3
ObjectDBX Classes
 90
4095
 91
0
280
0
281
0
  0
CLASS
  1
MLEADERSTYLE
  2
AcDbMLeaderStyle
  3
ACDB_MLEADERSTYLE_CLASS
 90
4095
 91
0
280
0
281
0
  0
CLASS
  1
DICTIONARYVAR
  2
AcDbDictionaryVar
  3
ObjectDBX Classes
 90
0
 91
0
280
0
281
0
  0
CLASS
  1
CELLSTYLEMAP
  2
AcDbCellStyleMap
  3
ObjectDBX Classes
 90
1152
 91
0
280
0
281
0
  0
CLASS
  1
MENTALRAYRENDERSETTINGS
  2
AcDbMentalRayRenderSettings
  3
SCENEOE
 90
1024
 91
0
280
0
281
0
  0
CLASS
  1
ACDBDETAILVIEWSTYLE
  2
AcDbDetailViewStyle
  3
ObjectDBX Classes
 90
1025
 91
0
280
0
281
0
  0
CLASS
  1
ACDBSECTIONVIEWSTYLE
  2
AcDbSectionViewStyle
  3
ObjectDBX Classes
 90
1025
 91
0
280
0
281
0
  0
CLASS
  1
RASTERVARIABLES
  2
AcDbRasterVariables
  3
ISM
 90
0
 91
0
280
0
281
0
  0
CLASS
  1
ACDBPLACEHOLDER
  2
AcDbPlaceHolder
  3
ObjectDBX Classes
 90
0
 91
0
280
0
281
0
  0
CLASS
  1
LAYOUT
  2
AcDbLayout
  3
ObjectDBX Classes
 90
0
 91
0
280
0
281
0
  0
ENDSEC
  0
SECTION
  2
TABLES
  0
TABLE
  2
VPORT
  5
8
330
0
100
AcDbSymbolTable
 70
1
  0
VPORT
  5
23
330
8
100
AcDbSymbolTableRecord
100
AcDbViewportTableRecord
  2
*Active
 70
0
 10
0.0
 20
0.0
 11
1.0
 21
1.0
 12
0.0
 22
0.0
 13
0.0
 23
0.0
 14
0.5
 24
0.5
 15
0.5
 25
0.5
 16
0.0
 26
0.0
 36
1.0
 17
0.0
 27
0.0
 37
0.0
 40
1000.0
 41
1.34
 42
50.0
 43
0.0
 44
0.0
 50
0.0
 51
0.0
 71
0
 72
1000
 73
1
 74
3
 75
0
 76
0
 77
0
 78
0
281
0
 65
0
146
0.0
  0
ENDTAB
  0
TABLE
  2
LTYPE
  5
2
330
0
100
AcDbSymbolTable
 70
3
  0
LTYPE
  5
24
330
2
100
AcDbSymbolTableRecord
100
AcDbLinetypeTableRecord
  2
ByBlock
 70
0
  3

 72
65
 73
0
 40
0.0
  0
LTYPE
  5
25
330
2
100
AcDbSymbolTableRecord
100
AcDbLinetypeTableRecord
  2
ByLayer
 70
0
  3

 72
65
 73
0
 40
0.0
  0
LTYPE
  5
26
330
2
100
AcDbSymbolTableRecord
100
AcDbLinetypeTableRecord
  2
Continuous
 70
0
  3

 72
65
 73
0
 40
0.0
  0
ENDTAB
  0
TABLE
  2
LAYER
  5
1
330
0
100
AcDbSymbolTable
 70
2
  0
LAYER
  5
27
330
1
100
AcDbSymbolTableRecord
100
AcDbLayerTableRecord
  2
0
 70
0
 62
7
  6
Continuous
370
-3
390
13
347
21
  0
LAYER
  5
28
330
1
100
AcDbSymbolTableRecord
100
AcDbLayerTableRecord
  2
Defpoints
 70
0
 62
7
  6
Continuous
290
0
370
-3
390
13
347
21
  0
ENDTAB
  0
TABLE
  2
STYLE
  5
5
330
0
100
AcDbSymbolTable
 70
1
  0
STYLE
  5
29
330
5
100
AcDbSymbolTableRecord
100
AcDbTextStyleTableRecord
  2
Standard
 70
0
 40
0.0
 41
1.0
 50
0.0
 71
0
 42
2.5
  3
txt
  4

  0
ENDTAB
  0
TABLE
  2
VIEW
  5
7
330
0
100
AcDbSymbolTable
 70
0
  0
ENDTAB
  0
TABLE
  2
UCS
  5
6
330
0
100
AcDbSymbolTable
 70
0
  0
ENDTAB
  0
TABLE
  2
APPID
  5
3
330
0
100
AcDbSymbolTable
 70
3
  0
APPID
  5
2A
330
3
100
AcDbSymbolTableRecord
100
AcDbRegAppTableRecord
  2
ACAD
 70
0
  0
APPID
  5
4E
330
3
100
AcDbSymbolTableRecord
100
AcDbRegAppTableRecord
  2
HATCHBACKGROUNDCOLOR
 70
0
  0
APPID
  5
4F
330
3
100
AcDbSymbolTableRecord
100
AcDbRegAppTableRecord
  2
EZDXF
 70
0
  0
ENDTAB
  0
TABLE
  2
DIMSTYLE
  5
4
330
0
100
AcDbSymbolTable
 70
1
100
AcDbDimStyleTable
  0
DIMSTYLE
105
2B
330
4
100
AcDbSymbolTableRecord
100
AcDbDimStyleTableRecord
  2
Standard
 70
0
 40
1.0
 41
2.5
 42
0.625
 43
3.75
 44
1.25
 45
0.0
 46
0.0
 47
0.0
 48
0.0
 49
2.5
140
2.5
141
2.5
142
0.0
143
0.03937007874
144
1.0
145
0.0
146
1.0
147
0.625
148
0.0
 69
0
 70
0
 71
0
 72
0
 73
0
 74
0
 75
0
 76
0
 77
1
 78
8
 79
3
170
0
171
3
172
1
173
0
174
0
175
0
176
0
177
0
178
0
179
2
271
2
272
2
273
2
274
3
275
0
276
0
277
2
278
44
279
0
280
0
281
0
282
0
283
0
284
8
285
0
286
0
288
0
289
3
290
0
371
-2
372
-2
  0
ENDTAB
  0
TABLE
  2
BLOCK_RECORD
  5
9
330
0
100
AcDbSymbolTable
 70
2
  0
BLOCK_RECORD
  5
17
330
9
100
AcDbSymbolTableRecord
100
AcDbBlockTableRecord
  2
*Model_Space
340
1A
 70
0
280
1
281
0
  0
BLOCK_RECORD
  5
1B
330
9
100
AcDbSymbolTableRecord
100
AcDbBlockTableRecord
  2
*Paper_Space
340
1E
 70
0
280
1
281
0
  0
ENDTAB
  0
ENDSEC
  0
SECTION
  2
BLOCKS
  0
BLOCK
  5
18
330
17
100
AcDbEntity
  8
0
100
AcDbBlockBegin
  2
*Model_Space
 70
0
 10
0.0
 20
0.0
 30
0.0
  3
*Model_Space
  1

  0
ENDBLK
  5
19
330
17
100
AcDbEntity
  8
0
100
AcDbBlockEnd
  0
BLOCK
  5
1C
330
1B
100
AcDbEntity
  8
0
100
AcDbBlockBegin
  2
*Paper_Space
 70
0
 10
0.0
 20
0.0
 30
0.0
  3
*Paper_Space
  1

  0
ENDBLK
  5
1D
330
1B
100
AcDbEntity
  8
0
100
AcDbBlockEnd
  0
ENDSEC
  0
SECTION
  2
ENTITIES
  0
LWPOLYLINE
  5
2F
330
17
100
AcDbEntity
  8
0
100
AcDbPolyline
 90
4
 70
1
 10
-12.499999999999998
 20
12.295081967213115
 10
12.499999999999998
 20
12.295081967213115
 10
12.499999999999998
 20
-12.295081967213115
 10
-12.499999999999998
 20
-12.295081967213115
  0
LWPOLYLINE
  5
30
330
17
100
AcDbEntity
  8
0
100
AcDbPolyline
 90
389
 70
0
 10
9.54098360655738
 20
10.627049180327871
 10
6.1121270491803275
 20
10.627049180327871
 10
5.996126444894759
 20
10.625581262666673
 10
5.880849497810736
 20
10.621201042675585
 10
5.766331508636473
 20
10.613943819843357
 10
5.6526077780801725
 20
10.60384489365875
 10
5.539713606850046
 20
10.590939563610515
 10
5.427684295654297
 20
10.575263129187414
 10
5.3165551452011375
 20
10.556850889878197
 10
5.206361456198768
 20
10.53573814517162
 10
5.097138529355409
 20
10.51196019455644
 10
4.988921665379259
 20
10.485552337521414
 10
4.881746164978526
 20
10.456549873555295
 10
4.775647328861424
 20
10.42498810214684
 10
4.6706604577361555
 20
10.3909023227848
 10
4.56682085231093
 20
10.354327834957937
 10
4.464163813293958
 20
10.315299938155004
 10
4.362724641393442
 20
10.273853931864757
 10
4.262538637317594
 20
10.23002511557595
 10
4.163641101774621
 20
10.183848788777338
 10
4.066067335472732
 20
10.135360250957678
 10
3.969852639120132
 20
10.084594801605727
 10
3.8750323134250313
 20
10.031587740210238
 10
3.7816416590956363
 20
9.976374366259968
 10
3.6897159768401586
 20
9.91898997924367
 10
3.599290567366802
 20
9.859469878650104
 10
3.51040073138378
 20
9.797849363968023
 10
3.423081769599288
 20
9.734163734686183
 10
3.3373689827215465
 20
9.668448290293338
 10
3.25329767145876
 20
9.600738330278242
 10
3.170903136519137
 20
9.531069154129657
 10
3.0902206786108795
 20
9.459476061336334
 10
3.011285598442201
 20
9.385994351387026
 10
2.9341331967213113
 20
9.310659323770494
 10
2.858798774156416
 20
9.233506277975492
 10
2.7853176314557175
 20
9.154570513490771
 10
2.713725069327432
 20
9.073887329805094
 10
2.6440563884797634
 20
8.991492026407213
 10
2.5763468896209227
 20
8.90741990278588
 10
2.510631873459115
 20
8.821706258429858
 10
2.446946640702544
 20
8.734386392827897
 10
2.3853264920594257
 20
8.645495605468753
 10
2.3258067282379624
 20
8.555069195841181
 10
2.2684226499463698
 20
8.46314246343394
 10
2.2132095578928475
 20
8.369750707735783
 10
2.1602027527856063
 20
8.274929228235465
 10
2.1094375353328516
 20
8.178713324421743
 10
2.060949206242794
 20
8.081138295783372
 10
2.0147730662236447
 20
7.982239441809108
 10
1.970944415983608
 20
7.882052061987706
 10
1.9294985562308908
 20
7.780611455807921
 10
1.8904707876736973
 20
7.67795292275851
 10
1.8538964110202458
 20
7.5741117623282275
 10
1.819810726978738
 20
7.469123274005828
 10
1.7882490362573855
 20
7.363022757280069
 10
1.75924663956439
 20
7.255845511639706
 10
1.7328388376079606
 20
7.147626836573492
 10
1.709060931096311
 20
7.038402031570185
 10
1.6879482207376428
 20
6.928206396118539
 10
1.6695360072401702
 20
6.817075229707311
 10
1.6538595913120946
 20
6.7050438318252565
 10
1.6409542736616274
 20
6.59214750196113
 10
1.6308553549969778
 20
6.478421539603686
 10
1.6235981360263496
 20
6.363901244241683
 10
1.6192179174579548
 20
6.2486219153638745
 10
1.6177499999999994
 20
6.132618852459015
 10
1.6192179174579548
 20
6.016618248173447
 10
1.6235981360263496
 20
5.901341301089428
 10
1.6308553549969778
 20
5.786823311915162
 10
1.6409542736616296
 20
5.673099581358862
 10
1.6538595913120946
 20
5.560205410128734
 10
1.6695360072401677
 20
5.448176098932984
 10
1.6879482207376453
 20
5.3370469484798235
 10
1.709060931096311
 20
5.226853259477458
 10
1.7328388376079606
 20
5.117630332634096
 10
1.75924663956439
 20
5.0094134686579475
 10
1.7882490362573855
 20
4.902237968257214
 10
1.819810726978738
 20
4.796139132140113
 10
1.853896411020248
 20
4.691152261014845
 10
1.8904707876736997
 20
4.587312655589619
 10
1.9294985562308886
 20
4.484655616572645
 10
1.970944415983608
 20
4.38321644467213
 10
2.0147730662236447
 20
4.283030440596284
 10
2.060949206242794
 20
4.18413290505331
 10
2.1094375353328516
 20
4.0865591387514195
 10
2.1602027527856063
 20
3.99034444239882
 10
2.2132095578928475
 20
3.895524116703722
 10
2.2684226499463698
 20
3.8021334623743295
 10
2.3258067282379624
 20
3.710207780118848
 10
2.3853264920594257
 20
3.619782370645493
 10
2.446946640702544
 20
3.530892534662466
 10
2.5106318734591127
 20
3.4435735728779777
 10
2.5763468896209227
 20
3.357860786000235
 10
2.6440563884797657
 20
3.2737894747374483
 10
2.713725069327432
 20
3.1913949397978243
 10
2.7853176314557175
 20
3.1107124818895677
 10
2.858798774156416
 20
3.03177740172089
 10
2.9341331967213113
 20
2.9546249999999996
 10
3.011285598442201
 20
2.879290577435102
 10
3.0902206786108795
 20
2.8058094347344062
 10
3.170903136519137
 20
2.7342168726061202
 10
3.25329767145876
 20
2.664548191758453
 10
3.3373689827215465
 20
2.59683869289961
 10
3.423081769599288
 20
2.5311236767378014
 10
3.51040073138378
 20
2.4674384439812327
 10
3.599290567366802
 20
2.405818295338113
 10
3.689715976840156
 20
2.3462985315166534
 10
3.7816416590956363
 20
2.288914453225058
 10
3.8750323134250313
 20
2.2337013611715357
 10
3.969852639120132
 20
2.1806945560642927
 10
4.066067335472732
 20
2.12992933861154
 10
4.163641101774621
 20
2.0814410095214826
 10
4.262538637317597
 20
2.035264869502333
 10
4.36272464139344
 20
1.9914362192622943
 10
4.464163813293958
 20
1.949990359509577
 10
4.56682085231093
 20
1.9109625909523882
 10
4.6706604577361555
 20
1.8743882142989343
 10
4.775647328861424
 20
1.8403025302574265
 10
4.881746164978526
 20
1.808740839536073
 10
4.988921665379261
 20
1.7797384428430785
 10
5.097138529355409
 20
1.7533306408866491
 10
5.206361456198768
 20
1.7295527343749995
 10
5.316555145201135
 20
1.7084400240163338
 10
5.427684295654297
 20
1.6900278105188586
 10
5.539713606850044
 20
1.674351394590783
 10
5.6526077780801725
 20
1.6614460769403159
 10
5.766331508636473
 20
1.6513471582756662
 10
5.880849497810739
 20
1.6440899393050383
 10
5.996126444894759
 20
1.6397097207366433
 10
6.1121270491803275
 20
1.6382418032786878
 10
8.853475409836067
 20
1.638188524590165
 10
8.813725468760632
 20
1.8381738685701718
 10
8.769723908096065
 20
2.0363875225880106
 10
8.721523833775132
 20
2.2327853997809
 10
8.669178351730599
 20
2.4273234132860533
 10
8.612740567895232
 20
2.619957476240691
 10
8.552263588201809
 20
2.8106435017820273
 10
8.48780051858308
 20
2.9993374030472806
 10
8.419404464971823
 20
3.1859950931736694
 10
8.34712853330081
 20
3.3705724852984074
 10
8.271025829502795
 20
3.553025492558715
 10
8.191149459510552
 20
3.733310028091807
 10
8.107552529256855
 20
3.9113820050349006
 10
8.020288144674458
 20
4.0871973365252146
 10
7.929409411696137
 20
4.260711935699966
 10
7.834969436254657
 20
4.431881715696368
 10
7.7370213242827885
 20
4.600662589651639
 10
7.6356181817132915
 20
4.767010470703001
 10
7.530813114478939
 20
4.9308812719876665
 10
7.4226592285125
 20
5.092230906642852
 10
7.311209629746736
 20
5.251015287805778
 10
7.196517424114418
 20
5.407190328613658
 10
7.078635717548311
 20
5.56071194220371
 10
6.957617615981181
 20
5.7115360417131535
 10
6.833516225345802
 20
5.859618540279202
 10
6.7063846515749335
 20
6.004915351039075
 10
6.5762760006013465
 20
6.14738238712999
 10
6.443243378357811
 20
6.286975561689159
 10
6.307339890777089
 20
6.423650787853806
 10
6.168618643791948
 20
6.557363978761142
 10
6.02713274333516
 20
6.688071047548389
 10
5.882935295339491
 20
6.815727907352762
 10
5.736079405737706
 20
6.940290471311477
 10
5.586618180462571
 20
7.061714652561752
 10
5.434604725446858
 20
7.179956364240804
 10
5.280092146623329
 20
7.294971519485851
 10
5.123133549924758
 20
7.406716031434108
 10
4.963782041283906
 20
7.515145813222794
 10
4.80209072663354
 20
7.620216777989123
 10
4.638112711906434
 20
7.7218848388703165
 10
4.47190110303535
 20
7.820105909003588
 10
4.303509005953054
 20
7.914835901526156
 10
4.132989526592318
 20
8.006030729575237
 10
3.9603957708859068
 20
8.093646306288047
 10
3.785780844766589
 20
8.177638544801807
 10
3.6091978541671277
 20
8.257963358253733
 10
3.4306999050202904
 20
8.334576659781035
 10
3.2503401032588535
 20
8.40743436252094
 10
3.068171554815572
 20
8.476492379610658
 10
2.884247365623226
 20
8.541706624187409
 10
2.69862064161457
 20
8.60303300938841
 10
2.511344488722379
 20
8.660427448350877
 10
2.322472012879417
 20
8.713845854212028
 10
2.132056320018456
 20
8.76324414010908
 10
1.9401505160722574
 20
8.80857821917925
 10
1.746807706973592
 20
8.849804004559752
 10
1.552080998655227
 20
8.88687740938781
 10
1.3560234970499256
 20
8.919754346800634
 10
1.1586883080904593
 20
8.948390729935445
 10
0.9601285377095954
 20
8.972742471929458
 10
0.7603972918401011
 20
8.992765485919891
 10
0.5595476764147389
 20
9.008415685043962
 10
0.3576327973662831
 20
9.019648982438888
 10
0.15470576062749866
 20
9.026421291241883
 10
-0.049180327868851986
 20
9.028688524590166
 10
-0.2530663779524493
 20
9.026421329857875
 10
-0.45599330189188725
 20
9.019649135276921
 10
-0.6579079974127618
 20
9.008416025271183
 10
-0.8587573622406505
 20
8.992766084264538
 10
-1.0584882941011513
 20
8.972743396680865
 10
-1.2570476907198538
 20
8.948392046944042
 10
-1.4543824498223488
 20
8.919756119477947
 10
-1.6504394691342208
 20
8.886879698706458
 10
-1.845165646381066
 20
8.84980686905345
 10
-2.0385078792884697
 20
8.80858171494281
 10
-2.2304130655820247
 20
8.763248320798406
 10
-2.4208281029873207
 20
8.713850771044124
 10
-2.609699889229945
 20
8.660433150103836
 10
-2.796975322035492
 20
8.603039542401424
 10
-2.982601299129548
 20
8.541714032360767
 10
-3.166524718237705
 20
8.476500704405739
 10
-3.3486924770855513
 20
8.407443642960223
 10
-3.5290514733986775
 20
8.334586932448092
 10
-3.7075486049026734
 20
8.257974657293227
 10
-3.8841307693231313
 20
8.177650901919508
 10
-4.058744864385636
 20
8.09365975075081
 10
-4.231337787815781
 20
8.006045288211011
 10
-4.401856437339157
 20
7.914851598723992
 10
-4.570247710681352
 20
7.820122766713628
 10
-4.736458505567956
 20
7.721902876603801
 10
-4.900435719724561
 20
7.620236012818385
 10
-5.062126250876755
 20
7.515166259781259
 10
-5.221476996750127
 20
7.406737701916306
 10
-5.37843485507027
 20
7.294994423647397
 10
-5.5329467235627705
 20
7.179980509398415
 10
-5.684959499953221
 20
7.061740043593236
 10
-5.834420081967212
 20
6.94031711065574
 10
-5.981275367330332
 20
6.815755795009802
 10
-6.125472253768169
 20
6.688100181079303
 10
-6.266957639006317
 20
6.55739435328812
 10
-6.405678420770363
 20
6.423682396060132
 10
-6.541581496785898
 20
6.2870083938192165
 10
-6.6746137647785115
 20
6.147416430989251
 10
-6.804722122473795
 20
6.004950591994115
 10
-6.931853467597336
 20
5.859654961257686
 10
-7.055954697874725
 20
5.711573623203842
 10
-7.176972711031554
 20
5.560750662256462
 10
-7.294854404793411
 20
5.407230162839421
 10
-7.409546676885886
 20
5.2510562093766024
 10
-7.52099642503457
 20
5.09227288629188
 10
-7.629150546965051
 20
4.930924278009135
 10
-7.733955940402922
 20
4.767054468952243
 10
-7.835359503073771
 20
4.6007075435450835
 10
-7.9333081327031865
 20
4.4319275862115335
 10
-8.02774872701676
 20
4.2607586813754725
 10
-8.118628183740082
 20
4.087244913460779
 10
-8.205893400598743
 20
3.91143036689133
 10
-8.289491275318332
 20
3.733359126091005
 10
-8.36936870562444
 20
3.5530752754836796
 10
-8.445472589242653
 20
3.3706228994932332
 10
-8.517749823898566
 20
3.1860460825435455
 10
-8.586147307317765
 20
2.999388909058493
 10
-8.650611937225841
 20
2.810695463461955
 10
-8.711090611348386
 20
2.6200098301778074
 10
-8.767530227410989
 20
2.4273760936299307
 10
-8.819877683139238
 20
2.2328383382422015
 10
-8.868079876258726
 20
2.0364406484385
 10
-8.91208370449504
 20
1.8382271086427027
 10
-8.95183606557377
 20
1.6382418032786878
 10
-6.210487704918032
 20
1.6382418032786878
 10
-6.094487100632463
 20
1.6397097207366456
 10
-5.979210153548443
 20
1.6440899393050383
 10
-5.86469216437418
 20
1.6513471582756662
 10
-5.750968433817878
 20
1.6614460769403183
 10
-5.63807426258775
 20
1.674351394590783
 10
-5.5260449513920005
 20
1.6900278105188586
 10
-5.41491580093884
 20
1.7084400240163338
 10
-5.304722111936473
 20
1.7295527343749995
 10
-5.195499185093113
 20
1.7533306408866491
 10
-5.087282321116964
 20
1.7797384428430785
 10
-4.980106820716232
 20
1.808740839536073
 10
-4.874007984599128
 20
1.8403025302574265
 10
-4.769021113473859
 20
1.8743882142989354
 10
-4.665181508048636
 20
1.910962590952387
 10
-4.562524469031662
 20
1.949990359509577
 10
-4.461085297131147
 20
1.9914362192622943
 10
-4.3608992930553
 20
2.0352648695023343
 10
-4.2620017575123255
 20
2.0814410095214826
 10
-4.164427991210436
 20
2.12992933861154
 10
-4.068213294857837
 20
2.1806945560642927
 10
-3.9733929691627377
 20
2.233701361171535
 10
-3.8800023148333427
 20
2.288914453225058
 10
-3.7880766325778623
 20
2.3462985315166534
 10
-3.697651223104507
 20
2.405818295338113
 10
-3.608761387121482
 20
2.4674384439812327
 10
-3.521442425336993
 20
2.5311236767378014
 10
-3.4357296384592506
 20
2.59683869289961
 10
-3.3516583271964637
 20
2.664548191758453
 10
-3.2692637922568375
 20
2.7342168726061202
 10
-3.188581334348583
 20
2.8058094347344062
 10
-3.1096462541799075
 20
2.879290577435102
 10
-3.0324938524590164
 20
2.9546249999999996
 10
-2.957159429894119
 20
3.0317774017208907
 10
-2.8836782871934203
 20
3.1107124818895677
 10
-2.812085725065136
 20
3.1913949397978243
 10
-2.742417044217467
 20
3.2737894747374483
 10
-2.6747075453586255
 20
3.357860786000235
 10
-2.6089925291968155
 20
3.4435735728779777
 10
-2.545307296440249
 20
3.530892534662466
 10
-2.48368714779713
 20
3.619782370645493
 10
-2.4241673839756697
 20
3.710207780118848
 10
-2.3667833056840735
 20
3.8021334623743295
 10
-2.311570213630549
 20
3.895524116703722
 10
-2.258563408523308
 20
3.99034444239882
 10
-2.2077981910705557
 20
4.0865591387514195
 10
-2.159309861980498
 20
4.18413290505331
 10
-2.1131337219613484
 20
4.283030440596284
 10
-2.0693050717213097
 20
4.38321644467213
 10
-2.0278592119685923
 20
4.484655616572645
 10
-1.9888314434114036
 20
4.587312655589619
 10
-1.9522570667579497
 20
4.691152261014843
 10
-1.9181713827164444
 20
4.796139132140113
 10
-1.8866096919950894
 20
4.902237968257215
 10
-1.8576072953020917
 20
5.0094134686579475
 10
-1.831199493345667
 20
5.117630332634096
 10
-1.8074215868340149
 20
5.226853259477458
 10
-1.7863088764753492
 20
5.3370469484798235
 10
-1.767896662977874
 20
5.4481760989329855
 10
-1.7522202470497985
 20
5.5602054101287335
 10
-1.7393149293993337
 20
5.673099581358862
 10
-1.7292160107346817
 20
5.786823311915163
 10
-1.7219587917640538
 20
5.901341301089428
 10
-1.7175785731956588
 20
6.016618248173447
 10
-1.7161106557377033
 20
6.132618852459015
 10
-1.7175785731956588
 20
6.2486219153638745
 10
-1.721958791764056
 20
6.363901244241683
 10
-1.7292160107346817
 20
6.478421539603686
 10
-1.7393149293993337
 20
6.59214750196113
 10
-1.7522202470497985
 20
6.7050438318252565
 10
-1.767896662977874
 20
6.817075229707311
 10
-1.7863088764753492
 20
6.928206396118539
 10
-1.8074215868340127
 20
7.038402031570185
 10
-1.831199493345667
 20
7.147626836573492
 10
-1.8576072953020941
 20
7.255845511639706
 10
-1.8866096919950894
 20
7.363022757280069
 10
-1.9181713827164444
 20
7.4691232740058275
 10
-1.9522570667579497
 20
7.5741117623282275
 10
-1.9888314434114036
 20
7.67795292275851
 10
-2.0278592119685936
 20
7.780611455807921
 10
-2.0693050717213097
 20
7.882052061987706
 10
-2.1131337219613484
 20
7.982239441809108
 10
-2.159309861980498
 20
8.081138295783372
 10
-2.2077981910705557
 20
8.178713324421743
 10
-2.258563408523308
 20
8.274929228235465
 10
-2.311570213630549
 20
8.369750707735783
 10
-2.3667833056840735
 20
8.46314246343394
 10
-2.4241673839756697
 20
8.555069195841181
 10
-2.48368714779713
 20
8.645495605468753
 10
-2.545307296440249
 20
8.734386392827897
 10
-2.6089925291968155
 20
8.821706258429858
 10
-2.6747075453586255
 20
8.90741990278588
 10
-2.742417044217467
 20
8.991492026407213
 10
-2.812085725065136
 20
9.073887329805094
 10
-2.8836782871934203
 20
9.154570513490771
 10
-2.957159429894119
 20
9.233506277975492
 10
-3.0324938524590164
 20
9.310659323770494
 10
-3.1096462541799075
 20
9.385994351387026
 10
-3.1885813343485845
 20
9.459476061336334
 10
-3.2692637922568375
 20
9.531069154129657
 10
-3.3516583271964637
 20
9.600738330278242
 10
-3.4357296384592506
 20
9.668448290293338
 10
-3.521442425336993
 20
9.734163734686181
 10
-3.608761387121482
 20
9.797849363968023
 10
-3.697651223104507
 20
9.859469878650104
 10
-3.7880766325778623
 20
9.91898997924367
 10
-3.8800023148333427
 20
9.976374366259968
 10
-3.9733929691627377
 20
10.031587740210238
 10
-4.068213294857837
 20
10.084594801605727
 10
-4.164427991210435
 20
10.135360250957678
 10
-4.2620017575123255
 20
10.183848788777338
 10
-4.3608992930553
 20
10.23002511557595
 10
-4.461085297131146
 20
10.273853931864757
 10
-4.562524469031662
 20
10.315299938155004
 10
-4.665181508048636
 20
10.354327834957937
 10
-4.769021113473859
 20
10.3909023227848
 10
-4.874007984599128
 20
10.42498810214684
 10
-4.980106820716232
 20
10.456549873555295
 10
-5.087282321116962
 20
10.485552337521414
 10
-5.195499185093113
 20
10.51196019455644
 10
-5.304722111936473
 20
10.53573814517162
 10
-5.41491580093884
 20
10.556850889878197
 10
-5.5260449513920005
 20
10.575263129187414
 10
-5.63807426258775
 20
10.590939563610515
 10
-5.750968433817878
 20
10.60384489365875
 10
-5.864692164374179
 20
10.613943819843357
 10
-5.9792101535484425
 20
10.621201042675585
 10
-6.094487100632463
 20
10.625581262666673
 10
-6.210487704918032
 20
10.627049180327871
 10
-9.639344262295081
 20
10.627049180327871
  0
LWPOLYLINE
  5
31
330
17
100
AcDbEntity
  8
0
100
AcDbPolyline
 90
389
 70
0
 10
9.54098360655738
 20
10.627049180327871
 10
6.1121270491803275
 20
10.627049180327871
 10
5.996126444894759
 20
10.625581262666673
 10
5.880849497810736
 20
10.621201042675585
 10
5.766331508636473
 20
10.613943819843357
 10
5.6526077780801725
 20
10.60384489365875
 10
5.539713606850046
 20
10.590939563610515
 10
5.427684295654297
 20
10.575263129187414
 10
5.3165551452011375
 20
10.556850889878197
 10
5.206361456198768
 20
10.53573814517162
 10
5.097138529355409
 20
10.51196019455644
 10
4.988921665379259
 20
10.485552337521414
 10
4.881746164978526
 20
10.456549873555295
 10
4.775647328861424
 20
10.42498810214684
 10
4.6706604577361555
 20
10.3909023227848
 10
4.56682085231093
 20
10.354327834957937
 10
4.464163813293958
 20
10.315299938155004
 10
4.362724641393442
 20
10.273853931864757
 10
4.262538637317594
 20
10.23002511557595
 10
4.163641101774621
 20
10.183848788777338
 10
4.066067335472732
 20
10.135360250957678
 10
3.969852639120132
 20
10.084594801605727
 10
3.8750323134250313
 20
10.031587740210238
 10
3.7816416590956363
 20
9.976374366259968
 10
3.6897159768401586
 20
9.91898997924367
 10
3.599290567366802
 20
9.859469878650104
 10
3.51040073138378
 20
9.797849363968023
 10
3.423081769599288
 20
9.734163734686183
 10
3.3373689827215465
 20
9.668448290293338
 10
3.25329767145876
 20
9.600738330278242
 10
3.170903136519137
 20
9.531069154129657
 10
3.0902206786108795
 20
9.459476061336334
 10
3.011285598442201
 20
9.385994351387026
 10
2.9341331967213113
 20
9.310659323770494
 10
2.858798774156416
 20
9.233506277975492
 10
2.7853176314557175
 20
9.154570513490771
 10
2.713725069327432
 20
9.073887329805094
 10
2.6440563884797634
 20
8.991492026407213
 10
2.5763468896209227
 20
8.90741990278588
 10
2.510631873459115
 20
8.821706258429858
 10
2.446946640702544
 20
8.734386392827897
 10
2.3853264920594257
 20
8.645495605468753
 10
2.3258067282379624
 20
8.555069195841181
 10
2.2684226499463698
 20
8.46314246343394
 10
2.2132095578928475
 20
8.369750707735783
 10
2.1602027527856063
 20
8.274929228235465
 10
2.1094375353328516
 20
8.178713324421743
 10
2.060949206242794
 20
8.081138295783372
 10
2.0147730662236447
 20
7.982239441809108
 10
1.970944415983608
 20
7.882052061987706
 10
1.9294985562308908
 20
7.780611455807921
 10
1.8904707876736973
 20
7.67795292275851
 10
1.8538964110202458
 20
7.5741117623282275
 10
1.819810726978738
 20
7.469123274005828
 10
1.7882490362573855
 20
7.363022757280069
 10
1.75924663956439
 20
7.255845511639706
 10
1.7328388376079606
 20
7.147626836573492
 10
1.709060931096311
 20
7.038402031570185
 10
1.6879482207376428
 20
6.928206396118539
 10
1.6695360072401702
 20
6.817075229707311
 10
1.6538595913120946
 20
6.7050438318252565
 10
1.6409542736616274
 20
6.59214750196113
 10
1.6308553549969778
 20
6.478421539603686
 10
1.6235981360263496
 20
6.363901244241683
 10
1.6192179174579548
 20
6.2486219153638745
 10
1.6177499999999994
 20
6.132618852459015
 10
1.6192179174579548
 20
6.016618248173447
 10
1.6235981360263496
 20
5.901341301089428
 10
1.6308553549969778
 20
5.786823311915162
 10
1.6409542736616296
 20
5.673099581358862
 10
1.6538595913120946
 20
5.560205410128734
 10
1.6695360072401677
 20
5.448176098932984
 10
1.6879482207376453
 20
5.3370469484798235
 10
1.709060931096311
 20
5.226853259477458
 10
1.7328388376079606
 20
5.117630332634096
 10
1.75924663956439
 20
5.0094134686579475
 10
1.7882490362573855
 20
4.902237968257214
 10
1.819810726978738
 20
4.796139132140113
 10
1.853896411020248
 20
4.691152261014845
 10
1.8904707876736997
 20
4.587312655589619
 10
1.9294985562308886
 20
4.484655616572645
 10
1.970944415983608
 20
4.38321644467213
 10
2.0147730662236447
 20
4.283030440596284
 10
2.060949206242794
 20
4.18413290505331
 10
2.1094375353328516
 20
4.0865591387514195
 10
2.1602027527856063
 20
3.99034444239882
 10
2.2132095578928475
 20
3.895524116703722
 10
2.2684226499463698
 20
3.8021334623743295
 10
2.3258067282379624
 20
3.710207780118848
 10
2.3853264920594257
 20
3.619782370645493
 10
2.446946640702544
 20
3.530892534662466
 10
2.5106318734591127
 20
3.4435735728779777
 10
2.5763468896209227
 20
3.357860786000235
 10
2.6440563884797657
 20
3.2737894747374483
 10
2.713725069327432
 20
3.1913949397978243
 10
2.7853176314557175
 20
3.1107124818895677
 10
2.858798774156416
 20
3.03177740172089
 10
2.9341331967213113
 20
2.9546249999999996
 10
3.011285598442201
 20
2.879290577435102
 10
3.0902206786108795
 20
2.8058094347344062
 10
3.170903136519137
 20
2.7342168726061202
 10
3.25329767145876
 20
2.664548191758453
 10
3.3373689827215465
 20
2.59683869289961
 10
3.423081769599288
 20
2.5311236767378014
 10
3.51040073138378
 20
2.4674384439812327
 10
3.599290567366802
 20
2.405818295338113
 10
3.689715976840156
 20
2.3462985315166534
 10
3.7816416590956363
 20
2.288914453225058
 10
3.8750323134250313
 20
2.2337013611715357
 10
3.969852639120132
 20
2.1806945560642927
 10
4.066067335472732
 20
2.12992933861154
 10
4.163641101774621
 20
2.0814410095214826
 10
4.262538637317597
 20
2.035264869502333
 10
4.36272464139344
 20
1.9914362192622943
 10
4.464163813293958
 20
1.949990359509577
 10
4.56682085231093
 20
1.9109625909523882
 10
4.6706604577361555
 20
1.8743882142989343
 10
4.775647328861424
 20
1.8403025302574265
 10
4.881746164978526
 20
1.808740839536073
 10
4.988921665379261
 20
1.7797384428430785
 10
5.097138529355409
 20
1.7533306408866491
 10
5.206361456198768
 20
1.7295527343749995
 10
5.316555145201135
 20
1.7084400240163338
 10
5.427684295654297
 20
1.6900278105188586
 10
5.539713606850044
 20
1.674351394590783
 10
5.6526077780801725
 20
1.6614460769403159
 10
5.766331508636473
 20
1.6513471582756662
 10
5.880849497810739
 20
1.6440899393050383
 10
5.996126444894759
 20
1.6397097207366433
 10
6.1121270491803275
 20
1.6382418032786878
 10
8.853475409836067
 20
1.638188524590165
 10
8.813725468760632
 20
1.8381738685701718
 10
8.769723908096065
 20
2.0363875225880106
 10
8.721523833775132
 20
2.2327853997809
 10
8.669178351730599
 20
2.4273234132860533
 10
8.612740567895232
 20
2.619957476240691
 10
8.552263588201809
 20
2.8106435017820273
 10
8.48780051858308
 20
2.9993374030472806
 10
8.419404464971823
 20
3.1859950931736694
 10
8.34712853330081
 20
3.3705724852984074
 10
8.271025829502795
 20
3.553025492558715
 10
8.191149459510552
 20
3.733310028091807
 10
8.107552529256855
 20
3.9113820050349006
 10
8.020288144674458
 20
4.0871973365252146
 10
7.929409411696137
 20
4.260711935699966
 10
7.834969436254657
 20
4.431881715696368
 10
7.7370213242827885
 20
4.600662589651639
 10
7.6356181817132915
 20
4.767010470703001
 10
7.530813114478939
 20
4.9308812719876665
 10
7.4226592285125
 20
5.092230906642852
 10
7.311209629746736
 20
5.251015287805778
 10
7.196517424114418
 20
5.407190328613658
 10
7.078635717548311
 20
5.56071194220371
 10
6.957617615981181
 20
5.7115360417131535
 10
6.833516225345802
 20
5.859618540279202
 10
6.7063846515749335
 20
6.004915351039075
 10
6.5762760006013465
 20
6.14738238712999
 10
6.443243378357811
 20
6.286975561689159
 10
6.307339890777089
 20
6.423650787853806
 10
6.168618643791948
 20
6.557363978761142
 10
6.02713274333516
 20
6.688071047548389
 10
5.882935295339491
 20
6.815727907352762
 10
5.736079405737706
 20
6.940290471311477
 10
5.586618180462571
 20
7.061714652561752
 10
5.434604725446858
 20
7.179956364240804
 10
5.280092146623329
 20
7.294971519485851
 10
5.123133549924758
 20
7.406716031434108
 10
4.963782041283906
 20
7.515145813222794
 10
4.80209072663354
 20
7.620216777989123
 10
4.638112711906434
 20
7.7218848388703165
 10
4.47190110303535
 20
7.820105909003588
 10
4.303509005953054
 20
7.914835901526156
 10
4.132989526592318
 20
8.006030729575237
 10
3.9603957708859068
 20
8.093646306288047
 10
3.785780844766589
 20
8.177638544801807
 10
3.6091978541671277
 20
8.257963358253733
 10
3.4306999050202904
 20
8.334576659781035
 10
3.2503401032588535
 20
8.40743436252094
 10
3.068171554815572
 20
8.476492379610658
 10
2.884247365623226
 20
8.541706624187409
 10
2.69862064161457
 20
8.60303300938841
 10
2.511344488722379
 20
8.660427448350877
 10
2.322472012879417
 20
8.713845854212028
 10
2.132056320018456
 20
8.76324414010908
 10
1.9401505160722574
 20
8.80857821917925
 10
1.746807706973592
 20
8.849804004559752
 10
1.552080998655227
 20
8.88687740938781
 10
1.3560234970499256
 20
8.919754346800634
 10
1.1586883080904593
 20
8.948390729935445
 10
0.9601285377095954
 20
8.972742471929458
 10
0.7603972918401011
 20
8.992765485919891
 10
0.5595476764147389
 20
9.008415685043962
 10
0.3576327973662831
 20
9.019648982438888
 10
0.15470576062749866
 20
9.026421291241883
 10
-0.049180327868851986
 20
9.028688524590166
 10
-0.2530663779524493
 20
9.026421329857875
 10
-0.45599330189188725
 20
9.019649135276921
 10
-0.6579079974127618
 20
9.008416025271183
 10
-0.8587573622406505
 20
8.992766084264538
 10
-1.0584882941011513
 20
8.972743396680865
 10
-1.2570476907198538
 20
8.948392046944042
 10
-1.4543824498223488
 20
8.919756119477947
 10
-1.6504394691342208
 20
8.886879698706458
 10
-1.845165646381066
 20
8.84980686905345
 10
-2.0385078792884697
 20
8.80858171494281
 10
-2.2304130655820247
 20
8.763248320798406
 10
-2.4208281029873207
 20
8.713850771044124
 10
-2.609699889229945
 20
8.660433150103836
 10
-2.796975322035492
 20
8.603039542401424
 10
-2.982601299129548
 20
8.541714032360767
 10
-3.166524718237705
 20
8.476500704405739
 10
-3.3486924770855513
 20
8.407443642960223
 10
-3.5290514733986775
 20
8.334586932448092
 10
-3.7075486049026734
 20
8.257974657293227
 10
-3.8841307693231313
 20
8.177650901919508
 10
-4.058744864385636
 20
8.09365975075081
 10
-4.231337787815781
 20
8.006045288211011
 10
-4.401856437339157
 20
7.914851598723992
 10
-4.570247710681352
 20
7.820122766713628
 10
-4.736458505567956
 20
7.721902876603801
 10
-4.900435719724561
 20
7.620236012818385
 10
-5.062126250876755
 20
7.515166259781259
 10
-5.221476996750127
 20
7.406737701916306
 10
-5.37843485507027
 20
7.294994423647397
 10
-5.5329467235627705
 20
7.179980509398415
 10
-5.684959499953221
 20
7.061740043593236
 10
-5.834420081967212
 20
6.94031711065574
 10
-5.981275367330332
 20
6.815755795009802
 10
-6.125472253768169
 20
6.688100181079303
 10
-6.266957639006317
 20
6.55739435328812
 10
-6.405678420770363
 20
6.423682396060132
 10
-6.541581496785898
 20
6.2870083938192165
 10
-6.6746137647785115
 20
6.147416430989251
 10
-6.804722122473795
 20
6.004950591994115
 10
-6.931853467597336
 20
5.859654961257686
 10
-7.055954697874725
 20
5.711573623203842
 10
-7.176972711031554
 20
5.560750662256462
 10
-7.294854404793411
 20
5.407230162839421
 10
-7.409546676885886
 20
5.2510562093766024
 10
-7.52099642503457
 20
5.09227288629188
 10
-7.629150546965051
 20
4.930924278009135
 10
-7.733955940402922
 20
4.767054468952243
 10
-7.835359503073771
 20
4.6007075435450835
 10
-7.9333081327031865
 20
4.4319275862115335
 10
-8.02774872701676
 20
4.2607586813754725
 10
-8.118628183740082
 20
4.087244913460779
 10
-8.205893400598743
 20
3.91143036689133
 10
-8.289491275318332
 20
3.733359126091005
 10
-8.36936870562444
 20
3.5530752754836796
 10
-8.445472589242653
 20
3.3706228994932332
 10
-8.517749823898566
 20
3.1860460825435455
 10
-8.586147307317765
 20
2.999388909058493
 10
-8.650611937225841
 20
2.810695463461955
 10
-8.711090611348386
 20
2.6200098301778074
 10
-8.767530227410989
 20
2.4273760936299307
 10
-8.819877683139238
 20
2.2328383382422015
 10
-8.868079876258726
 20
2.0364406484385
 10
-8.91208370449504
 20
1.8382271086427027
 10
-8.95183606557377
 20
1.6382418032786878
 10
-6.210487704918032
 20
1.6382418032786878
 10
-6.094487100632463
 20
1.6397097207366456
 10
-5.979210153548443
 20
1.6440899393050383
 10
-5.86469216437418
 20
1.6513471582756662
 10
-5.750968433817878
 20
1.6614460769403183
 10
-5.63807426258775
 20
1.674351394590783
 10
-5.5260449513920005
 20
1.6900278105188586
 10
-5.41491580093884
 20
1.7084400240163338
 10
-5.304722111936473
 20
1.7295527343749995
 10
-5.195499185093113
 20
1.7533306408866491
 10
-5.087282321116964
 20
1.7797384428430785
 10
-4.980106820716232
 20
1.808740839536073
 10
-4.874007984599128
 20
1.8403025302574265
 10
-4.769021113473859
 20
1.8743882142989354
 10
-4.665181508048636
 20
1.910962590952387
 10
-4.562524469031662
 20
1.949990359509577
 10
-4.461085297131147
 20
1.9914362192622943
 10
-4.3608992930553
 20
2.0352648695023343
 10
-4.2620017575123255
 20
2.0814410095214826
 10
-4.164427991210436
 20
2.12992933861154
 10
-4.068213294857837
 20
2.1806945560642927
 10
-3.9733929691627377
 20
2.233701361171535
 10
-3.8800023148333427
 20
2.288914453225058
 10
-3.7880766325778623
 20
2.3462985315166534
 10
-3.697651223104507
 20
2.405818295338113
 10
-3.608761387121482
 20
2.4674384439812327
 10
-3.521442425336993
 20
2.5311236767378014
 10
-3.4357296384592506
 20
2.59683869289961
 10
-3.3516583271964637
 20
2.664548191758453
 10
-3.2692637922568375
 20
2.7342168726061202
 10
-3.188581334348583
 20
2.8058094347344062
 10
-3.1096462541799075
 20
2.879290577435102
 10
-3.0324938524590164
 20
2.9546249999999996
 10
-2.957159429894119
 20
3.0317774017208907
 10
-2.8836782871934203
 20
3.1107124818895677
 10
-2.812085725065136
 20
3.1913949397978243
 10
-2.742417044217467
 20
3.2737894747374483
 10
-2.6747075453586255
 20
3.357860786000235
 10
-2.6089925291968155
 20
3.4435735728779777
 10
-2.545307296440249
 20
3.530892534662466
 10
-2.48368714779713
 20
3.619782370645493
 10
-2.4241673839756697
 20
3.710207780118848
 10
-2.3667833056840735
 20
3.8021334623743295
 10
-2.311570213630549
 20
3.895524116703722
 10
-2.258563408523308
 20
3.99034444239882
 10
-2.2077981910705557
 20
4.0865591387514195
 10
-2.159309861980498
 20
4.18413290505331
 10
-2.1131337219613484
 20
4.283030440596284
 10
-2.0693050717213097
 20
4.38321644467213
 10
-2.0278592119685923
 20
4.484655616572645
 10
-1.9888314434114036
 20
4.587312655589619
 10
-1.9522570667579497
 20
4.691152261014843
 10
-1.9181713827164444
 20
4.796139132140113
 10
-1.8866096919950894
 20
4.902237968257215
 10
-1.8576072953020917
 20
5.0094134686579475
 10
-1.831199493345667
 20
5.117630332634096
 10
-1.8074215868340149
 20
5.226853259477458
 10
-1.7863088764753492
 20
5.3370469484798235
 10
-1.767896662977874
 20
5.4481760989329855
 10
-1.7522202470497985
 20
5.5602054101287335
 10
-1.7393149293993337
 20
5.673099581358862
 10
-1.7292160107346817
 20
5.786823311915163
 10
-1.7219587917640538
 20
5.901341301089428
 10
-1.7175785731956588
 20
6.016618248173447
 10
-1.7161106557377033
 20
6.132618852459015
 10
-1.7175785731956588
 20
6.2486219153638745
 10
-1.721958791764056
 20
6.363901244241683
 10
-1.7292160107346817
 20
6.478421539603686
 10
-1.7393149293993337
 20
6.59214750196113
 10
-1.7522202470497985
 20
6.7050438318252565
 10
-1.767896662977874
 20
6.817075229707311
 10
-1.7863088764753492
 20
6.928206396118539
 10
-1.8074215868340127
 20
7.038402031570185
 10
-1.831199493345667
 20
7.147626836573492
 10
-1.8576072953020941
 20
7.255845511639706
 10
-1.8866096919950894
 20
7.363022757280069
 10
-1.9181713827164444
 20
7.4691232740058275
 10
-1.9522570667579497
 20
7.5741117623282275
 10
-1.9888314434114036
 20
7.67795292275851
 10
-2.0278592119685936
 20
7.780611455807921
 10
-2.0693050717213097
 20
7.882052061987706
 10
-2.1131337219613484
 20
7.982239441809108
 10
-2.159309861980498
 20
8.081138295783372
 10
-2.2077981910705557
 20
8.178713324421743
 10
-2.258563408523308
 20
8.274929228235465
 10
-2.311570213630549
 20
8.369750707735783
 10
-2.3667833056840735
 20
8.46314246343394
 10
-2.4241673839756697
 20
8.555069195841181
 10
-2.48368714779713
 20
8.645495605468753
 10
-2.545307296440249
 20
8.734386392827897
 10
-2.6089925291968155
 20
8.821706258429858
 10
-2.6747075453586255
 20
8.90741990278588
 10
-2.742417044217467
 20
8.991492026407213
 10
-2.812085725065136
 20
9.073887329805094
 10
-2.8836782871934203
 20
9.154570513490771
 10
-2.957159429894119
 20
9.233506277975492
 10
-3.0324938524590164
 20
9.310659323770494
 10
-3.1096462541799075
 20
9.385994351387026
 10
-3.1885813343485845
 20
9.459476061336334
 10
-3.2692637922568375
 20
9.531069154129657
 10
-3.3516583271964637
 20
9.600738330278242
 10
-3.4357296384592506
 20
9.668448290293338
 10
-3.521442425336993
 20
9.734163734686181
 10
-3.608761387121482
 20
9.797849363968023
 10
-3.697651223104507
 20
9.859469878650104
 10
-3.7880766325778623
 20
9.91898997924367
 10
-3.8800023148333427
 20
9.976374366259968
 10
-3.9733929691627377
 20
10.031587740210238
 10
-4.068213294857837
 20
10.084594801605727
 10
-4.164427991210435
 20
10.135360250957678
 10
-4.2620017575123255
 20
10.183848788777338
 10
-4.3608992930553
 20
10.23002511557595
 10
-4.461085297131146
 20
10.273853931864757
 10
-4.562524469031662
 20
10.315299938155004
 10
-4.665181508048636
 20
10.354327834957937
 10
-4.769021113473859
 20
10.3909023227848
 10
-4.874007984599128
 20
10.42498810214684
 10
-4.980106820716232
 20
10.456549873555295
 10
-5.087282321116962
 20
10.485552337521414
 10
-5.195499185093113
 20
10.51196019455644
 10
-5.304722111936473
 20
10.53573814517162
 10
-5.41491580093884
 20
10.556850889878197
 10
-5.5260449513920005
 20
10.575263129187414
 10
-5.63807426258775
 20
10.590939563610515
 10
-5.750968433817878
 20
10.60384489365875
 10
-5.864692164374179
 20
10.613943819843357
 10
-5.9792101535484425
 20
10.621201042675585
 10
-6.094487100632463
 20
10.625581262666673
 10
-6.210487704918032
 20
10.627049180327871
 10
-9.639344262295081
 20
10.627049180327871
  0
LWPOLYLINE
  5
32
330
17
100
AcDbEntity
  8
0
100
AcDbPolyline
 90
389
 70
0
 10
9.54098360655738
 20
-10.684426229508198
 10
6.1121270491803275
 20
-10.684426229508198
 10
5.996126444894759
 20
-10.682958311846999
 10
5.880849497810736
 20
-10.678578091855911
 10
5.766331508636473
 20
-10.671320869023685
 10
5.6526077780801725
 20
-10.661221942839076
 10
5.539713606850046
 20
-10.648316612790843
 10
5.427684295654297
 20
-10.632640178367742
 10
5.3165551452011375
 20
-10.614227939058521
 10
5.206361456198768
 20
-10.593115194351947
 10
5.097138529355409
 20
-10.569337243736765
 10
4.988921665379259
 20
-10.542929386701745
 10
4.881746164978526
 20
-10.513926922735621
 10
4.775647328861424
 20
-10.482365151327167
 10
4.6706604577361555
 20
-10.448279371965128
 10
4.56682085231093
 20
-10.411704884138263
 10
4.464163813293958
 20
-10.372676987335328
 10
4.362724641393442
 20
-10.331230981045081
 10
4.262538637317594
 20
-10.287402164756276
 10
4.163641101774621
 20
-10.241225837957664
 10
4.066067335472732
 20
-10.192737300138004
 10
3.969852639120132
 20
-10.14197185078605
 10
3.8750323134250313
 20
-10.088964789390566
 10
3.7816416590956363
 20
-10.033751415440294
 10
3.6897159768401586
 20
-9.976367028424
 10
3.599290567366802
 20
-9.91684692783043
 10
3.51040073138378
 20
-9.85522641314835
 10
3.423081769599288
 20
-9.791540783866507
 10
3.3373689827215465
 20
-9.725825339473662
 10
3.25329767145876
 20
-9.658115379458568
 10
3.170903136519137
 20
-9.588446203309982
 10
3.0902206786108795
 20
-9.516853110516655
 10
3.011285598442201
 20
-9.443371400567354
 10
2.9341331967213113
 20
-9.368036372950819
 10
2.858798774156416
 20
-9.290883327155816
 10
2.7853176314557175
 20
-9.211947562671094
 10
2.713725069327432
 20
-9.131264378985419
 10
2.6440563884797634
 20
-9.048869075587538
 10
2.5763468896209227
 20
-8.964796951966209
 10
2.510631873459115
 20
-8.87908330761018
 10
2.446946640702544
 20
-8.791763442008223
 10
2.3853264920594257
 20
-8.702872654649077
 10
2.3258067282379624
 20
-8.612446245021507
 10
2.2684226499463698
 20
-8.520519512614264
 10
2.2132095578928475
 20
-8.42712775691611
 10
2.1602027527856063
 20
-8.332306277415793
 10
2.1094375353328516
 20
-8.236090373602066
 10
2.060949206242794
 20
-8.138515344963697
 10
2.0147730662236447
 20
-8.039616490989435
 10
1.970944415983608
 20
-7.9394291111680335
 10
1.9294985562308908
 20
-7.837988504988246
 10
1.8904707876736973
 20
-7.7353299719388335
 10
1.8538964110202458
 20
-7.631488811508553
 10
1.819810726978738
 20
-7.526500323186152
 10
1.7882490362573855
 20
-7.420399806460395
 10
1.75924663956439
 20
-7.313222560820031
 10
1.7328388376079606
 20
-7.205003885753817
 10
1.709060931096311
 20
-7.0957790807505114
 10
1.6879482207376428
 20
-6.985583445298866
 10
1.6695360072401702
 20
-6.874452278887639
 10
1.6538595913120946
 20
-6.762420881005583
 10
1.6409542736616274
 20
-6.649524551141456
 10
1.6308553549969778
 20
-6.535798588784013
 10
1.6235981360263496
 20
-6.42127829342201
 10
1.6192179174579548
 20
-6.3059989645442025
 10
1.6177499999999994
 20
-6.189995901639342
 10
1.6192179174579548
 20
-6.0739952973537745
 10
1.6235981360263496
 20
-5.958718350269754
 10
1.6308553549969778
 20
-5.84420036109549
 10
1.6409542736616296
 20
-5.730476630539187
 10
1.6538595913120946
 20
-5.6175824593090615
 10
1.6695360072401677
 20
-5.505553148113312
 10
1.6879482207376453
 20
-5.394423997660151
 10
1.709060931096311
 20
-5.2842303086577855
 10
1.7328388376079606
 20
-5.1750073818144235
 10
1.75924663956439
 20
-5.066790517838272
 10
1.7882490362573855
 20
-4.9596150174375415
 10
1.819810726978738
 20
-4.853516181320441
 10
1.853896411020248
 20
-4.74852931019517
 10
1.8904707876736997
 20
-4.644689704769946
 10
1.9294985562308886
 20
-4.5420326657529735
 10
1.970944415983608
 20
-4.440593493852457
 10
2.0147730662236447
 20
-4.340407489776609
 10
2.060949206242794
 20
-4.2415099542336385
 10
2.1094375353328516
 20
-4.143936187931747
 10
2.1602027527856063
 20
-4.047721491579149
 10
2.2132095578928475
 20
-3.9529011658840467
 10
2.2684226499463698
 20
-3.859510511554654
 10
2.3258067282379624
 20
-3.767584829299174
 10
2.3853264920594257
 20
-3.6771594198258195
 10
2.446946640702544
 20
-3.588269583842793
 10
2.5106318734591127
 20
-3.5009506220583035
 10
2.5763468896209227
 20
-3.4152378351805646
 10
2.6440563884797657
 20
-3.3311665239177755
 10
2.713725069327432
 20
-3.2487719889781475
 10
2.7853176314557175
 20
-3.168089531069895
 10
2.858798774156416
 20
-3.0891544509012188
 10
2.9341331967213113
 20
-3.012002049180324
 10
3.011285598442201
 20
-2.936667626615427
 10
3.0902206786108795
 20
-2.863186483914735
 10
3.170903136519137
 20
-2.7915939217864474
 10
3.25329767145876
 20
-2.721925240938779
 10
3.3373689827215465
 20
-2.654215742079936
 10
3.423081769599288
 20
-2.588500725918126
 10
3.51040073138378
 20
-2.5248154931615594
 10
3.599290567366802
 20
-2.463195344518441
 10
3.689715976840156
 20
-2.403675580696978
 10
3.7816416590956363
 20
-2.346291502405383
 10
3.8750323134250313
 20
-2.29107841035186
 10
3.969852639120132
 20
-2.2380716052446195
 10
4.066067335472732
 20
-2.187306387791867
 10
4.163641101774621
 20
-2.1388180587018115
 10
4.262538637317597
 20
-2.09264191868266
 10
4.36272464139344
 20
-2.0488132684426237
 10
4.464163813293958
 20
-2.0073674086899063
 10
4.56682085231093
 20
-1.968339640132713
 10
4.6706604577361555
 20
-1.9317652634792613
 10
4.775647328861424
 20
-1.897679579437756
 10
4.881746164978526
 20
-1.866117888716401
 10
4.988921665379261
 20
-1.8371154920234054
 10
5.097138529355409
 20
-1.8107076900669785
 10
5.206361456198768
 20
-1.7869297835553264
 10
5.316555145201135
 20
-1.7658170731966607
 10
5.427684295654297
 20
-1.7474048596991856
 10
5.539713606850044
 20
-1.7317284437711122
 10
5.6526077780801725
 20
-1.7188231261206453
 10
5.766331508636473
 20
-1.7087242074559932
 10
5.880849497810739
 20
-1.7014669884853675
 10
5.996126444894759
 20
-1.6970867699169703
 10
6.1121270491803275
 20
-1.6956188524590148
 10
8.853475409836067
 20
-1.6956188524590148
 10
8.813723048757337
 20
-1.895604157823031
 10
8.769719220521019
 20
-2.093817697618826
 10
8.721517027401532
 20
-2.2902153874225286
 10
8.669169571673281
 20
-2.4847531428102574
 10
8.61272995561068
 20
-2.6773868793581346
 10
8.55225128148814
 20
-2.868072512642282
 10
8.487786651580059
 20
-3.056765958238818
 10
8.41938916816086
 20
-3.2434231317238735
 10
8.34711193350495
 20
-3.4279999486735577
 10
8.271008049886735
 20
-3.6104523246640063
 10
8.191130619580626
 20
-3.79073617527133
 10
8.107532744861041
 20
-3.9688074160716544
 10
8.020267528002377
 20
-4.144621962641105
 10
7.929388071279057
 20
-4.3181357305558
 10
7.834947476965482
 20
-4.489304635391862
 10
7.736998847336062
 20
-4.658084592725411
 10
7.635595284665218
 20
-4.824431518132568
 10
7.530789891227344
 20
-4.988301327189461
 10
7.422635769296865
 20
-5.149649935472205
 10
7.311186021148181
 20
-5.30843325855693
 10
7.196493749055702
 20
-5.464607212019748
 10
7.078612055293849
 20
-5.618127711436786
 10
6.957594042137018
 20
-5.768950672384168
 10
6.833492811859631
 20
-5.917032010438013
 10
6.706361466736089
 20
-6.06232764117444
 10
6.576253109040803
 20
-6.204793480169579
 10
6.443220841048191
 20
-6.34438544299954
 10
6.307317765032654
 20
-6.481059445240459
 10
6.168596983268609
 20
-6.614771402468446
 10
6.027111598030464
 20
-6.745477230259628
 10
5.882914711592626
 20
-6.873132844190127
 10
5.736059426229509
 20
-6.997694159836063
 10
5.586598844215517
 20
-7.119117092773564
 10
5.434586067825068
 20
-7.237357558578741
 10
5.2800741993325655
 20
-7.352371472827722
 10
5.1231163410124205
 20
-7.464114751096631
 10
4.963765595139051
 20
-7.572543308961589
 10
4.802075063986854
 20
-7.677613061998713
 10
4.6380978498302525
 20
-7.779279925784128
 10
4.471887054943646
 20
-7.877499815893955
 10
4.303495781601451
 20
-7.972228647904317
 10
4.132977132078078
 20
-8.06342233739134
 10
3.960384208647931
 20
-8.151036799931134
 10
3.7857701135854263
 20
-8.235027951099832
 10
3.6091879491649697
 20
-8.315351706473553
 10
3.430690817660972
 20
-8.391963981628418
 10
3.2503318213478476
 20
-8.464820692140549
 10
3.0681640624999966
 20
-8.533877753586067
 10
2.884240643391843
 20
-8.599091081541095
 10
2.6986146662977877
 20
-8.660416591581752
 10
2.511339233492242
 20
-8.717810199284164
 10
2.3224674472496143
 20
-8.771227820224452
 10
2.1320524098443205
 20
-8.820625369978735
 10
1.9401472235507646
 20
-8.865958764123135
 10
1.7468049906433596
 20
-8.90718391823378
 10
1.5520788133965169
 20
-8.944256747886785
 10
1.3560217940846424
 20
-8.977133168658275
 10
1.1586870349821496
 20
-9.005769096124366
 10
0.9601276383634474
 20
-9.03012044586119
 10
0.7603967065029441
 20
-9.050143133444866
 10
0.5595473416750555
 20
-9.065793074451511
 10
0.3576326461541856
 20
-9.07702618445725
 10
0.15470572221474763
 20
-9.0837983790382
 10
-0.049180327868851986
 20
-9.086065573770494
 10
-0.25306641636519794
 20
-9.08379834042221
 10
-0.45599345310398715
 20
-9.077026031619214
 10
-0.6579083321524476
 20
-9.065792734224289
 10
-0.8587579475778028
 20
-9.05014253510022
 10
-1.0584891934472993
 20
-9.030119521109786
 10
-1.2570489638281632
 20
-9.005767779115773
 10
-1.454384152787632
 20
-8.977131395980962
 10
-1.6504416543929288
 20
-8.944254458568135
 10
-1.8451683627112958
 20
-8.90718105374008
 10
-2.0385111718099616
 20
-8.865955268359583
 10
-2.2304169757561603
 20
-8.820621189289405
 10
-2.4208326686171233
 20
-8.771222903392355
 10
-2.609705144460084
 20
-8.717804497531203
 10
-2.796981297352274
 20
-8.660410058568738
 10
-2.982608021360929
 20
-8.599083673367735
 10
-3.1665322105532785
 20
-8.533869428790986
 10
-3.348700758996557
 20
-8.464811411701268
 10
-3.529060560757997
 20
-8.391953708961362
 10
-3.7075585099048296
 20
-8.315340407434059
 10
-3.884141500504289
 20
-8.235015593982135
 10
-4.058756426623611
 20
-8.151023355468377
 10
-4.231350182330022
 20
-8.063407778755566
 10
-4.401869661690759
 20
-7.972212950706481
 10
-4.570261758773053
 20
-7.877482958183913
 10
-4.736473367644138
 20
-7.779261888050644
 10
-4.900451382371246
 20
-7.67759382716945
 10
-5.062142697021609
 20
-7.572522862403119
 10
-5.221494205662462
 20
-7.464093080614434
 10
-5.378452802361036
 20
-7.3523485686661765
 10
-5.532965381184562
 20
-7.237333413421128
 10
-5.684978836200275
 20
-7.119091701742079
 10
-5.83444006147541
 20
-6.997667520491802
 10
-5.981295951077197
 20
-6.873104956533087
 10
-6.125493399072866
 20
-6.745448096728716
 10
-6.266979299529653
 20
-6.614741027941469
 10
-6.405700546514792
 20
-6.481027837034132
 10
-6.5416040340955135
 20
-6.344352610869485
 10
-6.67463665633905
 20
-6.204759436310319
 10
-6.804745307312636
 20
-6.062292400219401
 10
-6.931876881083504
 20
-5.91699558945953
 10
-7.055978271718884
 20
-5.768913090893482
 10
-7.176996373286014
 20
-5.618088991384038
 10
-7.294878079852119
 20
-5.464567377793987
 10
-7.409570285484439
 20
-5.308392336986105
 10
-7.521019884250204
 20
-5.149607955823179
 10
-7.629173770216644
 20
-4.988258321167995
 10
-7.733978837450997
 20
-4.824387519883329
 10
-7.835381980020492
 20
-4.6580396388319665
 10
-7.933330091992364
 20
-4.489258764876694
 10
-8.027770067433842
 20
-4.318088984880291
 10
-8.118648800412162
 20
-4.144574385705541
 10
-8.205913184994555
 20
-3.9687590542152287
 10
-8.289510115248257
 20
-3.790687077272134
 10
-8.369386485240499
 20
-3.610402541739043
 10
-8.445489189038511
 20
-3.427949534478733
 10
-8.517765120709528
 20
-3.2433721423539974
 10
-8.586161174320782
 20
-3.0567144522276086
 10
-8.65062424393951
 20
-2.868020550962353
 10
-8.711101223632937
 20
-2.677334525421017
 10
-8.7675390074683
 20
-2.4847004624663804
 10
-8.819884489512834
 20
-2.2901624489612247
 10
-8.868084563833769
 20
-2.0937645717683386
 10
-8.912086124498336
 20
-1.8955509177504999
 10
-8.95183606557377
 20
-1.695565573770492
 10
-6.210487704918032
 20
-1.6956188524590148
 10
-6.094487100632463
 20
-1.6970867699169703
 10
-5.979210153548443
 20
-1.7014669884853675
 10
-5.86469216437418
 20
-1.7087242074559932
 10
-5.750968433817878
 20
-1.7188231261206453
 10
-5.63807426258775
 20
-1.7317284437711122
 10
-5.5260449513920005
 20
-1.7474048596991856
 10
-5.41491580093884
 20
-1.7658170731966607
 10
-5.304722111936473
 20
-1.7869297835553264
 10
-5.195499185093113
 20
-1.8107076900669785
 10
-5.087282321116964
 20
-1.8371154920234054
 10
-4.980106820716232
 20
-1.866117888716401
 10
-4.874007984599128
 20
-1.897679579437756
 10
-4.769021113473859
 20
-1.9317652634792613
 10
-4.665181508048636
 20
-1.9683396401327151
 10
-4.562524469031662
 20
-2.007367408689904
 10
-4.461085297131147
 20
-2.048813268442621
 10
-4.3608992930553
 20
-2.09264191868266
 10
-4.2620017575123255
 20
-2.1388180587018115
 10
-4.164427991210436
 20
-2.187306387791865
 10
-4.068213294857837
 20
-2.2380716052446195
 10
-3.9733929691627377
 20
-2.29107841035186
 10
-3.8800023148333427
 20
-2.346291502405385
 10
-3.7880766325778623
 20
-2.403675580696978
 10
-3.697651223104507
 20
-2.463195344518441
 10
-3.608761387121482
 20
-2.5248154931615594
 10
-3.521442425336993
 20
-2.588500725918126
 10
-3.4357296384592506
 20
-2.654215742079936
 10
-3.3516583271964637
 20
-2.721925240938779
 10
-3.2692637922568375
 20
-2.7915939217864474
 10
-3.188581334348583
 20
-2.863186483914735
 10
-3.1096462541799075
 20
-2.9366676266154292
 10
-3.0324938524590164
 20
-3.012002049180324
 10
-2.957159429894119
 20
-3.0891544509012188
 10
-2.8836782871934203
 20
-3.168089531069897
 10
-2.812085725065136
 20
-3.2487719889781475
 10
-2.742417044217467
 20
-3.3311665239177755
 10
-2.6747075453586255
 20
-3.4152378351805646
 10
-2.6089925291968155
 20
-3.5009506220583035
 10
-2.545307296440249
 20
-3.588269583842793
 10
-2.48368714779713
 20
-3.6771594198258195
 10
-2.4241673839756697
 20
-3.767584829299174
 10
-2.3667833056840735
 20
-3.859510511554656
 10
-2.311570213630549
 20
-3.9529011658840467
 10
-2.258563408523308
 20
-4.047721491579147
 10
-2.2077981910705557
 20
-4.143936187931747
 10
-2.159309861980498
 20
-4.2415099542336385
 10
-2.1131337219613484
 20
-4.340407489776609
 10
-2.0693050717213097
 20
-4.44059349385246
 10
-2.0278592119685923
 20
-4.5420326657529735
 10
-1.9888314434114036
 20
-4.644689704769946
 10
-1.9522570667579497
 20
-4.74852931019517
 10
-1.9181713827164444
 20
-4.853516181320439
 10
-1.8866096919950894
 20
-4.9596150174375415
 10
-1.8576072953020917
 20
-5.066790517838275
 10
-1.831199493345667
 20
-5.1750073818144235
 10
-1.8074215868340149
 20
-5.284230308657787
 10
-1.7863088764753492
 20
-5.394423997660151
 10
-1.767896662977874
 20
-5.505553148113312
 10
-1.7522202470497985
 20
-5.617582459309059
 10
-1.7393149293993337
 20
-5.730476630539187
 10
-1.7292160107346817
 20
-5.84420036109549
 10
-1.7219587917640538
 20
-5.958718350269754
 10
-1.7175785731956588
 20
-6.0739952973537745
 10
-1.7161106557377033
 20
-6.189995901639342
 10
-1.7175785731956588
 20
-6.3059989645442025
 10
-1.721958791764056
 20
-6.42127829342201
 10
-1.7292160107346817
 20
-6.535798588784013
 10
-1.7393149293993337
 20
-6.649524551141454
 10
-1.7522202470497985
 20
-6.762420881005583
 10
-1.767896662977874
 20
-6.874452278887637
 10
-1.7863088764753492
 20
-6.985583445298866
 10
-1.8074215868340127
 20
-7.095779080750514
 10
-1.831199493345667
 20
-7.205003885753817
 10
-1.8576072953020941
 20
-7.313222560820031
 10
-1.8866096919950894
 20
-7.420399806460395
 10
-1.9181713827164444
 20
-7.526500323186152
 10
-1.9522570667579497
 20
-7.631488811508553
 10
-1.9888314434114036
 20
-7.735329971938835
 10
-2.0278592119685936
 20
-7.837988504988246
 10
-2.0693050717213097
 20
-7.939429111168031
 10
-2.1131337219613484
 20
-8.039616490989435
 10
-2.159309861980498
 20
-8.138515344963697
 10
-2.2077981910705557
 20
-8.236090373602067
 10
-2.258563408523308
 20
-8.332306277415793
 10
-2.311570213630549
 20
-8.427127756916109
 10
-2.3667833056840735
 20
-8.520519512614264
 10
-2.4241673839756697
 20
-8.612446245021507
 10
-2.48368714779713
 20
-8.702872654649077
 10
-2.545307296440249
 20
-8.791763442008223
 10
-2.6089925291968155
 20
-8.87908330761018
 10
-2.6747075453586255
 20
-8.964796951966209
 10
-2.742417044217467
 20
-9.048869075587533
 10
-2.812085725065136
 20
-9.131264378985424
 10
-2.8836782871934203
 20
-9.211947562671094
 10
-2.957159429894119
 20
-9.290883327155816
 10
-3.0324938524590164
 20
-9.368036372950819
 10
-3.1096462541799075
 20
-9.443371400567354
 10
-3.1885813343485845
 20
-9.516853110516655
 10
-3.2692637922568375
 20
-9.588446203309982
 10
-3.3516583271964637
 20
-9.658115379458568
 10
-3.4357296384592506
 20
-9.725825339473662
 10
-3.521442425336993
 20
-9.791540783866507
 10
-3.608761387121482
 20
-9.85522641314835
 10
-3.697651223104507
 20
-9.91684692783043
 10
-3.7880766325778623
 20
-9.976367028424
 10
-3.8800023148333427
 20
-10.033751415440294
 10
-3.9733929691627377
 20
-10.088964789390566
 10
-4.068213294857837
 20
-10.141971850786055
 10
-4.164427991210435
 20
-10.192737300138004
 10
-4.2620017575123255
 20
-10.241225837957664
 10
-4.3608992930553
 20
-10.287402164756276
 10
-4.461085297131146
 20
-10.331230981045081
 10
-4.562524469031662
 20
-10.372676987335328
 10
-4.665181508048636
 20
-10.411704884138263
 10
-4.769021113473859
 20
-10.448279371965128
 10
-4.874007984599128
 20
-10.482365151327167
 10
-4.980106820716232
 20
-10.513926922735621
 10
-5.087282321116962
 20
-10.54292938670174
 10
-5.195499185093113
 20
-10.56933724373677
 10
-5.304722111936473
 20
-10.593115194351947
 10
-5.41491580093884
 20
-10.614227939058521
 10
-5.5260449513920005
 20
-10.632640178367742
 10
-5.63807426258775
 20
-10.648316612790843
 10
-5.750968433817878
 20
-10.661221942839076
 10
-5.864692164374179
 20
-10.671320869023685
 10
-5.9792101535484425
 20
-10.678578091855911
 10
-6.094487100632463
 20
-10.682958311846999
 10
-6.210487704918032
 20
-10.684426229508198
 10
-9.639344262295081
 20
-10.684426229508198
  0
LWPOLYLINE
  5
33
330
17
100
AcDbEntity
  8
0
100
AcDbPolyline
 90
389
 70
0
 10
9.54098360655738
 20
-10.684426229508198
 10
6.1121270491803275
 20
-10.684426229508198
 10
5.996126444894759
 20
-10.682958311846999
 10
5.880849497810736
 20
-10.678578091855911
 10
5.766331508636473
 20
-10.671320869023685
 10
5.6526077780801725
 20
-10.661221942839076
 10
5.539713606850046
 20
-10.648316612790843
 10
5.427684295654297
 20
-10.632640178367742
 10
5.3165551452011375
 20
-10.614227939058521
 10
5.206361456198768
 20
-10.593115194351947
 10
5.097138529355409
 20
-10.569337243736765
 10
4.988921665379259
 20
-10.542929386701745
 10
4.881746164978526
 20
-10.513926922735621
 10
4.775647328861424
 20
-10.482365151327167
 10
4.6706604577361555
 20
-10.448279371965128
 10
4.56682085231093
 20
-10.411704884138263
 10
4.464163813293958
 20
-10.372676987335328
 10
4.362724641393442
 20
-10.331230981045081
 10
4.262538637317594
 20
-10.287402164756276
 10
4.163641101774621
 20
-10.241225837957664
 10
4.066067335472732
 20
-10.192737300138004
 10
3.969852639120132
 20
-10.14197185078605
 10
3.8750323134250313
 20
-10.088964789390566
 10
3.7816416590956363
 20
-10.033751415440294
 10
3.6897159768401586
 20
-9.976367028424
 10
3.599290567366802
 20
-9.91684692783043
 10
3.51040073138378
 20
-9.85522641314835
 10
3.423081769599288
 20
-9.791540783866507
 10
3.3373689827215465
 20
-9.725825339473662
 10
3.25329767145876
 20
-9.658115379458568
 10
3.170903136519137
 20
-9.588446203309982
 10
3.0902206786108795
 20
-9.516853110516655
 10
3.011285598442201
 20
-9.443371400567354
 10
2.9341331967213113
 20
-9.368036372950819
 10
2.858798774156416
 20
-9.290883327155816
 10
2.7853176314557175
 20
-9.211947562671094
 10
2.713725069327432
 20
-9.131264378985419
 10
2.6440563884797634
 20
-9.048869075587538
 10
2.5763468896209227
 20
-8.964796951966209
 10
2.510631873459115
 20
-8.87908330761018
 10
2.446946640702544
 20
-8.791763442008223
 10
2.3853264920594257
 20
-8.702872654649077
 10
2.3258067282379624
 20
-8.612446245021507
 10
2.2684226499463698
 20
-8.520519512614264
 10
2.2132095578928475
 20
-8.42712775691611
 10
2.1602027527856063
 20
-8.332306277415793
 10
2.1094375353328516
 20
-8.236090373602066
 10
2.060949206242794
 20
-8.138515344963697
 10
2.0147730662236447
 20
-8.039616490989435
 10
1.970944415983608
 20
-7.9394291111680335
 10
1.9294985562308908
 20
-7.837988504988246
 10
1.8904707876736973
 20
-7.7353299719388335
 10
1.8538964110202458
 20
-7.631488811508553
 10
1.819810726978738
 20
-7.526500323186152
 10
1.7882490362573855
 20
-7.420399806460395
 10
1.75924663956439
 20
-7.313222560820031
 10
1.7328388376079606
 20
-7.205003885753817
 10
1.709060931096311
 20
-7.0957790807505114
 10
1.6879482207376428
 20
-6.985583445298866
 10
1.6695360072401702
 20
-6.874452278887639
 10
1.6538595913120946
 20
-6.762420881005583
 10
1.6409542736616274
 20
-6.649524551141456
 10
1.6308553549969778
 20
-6.535798588784013
 10
1.6235981360263496
 20
-6.42127829342201
 10
1.6192179174579548
 20
-6.3059989645442025
 10
1.6177499999999994
 20
-6.189995901639342
 10
1.6192179174579548
 20
-6.0739952973537745
 10
1.6235981360263496
 20
-5.958718350269754
 10
1.6308553549969778
 20
-5.84420036109549
 10
1.6409542736616296
 20
-5.730476630539187
 10
1.6538595913120946
 20
-5.6175824593090615
 10
1.6695360072401677
 20
-5.505553148113312
 10
1.6879482207376453
 20
-5.394423997660151
 10
1.709060931096311
 20
-5.2842303086577855
 10
1.7328388376079606
 20
-5.1750073818144235
 10
1.75924663956439
 20
-5.066790517838272
 10
1.7882490362573855
 20
-4.9596150174375415
 10
1.819810726978738
 20
-4.853516181320441
 10
1.853896411020248
 20
-4.74852931019517
 10
1.8904707876736997
 20
-4.644689704769946
 10
1.9294985562308886
 20
-4.5420326657529735
 10
1.970944415983608
 20
-4.440593493852457
 10
2.0147730662236447
 20
-4.340407489776609
 10
2.060949206242794
 20
-4.2415099542336385
 10
2.1094375353328516
 20
-4.143936187931747
 10
2.1602027527856063
 20
-4.047721491579149
 10
2.2132095578928475
 20
-3.9529011658840467
 10
2.2684226499463698
 20
-3.859510511554654
 10
2.3258067282379624
 20
-3.767584829299174
 10
2.3853264920594257
 20
-3.6771594198258195
 10
2.446946640702544
 20
-3.588269583842793
 10
2.5106318734591127
 20
-3.5009506220583035
 10
2.5763468896209227
 20
-3.4152378351805646
 10
2.6440563884797657
 20
-3.3311665239177755
 10
2.713725069327432
 20
-3.2487719889781475
 10
2.7853176314557175
 20
-3.168089531069895
 10
2.858798774156416
 20
-3.0891544509012188
 10
2.9341331967213113
 20
-3.012002049180324
 10
3.011285598442201
 20
-2.936667626615427
 10
3.0902206786108795
 20
-2.863186483914735
 10
3.170903136519137
 20
-2.7915939217864474
 10
3.25329767145876
 20
-2.721925240938779
 10
3.3373689827215465
 20
-2.654215742079936
 10
3.423081769599288
 20
-2.588500725918126
 10
3.51040073138378
 20
-2.5248154931615594
 10
3.599290567366802
 20
-2.463195344518441
 10
3.689715976840156
 20
-2.403675580696978
 10
3.7816416590956363
 20
-2.346291502405383
 10
3.8750323134250313
 20
-2.29107841035186
 10
3.969852639120132
 20
-2.2380716052446195
 10
4.066067335472732
 20
-2.187306387791867
 10
4.163641101774621
 20
-2.1388180587018115
 10
4.262538637317597
 20
-2.09264191868266
 10
4.36272464139344
 20
-2.0488132684426237
 10
4.464163813293958
 20
-2.0073674086899063
 10
4.56682085231093
 20
-1.968339640132713
 10
4.6706604577361555
 20
-1.9317652634792613
 10
4.775647328861424
 20
-1.897679579437756
 10
4.881746164978526
 20
-1.866117888716401
 10
4.988921665379261
 20
-1.8371154920234054
 10
5.097138529355409
 20
-1.8107076900669785
 10
5.206361456198768
 20
-1.7869297835553264
 10
5.316555145201135
 20
-1.7658170731966607
 10
5.427684295654297
 20
-1.7474048596991856
 10
5.539713606850044
 20
-1.7317284437711122
 10
5.6526077780801725
 20
-1.7188231261206453
 10
5.766331508636473
 20
-1.7087242074559932
 10
5.880849497810739
 20
-1.7014669884853675
 10
5.996126444894759
 20
-1.6970867699169703
 10
6.1121270491803275
 20
-1.6956188524590148
 10
8.853475409836067
 20
-1.6956188524590148
 10
8.813723048757337
 20
-1.895604157823031
 10
8.769719220521019
 20
-2.093817697618826
 10
8.721517027401532
 20
-2.2902153874225286
 10
8.669169571673281
 20
-2.4847531428102574
 10
8.61272995561068
 20
-2.6773868793581346
 10
8.55225128148814
 20
-2.868072512642282
 10
8.487786651580059
 20
-3.056765958238818
 10
8.41938916816086
 20
-3.2434231317238735
 10
8.34711193350495
 20
-3.4279999486735577
 10
8.271008049886735
 20
-3.6104523246640063
 10
8.191130619580626
 20
-3.79073617527133
 10
8.107532744861041
 20
-3.9688074160716544
 10
8.020267528002377
 20
-4.144621962641105
 10
7.929388071279057
 20
-4.3181357305558
 10
7.834947476965482
 20
-4.489304635391862
 10
7.736998847336062
 20
-4.658084592725411
 10
7.635595284665218
 20
-4.824431518132568
 10
7.530789891227344
 20
-4.988301327189461
 10
7.422635769296865
 20
-5.149649935472205
 10
7.311186021148181
 20
-5.30843325855693
 10
7.196493749055702
 20
-5.464607212019748
 10
7.078612055293849
 20
-5.618127711436786
 10
6.957594042137018
 20
-5.768950672384168
 10
6.833492811859631
 20
-5.917032010438013
 10
6.706361466736089
 20
-6.06232764117444
 10
6.576253109040803
 20
-6.204793480169579
 10
6.443220841048191
 20
-6.34438544299954
 10
6.307317765032654
 20
-6.481059445240459
 10
6.168596983268609
 20
-6.614771402468446
 10
6.027111598030464
 20
-6.745477230259628
 10
5.882914711592626
 20
-6.873132844190127
 10
5.736059426229509
 20
-6.997694159836063
 10
5.586598844215517
 20
-7.119117092773564
 10
5.434586067825068
 20
-7.237357558578741
 10
5.2800741993325655
 20
-7.352371472827722
 10
5.1231163410124205
 20
-7.464114751096631
 10
4.963765595139051
 20
-7.572543308961589
 10
4.802075063986854
 20
-7.677613061998713
 10
4.6380978498302525
 20
-7.779279925784128
 10
4.471887054943646
 20
-7.877499815893955
 10
4.303495781601451
 20
-7.972228647904317
 10
4.132977132078078
 20
-8.06342233739134
 10
3.960384208647931
 20
-8.151036799931134
 10
3.7857701135854263
 20
-8.235027951099832
 10
3.6091879491649697
 20
-8.315351706473553
 10
3.430690817660972
 20
-8.391963981628418
 10
3.2503318213478476
 20
-8.464820692140549
 10
3.0681640624999966
 20
-8.533877753586067
 10
2.884240643391843
 20
-8.599091081541095
 10
2.6986146662977877
 20
-8.660416591581752
 10
2.511339233492242
 20
-8.717810199284164
 10
2.3224674472496143
 20
-8.771227820224452
 10
2.1320524098443205
 20
-8.820625369978735
 10
1.9401472235507646
 20
-8.865958764123135
 10
1.7468049906433596
 20
-8.90718391823378
 10
1.5520788133965169
 20
-8.944256747886785
 10
1.3560217940846424
 20
-8.977133168658275
 10
1.1586870349821496
 20
-9.005769096124366
 10
0.9601276383634474
 20
-9.03012044586119
 10
0.7603967065029441
 20
-9.050143133444866
 10
0.5595473416750555
 20
-9.065793074451511
 10
0.3576326461541856
 20
-9.07702618445725
 10
0.15470572221474763
 20
-9.0837983790382
 10
-0.049180327868851986
 20
-9.086065573770494
 10
-0.25306641636519794
 20
-9.08379834042221
 10
-0.45599345310398715
 20
-9.077026031619214
 10
-0.6579083321524476
 20
-9.065792734224289
 10
-0.8587579475778028
 20
-9.05014253510022
 10
-1.0584891934472993
 20
-9.030119521109786
 10
-1.2570489638281632
 20
-9.005767779115773
 10
-1.454384152787632
 20
-8.977131395980962
 10
-1.6504416543929288
 20
-8.944254458568135
 10
-1.8451683627112958
 20
-8.90718105374008
 10
-2.0385111718099616
 20
-8.865955268359583
 10
-2.2304169757561603
 20
-8.820621189289405
 10
-2.4208326686171233
 20
-8.771222903392355
 10
-2.609705144460084
 20
-8.717804497531203
 10
-2.796981297352274
 20
-8.660410058568738
 10
-2.982608021360929
 20
-8.599083673367735
 10
-3.1665322105532785
 20
-8.533869428790986
 10
-3.348700758996557
 20
-8.464811411701268
 10
-3.529060560757997
 20
-8.391953708961362
 10
-3.7075585099048296
 20
-8.315340407434059
 10
-3.884141500504289
 20
-8.235015593982135
 10
-4.058756426623611
 20
-8.151023355468377
 10
-4.231350182330022
 20
-8.063407778755566
 10
-4.401869661690759
 20
-7.972212950706481
 10
-4.570261758773053
 20
-7.877482958183913
 10
-4.736473367644138
 20
-7.779261888050644
 10
-4.900451382371246
 20
-7.67759382716945
 10
-5.062142697021609
 20
-7.572522862403119
 10
-5.221494205662462
 20
-7.464093080614434
 10
-5.378452802361036
 20
-7.3523485686661765
 10
-5.532965381184562
 20
-7.237333413421128
 10
-5.684978836200275
 20
-7.119091701742079
 10
-5.83444006147541
 20
-6.997667520491802
 10
-5.981295951077197
 20
-6.873104956533087
 10
-6.125493399072866
 20
-6.745448096728716
 10
-6.266979299529653
 20
-6.614741027941469
 10
-6.405700546514792
 20
-6.481027837034132
 10
-6.5416040340955135
 20
-6.344352610869485
 10
-6.67463665633905
 20
-6.204759436310319
 10
-6.804745307312636
 20
-6.062292400219401
 10
-6.931876881083504
 20
-5.91699558945953
 10
-7.055978271718884
 20
-5.768913090893482
 10
-7.176996373286014
 20
-5.618088991384038
 10
-7.294878079852119
 20
-5.464567377793987
 10
-7.409570285484439
 20
-5.308392336986105
 10
-7.521019884250204
 20
-5.149607955823179
 10
-7.629173770216644
 20
-4.988258321167995
 10
-7.733978837450997
 20
-4.824387519883329
 10
-7.835381980020492
 20
-4.6580396388319665
 10
-7.933330091992364
 20
-4.489258764876694
 10
-8.027770067433842
 20
-4.318088984880291
 10
-8.118648800412162
 20
-4.144574385705541
 10
-8.205913184994555
 20
-3.9687590542152287
 10
-8.289510115248257
 20
-3.790687077272134
 10
-8.369386485240499
 20
-3.610402541739043
 10
-8.445489189038511
 20
-3.427949534478733
 10
-8.517765120709528
 20
-3.2433721423539974
 10
-8.586161174320782
 20
-3.0567144522276086
 10
-8.65062424393951
 20
-2.868020550962353
 10
-8.711101223632937
 20
-2.677334525421017
 10
-8.7675390074683
 20
-2.4847004624663804
 10
-8.819884489512834
 20
-2.2901624489612247
 10
-8.868084563833769
 20
-2.0937645717683386
 10
-8.912086124498336
 20
-1.8955509177504999
 10
-8.95183606557377
 20
-1.695565573770492
 10
-6.210487704918032
 20
-1.6956188524590148
 10
-6.094487100632463
 20
-1.6970867699169703
 10
-5.979210153548443
 20
-1.7014669884853675
 10
-5.86469216437418
 20
-1.7087242074559932
 10
-5.750968433817878
 20
-1.7188231261206453
 10
-5.63807426258775
 20
-1.7317284437711122
 10
-5.5260449513920005
 20
-1.7474048596991856
 10
-5.41491580093884
 20
-1.7658170731966607
 10
-5.304722111936473
 20
-1.7869297835553264
 10
-5.195499185093113
 20
-1.8107076900669785
 10
-5.087282321116964
 20
-1.8371154920234054
 10
-4.980106820716232
 20
-1.866117888716401
 10
-4.874007984599128
 20
-1.897679579437756
 10
-4.769021113473859
 20
-1.9317652634792613
 10
-4.665181508048636
 20
-1.9683396401327151
 10
-4.562524469031662
 20
-2.007367408689904
 10
-4.461085297131147
 20
-2.048813268442621
 10
-4.3608992930553
 20
-2.09264191868266
 10
-4.2620017575123255
 20
-2.1388180587018115
 10
-4.164427991210436
 20
-2.187306387791865
 10
-4.068213294857837
 20
-2.2380716052446195
 10
-3.9733929691627377
 20
-2.29107841035186
 10
-3.8800023148333427
 20
-2.346291502405385
 10
-3.7880766325778623
 20
-2.403675580696978
 10
-3.697651223104507
 20
-2.463195344518441
 10
-3.608761387121482
 20
-2.5248154931615594
 10
-3.521442425336993
 20
-2.588500725918126
 10
-3.4357296384592506
 20
-2.654215742079936
 10
-3.3516583271964637
 20
-2.721925240938779
 10
-3.2692637922568375
 20
-2.7915939217864474
 10
-3.188581334348583
 20
-2.863186483914735
 10
-3.1096462541799075
 20
-2.9366676266154292
 10
-3.0324938524590164
 20
-3.012002049180324
 10
-2.957159429894119
 20
-3.0891544509012188
 10
-2.8836782871934203
 20
-3.168089531069897
 10
-2.812085725065136
 20
-3.2487719889781475
 10
-2.742417044217467
 20
-3.3311665239177755
 10
-2.6747075453586255
 20
-3.4152378351805646
 10
-2.6089925291968155
 20
-3.5009506220583035
 10
-2.545307296440249
 20
-3.588269583842793
 10
-2.48368714779713
 20
-3.6771594198258195
 10
-2.4241673839756697
 20
-3.767584829299174
 10
-2.3667833056840735
 20
-3.859510511554656
 10
-2.311570213630549
 20
-3.9529011658840467
 10
-2.258563408523308
 20
-4.047721491579147
 10
-2.2077981910705557
 20
-4.143936187931747
 10
-2.159309861980498
 20
-4.2415099542336385
 10
-2.1131337219613484
 20
-4.340407489776609
 10
-2.0693050717213097
 20
-4.44059349385246
 10
-2.0278592119685923
 20
-4.5420326657529735
 10
-1.9888314434114036
 20
-4.644689704769946
 10
-1.9522570667579497
 20
-4.74852931019517
 10
-1.9181713827164444
 20
-4.853516181320439
 10
-1.8866096919950894
 20
-4.9596150174375415
 10
-1.8576072953020917
 20
-5.066790517838275
 10
-1.831199493345667
 20
-5.1750073818144235
 10
-1.8074215868340149
 20
-5.284230308657787
 10
-1.7863088764753492
 20
-5.394423997660151
 10
-1.767896662977874
 20
-5.505553148113312
 10
-1.7522202470497985
 20
-5.617582459309059
 10
-1.7393149293993337
 20
-5.730476630539187
 10
-1.7292160107346817
 20
-5.84420036109549
 10
-1.7219587917640538
 20
-5.958718350269754
 10
-1.7175785731956588
 20
-6.0739952973537745
 10
-1.7161106557377033
 20
-6.189995901639342
 10
-1.7175785731956588
 20
-6.3059989645442025
 10
-1.721958791764056
 20
-6.42127829342201
 10
-1.7292160107346817
 20
-6.535798588784013
 10
-1.7393149293993337
 20
-6.649524551141454
 10
-1.7522202470497985
 20
-6.762420881005583
 10
-1.767896662977874
 20
-6.874452278887637
 10
-1.7863088764753492
 20
-6.985583445298866
 10
-1.8074215868340127
 20
-7.095779080750514
 10
-1.831199493345667
 20
-7.205003885753817
 10
-1.8576072953020941
 20
-7.313222560820031
 10
-1.8866096919950894
 20
-7.420399806460395
 10
-1.9181713827164444
 20
-7.526500323186152
 10
-1.9522570667579497
 20
-7.631488811508553
 10
-1.9888314434114036
 20
-7.735329971938835
 10
-2.0278592119685936
 20
-7.837988504988246
 10
-2.0693050717213097
 20
-7.939429111168031
 10
-2.1131337219613484
 20
-8.039616490989435
 10
-2.159309861980498
 20
-8.138515344963697
 10
-2.2077981910705557
 20
-8.236090373602067
 10
-2.258563408523308
 20
-8.332306277415793
 10
-2.311570213630549
 20
-8.427127756916109
 10
-2.3667833056840735
 20
-8.520519512614264
 10
-2.4241673839756697
 20
-8.612446245021507
 10
-2.48368714779713
 20
-8.702872654649077
 10
-2.545307296440249
 20
-8.791763442008223
 10
-2.6089925291968155
 20
-8.87908330761018
 10
-2.6747075453586255
 20
-8.964796951966209
 10
-2.742417044217467
 20
-9.048869075587533
 10
-2.812085725065136
 20
-9.131264378985424
 10
-2.8836782871934203
 20
-9.211947562671094
 10
-2.957159429894119
 20
-9.290883327155816
 10
-3.0324938524590164
 20
-9.368036372950819
 10
-3.1096462541799075
 20
-9.443371400567354
 10
-3.1885813343485845
 20
-9.516853110516655
 10
-3.2692637922568375
 20
-9.588446203309982
 10
-3.3516583271964637
 20
-9.658115379458568
 10
-3.4357296384592506
 20
-9.725825339473662
 10
-3.521442425336993
 20
-9.791540783866507
 10
-3.608761387121482
 20
-9.85522641314835
 10
-3.697651223104507
 20
-9.91684692783043
 10
-3.7880766325778623
 20
-9.976367028424
 10
-3.8800023148333427
 20
-10.033751415440294
 10
-3.9733929691627377
 20
-10.088964789390566
 10
-4.068213294857837
 20
-10.141971850786055
 10
-4.164427991210435
 20
-10.192737300138004
 10
-4.2620017575123255
 20
-10.241225837957664
 10
-4.3608992930553
 20
-10.287402164756276
 10
-4.461085297131146
 20
-10.331230981045081
 10
-4.562524469031662
 20
-10.372676987335328
 10
-4.665181508048636
 20
-10.411704884138263
 10
-4.769021113473859
 20
-10.448279371965128
 10
-4.874007984599128
 20
-10.482365151327167
 10
-4.980106820716232
 20
-10.513926922735621
 10
-5.087282321116962
 20
-10.54292938670174
 10
-5.195499185093113
 20
-10.56933724373677
 10
-5.304722111936473
 20
-10.593115194351947
 10
-5.41491580093884
 20
-10.614227939058521
 10
-5.5260449513920005
 20
-10.632640178367742
 10
-5.63807426258775
 20
-10.648316612790843
 10
-5.750968433817878
 20
-10.661221942839076
 10
-5.864692164374179
 20
-10.671320869023685
 10
-5.9792101535484425
 20
-10.678578091855911
 10
-6.094487100632463
 20
-10.682958311846999
 10
-6.210487704918032
 20
-10.684426229508198
 10
-9.639344262295081
 20
-10.684426229508198
  0
LWPOLYLINE
  5
34
330
17
100
AcDbEntity
  8
0
100
AcDbPolyline
 90
4
 70
0
 10
-8.573770491803277
 20
-10.684426229508198
 10
-10.704918032786884
 20
-10.684426229508198
 10
10.606557377049182
 20
10.627049180327871
 10
8.475409836065577
 20
10.627049180327871
  0
LWPOLYLINE
  5
35
330
17
100
AcDbEntity
  8
0
100
AcDbPolyline
 90
4
 70
0
 10
-8.520491803278688
 20
-10.684426229508198
 10
-10.704918032786884
 20
-10.684426229508198
 10
10.606557377049182
 20
10.627049180327871
 10
8.422131147540982
 20
10.627049180327871
  0
LWPOLYLINE
  5
36
330
17
100
AcDbEntity
  8
0
100
AcDbPolyline
 90
4
 70
0
 10
-8.573770491803277
 20
10.627049180327871
 10
-10.704918032786884
 20
10.627049180327871
 10
10.606557377049182
 20
-10.684426229508198
 10
8.475409836065577
 20
-10.684426229508198
  0
LWPOLYLINE
  5
37
330
17
100
AcDbEntity
  8
0
100
AcDbPolyline
 90
4
 70
0
 10
-8.520491803278688
 20
10.627049180327871
 10
-10.704918032786884
 20
10.627049180327871
 10
10.606557377049182
 20
-10.684426229508198
 10
8.422131147540982
 20
-10.684426229508198
  0
LWPOLYLINE
  5
38
330
17
100
AcDbEntity
  8
0
100
AcDbPolyline
 90
129
 70
0
 10
10.110319672131144
 20
-1.9308975409836042
 10
10.115783752800983
 20
-1.9014882433062692
 10
10.121162280348475
 20
-1.8720651621584015
 10
10.126455238920741
 20
-1.8426284841162253
 10
10.131662612664892
 20
-1.8131783957559529
 10
10.136784385728054
 20
-1.7837150836538063
 10
10.141820542257339
 20
-1.754238734386005
 10
10.14677106639987
 20
-1.7247495345287593
 10
10.151635942302764
 20
-1.6952476706582982
 10
10.156415154113143
 20
-1.665733329350827
 10
10.161108685978121
 20
-1.6362066971825768
 10
10.165716522044821
 20
-1.6066679607297536
 10
10.17023864646036
 20
-1.5771173065685788
 10
10.174675043371854
 20
-1.5475549212752768
 10
10.179025696926429
 20
-1.5179809914260602
 10
10.183290591271193
 20
-1.4883957035971462
 10
10.187469710553277
 20
-1.4587992443647542
 10
10.19156303891979
 20
-1.4291918003050992
 10
10.195570560517854
 20
-1.399573557994403
 10
10.199492259494594
 20
-1.369944704008883
 10
10.203328119997119
 20
-1.3403054249247537
 10
10.207078126172549
 20
-1.3106559073182396
 10
10.210742262168006
 20
-1.2809963377655487
 10
10.21432051213061
 20
-1.2513269028429117
 10
10.217812860207477
 20
-1.2216477891265345
 10
10.221219290545728
 20
-1.1919591831926437
 10
10.224539787292482
 20
-1.1622612716174516
 10
10.227774334594853
 20
-1.1325542409771758
 10
10.23092291659996
 20
-1.10283827784804
 10
10.23398551745493
 20
-1.0731135688062547
 10
10.236962121306874
 20
-1.0433803004280464
 10
10.239852712302914
 20
-1.0136386592896254
 10
10.242657274590165
 20
-0.9838888319672109
 10
10.245375792315745
 20
-0.9541310050370252
 10
10.248008249626787
 20
-0.9243653650752806
 10
10.250554630670393
 20
-0.8945920986582013
 10
10.253014919593685
 20
-0.8648113923619999
 10
10.255389100543782
 20
-0.835023432762896
 10
10.257677157667814
 20
-0.8052284064371044
 10
10.25987907511289
 20
-0.7754264999608517
 10
10.261994837026126
 20
-0.745617899910348
 10
10.264024427554647
 20
-0.7158027928618128
 10
10.265967830845568
 20
-0.6859813653914636
 10
10.267825031046007
 20
-0.6561538040755219
 10
10.269596012303083
 20
-0.6263202954902006
 10
10.27128075876392
 20
-0.5964810262117213
 10
10.272879254575635
 20
-0.566636182816299
 10
10.274391483885344
 20
-0.5367859518801579
 10
10.275817430840165
 20
-0.5069305199795081
 10
10.277157079587221
 20
-0.4770700736905716
 10
10.278410414273617
 20
-0.4472047995895609
 10
10.279577419046495
 20
-0.41733488425270254
 10
10.280658078052959
 20
-0.38746051425621136
 10
10.281652375440126
 20
-0.3575818761763023
 10
10.282560295355122
 20
-0.32769915658919485
 10
10.283381821945062
 20
-0.2978125420711086
 10
10.284116939357071
 20
-0.26792221919825604
 10
10.284765631738257
 20
-0.2380283745468637
 10
10.285327883235745
 20
-0.20813119469314417
 10
10.285803677996649
 20
-0.17823086621331463
 10
10.286193000168096
 20
-0.1483275756835923
 10
10.2864958338972
 20
-0.11842150968020138
 10
10.286712163331076
 20
-0.08851285477935207
 10
10.286841972616852
 20
-0.05860179755726626
 10
10.286885245901638
 20
-0.028688524590163467
 10
10.286841972616852
 20
0.0012247483769416531
 10
10.286712163331076
 20
0.03113580559902514
 10
10.2864958338972
 20
0.06104446049987212
 10
10.286193000168096
 20
0.09095052650326771
 10
10.285803677996649
 20
0.12085381703298538
 10
10.285327883235745
 20
0.15075414551281724
 10
10.284765631738257
 20
0.18065132536653677
 10
10.284116939357066
 20
0.21054517001793144
 10
10.283381821945062
 20
0.24043549289077934
 10
10.282560295355127
 20
0.27032210740887025
 10
10.281652375440132
 20
0.3002048269959777
 10
10.280658078052959
 20
0.33008346507588443
 10
10.2795774190465
 20
0.35995783507237794
 10
10.278410414273617
 20
0.3898277504092363
 10
10.277157079587216
 20
0.41969302451024465
 10
10.275817430840165
 20
0.4495534707991812
 10
10.274391483885344
 20
0.47940890269983094
 10
10.272879254575635
 20
0.5092591336359744
 10
10.27128075876392
 20
0.5391039770313967
 10
10.269596012303088
 20
0.5689432463098784
 10
10.267825031046007
 20
0.5987767548951973
 10
10.265967830845568
 20
0.628604316211139
 10
10.264024427554647
 20
0.6584257436814882
 10
10.261994837026126
 20
0.6882408507300234
 10
10.25987907511289
 20
0.7180494507805271
 10
10.257677157667814
 20
0.7478513572567844
 10
10.255389100543788
 20
0.7776463835825714
 10
10.253014919593685
 20
0.807434343181673
 10
10.250554630670393
 20
0.8372150494778744
 10
10.248008249626787
 20
0.8669883158949583
 10
10.245375792315745
 20
0.8967539558566983
 10
10.242657274590165
 20
0.9265117827868863
 10
10.239852712302909
 20
0.9562616101092983
 10
10.236962121306869
 20
0.9860032512477195
 10
10.23398551745493
 20
1.01573651962593
 10
10.23092291659996
 20
1.045461228667713
 10
10.227774334594853
 20
1.0751771917968511
 10
10.224539787292482
 20
1.1048842224371247
 10
10.221219290545728
 20
1.1345821340123168
 10
10.217812860207477
 20
1.16427073994621
 10
10.21432051213061
 20
1.1939498536625848
 10
10.210742262168006
 20
1.223619288585224
 10
10.207078126172549
 20
1.2532788581379126
 10
10.203328119997119
 20
1.2829283757444292
 10
10.199492259494594
 20
1.3125676548285583
 10
10.195570560517854
 20
1.3421965088140784
 10
10.19156303891979
 20
1.3718147511247722
 10
10.187469710553277
 20
1.401422195184425
 10
10.183290591271193
 20
1.4310186544168193
 10
10.179025696926429
 20
1.4606039422457358
 10
10.174675043371854
 20
1.49017787209495
 10
10.17023864646036
 20
1.5197402573882566
 10
10.165716522044821
 20
1.5492909115494289
 10
10.161108685978121
 20
1.57882964800225
 10
10.156415154113143
 20
1.6083562801705025
 10
10.151635942302764
 20
1.6378706214779712
 10
10.14677106639987
 20
1.6673724853484349
 10
10.141820542257339
 20
1.6968616852056781
 10
10.136784385728054
 20
1.7263380344734818
 10
10.131662612664892
 20
1.755801346575626
 10
10.126455238920741
 20
1.7852514349358959
 10
10.121162280348475
 20
1.8146881129780745
 10
10.115783752800983
 20
1.84411119412594
 10
10.110319672131144
 20
1.8735204918032773
  0
LWPOLYLINE
  5
39
330
17
100
AcDbEntity
  8
0
100
AcDbPolyline
 90
129
 70
0
 10
-10.208680327868851
 20
1.8735737704918047
 10
-10.214141988535395
 20
1.844162014195177
 10
-10.219518248511141
 20
1.8147365512535243
 10
-10.224809088284852
 20
1.785297567023607
 10
-10.230014488345285
 20
1.7558452468621952
 10
-10.235134429181208
 20
1.7263797761260502
 10
-10.240168891281376
 20
1.6969013401719397
 10
-10.245117855134557
 20
1.667410124356631
 10
-10.249981301229507
 20
1.6379063140368868
 10
-10.25475921005499
 20
1.6083900945694727
 10
-10.25945156209977
 20
1.578861651311158
 10
-10.264058337852603
 20
1.5493211696187008
 10
-10.268579517802253
 20
1.519768834848876
 10
-10.273015082437484
 20
1.4902048323584391
 10
-10.277365012247055
 20
1.4606293475041645
 10
-10.281629287719726
 20
1.431042565642813
 10
-10.285807889344262
 20
1.4014446721311493
 10
-10.289900797609421
 20
1.3718358523259433
 10
-10.29390799300397
 20
1.3422162915839535
 10
-10.297829456016665
 20
1.3125861752619539
 10
-10.301665167136271
 20
1.2829456887167028
 10
-10.305415106851546
 20
1.2532950173049677
 10
-10.309079255651254
 20
1.2236343463835184
 10
-10.312657594024158
 20
1.193963861309113
 10
-10.316150102459014
 20
1.164283747438526
 10
-10.319556761444591
 20
1.1345941901285155
 10
-10.322877551469645
 20
1.1048953747358512
 10
-10.32611245302294
 20
1.0751874866172935
 10
-10.329261446593238
 20
1.0454707111296124
 10
-10.332324512669297
 20
1.0157452336295731
 10
-10.335301631739881
 20
0.9860112394739381
 10
-10.338192784293753
 20
0.9562689140194773
 10
-10.340997950819672
 20
0.9265184426229537
 10
-10.3437171118064
 20
0.8967600106411299
 10
-10.346350247742699
 20
0.8669938034307779
 10
-10.34889733911733
 20
0.8372200063486561
 10
-10.351358366419056
 20
0.8074388047515365
 10
-10.353733310136638
 20
0.7776503839961844
 10
-10.356022150758836
 20
0.7478549294393598
 10
-10.358224868774414
 20
0.7180526264378306
 10
-10.36034144467213
 20
0.6882436603483642
 10
-10.36237185894075
 20
0.6584282165277209
 10
-10.36431609206903
 20
0.6286064803326729
 10
-10.366174124545738
 20
0.598778637119983
 10
-10.36794593685963
 20
0.5689448722464163
 10
-10.369631509499472
 20
0.5391053710687381
 10
-10.371230822954022
 20
0.5092603189437133
 10
-10.372743857712042
 20
0.4794099012281094
 10
-10.374170594262294
 20
0.4495543032786916
 10
-10.375511013093542
 20
0.41969371045222037
 10
-10.376765094694544
 20
0.3898283081054701
 10
-10.377932819554061
 20
0.3599582815952013
 10
-10.37901416816086
 20
0.33008381627817673
 10
-10.380009121003697
 20
0.3002050975111686
 10
-10.380917658571336
 20
0.2703223106509372
 10
-10.381739761352538
 20
0.24043564105424786
 10
-10.382475409836065
 20
0.21054527407787024
 10
-10.383124584510677
 20
0.18065139507856484
 10
-10.383687265865138
 20
0.15075418941310145
 10
-10.384163434388206
 20
0.12085384243824521
 10
-10.384553070568646
 20
0.09095053951075889
 10
-10.38485615489522
 20
0.06104446598740764
 10
-10.385072667856685
 20
0.031135807224963577
 10
-10.385202589941805
 20
0.0012247485801848313
 10
-10.385245901639344
 20
-0.028688524590163467
 10
-10.385202628354557
 20
-0.05860179755726858
 10
-10.385072819068782
 20
-0.08851285477935207
 10
-10.384856489634904
 20
-0.11842150968019904
 10
-10.384553655905801
 20
-0.1483275756835923
 10
-10.384164333734356
 20
-0.1782308662133123
 10
-10.383688538973448
 20
-0.20813119469314417
 10
-10.38312628747596
 20
-0.2380283745468637
 10
-10.382477595094775
 20
-0.26792221919825604
 10
-10.381742477682769
 20
-0.29781254207110625
 10
-10.380920951092829
 20
-0.32769915658919485
 10
-10.380013031177834
 20
-0.3575818761763023
 10
-10.379018733790664
 20
-0.38746051425621136
 10
-10.3779380747842
 20
-0.41733488425270254
 10
-10.376771070011326
 20
-0.4472047995895632
 10
-10.375517735324923
 20
-0.47707007369056925
 10
-10.374178086577869
 20
-0.5069305199795081
 10
-10.372752139623048
 20
-0.5367859518801579
 10
-10.371239910313339
 20
-0.566636182816299
 10
-10.369641414501627
 20
-0.5964810262117213
 10
-10.36795666804079
 20
-0.6263202954902006
 10
-10.366185686783712
 20
-0.6561538040755219
 10
-10.364328486583272
 20
-0.6859813653914636
 10
-10.36238508329235
 20
-0.7158027928618128
 10
-10.360355492763832
 20
-0.7456178999103457
 10
-10.358239730850594
 20
-0.7754264999608517
 10
-10.356037813405521
 20
-0.8052284064371044
 10
-10.353749756281491
 20
-0.835023432762896
 10
-10.35137557533139
 20
-0.8648113923619999
 10
-10.348915286408095
 20
-0.894592098658199
 10
-10.34636890536449
 20
-0.9243653650752806
 10
-10.343736448053454
 20
-0.9541310050370252
 10
-10.341017930327869
 20
-0.9838888319672109
 10
-10.338213368040615
 20
-1.0136386592896254
 10
-10.335322777044578
 20
-1.0433803004280464
 10
-10.332346173192633
 20
-1.073113568806257
 10
-10.329283572337665
 20
-1.10283827784804
 10
-10.326134990332555
 20
-1.1325542409771758
 10
-10.322900443030184
 20
-1.1622612716174516
 10
-10.319579946283435
 20
-1.1919591831926437
 10
-10.316173515945184
 20
-1.2216477891265345
 10
-10.312681167868316
 20
-1.2513269028429095
 10
-10.309102917905713
 20
-1.2809963377655509
 10
-10.305438781910254
 20
-1.3106559073182396
 10
-10.301688775734823
 20
-1.3403054249247537
 10
-10.297852915232298
 20
-1.3699447040088806
 10
-10.293931216255563
 20
-1.399573557994403
 10
-10.289923694657498
 20
-1.4291918003050992
 10
-10.285830366290982
 20
-1.458799244364752
 10
-10.281651247008902
 20
-1.4883957035971462
 10
-10.277386352664134
 20
-1.517980991426058
 10
-10.273035699109563
 20
-1.5475549212752768
 10
-10.268599302198066
 20
-1.577117306568581
 10
-10.264077177782527
 20
-1.6066679607297536
 10
-10.259469341715828
 20
-1.6362066971825768
 10
-10.25477580985085
 20
-1.6657333293508294
 10
-10.24999659804047
 20
-1.695247670658296
 10
-10.245131722137575
 20
-1.7247495345287618
 10
-10.240181197995044
 20
-1.754238734386005
 10
-10.23514504146576
 20
-1.7837150836538063
 10
-10.230023268402599
 20
-1.8131783957559529
 10
-10.224815894658448
 20
-1.8426284841162253
 10
-10.219522936086186
 20
-1.8720651621584015
 10
-10.214144408538692
 20
-1.901488243306267
 10
-10.208680327868851
 20
-1.9308975409836042
  0
LWPOLYLINE
  5
3A
330
17
100
AcDbEntity
  8
0
100
AcDbPolyline
 90
65
 70
0
 10
-6.132061475409835
 20
1.6389344262295085
 10
-6.01893652098296
 20
1.6423083130414364
 10
-5.90653088616543
 20
1.6484470411206855
 10
-5.794877563242052
 20
1.6573176181824496
 10
-5.684009544497629
 20
1.6688870519419186
 10
-5.573959822216971
 20
1.6831223501142907
 10
-5.464761388684883
 20
1.6999905204147603
 10
-5.356447236186169
 20
1.7194585705585168
 10
-5.2490503570056335
 20
1.7414935082607588
 10
-5.14260374342809
 20
1.7660623412366783
 10
-5.0371403877383365
 20
1.7931320772014692
 10
-4.932693282221185
 20
1.8226697238703267
 10
-4.829295419161437
 20
1.8546422889584415
 10
-4.726979790843901
 20
1.88901678018101
 10
-4.625779389553382
 20
1.925760205253226
 10
-4.525727207574688
 20
1.9648395718902854
 10
-4.426856237192623
 20
2.006221887807377
 10
-4.329199470691994
 20
2.0498741607197
 10
-4.232789900357606
 20
2.095763398342446
 10
-4.137660518474266
 20
2.1438566083908084
 10
-4.043844317326781
 20
2.1941207985799824
 10
-3.9513742891999537
 20
2.2465229766251626
 10
-3.8602834263785932
 20
2.30103015024154
 10
-3.770604721147506
 20
2.3576093271443117
 10
-3.682371165791497
 20
2.4162275150486705
 10
-3.5956157525953683
 20
2.4768517216698087
 10
-3.510371473843935
 20
2.5394489547229213
 10
-3.426671321821993
 20
2.6039862219232037
 10
-3.3445482888143583
 20
2.67043053098585
 10
-3.2640353671058278
 20
2.7387488896260512
 10
-3.185165548981213
 20
2.8089083055590036
 10
-3.1079718267253194
 20
2.880875786499901
 10
-3.03248719262295
 20
2.954618340163937
 10
-2.9587446389589154
 20
3.030102974266305
 10
-2.886777158018017
 20
3.1072966965221998
 10
-2.8166177420850658
 20
3.1861665146468137
 10
-2.748299383444863
 20
3.266679436355343
 10
-2.6818550743822183
 20
3.3488024693629797
 10
-2.617317807181936
 20
3.4325026213849203
 10
-2.5547205741288233
 20
3.517746900136355
 10
-2.494096367507685
 20
3.6045023133324823
 10
-2.435478179603326
 20
3.692735868688491
 10
-2.3788990027005554
 20
3.782414573919581
 10
-2.324391829084178
 20
3.8735054367409405
 10
-2.271989651038998
 20
3.965975464867766
 10
-2.221725460849825
 20
4.059791666015252
 10
-2.1736322508014623
 20
4.154921047898592
 10
-2.1277430131787156
 20
4.251330618232978
 10
-2.0840907402663915
 20
4.34898738473361
 10
-2.0427084243493008
 20
4.447858355115672
 10
-2.003629057712244
 20
4.547910537094368
 10
-1.9668856326400266
 20
4.649110938384887
 10
-1.932511141417457
 20
4.751426566702421
 10
-1.900538576329341
 20
4.8548244297621705
 10
-1.8710009296604846
 20
4.959271535279322
 10
-1.8439311936956937
 20
5.064734890969074
 10
-1.8193623607197742
 20
5.171181504546619
 10
-1.7973274230175322
 20
5.278578383727154
 10
-1.7778593728737757
 20
5.386892536225867
 10
-1.760991202573306
 20
5.496090969757956
 10
-1.746755904400934
 20
5.606140692038615
 10
-1.735186470641465
 20
5.717008710783038
 10
-1.726315893579701
 20
5.828662033706415
 10
-1.7201771655004519
 20
5.941067668523946
 10
-1.716803278688524
 20
6.05419262295082
  0
LWPOLYLINE
  5
3B
330
17
100
AcDbEntity
  8
0
100
AcDbPolyline
 90
65
 70
0
 10
1.61844262295082
 20
-6.1115696721311465
 10
1.621816509762748
 20
-5.998444717704273
 10
1.6279552378419968
 20
-5.886039082886744
 10
1.6368258149037611
 20
-5.774385759963363
 10
1.6483952486632298
 20
-5.663517741218942
 10
1.6626305468356022
 20
-5.553468018938283
 10
1.6794987171360694
 20
-5.44426958540619
 10
1.6989667672798283
 20
-5.335955432907479
 10
1.7210017049820703
 20
-5.228558553726946
 10
1.7455705379579898
 20
-5.122111940149401
 10
1.7726402739227782
 20
-5.01664858445965
 10
1.802177920591637
 20
-4.912201478942495
 10
1.8341504856797506
 20
-4.808803615882749
 10
1.8685249769023227
 20
-4.706487987565212
 10
1.9052684019745376
 20
-4.605287586274694
 10
1.9443477686115946
 20
-4.505235404295999
 10
1.9857300845286898
 20
-4.406364433913934
 10
2.029382357441013
 20
-4.308707667413304
 10
2.0752715950637595
 20
-4.21229809707892
 10
2.1233648051121223
 20
-4.117168715195578
 10
2.173628995301295
 20
-4.023352514048091
 10
2.2260311733464744
 20
-3.9308824859212677
 10
2.2805383469628513
 20
-3.8397916230999045
 10
2.3371175238656208
 20
-3.7501129178688175
 10
2.395735711769981
 20
-3.661879362512808
 10
2.4563599183911213
 20
-3.5751239493166795
 10
2.5189571514442317
 20
-3.4898796705652475
 10
2.5834944186445155
 20
-3.406179518543308
 10
2.649938727707159
 20
-3.3240564855356673
 10
2.7182570863473616
 20
-3.243543563827138
 10
2.788416502280313
 20
-3.1646737457025242
 10
2.8603839832212112
 20
-3.0874800234466293
 10
2.934126536885244
 20
-3.0119953893442615
 10
3.009611170987614
 20
-2.9382528356802267
 10
3.086804893243509
 20
-2.8662853547393308
 10
3.165674711368125
 20
-2.796125938806377
 10
3.246187633076654
 20
-2.7278075801661767
 10
3.3283106660842927
 20
-2.661363271103531
 10
3.412010818106227
 20
-2.596826003903247
 10
3.4972550968576663
 20
-2.5342287708501345
 10
3.5840105100537927
 20
-2.4736045642289963
 10
3.6722440654098
 20
-2.4149863763246384
 10
3.761922770640889
 20
-2.3584071994218667
 10
3.8530136334622496
 20
-2.30390002580549
 10
3.945483661589076
 20
-2.2514978477603083
 10
4.039299862736559
 20
-2.2012336575711355
 10
4.134429244619902
 20
-2.153140447522775
 10
4.230838814954289
 20
-2.1072512099000256
 10
4.328495581454918
 20
-2.063598936987703
 10
4.427366551836986
 20
-2.0222166210706125
 10
4.527418733815679
 20
-1.9831372544335555
 10
4.628619135106196
 20
-1.946393829361338
 10
4.730934763423732
 20
-1.9120193381387685
 10
4.834332626483479
 20
-1.8800467730506547
 10
4.938779732000631
 20
-1.850509126381796
 10
5.044243087690386
 20
-1.8234393904170052
 10
5.150689701267931
 20
-1.7988705574410857
 10
5.258086580448464
 20
-1.7768356197388437
 10
5.36640073294718
 20
-1.7573675695950872
 10
5.475599166479268
 20
-1.7404993992946198
 10
5.585648888759924
 20
-1.7262641011222455
 10
5.696516907504348
 20
-1.7146946673627765
 10
5.808170230427726
 20
-1.7058240903010147
 10
5.920575865245255
 20
-1.6996853622217634
 10
6.033700819672132
 20
-1.6963114754098354
  0
LWPOLYLINE
  5
3C
330
17
100
AcDbEntity
  8
0
100
AcDbPolyline
 90
65
 70
0
 10
7.71448360655738
 20
4.636180327868852
 10
7.678465670507465
 20
4.695607301524427
 10
7.642009855927015
 20
4.754729009659562
 10
7.60511830173555
 20
4.8135433133547405
 10
7.567793146852589
 20
4.872048073690444
 10
7.530036530197645
 20
4.930241151747154
 10
7.49185059069024
 20
4.988120408605355
 10
7.453237467249885
 20
5.045683705345527
 10
7.414199298796108
 20
5.102928903048153
 10
7.374738224248418
 20
5.159853862793717
 10
7.334856382526336
 20
5.2164564456627005
 10
7.294555912549378
 20
5.2727345127355845
 10
7.253838953237065
 20
5.328685925092851
 10
7.212707643508913
 20
5.384308543814987
 10
7.171164122284438
 20
5.439600229982468
 10
7.129210528483158
 20
5.494558844675782
 10
7.08684900102459
 20
5.549182248975409
 10
7.044081678828254
 20
5.603468303961831
 10
7.000910700813667
 20
5.65741487071553
 10
6.957338205900349
 20
5.711019810316992
 10
6.913366333007814
 20
5.764280983846695
 10
6.86899722105558
 20
5.8171962523851235
 10
6.824233008963162
 20
5.869763477012759
 10
6.779075835650081
 20
5.9219805188100825
 10
6.733527840035861
 20
5.973845238857581
 10
6.687591161040007
 20
6.025355498235732
 10
6.641267937582044
 20
6.076509158025021
 10
6.594560308581492
 20
6.12730407930593
 10
6.54747041295786
 20
6.177738123158938
 10
6.500000389630678
 20
6.227809150664532
 10
6.452152377519448
 20
6.2775150229031915
 10
6.403928515543705
 20
6.326853600955399
 10
6.355330942622949
 20
6.375822745901638
 10
6.30636179767671
 20
6.424420318822389
 10
6.257023219624505
 20
6.47264418079814
 10
6.207317347385843
 20
6.520492192909366
 10
6.157246319880249
 20
6.567962216236552
 10
6.106812276027242
 20
6.615052111860181
 10
6.056017354746333
 20
6.661759740860735
 10
6.004863694957043
 20
6.708082964318696
 10
5.953353435578895
 20
6.75401964331455
 10
5.901488715531393
 20
6.799567638928773
 10
5.84927167373407
 20
6.84472481224185
 10
5.796704449106434
 20
6.889489024334266
 10
5.743789180568006
 20
6.9338581362865
 10
5.690528007038302
 20
6.977830009179037
 10
5.636923067436845
 20
7.021402504092357
 10
5.582976500683144
 20
7.064573482106944
 10
5.528690445696722
 20
7.107340804303279
 10
5.474067041397093
 20
7.149702331761845
 10
5.419108426703781
 20
7.191655925563126
 10
5.363816740536295
 20
7.233199446787601
 10
5.308194121814165
 20
7.274330756515754
 10
5.252242709456895
 20
7.315047715828068
 10
5.19596464238401
 20
7.355348185805025
 10
5.139362059515028
 20
7.395230027527107
 10
5.082437099769465
 20
7.4346911020747966
 10
5.0251919020668385
 20
7.473729270528575
 10
4.9676286053266665
 20
7.512342393968927
 10
4.909749348468466
 20
7.550528333476334
 10
4.8515562704117565
 20
7.5882849501312775
 10
4.793051510076052
 20
7.625610105014241
 10
4.7342372063808735
 20
7.662501659205705
 10
4.675115498245739
 20
7.698957473786153
 10
4.615688524590163
 20
7.734975409836068
  0
LWPOLYLINE
  5
3D
330
17
100
AcDbEntity
  8
0
100
AcDbPolyline
 90
65
 70
0
 10
-7.81284426229508
 20
-4.6935573770491805
 10
-7.776826326245165
 20
-4.7529843507047564
 10
-7.740370511664716
 20
-4.812106058839892
 10
-7.703478957473252
 20
-4.87092036253507
 10
-7.66615380259029
 20
-4.9294251228707715
 10
-7.628397185935347
 20
-4.987618200927484
 10
-7.59021124642794
 20
-5.045497457785684
 10
-7.551598122987588
 20
-5.103060754525856
 10
-7.51255995453381
 20
-5.160305952228483
 10
-7.47309887998612
 20
-5.217230911974048
 10
-7.433217038264038
 20
-5.27383349484303
 10
-7.392916568287082
 20
-5.330111561915913
 10
-7.352199608974768
 20
-5.38606297427318
 10
-7.311068299246615
 20
-5.441685592995313
 10
-7.26952477802214
 20
-5.496977279162799
 10
-7.22757118422086
 20
-5.55193589385611
 10
-7.185209656762295
 20
-5.606559298155738
 10
-7.142442334565958
 20
-5.66084535314216
 10
-7.099271356551372
 20
-5.71479191989586
 10
-7.055698861638052
 20
-5.7683968594973205
 10
-7.011726988745516
 20
-5.821658033027022
 10
-6.9673578767932804
 20
-5.8745733015654515
 10
-6.922593664700867
 20
-5.927140526193083
 10
-6.877436491387788
 20
-5.979357567990412
 10
-6.831888495773564
 20
-6.0312222880379105
 10
-6.785951816777712
 20
-6.082732547416064
 10
-6.739628593319752
 20
-6.133886207205348
 10
-6.692920964319198
 20
-6.184681128486257
 10
-6.645831068695568
 20
-6.235115172339264
 10
-6.598361045368381
 20
-6.285186199844858
 10
-6.550513033257156
 20
-6.33489207208352
 10
-6.502289171281407
 20
-6.384230650135726
 10
-6.453691598360654
 20
-6.433199795081965
 10
-6.404722453414416
 20
-6.4817973680027166
 10
-6.355383875362207
 20
-6.5300212299784635
 10
-6.305678003123548
 20
-6.577869242089691
 10
-6.2556069756179555
 20
-6.62533926541688
 10
-6.205172931764946
 20
-6.67242916104051
 10
-6.154378010484038
 20
-6.719136790041062
 10
-6.10322435069475
 20
-6.765460013499023
 10
-6.051714091316597
 20
-6.811396692494874
 10
-5.999849371269099
 20
-6.856944688109099
 10
-5.947632329471776
 20
-6.902101861422177
 10
-5.895065104844139
 20
-6.946866073514591
 10
-5.842149836305711
 20
-6.991235185466829
 10
-5.788888662776008
 20
-7.035207058359364
 10
-5.735283723174549
 20
-7.078779553272685
 10
-5.681337156420848
 20
-7.1219505312872675
 10
-5.627051101434425
 20
-7.164717853483602
 10
-5.572427697134799
 20
-7.207079380942169
 10
-5.517469082441488
 20
-7.249032974743449
 10
-5.462177396274004
 20
-7.290576495967926
 10
-5.406554777551869
 20
-7.331707805696081
 10
-5.350603365194601
 20
-7.372424765008391
 10
-5.294325298121718
 20
-7.412725234985349
 10
-5.237722715252735
 20
-7.452607076707434
 10
-5.180797755507172
 20
-7.492068151255121
 10
-5.123552557804546
 20
-7.5311063197089005
 10
-5.065989261064373
 20
-7.569719443149248
 10
-5.0081100042061735
 20
-7.607905382656658
 10
-4.949916926149462
 20
-7.645661999311602
 10
-4.89141216581376
 20
-7.682987154194564
 10
-4.83259786211858
 20
-7.7198787083860285
 10
-4.773476153983444
 20
-7.756334522966475
 10
-4.714049180327869
 20
-7.79235245901639
  0
LWPOLYLINE
  5
3E
330
17
100
AcDbEntity
  8
0
100
AcDbPolyline
 90
65
 70
0
 10
-0.2072581967213111
 20
9.027303278688525
 10
-0.276732664327151
 20
9.025823364461056
 10
-0.34616167562515954
 20
9.023811653137207
 10
-0.4155423088073718
 20
9.021268926385975
 10
-0.48487164206583
 20
9.018195965876345
 10
-0.5541467535925694
 20
9.014593553277313
 10
-0.6233647215796296
 20
9.010462470257869
 10
-0.6925226242190483
 20
9.005803498487003
 10
-0.7616175397028676
 20
9.00061741963371
 10
-0.8306465462231251
 20
8.994905015366978
 10
-0.8996067219718534
 20
8.988667067355797
 10
-0.9684951451410996
 20
8.981904357269162
 10
-1.0373088939228987
 20
8.974617666776064
 10
-1.1060450465092906
 20
8.96680777754549
 10
-1.174700681092308
 20
8.958475471246437
 10
-1.243272875863998
 20
8.949621529547894
 10
-1.3117587090163934
 20
8.940246734118853
 10
-1.3801552587415338
 20
8.930351866628303
 10
-1.4484596032314614
 20
8.919937708745238
 10
-1.5166688206782115
 20
8.909005042138647
 10
-1.5847799892738215
 20
8.897554648477524
 10
-1.6527901872103314
 20
8.885587309430857
 10
-1.7206964926797834
 20
8.873103806667642
 10
-1.78849598387421
 20
8.860104921856864
 10
-1.8561857389856535
 20
8.84659143666752
 10
-1.923762836206154
 20
8.8325641327686
 10
-1.9912243537277465
 20
8.818023791829093
 10
-2.058567369742472
 20
8.802971195517994
 10
-2.1257889624423667
 20
8.787407125504291
 10
-2.1928862100194717
 20
8.771332363456976
 10
-2.2598561906658245
 20
8.754747691045042
 10
-2.3266959825734626
 20
8.737653889937478
 10
-2.3934026639344257
 20
8.72005174180328
 10
-2.459973312940754
 20
8.701942028311432
 10
-2.526405007784485
 20
8.683325531130933
 10
-2.5926948266576546
 20
8.664203031930766
 10
-2.658839847752305
 20
8.644575312379931
 10
-2.724837149260474
 20
8.624443154147414
 10
-2.7906838093741992
 20
8.603807338902207
 10
-2.85637690628552
 20
8.582668648313303
 10
-2.921913518186474
 20
8.561027864049692
 10
-2.9872907232691017
 20
8.538885767780366
 10
-3.052505599725441
 20
8.516243141174316
 10
-3.1175552257475294
 20
8.493100765900534
 10
-3.182436679527408
 20
8.46945942362801
 10
-3.247147039257112
 20
8.445319896025737
 10
-3.3116833831286825
 20
8.420682964762703
 10
-3.3760427893341562
 20
8.395549411507902
 10
-3.4402223360655753
 20
8.369920017930328
 10
-3.504219101514973
 20
8.343795565698967
 10
-3.5680301638743908
 20
8.317176836482814
 10
-3.6316526013358694
 20
8.290064611950859
 10
-3.6950834920914444
 20
8.262459673772092
 10
-3.7583199143331565
 20
8.234362803615507
 10
-3.821358946253042
 20
8.205774783150094
 10
-3.88419766604314
 20
8.176696394044844
 10
-3.9468331518954924
 20
8.14712841796875
 10
-4.009262482002133
 20
8.1170716365908
 10
-4.0714827345551035
 20
8.08652683157999
 10
-4.133490987746441
 20
8.055494784605308
 10
-4.195284319768187
 20
8.023976277335745
 10
-4.2568598088123775
 20
7.991972091440295
 10
-4.31821453307105
 20
7.959483008587947
 10
-4.379345570736245
 20
7.926509810447693
 10
-4.440250000000001
 20
7.893053278688525
  0
LWPOLYLINE
  5
3F
330
17
100
AcDbEntity
  8
0
100
AcDbPolyline
 90
65
 70
0
 10
0.10889754098360713
 20
-9.084680327868853
 10
0.17837200858944705
 20
-9.083200413641382
 10
0.24780101988745554
 20
-9.081188702317533
 10
0.31718165306966783
 20
-9.078645975566301
 10
0.386510986328126
 20
-9.075573015056673
 10
0.45578609785486535
 20
-9.071970602457641
 10
0.5250040658419256
 20
-9.0678395194382
 10
0.5941619684813466
 20
-9.063180547667328
 10
0.6632568839651637
 20
-9.057994468814037
 10
0.732285890485421
 20
-9.052282064547303
 10
0.8012460662341494
 20
-9.046044116536125
 10
0.8701344894033979
 20
-9.03928140644949
 10
0.9389482381851947
 20
-9.031994715956388
 10
1.0076843907715842
 20
-9.024184826725822
 10
1.076340025354604
 20
-9.015852520426767
 10
1.144912220126294
 20
-9.006998578728222
 10
1.2133980532786892
 20
-8.99762378329918
 10
1.281794603003832
 20
-8.987728915808628
 10
1.3500989474937573
 20
-8.97731475792556
 10
1.4183081649405074
 20
-8.966382091318973
 10
1.4864193335361175
 20
-8.95493169765785
 10
1.5544295314726297
 20
-8.942964358611183
 10
1.6223358369420793
 20
-8.930480855847966
 10
1.6901353281365084
 20
-8.917481971037192
 10
1.757825083247952
 20
-8.903968485847848
 10
1.8254021804684502
 20
-8.889941181948926
 10
1.8928636979900448
 20
-8.875400841009423
 10
1.960206714004769
 20
-8.860348244698322
 10
2.0274283067046626
 20
-8.844784174684616
 10
2.0945255542817676
 20
-8.828709412637302
 10
2.161495534928119
 20
-8.81212474022537
 10
2.2283353268357597
 20
-8.795030939117806
 10
2.2950420081967193
 20
-8.777428790983604
 10
2.3616126572030502
 20
-8.75931907749176
 10
2.4280443520467823
 20
-8.740702580311257
 10
2.4943341709199482
 20
-8.721580081111094
 10
2.5604791920145997
 20
-8.701952361560256
 10
2.62647649352277
 20
-8.681820203327742
 10
2.6923231536364964
 20
-8.661184388082537
 10
2.7580162505478163
 20
-8.640045697493631
 10
2.8235528624487714
 20
-8.61840491323002
 10
2.8889300675313976
 20
-8.596262816960694
 10
2.9541449439877394
 20
-8.573620190354646
 10
3.0191945700098266
 20
-8.550477815080862
 10
3.0840760237897045
 20
-8.526836472808334
 10
3.1487863835194054
 20
-8.502696945206063
 10
3.213322727390976
 20
-8.47806001394303
 10
3.277682133596452
 20
-8.45292646068823
 10
3.341861680327869
 20
-8.427297067110656
 10
3.4058584457772656
 20
-8.401172614879293
 10
3.4696695081366866
 20
-8.374553885663142
 10
3.5332919455981653
 20
-8.347441661131185
 10
3.5967228363537393
 20
-8.31983672295242
 10
3.65995925859545
 20
-8.291739852795834
 10
3.7229982905153363
 20
-8.26315183233042
 10
3.7858370103054337
 20
-8.234073443225173
 10
3.848472496157786
 20
-8.204505467149078
 10
3.9109018262644257
 20
-8.174448685771127
 10
3.9731220788173967
 20
-8.143903880760318
 10
4.035130332008735
 20
-8.112871833785633
 10
4.096923664030482
 20
-8.081353326516071
 10
4.158499153074671
 20
-8.049349140620622
 10
4.219853877333343
 20
-8.016860057768275
 10
4.280984914998538
 20
-7.9838868596280195
 10
4.341889344262294
 20
-7.950430327868852
  0
LWPOLYLINE
  5
40
330
17
100
AcDbEntity
  8
0
100
AcDbPolyline
 90
65
 70
0
 10
-6.132061475409835
 20
-10.683733606557375
 10
-6.01893652098296
 20
-10.680359719542201
 10
-5.90653088616543
 20
-10.67422099004026
 10
-5.794877563242052
 20
-10.665350409116899
 10
-5.684009544497629
 20
-10.653780967837475
 10
-5.573959822216971
 20
-10.639545657267332
 10
-5.464761388684883
 20
-10.622677468471837
 10
-5.356447236186169
 20
-10.603209392516336
 10
-5.2490503570056335
 20
-10.581174420466185
 10
-5.14260374342809
 20
-10.556605543386734
 10
-5.0371403877383365
 20
-10.52953575234335
 10
-4.932693282221185
 20
-10.499998038401367
 10
-4.829295419161437
 20
-10.468025392626155
 10
-4.726979790843901
 20
-10.433650806083051
 10
-4.625779389553382
 20
-10.396907269837426
 10
-4.525727207574688
 20
-10.357827774954622
 10
-4.426856237192623
 20
-10.316445312500004
 10
-4.329199470691994
 20
-10.272792873538906
 10
-4.232789900357606
 20
-10.226903449136701
 10
-4.137660518474266
 20
-10.178810030358738
 10
-4.043844317326781
 20
-10.128545608270361
 10
-3.9513742891999537
 20
-10.07614317393694
 10
-3.8602834263785932
 20
-10.021635718423813
 10
-3.770604721147506
 20
-9.965056232796341
 10
-3.682371165791497
 20
-9.906437708119878
 10
-3.5956157525953683
 20
-9.845813135459775
 10
-3.510371473843935
 20
-9.783215505881385
 10
-3.426671321821993
 20
-9.71867781045007
 10
-3.3445482888143583
 20
-9.652233040231174
 10
-3.2640353671058278
 20
-9.583914186290055
 10
-3.185165548981213
 20
-9.513754239692062
 10
-3.1079718267253194
 20
-9.441786191502556
 10
-3.03248719262295
 20
-9.368043032786884
 10
-2.9587446389589154
 20
-9.292557754610407
 10
-2.886777158018017
 20
-9.21536334803847
 10
-2.8166177420850658
 20
-9.13649280413643
 10
-2.748299383444863
 20
-9.055979113969647
 10
-2.6818550743822183
 20
-8.973855268603467
 10
-2.617317807181936
 20
-8.89015425910324
 10
-2.5547205741288233
 20
-8.804909076534335
 10
-2.494096367507685
 20
-8.71815271196209
 10
-2.435478179603326
 20
-8.629918156451867
 10
-2.3788990027005554
 20
-8.540238401069017
 10
-2.324391829084178
 20
-8.449146436878893
 10
-2.271989651038998
 20
-8.356675254946847
 10
-2.221725460849825
 20
-8.262857846338239
 10
-2.1736322508014623
 20
-8.167727202118419
 10
-2.1277430131787156
 20
-8.071316313352742
 10
-2.0840907402663915
 20
-7.973658171106557
 10
-2.0427084243493008
 20
-7.874785766445222
 10
-2.003629057712244
 20
-7.774732090434089
 10
-1.9668856326400266
 20
-7.673530134138514
 10
-1.932511141417457
 20
-7.571212888623846
 10
-1.900538576329341
 20
-7.467813344955446
 10
-1.8710009296604846
 20
-7.363364494198658
 10
-1.8439311936956937
 20
-7.257899327418843
 10
-1.8193623607197742
 20
-7.151450835681353
 10
-1.7973274230175322
 20
-7.04405201005154
 10
-1.7778593728737757
 20
-6.9357358415947585
 10
-1.760991202573306
 20
-6.826535321376361
 10
-1.746755904400934
 20
-6.716483440461706
 10
-1.735186470641465
 20
-6.6056131899161405
 10
-1.726315893579701
 20
-6.493957560805025
 10
-1.7201771655004519
 20
-6.381549544193704
 10
-1.716803278688524
 20
-6.26842213114754
  0
LWPOLYLINE
  5
41
330
17
100
AcDbEntity
  8
0
100
AcDbPolyline
 90
65
 70
0
 10
6.033700819672132
 20
10.626356557377049
 10
5.920575865245255
 20
10.622982670361877
 10
5.808170230427726
 20
10.616843940859935
 10
5.696516907504351
 20
10.60797335993657
 10
5.585648888759926
 20
10.596403918657144
 10
5.475599166479268
 20
10.582168608087006
 10
5.36640073294718
 20
10.565300419291512
 10
5.258086580448461
 20
10.54583234333601
 10
5.150689701267931
 20
10.523797371285859
 10
5.044243087690384
 20
10.499228494206411
 10
4.938779732000631
 20
10.472158703163021
 10
4.834332626483479
 20
10.44262098922104
 10
4.730934763423732
 20
10.410648343445823
 10
4.628619135106196
 20
10.376273756902725
 10
4.527418733815679
 20
10.339530220657098
 10
4.427366551836986
 20
10.300450725774295
 10
4.328495581454918
 20
10.259068263319673
 10
4.230838814954289
 20
10.21541582435858
 10
4.134429244619902
 20
10.169526399956375
 10
4.039299862736559
 20
10.121432981178408
 10
3.945483661589076
 20
10.071168559090035
 10
3.8530136334622496
 20
10.01876612475661
 10
3.761922770640889
 20
9.964258669243485
 10
3.6722440654098
 20
9.907679183616013
 10
3.5840105100537927
 20
9.84906065893955
 10
3.4972550968576663
 20
9.788436086279448
 10
3.412010818106227
 20
9.72583845670106
 10
3.3283106660842927
 20
9.661300761269741
 10
3.246187633076654
 20
9.594855991050846
 10
3.165674711368125
 20
9.526537137109726
 10
3.086804893243509
 20
9.456377190511736
 10
3.009611170987614
 20
9.384409142322228
 10
2.934126536885246
 20
9.310665983606558
 10
2.8603839832212112
 20
9.235180705430079
 10
2.788416502280313
 20
9.157986298858143
 10
2.7182570863473616
 20
9.079115754956105
 10
2.649938727707159
 20
8.998602064789319
 10
2.5834944186445155
 20
8.916478219423137
 10
2.5189571514442317
 20
8.832777209922916
 10
2.4563599183911213
 20
8.747532027354007
 10
2.395735711769981
 20
8.660775662781765
 10
2.3371175238656208
 20
8.57254110727154
 10
2.2805383469628513
 20
8.482861351888689
 10
2.2260311733464744
 20
8.391769387698565
 10
2.173628995301293
 20
8.299298205766522
 10
2.12336480511212
 20
8.205480797157914
 10
2.0752715950637595
 20
8.110350152938093
 10
2.029382357441013
 20
8.013939264172414
 10
1.9857300845286874
 20
7.9162811219262315
 10
1.9443477686115969
 20
7.817408717264897
 10
1.9052684019745376
 20
7.717355041253764
 10
1.8685249769023227
 20
7.616153084958187
 10
1.834150485679753
 20
7.513835839443521
 10
1.802177920591637
 20
7.410436295775119
 10
1.7726402739227807
 20
7.305987445018332
 10
1.7455705379579898
 20
7.200522278238518
 10
1.7210017049820703
 20
7.094073786501027
 10
1.6989667672798283
 20
6.986674960871214
 10
1.6794987171360694
 20
6.878358792414433
 10
1.6626305468356044
 20
6.769158272196037
 10
1.6483952486632298
 20
6.65910639128138
 10
1.6368258149037587
 20
6.548236140735816
 10
1.6279552378419968
 20
6.436580511624698
 10
1.621816509762748
 20
6.32417249501338
 10
1.61844262295082
 20
6.211045081967216
  0
LWPOLYLINE
  5
42
330
17
100
AcDbEntity
  8
0
100
AcDbPolyline
 90
65
 70
0
 10
-6.210487704918032
 20
1.6382418032786878
 10
-6.094487100632463
 20
1.6397097207366456
 10
-5.979210153548443
 20
1.6440899393050383
 10
-5.86469216437418
 20
1.6513471582756662
 10
-5.750968433817878
 20
1.6614460769403183
 10
-5.63807426258775
 20
1.674351394590783
 10
-5.5260449513920005
 20
1.6900278105188586
 10
-5.41491580093884
 20
1.7084400240163338
 10
-5.304722111936473
 20
1.7295527343749995
 10
-5.195499185093113
 20
1.7533306408866491
 10
-5.087282321116964
 20
1.7797384428430785
 10
-4.980106820716232
 20
1.808740839536073
 10
-4.874007984599128
 20
1.8403025302574265
 10
-4.769021113473859
 20
1.8743882142989354
 10
-4.665181508048636
 20
1.910962590952387
 10
-4.562524469031662
 20
1.949990359509577
 10
-4.461085297131147
 20
1.9914362192622943
 10
-4.3608992930553
 20
2.0352648695023343
 10
-4.2620017575123255
 20
2.0814410095214826
 10
-4.164427991210436
 20
2.12992933861154
 10
-4.068213294857837
 20
2.1806945560642927
 10
-3.9733929691627377
 20
2.233701361171535
 10
-3.8800023148333427
 20
2.288914453225058
 10
-3.7880766325778623
 20
2.3462985315166534
 10
-3.697651223104507
 20
2.405818295338113
 10
-3.608761387121482
 20
2.4674384439812327
 10
-3.521442425336993
 20
2.5311236767378014
 10
-3.4357296384592506
 20
2.59683869289961
 10
-3.3516583271964637
 20
2.664548191758453
 10
-3.2692637922568375
 20
2.7342168726061202
 10
-3.188581334348583
 20
2.8058094347344062
 10
-3.1096462541799075
 20
2.879290577435102
 10
-3.0324938524590164
 20
2.9546249999999996
 10
-2.957159429894119
 20
3.0317774017208907
 10
-2.8836782871934203
 20
3.1107124818895677
 10
-2.812085725065136
 20
3.1913949397978243
 10
-2.742417044217467
 20
3.2737894747374483
 10
-2.6747075453586255
 20
3.357860786000235
 10
-2.6089925291968155
 20
3.4435735728779777
 10
-2.545307296440249
 20
3.530892534662466
 10
-2.48368714779713
 20
3.619782370645493
 10
-2.4241673839756697
 20
3.710207780118848
 10
-2.3667833056840735
 20
3.8021334623743295
 10
-2.311570213630549
 20
3.895524116703722
 10
-2.258563408523308
 20
3.99034444239882
 10
-2.2077981910705557
 20
4.0865591387514195
 10
-2.159309861980498
 20
4.18413290505331
 10
-2.1131337219613484
 20
4.283030440596284
 10
-2.0693050717213097
 20
4.38321644467213
 10
-2.0278592119685923
 20
4.484655616572645
 10
-1.9888314434114036
 20
4.587312655589619
 10
-1.9522570667579497
 20
4.691152261014843
 10
-1.9181713827164444
 20
4.796139132140113
 10
-1.8866096919950894
 20
4.902237968257215
 10
-1.8576072953020917
 20
5.0094134686579475
 10
-1.831199493345667
 20
5.117630332634096
 10
-1.8074215868340149
 20
5.226853259477458
 10
-1.7863088764753492
 20
5.3370469484798235
 10
-1.767896662977874
 20
5.4481760989329855
 10
-1.7522202470497985
 20
5.5602054101287335
 10
-1.7393149293993337
 20
5.673099581358862
 10
-1.7292160107346817
 20
5.786823311915163
 10
-1.7219587917640538
 20
5.901341301089428
 10
-1.7175785731956588
 20
6.016618248173447
 10
-1.7161106557377033
 20
6.132618852459015
  0
LWPOLYLINE
  5
43
330
17
100
AcDbEntity
  8
0
100
AcDbPolyline
 90
65
 70
0
 10
1.6177499999999994
 20
-6.189995901639342
 10
1.6192179174579548
 20
-6.0739952973537745
 10
1.6235981360263496
 20
-5.958718350269754
 10
1.6308553549969778
 20
-5.84420036109549
 10
1.6409542736616296
 20
-5.730476630539187
 10
1.6538595913120946
 20
-5.6175824593090615
 10
1.6695360072401677
 20
-5.505553148113312
 10
1.6879482207376453
 20
-5.394423997660151
 10
1.709060931096311
 20
-5.2842303086577855
 10
1.7328388376079606
 20
-5.1750073818144235
 10
1.75924663956439
 20
-5.066790517838272
 10
1.7882490362573855
 20
-4.9596150174375415
 10
1.819810726978738
 20
-4.853516181320441
 10
1.853896411020248
 20
-4.74852931019517
 10
1.8904707876736997
 20
-4.644689704769946
 10
1.9294985562308886
 20
-4.5420326657529735
 10
1.970944415983608
 20
-4.440593493852457
 10
2.0147730662236447
 20
-4.340407489776609
 10
2.060949206242794
 20
-4.2415099542336385
 10
2.1094375353328516
 20
-4.143936187931747
 10
2.1602027527856063
 20
-4.047721491579149
 10
2.2132095578928475
 20
-3.9529011658840467
 10
2.2684226499463698
 20
-3.859510511554654
 10
2.3258067282379624
 20
-3.767584829299174
 10
2.3853264920594257
 20
-3.6771594198258195
 10
2.446946640702544
 20
-3.588269583842793
 10
2.5106318734591127
 20
-3.5009506220583035
 10
2.5763468896209227
 20
-3.4152378351805646
 10
2.6440563884797657
 20
-3.3311665239177755
 10
2.713725069327432
 20
-3.2487719889781475
 10
2.7853176314557175
 20
-3.168089531069895
 10
2.858798774156416
 20
-3.0891544509012188
 10
2.9341331967213113
 20
-3.012002049180324
 10
3.011285598442201
 20
-2.936667626615427
 10
3.0902206786108795
 20
-2.863186483914735
 10
3.170903136519137
 20
-2.7915939217864474
 10
3.25329767145876
 20
-2.721925240938779
 10
3.3373689827215465
 20
-2.654215742079936
 10
3.423081769599288
 20
-2.588500725918126
 10
3.51040073138378
 20
-2.5248154931615594
 10
3.599290567366802
 20
-2.463195344518441
 10
3.689715976840156
 20
-2.403675580696978
 10
3.7816416590956363
 20
-2.346291502405383
 10
3.8750323134250313
 20
-2.29107841035186
 10
3.969852639120132
 20
-2.2380716052446195
 10
4.066067335472732
 20
-2.187306387791867
 10
4.163641101774621
 20
-2.1388180587018115
 10
4.262538637317597
 20
-2.09264191868266
 10
4.36272464139344
 20
-2.0488132684426237
 10
4.464163813293958
 20
-2.0073674086899063
 10
4.56682085231093
 20
-1.968339640132713
 10
4.6706604577361555
 20
-1.9317652634792613
 10
4.775647328861424
 20
-1.897679579437756
 10
4.881746164978526
 20
-1.866117888716401
 10
4.988921665379261
 20
-1.8371154920234054
 10
5.097138529355409
 20
-1.8107076900669785
 10
5.206361456198768
 20
-1.7869297835553264
 10
5.316555145201135
 20
-1.7658170731966607
 10
5.427684295654297
 20
-1.7474048596991856
 10
5.539713606850044
 20
-1.7317284437711122
 10
5.6526077780801725
 20
-1.7188231261206453
 10
5.766331508636473
 20
-1.7087242074559932
 10
5.880849497810739
 20
-1.7014669884853675
 10
5.996126444894759
 20
-1.6970867699169703
 10
6.1121270491803275
 20
-1.6956188524590148
  0
LWPOLYLINE
  5
44
330
17
100
AcDbEntity
  8
0
100
AcDbPolyline
 90
65
 70
0
 10
7.794721311475408
 20
4.500000000000003
 10
7.757204721466438
 20
4.564369868497382
 10
7.719180272211793
 20
4.628395111209058
 10
7.680650596509212
 20
4.692073095337291
 10
7.641618327156443
 20
4.755401188084339
 10
7.6020860969512185
 20
4.818376756652459
 10
7.562056538691285
 20
4.880997168243911
 10
7.521532285174388
 20
4.943259790060953
 10
7.480515969198257
 20
5.005161989305843
 10
7.4390102235606435
 20
5.06670113318084
 10
7.397017681059289
 20
5.127874588888202
 10
7.354540974491932
 20
5.188679723630189
 10
7.311582736656313
 20
5.249113904609057
 10
7.268145600350176
 20
5.309174499027066
 10
7.224232198371263
 20
5.368858874086476
 10
7.179845163517311
 20
5.428164396989543
 10
7.134987128586069
 20
5.487088434938527
 10
7.089660726375268
 20
5.545628355135684
 10
7.043868589682656
 20
5.603781524783278
 10
6.997613351305979
 20
5.661545311083561
 10
6.95089764404297
 20
5.718917081238797
 10
6.903724100691373
 20
5.775894202451239
 10
6.856095354048934
 20
5.832474041923151
 10
6.808014036913385
 20
5.888653966856786
 10
6.759482782082479
 20
5.944431344454408
 10
6.7105042223539515
 20
5.999803541918272
 10
6.661080990525542
 20
6.054767926450638
 10
6.611215719394998
 20
6.109321865253764
 10
6.560911041760054
 20
6.163462725529907
 10
6.51016959041846
 20
6.217187874481328
 10
6.458993998167948
 20
6.270494679310284
 10
6.407386897806263
 20
6.323380507219035
 10
6.355350922131149
 20
6.3758427254098375
 10
6.302888703940343
 20
6.4278787010849525
 10
6.250002876031596
 20
6.479485801446636
 10
6.196696071202639
 20
6.530661393697146
 10
6.142970922251217
 20
6.581402845038744
 10
6.088830061975075
 20
6.631707522673687
 10
6.034276123171946
 20
6.681572793804232
 10
5.979311738639584
 20
6.73099602563264
 10
5.923939541175719
 20
6.779974585361168
 10
5.868162163578097
 20
6.828505840192077
 10
5.811982238644461
 20
6.876587157327623
 10
5.755402399172551
 20
6.9242159039700635
 10
5.698425277960105
 20
6.971389447321657
 10
5.641053507804872
 20
7.018105154584665
 10
5.58328972150459
 20
7.064360392961346
 10
5.525136551856996
 20
7.110152529653955
 10
5.466596631659837
 20
7.155478931864755
 10
5.4076725937108545
 20
7.200336966796
 10
5.348367070807788
 20
7.24472400164995
 10
5.288682695748379
 20
7.288637403628865
 10
5.228622101330369
 20
7.332074539935002
 10
5.1681879203514995
 20
7.37503277777062
 10
5.107382785609511
 20
7.417509484337978
 10
5.04620932990215
 20
7.459502026839335
 10
4.984670186027151
 20
7.501007772476945
 10
4.9227679867822625
 20
7.542024088453073
 10
4.86050536496522
 20
7.582548341969974
 10
4.797884953373769
 20
7.622577900229906
 10
4.734909384805649
 20
7.662110130435129
 10
4.671581292058601
 20
7.701142399787901
 10
4.60790330793037
 20
7.739672075490481
 10
4.543878065218693
 20
7.777696524745127
 10
4.479508196721311
 20
7.815213114754097
  0
LWPOLYLINE
  5
45
330
17
100
AcDbEntity
  8
0
100
AcDbPolyline
 90
65
 70
0
 10
-7.893081967213114
 20
-4.557377049180327
 10
-7.855565377204144
 20
-4.621746917677704
 10
-7.817540927949498
 20
-4.685772160389383
 10
-7.779011252246918
 20
-4.749450144517619
 10
-7.739978982894145
 20
-4.812778237264662
 10
-7.700446752688923
 20
-4.875753805832784
 10
-7.66041719442899
 20
-4.9383742174242355
 10
-7.61989294091209
 20
-5.000636839241277
 10
-7.578876624935962
 20
-5.062539038486166
 10
-7.53737087929835
 20
-5.124078182361163
 10
-7.4953783367969935
 20
-5.185251638068527
 10
-7.452901630229636
 20
-5.246056772810513
 10
-7.409943392394019
 20
-5.3064909537893845
 10
-7.366506256087881
 20
-5.3665515482073936
 10
-7.322592854108967
 20
-5.426235923266801
 10
-7.278205819255016
 20
-5.485541446169868
 10
-7.23334778432377
 20
-5.5444654841188505
 10
-7.1880213821129715
 20
-5.60300540431601
 10
-7.142229245420361
 20
-5.661158573963601
 10
-7.095974007043681
 20
-5.7189223602638855
 10
-7.049258299780673
 20
-5.776294130419118
 10
-7.002084756429078
 20
-5.833271251631564
 10
-6.954456009786637
 20
-5.889851091103474
 10
-6.906374692651092
 20
-5.946031016037113
 10
-6.857843437820184
 20
-6.001808393634732
 10
-6.808864878091655
 20
-6.057180591098597
 10
-6.759441646263247
 20
-6.112144975630962
 10
-6.7095763751327
 20
-6.166698914434085
 10
-6.659271697497758
 20
-6.220839774710232
 10
-6.60853024615616
 20
-6.2745649236616545
 10
-6.55735465390565
 20
-6.327871728490609
 10
-6.505747553543964
 20
-6.38075755639936
 10
-6.453711577868851
 20
-6.43321977459016
 10
-6.401249359678049
 20
-6.485255750265278
 10
-6.348363531769299
 20
-6.536862850626958
 10
-6.2950567269403415
 20
-6.588038442877471
 10
-6.2413315779889205
 20
-6.638779894219072
 10
-6.187190717712777
 20
-6.6890845718540115
 10
-6.132636778909652
 20
-6.738949842984558
 10
-6.077672394377286
 20
-6.7883730748129665
 10
-6.022300196913421
 20
-6.837351634541495
 10
-5.9665228193157995
 20
-6.885882889372406
 10
-5.910342894382164
 20
-6.933964206507947
 10
-5.853763054910252
 20
-6.981592953150389
 10
-5.796785933697809
 20
-7.028766496501985
 10
-5.739414163542574
 20
-7.0754822037649925
 10
-5.681650377242291
 20
-7.121737442141674
 10
-5.623497207594699
 20
-7.167529578834284
 10
-5.564957287397541
 20
-7.212855981045082
 10
-5.506033249448556
 20
-7.257714015976324
 10
-5.44672772654549
 20
-7.302101050830276
 10
-5.38704335148608
 20
-7.346014452809192
 10
-5.326982757068071
 20
-7.389451589115329
 10
-5.2665485760892015
 20
-7.4324098269509475
 10
-5.205743441347215
 20
-7.474886533518304
 10
-5.144569985639852
 20
-7.516879076019662
 10
-5.083030841764855
 20
-7.558384821657272
 10
-5.021128642519966
 20
-7.599401137633398
 10
-4.958866020702924
 20
-7.6399253911503004
 10
-4.896245609111473
 20
-7.679954949410234
 10
-4.833270040543353
 20
-7.719487179615456
 10
-4.769941947796304
 20
-7.758519448968228
 10
-4.706263963668071
 20
-7.797049124670808
 10
-4.642238720956395
 20
-7.835073573925454
 10
-4.577868852459016
 20
-7.872590163934424
  0
LWPOLYLINE
  5
46
330
17
100
AcDbEntity
  8
0
100
AcDbPolyline
 90
65
 70
0
 10
-0.049180327868851986
 20
9.028688524590166
 10
-0.12368530492313508
 20
9.028382163391742
 10
-0.1981457134309342
 20
9.027463721228429
 10
-0.2725579584465661
 20
9.02593416024818
 10
-0.3469184450243336
 20
9.02379444259894
 10
-0.42122357821855355
 20
9.021045530428653
 10
-0.4954697630835357
 20
9.017688385885272
 10
-0.5696534046735898
 20
9.013723971116741
 10
-0.6437709080430326
 20
9.009153248271007
 10
-0.7178186782461694
 20
9.003977179496015
 10
-0.7917931203373145
 20
8.998196726939717
 10
-0.8656906393707778
 20
8.991812852750062
 10
-0.9395076404008691
 20
8.98482651907499
 10
-1.013240528481905
 20
8.97723868806245
 10
-1.0868857086681911
 20
8.969050321860394
 10
-1.1604395860140435
 20
8.960262382616765
 10
-1.2338985655737702
 20
8.95087583247951
 10
-1.307259052401681
 20
8.940891633596578
 10
-1.3805174515520946
 20
8.930310748115916
 10
-1.453670168079314
 20
8.919134138185472
 10
-1.5267136070376537
 20
8.90736276595319
 10
-1.5996441734814237
 20
8.89499759356702
 10
-1.6724582724649382
 20
8.88203958317491
 10
-1.7451523090425092
 20
8.868489696924804
 10
-1.8177226882684423
 20
8.854348896964652
 10
-1.8901658151970537
 20
8.839618145442401
 10
-1.9624780948826515
 20
8.824298404505996
 10
-2.034655932379551
 20
8.808390636303386
 10
-2.1066957327420592
 20
8.791895802982518
 10
-2.17859390102449
 20
8.77481486669134
 10
-2.2503468422811532
 20
8.757148789577798
 10
-2.321950961566362
 20
8.738898533789838
 10
-2.3934026639344257
 20
8.72006506147541
 10
-2.4646983544396575
 20
8.700649334782458
 10
-2.535834438136367
 20
8.680652315858934
 10
-2.606807320078865
 20
8.660074966852783
 10
-2.6776134053214635
 20
8.63891824991195
 10
-2.7482490989184782
 20
8.617183127184383
 10
-2.8187108059242134
 20
8.59487056081803
 10
-2.888994931392981
 20
8.57198151296084
 10
-2.9590978803790984
 20
8.548516945760756
 10
-3.02901605793687
 20
8.524477821365732
 10
-3.0987458691206133
 20
8.499865101923708
 10
-3.168283718984635
 20
8.474679749582634
 10
-3.237626012583246
 20
8.448922726490459
 10
-3.3067691549707616
 20
8.422594994795125
 10
-3.375709551201492
 20
8.395697516644587
 10
-3.4444436063297466
 20
8.368231254186785
 10
-3.5129677254098364
 20
8.34019716956967
 10
-3.581278313496073
 20
8.311596224941189
 10
-3.64937177564277
 20
8.282429382449289
 10
-3.7172445169042367
 20
8.252697604241916
 10
-3.7848929423347846
 20
8.22240185246702
 10
-3.852313456988724
 20
8.191543089272544
 10
-3.919502465920369
 20
8.160122276806439
 10
-3.9864563741840287
 20
8.12814037721665
 10
-4.053171586834015
 20
8.095598352651125
 10
-4.119644508924641
 20
8.062497165257811
 10
-4.1858715455102145
 20
8.028837777184657
 10
-4.251849101645047
 20
7.994621150579606
 10
-4.317573582383452
 20
7.95984824759061
 10
-4.38304139277974
 20
7.924520030365614
 10
-4.448248937888223
 20
7.888637461052565
 10
-4.513192622763211
 20
7.85220150179941
 10
-4.577868852459016
 20
7.815213114754097
  0
LWPOLYLINE
  5
47
330
17
100
AcDbEntity
  8
0
100
AcDbPolyline
 90
65
 70
0
 10
-0.049180327868851986
 20
-9.086065573770494
 10
0.025324649185431106
 20
-9.085759212572066
 10
0.09978505769323255
 20
-9.084840770408759
 10
0.1741973027088598
 20
-9.083311209428505
 10
0.24855778928662967
 20
-9.08117149177927
 10
0.3228629224808496
 20
-9.078422579608985
 10
0.3971091073458294
 20
-9.075065435065598
 10
0.47129274893588813
 20
-9.07110102029707
 10
0.5454102523053287
 20
-9.066530297451333
 10
0.6194580225084655
 20
-9.061354228676345
 10
0.6934324645996106
 20
-9.055573776120042
 10
0.7673299836330716
 20
-9.04918990193039
 10
0.8411469846631652
 20
-9.042203568255317
 10
0.9148798727442011
 20
-9.03461573724278
 10
0.9885250529304871
 20
-9.026427371040718
 10
1.0620789302763396
 20
-9.017639431797091
 10
1.1355379098360638
 20
-9.00825288165984
 10
1.2088983966639792
 20
-8.998268682776907
 10
1.2821567958143882
 20
-8.987687797296248
 10
1.3553095123416077
 20
-8.9765111873658
 10
1.4283529512999498
 20
-8.96473981513352
 10
1.5012835177437196
 20
-8.95237464274735
 10
1.5740976167272365
 20
-8.939416632355236
 10
1.646791653304803
 20
-8.92586674610513
 10
1.7193620325307382
 20
-8.911725946144982
 10
1.7918051594593498
 20
-8.896995194622729
 10
1.8641174391449473
 20
-8.881675453686324
 10
1.9362952766418478
 20
-8.865767685483716
 10
2.0083350770043515
 20
-8.849272852162846
 10
2.080233245286785
 20
-8.832191915871668
 10
2.151986186543448
 20
-8.814525838758124
 10
2.2235903058286555
 20
-8.796275582970168
 10
2.295042008196722
 20
-8.777442110655738
 10
2.366337698701952
 20
-8.758026383962788
 10
2.4374737823986607
 20
-8.73802936503926
 10
2.5084466643411623
 20
-8.717452016033112
 10
2.579252749583757
 20
-8.696295299092277
 10
2.649888443180772
 20
-8.674560176364714
 10
2.7203501501865084
 20
-8.652247609998359
 10
2.790634275655277
 20
-8.62935856214117
 10
2.8607372246413947
 20
-8.605893994941088
 10
2.930655402199166
 20
-8.581854870546058
 10
3.0003852133829105
 20
-8.557242151104036
 10
3.0699230632469288
 20
-8.532056798762962
 10
3.139265356845542
 20
-8.506299775670788
 10
3.2084084992330575
 20
-8.479972043975454
 10
3.277348895463788
 20
-8.453074565824917
 10
3.34608295059204
 20
-8.425608303367111
 10
3.414607069672129
 20
-8.397574218750002
 10
3.4829176577583687
 20
-8.368973274121519
 10
3.551011119905065
 20
-8.339806431629615
 10
3.6188838611665313
 20
-8.310074653422248
 10
3.686532286597078
 20
-8.27977890164735
 10
3.7539528012510175
 20
-8.248920138452874
 10
3.821141810182666
 20
-8.217499325986767
 10
3.888095718446325
 20
-8.185517426396979
 10
3.954810931096312
 20
-8.152975401831453
 10
4.021283853186936
 20
-8.11987421443814
 10
4.08751088977251
 20
-8.086214826364985
 10
4.1534884459073425
 20
-8.051998199759936
 10
4.219212926645748
 20
-8.017225296770938
 10
4.284680737042036
 20
-7.981897079545941
 10
4.349888282150519
 20
-7.946014510232893
 10
4.414831967025508
 20
-7.909578550979737
 10
4.479508196721311
 20
-7.872590163934424
  0
LWPOLYLINE
  5
48
330
17
100
AcDbEntity
  8
0
100
AcDbPolyline
 90
65
 70
0
 10
-6.210487704918032
 20
-10.684426229508198
 10
-6.094487100632463
 20
-10.682958311846999
 10
-5.979210153548443
 20
-10.678578091855911
 10
-5.86469216437418
 20
-10.671320869023685
 10
-5.750968433817878
 20
-10.661221942839076
 10
-5.63807426258775
 20
-10.648316612790843
 10
-5.5260449513920005
 20
-10.632640178367742
 10
-5.41491580093884
 20
-10.614227939058521
 10
-5.304722111936473
 20
-10.593115194351947
 10
-5.195499185093113
 20
-10.569337243736765
 10
-5.087282321116964
 20
-10.542929386701745
 10
-4.980106820716232
 20
-10.513926922735621
 10
-4.874007984599128
 20
-10.482365151327167
 10
-4.769021113473859
 20
-10.448279371965128
 10
-4.665181508048636
 20
-10.411704884138263
 10
-4.562524469031662
 20
-10.372676987335328
 10
-4.461085297131147
 20
-10.331230981045081
 10
-4.3608992930553
 20
-10.287402164756276
 10
-4.2620017575123255
 20
-10.241225837957664
 10
-4.164427991210436
 20
-10.192737300138004
 10
-4.068213294857837
 20
-10.14197185078605
 10
-3.9733929691627377
 20
-10.088964789390566
 10
-3.8800023148333427
 20
-10.033751415440294
 10
-3.7880766325778623
 20
-9.976367028424
 10
-3.697651223104507
 20
-9.91684692783043
 10
-3.608761387121482
 20
-9.85522641314835
 10
-3.521442425336993
 20
-9.791540783866507
 10
-3.4357296384592506
 20
-9.725825339473662
 10
-3.3516583271964637
 20
-9.658115379458568
 10
-3.2692637922568375
 20
-9.588446203309982
 10
-3.188581334348583
 20
-9.516853110516655
 10
-3.1096462541799075
 20
-9.443371400567354
 10
-3.0324938524590164
 20
-9.368036372950819
 10
-2.957159429894119
 20
-9.290883327155816
 10
-2.8836782871934203
 20
-9.211947562671094
 10
-2.812085725065136
 20
-9.131264378985419
 10
-2.742417044217467
 20
-9.048869075587538
 10
-2.6747075453586255
 20
-8.964796951966209
 10
-2.6089925291968155
 20
-8.87908330761018
 10
-2.545307296440249
 20
-8.791763442008223
 10
-2.48368714779713
 20
-8.702872654649077
 10
-2.4241673839756697
 20
-8.612446245021507
 10
-2.3667833056840735
 20
-8.520519512614264
 10
-2.311570213630549
 20
-8.42712775691611
 10
-2.258563408523308
 20
-8.332306277415793
 10
-2.2077981910705557
 20
-8.236090373602066
 10
-2.159309861980498
 20
-8.138515344963697
 10
-2.1131337219613484
 20
-8.039616490989435
 10
-2.0693050717213097
 20
-7.9394291111680335
 10
-2.0278592119685923
 20
-7.837988504988246
 10
-1.9888314434114036
 20
-7.7353299719388335
 10
-1.9522570667579497
 20
-7.631488811508553
 10
-1.9181713827164444
 20
-7.526500323186152
 10
-1.8866096919950894
 20
-7.420399806460395
 10
-1.8576072953020917
 20
-7.313222560820031
 10
-1.831199493345667
 20
-7.205003885753817
 10
-1.8074215868340149
 20
-7.0957790807505114
 10
-1.7863088764753492
 20
-6.985583445298866
 10
-1.767896662977874
 20
-6.874452278887639
 10
-1.7522202470497985
 20
-6.762420881005583
 10
-1.7393149293993337
 20
-6.649524551141456
 10
-1.7292160107346817
 20
-6.535798588784013
 10
-1.7219587917640538
 20
-6.42127829342201
 10
-1.7175785731956588
 20
-6.3059989645442025
 10
-1.7161106557377033
 20
-6.189995901639342
  0
LWPOLYLINE
  5
49
330
17
100
AcDbEntity
  8
0
100
AcDbPolyline
 90
65
 70
0
 10
6.1121270491803275
 20
10.627049180327871
 10
5.996126444894759
 20
10.625581262666673
 10
5.880849497810736
 20
10.621201042675585
 10
5.766331508636473
 20
10.613943819843357
 10
5.6526077780801725
 20
10.60384489365875
 10
5.539713606850046
 20
10.590939563610515
 10
5.427684295654297
 20
10.575263129187414
 10
5.3165551452011375
 20
10.556850889878197
 10
5.206361456198768
 20
10.53573814517162
 10
5.097138529355409
 20
10.51196019455644
 10
4.988921665379259
 20
10.485552337521414
 10
4.881746164978526
 20
10.456549873555295
 10
4.775647328861424
 20
10.42498810214684
 10
4.6706604577361555
 20
10.3909023227848
 10
4.56682085231093
 20
10.354327834957937
 10
4.464163813293958
 20
10.315299938155004
 10
4.362724641393442
 20
10.273853931864757
 10
4.262538637317594
 20
10.23002511557595
 10
4.163641101774621
 20
10.183848788777338
 10
4.066067335472732
 20
10.135360250957678
 10
3.969852639120132
 20
10.084594801605727
 10
3.8750323134250313
 20
10.031587740210238
 10
3.7816416590956363
 20
9.976374366259968
 10
3.6897159768401586
 20
9.91898997924367
 10
3.599290567366802
 20
9.859469878650104
 10
3.51040073138378
 20
9.797849363968023
 10
3.423081769599288
 20
9.734163734686183
 10
3.3373689827215465
 20
9.668448290293338
 10
3.25329767145876
 20
9.600738330278242
 10
3.170903136519137
 20
9.531069154129657
 10
3.0902206786108795
 20
9.459476061336334
 10
3.011285598442201
 20
9.385994351387026
 10
2.9341331967213113
 20
9.310659323770494
 10
2.858798774156416
 20
9.233506277975492
 10
2.7853176314557175
 20
9.154570513490771
 10
2.713725069327432
 20
9.073887329805094
 10
2.6440563884797634
 20
8.991492026407213
 10
2.5763468896209227
 20
8.90741990278588
 10
2.510631873459115
 20
8.821706258429858
 10
2.446946640702544
 20
8.734386392827897
 10
2.3853264920594257
 20
8.645495605468753
 10
2.3258067282379624
 20
8.555069195841181
 10
2.2684226499463698
 20
8.46314246343394
 10
2.2132095578928475
 20
8.369750707735783
 10
2.1602027527856063
 20
8.274929228235465
 10
2.1094375353328516
 20
8.178713324421743
 10
2.060949206242794
 20
8.081138295783372
 10
2.0147730662236447
 20
7.982239441809108
 10
1.970944415983608
 20
7.882052061987706
 10
1.9294985562308908
 20
7.780611455807921
 10
1.8904707876736973
 20
7.67795292275851
 10
1.8538964110202458
 20
7.5741117623282275
 10
1.819810726978738
 20
7.469123274005828
 10
1.7882490362573855
 20
7.363022757280069
 10
1.75924663956439
 20
7.255845511639706
 10
1.7328388376079606
 20
7.147626836573492
 10
1.709060931096311
 20
7.038402031570185
 10
1.6879482207376428
 20
6.928206396118539
 10
1.6695360072401702
 20
6.817075229707311
 10
1.6538595913120946
 20
6.7050438318252565
 10
1.6409542736616274
 20
6.59214750196113
 10
1.6308553549969778
 20
6.478421539603686
 10
1.6235981360263496
 20
6.363901244241683
 10
1.6192179174579548
 20
6.2486219153638745
 10
1.6177499999999994
 20
6.132618852459015
  0
LWPOLYLINE
  5
4A
330
17
100
AcDbEntity
  8
0
100
AcDbPolyline
 90
65
 70
0
 10
9.632463114754097
 20
-1.8414426229508192
 10
9.63571399845061
 20
-1.8239953292158768
 10
9.638933347107933
 20
-1.8065426918404996
 10
9.642121155848269
 20
-1.7890847522860658
 10
9.645277419793807
 20
-1.7716215520139598
 10
9.648402134066721
 20
-1.754153132485559
 10
9.651495293789223
 20
-1.736679535162251
 10
9.654556894083491
 20
-1.7192008015054157
 10
9.657586930071718
 20
-1.701716972976433
 10
9.660585396876098
 20
-1.6842280910366876
 10
9.663552289618822
 20
-1.6667341971475549
 10
9.666487603422068
 20
-1.6492353327704243
 10
9.66939133340804
 20
-1.6317315393666736
 10
9.672263474698925
 20
-1.6142228583976852
 10
9.67510402241691
 20
-1.5967093313248415
 10
9.677912971684188
 20
-1.5791909996095246
 10
9.680690317622947
 20
-1.561667904713117
 10
9.683436055355383
 20
-1.5441400880969942
 10
9.68615018000368
 20
-1.526607591222541
 10
9.688832686690034
 20
-1.5090704555511465
 10
9.691483570536626
 20
-1.4915287225441862
 10
9.694102826665654
 20
-1.4739824336630378
 10
9.696690450199315
 20
-1.4564316303690932
 10
9.699246436259788
 20
-1.438876354123725
 10
9.701770779969262
 20
-1.4213166463883184
 10
9.704263476449935
 20
-1.403752548624258
 10
9.706724520823991
 20
-1.3861841022929189
 10
9.709153908213628
 20
-1.3686113488556908
 10
9.711551633741033
 20
-1.3510343297739489
 10
9.713917692528398
 20
-1.333453086509078
 10
9.716252079697904
 20
-1.3158676605224602
 10
9.71855479037175
 20
-1.298278093275476
 10
9.720825819672129
 20
-1.2806844262295074
 10
9.723065162721225
 20
-1.2630867008459372
 10
9.725272814641233
 20
-1.245484958586145
 10
9.72744877055434
 20
-1.2278792409115133
 10
9.72959302558273
 20
-1.210269589283427
 10
9.731705574848611
 20
-1.1926560451632637
 10
9.733786413474162
 20
-1.1750386500124081
 10
9.73583553658157
 20
-1.157417445292238
 10
9.737852939293033
 20
-1.139792472464138
 10
9.739838616730736
 20
-1.1221637729894904
 10
9.741792564016873
 20
-1.1045313883296777
 10
9.743714776273627
 20
-1.08689535994608
 10
9.745605248623205
 20
-1.0692557293000748
 10
9.74746397618778
 20
-1.0516125378530519
 10
9.749290954089554
 20
-1.0339658270663885
 10
9.751086177450714
 20
-1.0163156384014698
 10
9.752849641393444
 20
-0.998662013319673
 10
9.754581341039938
 20
-0.9810049932823808
 10
9.756281271512389
 20
-0.963344619750978
 10
9.757949427932989
 20
-0.9456809341868421
 10
9.759585805423924
 20
-0.9280139780513601
 10
9.761190399107386
 20
-0.9103437928059076
 10
9.762763204105562
 20
-0.8926704199118692
 10
9.76430421554065
 20
-0.8749939008306297
 10
9.765813428534834
 20
-0.8573142770235666
 10
9.767290838210313
 20
-0.8396315899520624
 10
9.768736439689258
 20
-0.821945881077502
 10
9.77015022809388
 20
-0.8042571918612628
 10
9.771532198546362
 20
-0.7865655637647296
 10
9.772882346168892
 20
-0.7688710382492827
 10
9.774200666083663
 20
-0.7511736567763041
 10
9.775487153412865
 20
-0.7334734608071765
 10
9.776741803278687
 20
-0.7157704918032797
  0
LWPOLYLINE
  5
4B
330
17
100
AcDbEntity
  8
0
100
AcDbPolyline
 90
65
 70
0
 10
9.776741803278687
 20
0.6583934426229527
 10
9.775487153412865
 20
0.6760964116268495
 10
9.774200666083663
 20
0.6937966075959748
 10
9.772882346168892
 20
0.7114939890689558
 10
9.771532198546362
 20
0.7291885145844027
 10
9.77015022809388
 20
0.7468801426809358
 10
9.768736439689263
 20
0.7645688318971727
 10
9.767290838210313
 20
0.7822545407717378
 10
9.765813428534834
 20
0.7999372278432396
 10
9.76430421554065
 20
0.8176168516503027
 10
9.762763204105562
 20
0.8352933707315423
 10
9.761190399107386
 20
0.8529667436255783
 10
9.759585805423924
 20
0.8706369288710308
 10
9.757949427932989
 20
0.8883038850065151
 10
9.756281271512389
 20
0.905967570570651
 10
9.754581341039938
 20
0.9236279441020538
 10
9.75284964139344
 20
0.941284964139346
 10
9.751086177450714
 20
0.958938589221145
 10
9.749290954089554
 20
0.9765887778860616
 10
9.747463976187785
 20
0.9942354886727273
 10
9.745605248623209
 20
1.0118786801197504
 10
9.743714776273633
 20
1.029518310765753
 10
9.741792564016873
 20
1.0471543391493507
 10
9.739838616730736
 20
1.0647867238091657
 10
9.737852939293033
 20
1.0824154232838132
 10
9.73583553658157
 20
1.1000403961119134
 10
9.733786413474162
 20
1.117661600832079
 10
9.731705574848611
 20
1.1352789959829368
 10
9.72959302558273
 20
1.1528925401030978
 10
9.72744877055434
 20
1.1705021917311864
 10
9.72527281464123
 20
1.188107909405818
 10
9.723065162721225
 20
1.2057096516656103
 10
9.720825819672129
 20
1.2233073770491805
 10
9.71855479037175
 20
1.2409010440951491
 10
9.716252079697904
 20
1.2584906113421332
 10
9.713917692528394
 20
1.276076037328751
 10
9.711551633741033
 20
1.293657280593622
 10
9.709153908213633
 20
1.3112342996753639
 10
9.706724520823991
 20
1.328807053112592
 10
9.704263476449935
 20
1.3463754994439288
 10
9.701770779969262
 20
1.3639395972079915
 10
9.699246436259783
 20
1.381499304943396
 10
9.696690450199315
 20
1.3990545811887638
 10
9.69410282666566
 20
1.416605384482711
 10
9.691483570536626
 20
1.4341516733638593
 10
9.688832686690034
 20
1.4516934063708196
 10
9.68615018000368
 20
1.4692305420422165
 10
9.683436055355383
 20
1.4867630389166673
 10
9.68069031762295
 20
1.5042908555327879
 10
9.677912971684188
 20
1.5218139504291976
 10
9.67510402241691
 20
1.5393322821445168
 10
9.672263474698928
 20
1.5568458092173583
 10
9.669391333408045
 20
1.5743544901863467
 10
9.666487603422068
 20
1.5918582835900974
 10
9.663552289618822
 20
1.6093571479672302
 10
9.660585396876098
 20
1.6268510418563582
 10
9.657586930071718
 20
1.644339923796106
 10
9.654556894083491
 20
1.6618237523250887
 10
9.651495293789223
 20
1.6793024859819266
 10
9.648402134066721
 20
1.696776083305232
 10
9.645277419793802
 20
1.7142445028336328
 10
9.642121155848269
 20
1.7317077031057388
 10
9.638933347107933
 20
1.7491656426601727
 10
9.63571399845061
 20
1.766618280035552
 10
9.632463114754097
 20
1.7840655737704922
  0
LWPOLYLINE
  5
4C
330
17
100
AcDbEntity
  8
0
100
AcDbPolyline
 90
65
 70
0
 10
-9.730823770491803
 20
1.7840655737704922
 10
-9.734074654188312
 20
1.7666207000388472
 10
-9.737294002845639
 20
1.7491703302352157
 10
-9.740481811585973
 20
1.731714509479334
 10
-9.743638075531505
 20
1.7142532828909451
 10
-9.746762789804427
 20
1.6967866955897832
 10
-9.749855949526927
 20
1.679314792695594
 10
-9.752917549821197
 20
1.6618376193281088
 10
-9.755947585809425
 20
1.644355220607071
 10
-9.758946052613805
 20
1.6268676416522148
 10
-9.761912945356524
 20
1.6093749275832878
 10
-9.764848259159775
 20
1.5918771235200242
 10
-9.767751989145747
 20
1.5743742745821603
 10
-9.77062413043663
 20
1.5568664258894391
 10
-9.773464678154616
 20
1.5393536225615947
 10
-9.776273627421894
 20
1.521835909718373
 10
-9.779050973360656
 20
1.5043133324795097
 10
-9.78179671109309
 20
1.4867859359647415
 10
-9.784510835741386
 20
1.4692537652938096
 10
-9.787193342427738
 20
1.4517168655864543
 10
-9.789844226274333
 20
1.4341752819624123
 10
-9.792463482403363
 20
1.4166290595414222
 10
-9.795051105937018
 20
1.3990782434432247
 10
-9.79760709199749
 20
1.3815228787875564
 10
-9.800131435706966
 20
1.3639630106941627
 10
-9.80262413218764
 20
1.3463986842827755
 10
-9.805085176561699
 20
1.3288299446731306
 10
-9.807514563951335
 20
1.3112568369849789
 10
-9.80991228947874
 20
1.2936794063380515
 10
-9.8122783482661
 20
1.2760976978520897
 10
-9.814612735435611
 20
1.2585117566468293
 10
-9.816915446109459
 20
1.2409216278420143
 10
-9.819186475409834
 20
1.2233273565573781
 10
-9.821425818458932
 20
1.2057289879126643
 10
-9.823633470378939
 20
1.1881265670276089
 10
-9.825809426292043
 20
1.1705201390219528
 10
-9.82795368132044
 20
1.1529097490154327
 10
-9.830066230586317
 20
1.1352954421277894
 10
-9.832147069211866
 20
1.117677263478766
 10
-9.834196192319276
 20
1.1000552581880942
 10
-9.836213595030737
 20
1.0824294713755127
 10
-9.838199272468442
 20
1.064799948160767
 10
-9.840153219754578
 20
1.0471667336635913
 10
-9.842075432011338
 20
1.0295298730037263
 10
-9.84396590436091
 20
1.0118894113009107
 10
-9.845824631925488
 20
0.9942453936748831
 10
-9.84765160982726
 20
0.9765978652453822
 10
-9.849446833188416
 20
0.9589468711321487
 10
-9.851210297131148
 20
0.9412924564549192
 10
-9.852941996777643
 20
0.9236346663334345
 10
-9.854641927250096
 20
0.9059735458874333
 10
-9.856310083670694
 20
0.8883091402366541
 10
-9.857946461161628
 20
0.8706414945008356
 10
-9.85955105484509
 20
0.852970653799714
 10
-9.861123859843268
 20
0.8352966632530351
 10
-9.862664871278355
 20
0.8176195679805349
 10
-9.86417408427254
 20
0.7999394131019476
 10
-9.865651493948013
 20
0.7822562437370187
 10
-9.867097095426965
 20
0.7645701050054846
 10
-9.868510883831586
 20
0.7468810420270838
 10
-9.869892854284068
 20
0.7291890999215573
 10
-9.871243001906597
 20
0.7114943238086414
 10
-9.872561321821367
 20
0.6937967588080748
 10
-9.873847809150568
 20
0.6760964500396005
 10
-9.875102459016393
 20
0.6583934426229527
  0
LWPOLYLINE
  5
4D
330
17
100
AcDbEntity
  8
0
100
AcDbPolyline
 90
65
 70
0
 10
-9.875102459016393
 20
-0.7157704918032797
 10
-9.873847809150568
 20
-0.7334734608071765
 10
-9.872561321821367
 20
-0.7511736567763041
 10
-9.871243001906597
 20
-0.7688710382492827
 10
-9.869892854284066
 20
-0.7865655637647296
 10
-9.868510883831584
 20
-0.8042571918612651
 10
-9.867097095426965
 20
-0.821945881077502
 10
-9.865651493948013
 20
-0.8396315899520624
 10
-9.86417408427254
 20
-0.8573142770235642
 10
-9.862664871278355
 20
-0.8749939008306297
 10
-9.86112385984327
 20
-0.8926704199118692
 10
-9.85955105484509
 20
-0.9103437928059076
 10
-9.857946461161628
 20
-0.9280139780513578
 10
-9.856310083670694
 20
-0.9456809341868421
 10
-9.854641927250096
 20
-0.9633446197509756
 10
-9.852941996777643
 20
-0.9810049932823808
 10
-9.851210297131148
 20
-0.998662013319673
 10
-9.849446833188416
 20
-1.0163156384014698
 10
-9.84765160982726
 20
-1.0339658270663885
 10
-9.845824631925488
 20
-1.051612537853054
 10
-9.84396590436091
 20
-1.0692557293000748
 10
-9.842075432011338
 20
-1.08689535994608
 10
-9.840153219754578
 20
-1.1045313883296777
 10
-9.83819927246844
 20
-1.1221637729894904
 10
-9.836213595030737
 20
-1.1397924724641402
 10
-9.834196192319276
 20
-1.157417445292238
 10
-9.832147069211866
 20
-1.1750386500124081
 10
-9.830066230586317
 20
-1.1926560451632637
 10
-9.82795368132044
 20
-1.210269589283427
 10
-9.825809426292043
 20
-1.2278792409115133
 10
-9.823633470378939
 20
-1.245484958586145
 10
-9.821425818458932
 20
-1.2630867008459372
 10
-9.819186475409834
 20
-1.2806844262295074
 10
-9.816915446109459
 20
-1.298278093275476
 10
-9.814612735435611
 20
-1.3158676605224602
 10
-9.8122783482661
 20
-1.333453086509078
 10
-9.80991228947874
 20
-1.3510343297739489
 10
-9.807514563951335
 20
-1.3686113488556908
 10
-9.805085176561699
 20
-1.3861841022929213
 10
-9.80262413218764
 20
-1.4037525486242557
 10
-9.800131435706966
 20
-1.4213166463883184
 10
-9.79760709199749
 20
-1.438876354123725
 10
-9.795051105937018
 20
-1.4564316303690907
 10
-9.792463482403363
 20
-1.4739824336630403
 10
-9.789844226274333
 20
-1.491528722544184
 10
-9.787193342427738
 20
-1.5090704555511465
 10
-9.784510835741386
 20
-1.5266075912225434
 10
-9.78179671109309
 20
-1.544140088096992
 10
-9.779050973360654
 20
-1.5616679047131148
 10
-9.776273627421894
 20
-1.5791909996095246
 10
-9.773464678154616
 20
-1.5967093313248437
 10
-9.77062413043663
 20
-1.6142228583976852
 10
-9.767751989145745
 20
-1.6317315393666736
 10
-9.764848259159775
 20
-1.6492353327704243
 10
-9.761912945356524
 20
-1.6667341971475549
 10
-9.758946052613805
 20
-1.6842280910366876
 10
-9.755947585809425
 20
-1.7017169729764352
 10
-9.752917549821197
 20
-1.7192008015054157
 10
-9.749855949526927
 20
-1.736679535162251
 10
-9.746762789804427
 20
-1.754153132485559
 10
-9.743638075531505
 20
-1.7716215520139598
 10
-9.740481811585973
 20
-1.7890847522860658
 10
-9.737294002845639
 20
-1.8065426918404996
 10
-9.734074654188312
 20
-1.8239953292158768
 10
-9.730823770491803
 20
-1.8414426229508192
  0
ENDSEC
  0
SECTION
  2
OBJECTS
  0
DICTIONARY
  5
A
330
0
100
AcDbDictionary
281
1
  3
ACAD_COLOR
350
B
  3
ACAD_GROUP
350
C
  3
ACAD_LAYOUT
350
D
  3
ACAD_MATERIAL
350
E
  3
ACAD_MLEADERSTYLE
350
F
  3
ACAD_MLINESTYLE
350
10
  3
ACAD_PLOTSETTINGS
350
11
  3
ACAD_PLOTSTYLENAME
350
12
  3
ACAD_SCALELIST
350
14
  3
ACAD_TABLESTYLE
350
15
  3
ACAD_VISUALSTYLE
350
16
  3
EZDXF_META
350
2D
  0
DICTIONARY
  5
B
330
A
100
AcDbDictionary
281
1
  0
DICTIONARY
  5
C
330
A
100
AcDbDictionary
281
1
  0
DICTIONARY
  5
D
330
A
100
AcDbDictionary
281
1
  3
Model
350
1A
  3
Layout1
350
1E
  0
DICTIONARY
  5
E
330
A
100
AcDbDictionary
281
1
  3
ByBlock
350
1F
  3
ByLayer
350
20
  3
Global
350
21
  0
DICTIONARY
  5
F
330
A
100
AcDbDictionary
281
1
  3
Standard
350
2C
  0
DICTIONARY
  5
10
330
A
100
AcDbDictionary
281
1
  3
Standard
350
22
  0
DICTIONARY
  5
11
330
A
100
AcDbDictionary
281
1
  0
ACDBDICTIONARYWDFLT
  5
12
330
A
100
AcDbDictionary
281
1
  3
Normal
350
13
100
AcDbDictionaryWithDefault
340
13
  0
ACDBPLACEHOLDER
  5
13
330
12
  0
DICTIONARY
  5
14
330
A
100
AcDbDictionary
281
1
  0
DICTIONARY
  5
15
330
A
100
AcDbDictionary
281
1
  0
DICTIONARY
  5
16
330
A
100
AcDbDictionary
281
1
  0
LAYOUT
  5
1A
330
D
100
AcDbPlotSettings
  1

  4
A3
  6

 40
7.5
 41
20.0
 42
7.5
 43
20.0
 44
420.0
 45
297.0
 46
0.0
 47
0.0
 48
0.0
 49
0.0
140
0.0
141
0.0
142
1.0
143
1.0
 70
1024
 72
1
 73
0
 74
5
  7

 75
16
 76
0
 77
2
 78
300
147
1.0
148
0.0
149
0.0
100
AcDbLayout
  1
Model
 70
1
 71
0
 10
0.0
 20
0.0
 11
420.0
 21
297.0
 12
0.0
 22
0.0
 32
0.0
 14
1e+20
 24
1e+20
 34
1e+20
 15
-1e+20
 25
-1e+20
 35
-1e+20
146
0.0
 13
0.0
 23
0.0
 33
0.0
 16
1.0
 26
0.0
 36
0.0
 17
0.0
 27
1.0
 37
0.0
 76
1
330
17
  0
LAYOUT
  5
1E
330
D
100
AcDbPlotSettings
  1

  4
A3
  6

 40
7.5
 41
20.0
 42
7.5
 43
20.0
 44
420.0
 45
297.0
 46
0.0
 47
0.0
 48
0.0
 49
0.0
140
0.0
141
0.0
142
1.0
143
1.0
 70
0
 72
1
 73
0
 74
5
  7

 75
16
 76
0
 77
2
 78
300
147
1.0
148
0.0
149
0.0
100
AcDbLayout
  1
Layout1
 70
1
 71
1
 10
0.0
 20
0.0
 11
420.0
 21
297.0
 12
0.0
 22
0.0
 32
0.0
 14
1e+20
 24
1e+20
 34
1e+20
 15
-1e+20
 25
-1e+20
 35
-1e+20
146
0.0
 13
0.0
 23
0.0
 33
0.0
 16
1.0
 26
0.0
 36
0.0
 17
0.0
 27
1.0
 37
0.0
 76
1
330
1B
  0
MATERIAL
  5
1F
102
{ACAD_REACTORS
330
E
102
}
330
E
100
AcDbMaterial
  1
ByBlock
  2

 70
0
 40
1.0
 71
1
 41
1.0
 91
-1023410177
 42
1.0
 72
1
  3

 73
1
 74
1
 75
1
 44
0.5
 73
0
 45
1.0
 46
1.0
 77
1
  4

 78
1
 79
1
170
1
 48
1.0
171
1
  6

172
1
173
1
174
1
140
1.0
141
1.0
175
1
  7

176
1
177
1
178
1
143
1.0
179
1
  8

270
1
271
1
272
1
145
1.0
146
1.0
273
1
  9

274
1
275
1
276
1
 42
1.0
 72
1
  3

 73
1
 74
1
 75
1
 94
63
  0
MATERIAL
  5
20
102
{ACAD_REACTORS
330
E
102
}
330
E
100
AcDbMaterial
  1
ByLayer
  2

 70
0
 40
1.0
 71
1
 41
1.0
 91
-1023410177
 42
1.0
 72
1
  3

 73
1
 74
1
 75
1
 44
0.5
 73
0
 45
1.0
 46
1.0
 77
1
  4

 78
1
 79
1
170
1
 48
1.0
171
1
  6

172
1
173
1
174
1
140
1.0
141
1.0
175
1
  7

176
1
177
1
178
1
143
1.0
179
1
  8

270
1
271
1
272
1
145
1.0
146
1.0
273
1
  9

274
1
275
1
276
1
 42
1.0
 72
1
  3

 73
1
 74
1
 75
1
 94
63
  0
MATERIAL
  5
21
102
{ACAD_REACTORS
330
E
102
}
330
E
100
AcDbMaterial
  1
Global
  2

 70
0
 40
1.0
 71
1
 41
1.0
 91
-1023410177
 42
1.0
 72
1
  3

 73
1
 74
1
 75
1
 44
0.5
 73
0
 45
1.0
 46
1.0
 77
1
  4

 78
1
 79
1
170
1
 48
1.0
171
1
  6

172
1
173
1
174
1
140
1.0
141
1.0
175
1
  7

176
1
177
1
178
1
143
1.0
179
1
  8

270
1
271
1
272
1
145
1.0
146
1.0
273
1
  9

274
1
275
1
276
1
 42
1.0
 72
1
  3

 73
1
 74
1
 75
1
 94
63
  0
MLINESTYLE
  5
22
102
{ACAD_REACTORS
330
10
102
}
330
10
100
AcDbMlineStyle
  2
Standard
 70
0
  3

 62
256
 51
90.0
 52
90.0
 71
2
 49
0.5
 62
256
  6
BYLAYER
 49
-0.5
 62
256
  6
BYLAYER
  0
MLEADERSTYLE
  5
2C
102
{ACAD_REACTORS
330
F
102
}
330
F
100
AcDbMLeaderStyle
179
2
170
2
171
1
172
0
 90
2
 40
0.0
 41
0.0
173
1
 91
-1056964608
 92
-2
290
1
 42
2.0
291
1
 43
8.0
  3
Standard
 44
4.0
300

342
29
174
1
175
1
176
0
178
1
 93
-1056964608
 45
4.0
292
0
297
0
 46
4.0
 94
-1056964608
 47
1.0
 49
1.0
140
1.0
294
1
141
0.0
177
0
142
1.0
295
0
296
0
143
3.75
271
0
272
9
273
9
  0
DICTIONARY
  5
2D
330
A
100
AcDbDictionary
280
1
281
1
  3
CREATED_BY_EZDXF
350
2E
  3
WRITTEN_BY_EZDXF
350
50
  0
DICTIONARYVAR
  5
2E
330
2D
100
DictionaryVariables
280
0
  1
1.4.3 @ 2026-05-01T15:52:42.314315+00:00
  0
DICTIONARYVAR
  5
50
330
2D
100
DictionaryVariables
280
0
  1
1.4.3 @ 2026-05-01T15:52:42.322783+00:00
  0
ENDSEC
  0
EOF
