  0
SECTION
  2
HEADER
  9
$ACADVER
  1
AC1024
  9
$ACADMAINTVER
 70
6
  9
$DWGCODEPAGE
  3
ANSI_1252
  9
$LASTSAVEDBY
  1
ezdxf
  9
$INSBASE
 10
0.0
 20
0.0
 30
0.0
  9
$EXTMIN
 10
1e+20
 20
1e+20
 30
1e+20
  9
$EXTMAX
 10
-1e+20
 20
-1e+20
 30
-1e+20
  9
$LIMMIN
 10
0.0
 20
0.0
  9
$LIMMAX
 10
420.0
 20
297.0
  9
$ORTHOMODE
 70
0
  9
$REGENMODE
 70
1
  9
$FILLMODE
 70
1
  9
$QTEXTMODE
 70
0
  9
$MIRRTEXT
 70
1
  9
$LTSCALE
 40
1.0
  9
$ATTMODE
 70
1
  9
$TEXTSIZE
 40
2.5
  9
$TRACEWID
 40
1.0
  9
$TEXTSTYLE
  7
Standard
  9
$CLAYER
  8
0
  9
$CELTYPE
  6
ByLayer
  9
$CECOLOR
 62
256
  9
$CELTSCALE
 40
1.0
  9
$DISPSILH
 70
0
  9
$DIMSCALE
 40
1.0
  9
$DIMASZ
 40
2.5
  9
$DIMEXO
 40
0.625
  9
$DIMDLI
 40
3.75
  9
$DIMRND
 40
0.0
  9
$DIMDLE
 40
0.0
  9
$DIMEXE
 40
1.25
  9
$DIMTP
 40
0.0
  9
$DIMTM
 40
0.0
  9
$DIMTXT
 40
2.5
  9
$DIMCEN
 40
2.5
  9
$DIMTSZ
 40
0.0
  9
$DIMTOL
 70
0
  9
$DIMLIM
 70
0
  9
$DIMTIH
 70
0
  9
$DIMTOH
 70
0
  9
$DIMSE1
 70
0
  9
$DIMSE2
 70
0
  9
$DIMTAD
 70
1
  9
$DIMZIN
 70
8
  9
$DIMBLK
  1

  9
$DIMASO
 70
1
  9
$DIMSHO
 70
1
  9
$DIMPOST
  1

  9
$DIMAPOST
  1

  9
$DIMALT
 70
0
  9
$DIMALTD
 70
3
  9
$DIMALTF
 40
0.03937007874
  9
$DIMLFAC
 40
1.0
  9
$DIMTOFL
 70
1
  9
$DIMTVP
 40
0.0
  9
$DIMTIX
 70
0
  9
$DIMSOXD
 70
0
  9
$DIMSAH
 70
0
  9
$DIMBLK1
  1

  9
$DIMBLK2
  1

  9
$DIMSTYLE
  2
ISO-25
  9
$DIMCLRD
 70
0
  9
$DIMCLRE
 70
0
  9
$DIMCLRT
 70
0
  9
$DIMTFAC
 40
1.0
  9
$DIMGAP
 40
0.625
  9
$DIMJUST
 70
0
  9
$DIMSD1
 70
0
  9
$DIMSD2
 70
0
  9
$DIMTOLJ
 70
0
  9
$DIMTZIN
 70
8
  9
$DIMALTZ
 70
0
  9
$DIMALTTZ
 70
0
  9
$DIMUPT
 70
0
  9
$DIMDEC
 70
2
  9
$DIMTDEC
 70
2
  9
$DIMALTU
 70
2
  9
$DIMALTTD
 70
3
  9
$DIMTXSTY
  7
Standard
  9
$DIMAUNIT
 70
0
  9
$DIMADEC
 70
0
  9
$DIMALTRND
 40
0.0
  9
$DIMAZIN
 70
0
  9
$DIMDSEP
 70
44
  9
$DIMATFIT
 70
3
  9
$DIMFRAC
 70
0
  9
$DIMLDRBLK
  1

  9
$DIMLUNIT
 70
2
  9
$DIMLWD
 70
-2
  9
$DIMLWE
 70
-2
  9
$DIMTMOVE
 70
0
  9
$DIMFXL
 40
1.0
  9
$DIMFXLON
 70
0
  9
$DIMJOGANG
 40
0.785398163397
  9
$DIMTFILL
 70
0
  9
$DIMTFILLCLR
 70
0
  9
$DIMARCSYM
 70
0
  9
$DIMLTYPE
  6

  9
$DIMLTEX1
  6

  9
$DIMLTEX2
  6

  9
$DIMTXTDIRECTION
 70
0
  9
$LUNITS
 70
2
  9
$LUPREC
 70
4
  9
$SKETCHINC
 40
1.0
  9
$FILLETRAD
 40
10.0
  9
$AUNITS
 70
0
  9
$AUPREC
 70
2
  9
$MENU
  1
.
  9
$ELEVATION
 40
0.0
  9
$PELEVATION
 40
0.0
  9
$THICKNESS
 40
0.0
  9
$LIMCHECK
 70
0
  9
$CHAMFERA
 40
0.0
  9
$CHAMFERB
 40
0.0
  9
$CHAMFERC
 40
0.0
  9
$CHAMFERD
 40
0.0
  9
$SKPOLY
 70
0
  9
$TDCREATE
 40
2461162.7449305556
  9
$TDUCREATE
 40
2458532.153996898
  9
$TDUPDATE
 40
2461162.7449305556
  9
$TDUUPDATE
 40
2458532.1544311
  9
$TDINDWG
 40
0.0
  9
$TDUSRTIMER
 40
0.0
  9
$USRTIMER
 70
1
  9
$ANGBASE
 50
0.0
  9
$ANGDIR
 70
0
  9
$PDMODE
 70
0
  9
$PDSIZE
 40
0.0
  9
$PLINEWID
 40
0.0
  9
$SPLFRAME
 70
0
  9
$SPLINETYPE
 70
6
  9
$SPLINESEGS
 70
8
  9
$HANDSEED
  5
51
  9
$SURFTAB1
 70
6
  9
$SURFTAB2
 70
6
  9
$SURFTYPE
 70
6
  9
$SURFU
 70
6
  9
$SURFV
 70
6
  9
$UCSBASE
  2

  9
$UCSNAME
  2

  9
$UCSORG
 10
0.0
 20
0.0
 30
0.0
  9
$UCSXDIR
 10
1.0
 20
0.0
 30
0.0
  9
$UCSYDIR
 10
0.0
 20
1.0
 30
0.0
  9
$UCSORTHOREF
  2

  9
$UCSORTHOVIEW
 70
0
  9
$UCSORGTOP
 10
0.0
 20
0.0
 30
0.0
  9
$UCSORGBOTTOM
 10
0.0
 20
0.0
 30
0.0
  9
$UCSORGLEFT
 10
0.0
 20
0.0
 30
0.0
  9
$UCSORGRIGHT
 10
0.0
 20
0.0
 30
0.0
  9
$UCSORGFRONT
 10
0.0
 20
0.0
 30
0.0
  9
$UCSORGBACK
 10
0.0
 20
0.0
 30
0.0
  9
$PUCSBASE
  2

  9
$PUCSNAME
  2

  9
$PUCSORG
 10
0.0
 20
0.0
 30
0.0
  9
$PUCSXDIR
 10
1.0
 20
0.0
 30
0.0
  9
$PUCSYDIR
 10
0.0
 20
1.0
 30
0.0
  9
$PUCSORTHOREF
  2

  9
$PUCSORTHOVIEW
 70
0
  9
$PUCSORGTOP
 10
0.0
 20
0.0
 30
0.0
  9
$PUCSORGBOTTOM
 10
0.0
 20
0.0
 30
0.0
  9
$PUCSORGLEFT
 10
0.0
 20
0.0
 30
0.0
  9
$PUCSORGRIGHT
 10
0.0
 20
0.0
 30
0.0
  9
$PUCSORGFRONT
 10
0.0
 20
0.0
 30
0.0
  9
$PUCSORGBACK
 10
0.0
 20
0.0
 30
0.0
  9
$USERI1
 70
0
  9
$USERI2
 70
0
  9
$USERI3
 70
0
  9
$USERI4
 70
0
  9
$USERI5
 70
0
  9
$USERR1
 40
0.0
  9
$USERR2
 40
0.0
  9
$USERR3
 40
0.0
  9
$USERR4
 40
0.0
  9
$USERR5
 40
0.0
  9
$WORLDVIEW
 70
1
  9
$SHADEDGE
 70
3
  9
$SHADEDIF
 70
70
  9
$TILEMODE
 70
1
  9
$MAXACTVP
 70
64
  9
$PINSBASE
 10
0.0
 20
0.0
 30
0.0
  9
$PLIMCHECK
 70
0
  9
$PEXTMIN
 10
1e+20
 20
1e+20
 30
1e+20
  9
$PEXTMAX
 10
-1e+20
 20
-1e+20
 30
-1e+20
  9
$PLIMMIN
 10
0.0
 20
0.0
  9
$PLIMMAX
 10
420.0
 20
297.0
  9
$UNITMODE
 70
0
  9
$VISRETAIN
 70
1
  9
$PLINEGEN
 70
0
  9
$PSLTSCALE
 70
1
  9
$TREEDEPTH
 70
3020
  9
$CMLSTYLE
  2
Standard
  9
$CMLJUST
 70
0
  9
$CMLSCALE
 40
20.0
  9
$PROXYGRAPHICS
 70
1
  9
$MEASUREMENT
 70
1
  9
$CELWEIGHT
370
-1
  9
$ENDCAPS
280
0
  9
$JOINSTYLE
280
0
  9
$LWDISPLAY
290
0
  9
$INSUNITS
 70
4
  9
$HYPERLINKBASE
  1

  9
$STYLESHEET
  1

  9
$XEDIT
290
1
  9
$CEPSNTYPE
380
0
  9
$PSTYLEMODE
290
1
  9
$FINGERPRINTGUID
  2
{3EF22D5F-B5BE-4379-96FF-41F8F6A4BF1A}
  9
$VERSIONGUID
  2
{B5F2D0E8-234B-4573-A717-CA503A20E0B7}
  9
$EXTNAMES
290
1
  9
$PSVPSCALE
 40
0.0
  9
$OLESTARTUP
290
0
  9
$SORTENTS
280
127
  9
$INDEXCTL
280
0
  9
$HIDETEXT
280
1
  9
$XCLIPFRAME
280
1
  9
$HALOGAP
280
0
  9
$OBSCOLOR
 70
257
  9
$OBSLTYPE
280
0
  9
$INTERSECTIONDISPLAY
280
0
  9
$INTERSECTIONCOLOR
 70
257
  9
$DIMASSOC
280
2
  9
$PROJECTNAME
  1

  9
$CAMERADISPLAY
290
0
  9
$LENSLENGTH
 40
50.0
  9
$CAMERAHEIGHT
 40
0.0
  9
$STEPSPERSEC
 40
24.0
  9
$STEPSIZE
 40
100.0
  9
$3DDWFPREC
 40
2.0
  9
$PSOLWIDTH
 40
0.005
  9
$PSOLHEIGHT
 40
0.08
  9
$LOFTANG1
 40
1.570796326795
  9
$LOFTANG2
 40
1.570796326795
  9
$LOFTMAG1
 40
0.0
  9
$LOFTMAG2
 40
0.0
  9
$LOFTPARAM
 70
7
  9
$LOFTNORMALS
280
1
  9
$LATITUDE
 40
37.795
  9
$LONGITUDE
 40
-122.394
  9
$NORTHDIRECTION
 40
0.0
  9
$TIMEZONE
 70
-8000
  9
$LIGHTGLYPHDISPLAY
280
1
  9
$TILEMODELIGHTSYNCH
280
1
  9
$CMATERIAL
347
20
  9
$SOLIDHIST
280
0
  9
$SHOWHIST
280
1
  9
$DWFFRAME
280
2
  9
$DGNFRAME
280
2
  9
$REALWORLDSCALE
290
1
  9
$INTERFERECOLOR
 62
256
  9
$CSHADOW
280
0
  9
$SHADOWPLANELOCATION
 40
0.0
  0
ENDSEC
  0
SECTION
  2
CLASSES
  0
CLASS
  1
ACDBDICTIONARYWDFLT
  2
AcDbDictionaryWithDefault
  3
ObjectDBX Classes
 90
0
 91
0
280
0
281
0
  0
CLASS
  1
SUN
  2
AcDbSun
  3
SCENEOE
 90
1153
 91
0
280
0
281
0
  0
CLASS
  1
VISUALSTYLE
  2
AcDbVisualStyle
  3
ObjectDBX Classes
 90
4095
 91
0
280
0
281
0
  0
CLASS
  1
MATERIAL
  2
AcDbMaterial
  3
ObjectDBX Classes
 90
1153
 91
0
280
0
281
0
  0
CLASS
  1
SCALE
  2
AcDbScale
  3
ObjectDBX Classes
 90
1153
 91
0
280
0
281
0
  0
CLASS
  1
TABLESTYLE
  2
AcDbTableStyle
  3
ObjectDBX Classes
 90
4095
 91
0
280
0
281
0
  0
CLASS
  1
MLEADERSTYLE
  2
AcDbMLeaderStyle
  3
ACDB_MLEADERSTYLE_CLASS
 90
4095
 91
0
280
0
281
0
  0
CLASS
  1
DICTIONARYVAR
  2
AcDbDictionaryVar
  3
ObjectDBX Classes
 90
0
 91
0
280
0
281
0
  0
CLASS
  1
CELLSTYLEMAP
  2
AcDbCellStyleMap
  3
ObjectDBX Classes
 90
1152
 91
0
280
0
281
0
  0
CLASS
  1
MENTALRAYRENDERSETTINGS
  2
AcDbMentalRayRenderSettings
  3
SCENEOE
 90
1024
 91
0
280
0
281
0
  0
CLASS
  1
ACDBDETAILVIEWSTYLE
  2
AcDbDetailViewStyle
  3
ObjectDBX Classes
 90
1025
 91
0
280
0
281
0
  0
CLASS
  1
ACDBSECTIONVIEWSTYLE
  2
AcDbSectionViewStyle
  3
ObjectDBX Classes
 90
1025
 91
0
280
0
281
0
  0
CLASS
  1
RASTERVARIABLES
  2
AcDbRasterVariables
  3
ISM
 90
0
 91
0
280
0
281
0
  0
CLASS
  1
ACDBPLACEHOLDER
  2
AcDbPlaceHolder
  3
ObjectDBX Classes
 90
0
 91
0
280
0
281
0
  0
CLASS
  1
LAYOUT
  2
AcDbLayout
  3
ObjectDBX Classes
 90
0
 91
0
280
0
281
0
  0
ENDSEC
  0
SECTION
  2
TABLES
  0
TABLE
  2
VPORT
  5
8
330
0
100
AcDbSymbolTable
 70
1
  0
VPORT
  5
23
330
8
100
AcDbSymbolTableRecord
100
AcDbViewportTableRecord
  2
*Active
 70
0
 10
0.0
 20
0.0
 11
1.0
 21
1.0
 12
0.0
 22
0.0
 13
0.0
 23
0.0
 14
0.5
 24
0.5
 15
0.5
 25
0.5
 16
0.0
 26
0.0
 36
1.0
 17
0.0
 27
0.0
 37
0.0
 40
1000.0
 41
1.34
 42
50.0
 43
0.0
 44
0.0
 50
0.0
 51
0.0
 71
0
 72
1000
 73
1
 74
3
 75
0
 76
0
 77
0
 78
0
281
0
 65
0
146
0.0
  0
ENDTAB
  0
TABLE
  2
LTYPE
  5
2
330
0
100
AcDbSymbolTable
 70
3
  0
LTYPE
  5
24
330
2
100
AcDbSymbolTableRecord
100
AcDbLinetypeTableRecord
  2
ByBlock
 70
0
  3

 72
65
 73
0
 40
0.0
  0
LTYPE
  5
25
330
2
100
AcDbSymbolTableRecord
100
AcDbLinetypeTableRecord
  2
ByLayer
 70
0
  3

 72
65
 73
0
 40
0.0
  0
LTYPE
  5
26
330
2
100
AcDbSymbolTableRecord
100
AcDbLinetypeTableRecord
  2
Continuous
 70
0
  3

 72
65
 73
0
 40
0.0
  0
ENDTAB
  0
TABLE
  2
LAYER
  5
1
330
0
100
AcDbSymbolTable
 70
2
  0
LAYER
  5
27
330
1
100
AcDbSymbolTableRecord
100
AcDbLayerTableRecord
  2
0
 70
0
 62
7
  6
Continuous
370
-3
390
13
347
21
  0
LAYER
  5
28
330
1
100
AcDbSymbolTableRecord
100
AcDbLayerTableRecord
  2
Defpoints
 70
0
 62
7
  6
Continuous
290
0
370
-3
390
13
347
21
  0
ENDTAB
  0
TABLE
  2
STYLE
  5
5
330
0
100
AcDbSymbolTable
 70
1
  0
STYLE
  5
29
330
5
100
AcDbSymbolTableRecord
100
AcDbTextStyleTableRecord
  2
Standard
 70
0
 40
0.0
 41
1.0
 50
0.0
 71
0
 42
2.5
  3
txt
  4

  0
ENDTAB
  0
TABLE
  2
VIEW
  5
7
330
0
100
AcDbSymbolTable
 70
0
  0
ENDTAB
  0
TABLE
  2
UCS
  5
6
330
0
100
AcDbSymbolTable
 70
0
  0
ENDTAB
  0
TABLE
  2
APPID
  5
3
330
0
100
AcDbSymbolTable
 70
3
  0
APPID
  5
2A
330
3
100
AcDbSymbolTableRecord
100
AcDbRegAppTableRecord
  2
ACAD
 70
0
  0
APPID
  5
4E
330
3
100
AcDbSymbolTableRecord
100
AcDbRegAppTableRecord
  2
HATCHBACKGROUNDCOLOR
 70
0
  0
APPID
  5
4F
330
3
100
AcDbSymbolTableRecord
100
AcDbRegAppTableRecord
  2
EZDXF
 70
0
  0
ENDTAB
  0
TABLE
  2
DIMSTYLE
  5
4
330
0
100
AcDbSymbolTable
 70
1
100
AcDbDimStyleTable
  0
DIMSTYLE
105
2B
330
4
100
AcDbSymbolTableRecord
100
AcDbDimStyleTableRecord
  2
Standard
 70
0
 40
1.0
 41
2.5
 42
0.625
 43
3.75
 44
1.25
 45
0.0
 46
0.0
 47
0.0
 48
0.0
 49
2.5
140
2.5
141
2.5
142
0.0
143
0.03937007874
144
1.0
145
0.0
146
1.0
147
0.625
148
0.0
 69
0
 70
0
 71
0
 72
0
 73
0
 74
0
 75
0
 76
0
 77
1
 78
8
 79
3
170
0
171
3
172
1
173
0
174
0
175
0
176
0
177
0
178
0
179
2
271
2
272
2
273
2
274
3
275
0
276
0
277
2
278
44
279
0
280
0
281
0
282
0
283
0
284
8
285
0
286
0
288
0
289
3
290
0
371
-2
372
-2
  0
ENDTAB
  0
TABLE
  2
BLOCK_RECORD
  5
9
330
0
100
AcDbSymbolTable
 70
2
  0
BLOCK_RECORD
  5
17
330
9
100
AcDbSymbolTableRecord
100
AcDbBlockTableRecord
  2
*Model_Space
340
1A
 70
0
280
1
281
0
  0
BLOCK_RECORD
  5
1B
330
9
100
AcDbSymbolTableRecord
100
AcDbBlockTableRecord
  2
*Paper_Space
340
1E
 70
0
280
1
281
0
  0
ENDTAB
  0
ENDSEC
  0
SECTION
  2
BLOCKS
  0
BLOCK
  5
18
330
17
100
AcDbEntity
  8
0
100
AcDbBlockBegin
  2
*Model_Space
 70
0
 10
0.0
 20
0.0
 30
0.0
  3
*Model_Space
  1

  0
ENDBLK
  5
19
330
17
100
AcDbEntity
  8
0
100
AcDbBlockEnd
  0
BLOCK
  5
1C
330
1B
100
AcDbEntity
  8
0
100
AcDbBlockBegin
  2
*Paper_Space
 70
0
 10
0.0
 20
0.0
 30
0.0
  3
*Paper_Space
  1

  0
ENDBLK
  5
1D
330
1B
100
AcDbEntity
  8
0
100
AcDbBlockEnd
  0
ENDSEC
  0
SECTION
  2
ENTITIES
  0
LWPOLYLINE
  5
2F
330
17
100
AcDbEntity
  8
0
100
AcDbPolyline
 90
4
 70
1
 10
-5.5
 20
5.409836065573771
 10
5.5
 20
5.409836065573771
 10
5.5
 20
-5.409836065573771
 10
-5.5
 20
-5.409836065573771
  0
LWPOLYLINE
  5
30
330
17
100
AcDbEntity
  8
0
100
AcDbPolyline
 90
389
 70
0
 10
4.198032786885247
 20
4.675901639344264
 10
2.6893359016393443
 20
4.675901639344264
 10
2.6382956357536944
 20
4.675255755573336
 10
2.5875737790367244
 20
4.673328458777258
 10
2.5371858638000484
 20
4.670135280731078
 10
2.487147422355276
 20
4.665691753209851
 10
2.4374739870140205
 20
4.660013407988628
 10
2.388181090087891
 20
4.653115776842463
 10
2.3392842638885005
 20
4.6450143915464075
 10
2.290799040727458
 20
4.635724783875514
 10
2.24274095291638
 20
4.625262485604835
 10
2.195125532766874
 20
4.613643028509423
 10
2.1479683125905518
 20
4.60088194436433
 10
2.1012848246990266
 20
4.58699476494461
 10
2.0550906014039083
 20
4.571997022025313
 10
2.0094011750168095
 20
4.555904247381493
 10
1.9642320778493418
 20
4.538731972788202
 10
1.9195988422131147
 20
4.520495730020493
 10
1.8755170004197417
 20
4.501211050853419
 10
1.8320020847808336
 20
4.480893467062029
 10
1.789069627608002
 20
4.459558510421379
 10
1.746735161212858
 20
4.4372217127065205
 10
1.705014217907014
 20
4.413898605692506
 10
1.6639223300020802
 20
4.389604721154386
 10
1.6234750298096698
 20
4.364355590867216
 10
1.583687849641393
 20
4.3381667466060465
 10
1.5445763218088635
 20
4.311053720145931
 10
1.5061559786236869
 20
4.283032043261921
 10
1.4684423523974808
 20
4.254117247729069
 10
1.4314509754418545
 20
4.224324865322427
 10
1.3951973800684203
 20
4.193670427817049
 10
1.359697098588787
 20
4.162169466987987
 10
1.3249656633145688
 20
4.129837514610292
 10
1.2910186065573772
 20
4.096690102459018
 10
1.2578714606288233
 20
4.062742762309217
 10
1.2255397578405158
 20
4.028011025935941
 10
1.1940390305040702
 20
3.9925104251142423
 10
1.163384810931096
 20
3.9562564916191745
 10
1.133592631433206
 20
3.9192647572257884
 10
1.1046780243220107
 20
3.881550753709138
 10
1.0766565219091195
 20
3.843130012844275
 10
1.0495436565061476
 20
3.8040180664062517
 10
1.0233549604247036
 20
3.7642304461701204
 10
0.9981059659764028
 20
3.723782683910934
 10
0.973812205472853
 20
3.682690311403745
 10
0.950489211225667
 20
3.6409688604236052
 10
0.9281525155464548
 20
3.5986338627455674
 10
0.9068176507468294
 20
3.5557008501446847
 10
0.8865001491384037
 20
3.512185354396008
 10
0.8672155430327877
 20
3.468102907274591
 10
0.8489793647415921
 20
3.423469040555486
 10
0.831807146576427
 20
3.378299286013745
 10
0.8157144208489082
 20
3.3326091754244205
 10
0.8007167198706449
 20
3.286414240562565
 10
0.7868295759532498
 20
3.2397300132032307
 10
0.7740685214083317
 20
3.1925720251214713
 10
0.7624490885475028
 20
3.144955808092337
 10
0.751986809682377
 20
3.096896893890882
 10
0.742697217124563
 20
3.0484108142921578
 10
0.734595843185675
 20
2.9995131010712175
 10
0.7276982201773217
 20
2.9502192860031133
 10
0.7220198804111162
 20
2.9005449008628976
 10
0.7175763561986703
 20
2.8505054774256227
 10
0.7143831798515939
 20
2.8001165474663408
 10
0.7124558836815001
 20
2.749393642760105
 10
0.7118099999999998
 20
2.698352295081967
 10
0.7124558836815001
 20
2.6473120291963173
 10
0.7143831798515939
 20
2.5965901724793485
 10
0.7175763561986703
 20
2.5462022572426717
 10
0.7220198804111172
 20
2.4961638157978996
 10
0.7276982201773217
 20
2.446490380456644
 10
0.734595843185674
 20
2.397197483530513
 10
0.742697217124564
 20
2.3483006573311225
 10
0.751986809682377
 20
2.299815434170082
 10
0.7624490885475028
 20
2.251757346359003
 10
0.7740685214083317
 20
2.204141926209497
 10
0.7868295759532498
 20
2.1569847060331746
 10
0.8007167198706449
 20
2.11030121814165
 10
0.8157144208489093
 20
2.064106994846532
 10
0.831807146576428
 20
2.0184175684594328
 10
0.8489793647415911
 20
1.9732484712919642
 10
0.8672155430327877
 20
1.9286152356557378
 10
0.8865001491384037
 20
1.8845333938623652
 10
0.9068176507468294
 20
1.8410184782234564
 10
0.9281525155464548
 20
1.798086021050625
 10
0.950489211225667
 20
1.7557515546554812
 10
0.973812205472853
 20
1.714030611349638
 10
0.9981059659764028
 20
1.6729387234447053
 10
1.0233549604247036
 20
1.6324914232522933
 10
1.0495436565061476
 20
1.592704243084017
 10
1.0766565219091195
 20
1.5535927152514855
 10
1.1046780243220098
 20
1.5151723720663104
 10
1.133592631433206
 20
1.4774587458401036
 10
1.163384810931097
 20
1.4404673688844776
 10
1.1940390305040702
 20
1.404213773511043
 10
1.2255397578405158
 20
1.3687134920314101
 10
1.2578714606288233
 20
1.3339820567571916
 10
1.2910186065573772
 20
1.300035
 10
1.3249656633145688
 20
1.2668878540714452
 10
1.359697098588787
 20
1.234556151283139
 10
1.3951973800684203
 20
1.203055423946693
 10
1.4314509754418545
 20
1.1724012043737195
 10
1.4684423523974808
 20
1.1426090248758287
 10
1.5061559786236869
 20
1.1136944177646326
 10
1.5445763218088635
 20
1.0856729153517424
 10
1.583687849641393
 20
1.05856004994877
 10
1.623475029809669
 20
1.0323713538673276
 10
1.6639223300020802
 20
1.0071223594190257
 10
1.705014217907014
 20
0.9828285989154759
 10
1.746735161212858
 20
0.9595056046682889
 10
1.789069627608002
 20
0.9371689089890778
 10
1.8320020847808336
 20
0.9158340441894524
 10
1.8755170004197428
 20
0.8955165425810266
 10
1.9195988422131138
 20
0.8762319364754096
 10
1.9642320778493418
 20
0.857995758184214
 10
2.0094011750168095
 20
0.8408235400190509
 10
2.0550906014039083
 20
0.8247308142915312
 10
2.1012848246990266
 20
0.8097331133132678
 10
2.1479683125905518
 20
0.7958459693958722
 10
2.195125532766875
 20
0.7830849148509547
 10
2.24274095291638
 20
0.7714654819901258
 10
2.290799040727458
 20
0.7610032031249999
 10
2.3392842638884996
 20
0.751713610567187
 10
2.388181090087891
 20
0.7436122366282979
 10
2.4374739870140196
 20
0.7367146136199446
 10
2.487147422355276
 20
0.7310362738537391
 10
2.5371858638000484
 20
0.7265927496412933
 10
2.5875737790367253
 20
0.7233995732942169
 10
2.6382956357536944
 20
0.7214722771241231
 10
2.6893359016393443
 20
0.7208263934426228
 10
3.8955291803278698
 20
0.7208029508196727
 10
3.878039206254679
 20
0.8087965021708757
 10
3.8586785195622686
 20
0.8960105099387249
 10
3.8374704868610583
 20
0.9824255759035961
 10
3.8144384747614644
 20
1.0680223018458637
 10
3.7896058498739027
 20
1.1527812895459044
 10
3.7629959788087968
 20
1.2366831407840921
 10
3.7346322281765563
 20
1.3197084573408036
 10
3.7045379645876024
 20
1.4018378409964147
 10
3.672736554652357
 20
1.4830518935312995
 10
3.6392513649812304
 20
1.5633312167258349
 10
3.6041057621846435
 20
1.6426564123603955
 10
3.5673231128730163
 20
1.7210080822153566
 10
3.5289267836567615
 20
1.7983668280710947
 10
3.488940141146301
 20
1.8747132517079852
 10
3.4473865519520497
 20
1.9500279549064021
 10
3.4042893826844276
 20
2.024291539446722
 10
3.3596719999538487
 20
2.0974846071093207
 10
3.3135577703707337
 20
2.1695877596745734
 10
3.2659700605455004
 20
2.2405815989228555
 10
3.2169322370885642
 20
2.310446726634543
 10
3.166467666610344
 20
2.37916374459001
 10
3.114599715721257
 20
2.446713254569633
 10
3.0613517510317196
 20
2.5130758583537878
 10
3.006747139152153
 20
2.5782321577228493
 10
2.9508092466929714
 20
2.642162754457193
 10
2.893561440264593
 20
2.704848250337196
 10
2.8350270864774374
 20
2.7662692471432306
 10
2.7752295519419197
 20
2.826406346655675
 10
2.7141922032684573
 20
2.885240150654903
 10
2.6519384070674707
 20
2.9427512609212916
 10
2.5884915299493767
 20
2.9989202792352154
 10
2.523874938524591
 20
3.0537278073770504
 10
2.458111999403531
 20
3.1071544471271713
 10
2.3912260791966182
 20
3.1591808002659545
 10
2.323240544514265
 20
3.2097874685737753
 10
2.254178761966894
 20
3.258955053831008
 10
2.184064098164919
 20
3.3066641578180302
 10
2.112919919718758
 20
3.352895382315215
 10
2.040769593238831
 20
3.39762932910294
 10
1.9676364853355544
 20
3.440846599961579
 10
1.8935439626193442
 20
3.4825277966715094
 10
1.8185153917006203
 20
3.5226535210131047
 10
1.742574139189799
 20
3.5612043747667417
 10
1.6657435716972993
 20
3.598160959712796
 10
1.5880470558335364
 20
3.6335038776316426
 10
1.509507958208928
 20
3.667213730303656
 10
1.4301496454338958
 20
3.6992711195092136
 10
1.349995484118852
 20
3.72965664702869
 10
1.2690688408742197
 20
3.7583509146424605
 10
1.187393082310411
 20
3.7853345241309007
 10
1.1049915750378467
 20
3.8105880772743865
 10
1.0218876856669437
 20
3.834092175853293
 10
0.9381047808081209
 20
3.8558274216479957
 10
0.8536662270717934
 20
3.8757744164388703
 10
0.7685953910683806
 20
3.893913762006292
 10
0.6829156394083
 20
3.9102260601306367
 10
0.5966503387019674
 20
3.9246919125922797
 10
0.5098228555598022
 20
3.9372919211715964
 10
0.42245655659222203
 20
3.948006687648962
 10
0.33457480840964454
 20
3.956816813804753
 10
0.24620097762248516
 20
3.963702901419344
 10
0.1573584308411646
 20
3.9686455522731108
 10
0.06807053467609941
 20
3.9716253681464293
 10
-0.021639344262294878
 20
3.9726229508196735
 10
-0.1113492062990777
 20
3.9716253851374654
 10
-0.2006370528324304
 20
3.9686456195218462
 10
-0.28947951886161527
 20
3.9637030511193214
 10
-0.3778532393858862
 20
3.9568170770763977
 10
-0.46573484940450666
 20
3.9480070945395815
 10
-0.5531009839167357
 20
3.9372925006553787
 10
-0.6399282779218335
 20
3.924692692570297
 10
-0.7261933664190573
 20
3.910227067430842
 10
-0.8118728844076691
 20
3.8939150223835193
 10
-0.8969434668869268
 20
3.8757759545748365
 10
-0.981381748856091
 20
3.855829261151299
 10
-1.0651643653144214
 20
3.834094339259415
 10
-1.148267951261176
 20
3.810590586045689
 10
-1.2306691416956166
 20
3.7853373986566274
 10
-1.3123445716170015
 20
3.758354174238738
 10
-1.3932708760245907
 20
3.729660309938526
 10
-1.4734246899176429
 20
3.6992752029024984
 10
-1.5527826482954183
 20
3.667218250277161
 10
-1.6313213861571765
 20
3.6335088492090204
 10
-1.709017538502178
 20
3.5981663968445843
 10
-1.7858477403296802
 20
3.5612102903303566
 10
-1.8617886266389443
 20
3.5226599268128456
 10
-1.9368168324292294
 20
3.482534703438557
 10
-2.0109089926997954
 20
3.440854017353997
 10
-2.084041742449901
 20
3.397637265705673
 10
-2.156191716678807
 20
3.3529038456400895
 10
-2.2273355503857726
 20
3.3066731543037546
 10
-2.297449878570056
 20
3.2589645888431753
 10
-2.366511336230919
 20
3.209797546404855
 10
-2.4344965583676195
 20
3.1591914241353027
 10
-2.501382179979418
 20
3.1071656191810244
 10
-2.567144836065574
 20
3.053739528688526
 10
-2.631761161625346
 20
2.9989325498043136
 10
-2.695207791657995
 20
2.9427640796748937
 10
-2.75746136116278
 20
2.8852535154467733
 10
-2.8184985051389604
 20
2.8264202542664587
 10
-2.8782958585857954
 20
2.7662836932804558
 10
-2.936830056502546
 20
2.704863229635271
 10
-2.99407773388847
 20
2.642178260477411
 10
-3.050015525742828
 20
2.578248182953382
 10
-3.1046200670648796
 20
2.513092394209691
 10
-3.157867992853884
 20
2.4467302913928437
 10
-3.2097359381091013
 20
2.3791812716493457
 10
-3.2602005378297902
 20
2.3104647321257055
 10
-3.3092384270152113
 20
2.2406000699684276
 10
-3.3568262406646228
 20
2.1696066823240194
 10
-3.402940613777286
 20
2.097503966338987
 10
-3.4475581813524596
 20
2.0243113191598368
 10
-3.490655578389403
 20
1.950048137933075
 10
-3.5322094398873753
 20
1.8747338198052081
 10
-3.572196400845637
 20
1.7983877619227429
 10
-3.610593096263448
 20
1.7210293614321854
 10
-3.6473761611400666
 20
1.6426780154800422
 10
-3.682522230474754
 20
1.563353121212819
 10
-3.716007939266768
 20
1.4830740757770227
 10
-3.747809922515369
 20
1.40186027631916
 10
-3.7779048152198174
 20
1.3197311199857371
 10
-3.8062692523793706
 20
1.2367060039232605
 10
-3.8328798689932904
 20
1.1528043252782354
 10
-3.8577133000608357
 20
1.0680454811971696
 10
-3.8807461805812653
 20
0.9824488688265689
 10
-3.9019551455538397
 20
0.89603388531294
 10
-3.9213168299778176
 20
0.8088199278027893
 10
-3.9388078688524595
 20
0.7208263934426228
 10
-2.7326145901639345
 20
0.7208263934426228
 10
-2.681574324278284
 20
0.7214722771241242
 10
-2.630852467561316
 20
0.7233995732942169
 10
-2.5804645523246394
 20
0.7265927496412933
 10
-2.530426110879867
 20
0.7310362738537401
 10
-2.4807526755386102
 20
0.7367146136199446
 10
-2.4314597786124805
 20
0.7436122366282979
 10
-2.38256295241309
 20
0.751713610567187
 10
-2.3340777292520487
 20
0.7610032031249999
 10
-2.28601964144097
 20
0.7714654819901258
 10
-2.2384042212914643
 20
0.7830849148509547
 10
-2.1912470011151424
 20
0.7958459693958722
 10
-2.1445635132236167
 20
0.8097331133132678
 10
-2.0983692899284985
 20
0.8247308142915317
 10
-2.0526798635414
 20
0.8408235400190505
 10
-2.0075107663739313
 20
0.857995758184214
 10
-1.962877530737705
 20
0.8762319364754096
 10
-1.918795688944332
 20
0.8955165425810272
 10
-1.8752807733054233
 20
0.9158340441894524
 10
-1.8323483161325924
 20
0.9371689089890778
 10
-1.7900138497374485
 20
0.9595056046682889
 10
-1.7482929064316048
 20
0.9828285989154754
 10
-1.707201018526671
 20
1.0071223594190257
 10
-1.6667537183342598
 20
1.0323713538673276
 10
-1.6269665381659832
 20
1.05856004994877
 10
-1.587855010333452
 20
1.0856729153517424
 10
-1.5494346671482773
 20
1.1136944177646326
 10
-1.5117210409220705
 20
1.1426090248758287
 10
-1.4747296639664442
 20
1.1724012043737195
 10
-1.4384760685930087
 20
1.203055423946693
 10
-1.4029757871133768
 20
1.234556151283139
 10
-1.3682443518391596
 20
1.2668878540714452
 10
-1.3342972950819674
 20
1.300035
 10
-1.3011501491534125
 20
1.3339820567571923
 10
-1.268818446365105
 20
1.3687134920314101
 10
-1.23731771902866
 20
1.404213773511043
 10
-1.2066634994556857
 20
1.4404673688844776
 10
-1.1768713199577954
 20
1.4774587458401036
 10
-1.147956712846599
 20
1.5151723720663104
 10
-1.1199352104337097
 20
1.5535927152514855
 10
-1.0928223450307373
 20
1.592704243084017
 10
-1.066633648949295
 20
1.6324914232522933
 10
-1.0413846545009926
 20
1.6729387234447053
 10
-1.0170908939974417
 20
1.714030611349638
 10
-0.9937678997502557
 20
1.7557515546554812
 10
-0.9714312040710446
 20
1.798086021050625
 10
-0.9500963392714192
 20
1.8410184782234564
 10
-0.9297788376629935
 20
1.8845333938623652
 10
-0.9104942315573764
 20
1.9286152356557378
 10
-0.8922580532661808
 20
1.9732484712919642
 10
-0.8750858351010178
 20
2.0184175684594328
 10
-0.858993109373498
 20
2.0641069948465316
 10
-0.8439954083952357
 20
2.11030121814165
 10
-0.8301082644778395
 20
2.156984706033175
 10
-0.8173472099329204
 20
2.204141926209497
 10
-0.8057277770720936
 20
2.251757346359003
 10
-0.7952654982069667
 20
2.299815434170082
 10
-0.7859759056491538
 20
2.3483006573311225
 10
-0.7778745317102647
 20
2.3971974835305137
 10
-0.7709769087019115
 20
2.446490380456643
 10
-0.7652985689357069
 20
2.4961638157978996
 10
-0.76085504472326
 20
2.546202257242672
 10
-0.7576618683761838
 20
2.5965901724793485
 10
-0.75573457220609
 20
2.6473120291963173
 10
-0.7550886885245895
 20
2.698352295081967
 10
-0.75573457220609
 20
2.749393642760105
 10
-0.7576618683761848
 20
2.8001165474663408
 10
-0.76085504472326
 20
2.8505054774256227
 10
-0.7652985689357069
 20
2.9005449008628976
 10
-0.7709769087019115
 20
2.9502192860031133
 10
-0.7778745317102647
 20
2.9995131010712175
 10
-0.7859759056491538
 20
3.0484108142921578
 10
-0.7952654982069657
 20
3.096896893890882
 10
-0.8057277770720936
 20
3.144955808092337
 10
-0.8173472099329215
 20
3.1925720251214713
 10
-0.8301082644778395
 20
3.2397300132032307
 10
-0.8439954083952357
 20
3.2864142405625647
 10
-0.858993109373498
 20
3.3326091754244205
 10
-0.8750858351010178
 20
3.378299286013745
 10
-0.8922580532661814
 20
3.423469040555486
 10
-0.9104942315573764
 20
3.468102907274591
 10
-0.9297788376629935
 20
3.512185354396008
 10
-0.9500963392714192
 20
3.5557008501446847
 10
-0.9714312040710446
 20
3.5986338627455674
 10
-0.9937678997502557
 20
3.6409688604236052
 10
-1.0170908939974417
 20
3.682690311403745
 10
-1.0413846545009926
 20
3.723782683910934
 10
-1.066633648949295
 20
3.7642304461701204
 10
-1.0928223450307373
 20
3.8040180664062517
 10
-1.1199352104337097
 20
3.843130012844275
 10
-1.147956712846599
 20
3.881550753709138
 10
-1.1768713199577954
 20
3.9192647572257884
 10
-1.2066634994556857
 20
3.9562564916191745
 10
-1.23731771902866
 20
3.9925104251142423
 10
-1.268818446365105
 20
4.028011025935941
 10
-1.3011501491534125
 20
4.062742762309217
 10
-1.3342972950819674
 20
4.096690102459018
 10
-1.3682443518391596
 20
4.129837514610292
 10
-1.4029757871133774
 20
4.162169466987987
 10
-1.4384760685930087
 20
4.193670427817049
 10
-1.4747296639664442
 20
4.224324865322427
 10
-1.5117210409220705
 20
4.254117247729069
 10
-1.5494346671482773
 20
4.283032043261921
 10
-1.587855010333452
 20
4.311053720145931
 10
-1.6269665381659832
 20
4.3381667466060465
 10
-1.6667537183342598
 20
4.364355590867216
 10
-1.707201018526671
 20
4.389604721154386
 10
-1.7482929064316048
 20
4.413898605692506
 10
-1.7900138497374485
 20
4.4372217127065205
 10
-1.8323483161325917
 20
4.459558510421379
 10
-1.8752807733054233
 20
4.480893467062029
 10
-1.918795688944332
 20
4.501211050853419
 10
-1.9628775307377047
 20
4.520495730020493
 10
-2.0075107663739313
 20
4.538731972788202
 10
-2.0526798635414
 20
4.555904247381493
 10
-2.0983692899284985
 20
4.571997022025313
 10
-2.1445635132236167
 20
4.58699476494461
 10
-2.1912470011151424
 20
4.60088194436433
 10
-2.238404221291464
 20
4.613643028509423
 10
-2.28601964144097
 20
4.625262485604835
 10
-2.3340777292520487
 20
4.635724783875514
 10
-2.38256295241309
 20
4.6450143915464075
 10
-2.4314597786124805
 20
4.653115776842463
 10
-2.4807526755386102
 20
4.660013407988628
 10
-2.530426110879867
 20
4.665691753209851
 10
-2.580464552324639
 20
4.670135280731078
 10
-2.630852467561315
 20
4.673328458777258
 10
-2.681574324278284
 20
4.675255755573336
 10
-2.7326145901639345
 20
4.675901639344264
 10
-4.241311475409836
 20
4.675901639344264
  0
LWPOLYLINE
  5
31
330
17
100
AcDbEntity
  8
0
100
AcDbPolyline
 90
389
 70
0
 10
4.198032786885247
 20
4.675901639344264
 10
2.6893359016393443
 20
4.675901639344264
 10
2.6382956357536944
 20
4.675255755573336
 10
2.5875737790367244
 20
4.673328458777258
 10
2.5371858638000484
 20
4.670135280731078
 10
2.487147422355276
 20
4.665691753209851
 10
2.4374739870140205
 20
4.660013407988628
 10
2.388181090087891
 20
4.653115776842463
 10
2.3392842638885005
 20
4.6450143915464075
 10
2.290799040727458
 20
4.635724783875514
 10
2.24274095291638
 20
4.625262485604835
 10
2.195125532766874
 20
4.613643028509423
 10
2.1479683125905518
 20
4.60088194436433
 10
2.1012848246990266
 20
4.58699476494461
 10
2.0550906014039083
 20
4.571997022025313
 10
2.0094011750168095
 20
4.555904247381493
 10
1.9642320778493418
 20
4.538731972788202
 10
1.9195988422131147
 20
4.520495730020493
 10
1.8755170004197417
 20
4.501211050853419
 10
1.8320020847808336
 20
4.480893467062029
 10
1.789069627608002
 20
4.459558510421379
 10
1.746735161212858
 20
4.4372217127065205
 10
1.705014217907014
 20
4.413898605692506
 10
1.6639223300020802
 20
4.389604721154386
 10
1.6234750298096698
 20
4.364355590867216
 10
1.583687849641393
 20
4.3381667466060465
 10
1.5445763218088635
 20
4.311053720145931
 10
1.5061559786236869
 20
4.283032043261921
 10
1.4684423523974808
 20
4.254117247729069
 10
1.4314509754418545
 20
4.224324865322427
 10
1.3951973800684203
 20
4.193670427817049
 10
1.359697098588787
 20
4.162169466987987
 10
1.3249656633145688
 20
4.129837514610292
 10
1.2910186065573772
 20
4.096690102459018
 10
1.2578714606288233
 20
4.062742762309217
 10
1.2255397578405158
 20
4.028011025935941
 10
1.1940390305040702
 20
3.9925104251142423
 10
1.163384810931096
 20
3.9562564916191745
 10
1.133592631433206
 20
3.9192647572257884
 10
1.1046780243220107
 20
3.881550753709138
 10
1.0766565219091195
 20
3.843130012844275
 10
1.0495436565061476
 20
3.8040180664062517
 10
1.0233549604247036
 20
3.7642304461701204
 10
0.9981059659764028
 20
3.723782683910934
 10
0.973812205472853
 20
3.682690311403745
 10
0.950489211225667
 20
3.6409688604236052
 10
0.9281525155464548
 20
3.5986338627455674
 10
0.9068176507468294
 20
3.5557008501446847
 10
0.8865001491384037
 20
3.512185354396008
 10
0.8672155430327877
 20
3.468102907274591
 10
0.8489793647415921
 20
3.423469040555486
 10
0.831807146576427
 20
3.378299286013745
 10
0.8157144208489082
 20
3.3326091754244205
 10
0.8007167198706449
 20
3.286414240562565
 10
0.7868295759532498
 20
3.2397300132032307
 10
0.7740685214083317
 20
3.1925720251214713
 10
0.7624490885475028
 20
3.144955808092337
 10
0.751986809682377
 20
3.096896893890882
 10
0.742697217124563
 20
3.0484108142921578
 10
0.734595843185675
 20
2.9995131010712175
 10
0.7276982201773217
 20
2.9502192860031133
 10
0.7220198804111162
 20
2.9005449008628976
 10
0.7175763561986703
 20
2.8505054774256227
 10
0.7143831798515939
 20
2.8001165474663408
 10
0.7124558836815001
 20
2.749393642760105
 10
0.7118099999999998
 20
2.698352295081967
 10
0.7124558836815001
 20
2.6473120291963173
 10
0.7143831798515939
 20
2.5965901724793485
 10
0.7175763561986703
 20
2.5462022572426717
 10
0.7220198804111172
 20
2.4961638157978996
 10
0.7276982201773217
 20
2.446490380456644
 10
0.734595843185674
 20
2.397197483530513
 10
0.742697217124564
 20
2.3483006573311225
 10
0.751986809682377
 20
2.299815434170082
 10
0.7624490885475028
 20
2.251757346359003
 10
0.7740685214083317
 20
2.204141926209497
 10
0.7868295759532498
 20
2.1569847060331746
 10
0.8007167198706449
 20
2.11030121814165
 10
0.8157144208489093
 20
2.064106994846532
 10
0.831807146576428
 20
2.0184175684594328
 10
0.8489793647415911
 20
1.9732484712919642
 10
0.8672155430327877
 20
1.9286152356557378
 10
0.8865001491384037
 20
1.8845333938623652
 10
0.9068176507468294
 20
1.8410184782234564
 10
0.9281525155464548
 20
1.798086021050625
 10
0.950489211225667
 20
1.7557515546554812
 10
0.973812205472853
 20
1.714030611349638
 10
0.9981059659764028
 20
1.6729387234447053
 10
1.0233549604247036
 20
1.6324914232522933
 10
1.0495436565061476
 20
1.592704243084017
 10
1.0766565219091195
 20
1.5535927152514855
 10
1.1046780243220098
 20
1.5151723720663104
 10
1.133592631433206
 20
1.4774587458401036
 10
1.163384810931097
 20
1.4404673688844776
 10
1.1940390305040702
 20
1.404213773511043
 10
1.2255397578405158
 20
1.3687134920314101
 10
1.2578714606288233
 20
1.3339820567571916
 10
1.2910186065573772
 20
1.300035
 10
1.3249656633145688
 20
1.2668878540714452
 10
1.359697098588787
 20
1.234556151283139
 10
1.3951973800684203
 20
1.203055423946693
 10
1.4314509754418545
 20
1.1724012043737195
 10
1.4684423523974808
 20
1.1426090248758287
 10
1.5061559786236869
 20
1.1136944177646326
 10
1.5445763218088635
 20
1.0856729153517424
 10
1.583687849641393
 20
1.05856004994877
 10
1.623475029809669
 20
1.0323713538673276
 10
1.6639223300020802
 20
1.0071223594190257
 10
1.705014217907014
 20
0.9828285989154759
 10
1.746735161212858
 20
0.9595056046682889
 10
1.789069627608002
 20
0.9371689089890778
 10
1.8320020847808336
 20
0.9158340441894524
 10
1.8755170004197428
 20
0.8955165425810266
 10
1.9195988422131138
 20
0.8762319364754096
 10
1.9642320778493418
 20
0.857995758184214
 10
2.0094011750168095
 20
0.8408235400190509
 10
2.0550906014039083
 20
0.8247308142915312
 10
2.1012848246990266
 20
0.8097331133132678
 10
2.1479683125905518
 20
0.7958459693958722
 10
2.195125532766875
 20
0.7830849148509547
 10
2.24274095291638
 20
0.7714654819901258
 10
2.290799040727458
 20
0.7610032031249999
 10
2.3392842638884996
 20
0.751713610567187
 10
2.388181090087891
 20
0.7436122366282979
 10
2.4374739870140196
 20
0.7367146136199446
 10
2.487147422355276
 20
0.7310362738537391
 10
2.5371858638000484
 20
0.7265927496412933
 10
2.5875737790367253
 20
0.7233995732942169
 10
2.6382956357536944
 20
0.7214722771241231
 10
2.6893359016393443
 20
0.7208263934426228
 10
3.8955291803278698
 20
0.7208029508196727
 10
3.878039206254679
 20
0.8087965021708757
 10
3.8586785195622686
 20
0.8960105099387249
 10
3.8374704868610583
 20
0.9824255759035961
 10
3.8144384747614644
 20
1.0680223018458637
 10
3.7896058498739027
 20
1.1527812895459044
 10
3.7629959788087968
 20
1.2366831407840921
 10
3.7346322281765563
 20
1.3197084573408036
 10
3.7045379645876024
 20
1.4018378409964147
 10
3.672736554652357
 20
1.4830518935312995
 10
3.6392513649812304
 20
1.5633312167258349
 10
3.6041057621846435
 20
1.6426564123603955
 10
3.5673231128730163
 20
1.7210080822153566
 10
3.5289267836567615
 20
1.7983668280710947
 10
3.488940141146301
 20
1.8747132517079852
 10
3.4473865519520497
 20
1.9500279549064021
 10
3.4042893826844276
 20
2.024291539446722
 10
3.3596719999538487
 20
2.0974846071093207
 10
3.3135577703707337
 20
2.1695877596745734
 10
3.2659700605455004
 20
2.2405815989228555
 10
3.2169322370885642
 20
2.310446726634543
 10
3.166467666610344
 20
2.37916374459001
 10
3.114599715721257
 20
2.446713254569633
 10
3.0613517510317196
 20
2.5130758583537878
 10
3.006747139152153
 20
2.5782321577228493
 10
2.9508092466929714
 20
2.642162754457193
 10
2.893561440264593
 20
2.704848250337196
 10
2.8350270864774374
 20
2.7662692471432306
 10
2.7752295519419197
 20
2.826406346655675
 10
2.7141922032684573
 20
2.885240150654903
 10
2.6519384070674707
 20
2.9427512609212916
 10
2.5884915299493767
 20
2.9989202792352154
 10
2.523874938524591
 20
3.0537278073770504
 10
2.458111999403531
 20
3.1071544471271713
 10
2.3912260791966182
 20
3.1591808002659545
 10
2.323240544514265
 20
3.2097874685737753
 10
2.254178761966894
 20
3.258955053831008
 10
2.184064098164919
 20
3.3066641578180302
 10
2.112919919718758
 20
3.352895382315215
 10
2.040769593238831
 20
3.39762932910294
 10
1.9676364853355544
 20
3.440846599961579
 10
1.8935439626193442
 20
3.4825277966715094
 10
1.8185153917006203
 20
3.5226535210131047
 10
1.742574139189799
 20
3.5612043747667417
 10
1.6657435716972993
 20
3.598160959712796
 10
1.5880470558335364
 20
3.6335038776316426
 10
1.509507958208928
 20
3.667213730303656
 10
1.4301496454338958
 20
3.6992711195092136
 10
1.349995484118852
 20
3.72965664702869
 10
1.2690688408742197
 20
3.7583509146424605
 10
1.187393082310411
 20
3.7853345241309007
 10
1.1049915750378467
 20
3.8105880772743865
 10
1.0218876856669437
 20
3.834092175853293
 10
0.9381047808081209
 20
3.8558274216479957
 10
0.8536662270717934
 20
3.8757744164388703
 10
0.7685953910683806
 20
3.893913762006292
 10
0.6829156394083
 20
3.9102260601306367
 10
0.5966503387019674
 20
3.9246919125922797
 10
0.5098228555598022
 20
3.9372919211715964
 10
0.42245655659222203
 20
3.948006687648962
 10
0.33457480840964454
 20
3.956816813804753
 10
0.24620097762248516
 20
3.963702901419344
 10
0.1573584308411646
 20
3.9686455522731108
 10
0.06807053467609941
 20
3.9716253681464293
 10
-0.021639344262294878
 20
3.9726229508196735
 10
-0.1113492062990777
 20
3.9716253851374654
 10
-0.2006370528324304
 20
3.9686456195218462
 10
-0.28947951886161527
 20
3.9637030511193214
 10
-0.3778532393858862
 20
3.9568170770763977
 10
-0.46573484940450666
 20
3.9480070945395815
 10
-0.5531009839167357
 20
3.9372925006553787
 10
-0.6399282779218335
 20
3.924692692570297
 10
-0.7261933664190573
 20
3.910227067430842
 10
-0.8118728844076691
 20
3.8939150223835193
 10
-0.8969434668869268
 20
3.8757759545748365
 10
-0.981381748856091
 20
3.855829261151299
 10
-1.0651643653144214
 20
3.834094339259415
 10
-1.148267951261176
 20
3.810590586045689
 10
-1.2306691416956166
 20
3.7853373986566274
 10
-1.3123445716170015
 20
3.758354174238738
 10
-1.3932708760245907
 20
3.729660309938526
 10
-1.4734246899176429
 20
3.6992752029024984
 10
-1.5527826482954183
 20
3.667218250277161
 10
-1.6313213861571765
 20
3.6335088492090204
 10
-1.709017538502178
 20
3.5981663968445843
 10
-1.7858477403296802
 20
3.5612102903303566
 10
-1.8617886266389443
 20
3.5226599268128456
 10
-1.9368168324292294
 20
3.482534703438557
 10
-2.0109089926997954
 20
3.440854017353997
 10
-2.084041742449901
 20
3.397637265705673
 10
-2.156191716678807
 20
3.3529038456400895
 10
-2.2273355503857726
 20
3.3066731543037546
 10
-2.297449878570056
 20
3.2589645888431753
 10
-2.366511336230919
 20
3.209797546404855
 10
-2.4344965583676195
 20
3.1591914241353027
 10
-2.501382179979418
 20
3.1071656191810244
 10
-2.567144836065574
 20
3.053739528688526
 10
-2.631761161625346
 20
2.9989325498043136
 10
-2.695207791657995
 20
2.9427640796748937
 10
-2.75746136116278
 20
2.8852535154467733
 10
-2.8184985051389604
 20
2.8264202542664587
 10
-2.8782958585857954
 20
2.7662836932804558
 10
-2.936830056502546
 20
2.704863229635271
 10
-2.99407773388847
 20
2.642178260477411
 10
-3.050015525742828
 20
2.578248182953382
 10
-3.1046200670648796
 20
2.513092394209691
 10
-3.157867992853884
 20
2.4467302913928437
 10
-3.2097359381091013
 20
2.3791812716493457
 10
-3.2602005378297902
 20
2.3104647321257055
 10
-3.3092384270152113
 20
2.2406000699684276
 10
-3.3568262406646228
 20
2.1696066823240194
 10
-3.402940613777286
 20
2.097503966338987
 10
-3.4475581813524596
 20
2.0243113191598368
 10
-3.490655578389403
 20
1.950048137933075
 10
-3.5322094398873753
 20
1.8747338198052081
 10
-3.572196400845637
 20
1.7983877619227429
 10
-3.610593096263448
 20
1.7210293614321854
 10
-3.6473761611400666
 20
1.6426780154800422
 10
-3.682522230474754
 20
1.563353121212819
 10
-3.716007939266768
 20
1.4830740757770227
 10
-3.747809922515369
 20
1.40186027631916
 10
-3.7779048152198174
 20
1.3197311199857371
 10
-3.8062692523793706
 20
1.2367060039232605
 10
-3.8328798689932904
 20
1.1528043252782354
 10
-3.8577133000608357
 20
1.0680454811971696
 10
-3.8807461805812653
 20
0.9824488688265689
 10
-3.9019551455538397
 20
0.89603388531294
 10
-3.9213168299778176
 20
0.8088199278027893
 10
-3.9388078688524595
 20
0.7208263934426228
 10
-2.7326145901639345
 20
0.7208263934426228
 10
-2.681574324278284
 20
0.7214722771241242
 10
-2.630852467561316
 20
0.7233995732942169
 10
-2.5804645523246394
 20
0.7265927496412933
 10
-2.530426110879867
 20
0.7310362738537401
 10
-2.4807526755386102
 20
0.7367146136199446
 10
-2.4314597786124805
 20
0.7436122366282979
 10
-2.38256295241309
 20
0.751713610567187
 10
-2.3340777292520487
 20
0.7610032031249999
 10
-2.28601964144097
 20
0.7714654819901258
 10
-2.2384042212914643
 20
0.7830849148509547
 10
-2.1912470011151424
 20
0.7958459693958722
 10
-2.1445635132236167
 20
0.8097331133132678
 10
-2.0983692899284985
 20
0.8247308142915317
 10
-2.0526798635414
 20
0.8408235400190505
 10
-2.0075107663739313
 20
0.857995758184214
 10
-1.962877530737705
 20
0.8762319364754096
 10
-1.918795688944332
 20
0.8955165425810272
 10
-1.8752807733054233
 20
0.9158340441894524
 10
-1.8323483161325924
 20
0.9371689089890778
 10
-1.7900138497374485
 20
0.9595056046682889
 10
-1.7482929064316048
 20
0.9828285989154754
 10
-1.707201018526671
 20
1.0071223594190257
 10
-1.6667537183342598
 20
1.0323713538673276
 10
-1.6269665381659832
 20
1.05856004994877
 10
-1.587855010333452
 20
1.0856729153517424
 10
-1.5494346671482773
 20
1.1136944177646326
 10
-1.5117210409220705
 20
1.1426090248758287
 10
-1.4747296639664442
 20
1.1724012043737195
 10
-1.4384760685930087
 20
1.203055423946693
 10
-1.4029757871133768
 20
1.234556151283139
 10
-1.3682443518391596
 20
1.2668878540714452
 10
-1.3342972950819674
 20
1.300035
 10
-1.3011501491534125
 20
1.3339820567571923
 10
-1.268818446365105
 20
1.3687134920314101
 10
-1.23731771902866
 20
1.404213773511043
 10
-1.2066634994556857
 20
1.4404673688844776
 10
-1.1768713199577954
 20
1.4774587458401036
 10
-1.147956712846599
 20
1.5151723720663104
 10
-1.1199352104337097
 20
1.5535927152514855
 10
-1.0928223450307373
 20
1.592704243084017
 10
-1.066633648949295
 20
1.6324914232522933
 10
-1.0413846545009926
 20
1.6729387234447053
 10
-1.0170908939974417
 20
1.714030611349638
 10
-0.9937678997502557
 20
1.7557515546554812
 10
-0.9714312040710446
 20
1.798086021050625
 10
-0.9500963392714192
 20
1.8410184782234564
 10
-0.9297788376629935
 20
1.8845333938623652
 10
-0.9104942315573764
 20
1.9286152356557378
 10
-0.8922580532661808
 20
1.9732484712919642
 10
-0.8750858351010178
 20
2.0184175684594328
 10
-0.858993109373498
 20
2.0641069948465316
 10
-0.8439954083952357
 20
2.11030121814165
 10
-0.8301082644778395
 20
2.156984706033175
 10
-0.8173472099329204
 20
2.204141926209497
 10
-0.8057277770720936
 20
2.251757346359003
 10
-0.7952654982069667
 20
2.299815434170082
 10
-0.7859759056491538
 20
2.3483006573311225
 10
-0.7778745317102647
 20
2.3971974835305137
 10
-0.7709769087019115
 20
2.446490380456643
 10
-0.7652985689357069
 20
2.4961638157978996
 10
-0.76085504472326
 20
2.546202257242672
 10
-0.7576618683761838
 20
2.5965901724793485
 10
-0.75573457220609
 20
2.6473120291963173
 10
-0.7550886885245895
 20
2.698352295081967
 10
-0.75573457220609
 20
2.749393642760105
 10
-0.7576618683761848
 20
2.8001165474663408
 10
-0.76085504472326
 20
2.8505054774256227
 10
-0.7652985689357069
 20
2.9005449008628976
 10
-0.7709769087019115
 20
2.9502192860031133
 10
-0.7778745317102647
 20
2.9995131010712175
 10
-0.7859759056491538
 20
3.0484108142921578
 10
-0.7952654982069657
 20
3.096896893890882
 10
-0.8057277770720936
 20
3.144955808092337
 10
-0.8173472099329215
 20
3.1925720251214713
 10
-0.8301082644778395
 20
3.2397300132032307
 10
-0.8439954083952357
 20
3.2864142405625647
 10
-0.858993109373498
 20
3.3326091754244205
 10
-0.8750858351010178
 20
3.378299286013745
 10
-0.8922580532661814
 20
3.423469040555486
 10
-0.9104942315573764
 20
3.468102907274591
 10
-0.9297788376629935
 20
3.512185354396008
 10
-0.9500963392714192
 20
3.5557008501446847
 10
-0.9714312040710446
 20
3.5986338627455674
 10
-0.9937678997502557
 20
3.6409688604236052
 10
-1.0170908939974417
 20
3.682690311403745
 10
-1.0413846545009926
 20
3.723782683910934
 10
-1.066633648949295
 20
3.7642304461701204
 10
-1.0928223450307373
 20
3.8040180664062517
 10
-1.1199352104337097
 20
3.843130012844275
 10
-1.147956712846599
 20
3.881550753709138
 10
-1.1768713199577954
 20
3.9192647572257884
 10
-1.2066634994556857
 20
3.9562564916191745
 10
-1.23731771902866
 20
3.9925104251142423
 10
-1.268818446365105
 20
4.028011025935941
 10
-1.3011501491534125
 20
4.062742762309217
 10
-1.3342972950819674
 20
4.096690102459018
 10
-1.3682443518391596
 20
4.129837514610292
 10
-1.4029757871133774
 20
4.162169466987987
 10
-1.4384760685930087
 20
4.193670427817049
 10
-1.4747296639664442
 20
4.224324865322427
 10
-1.5117210409220705
 20
4.254117247729069
 10
-1.5494346671482773
 20
4.283032043261921
 10
-1.587855010333452
 20
4.311053720145931
 10
-1.6269665381659832
 20
4.3381667466060465
 10
-1.6667537183342598
 20
4.364355590867216
 10
-1.707201018526671
 20
4.389604721154386
 10
-1.7482929064316048
 20
4.413898605692506
 10
-1.7900138497374485
 20
4.4372217127065205
 10
-1.8323483161325917
 20
4.459558510421379
 10
-1.8752807733054233
 20
4.480893467062029
 10
-1.918795688944332
 20
4.501211050853419
 10
-1.9628775307377047
 20
4.520495730020493
 10
-2.0075107663739313
 20
4.538731972788202
 10
-2.0526798635414
 20
4.555904247381493
 10
-2.0983692899284985
 20
4.571997022025313
 10
-2.1445635132236167
 20
4.58699476494461
 10
-2.1912470011151424
 20
4.60088194436433
 10
-2.238404221291464
 20
4.613643028509423
 10
-2.28601964144097
 20
4.625262485604835
 10
-2.3340777292520487
 20
4.635724783875514
 10
-2.38256295241309
 20
4.6450143915464075
 10
-2.4314597786124805
 20
4.653115776842463
 10
-2.4807526755386102
 20
4.660013407988628
 10
-2.530426110879867
 20
4.665691753209851
 10
-2.580464552324639
 20
4.670135280731078
 10
-2.630852467561315
 20
4.673328458777258
 10
-2.681574324278284
 20
4.675255755573336
 10
-2.7326145901639345
 20
4.675901639344264
 10
-4.241311475409836
 20
4.675901639344264
  0
LWPOLYLINE
  5
32
330
17
100
AcDbEntity
  8
0
100
AcDbPolyline
 90
389
 70
0
 10
4.198032786885247
 20
-4.701147540983608
 10
2.6893359016393443
 20
-4.701147540983608
 10
2.6382956357536944
 20
-4.700501657212681
 10
2.5875737790367244
 20
-4.698574360416601
 10
2.5371858638000484
 20
-4.695381182370421
 10
2.487147422355276
 20
-4.690937654849194
 10
2.4374739870140205
 20
-4.6852593096279715
 10
2.388181090087891
 20
-4.678361678481807
 10
2.3392842638885005
 20
-4.67026029318575
 10
2.290799040727458
 20
-4.660970685514857
 10
2.24274095291638
 20
-4.6505083872441775
 10
2.195125532766874
 20
-4.638888930148768
 10
2.1479683125905518
 20
-4.626127846003674
 10
2.1012848246990266
 20
-4.612240666583954
 10
2.0550906014039083
 20
-4.597242923664657
 10
2.0094011750168095
 20
-4.581150149020837
 10
1.9642320778493418
 20
-4.563977874427545
 10
1.9195988422131147
 20
-4.545741631659836
 10
1.8755170004197417
 20
-4.5264569524927625
 10
1.8320020847808336
 20
-4.506139368701373
 10
1.789069627608002
 20
-4.484804412060723
 10
1.746735161212858
 20
-4.462467614345862
 10
1.705014217907014
 20
-4.43914450733185
 10
1.6639223300020802
 20
-4.41485062279373
 10
1.6234750298096698
 20
-4.389601492506561
 10
1.583687849641393
 20
-4.36341264824539
 10
1.5445763218088635
 20
-4.336299621785274
 10
1.5061559786236869
 20
-4.308277944901263
 10
1.4684423523974808
 20
-4.279363149368412
 10
1.4314509754418545
 20
-4.249570766961771
 10
1.3951973800684203
 20
-4.218916329456392
 10
1.359697098588787
 20
-4.187415368627329
 10
1.3249656633145688
 20
-4.155083416249637
 10
1.2910186065573772
 20
-4.121936004098361
 10
1.2578714606288233
 20
-4.08798866394856
 10
1.2255397578405158
 20
-4.0532569275752826
 10
1.1940390305040702
 20
-4.017756326753585
 10
1.163384810931096
 20
-3.981502393258517
 10
1.133592631433206
 20
-3.944510658865132
 10
1.1046780243220107
 20
-3.90679665534848
 10
1.0766565219091195
 20
-3.868375914483619
 10
1.0495436565061476
 20
-3.8292639680455944
 10
1.0233549604247036
 20
-3.789476347809464
 10
0.9981059659764028
 20
-3.7490285855502767
 10
0.973812205472853
 20
-3.7079362130430895
 10
0.950489211225667
 20
-3.666214762062949
 10
0.9281525155464548
 20
-3.623879764384909
 10
0.9068176507468294
 20
-3.580946751784027
 10
0.8865001491384037
 20
-3.5374312560353514
 10
0.8672155430327877
 20
-3.493348808913935
 10
0.8489793647415921
 20
-3.4487149421948287
 10
0.831807146576427
 20
-3.403545187653087
 10
0.8157144208489082
 20
-3.3578550770637636
 10
0.8007167198706449
 20
-3.3116601422019074
 10
0.7868295759532498
 20
-3.2649759148425743
 10
0.7740685214083317
 20
-3.217817926760814
 10
0.7624490885475028
 20
-3.1702017097316797
 10
0.751986809682377
 20
-3.1221427955302254
 10
0.742697217124563
 20
-3.073656715931502
 10
0.734595843185675
 20
-3.0247590027105615
 10
0.7276982201773217
 20
-2.975465187642457
 10
0.7220198804111162
 20
-2.925790802502241
 10
0.7175763561986703
 20
-2.8757513790649663
 10
0.7143831798515939
 20
-2.825362449105685
 10
0.7124558836815001
 20
-2.7746395443994496
 10
0.7118099999999998
 20
-2.723598196721311
 10
0.7124558836815001
 20
-2.6725579308356613
 10
0.7143831798515939
 20
-2.621836074118692
 10
0.7175763561986703
 20
-2.571448158882016
 10
0.7220198804111172
 20
-2.5214097174372427
 10
0.7276982201773217
 20
-2.4717362820959874
 10
0.734595843185674
 20
-2.4224433851698577
 10
0.742697217124564
 20
-2.3735465589704665
 10
0.751986809682377
 20
-2.325061335809426
 10
0.7624490885475028
 20
-2.277003247998347
 10
0.7740685214083317
 20
-2.22938782784884
 10
0.7868295759532498
 20
-2.1822306076725186
 10
0.8007167198706449
 20
-2.1355471197809943
 10
0.8157144208489093
 20
-2.089352896485875
 10
0.831807146576428
 20
-2.0436634700987764
 10
0.8489793647415911
 20
-1.9984943729313085
 10
0.8672155430327877
 20
-1.9538611372950816
 10
0.8865001491384037
 20
-1.9097792955017086
 10
0.9068176507468294
 20
-1.8662643798628014
 10
0.9281525155464548
 20
-1.823331922689969
 10
0.950489211225667
 20
-1.780997456294826
 10
0.973812205472853
 20
-1.7392765129889807
 10
0.9981059659764028
 20
-1.698184625084048
 10
1.0233549604247036
 20
-1.6577373248916367
 10
1.0495436565061476
 20
-1.6179501447233609
 10
1.0766565219091195
 20
-1.5788386168908293
 10
1.1046780243220098
 20
-1.5404182737056538
 10
1.133592631433206
 20
-1.5027046474794485
 10
1.163384810931097
 20
-1.4657132705238214
 10
1.1940390305040702
 20
-1.4294596751503852
 10
1.2255397578405158
 20
-1.393959393670754
 10
1.2578714606288233
 20
-1.3592279583965365
 10
1.2910186065573772
 20
-1.325280901639343
 10
1.3249656633145688
 20
-1.292133755710788
 10
1.359697098588787
 20
-1.2598020529224838
 10
1.3951973800684203
 20
-1.228301325586037
 10
1.4314509754418545
 20
-1.197647106013063
 10
1.4684423523974808
 20
-1.167854926515172
 10
1.5061559786236869
 20
-1.1389403194039756
 10
1.5445763218088635
 20
-1.1109188169910864
 10
1.583687849641393
 20
-1.0838059515881142
 10
1.623475029809669
 20
-1.0576172555066705
 10
1.6639223300020802
 20
-1.0323682610583687
 10
1.705014217907014
 20
-1.0080745005548186
 10
1.746735161212858
 20
-0.9847515063076328
 10
1.789069627608002
 20
-0.9624148106284216
 10
1.8320020847808336
 20
-0.9410799458287973
 10
1.8755170004197428
 20
-0.9207624442203706
 10
1.9195988422131138
 20
-0.9014778381147545
 10
1.9642320778493418
 20
-0.883241659823559
 10
2.0094011750168095
 20
-0.8660694416583937
 10
2.0550906014039083
 20
-0.8499767159308751
 10
2.1012848246990266
 20
-0.8349790149526127
 10
2.1479683125905518
 20
-0.8210918710352165
 10
2.195125532766875
 20
-0.8083308164902986
 10
2.24274095291638
 20
-0.7967113836294707
 10
2.290799040727458
 20
-0.7862491047643437
 10
2.3392842638884996
 20
-0.7769595122065308
 10
2.388181090087891
 20
-0.7688581382676417
 10
2.4374739870140196
 20
-0.7619605152592895
 10
2.487147422355276
 20
-0.756282175493084
 10
2.5371858638000484
 20
-0.7518386512806371
 10
2.5875737790367253
 20
-0.7486454749335618
 10
2.6382956357536944
 20
-0.746718178763467
 10
2.6893359016393443
 20
-0.7460722950819666
 10
3.8955291803278698
 20
-0.7460722950819666
 10
3.878038141453229
 20
-0.8340658294421337
 10
3.8586764570292487
 20
-0.9212797869522834
 10
3.8374674920566747
 20
-1.0076947704659127
 10
3.8144346115362446
 20
-1.0932913828365134
 10
3.7896011804687
 20
-1.1780502269175792
 10
3.762990563854782
 20
-1.2619519055626043
 10
3.7346261266952263
 20
-1.34497702162508
 10
3.704531233990779
 20
-1.4271061779585046
 10
3.672729250742179
 20
-1.5083199774163656
 10
3.6392435419501643
 20
-1.588599022852163
 10
3.604097472615476
 20
-1.6679239171193856
 10
3.5673144077388588
 20
-1.7462752630715284
 10
3.528917712321046
 20
-1.823633663562087
 10
3.4889307513627856
 20
-1.899979721444552
 10
3.4473768898648123
 20
-1.9752940395724197
 10
3.4042794928278677
 20
-2.049557220799181
 10
3.3596619252526962
 20
-2.12274986797833
 10
3.3135475521400317
 20
-2.1948525839633635
 10
3.265959738490621
 20
-2.2658459716077703
 10
3.2169218493052
 20
-2.3357106337650495
 10
3.1664572495845094
 20
-2.4044271732886897
 10
3.1145893043292943
 20
-2.4719761930321864
 10
3.061341378540288
 20
-2.538338295849034
 10
3.006736837218238
 20
-2.603494084592726
 10
2.9507990453638797
 20
-2.667424162116754
 10
2.893551367977954
 20
-2.7301091312746153
 10
2.8350171700612044
 20
-2.791529594919798
 10
2.7752198166143685
 20
-2.8516661559058023
 10
2.7141826726381884
 20
-2.910499417086117
 10
2.6519291031334045
 20
-2.9680099813142373
 10
2.588482473100756
 20
-3.0241784514436563
 10
2.5238661475409843
 20
-3.0789854303278683
 10
2.4581034914548274
 20
-3.1324115208203684
 10
2.39121786984303
 20
-3.1844373257746463
 10
2.323232647706329
 20
-3.2350434480441983
 10
2.2541711900454655
 20
-3.284210490482518
 10
2.184056861861183
 20
-3.3319190559430996
 10
2.1129130281542166
 20
-3.378149747279434
 10
2.0407630539253114
 20
-3.4228831673450166
 10
1.9676303041752046
 20
-3.466099918993341
 10
1.8935381439046386
 20
-3.5077806050779
 10
1.8185099381143544
 20
-3.5479058284521905
 10
1.7425690518050898
 20
-3.5864561919696993
 10
1.6657388499775878
 20
-3.623412298483927
 10
1.5880426976325868
 20
-3.6587547508483644
 10
1.509503959770828
 20
-3.692464151916505
 10
1.4301460013930531
 20
-3.7245211045418425
 10
1.3499921874999987
 20
-3.75490621157787
 10
1.269065883092411
 20
-3.7836000758780823
 10
1.1873904531710269
 20
-3.810583300295971
 10
1.1049892627365867
 20
-3.8358364876850324
 10
1.0218856767898306
 20
-3.859340240898759
 10
0.9381030603315013
 20
-3.881075162790644
 10
0.8536647783623366
 20
-3.90102185621418
 10
0.7685941958830784
 20
-3.9191609240228638
 10
0.6829146778944675
 20
-3.9354729690701857
 10
0.5966495893972428
 20
-3.9499385942096414
 10
0.509822295392146
 20
-3.9625384022947214
 10
0.42245616087991694
 20
-3.9732529961789242
 10
0.33457455086129545
 20
-3.9820629787157413
 10
0.24620083033702447
 20
-3.988948952758665
 10
0.15735836430784167
 20
-3.9938915211611907
 10
0.06807051777448897
 20
-3.9968712867768086
 10
-0.021639344262294878
 20
-3.9978688524590176
 10
-0.11134922320068712
 20
-3.996871269785773
 10
-0.20063711936575437
 20
-3.993891453912455
 10
-0.289479666147077
 20
-3.9889488030586877
 10
-0.37785349693423326
 20
-3.9820627154440973
 10
-0.4657352451168118
 20
-3.973252589288306
 10
-0.5531015440843919
 20
-3.962537822810941
 10
-0.6399290272265582
 20
-3.9499378142316233
 10
-0.7261943279328887
 20
-3.9354719617699803
 10
-0.8118740795929703
 20
-3.9191596636456363
 10
-0.8969449155963831
 20
-3.9010203180782166
 10
-0.9813834693327107
 20
-3.8810733232873385
 10
-1.0651663741915343
 20
-3.8593380774926365
 10
-1.148270263562437
 20
-3.83583397891373
 10
-1.2306717708350008
 20
-3.810580425770245
 10
-1.312347529398809
 20
-3.7835968162818046
 10
-1.3932741726434428
 20
-3.754902548668034
 10
-1.4734283339584855
 20
-3.724517021148558
 10
-1.5527866467335187
 20
-3.6924596319429996
 10
-1.6313257443581253
 20
-3.6587497792709867
 10
-1.7090222602218876
 20
-3.62340686135214
 10
-1.7858528277143888
 20
-3.5864502764060866
 10
-1.86179408022521
 20
-3.5478994226524496
 10
-1.936822651143934
 20
-3.507773698310852
 10
-2.0109151738601434
 20
-3.4660925016009223
 10
-2.084048281763421
 20
-3.422875230742284
 10
-2.1561986082433484
 20
-3.3781412839545584
 10
-2.227342786689508
 20
-3.331910059457373
 10
-2.2974574504914838
 20
-3.2842009554703515
 10
-2.366519233038856
 20
-3.235033370213118
 10
-2.4345047677212075
 20
-3.1844267019052968
 10
-2.501390687928122
 20
-3.132400348766515
 10
-2.567153627049181
 20
-3.0789737090163936
 10
-2.631770218473967
 20
-3.024166180874559
 10
-2.6952170955920614
 20
-2.9679971625606356
 10
-2.7574708917930475
 20
-2.910486052294247
 10
-2.818508240466509
 20
-2.8516522482950184
 10
-2.8783057750020267
 20
-2.791515148782574
 10
-2.9368401287891825
 20
-2.7300941519765405
 10
-2.9940879352175602
 20
-2.667408656096537
 10
-3.050025827676742
 20
-2.603478059362194
 10
-3.1046304395563094
 20
-2.5383217599931323
 10
-3.1578784042458463
 20
-2.471959156208977
 10
-3.209746355134933
 20
-2.4044096462293547
 10
-3.2602109256131535
 20
-2.3356926282738866
 10
-3.30924874907009
 20
-2.265827500562199
 10
-3.356836458895324
 20
-2.1948336613139183
 10
-3.4029506884784393
 20
-2.122730508748665
 10
-3.4475680712090173
 20
-2.0495374410860654
 10
-3.4906652404766403
 20
-1.9752738565457455
 10
-3.5322188296708905
 20
-1.899959153347328
 10
-3.5722054721813516
 20
-1.823612729710438
 10
-3.610601801397605
 20
-1.7462539838547009
 10
-3.6473844507092337
 20
-1.6679023139997393
 10
-3.6825300535058196
 20
-1.5885771183651793
 10
-3.7160152431769453
 20
-1.5082977951706429
 10
-3.747816653112193
 20
-1.4270837426357592
 10
-3.777910916701145
 20
-1.344954358980148
 10
-3.8062746673333843
 20
-1.2619290424234355
 10
-3.832884538398493
 20
-1.1780271911852476
 10
-3.8577171632860527
 20
-1.0932682034852075
 10
-3.880749175385647
 20
-1.007671477542939
 10
-3.9019572080868588
 20
-0.9212564115780691
 10
-3.9213178947792686
 20
-0.8340424038102201
 10
-3.9388078688524595
 20
-0.7460488524590165
 10
-2.7326145901639345
 20
-0.7460722950819666
 10
-2.681574324278284
 20
-0.746718178763467
 10
-2.630852467561316
 20
-0.7486454749335618
 10
-2.5804645523246394
 20
-0.7518386512806371
 10
-2.530426110879867
 20
-0.756282175493084
 10
-2.4807526755386102
 20
-0.7619605152592895
 10
-2.4314597786124805
 20
-0.7688581382676417
 10
-2.38256295241309
 20
-0.7769595122065308
 10
-2.3340777292520487
 20
-0.7862491047643437
 10
-2.28601964144097
 20
-0.7967113836294707
 10
-2.2384042212914643
 20
-0.8083308164902986
 10
-2.1912470011151424
 20
-0.8210918710352165
 10
-2.1445635132236167
 20
-0.8349790149526127
 10
-2.0983692899284985
 20
-0.8499767159308751
 10
-2.0526798635414
 20
-0.8660694416583948
 10
-2.0075107663739313
 20
-0.8832416598235578
 10
-1.962877530737705
 20
-0.9014778381147535
 10
-1.918795688944332
 20
-0.9207624442203706
 10
-1.8752807733054233
 20
-0.9410799458287973
 10
-1.8323483161325924
 20
-0.9624148106284206
 10
-1.7900138497374485
 20
-0.9847515063076328
 10
-1.7482929064316048
 20
-1.0080745005548186
 10
-1.707201018526671
 20
-1.0323682610583695
 10
-1.6667537183342598
 20
-1.0576172555066705
 10
-1.6269665381659832
 20
-1.0838059515881142
 10
-1.587855010333452
 20
-1.1109188169910864
 10
-1.5494346671482773
 20
-1.1389403194039756
 10
-1.5117210409220705
 20
-1.167854926515172
 10
-1.4747296639664442
 20
-1.197647106013063
 10
-1.4384760685930087
 20
-1.228301325586037
 10
-1.4029757871133768
 20
-1.2598020529224838
 10
-1.3682443518391596
 20
-1.292133755710789
 10
-1.3342972950819674
 20
-1.325280901639343
 10
-1.3011501491534125
 20
-1.3592279583965365
 10
-1.268818446365105
 20
-1.393959393670755
 10
-1.23731771902866
 20
-1.4294596751503852
 10
-1.2066634994556857
 20
-1.4657132705238214
 10
-1.1768713199577954
 20
-1.5027046474794485
 10
-1.147956712846599
 20
-1.5404182737056538
 10
-1.1199352104337097
 20
-1.5788386168908293
 10
-1.0928223450307373
 20
-1.6179501447233609
 10
-1.066633648949295
 20
-1.6577373248916367
 10
-1.0413846545009926
 20
-1.698184625084049
 10
-1.0170908939974417
 20
-1.7392765129889807
 10
-0.9937678997502557
 20
-1.780997456294825
 10
-0.9714312040710446
 20
-1.823331922689969
 10
-0.9500963392714192
 20
-1.8662643798628014
 10
-0.9297788376629935
 20
-1.9097792955017086
 10
-0.9104942315573764
 20
-1.9538611372950827
 10
-0.8922580532661808
 20
-1.9984943729313085
 10
-0.8750858351010178
 20
-2.0436634700987764
 10
-0.858993109373498
 20
-2.089352896485875
 10
-0.8439954083952357
 20
-2.1355471197809934
 10
-0.8301082644778395
 20
-2.1822306076725186
 10
-0.8173472099329204
 20
-2.229387827848841
 10
-0.8057277770720936
 20
-2.277003247998347
 10
-0.7952654982069667
 20
-2.3250613358094268
 10
-0.7859759056491538
 20
-2.3735465589704665
 10
-0.7778745317102647
 20
-2.4224433851698577
 10
-0.7709769087019115
 20
-2.4717362820959865
 10
-0.7652985689357069
 20
-2.5214097174372427
 10
-0.76085504472326
 20
-2.571448158882016
 10
-0.7576618683761838
 20
-2.621836074118692
 10
-0.75573457220609
 20
-2.6725579308356613
 10
-0.7550886885245895
 20
-2.723598196721311
 10
-0.75573457220609
 20
-2.7746395443994496
 10
-0.7576618683761848
 20
-2.825362449105685
 10
-0.76085504472326
 20
-2.8757513790649663
 10
-0.7652985689357069
 20
-2.92579080250224
 10
-0.7709769087019115
 20
-2.975465187642457
 10
-0.7778745317102647
 20
-3.0247590027105606
 10
-0.7859759056491538
 20
-3.073656715931502
 10
-0.7952654982069657
 20
-3.1221427955302268
 10
-0.8057277770720936
 20
-3.1702017097316797
 10
-0.8173472099329215
 20
-3.217817926760814
 10
-0.8301082644778395
 20
-3.2649759148425743
 10
-0.8439954083952357
 20
-3.3116601422019074
 10
-0.858993109373498
 20
-3.3578550770637636
 10
-0.8750858351010178
 20
-3.403545187653088
 10
-0.8922580532661814
 20
-3.4487149421948287
 10
-0.9104942315573764
 20
-3.493348808913934
 10
-0.9297788376629935
 20
-3.5374312560353514
 10
-0.9500963392714192
 20
-3.580946751784027
 10
-0.9714312040710446
 20
-3.6238797643849106
 10
-0.9937678997502557
 20
-3.666214762062949
 10
-1.0170908939974417
 20
-3.707936213043088
 10
-1.0413846545009926
 20
-3.7490285855502767
 10
-1.066633648949295
 20
-3.789476347809464
 10
-1.0928223450307373
 20
-3.8292639680455944
 10
-1.1199352104337097
 20
-3.868375914483619
 10
-1.147956712846599
 20
-3.90679665534848
 10
-1.1768713199577954
 20
-3.944510658865132
 10
-1.2066634994556857
 20
-3.9815023932585154
 10
-1.23731771902866
 20
-4.017756326753587
 10
-1.268818446365105
 20
-4.0532569275752826
 10
-1.3011501491534125
 20
-4.08798866394856
 10
-1.3342972950819674
 20
-4.121936004098361
 10
-1.3682443518391596
 20
-4.155083416249637
 10
-1.4029757871133774
 20
-4.187415368627329
 10
-1.4384760685930087
 20
-4.218916329456392
 10
-1.4747296639664442
 20
-4.249570766961771
 10
-1.5117210409220705
 20
-4.279363149368412
 10
-1.5494346671482773
 20
-4.308277944901263
 10
-1.587855010333452
 20
-4.336299621785274
 10
-1.6269665381659832
 20
-4.36341264824539
 10
-1.6667537183342598
 20
-4.389601492506561
 10
-1.707201018526671
 20
-4.41485062279373
 10
-1.7482929064316048
 20
-4.43914450733185
 10
-1.7900138497374485
 20
-4.462467614345865
 10
-1.8323483161325917
 20
-4.484804412060723
 10
-1.8752807733054233
 20
-4.506139368701373
 10
-1.918795688944332
 20
-4.5264569524927625
 10
-1.9628775307377047
 20
-4.545741631659836
 10
-2.0075107663739313
 20
-4.563977874427545
 10
-2.0526798635414
 20
-4.581150149020837
 10
-2.0983692899284985
 20
-4.597242923664657
 10
-2.1445635132236167
 20
-4.612240666583954
 10
-2.1912470011151424
 20
-4.626127846003674
 10
-2.238404221291464
 20
-4.638888930148767
 10
-2.28601964144097
 20
-4.650508387244179
 10
-2.3340777292520487
 20
-4.660970685514857
 10
-2.38256295241309
 20
-4.67026029318575
 10
-2.4314597786124805
 20
-4.678361678481807
 10
-2.4807526755386102
 20
-4.6852593096279715
 10
-2.530426110879867
 20
-4.690937654849194
 10
-2.580464552324639
 20
-4.695381182370421
 10
-2.630852467561315
 20
-4.698574360416601
 10
-2.681574324278284
 20
-4.700501657212681
 10
-2.7326145901639345
 20
-4.701147540983608
 10
-4.241311475409836
 20
-4.701147540983608
  0
LWPOLYLINE
  5
33
330
17
100
AcDbEntity
  8
0
100
AcDbPolyline
 90
389
 70
0
 10
4.198032786885247
 20
-4.701147540983608
 10
2.6893359016393443
 20
-4.701147540983608
 10
2.6382956357536944
 20
-4.700501657212681
 10
2.5875737790367244
 20
-4.698574360416601
 10
2.5371858638000484
 20
-4.695381182370421
 10
2.487147422355276
 20
-4.690937654849194
 10
2.4374739870140205
 20
-4.6852593096279715
 10
2.388181090087891
 20
-4.678361678481807
 10
2.3392842638885005
 20
-4.67026029318575
 10
2.290799040727458
 20
-4.660970685514857
 10
2.24274095291638
 20
-4.6505083872441775
 10
2.195125532766874
 20
-4.638888930148768
 10
2.1479683125905518
 20
-4.626127846003674
 10
2.1012848246990266
 20
-4.612240666583954
 10
2.0550906014039083
 20
-4.597242923664657
 10
2.0094011750168095
 20
-4.581150149020837
 10
1.9642320778493418
 20
-4.563977874427545
 10
1.9195988422131147
 20
-4.545741631659836
 10
1.8755170004197417
 20
-4.5264569524927625
 10
1.8320020847808336
 20
-4.506139368701373
 10
1.789069627608002
 20
-4.484804412060723
 10
1.746735161212858
 20
-4.462467614345862
 10
1.705014217907014
 20
-4.43914450733185
 10
1.6639223300020802
 20
-4.41485062279373
 10
1.6234750298096698
 20
-4.389601492506561
 10
1.583687849641393
 20
-4.36341264824539
 10
1.5445763218088635
 20
-4.336299621785274
 10
1.5061559786236869
 20
-4.308277944901263
 10
1.4684423523974808
 20
-4.279363149368412
 10
1.4314509754418545
 20
-4.249570766961771
 10
1.3951973800684203
 20
-4.218916329456392
 10
1.359697098588787
 20
-4.187415368627329
 10
1.3249656633145688
 20
-4.155083416249637
 10
1.2910186065573772
 20
-4.121936004098361
 10
1.2578714606288233
 20
-4.08798866394856
 10
1.2255397578405158
 20
-4.0532569275752826
 10
1.1940390305040702
 20
-4.017756326753585
 10
1.163384810931096
 20
-3.981502393258517
 10
1.133592631433206
 20
-3.944510658865132
 10
1.1046780243220107
 20
-3.90679665534848
 10
1.0766565219091195
 20
-3.868375914483619
 10
1.0495436565061476
 20
-3.8292639680455944
 10
1.0233549604247036
 20
-3.789476347809464
 10
0.9981059659764028
 20
-3.7490285855502767
 10
0.973812205472853
 20
-3.7079362130430895
 10
0.950489211225667
 20
-3.666214762062949
 10
0.9281525155464548
 20
-3.623879764384909
 10
0.9068176507468294
 20
-3.580946751784027
 10
0.8865001491384037
 20
-3.5374312560353514
 10
0.8672155430327877
 20
-3.493348808913935
 10
0.8489793647415921
 20
-3.4487149421948287
 10
0.831807146576427
 20
-3.403545187653087
 10
0.8157144208489082
 20
-3.3578550770637636
 10
0.8007167198706449
 20
-3.3116601422019074
 10
0.7868295759532498
 20
-3.2649759148425743
 10
0.7740685214083317
 20
-3.217817926760814
 10
0.7624490885475028
 20
-3.1702017097316797
 10
0.751986809682377
 20
-3.1221427955302254
 10
0.742697217124563
 20
-3.073656715931502
 10
0.734595843185675
 20
-3.0247590027105615
 10
0.7276982201773217
 20
-2.975465187642457
 10
0.7220198804111162
 20
-2.925790802502241
 10
0.7175763561986703
 20
-2.8757513790649663
 10
0.7143831798515939
 20
-2.825362449105685
 10
0.7124558836815001
 20
-2.7746395443994496
 10
0.7118099999999998
 20
-2.723598196721311
 10
0.7124558836815001
 20
-2.6725579308356613
 10
0.7143831798515939
 20
-2.621836074118692
 10
0.7175763561986703
 20
-2.571448158882016
 10
0.7220198804111172
 20
-2.5214097174372427
 10
0.7276982201773217
 20
-2.4717362820959874
 10
0.734595843185674
 20
-2.4224433851698577
 10
0.742697217124564
 20
-2.3735465589704665
 10
0.751986809682377
 20
-2.325061335809426
 10
0.7624490885475028
 20
-2.277003247998347
 10
0.7740685214083317
 20
-2.22938782784884
 10
0.7868295759532498
 20
-2.1822306076725186
 10
0.8007167198706449
 20
-2.1355471197809943
 10
0.8157144208489093
 20
-2.089352896485875
 10
0.831807146576428
 20
-2.0436634700987764
 10
0.8489793647415911
 20
-1.9984943729313085
 10
0.8672155430327877
 20
-1.9538611372950816
 10
0.8865001491384037
 20
-1.9097792955017086
 10
0.9068176507468294
 20
-1.8662643798628014
 10
0.9281525155464548
 20
-1.823331922689969
 10
0.950489211225667
 20
-1.780997456294826
 10
0.973812205472853
 20
-1.7392765129889807
 10
0.9981059659764028
 20
-1.698184625084048
 10
1.0233549604247036
 20
-1.6577373248916367
 10
1.0495436565061476
 20
-1.6179501447233609
 10
1.0766565219091195
 20
-1.5788386168908293
 10
1.1046780243220098
 20
-1.5404182737056538
 10
1.133592631433206
 20
-1.5027046474794485
 10
1.163384810931097
 20
-1.4657132705238214
 10
1.1940390305040702
 20
-1.4294596751503852
 10
1.2255397578405158
 20
-1.393959393670754
 10
1.2578714606288233
 20
-1.3592279583965365
 10
1.2910186065573772
 20
-1.325280901639343
 10
1.3249656633145688
 20
-1.292133755710788
 10
1.359697098588787
 20
-1.2598020529224838
 10
1.3951973800684203
 20
-1.228301325586037
 10
1.4314509754418545
 20
-1.197647106013063
 10
1.4684423523974808
 20
-1.167854926515172
 10
1.5061559786236869
 20
-1.1389403194039756
 10
1.5445763218088635
 20
-1.1109188169910864
 10
1.583687849641393
 20
-1.0838059515881142
 10
1.623475029809669
 20
-1.0576172555066705
 10
1.6639223300020802
 20
-1.0323682610583687
 10
1.705014217907014
 20
-1.0080745005548186
 10
1.746735161212858
 20
-0.9847515063076328
 10
1.789069627608002
 20
-0.9624148106284216
 10
1.8320020847808336
 20
-0.9410799458287973
 10
1.8755170004197428
 20
-0.9207624442203706
 10
1.9195988422131138
 20
-0.9014778381147545
 10
1.9642320778493418
 20
-0.883241659823559
 10
2.0094011750168095
 20
-0.8660694416583937
 10
2.0550906014039083
 20
-0.8499767159308751
 10
2.1012848246990266
 20
-0.8349790149526127
 10
2.1479683125905518
 20
-0.8210918710352165
 10
2.195125532766875
 20
-0.8083308164902986
 10
2.24274095291638
 20
-0.7967113836294707
 10
2.290799040727458
 20
-0.7862491047643437
 10
2.3392842638884996
 20
-0.7769595122065308
 10
2.388181090087891
 20
-0.7688581382676417
 10
2.4374739870140196
 20
-0.7619605152592895
 10
2.487147422355276
 20
-0.756282175493084
 10
2.5371858638000484
 20
-0.7518386512806371
 10
2.5875737790367253
 20
-0.7486454749335618
 10
2.6382956357536944
 20
-0.746718178763467
 10
2.6893359016393443
 20
-0.7460722950819666
 10
3.8955291803278698
 20
-0.7460722950819666
 10
3.878038141453229
 20
-0.8340658294421337
 10
3.8586764570292487
 20
-0.9212797869522834
 10
3.8374674920566747
 20
-1.0076947704659127
 10
3.8144346115362446
 20
-1.0932913828365134
 10
3.7896011804687
 20
-1.1780502269175792
 10
3.762990563854782
 20
-1.2619519055626043
 10
3.7346261266952263
 20
-1.34497702162508
 10
3.704531233990779
 20
-1.4271061779585046
 10
3.672729250742179
 20
-1.5083199774163656
 10
3.6392435419501643
 20
-1.588599022852163
 10
3.604097472615476
 20
-1.6679239171193856
 10
3.5673144077388588
 20
-1.7462752630715284
 10
3.528917712321046
 20
-1.823633663562087
 10
3.4889307513627856
 20
-1.899979721444552
 10
3.4473768898648123
 20
-1.9752940395724197
 10
3.4042794928278677
 20
-2.049557220799181
 10
3.3596619252526962
 20
-2.12274986797833
 10
3.3135475521400317
 20
-2.1948525839633635
 10
3.265959738490621
 20
-2.2658459716077703
 10
3.2169218493052
 20
-2.3357106337650495
 10
3.1664572495845094
 20
-2.4044271732886897
 10
3.1145893043292943
 20
-2.4719761930321864
 10
3.061341378540288
 20
-2.538338295849034
 10
3.006736837218238
 20
-2.603494084592726
 10
2.9507990453638797
 20
-2.667424162116754
 10
2.893551367977954
 20
-2.7301091312746153
 10
2.8350171700612044
 20
-2.791529594919798
 10
2.7752198166143685
 20
-2.8516661559058023
 10
2.7141826726381884
 20
-2.910499417086117
 10
2.6519291031334045
 20
-2.9680099813142373
 10
2.588482473100756
 20
-3.0241784514436563
 10
2.5238661475409843
 20
-3.0789854303278683
 10
2.4581034914548274
 20
-3.1324115208203684
 10
2.39121786984303
 20
-3.1844373257746463
 10
2.323232647706329
 20
-3.2350434480441983
 10
2.2541711900454655
 20
-3.284210490482518
 10
2.184056861861183
 20
-3.3319190559430996
 10
2.1129130281542166
 20
-3.378149747279434
 10
2.0407630539253114
 20
-3.4228831673450166
 10
1.9676303041752046
 20
-3.466099918993341
 10
1.8935381439046386
 20
-3.5077806050779
 10
1.8185099381143544
 20
-3.5479058284521905
 10
1.7425690518050898
 20
-3.5864561919696993
 10
1.6657388499775878
 20
-3.623412298483927
 10
1.5880426976325868
 20
-3.6587547508483644
 10
1.509503959770828
 20
-3.692464151916505
 10
1.4301460013930531
 20
-3.7245211045418425
 10
1.3499921874999987
 20
-3.75490621157787
 10
1.269065883092411
 20
-3.7836000758780823
 10
1.1873904531710269
 20
-3.810583300295971
 10
1.1049892627365867
 20
-3.8358364876850324
 10
1.0218856767898306
 20
-3.859340240898759
 10
0.9381030603315013
 20
-3.881075162790644
 10
0.8536647783623366
 20
-3.90102185621418
 10
0.7685941958830784
 20
-3.9191609240228638
 10
0.6829146778944675
 20
-3.9354729690701857
 10
0.5966495893972428
 20
-3.9499385942096414
 10
0.509822295392146
 20
-3.9625384022947214
 10
0.42245616087991694
 20
-3.9732529961789242
 10
0.33457455086129545
 20
-3.9820629787157413
 10
0.24620083033702447
 20
-3.988948952758665
 10
0.15735836430784167
 20
-3.9938915211611907
 10
0.06807051777448897
 20
-3.9968712867768086
 10
-0.021639344262294878
 20
-3.9978688524590176
 10
-0.11134922320068712
 20
-3.996871269785773
 10
-0.20063711936575437
 20
-3.993891453912455
 10
-0.289479666147077
 20
-3.9889488030586877
 10
-0.37785349693423326
 20
-3.9820627154440973
 10
-0.4657352451168118
 20
-3.973252589288306
 10
-0.5531015440843919
 20
-3.962537822810941
 10
-0.6399290272265582
 20
-3.9499378142316233
 10
-0.7261943279328887
 20
-3.9354719617699803
 10
-0.8118740795929703
 20
-3.9191596636456363
 10
-0.8969449155963831
 20
-3.9010203180782166
 10
-0.9813834693327107
 20
-3.8810733232873385
 10
-1.0651663741915343
 20
-3.8593380774926365
 10
-1.148270263562437
 20
-3.83583397891373
 10
-1.2306717708350008
 20
-3.810580425770245
 10
-1.312347529398809
 20
-3.7835968162818046
 10
-1.3932741726434428
 20
-3.754902548668034
 10
-1.4734283339584855
 20
-3.724517021148558
 10
-1.5527866467335187
 20
-3.6924596319429996
 10
-1.6313257443581253
 20
-3.6587497792709867
 10
-1.7090222602218876
 20
-3.62340686135214
 10
-1.7858528277143888
 20
-3.5864502764060866
 10
-1.86179408022521
 20
-3.5478994226524496
 10
-1.936822651143934
 20
-3.507773698310852
 10
-2.0109151738601434
 20
-3.4660925016009223
 10
-2.084048281763421
 20
-3.422875230742284
 10
-2.1561986082433484
 20
-3.3781412839545584
 10
-2.227342786689508
 20
-3.331910059457373
 10
-2.2974574504914838
 20
-3.2842009554703515
 10
-2.366519233038856
 20
-3.235033370213118
 10
-2.4345047677212075
 20
-3.1844267019052968
 10
-2.501390687928122
 20
-3.132400348766515
 10
-2.567153627049181
 20
-3.0789737090163936
 10
-2.631770218473967
 20
-3.024166180874559
 10
-2.6952170955920614
 20
-2.9679971625606356
 10
-2.7574708917930475
 20
-2.910486052294247
 10
-2.818508240466509
 20
-2.8516522482950184
 10
-2.8783057750020267
 20
-2.791515148782574
 10
-2.9368401287891825
 20
-2.7300941519765405
 10
-2.9940879352175602
 20
-2.667408656096537
 10
-3.050025827676742
 20
-2.603478059362194
 10
-3.1046304395563094
 20
-2.5383217599931323
 10
-3.1578784042458463
 20
-2.471959156208977
 10
-3.209746355134933
 20
-2.4044096462293547
 10
-3.2602109256131535
 20
-2.3356926282738866
 10
-3.30924874907009
 20
-2.265827500562199
 10
-3.356836458895324
 20
-2.1948336613139183
 10
-3.4029506884784393
 20
-2.122730508748665
 10
-3.4475680712090173
 20
-2.0495374410860654
 10
-3.4906652404766403
 20
-1.9752738565457455
 10
-3.5322188296708905
 20
-1.899959153347328
 10
-3.5722054721813516
 20
-1.823612729710438
 10
-3.610601801397605
 20
-1.7462539838547009
 10
-3.6473844507092337
 20
-1.6679023139997393
 10
-3.6825300535058196
 20
-1.5885771183651793
 10
-3.7160152431769453
 20
-1.5082977951706429
 10
-3.747816653112193
 20
-1.4270837426357592
 10
-3.777910916701145
 20
-1.344954358980148
 10
-3.8062746673333843
 20
-1.2619290424234355
 10
-3.832884538398493
 20
-1.1780271911852476
 10
-3.8577171632860527
 20
-1.0932682034852075
 10
-3.880749175385647
 20
-1.007671477542939
 10
-3.9019572080868588
 20
-0.9212564115780691
 10
-3.9213178947792686
 20
-0.8340424038102201
 10
-3.9388078688524595
 20
-0.7460488524590165
 10
-2.7326145901639345
 20
-0.7460722950819666
 10
-2.681574324278284
 20
-0.746718178763467
 10
-2.630852467561316
 20
-0.7486454749335618
 10
-2.5804645523246394
 20
-0.7518386512806371
 10
-2.530426110879867
 20
-0.756282175493084
 10
-2.4807526755386102
 20
-0.7619605152592895
 10
-2.4314597786124805
 20
-0.7688581382676417
 10
-2.38256295241309
 20
-0.7769595122065308
 10
-2.3340777292520487
 20
-0.7862491047643437
 10
-2.28601964144097
 20
-0.7967113836294707
 10
-2.2384042212914643
 20
-0.8083308164902986
 10
-2.1912470011151424
 20
-0.8210918710352165
 10
-2.1445635132236167
 20
-0.8349790149526127
 10
-2.0983692899284985
 20
-0.8499767159308751
 10
-2.0526798635414
 20
-0.8660694416583948
 10
-2.0075107663739313
 20
-0.8832416598235578
 10
-1.962877530737705
 20
-0.9014778381147535
 10
-1.918795688944332
 20
-0.9207624442203706
 10
-1.8752807733054233
 20
-0.9410799458287973
 10
-1.8323483161325924
 20
-0.9624148106284206
 10
-1.7900138497374485
 20
-0.9847515063076328
 10
-1.7482929064316048
 20
-1.0080745005548186
 10
-1.707201018526671
 20
-1.0323682610583695
 10
-1.6667537183342598
 20
-1.0576172555066705
 10
-1.6269665381659832
 20
-1.0838059515881142
 10
-1.587855010333452
 20
-1.1109188169910864
 10
-1.5494346671482773
 20
-1.1389403194039756
 10
-1.5117210409220705
 20
-1.167854926515172
 10
-1.4747296639664442
 20
-1.197647106013063
 10
-1.4384760685930087
 20
-1.228301325586037
 10
-1.4029757871133768
 20
-1.2598020529224838
 10
-1.3682443518391596
 20
-1.292133755710789
 10
-1.3342972950819674
 20
-1.325280901639343
 10
-1.3011501491534125
 20
-1.3592279583965365
 10
-1.268818446365105
 20
-1.393959393670755
 10
-1.23731771902866
 20
-1.4294596751503852
 10
-1.2066634994556857
 20
-1.4657132705238214
 10
-1.1768713199577954
 20
-1.5027046474794485
 10
-1.147956712846599
 20
-1.5404182737056538
 10
-1.1199352104337097
 20
-1.5788386168908293
 10
-1.0928223450307373
 20
-1.6179501447233609
 10
-1.066633648949295
 20
-1.6577373248916367
 10
-1.0413846545009926
 20
-1.698184625084049
 10
-1.0170908939974417
 20
-1.7392765129889807
 10
-0.9937678997502557
 20
-1.780997456294825
 10
-0.9714312040710446
 20
-1.823331922689969
 10
-0.9500963392714192
 20
-1.8662643798628014
 10
-0.9297788376629935
 20
-1.9097792955017086
 10
-0.9104942315573764
 20
-1.9538611372950827
 10
-0.8922580532661808
 20
-1.9984943729313085
 10
-0.8750858351010178
 20
-2.0436634700987764
 10
-0.858993109373498
 20
-2.089352896485875
 10
-0.8439954083952357
 20
-2.1355471197809934
 10
-0.8301082644778395
 20
-2.1822306076725186
 10
-0.8173472099329204
 20
-2.229387827848841
 10
-0.8057277770720936
 20
-2.277003247998347
 10
-0.7952654982069667
 20
-2.3250613358094268
 10
-0.7859759056491538
 20
-2.3735465589704665
 10
-0.7778745317102647
 20
-2.4224433851698577
 10
-0.7709769087019115
 20
-2.4717362820959865
 10
-0.7652985689357069
 20
-2.5214097174372427
 10
-0.76085504472326
 20
-2.571448158882016
 10
-0.7576618683761838
 20
-2.621836074118692
 10
-0.75573457220609
 20
-2.6725579308356613
 10
-0.7550886885245895
 20
-2.723598196721311
 10
-0.75573457220609
 20
-2.7746395443994496
 10
-0.7576618683761848
 20
-2.825362449105685
 10
-0.76085504472326
 20
-2.8757513790649663
 10
-0.7652985689357069
 20
-2.92579080250224
 10
-0.7709769087019115
 20
-2.975465187642457
 10
-0.7778745317102647
 20
-3.0247590027105606
 10
-0.7859759056491538
 20
-3.073656715931502
 10
-0.7952654982069657
 20
-3.1221427955302268
 10
-0.8057277770720936
 20
-3.1702017097316797
 10
-0.8173472099329215
 20
-3.217817926760814
 10
-0.8301082644778395
 20
-3.2649759148425743
 10
-0.8439954083952357
 20
-3.3116601422019074
 10
-0.858993109373498
 20
-3.3578550770637636
 10
-0.8750858351010178
 20
-3.403545187653088
 10
-0.8922580532661814
 20
-3.4487149421948287
 10
-0.9104942315573764
 20
-3.493348808913934
 10
-0.9297788376629935
 20
-3.5374312560353514
 10
-0.9500963392714192
 20
-3.580946751784027
 10
-0.9714312040710446
 20
-3.6238797643849106
 10
-0.9937678997502557
 20
-3.666214762062949
 10
-1.0170908939974417
 20
-3.707936213043088
 10
-1.0413846545009926
 20
-3.7490285855502767
 10
-1.066633648949295
 20
-3.789476347809464
 10
-1.0928223450307373
 20
-3.8292639680455944
 10
-1.1199352104337097
 20
-3.868375914483619
 10
-1.147956712846599
 20
-3.90679665534848
 10
-1.1768713199577954
 20
-3.944510658865132
 10
-1.2066634994556857
 20
-3.9815023932585154
 10
-1.23731771902866
 20
-4.017756326753587
 10
-1.268818446365105
 20
-4.0532569275752826
 10
-1.3011501491534125
 20
-4.08798866394856
 10
-1.3342972950819674
 20
-4.121936004098361
 10
-1.3682443518391596
 20
-4.155083416249637
 10
-1.4029757871133774
 20
-4.187415368627329
 10
-1.4384760685930087
 20
-4.218916329456392
 10
-1.4747296639664442
 20
-4.249570766961771
 10
-1.5117210409220705
 20
-4.279363149368412
 10
-1.5494346671482773
 20
-4.308277944901263
 10
-1.587855010333452
 20
-4.336299621785274
 10
-1.6269665381659832
 20
-4.36341264824539
 10
-1.6667537183342598
 20
-4.389601492506561
 10
-1.707201018526671
 20
-4.41485062279373
 10
-1.7482929064316048
 20
-4.43914450733185
 10
-1.7900138497374485
 20
-4.462467614345865
 10
-1.8323483161325917
 20
-4.484804412060723
 10
-1.8752807733054233
 20
-4.506139368701373
 10
-1.918795688944332
 20
-4.5264569524927625
 10
-1.9628775307377047
 20
-4.545741631659836
 10
-2.0075107663739313
 20
-4.563977874427545
 10
-2.0526798635414
 20
-4.581150149020837
 10
-2.0983692899284985
 20
-4.597242923664657
 10
-2.1445635132236167
 20
-4.612240666583954
 10
-2.1912470011151424
 20
-4.626127846003674
 10
-2.238404221291464
 20
-4.638888930148767
 10
-2.28601964144097
 20
-4.650508387244179
 10
-2.3340777292520487
 20
-4.660970685514857
 10
-2.38256295241309
 20
-4.67026029318575
 10
-2.4314597786124805
 20
-4.678361678481807
 10
-2.4807526755386102
 20
-4.6852593096279715
 10
-2.530426110879867
 20
-4.690937654849194
 10
-2.580464552324639
 20
-4.695381182370421
 10
-2.630852467561315
 20
-4.698574360416601
 10
-2.681574324278284
 20
-4.700501657212681
 10
-2.7326145901639345
 20
-4.701147540983608
 10
-4.241311475409836
 20
-4.701147540983608
  0
LWPOLYLINE
  5
34
330
17
100
AcDbEntity
  8
0
100
AcDbPolyline
 90
4
 70
0
 10
-3.7724590163934426
 20
-4.701147540983608
 10
-4.710163934426229
 20
-4.701147540983608
 10
4.666885245901641
 20
4.675901639344264
 10
3.729180327868854
 20
4.675901639344264
  0
LWPOLYLINE
  5
35
330
17
100
AcDbEntity
  8
0
100
AcDbPolyline
 90
4
 70
0
 10
-3.7490163934426235
 20
-4.701147540983608
 10
-4.710163934426229
 20
-4.701147540983608
 10
4.666885245901641
 20
4.675901639344264
 10
3.705737704918033
 20
4.675901639344264
  0
LWPOLYLINE
  5
36
330
17
100
AcDbEntity
  8
0
100
AcDbPolyline
 90
4
 70
0
 10
-3.7724590163934426
 20
4.675901639344264
 10
-4.710163934426229
 20
4.675901639344264
 10
4.666885245901641
 20
-4.701147540983608
 10
3.729180327868854
 20
-4.701147540983608
  0
LWPOLYLINE
  5
37
330
17
100
AcDbEntity
  8
0
100
AcDbPolyline
 90
4
 70
0
 10
-3.7490163934426235
 20
4.675901639344264
 10
-4.710163934426229
 20
4.675901639344264
 10
4.666885245901641
 20
-4.701147540983608
 10
3.705737704918033
 20
-4.701147540983608
  0
LWPOLYLINE
  5
38
330
17
100
AcDbEntity
  8
0
100
AcDbPolyline
 90
129
 70
0
 10
4.4485406557377045
 20
-0.849594918032786
 10
4.450944851232433
 20
-0.8366548270547586
 10
4.45331140335333
 20
-0.8237086713496968
 10
4.455640305125127
 20
-0.8107565330111393
 10
4.457931549572553
 20
-0.7977984941326194
 10
4.460185129720345
 20
-0.7848346368076748
 10
4.46240103859323
 20
-0.7718650431298424
 10
4.464579269215943
 20
-0.7588897951926543
 10
4.466719814613217
 20
-0.7459089750896514
 10
4.468822667809784
 20
-0.732922664914364
 10
4.470887821830374
 20
-0.719930946760334
 10
4.472915269699722
 20
-0.7069339027210917
 10
4.47490500444256
 20
-0.6939316148901747
 10
4.476857019083616
 20
-0.6809241653611219
 10
4.478771306647629
 20
-0.6679116362274666
 10
4.480647860159325
 20
-0.6548941095827444
 10
4.482486672643442
 20
-0.641871667520492
 10
4.484287737124708
 20
-0.6288443921342438
 10
4.486051046627856
 20
-0.6158123655175375
 10
4.487776594177622
 20
-0.6027756697639086
 10
4.489464372798732
 20
-0.5897343869668917
 10
4.491114375515923
 20
-0.5766885992200256
 10
4.492726595353923
 20
-0.5636383886168415
 10
4.494301025337469
 20
-0.5505838372508812
 10
4.49583765849129
 20
-0.5375250272156753
 10
4.497336487840121
 20
-0.5244620406047633
 10
4.4987975064086925
 20
-0.5113949595116788
 10
4.500220707221736
 20
-0.4983238660299574
 10
4.501606083303983
 20
-0.4852488422531377
 10
4.502953627680169
 20
-0.47216997027475216
 10
4.504263333375025
 20
-0.45908733218834047
 10
4.505535193413283
 20
-0.4460010100874352
 10
4.506769200819673
 20
-0.4329110860655729
 10
4.507965348618929
 20
-0.41981764221629114
 10
4.509123629835787
 20
-0.4067207606331235
 10
4.510244037494974
 20
-0.3936205234096086
 10
4.511326564621222
 20
-0.38051701263928
 10
4.5123712042392645
 20
-0.3674103104156743
 10
4.513377949373839
 20
-0.354300498832326
 10
4.514346793049672
 20
-0.3411876599827748
 10
4.515277728291497
 20
-0.32807187596055315
 10
4.516170748124045
 20
-0.3149532288591977
 10
4.51702584557205
 20
-0.30183180077224403
 10
4.517843013660244
 20
-0.2887076737932297
 10
4.518622245413358
 20
-0.2755809300156883
 10
4.519363533856126
 20
-0.2624516515331574
 10
4.52006687201328
 20
-0.2493199204391716
 10
4.520732252909552
 20
-0.2361858188272695
 10
4.521359669569673
 20
-0.2230494287909836
 10
4.521949115018378
 20
-0.20991083242385153
 10
4.522500582280393
 20
-0.19677011181940682
 10
4.523014064380458
 20
-0.18362734907118913
 10
4.5234895543433025
 20
-0.17048262627273303
 10
4.523927045193656
 20
-0.15733602551757303
 10
4.524326529956254
 20
-0.14418762889924577
 10
4.524688001655828
 20
-0.1310375185112878
 10
4.525011453317112
 20
-0.11788577644723267
 10
4.525296877964833
 20
-0.10473248480062004
 10
4.525544268623728
 20
-0.09157772566498346
 10
4.525753618318526
 20
-0.07842158113385846
 10
4.525924920073963
 20
-0.06526413330078062
 10
4.526058166914769
 20
-0.052105464259288616
 10
4.526153351865674
 20
-0.038945656102914915
 10
4.526210467951415
 20
-0.025784790925197157
 10
4.526229508196722
 20
-0.012622950819671927
 10
4.526210467951415
 20
0.0005388892858543275
 10
4.526153351865674
 20
0.013699754463571063
 10
4.526058166914769
 20
0.026859562619943735
 10
4.525924920073963
 20
0.040018231661437795
 10
4.525753618318526
 20
0.05317567949451357
 10
4.525544268623728
 20
0.0663318240256396
 10
4.525296877964833
 20
0.07948658316127619
 10
4.52501145331711
 20
0.09263987480788984
 10
4.524688001655828
 20
0.10579161687194293
 10
4.524326529956257
 20
0.11894172725990293
 10
4.523927045193658
 20
0.13209012387823021
 10
4.5234895543433025
 20
0.14523672463338919
 10
4.523014064380461
 20
0.15838144743184632
 10
4.522500582280393
 20
0.171524210180064
 10
4.5219491150183755
 20
0.18466493078450769
 10
4.521359669569673
 20
0.19780352715163974
 10
4.520732252909552
 20
0.21093991718792562
 10
4.52006687201328
 20
0.22407401879982877
 10
4.519363533856126
 20
0.23720574989381457
 10
4.5186222454133596
 20
0.2503350283763465
 10
4.517843013660244
 20
0.2634617721538869
 10
4.51702584557205
 20
0.2765858991329012
 10
4.516170748124045
 20
0.28970732721985487
 10
4.515277728291497
 20
0.30282597432121033
 10
4.514346793049672
 20
0.31594175834343197
 10
4.513377949373839
 20
0.3290545971929852
 10
4.512371204239267
 20
0.3421644087763315
 10
4.511326564621222
 20
0.3552711109999362
 10
4.510244037494974
 20
0.36837462177026475
 10
4.509123629835787
 20
0.3814748589937817
 10
4.507965348618929
 20
0.39457174057694727
 10
4.506769200819673
 20
0.40766518442623
 10
4.505535193413281
 20
0.42075510844809133
 10
4.504263333375023
 20
0.4338414305489966
 10
4.502953627680169
 20
0.4469240686354093
 10
4.501606083303983
 20
0.4600029406137938
 10
4.500220707221736
 20
0.47307796439061456
 10
4.4987975064086925
 20
0.486149057872335
 10
4.497336487840121
 20
0.49921613896541944
 10
4.49583765849129
 20
0.5122791255763325
 10
4.494301025337469
 20
0.5253379356115374
 10
4.492726595353923
 20
0.5383924869774986
 10
4.491114375515923
 20
0.5514426975806817
 10
4.489464372798732
 20
0.5644884853275489
 10
4.487776594177622
 20
0.5775297681245658
 10
4.486051046627856
 20
0.5905664638781947
 10
4.484287737124708
 20
0.6035984904948999
 10
4.482486672643442
 20
0.616625765881147
 10
4.480647860159325
 20
0.6296482079434006
 10
4.478771306647629
 20
0.6426657345881238
 10
4.476857019083616
 20
0.6556782637217781
 10
4.47490500444256
 20
0.668685713250833
 10
4.472915269699722
 20
0.6816880010817489
 10
4.470887821830374
 20
0.69468504512099
 10
4.468822667809784
 20
0.7076767632750212
 10
4.466719814613217
 20
0.7206630734503074
 10
4.464579269215943
 20
0.7336438935533114
 10
4.46240103859323
 20
0.7466191414904985
 10
4.460185129720345
 20
0.759588735168332
 10
4.457931549572553
 20
0.7725525924932756
 10
4.455640305125127
 20
0.7855106313717943
 10
4.45331140335333
 20
0.7984627697103529
 10
4.450944851232433
 20
0.8114089254154137
 10
4.4485406557377045
 20
0.824349016393442
  0
LWPOLYLINE
  5
39
330
17
100
AcDbEntity
  8
0
100
AcDbPolyline
 90
129
 70
0
 10
-4.491819344262296
 20
0.8243724590163942
 10
-4.494222474955575
 20
0.811431286245878
 10
-4.4965880293449025
 20
0.7984840825515508
 10
-4.4989159988453356
 20
0.7855309294903873
 10
-4.501206374871926
 20
0.772571908619366
 10
-4.503459148839732
 20
0.7596071014954622
 10
-4.505674312163807
 20
0.7466365896756536
 10
-4.507851856259205
 20
0.7336604547169178
 10
-4.509991772540984
 20
0.7206787781762304
 10
-4.512094052424197
 20
0.7076916416105681
 10
-4.514158687323899
 20
0.6946991265769096
 10
-4.516185668655146
 20
0.6817013146322285
 10
-4.518174987832992
 20
0.6686982873335056
 10
-4.520126636272494
 20
0.6556901262377133
 10
-4.522040605388704
 20
0.6426769129018325
 10
-4.52391688659668
 20
0.6296587288828378
 10
-4.525755471311476
 20
0.6166356557377057
 10
-4.527556350948146
 20
0.6036077750234152
 10
-4.529319516921747
 20
0.5905751682969396
 10
-4.531044960647333
 20
0.5775379171152598
 10
-4.53273267353996
 20
0.5644961030353494
 10
-4.534382647014681
 20
0.5514498076141859
 10
-4.535994872486553
 20
0.5383991124087483
 10
-4.53756934137063
 20
0.5253440989760099
 10
-4.539106045081967
 20
0.5122848488729516
 10
-4.540604975035621
 20
0.49922144365654686
 10
-4.542066122646645
 20
0.48615396488377455
 10
-4.543489479330094
 20
0.47308249411160924
 10
-4.544875036501025
 20
0.46000711289702956
 10
-4.546222785574491
 20
0.4469279027970122
 10
-4.547532717965549
 20
0.43384494536853285
 10
-4.548804825089252
 20
0.4207583221685701
 10
-4.5500390983606565
 20
0.4076681147540997
 10
-4.551235529194817
 20
0.3945744046820972
 10
-4.552394109006788
 20
0.38147727350954236
 10
-4.553514829211626
 20
0.3683768027934088
 10
-4.554597681224386
 20
0.35527307409067616
 10
-4.555642656460122
 20
0.34216616895832114
 10
-4.556649746333888
 20
0.3290561689533184
 10
-4.557618942260743
 20
0.3159431556326455
 10
-4.558550235655738
 20
0.30282721055328027
 10
-4.559443617933931
 20
0.2897084152721972
 10
-4.560299080510374
 20
0.2765868513463761
 10
-4.561116614800126
 20
0.26346260033279256
 10
-4.5618962122182385
 20
0.2503357437884232
 10
-4.562637864179768
 20
0.2372063632702448
 10
-4.56334156209977
 20
0.22407454033523388
 10
-4.564007297393299
 20
0.21094035654036816
 10
-4.5646350614754105
 20
0.19780389344262433
 10
-4.565224845761159
 20
0.184665232598977
 10
-4.5657766416656
 20
0.17152445556640689
 10
-4.566290440603788
 20
0.1583816439018886
 10
-4.566766233990779
 20
0.1452368791623978
 10
-4.567204013241628
 20
0.1320902429049142
 10
-4.567603769771388
 20
0.1189418166864124
 10
-4.567965494995118
 20
0.10579168206386907
 10
-4.568289180327869
 20
0.09263992059426292
 10
-4.5685748171846985
 20
0.07948661383456854
 10
-4.568822396980662
 20
0.06633184334176465
 10
-4.5690319111308115
 20
0.053175690672827895
 10
-4.569203351050205
 20
0.040018237384733917
 10
-4.569336708153897
 20
0.026859565034459368
 10
-4.569431973856942
 20
0.013699755178983976
 10
-4.5694891395743955
 20
0.0005388893752813258
 10
-4.569508196721312
 20
-0.012622950819671927
 10
-4.569489156476005
 20
-0.02578479092519818
 10
-4.569432040390265
 20
-0.038945656102914915
 10
-4.569336855439358
 20
-0.05210546425928759
 10
-4.569203608598554
 20
-0.06526413330078062
 10
-4.569032306843117
 20
-0.07842158113385743
 10
-4.568822957148318
 20
-0.09157772566498346
 10
-4.568575566489423
 20
-0.10473248480062004
 10
-4.568290141841701
 20
-0.11788577644723267
 10
-4.56796669018042
 20
-0.13103751851128678
 10
-4.567605218480845
 20
-0.14418762889924577
 10
-4.5672057337182475
 20
-0.15733602551757303
 10
-4.566768242867893
 20
-0.17048262627273303
 10
-4.566292752905048
 20
-0.18362734907118913
 10
-4.565779270804984
 20
-0.19677011181940784
 10
-4.5652278035429665
 20
-0.2099108324238505
 10
-4.564638358094263
 20
-0.2230494287909836
 10
-4.564010941434141
 20
-0.2361858188272695
 10
-4.56334556053787
 20
-0.2493199204391716
 10
-4.562642222380717
 20
-0.2624516515331574
 10
-4.561900933937949
 20
-0.2755809300156883
 10
-4.561121702184834
 20
-0.2887076737932297
 10
-4.56030453409664
 20
-0.30183180077224403
 10
-4.559449436648635
 20
-0.3149532288591977
 10
-4.558556416816087
 20
-0.3280718759605521
 10
-4.557625481574262
 20
-0.3411876599827748
 10
-4.55665663789843
 20
-0.354300498832326
 10
-4.555649892763857
 20
-0.3674103104156743
 10
-4.554605253145812
 20
-0.38051701263928
 10
-4.553522726019563
 20
-0.39362052340960757
 10
-4.552402318360376
 20
-0.4067207606331235
 10
-4.551244037143521
 20
-0.41981764221629114
 10
-4.550047889344262
 20
-0.4329110860655729
 10
-4.548813881937871
 20
-0.4460010100874352
 10
-4.5475420218996145
 20
-0.45908733218834047
 10
-4.546232316204759
 20
-0.47216997027475316
 10
-4.544884771828573
 20
-0.4852488422531377
 10
-4.543499395746325
 20
-0.4983238660299574
 10
-4.542076194933282
 20
-0.5113949595116788
 10
-4.540615176364712
 20
-0.5244620406047633
 10
-4.539116347015882
 20
-0.5375250272156753
 10
-4.53757971386206
 20
-0.5505838372508802
 10
-4.536005283878515
 20
-0.5636383886168425
 10
-4.534393064040513
 20
-0.5766885992200256
 10
-4.532743061323323
 20
-0.5897343869668917
 10
-4.531055282702212
 20
-0.6027756697639075
 10
-4.529329735152448
 20
-0.6158123655175375
 10
-4.527566425649299
 20
-0.6288443921342438
 10
-4.525765361168033
 20
-0.641871667520491
 10
-4.523926548683917
 20
-0.6548941095827444
 10
-4.522049995172219
 20
-0.6679116362274656
 10
-4.520135707608208
 20
-0.6809241653611219
 10
-4.518183692967149
 20
-0.6939316148901759
 10
-4.516193958224313
 20
-0.7069339027210917
 10
-4.514166510354965
 20
-0.719930946760334
 10
-4.512101356334375
 20
-0.732922664914365
 10
-4.509998503137807
 20
-0.7459089750896503
 10
-4.507857957740534
 20
-0.7588897951926553
 10
-4.50567972711782
 20
-0.7718650431298424
 10
-4.503463818244935
 20
-0.7848346368076748
 10
-4.501210238097144
 20
-0.7977984941326194
 10
-4.498918993649718
 20
-0.8107565330111393
 10
-4.4965900918779225
 20
-0.8237086713496968
 10
-4.494223539757026
 20
-0.8366548270547576
 10
-4.491819344262296
 20
-0.849594918032786
  0
LWPOLYLINE
  5
3A
330
17
100
AcDbEntity
  8
0
100
AcDbPolyline
 90
65
 70
0
 10
-2.698107049180328
 20
0.7211311475409838
 10
-2.6483320692325028
 20
0.7226156577382321
 10
-2.5988735899127895
 20
0.7253166980931017
 10
-2.549746127826503
 20
0.729219752000278
 10
-2.500964199578957
 20
0.7343103028544442
 10
-2.452542321775468
 20
0.740573834050288
 10
-2.4044950110213485
 20
0.7479958289824946
 10
-2.3568367839219144
 20
0.7565617710457475
 10
-2.309582157082479
 20
0.766257143634734
 10
-2.26274564710836
 20
0.7770674301441386
 10
-2.2163417706048683
 20
0.7889781139686465
 10
-2.170385044177322
 20
0.8019746785029438
 10
-2.1248899844310327
 20
0.8160426071417144
 10
-2.0798711079713166
 20
0.8311673832796445
 10
-2.0353429314034885
 20
0.8473344903114196
 10
-1.9913199713328629
 20
0.8645294116317257
 10
-1.947816744364754
 20
0.882737630635246
 10
-1.9048477671044777
 20
0.9019446307166681
 10
-1.8624275561573467
 20
0.9221358952706763
 10
-1.8205706281286773
 20
0.943296907691956
 10
-1.779291499623784
 20
0.9654131513751925
 10
-1.73860468724798
 20
0.9884701097150718
 10
-1.6985247076065813
 20
1.0124532661062777
 10
-1.6590660773049029
 20
1.0373481039434973
 10
-1.6202433129482587
 20
1.0631401066214152
 10
-1.5820709311419623
 20
1.0898147575347161
 10
-1.5445634484913315
 20
1.1173575400780855
 10
-1.5077353816016772
 20
1.1457539376462098
 10
-1.4716012470783177
 20
1.174989433633774
 10
-1.4361755615265646
 20
1.205049511435463
 10
-1.401472841551734
 20
1.2359196544459619
 10
-1.3675076037591407
 20
1.2675853460599567
 10
-1.3342943647540983
 20
1.3000320696721324
 10
-1.3018476411419229
 20
1.3332453086771743
 10
-1.2701819495279276
 20
1.3672105464697681
 10
-1.2393118065174291
 20
1.4019132664445981
 10
-1.2092517287157398
 20
1.437338951996351
 10
-1.1800162327281762
 20
1.4734730865197114
 10
-1.151619835160052
 20
1.5103011534093653
 10
-1.1240770526166823
 20
1.5478086360599965
 10
-1.0974024017033814
 20
1.5859810178662925
 10
-1.0716103990254635
 20
1.6248037822229362
 10
-1.0467155611882444
 20
1.664262412524616
 10
-1.0227324047970385
 20
1.7043423921660141
 10
-0.9996754464571592
 20
1.7450292045418172
 10
-0.9775592027739233
 20
1.7863083330467115
 10
-0.9563981903526436
 20
1.8281652610753805
 10
-0.936206925798635
 20
1.8705854720225104
 10
-0.9169999257172123
 20
1.9135544492827883
 10
-0.8987917067136926
 20
1.957057676250896
 10
-0.8815967853933875
 20
2.001080636321522
 10
-0.8654296783616118
 20
2.0456088128893506
 10
-0.8503049022236812
 20
2.090627689349066
 10
-0.8362369735849101
 20
2.1361227490953554
 10
-0.8232404090506134
 20
2.1820794755229023
 10
-0.8113297252261054
 20
2.228483352026393
 10
-0.8005194387167008
 20
2.275319862000513
 10
-0.7908240661277143
 20
2.322574488839948
 10
-0.7822581240644614
 20
2.3702327159393817
 10
-0.7748361291322547
 20
2.418280026693501
 10
-0.7685725979364111
 20
2.466701904496991
 10
-0.7634820470822448
 20
2.515483832744537
 10
-0.7595789931750685
 20
2.5646112948308226
 10
-0.7568779528201989
 20
2.6140697741505368
 10
-0.7553934426229506
 20
2.663844754098361
  0
LWPOLYLINE
  5
3B
330
17
100
AcDbEntity
  8
0
100
AcDbPolyline
 90
65
 70
0
 10
0.7121147540983609
 20
-2.6890906557377052
 10
0.7135992642956092
 20
-2.6393156757898804
 10
0.7163003046504788
 20
-2.5898571964701675
 10
0.7202033585576549
 20
-2.54072973438388
 10
0.7252939094118213
 20
-2.4919478061363347
 10
0.731557440607665
 20
-2.443525928332845
 10
0.7389794355398707
 20
-2.395478617578724
 10
0.7475453776031246
 20
-2.347820390479291
 10
0.757240750192111
 20
-2.3005657636398564
 10
0.7680510367015156
 20
-2.253729253665737
 10
0.7799617205260225
 20
-2.207325377162246
 10
0.7929582850603204
 20
-2.161368650734698
 10
0.8070262136990903
 20
-2.1158735909884103
 10
0.8221509898370221
 20
-2.0708547145286933
 10
0.8383180968687967
 20
-2.026326537960866
 10
0.8555130181891017
 20
-1.98230357789024
 10
0.8737212371926236
 20
-1.9388003509221312
 10
0.8929282372740457
 20
-1.8958313736618542
 10
0.9131195018280543
 20
-1.8534111627147247
 10
0.934280514249334
 20
-1.8115542346860543
 10
0.95639675793257
 20
-1.7702751061811606
 10
0.9794537162724488
 20
-1.729588293805358
 10
1.0034368726636547
 20
-1.6895083141639582
 10
1.0283317105008731
 20
-1.65004968386228
 10
1.0541237131787917
 20
-1.611226919505636
 10
1.0807983640920935
 20
-1.5730545376993392
 10
1.1083411466354622
 20
-1.5355470550487091
 10
1.136737544203587
 20
-1.4987189881590557
 10
1.1659730401911501
 20
-1.4625848536356938
 10
1.1960331179928394
 20
-1.427159168083941
 10
1.226903261003338
 20
-1.392456448109111
 10
1.2585689526173331
 20
-1.3584912103165172
 10
1.2910156762295075
 20
-1.3252779713114753
 10
1.3242289152345503
 20
-1.2928312476993
 10
1.3581941530271442
 20
-1.2611655560853057
 10
1.3928968730019753
 20
-1.230295413074806
 10
1.428322558553728
 20
-1.2002353352731179
 10
1.4644566930770888
 20
-1.1709998392855536
 10
1.5012847599667403
 20
-1.142603441717429
 10
1.5387922426173735
 20
-1.1150606591740593
 10
1.576964624423669
 20
-1.0883860082607586
 10
1.6157873887803123
 20
-1.0625940055828411
 10
1.6552460190819915
 20
-1.0376991677456215
 10
1.6953259987233902
 20
-1.0137160113544157
 10
1.7360128110991937
 20
-0.9906590530145357
 10
1.7772919396040865
 20
-0.9685428093312998
 10
1.819148867632757
 20
-0.9473817969100211
 10
1.8615690785798875
 20
-0.9271905323560115
 10
1.9045380558401643
 20
-0.9079835322745894
 10
1.9480412828082743
 20
-0.8897753132710696
 10
1.992064242878899
 20
-0.8725803919507645
 10
2.036592419446727
 20
-0.8564132849189888
 10
2.081611295906442
 20
-0.8412885087810582
 10
2.127106355652731
 20
-0.8272205801422882
 10
2.173063082080278
 20
-0.8142240156079904
 10
2.2194669585837703
 20
-0.8023133317834824
 10
2.2663034685578896
 20
-0.7915030452740779
 10
2.3135580953973243
 20
-0.7818076726850913
 10
2.3612163224967593
 20
-0.7732417306218384
 10
2.409263633250878
 20
-0.7658197356896329
 10
2.457685511054367
 20
-0.7595562044937881
 10
2.5064674393019133
 20
-0.7544656536396218
 10
2.5555949013882
 20
-0.7505625997324465
 10
2.6050533807079126
 20
-0.7478615593775759
 10
2.6548283606557384
 20
-0.7463770491803277
  0
LWPOLYLINE
  5
3C
330
17
100
AcDbEntity
  8
0
100
AcDbPolyline
 90
65
 70
0
 10
3.3943727868852474
 20
2.039919344262295
 10
3.378524895023285
 20
2.066067212670748
 10
3.362484336607887
 20
2.0920807642502077
 10
3.346252052763643
 20
2.117959057876086
 10
3.3298289846151397
 20
2.143701152423796
 10
3.313216073286964
 20
2.1693061067687482
 10
3.296414259903706
 20
2.1947729797863564
 10
3.2794244855899497
 20
2.2201008303520324
 10
3.262247691470288
 20
2.2452887173411877
 10
3.2448848186693042
 20
2.270335699629236
 10
3.2273368083115885
 20
2.2952408360915886
 10
3.2096046015217268
 20
2.3200031856036576
 10
3.191689139424309
 20
2.3446218070408547
 10
3.173591363143922
 20
2.3690957592785944
 10
3.1553122138051535
 20
2.3934241011922865
 10
3.13685263253259
 20
2.4176058916573444
 10
3.1182135604508203
 20
2.4416401895491804
 10
3.0993959386844323
 20
2.4655260537432064
 10
3.080400708358014
 20
2.4892625431148336
 10
3.061228810596154
 20
2.512848716539477
 10
3.0418811865234385
 20
2.5362836328925464
 10
3.0223587772644556
 20
2.5595663510494546
 10
3.002662523943792
 20
2.582695929885614
 10
2.9827933676860363
 20
2.6056714282764366
 10
2.962752249615779
 20
2.628491905097336
 10
2.9425401108576037
 20
2.6511564192237227
 10
2.9221578925361
 20
2.6736640295310097
 10
2.901606535775857
 20
2.6960137948946095
 10
2.8808869817014586
 20
2.718204774189933
 10
2.8600001714374987
 20
2.7402360262923944
 10
2.8389470461085575
 20
2.7621066100774048
 10
2.817728546839231
 20
2.783815584420376
 10
2.796345614754098
 20
2.805362008196721
 10
2.774799190977753
 20
2.8267449402818516
 10
2.7530902166347824
 20
2.847963439551182
 10
2.7312196328497715
 20
2.869016564880121
 10
2.70918838074731
 20
2.8899033751440832
 10
2.6869974014519866
 20
2.91062292921848
 10
2.664647636088387
 20
2.9311742859787238
 10
2.6421400257810994
 20
2.951556504300227
 10
2.619475511654714
 20
2.971768643058402
 10
2.596655034833813
 20
2.9918097611286605
 10
2.573679536442991
 20
3.0116789173864147
 10
2.550549957606831
 20
3.0313751707070775
 10
2.527267239449923
 20
3.0508975799660605
 10
2.5038323230968533
 20
3.070245204038777
 10
2.480246149672212
 20
3.0894171018006373
 10
2.4565096603005836
 20
3.1084123321270556
 10
2.4326237961065584
 20
3.127229953893443
 10
2.408589498214721
 20
3.1458690259752125
 10
2.384407707749664
 20
3.164328607247776
 10
2.3600793658359702
 20
3.1826077565865445
 10
2.335605413598233
 20
3.200705532866932
 10
2.3109867921610343
 20
3.2186209949643505
 10
2.286224442648965
 20
3.2363532017542114
 10
2.261319306186613
 20
3.2539012121119275
 10
2.236272323898565
 20
3.271264084912911
 10
2.211084436909409
 20
3.288440879032574
 10
2.1857565863437336
 20
3.3054306533463285
 10
2.1602897133261254
 20
3.322232466729587
 10
2.134684758981173
 20
3.3388453780577625
 10
2.1089426644334632
 20
3.3552684462062663
 10
2.083064370807585
 20
3.3715007300505104
 10
2.057050819228125
 20
3.3875412884659077
 10
2.030902950819672
 20
3.4033891803278706
  0
LWPOLYLINE
  5
3D
330
17
100
AcDbEntity
  8
0
100
AcDbPolyline
 90
65
 70
0
 10
-3.4376514754098357
 20
-2.06516524590164
 10
-3.4218035835478733
 20
-2.091313114310093
 10
-3.405763025132476
 20
-2.1173266658895527
 10
-3.3895307412882314
 20
-2.143204959515431
 10
-3.373107673139728
 20
-2.16894705406314
 10
-3.356494761811553
 20
-2.194552008408093
 10
-3.3396929484282945
 20
-2.2200188814257014
 10
-3.3227031741145394
 20
-2.2453467319913774
 10
-3.305526379994877
 20
-2.2705346189805327
 10
-3.288163507193893
 20
-2.2955816012685815
 10
-3.2706154968361774
 20
-2.320486737730934
 10
-3.2528832900463165
 20
-2.345249087243002
 10
-3.2349678279488985
 20
-2.3698677086801996
 10
-3.216870051668511
 20
-2.394341660917938
 10
-3.198590902329742
 20
-2.418670002831632
 10
-3.180131321057179
 20
-2.442851793296689
 10
-3.16149224897541
 20
-2.4668860911885253
 10
-3.142674627209022
 20
-2.4907719553825505
 10
-3.123679396882604
 20
-2.514508444754179
 10
-3.1045074991207433
 20
-2.538094618178821
 10
-3.0851598750480274
 20
-2.56152953453189
 10
-3.065637465789044
 20
-2.584812252688799
 10
-3.045941212468382
 20
-2.607941831524957
 10
-3.026072056210627
 20
-2.630917329915782
 10
-3.0060309381403685
 20
-2.653737806736681
 10
-2.9858187993821934
 20
-2.6764023208630685
 10
-2.965436581060691
 20
-2.6989099311703537
 10
-2.9448852243004473
 20
-2.7212596965339535
 10
-2.92416567022605
 20
-2.7434506758292767
 10
-2.903278859962088
 20
-2.765481927931738
 10
-2.882225734633149
 20
-2.7873525117167492
 10
-2.8610072353638194
 20
-2.80906148605972
 10
-2.8396243032786885
 20
-2.830607909836065
 10
-2.818077879502343
 20
-2.8519908419211957
 10
-2.7963689051593716
 20
-2.8732093411905244
 10
-2.7744983213743617
 20
-2.8942624665194647
 10
-2.752467069271901
 20
-2.9151492767834277
 10
-2.730276089976577
 20
-2.935868830857825
 10
-2.707926324612977
 20
-2.956420187618068
 10
-2.6854187143056905
 20
-2.9768024059395706
 10
-2.6627542001793034
 20
-2.997014544697745
 10
-2.639933723358404
 20
-3.017055662768004
 10
-2.6169582249675813
 20
-3.0369248190257583
 10
-2.593828646131422
 20
-3.05662107234642
 10
-2.570545927974513
 20
-3.0761434816054054
 10
-2.5471110116214444
 20
-3.095491105678121
 10
-2.523524838196802
 20
-3.114663003439982
 10
-2.4997883488251738
 20
-3.1336582337663983
 10
-2.4759024846311477
 20
-3.152475855532785
 10
-2.4518681867393117
 20
-3.1711149276145547
 10
-2.4276863962742548
 20
-3.189574508887118
 10
-2.403358054360562
 20
-3.207853658225888
 10
-2.378884102122823
 20
-3.225951434506276
 10
-2.354265480685625
 20
-3.2438668966036928
 10
-2.3295031311735563
 20
-3.261599103393554
 10
-2.304597994711204
 20
-3.279147113751271
 10
-2.2795510124231555
 20
-3.296509986552254
 10
-2.2543631254340006
 20
-3.3136867806719166
 10
-2.229035274868324
 20
-3.33067655498567
 10
-2.2035684018507165
 20
-3.34747836836893
 10
-2.1779634475057637
 20
-3.3640912796971056
 10
-2.1522213529580547
 20
-3.3805143478456086
 10
-2.1263430593321755
 20
-3.3967466316898527
 10
-2.1003295077527158
 20
-3.4127871901052496
 10
-2.0741816393442627
 20
-3.4286350819672125
  0
LWPOLYLINE
  5
3E
330
17
100
AcDbEntity
  8
0
100
AcDbPolyline
 90
65
 70
0
 10
-0.0911936065573769
 20
3.9720134426229516
 10
-0.12176237230394646
 20
3.971362280362865
 10
-0.1523111372750702
 20
3.9704771273803714
 10
-0.18283861587524364
 20
3.969358327609829
 10
-0.21334352250896524
 20
3.9680062249855927
 10
-0.24382457158073054
 20
3.9664211634420186
 10
-0.2742804774950371
 20
3.9646034869134628
 10
-0.3047099546563813
 20
3.962553539334282
 10
-0.3351117174692618
 20
3.960271664638833
 10
-0.3654844803381751
 20
3.9577582067614707
 10
-0.39582695766761555
 20
3.9550135096365513
 10
-0.42613786386208385
 20
3.952037917198432
 10
-0.4564159133260755
 20
3.948831773381469
 10
-0.4866598204640879
 20
3.9453954221200163
 10
-0.5168682996806157
 20
3.9417292073484327
 10
-0.5470400653801593
 20
3.9378334730010742
 10
-0.5771738319672132
 20
3.9337085630122957
 10
-0.6072683138462749
 20
3.929354821316454
 10
-0.637322225421843
 20
3.9247725918479053
 10
-0.6673342810984132
 20
3.919962218541005
 10
-0.6973031952804816
 20
3.914924045330111
 10
-0.727227682372546
 20
3.9096584161495778
 10
-0.7571064567791048
 20
3.9041656749337625
 10
-0.7869382329046525
 20
3.8984461656170204
 10
-0.8167217251536877
 20
3.8925002321337097
 10
-0.8464556479307079
 20
3.886328218418184
 10
-0.8761387156402086
 20
3.8799304684048015
 10
-0.9057696426866878
 20
3.873307326027918
 10
-0.9353471434746414
 20
3.8664591352218887
 10
-0.9648699324085677
 20
3.85938623992107
 10
-0.9943367238929629
 20
3.8520889840598187
 10
-1.0237462323323236
 20
3.844567711572491
 10
-1.0530971721311475
 20
3.8368227663934436
 10
-1.0823882576939319
 20
3.828854492457031
 10
-1.1116182034251736
 20
3.8206632336976107
 10
-1.1407857237293682
 20
3.812249334049538
 10
-1.1698895330110144
 20
3.8036131374471704
 10
-1.1989283456746087
 20
3.7947549878248625
 10
-1.2279008761246477
 20
3.785675229116972
 10
-1.2568058387656291
 20
3.776374205257854
 10
-1.285641948002049
 20
3.766852260181865
 10
-1.314407918238405
 20
3.7571097378233618
 10
-1.3431024638791942
 20
3.7471469821166994
 10
-1.3717242993289132
 20
3.7369643369962353
 10
-1.4002721389920598
 20
3.7265621463963243
 10
-1.4287446972731292
 20
3.7159407542513243
 10
-1.4571406885766205
 20
3.7051005044955896
 10
-1.485458827307029
 20
3.694041741063478
 10
-1.5136978278688533
 20
3.6827648078893445
 10
-1.5418564046665884
 20
3.6712700489075463
 10
-1.569933272104732
 20
3.6595578080524387
 10
-1.5979271445877827
 20
3.6476284292583783
 10
-1.6258367365202357
 20
3.635482256459721
 10
-1.653660762306589
 20
3.623119633590824
 10
-1.681397936351339
 20
3.6105409045860415
 10
-1.709046973058982
 20
3.597746413379732
 10
-1.736606586834017
 20
3.5847365039062504
 10
-1.764075492080939
 20
3.571511520099953
 10
-1.7914524032042456
 20
3.5580718058951963
 10
-1.8187360346084342
 20
3.544417705226336
 10
-1.8459251006980026
 20
3.530549562027728
 10
-1.8730183158774463
 20
3.51646772023373
 10
-1.9000143945512622
 20
3.502172523778697
 10
-1.926912051123948
 20
3.487664316596985
 10
-1.9537100000000005
 20
3.4729434426229515
  0
LWPOLYLINE
  5
3F
330
17
100
AcDbEntity
  8
0
100
AcDbPolyline
 90
65
 70
0
 10
0.04791491803278714
 20
-3.9972593442622952
 10
0.0784836837793567
 20
-3.9966081820022086
 10
0.10903244875048046
 20
-3.9957230290197154
 10
0.13955992735065387
 20
-3.9946042292491732
 10
0.1700648339843755
 20
-3.9932521266249363
 10
0.2005458830561408
 20
-3.9916670650813626
 10
0.23100178897044732
 20
-3.989849388552808
 10
0.2614312661317926
 20
-3.987799440973625
 10
0.29183302894467206
 20
-3.9855175662781765
 10
0.32220579181358533
 20
-3.9830041084008134
 10
0.3525482691430258
 20
-3.9802594112758953
 10
0.38285917533749514
 20
-3.977283818837776
 10
0.41313722480148574
 20
-3.9740776750208116
 10
0.44338113193949713
 20
-3.9706413237593625
 10
0.4735896111560259
 20
-3.9669751089877776
 10
0.5037613768555694
 20
-3.9630793746404183
 10
0.5338951434426233
 20
-3.9589544646516392
 10
0.5639896253216862
 20
-3.954600722955797
 10
0.5940435368972533
 20
-3.9500184934872475
 10
0.6240555925738234
 20
-3.945208120180349
 10
0.6540245067558919
 20
-3.9401699469694544
 10
0.6839489938479573
 20
-3.934904317788921
 10
0.713827768254515
 20
-3.929411576573106
 10
0.7436595443800638
 20
-3.9236920672563653
 10
0.773443036629099
 20
-3.9177461337730537
 10
0.8031769594061181
 20
-3.911574120057528
 10
0.8328600271156198
 20
-3.905176370044147
 10
0.8624909541620985
 20
-3.898553227667262
 10
0.8920684549500517
 20
-3.8917050368612314
 10
0.9215912438839778
 20
-3.8846321415604135
 10
0.9510580353683726
 20
-3.8773348856991636
 10
0.9804675438077344
 20
-3.8698136132118357
 10
1.0098184836065567
 20
-3.8620686680327863
 10
1.0391095691693422
 20
-3.854100394096375
 10
1.0683395149005843
 20
-3.8459091353369534
 10
1.0975070352047773
 20
-3.8374952356888823
 10
1.126610844486424
 20
-3.828859039086513
 10
1.155649657150019
 20
-3.820000889464207
 10
1.1846221876000587
 20
-3.8109211307563164
 10
1.2135271502410392
 20
-3.8016201068971984
 10
1.2423632594774596
 20
-3.7920981618212086
 10
1.2711292297138153
 20
-3.7823556394627063
 10
1.2998237753546054
 20
-3.7723928837560443
 10
1.3284456108043239
 20
-3.7622102386355802
 10
1.35699345046747
 20
-3.751808048035668
 10
1.3854660087485386
 20
-3.7411866558906683
 10
1.4138620000520297
 20
-3.730346406134934
 10
1.4421801387824393
 20
-3.7192876427028216
 10
1.4704191393442625
 20
-3.708010709528689
 10
1.498577716141997
 20
-3.6965159505468894
 10
1.5266545835801424
 20
-3.6848037096917827
 10
1.554648456063193
 20
-3.6728743308977223
 10
1.5825580479956456
 20
-3.660728158099065
 10
1.6103820737819985
 20
-3.648365535230168
 10
1.6381192478267481
 20
-3.6357868062253855
 10
1.665768284534391
 20
-3.6229923150190766
 10
1.6933278983094262
 20
-3.609982405545595
 10
1.7207968035563475
 20
-3.596757421739296
 10
1.7481737146796548
 20
-3.58331770753454
 10
1.7754573460838436
 20
-3.569663606865679
 10
1.8026464121734123
 20
-3.555795463667072
 10
1.8297396273528554
 20
-3.541713621873074
 10
1.8567357060266716
 20
-3.527418425418041
 10
1.883633362599357
 20
-3.512910218236329
 10
1.9104313114754097
 20
-3.498189344262295
  0
LWPOLYLINE
  5
40
330
17
100
AcDbEntity
  8
0
100
AcDbPolyline
 90
65
 70
0
 10
-2.698107049180328
 20
-4.700842786885246
 10
-2.6483320692325028
 20
-4.699358276598569
 10
-2.5988735899127895
 20
-4.696657235617715
 10
-2.549746127826503
 20
-4.692754180011436
 10
-2.500964199578957
 20
-4.68766362584849
 10
-2.452542321775468
 20
-4.681400089197627
 10
-2.4044950110213485
 20
-4.673978086127609
 10
-2.3568367839219144
 20
-4.665412132707188
 10
-2.309582157082479
 20
-4.6557167450051224
 10
-2.26274564710836
 20
-4.644906439090164
 10
-2.2163417706048683
 20
-4.632995731031074
 10
-2.170385044177322
 20
-4.6199991368966025
 10
-2.1248899844310327
 20
-4.605931172755509
 10
-2.0798711079713166
 20
-4.590806354676543
 10
-2.0353429314034885
 20
-4.574639198728468
 10
-1.9913199713328629
 20
-4.5574442209800345
 10
-1.947816744364754
 20
-4.539235937500003
 10
-1.9048477671044777
 20
-4.520028864357119
 10
-1.8624275561573467
 20
-4.499837517620149
 10
-1.8205706281286773
 20
-4.478676413357846
 10
-1.779291499623784
 20
-4.45656006763896
 10
-1.73860468724798
 20
-4.433502996532254
 10
-1.6985247076065813
 20
-4.409519716106478
 10
-1.6590660773049029
 20
-4.384624742430391
 10
-1.6202433129482587
 20
-4.358832591572747
 10
-1.5820709311419623
 20
-4.332157779602301
 10
-1.5445634484913315
 20
-4.30461482258781
 10
-1.5077353816016772
 20
-4.276218236598031
 10
-1.4716012470783177
 20
-4.246982537701718
 10
-1.4361755615265646
 20
-4.216922241967625
 10
-1.401472841551734
 20
-4.186051865464508
 10
-1.3675076037591407
 20
-4.154385924261126
 10
-1.3342943647540983
 20
-4.12193893442623
 10
-1.3018476411419229
 20
-4.088725412028579
 10
-1.2701819495279276
 20
-4.054759873136927
 10
-1.2393118065174291
 20
-4.02005683382003
 10
-1.2092517287157398
 20
-3.984630810146645
 10
-1.1800162327281762
 20
-3.948496318185526
 10
-1.151619835160052
 20
-3.911667874005426
 10
-1.1240770526166823
 20
-3.8741599936751077
 10
-1.0974024017033814
 20
-3.8359871932633194
 10
-1.0716103990254635
 20
-3.797163988838822
 10
-1.0467155611882444
 20
-3.7577048964703677
 10
-1.0227324047970385
 20
-3.7176244322267133
 10
-0.9996754464571592
 20
-3.6769371121766135
 10
-0.9775592027739233
 20
-3.635657452388826
 10
-0.9563981903526436
 20
-3.5937999689321045
 10
-0.936206925798635
 20
-3.551379177875207
 10
-0.9169999257172123
 20
-3.5084095952868855
 10
-0.8987917067136926
 20
-3.4649057372358985
 10
-0.8815967853933875
 20
-3.4208821197909995
 10
-0.8654296783616118
 20
-3.376353259020947
 10
-0.8503049022236812
 20
-3.3313336709944927
 10
-0.8362369735849101
 20
-3.2858378717803967
 10
-0.8232404090506134
 20
-3.23988037744741
 10
-0.8113297252261054
 20
-3.1934757040642916
 10
-0.8005194387167008
 20
-3.1466383676997958
 10
-0.7908240661277143
 20
-3.099382884422678
 10
-0.7822581240644614
 20
-3.0517237703016944
 10
-0.7748361291322547
 20
-3.0036755414055993
 10
-0.7685725979364111
 20
-2.955252713803151
 10
-0.7634820470822448
 20
-2.9064698035631022
 10
-0.7595789931750685
 20
-2.857341326754211
 10
-0.7568779528201989
 20
-2.80788179944523
 10
-0.7553934426229506
 20
-2.758105737704918
  0
LWPOLYLINE
  5
41
330
17
100
AcDbEntity
  8
0
100
AcDbPolyline
 90
65
 70
0
 10
2.6548283606557384
 20
4.675596885245902
 10
2.6050533807079126
 20
4.674112374959226
 10
2.5555949013882
 20
4.671411333978372
 10
2.5064674393019146
 20
4.667508278372092
 10
2.457685511054368
 20
4.662417724209144
 10
2.409263633250878
 20
4.6561541875582835
 10
2.3612163224967593
 20
4.648732184488266
 10
2.3135580953973234
 20
4.640166231067845
 10
2.2663034685578896
 20
4.630470843365779
 10
2.219466958583769
 20
4.619660537450822
 10
2.173063082080278
 20
4.6077498293917305
 10
2.127106355652731
 20
4.594753235257258
 10
2.081611295906442
 20
4.580685271116163
 10
2.036592419446727
 20
4.5655604530372
 10
1.992064242878899
 20
4.549393297089123
 10
1.9480412828082743
 20
4.532198319340691
 10
1.9045380558401643
 20
4.513990035860656
 10
1.8615690785798875
 20
4.4947829627177756
 10
1.819148867632757
 20
4.474591615980806
 10
1.7772919396040865
 20
4.4534305117185005
 10
1.7360128110991937
 20
4.431314165999616
 10
1.6953259987233902
 20
4.4082570948929085
 10
1.6552460190819915
 20
4.384273814467133
 10
1.6157873887803123
 20
4.359378840791046
 10
1.576964624423669
 20
4.333586689933402
 10
1.5387922426173735
 20
4.306911877962958
 10
1.5012847599667403
 20
4.2793689209484675
 10
1.4644566930770888
 20
4.250972334958687
 10
1.428322558553728
 20
4.2217366360623725
 10
1.3928968730019753
 20
4.1916763403282795
 10
1.3581941530271442
 20
4.160805963825164
 10
1.3242289152345503
 20
4.129140022621781
 10
1.2910156762295084
 20
4.096693032786886
 10
1.2585689526173331
 20
4.063479510389235
 10
1.226903261003338
 20
4.029513971497583
 10
1.1960331179928394
 20
3.9948109321806866
 10
1.1659730401911501
 20
3.959384908507301
 10
1.136737544203587
 20
3.923250416546181
 10
1.1083411466354622
 20
3.886421972366084
 10
1.0807983640920935
 20
3.8489140920357636
 10
1.0541237131787917
 20
3.8107412916239767
 10
1.0283317105008731
 20
3.771918087199478
 10
1.0034368726636547
 20
3.7324589948310236
 10
0.9794537162724488
 20
3.6923785305873693
 10
0.956396757932569
 20
3.6516912105372707
 10
0.934280514249333
 20
3.610411550749483
 10
0.9131195018280543
 20
3.568554067292762
 10
0.8929282372740457
 20
3.526133276235863
 10
0.8737212371926226
 20
3.4831636936475423
 10
0.8555130181891027
 20
3.439659835596555
 10
0.8383180968687967
 20
3.395636218151657
 10
0.8221509898370221
 20
3.351107357381603
 10
0.8070262136990914
 20
3.30608776935515
 10
0.7929582850603204
 20
3.2605919701410526
 10
0.7799617205260235
 20
3.2146344758080665
 10
0.7680510367015156
 20
3.168229802424948
 10
0.757240750192111
 20
3.121392466060452
 10
0.7475453776031246
 20
3.0741369827833345
 10
0.7389794355398707
 20
3.026477868662351
 10
0.731557440607666
 20
2.978429639766257
 10
0.7252939094118213
 20
2.930006812163808
 10
0.7202033585576539
 20
2.8812239019237595
 10
0.7163003046504788
 20
2.8320954251148676
 10
0.7135992642956092
 20
2.782635897805888
 10
0.7121147540983609
 20
2.7328598360655754
  0
LWPOLYLINE
  5
42
330
17
100
AcDbEntity
  8
0
100
AcDbPolyline
 90
65
 70
0
 10
-2.7326145901639345
 20
0.7208263934426228
 10
-2.681574324278284
 20
0.7214722771241242
 10
-2.630852467561316
 20
0.7233995732942169
 10
-2.5804645523246394
 20
0.7265927496412933
 10
-2.530426110879867
 20
0.7310362738537401
 10
-2.4807526755386102
 20
0.7367146136199446
 10
-2.4314597786124805
 20
0.7436122366282979
 10
-2.38256295241309
 20
0.751713610567187
 10
-2.3340777292520487
 20
0.7610032031249999
 10
-2.28601964144097
 20
0.7714654819901258
 10
-2.2384042212914643
 20
0.7830849148509547
 10
-2.1912470011151424
 20
0.7958459693958722
 10
-2.1445635132236167
 20
0.8097331133132678
 10
-2.0983692899284985
 20
0.8247308142915317
 10
-2.0526798635414
 20
0.8408235400190505
 10
-2.0075107663739313
 20
0.857995758184214
 10
-1.962877530737705
 20
0.8762319364754096
 10
-1.918795688944332
 20
0.8955165425810272
 10
-1.8752807733054233
 20
0.9158340441894524
 10
-1.8323483161325924
 20
0.9371689089890778
 10
-1.7900138497374485
 20
0.9595056046682889
 10
-1.7482929064316048
 20
0.9828285989154754
 10
-1.707201018526671
 20
1.0071223594190257
 10
-1.6667537183342598
 20
1.0323713538673276
 10
-1.6269665381659832
 20
1.05856004994877
 10
-1.587855010333452
 20
1.0856729153517424
 10
-1.5494346671482773
 20
1.1136944177646326
 10
-1.5117210409220705
 20
1.1426090248758287
 10
-1.4747296639664442
 20
1.1724012043737195
 10
-1.4384760685930087
 20
1.203055423946693
 10
-1.4029757871133768
 20
1.234556151283139
 10
-1.3682443518391596
 20
1.2668878540714452
 10
-1.3342972950819674
 20
1.300035
 10
-1.3011501491534125
 20
1.3339820567571923
 10
-1.268818446365105
 20
1.3687134920314101
 10
-1.23731771902866
 20
1.404213773511043
 10
-1.2066634994556857
 20
1.4404673688844776
 10
-1.1768713199577954
 20
1.4774587458401036
 10
-1.147956712846599
 20
1.5151723720663104
 10
-1.1199352104337097
 20
1.5535927152514855
 10
-1.0928223450307373
 20
1.592704243084017
 10
-1.066633648949295
 20
1.6324914232522933
 10
-1.0413846545009926
 20
1.6729387234447053
 10
-1.0170908939974417
 20
1.714030611349638
 10
-0.9937678997502557
 20
1.7557515546554812
 10
-0.9714312040710446
 20
1.798086021050625
 10
-0.9500963392714192
 20
1.8410184782234564
 10
-0.9297788376629935
 20
1.8845333938623652
 10
-0.9104942315573764
 20
1.9286152356557378
 10
-0.8922580532661808
 20
1.9732484712919642
 10
-0.8750858351010178
 20
2.0184175684594328
 10
-0.858993109373498
 20
2.0641069948465316
 10
-0.8439954083952357
 20
2.11030121814165
 10
-0.8301082644778395
 20
2.156984706033175
 10
-0.8173472099329204
 20
2.204141926209497
 10
-0.8057277770720936
 20
2.251757346359003
 10
-0.7952654982069667
 20
2.299815434170082
 10
-0.7859759056491538
 20
2.3483006573311225
 10
-0.7778745317102647
 20
2.3971974835305137
 10
-0.7709769087019115
 20
2.446490380456643
 10
-0.7652985689357069
 20
2.4961638157978996
 10
-0.76085504472326
 20
2.546202257242672
 10
-0.7576618683761838
 20
2.5965901724793485
 10
-0.75573457220609
 20
2.6473120291963173
 10
-0.7550886885245895
 20
2.698352295081967
  0
LWPOLYLINE
  5
43
330
17
100
AcDbEntity
  8
0
100
AcDbPolyline
 90
65
 70
0
 10
0.7118099999999998
 20
-2.723598196721311
 10
0.7124558836815001
 20
-2.6725579308356613
 10
0.7143831798515939
 20
-2.621836074118692
 10
0.7175763561986703
 20
-2.571448158882016
 10
0.7220198804111172
 20
-2.5214097174372427
 10
0.7276982201773217
 20
-2.4717362820959874
 10
0.734595843185674
 20
-2.4224433851698577
 10
0.742697217124564
 20
-2.3735465589704665
 10
0.751986809682377
 20
-2.325061335809426
 10
0.7624490885475028
 20
-2.277003247998347
 10
0.7740685214083317
 20
-2.22938782784884
 10
0.7868295759532498
 20
-2.1822306076725186
 10
0.8007167198706449
 20
-2.1355471197809943
 10
0.8157144208489093
 20
-2.089352896485875
 10
0.831807146576428
 20
-2.0436634700987764
 10
0.8489793647415911
 20
-1.9984943729313085
 10
0.8672155430327877
 20
-1.9538611372950816
 10
0.8865001491384037
 20
-1.9097792955017086
 10
0.9068176507468294
 20
-1.8662643798628014
 10
0.9281525155464548
 20
-1.823331922689969
 10
0.950489211225667
 20
-1.780997456294826
 10
0.973812205472853
 20
-1.7392765129889807
 10
0.9981059659764028
 20
-1.698184625084048
 10
1.0233549604247036
 20
-1.6577373248916367
 10
1.0495436565061476
 20
-1.6179501447233609
 10
1.0766565219091195
 20
-1.5788386168908293
 10
1.1046780243220098
 20
-1.5404182737056538
 10
1.133592631433206
 20
-1.5027046474794485
 10
1.163384810931097
 20
-1.4657132705238214
 10
1.1940390305040702
 20
-1.4294596751503852
 10
1.2255397578405158
 20
-1.393959393670754
 10
1.2578714606288233
 20
-1.3592279583965365
 10
1.2910186065573772
 20
-1.325280901639343
 10
1.3249656633145688
 20
-1.292133755710788
 10
1.359697098588787
 20
-1.2598020529224838
 10
1.3951973800684203
 20
-1.228301325586037
 10
1.4314509754418545
 20
-1.197647106013063
 10
1.4684423523974808
 20
-1.167854926515172
 10
1.5061559786236869
 20
-1.1389403194039756
 10
1.5445763218088635
 20
-1.1109188169910864
 10
1.583687849641393
 20
-1.0838059515881142
 10
1.623475029809669
 20
-1.0576172555066705
 10
1.6639223300020802
 20
-1.0323682610583687
 10
1.705014217907014
 20
-1.0080745005548186
 10
1.746735161212858
 20
-0.9847515063076328
 10
1.789069627608002
 20
-0.9624148106284216
 10
1.8320020847808336
 20
-0.9410799458287973
 10
1.8755170004197428
 20
-0.9207624442203706
 10
1.9195988422131138
 20
-0.9014778381147545
 10
1.9642320778493418
 20
-0.883241659823559
 10
2.0094011750168095
 20
-0.8660694416583937
 10
2.0550906014039083
 20
-0.8499767159308751
 10
2.1012848246990266
 20
-0.8349790149526127
 10
2.1479683125905518
 20
-0.8210918710352165
 10
2.195125532766875
 20
-0.8083308164902986
 10
2.24274095291638
 20
-0.7967113836294707
 10
2.290799040727458
 20
-0.7862491047643437
 10
2.3392842638884996
 20
-0.7769595122065308
 10
2.388181090087891
 20
-0.7688581382676417
 10
2.4374739870140196
 20
-0.7619605152592895
 10
2.487147422355276
 20
-0.756282175493084
 10
2.5371858638000484
 20
-0.7518386512806371
 10
2.5875737790367253
 20
-0.7486454749335618
 10
2.6382956357536944
 20
-0.746718178763467
 10
2.6893359016393443
 20
-0.7460722950819666
  0
LWPOLYLINE
  5
44
330
17
100
AcDbEntity
  8
0
100
AcDbPolyline
 90
65
 70
0
 10
3.42967737704918
 20
1.9800000000000013
 10
3.4131700774452334
 20
2.0083227421388483
 10
3.3964393197731892
 20
2.036493848931986
 10
3.3794862624640536
 20
2.064512161948408
 10
3.3623120639488353
 20
2.0923765227571094
 10
3.3449178826585366
 20
2.120085772927082
 10
3.3273048770241656
 20
2.147638754027321
 10
3.309474205476731
 20
2.1750343076268197
 10
3.2914270264472334
 20
2.2022712752945712
 10
3.273164498366684
 20
2.22934849859957
 10
3.2546877796660874
 20
2.2562648191108092
 10
3.2359980287764505
 20
2.2830190783972837
 10
3.2170964041287786
 20
2.3096101180279853
 10
3.197984064154078
 20
2.3360367795719097
 10
3.178662167283356
 20
2.36229790459805
 10
3.1591318719476176
 20
2.3883923346753995
 10
3.1393943365778707
 20
2.414318911372952
 10
3.119450719605118
 20
2.440076476259702
 10
3.0993021794603695
 20
2.465663870904643
 10
3.0789498745746315
 20
2.4910799368767673
 10
3.058394963378907
 20
2.516323515745071
 10
3.0376386043042047
 20
2.5413934490785457
 10
3.0166819557815314
 20
2.5662885784461866
 10
2.99552617624189
 20
2.5910077454169866
 10
2.9741724241162912
 20
2.6155497915599395
 10
2.952621857835739
 20
2.63991355844404
 10
2.930875635831239
 20
2.664097887638281
 10
2.9089349165338
 20
2.688101620711657
 10
2.886800858374424
 20
2.7119235992331596
 10
2.8644746197841227
 20
2.735562664771785
 10
2.8419573591938976
 20
2.7590176588965254
 10
2.819250235034756
 20
2.782287423176376
 10
2.796354405737706
 20
2.805370799180329
 10
2.7732710297337513
 20
2.8282666284773796
 10
2.7500012654539026
 20
2.85097375263652
 10
2.7265462713291613
 20
2.8734910132267446
 10
2.702907205790536
 20
2.8958172518170473
 10
2.679085227269033
 20
2.9179513099764227
 10
2.6550814941956564
 20
2.9398920292738624
 10
2.6308971650014175
 20
2.961638251278362
 10
2.6065333981173167
 20
2.983188817558914
 10
2.581991351974363
 20
3.004542569684514
 10
2.5572721850035633
 20
3.0256983492241543
 10
2.532377055635923
 20
3.046654997746828
 10
2.5073071223024463
 20
3.06741135682153
 10
2.4820635434341445
 20
3.0879662680172535
 10
2.45664747746202
 20
3.1083185729029927
 10
2.4310600828170785
 20
3.1284671130477406
 10
2.4053025179303287
 20
3.1484107300204927
 10
2.3793759412327766
 20
3.1681482653902404
 10
2.353281511155427
 20
3.1876785607259785
 10
2.327020386129287
 20
3.2070004575967013
 10
2.3005937245853625
 20
3.2261127975714015
 10
2.27400268495466
 20
3.2450144222190733
 10
2.247248425668185
 20
3.2637041731087106
 10
2.2203321051569467
 20
3.2821808918093076
 10
2.1932548818519466
 20
3.3004434198898567
 10
2.166017914184196
 20
3.3184905989193525
 10
2.138622360584697
 20
3.3363212704667893
 10
2.1110693794844586
 20
3.353934276101159
 10
2.083360129314486
 20
3.3713284573914573
 10
2.055495768505785
 20
3.3885026559066773
 10
2.0274774554893633
 20
3.4054557132158125
 10
1.9993063486962255
 20
3.422186470887856
 10
1.9709836065573774
 20
3.438693770491803
  0
LWPOLYLINE
  5
45
330
17
100
AcDbEntity
  8
0
100
AcDbPolyline
 90
65
 70
0
 10
-3.4729560655737703
 20
-2.005245901639344
 10
-3.4564487659698235
 20
-2.03356864377819
 10
-3.43971800829778
 20
-2.061739750571329
 10
-3.4227649509886446
 20
-2.0897580635877526
 10
-3.4055907524734246
 20
-2.1176224243964517
 10
-3.3881965711831263
 20
-2.1453316745664255
 10
-3.370583565548756
 20
-2.172884655666664
 10
-3.35275289400132
 20
-2.2002802092661624
 10
-3.334705714971824
 20
-2.2275171769339135
 10
-3.3164431868912745
 20
-2.254594400238912
 10
-3.297966468190678
 20
-2.281510720750152
 10
-3.27927671730104
 20
-2.308264980036626
 10
-3.260375092653369
 20
-2.3348560196673294
 10
-3.2412627526786677
 20
-2.3612826812112537
 10
-3.221940855807946
 20
-2.387543806237393
 10
-3.2024105604722073
 20
-2.413638236314742
 10
-3.1826730251024595
 20
-2.439564813012294
 10
-3.162729408129708
 20
-2.4653223778990445
 10
-3.142580867984959
 20
-2.4909097725439846
 10
-3.1222285630992204
 20
-2.51632583851611
 10
-3.1016736519034964
 20
-2.5415694173844123
 10
-3.0809172928287945
 20
-2.5666393507178884
 10
-3.0599606443061207
 20
-2.591534480085529
 10
-3.038804864766481
 20
-2.61625364705633
 10
-3.017451112640881
 20
-2.6407956931992826
 10
-2.9959005463603288
 20
-2.6651594600833834
 10
-2.9741543243558293
 20
-2.6893437892776233
 10
-2.9522136050583883
 20
-2.713347522350998
 10
-2.9300795468990137
 20
-2.7371695008725028
 10
-2.907753308308711
 20
-2.760808566411128
 10
-2.8852360477184864
 20
-2.784263560535868
 10
-2.8625289235593447
 20
-2.807533324815719
 10
-2.839633094262295
 20
-2.8306167008196708
 10
-2.816549718258342
 20
-2.853512530116723
 10
-2.793279953978492
 20
-2.8762196542758622
 10
-2.7698249598537505
 20
-2.8987369148660873
 10
-2.7461858943151256
 20
-2.921063153456392
 10
-2.7223639157936224
 20
-2.9431972116157654
 10
-2.6983601827202475
 20
-2.9651379309132055
 10
-2.6741758535260063
 20
-2.986884152917706
 10
-2.6498120866419055
 20
-3.008434719198258
 10
-2.625270040498952
 20
-3.029788471323859
 10
-2.6005508735281526
 20
-3.0509442508634974
 10
-2.5756557441605117
 20
-3.0719008993861716
 10
-2.5505858108270365
 20
-3.092657258460874
 10
-2.525342231958733
 20
-3.113212169656597
 10
-2.4999261659866083
 20
-3.133564474542337
 10
-2.474338771341668
 20
-3.153713014687085
 10
-2.4485812064549184
 20
-3.1736566316598362
 10
-2.4226546297573655
 20
-3.193394167029583
 10
-2.3965601996800157
 20
-3.212924462365322
 10
-2.3702990746538757
 20
-3.232246359236045
 10
-2.3438724131099513
 20
-3.251358699210745
 10
-2.317281373479249
 20
-3.2702603238584174
 10
-2.2905271141927748
 20
-3.2889500747480542
 10
-2.2636107936815355
 20
-3.3074267934486516
 10
-2.2365335703765368
 20
-3.3256893215292003
 10
-2.2092966027087857
 20
-3.343736500558696
 10
-2.1819010491092867
 20
-3.3615671721061324
 10
-2.1543480680090483
 20
-3.3791801777405035
 10
-2.126638817839076
 20
-3.3965743590308013
 10
-2.098774457030374
 20
-3.4137485575460205
 10
-2.0707561440139517
 20
-3.430701614855156
 10
-2.0425850372208143
 20
-3.4474323725272003
 10
-2.0142622950819673
 20
-3.463939672131147
  0
LWPOLYLINE
  5
46
330
17
100
AcDbEntity
  8
0
100
AcDbPolyline
 90
65
 70
0
 10
-0.021639344262294878
 20
3.9726229508196735
 10
-0.054421534166179446
 20
3.9724881518923665
 10
-0.08718411390961106
 20
3.9720840373405095
 10
-0.11992550171648911
 20
3.9714110305092
 10
-0.15264411581070683
 20
3.970469554743534
 10
-0.1853383744161636
 20
3.969260033388608
 10
-0.21800669575675571
 20
3.96778288978952
 10
-0.25064749805637954
 20
3.9660385472913666
 10
-0.2832591995389344
 20
3.964027429239243
 10
-0.3158402184283146
 20
3.9617499589782477
 10
-0.3483889729484185
 20
3.9592065598534765
 10
-0.38090388132314235
 20
3.9563976552100275
 10
-0.41338336177638246
 20
3.9533236683929958
 10
-0.44582583253203834
 20
3.9499850227474784
 10
-0.47822971181400414
 20
3.9463821416185736
 10
-0.5105934178461793
 20
3.9425154483513767
 10
-0.542915368852459
 20
3.9383853662909845
 10
-0.5751939830567396
 20
3.933992318782495
 10
-0.6074276786829217
 20
3.9293367291710033
 10
-0.6396148739548982
 20
3.924419020801608
 10
-0.6717539870965678
 20
3.919239617019404
 10
-0.7038434363318266
 20
3.9137989411694893
 10
-0.7358816398845729
 20
3.9080974165969606
 10
-0.7678670159787042
 20
3.9021354666469144
 10
-0.7997979828381147
 20
3.8959135146644472
 10
-0.8316729586867038
 20
3.889431983994657
 10
-0.8634903617483667
 20
3.882691297982639
 10
-0.8952486102470024
 20
3.8756918799734903
 10
-0.9269461224065061
 20
3.8684341533123083
 10
-0.9585813164507757
 20
3.8609185413441898
 10
-0.9901526106037075
 20
3.8531454674142314
 10
-1.0216584230891994
 20
3.8451153548675294
 10
-1.0530971721311475
 20
3.8368286270491807
 10
-1.0844672759534493
 20
3.8282857073042824
 10
-1.1157671527800017
 20
3.8194870189779317
 10
-1.146995220834701
 20
3.8104329854152246
 10
-1.1781498983414442
 20
3.801124029961258
 10
-1.2092296035241306
 20
3.7915605759611286
 10
-1.240232754606654
 20
3.781743046759934
 10
-1.2711577698129117
 20
3.77167186570277
 10
-1.3020030673668035
 20
3.7613474561347338
 10
-1.332767065492223
 20
3.750770241400922
 10
-1.3634481824130702
 20
3.739940644846432
 10
-1.3940448363532396
 20
3.728859089816359
 10
-1.4245554455366285
 20
3.7175259996558023
 10
-1.4549784281871354
 20
3.7059417977098557
 10
-1.4853122025286567
 20
3.6941069073236186
 10
-1.5155551867850887
 20
3.682021751842186
 10
-1.5457057991803282
 20
3.6696867546106557
 10
-1.5757624579382723
 20
3.657102338974124
 10
-1.605723581282819
 20
3.644268928277688
 10
-1.6355875874378643
 20
3.631186945866444
 10
-1.6653528946273055
 20
3.617856815085489
 10
-1.695017921075039
 20
3.60427895927992
 10
-1.7245810850049628
 20
3.5904538017948333
 10
-1.754040804640973
 20
3.5763817659753263
 10
-1.7833954982069669
 20
3.5620632751664956
 10
-1.8126435839268422
 20
3.547498752713438
 10
-1.8417834800244945
 20
3.5326886219612494
 10
-1.8708136047238209
 20
3.5176333062550276
 10
-1.8997323762487193
 20
3.5023332289398694
 10
-1.928538212823086
 20
3.486788813360871
 10
-1.9572295326708182
 20
3.471000482863129
 10
-1.985804754015813
 20
3.454968660791741
 10
-2.0142622950819673
 20
3.438693770491803
  0
LWPOLYLINE
  5
47
330
17
100
AcDbEntity
  8
0
100
AcDbPolyline
 90
65
 70
0
 10
-0.021639344262294878
 20
-3.9978688524590176
 10
0.011142845641589688
 20
-3.99773405353171
 10
0.043905425385022324
 20
-3.9973299389798544
 10
0.07664681319189832
 20
-3.9966569321485426
 10
0.10936542728611706
 20
-3.995715456382879
 10
0.14205968589157383
 20
-3.9945059350279535
 10
0.17472800723216494
 20
-3.9930287914288636
 10
0.2073688095317908
 20
-3.9912844489307115
 10
0.23998051101434464
 20
-3.989273330878587
 10
0.27256152990372484
 20
-3.9869958606175926
 10
0.3051102844238287
 20
-3.984452461492819
 10
0.3376251927985515
 20
-3.981643556849372
 10
0.37010467325179275
 20
-3.97856957003234
 10
0.40254714400744857
 20
-3.9752309243868234
 10
0.4349510232894144
 20
-3.9716280432579163
 10
0.4673147293215895
 20
-3.9677613499907207
 10
0.49963668032786823
 20
-3.9636312679303303
 10
0.5319152945321509
 20
-3.9592382204218395
 10
0.5641489901583309
 20
-3.9545826308103496
 10
0.5963361854303074
 20
-3.949664922440953
 10
0.628475298571978
 20
-3.944485518658749
 10
0.6605647478072367
 20
-3.9390448428088343
 10
0.6926029513599842
 20
-3.9333433182363047
 10
0.7245883274541134
 20
-3.927381368286258
 10
0.7565192943135249
 20
-3.921159416303792
 10
0.788394270162114
 20
-3.9146778856340014
 10
0.820211673223777
 20
-3.907937199621983
 10
0.8519699217224131
 20
-3.9009377816128357
 10
0.8836674338819148
 20
-3.893680054951653
 10
0.9153026279261854
 20
-3.8861644429835347
 10
0.9468739220791172
 20
-3.878391369053575
 10
0.9783797345646086
 20
-3.870361256506874
 10
1.0098184836065578
 20
-3.8620745286885256
 10
1.0411885874288591
 20
-3.8535316089436273
 10
1.072488464255411
 20
-3.8447329206172753
 10
1.1037165323101117
 20
-3.83567888705457
 10
1.1348712098168534
 20
-3.8263699316006026
 10
1.1659509149995397
 20
-3.8168064776004744
 10
1.196954066082064
 20
-3.8069889483992787
 10
1.227879081288322
 20
-3.7969177673421157
 10
1.2587243788422138
 20
-3.786593357774079
 10
1.2894883769676333
 20
-3.776016143040266
 10
1.320169493888481
 20
-3.765186546485776
 10
1.3507661478286488
 20
-3.754104991455704
 10
1.3812767570120388
 20
-3.7427719012951473
 10
1.4116997396625455
 20
-3.7311876993492006
 10
1.442033514004067
 20
-3.719352808962964
 10
1.472276498260498
 20
-3.7072676534815296
 10
1.502427110655737
 20
-3.6949326562500016
 10
1.5324837694136826
 20
-3.6823482406134684
 10
1.5624448927582288
 20
-3.669514829917031
 10
1.592308898913274
 20
-3.6564328475057892
 10
1.6220742061027147
 20
-3.643102716724835
 10
1.651739232550448
 20
-3.6295248609192647
 10
1.6813023964803735
 20
-3.615699703434178
 10
1.710762116116383
 20
-3.6016276676146712
 10
1.7401168096823776
 20
-3.58730917680584
 10
1.769364895402252
 20
-3.5727446543527814
 10
1.7985047914999048
 20
-3.5579345236005944
 10
1.8275349161992311
 20
-3.542879207894372
 10
1.8564536877241296
 20
-3.527579130579213
 10
1.8852595242984962
 20
-3.512034715000215
 10
1.9139508441462285
 20
-3.4962463845024736
 10
1.9425260654912238
 20
-3.480214562431085
 10
1.9709836065573774
 20
-3.463939672131147
  0
LWPOLYLINE
  5
48
330
17
100
AcDbEntity
  8
0
100
AcDbPolyline
 90
65
 70
0
 10
-2.7326145901639345
 20
-4.701147540983608
 10
-2.681574324278284
 20
-4.700501657212681
 10
-2.630852467561316
 20
-4.698574360416601
 10
-2.5804645523246394
 20
-4.695381182370421
 10
-2.530426110879867
 20
-4.690937654849194
 10
-2.4807526755386102
 20
-4.6852593096279715
 10
-2.4314597786124805
 20
-4.678361678481807
 10
-2.38256295241309
 20
-4.67026029318575
 10
-2.3340777292520487
 20
-4.660970685514857
 10
-2.28601964144097
 20
-4.6505083872441775
 10
-2.2384042212914643
 20
-4.638888930148768
 10
-2.1912470011151424
 20
-4.626127846003674
 10
-2.1445635132236167
 20
-4.612240666583954
 10
-2.0983692899284985
 20
-4.597242923664657
 10
-2.0526798635414
 20
-4.581150149020837
 10
-2.0075107663739313
 20
-4.563977874427545
 10
-1.962877530737705
 20
-4.545741631659836
 10
-1.918795688944332
 20
-4.5264569524927625
 10
-1.8752807733054233
 20
-4.506139368701373
 10
-1.8323483161325924
 20
-4.484804412060723
 10
-1.7900138497374485
 20
-4.462467614345862
 10
-1.7482929064316048
 20
-4.43914450733185
 10
-1.707201018526671
 20
-4.41485062279373
 10
-1.6667537183342598
 20
-4.389601492506561
 10
-1.6269665381659832
 20
-4.36341264824539
 10
-1.587855010333452
 20
-4.336299621785274
 10
-1.5494346671482773
 20
-4.308277944901263
 10
-1.5117210409220705
 20
-4.279363149368412
 10
-1.4747296639664442
 20
-4.249570766961771
 10
-1.4384760685930087
 20
-4.218916329456392
 10
-1.4029757871133768
 20
-4.187415368627329
 10
-1.3682443518391596
 20
-4.155083416249637
 10
-1.3342972950819674
 20
-4.121936004098361
 10
-1.3011501491534125
 20
-4.08798866394856
 10
-1.268818446365105
 20
-4.0532569275752826
 10
-1.23731771902866
 20
-4.017756326753585
 10
-1.2066634994556857
 20
-3.981502393258517
 10
-1.1768713199577954
 20
-3.944510658865132
 10
-1.147956712846599
 20
-3.90679665534848
 10
-1.1199352104337097
 20
-3.868375914483619
 10
-1.0928223450307373
 20
-3.8292639680455944
 10
-1.066633648949295
 20
-3.789476347809464
 10
-1.0413846545009926
 20
-3.7490285855502767
 10
-1.0170908939974417
 20
-3.7079362130430895
 10
-0.9937678997502557
 20
-3.666214762062949
 10
-0.9714312040710446
 20
-3.623879764384909
 10
-0.9500963392714192
 20
-3.580946751784027
 10
-0.9297788376629935
 20
-3.5374312560353514
 10
-0.9104942315573764
 20
-3.493348808913935
 10
-0.8922580532661808
 20
-3.4487149421948287
 10
-0.8750858351010178
 20
-3.403545187653087
 10
-0.858993109373498
 20
-3.3578550770637636
 10
-0.8439954083952357
 20
-3.3116601422019074
 10
-0.8301082644778395
 20
-3.2649759148425743
 10
-0.8173472099329204
 20
-3.217817926760814
 10
-0.8057277770720936
 20
-3.1702017097316797
 10
-0.7952654982069667
 20
-3.1221427955302254
 10
-0.7859759056491538
 20
-3.073656715931502
 10
-0.7778745317102647
 20
-3.0247590027105615
 10
-0.7709769087019115
 20
-2.975465187642457
 10
-0.7652985689357069
 20
-2.925790802502241
 10
-0.76085504472326
 20
-2.8757513790649663
 10
-0.7576618683761838
 20
-2.825362449105685
 10
-0.75573457220609
 20
-2.7746395443994496
 10
-0.7550886885245895
 20
-2.723598196721311
  0
LWPOLYLINE
  5
49
330
17
100
AcDbEntity
  8
0
100
AcDbPolyline
 90
65
 70
0
 10
2.6893359016393443
 20
4.675901639344264
 10
2.6382956357536944
 20
4.675255755573336
 10
2.5875737790367244
 20
4.673328458777258
 10
2.5371858638000484
 20
4.670135280731078
 10
2.487147422355276
 20
4.665691753209851
 10
2.4374739870140205
 20
4.660013407988628
 10
2.388181090087891
 20
4.653115776842463
 10
2.3392842638885005
 20
4.6450143915464075
 10
2.290799040727458
 20
4.635724783875514
 10
2.24274095291638
 20
4.625262485604835
 10
2.195125532766874
 20
4.613643028509423
 10
2.1479683125905518
 20
4.60088194436433
 10
2.1012848246990266
 20
4.58699476494461
 10
2.0550906014039083
 20
4.571997022025313
 10
2.0094011750168095
 20
4.555904247381493
 10
1.9642320778493418
 20
4.538731972788202
 10
1.9195988422131147
 20
4.520495730020493
 10
1.8755170004197417
 20
4.501211050853419
 10
1.8320020847808336
 20
4.480893467062029
 10
1.789069627608002
 20
4.459558510421379
 10
1.746735161212858
 20
4.4372217127065205
 10
1.705014217907014
 20
4.413898605692506
 10
1.6639223300020802
 20
4.389604721154386
 10
1.6234750298096698
 20
4.364355590867216
 10
1.583687849641393
 20
4.3381667466060465
 10
1.5445763218088635
 20
4.311053720145931
 10
1.5061559786236869
 20
4.283032043261921
 10
1.4684423523974808
 20
4.254117247729069
 10
1.4314509754418545
 20
4.224324865322427
 10
1.3951973800684203
 20
4.193670427817049
 10
1.359697098588787
 20
4.162169466987987
 10
1.3249656633145688
 20
4.129837514610292
 10
1.2910186065573772
 20
4.096690102459018
 10
1.2578714606288233
 20
4.062742762309217
 10
1.2255397578405158
 20
4.028011025935941
 10
1.1940390305040702
 20
3.9925104251142423
 10
1.163384810931096
 20
3.9562564916191745
 10
1.133592631433206
 20
3.9192647572257884
 10
1.1046780243220107
 20
3.881550753709138
 10
1.0766565219091195
 20
3.843130012844275
 10
1.0495436565061476
 20
3.8040180664062517
 10
1.0233549604247036
 20
3.7642304461701204
 10
0.9981059659764028
 20
3.723782683910934
 10
0.973812205472853
 20
3.682690311403745
 10
0.950489211225667
 20
3.6409688604236052
 10
0.9281525155464548
 20
3.5986338627455674
 10
0.9068176507468294
 20
3.5557008501446847
 10
0.8865001491384037
 20
3.512185354396008
 10
0.8672155430327877
 20
3.468102907274591
 10
0.8489793647415921
 20
3.423469040555486
 10
0.831807146576427
 20
3.378299286013745
 10
0.8157144208489082
 20
3.3326091754244205
 10
0.8007167198706449
 20
3.286414240562565
 10
0.7868295759532498
 20
3.2397300132032307
 10
0.7740685214083317
 20
3.1925720251214713
 10
0.7624490885475028
 20
3.144955808092337
 10
0.751986809682377
 20
3.096896893890882
 10
0.742697217124563
 20
3.0484108142921578
 10
0.734595843185675
 20
2.9995131010712175
 10
0.7276982201773217
 20
2.9502192860031133
 10
0.7220198804111162
 20
2.9005449008628976
 10
0.7175763561986703
 20
2.8505054774256227
 10
0.7143831798515939
 20
2.8001165474663408
 10
0.7124558836815001
 20
2.749393642760105
 10
0.7118099999999998
 20
2.698352295081967
  0
LWPOLYLINE
  5
4A
330
17
100
AcDbEntity
  8
0
100
AcDbPolyline
 90
65
 70
0
 10
4.238283770491804
 20
-0.8102347540983605
 10
4.239714159318269
 20
-0.8025579448549859
 10
4.241130672727492
 20
-0.79487878440982
 10
4.242533308573239
 20
-0.7871972910058691
 10
4.243922064709276
 20
-0.7795134828861424
 10
4.245296938989358
 20
-0.7718273782936461
 10
4.246657929267259
 20
-0.7641389954713905
 10
4.248005033396737
 20
-0.756448352662383
 10
4.249338249231556
 20
-0.7487554681096306
 10
4.2506575746254835
 20
-0.7410603600561426
 10
4.251963007432283
 20
-0.7333630467449243
 10
4.25325454550571
 20
-0.7256635464189868
 10
4.254532186699538
 20
-0.7179618773213365
 10
4.255795928867527
 20
-0.7102580576949816
 10
4.257045769863441
 20
-0.7025521057829304
 10
4.258281707541044
 20
-0.6948440398281909
 10
4.259503739754097
 20
-0.6871338780737716
 10
4.260711864356369
 20
-0.6794216387626776
 10
4.26190607920162
 20
-0.6717073401379181
 10
4.263086382143616
 20
-0.6639910004425046
 10
4.264252771036116
 20
-0.656272637919442
 10
4.265405243732888
 20
-0.6485522708117367
 10
4.266543798087699
 20
-0.6408299173624011
 10
4.2676684319543075
 20
-0.6331055958144391
 10
4.268779143186476
 20
-0.6253793244108602
 10
4.269875929637972
 20
-0.6176511213946736
 10
4.270958789162557
 20
-0.6099210050088845
 10
4.272027719613997
 20
-0.602188993496504
 10
4.273082718846055
 20
-0.5944551051005376
 10
4.274123784712496
 20
-0.5867193580639943
 10
4.275150915067079
 20
-0.5789817706298825
 10
4.27616410776357
 20
-0.5712423610412095
 10
4.277163360655737
 20
-0.5635011475409833
 10
4.278148671597339
 20
-0.5557581483722124
 10
4.2791200384421435
 20
-0.5480133817779039
 10
4.28007745904391
 20
-0.540266866001066
 10
4.2810209312564025
 20
-0.532518619284708
 10
4.28195045293339
 20
-0.5247686598718362
 10
4.282866021928632
 20
-0.5170170060054596
 10
4.283767636095892
 20
-0.5092636759285848
 10
4.284655293288935
 20
-0.5015086878842208
 10
4.285528991361525
 20
-0.4937520601153758
 10
4.286388728167425
 20
-0.4859938108650583
 10
4.287234501560397
 20
-0.47823395837627525
 10
4.28806630939421
 20
-0.470472520892033
 10
4.288884149522624
 20
-0.4627095166553429
 10
4.289688019799404
 20
-0.454944963909211
 10
4.290477918078315
 20
-0.4471788808966467
 10
4.2912538422131155
 20
-0.4394112858606562
 10
4.292015790057573
 20
-0.4316421970442476
 10
4.292763759465452
 20
-0.4238716326904304
 10
4.293497748290516
 20
-0.41609961104221055
 10
4.294217754386527
 20
-0.4083261503425985
 10
4.294923775607251
 20
-0.4005512688345994
 10
4.295615809806448
 20
-0.3927749847612225
 10
4.296293854837887
 20
-0.38499731636547707
 10
4.296957908555328
 20
-0.3772182818903694
 10
4.297607968812539
 20
-0.36943789957890755
 10
4.298244033463274
 20
-0.3616561876741009
 10
4.298866100361308
 20
-0.35387316441895567
 10
4.2994741673604
 20
-0.3460888480564811
 10
4.300068232314313
 20
-0.33830325682968443
 10
4.300648293076812
 20
-0.33051640898157386
 10
4.301214347501661
 20
-0.32272832275515767
 10
4.301766393442623
 20
-0.31493901639344307
  0
LWPOLYLINE
  5
4B
330
17
100
AcDbEntity
  8
0
100
AcDbPolyline
 90
65
 70
0
 10
4.301766393442623
 20
0.28969311475409926
 10
4.301214347501661
 20
0.29748242111581386
 10
4.300648293076812
 20
0.305270507342229
 10
4.300068232314313
 20
0.31305735519034056
 10
4.2994741673604
 20
0.32084294641713723
 10
4.298866100361308
 20
0.32862726277961185
 10
4.298244033463276
 20
0.33641028603475603
 10
4.297607968812539
 20
0.34419199793956473
 10
4.296957908555328
 20
0.3519723802510255
 10
4.296293854837887
 20
0.35975141472613326
 10
4.295615809806448
 20
0.36752908312187865
 10
4.294923775607251
 20
0.37530536719525454
 10
4.294217754386527
 20
0.38308024870325363
 10
4.293497748290516
 20
0.3908537094028667
 10
4.292763759465452
 20
0.3986257310510865
 10
4.292015790057573
 20
0.4063962954049038
 10
4.291253842213114
 20
0.4141653842213123
 10
4.290477918078315
 20
0.4219329792573039
 10
4.289688019799404
 20
0.42969906226986715
 10
4.288884149522626
 20
0.43746361501600006
 10
4.288066309394213
 20
0.4452266192526902
 10
4.287234501560399
 20
0.4529880567369314
 10
4.286388728167425
 20
0.4607479092257144
 10
4.285528991361525
 20
0.468506158476033
 10
4.284655293288935
 20
0.47626278624487794
 10
4.283767636095892
 20
0.484017774289242
 10
4.282866021928632
 20
0.49177110436611476
 10
4.28195045293339
 20
0.49952275823249226
 10
4.2810209312564025
 20
0.5072727176453631
 10
4.28007745904391
 20
0.5150209643617222
 10
4.279120038442142
 20
0.52276748013856
 10
4.278148671597339
 20
0.5305122467328686
 10
4.277163360655737
 20
0.5382552459016395
 10
4.27616410776357
 20
0.5459964594018657
 10
4.275150915067079
 20
0.5537358689905387
 10
4.2741237847124935
 20
0.5614734564246505
 10
4.273082718846055
 20
0.5692092034611937
 10
4.272027719613999
 20
0.5769430918571602
 10
4.270958789162557
 20
0.5846751033695405
 10
4.269875929637972
 20
0.5924052197553287
 10
4.268779143186476
 20
0.6001334227715164
 10
4.267668431954305
 20
0.6078596941750942
 10
4.266543798087699
 20
0.6155840157230562
 10
4.26540524373289
 20
0.6233063691723929
 10
4.264252771036116
 20
0.6310267362800982
 10
4.263086382143616
 20
0.6387450988031607
 10
4.26190607920162
 20
0.6464614384985753
 10
4.260711864356369
 20
0.6541757371233338
 10
4.259503739754099
 20
0.6618879764344268
 10
4.258281707541044
 20
0.6695981381888471
 10
4.257045769863441
 20
0.6773062041435874
 10
4.2557959288675296
 20
0.6850121560556378
 10
4.2545321866995405
 20
0.6927159756819927
 10
4.25325454550571
 20
0.700417644779643
 10
4.251963007432283
 20
0.7081171451055814
 10
4.2506575746254835
 20
0.7158144584167977
 10
4.249338249231556
 20
0.7235095664702867
 10
4.248005033396737
 20
0.7312024510230392
 10
4.246657929267259
 20
0.7388930938320477
 10
4.245296938989358
 20
0.7465814766543023
 10
4.243922064709273
 20
0.7542675812467985
 10
4.242533308573239
 20
0.7619513893665252
 10
4.241130672727492
 20
0.7696328827704761
 10
4.239714159318269
 20
0.7773120432156431
 10
4.238283770491804
 20
0.7849888524590167
  0
LWPOLYLINE
  5
4C
330
17
100
AcDbEntity
  8
0
100
AcDbPolyline
 90
65
 70
0
 10
-4.281562459016394
 20
0.7849888524590167
 10
-4.282992847842857
 20
0.777313108017093
 10
-4.284409361252082
 20
0.7696349453034951
 10
-4.285811997097828
 20
0.7619543841709071
 10
-4.287200753233863
 20
0.754271444472016
 10
-4.288575627513948
 20
0.7465861460595048
 10
-4.289936617791848
 20
0.7388985087860614
 10
-4.291283721921327
 20
0.731208552504368
 10
-4.292616937756148
 20
0.7235162970671114
 10
-4.293936263150075
 20
0.7158217623269746
 10
-4.2952416959568716
 20
0.7081249681366467
 10
-4.296533234030302
 20
0.7004259343488107
 10
-4.29781087522413
 20
0.6927246808161506
 10
-4.299074617392118
 20
0.6850212273913533
 10
-4.300324458388031
 20
0.6773155939271017
 10
-4.301560396065634
 20
0.6696078002760841
 10
-4.302782428278689
 20
0.6618978662909843
 10
-4.30399055288096
 20
0.6541858118244864
 10
-4.30518476772621
 20
0.6464716567292763
 10
-4.306365070668205
 20
0.6387554208580399
 10
-4.307531459560707
 20
0.6310371240634615
 10
-4.30868393225748
 20
0.6233167861982258
 10
-4.309822486612289
 20
0.615594427115019
 10
-4.310947120478896
 20
0.6078700666665249
 10
-4.312057831711066
 20
0.6001437247054318
 10
-4.313154618162562
 20
0.5924154210844212
 10
-4.314237477687148
 20
0.5846851756561776
 10
-4.3153064081385875
 20
0.5769530082733908
 10
-4.316361407370646
 20
0.5692189387887427
 10
-4.317402473237085
 20
0.5614829870549195
 10
-4.318429603591669
 20
0.553745172924605
 10
-4.319442796288162
 20
0.5460055162504863
 10
-4.320442049180328
 20
0.5382640368852465
 10
-4.32142736012193
 20
0.5305207546815723
 10
-4.322398726966733
 20
0.5227756894921479
 10
-4.323356147568499
 20
0.5150288611696593
 10
-4.3242996197809935
 20
0.5072802895667905
 10
-4.32522914145798
 20
0.4995299945362274
 10
-4.326144710453222
 20
0.49177799593065713
 10
-4.327046324620482
 20
0.48402431360276155
 10
-4.3279339818135245
 20
0.4762689674052257
 10
-4.328807679886115
 20
0.4685119771907376
 10
-4.329667416692015
 20
0.46075336281198026
 10
-4.330513190084989
 20
0.45299314412163966
 10
-4.3313449979188015
 20
0.4452313409724008
 10
-4.332162838047215
 20
0.43746797321694864
 10
-4.332966708323995
 20
0.4297030607079682
 10
-4.333756606602904
 20
0.4219366232981455
 10
-4.334532530737706
 20
0.4141686808401645
 10
-4.335294478582163
 20
0.4063992531867113
 10
-4.336042447990042
 20
0.3986283601904707
 10
-4.336776436815105
 20
0.39085602170412787
 10
-4.337496442911117
 20
0.3830822575803677
 10
-4.33820246413184
 20
0.3753070876718742
 10
-4.3388944983310385
 20
0.3675305318313355
 10
-4.339572543362477
 20
0.35975260991143543
 10
-4.340236597079918
 20
0.351973341764857
 10
-4.340886657337126
 20
0.34419274724428833
 10
-4.341522721987865
 20
0.3364108462024133
 10
-4.342144788885898
 20
0.32862765849191694
 10
-4.34275285588499
 20
0.32084320396548527
 10
-4.343346920838903
 20
0.3130575024758023
 10
-4.343926981601403
 20
0.30527057387555295
 10
-4.344493036026251
 20
0.2974824380174243
 10
-4.345045081967213
 20
0.28969311475409926
  0
LWPOLYLINE
  5
4D
330
17
100
AcDbEntity
  8
0
100
AcDbPolyline
 90
65
 70
0
 10
-4.345045081967213
 20
-0.31493901639344307
 10
-4.344493036026251
 20
-0.32272832275515767
 10
-4.343926981601403
 20
-0.33051640898157386
 10
-4.343346920838904
 20
-0.33830325682968443
 10
-4.3427528558849895
 20
-0.3460888480564811
 10
-4.342144788885898
 20
-0.3538731644189567
 10
-4.341522721987865
 20
-0.3616561876741009
 10
-4.340886657337126
 20
-0.36943789957890755
 10
-4.340236597079918
 20
-0.3772182818903683
 10
-4.339572543362477
 20
-0.38499731636547707
 10
-4.338894498331039
 20
-0.3927749847612225
 10
-4.33820246413184
 20
-0.4005512688345994
 10
-4.337496442911117
 20
-0.4083261503425975
 10
-4.336776436815105
 20
-0.41609961104221055
 10
-4.336042447990042
 20
-0.4238716326904293
 10
-4.335294478582163
 20
-0.4316421970442476
 10
-4.334532530737706
 20
-0.4394112858606562
 10
-4.333756606602904
 20
-0.4471788808966467
 10
-4.332966708323995
 20
-0.454944963909211
 10
-4.332162838047215
 20
-0.4627095166553439
 10
-4.3313449979188015
 20
-0.470472520892033
 10
-4.330513190084989
 20
-0.47823395837627525
 10
-4.329667416692015
 20
-0.4859938108650583
 10
-4.328807679886114
 20
-0.4937520601153758
 10
-4.3279339818135245
 20
-0.5015086878842218
 10
-4.327046324620482
 20
-0.5092636759285848
 10
-4.326144710453222
 20
-0.5170170060054596
 10
-4.32522914145798
 20
-0.5247686598718362
 10
-4.3242996197809935
 20
-0.532518619284708
 10
-4.3233561475685
 20
-0.540266866001066
 10
-4.322398726966733
 20
-0.5480133817779039
 10
-4.32142736012193
 20
-0.5557581483722124
 10
-4.320442049180328
 20
-0.5635011475409833
 10
-4.319442796288162
 20
-0.5712423610412095
 10
-4.318429603591669
 20
-0.5789817706298825
 10
-4.317402473237085
 20
-0.5867193580639943
 10
-4.316361407370646
 20
-0.5944551051005376
 10
-4.3153064081385875
 20
-0.602188993496504
 10
-4.314237477687148
 20
-0.6099210050088855
 10
-4.313154618162562
 20
-0.6176511213946726
 10
-4.312057831711066
 20
-0.6253793244108602
 10
-4.310947120478896
 20
-0.6331055958144391
 10
-4.309822486612289
 20
-0.6408299173624
 10
-4.30868393225748
 20
-0.6485522708117378
 10
-4.307531459560707
 20
-0.656272637919441
 10
-4.306365070668205
 20
-0.6639910004425046
 10
-4.30518476772621
 20
-0.6717073401379191
 10
-4.30399055288096
 20
-0.6794216387626766
 10
-4.302782428278689
 20
-0.6871338780737706
 10
-4.301560396065634
 20
-0.6948440398281909
 10
-4.300324458388031
 20
-0.7025521057829314
 10
-4.299074617392118
 20
-0.7102580576949816
 10
-4.297810875224129
 20
-0.7179618773213365
 10
-4.296533234030302
 20
-0.7256635464189868
 10
-4.2952416959568716
 20
-0.7333630467449243
 10
-4.293936263150075
 20
-0.7410603600561426
 10
-4.292616937756148
 20
-0.7487554681096316
 10
-4.291283721921327
 20
-0.756448352662383
 10
-4.289936617791849
 20
-0.7641389954713905
 10
-4.288575627513948
 20
-0.7718273782936461
 10
-4.287200753233863
 20
-0.7795134828861424
 10
-4.285811997097828
 20
-0.7871972910058691
 10
-4.284409361252082
 20
-0.79487878440982
 10
-4.282992847842857
 20
-0.8025579448549859
 10
-4.281562459016394
 20
-0.8102347540983605
  0
ENDSEC
  0
SECTION
  2
OBJECTS
  0
DICTIONARY
  5
A
330
0
100
AcDbDictionary
281
1
  3
ACAD_COLOR
350
B
  3
ACAD_GROUP
350
C
  3
ACAD_LAYOUT
350
D
  3
ACAD_MATERIAL
350
E
  3
ACAD_MLEADERSTYLE
350
F
  3
ACAD_MLINESTYLE
350
10
  3
ACAD_PLOTSETTINGS
350
11
  3
ACAD_PLOTSTYLENAME
350
12
  3
ACAD_SCALELIST
350
14
  3
ACAD_TABLESTYLE
350
15
  3
ACAD_VISUALSTYLE
350
16
  3
EZDXF_META
350
2D
  0
DICTIONARY
  5
B
330
A
100
AcDbDictionary
281
1
  0
DICTIONARY
  5
C
330
A
100
AcDbDictionary
281
1
  0
DICTIONARY
  5
D
330
A
100
AcDbDictionary
281
1
  3
Model
350
1A
  3
Layout1
350
1E
  0
DICTIONARY
  5
E
330
A
100
AcDbDictionary
281
1
  3
ByBlock
350
1F
  3
ByLayer
350
20
  3
Global
350
21
  0
DICTIONARY
  5
F
330
A
100
AcDbDictionary
281
1
  3
Standard
350
2C
  0
DICTIONARY
  5
10
330
A
100
AcDbDictionary
281
1
  3
Standard
350
22
  0
DICTIONARY
  5
11
330
A
100
AcDbDictionary
281
1
  0
ACDBDICTIONARYWDFLT
  5
12
330
A
100
AcDbDictionary
281
1
  3
Normal
350
13
100
AcDbDictionaryWithDefault
340
13
  0
ACDBPLACEHOLDER
  5
13
330
12
  0
DICTIONARY
  5
14
330
A
100
AcDbDictionary
281
1
  0
DICTIONARY
  5
15
330
A
100
AcDbDictionary
281
1
  0
DICTIONARY
  5
16
330
A
100
AcDbDictionary
281
1
  0
LAYOUT
  5
1A
330
D
100
AcDbPlotSettings
  1

  4
A3
  6

 40
7.5
 41
20.0
 42
7.5
 43
20.0
 44
420.0
 45
297.0
 46
0.0
 47
0.0
 48
0.0
 49
0.0
140
0.0
141
0.0
142
1.0
143
1.0
 70
1024
 72
1
 73
0
 74
5
  7

 75
16
 76
0
 77
2
 78
300
147
1.0
148
0.0
149
0.0
100
AcDbLayout
  1
Model
 70
1
 71
0
 10
0.0
 20
0.0
 11
420.0
 21
297.0
 12
0.0
 22
0.0
 32
0.0
 14
1e+20
 24
1e+20
 34
1e+20
 15
-1e+20
 25
-1e+20
 35
-1e+20
146
0.0
 13
0.0
 23
0.0
 33
0.0
 16
1.0
 26
0.0
 36
0.0
 17
0.0
 27
1.0
 37
0.0
 76
1
330
17
  0
LAYOUT
  5
1E
330
D
100
AcDbPlotSettings
  1

  4
A3
  6

 40
7.5
 41
20.0
 42
7.5
 43
20.0
 44
420.0
 45
297.0
 46
0.0
 47
0.0
 48
0.0
 49
0.0
140
0.0
141
0.0
142
1.0
143
1.0
 70
0
 72
1
 73
0
 74
5
  7

 75
16
 76
0
 77
2
 78
300
147
1.0
148
0.0
149
0.0
100
AcDbLayout
  1
Layout1
 70
1
 71
1
 10
0.0
 20
0.0
 11
420.0
 21
297.0
 12
0.0
 22
0.0
 32
0.0
 14
1e+20
 24
1e+20
 34
1e+20
 15
-1e+20
 25
-1e+20
 35
-1e+20
146
0.0
 13
0.0
 23
0.0
 33
0.0
 16
1.0
 26
0.0
 36
0.0
 17
0.0
 27
1.0
 37
0.0
 76
1
330
1B
  0
MATERIAL
  5
1F
102
{ACAD_REACTORS
330
E
102
}
330
E
100
AcDbMaterial
  1
ByBlock
  2

 70
0
 40
1.0
 71
1
 41
1.0
 91
-1023410177
 42
1.0
 72
1
  3

 73
1
 74
1
 75
1
 44
0.5
 73
0
 45
1.0
 46
1.0
 77
1
  4

 78
1
 79
1
170
1
 48
1.0
171
1
  6

172
1
173
1
174
1
140
1.0
141
1.0
175
1
  7

176
1
177
1
178
1
143
1.0
179
1
  8

270
1
271
1
272
1
145
1.0
146
1.0
273
1
  9

274
1
275
1
276
1
 42
1.0
 72
1
  3

 73
1
 74
1
 75
1
 94
63
  0
MATERIAL
  5
20
102
{ACAD_REACTORS
330
E
102
}
330
E
100
AcDbMaterial
  1
ByLayer
  2

 70
0
 40
1.0
 71
1
 41
1.0
 91
-1023410177
 42
1.0
 72
1
  3

 73
1
 74
1
 75
1
 44
0.5
 73
0
 45
1.0
 46
1.0
 77
1
  4

 78
1
 79
1
170
1
 48
1.0
171
1
  6

172
1
173
1
174
1
140
1.0
141
1.0
175
1
  7

176
1
177
1
178
1
143
1.0
179
1
  8

270
1
271
1
272
1
145
1.0
146
1.0
273
1
  9

274
1
275
1
276
1
 42
1.0
 72
1
  3

 73
1
 74
1
 75
1
 94
63
  0
MATERIAL
  5
21
102
{ACAD_REACTORS
330
E
102
}
330
E
100
AcDbMaterial
  1
Global
  2

 70
0
 40
1.0
 71
1
 41
1.0
 91
-1023410177
 42
1.0
 72
1
  3

 73
1
 74
1
 75
1
 44
0.5
 73
0
 45
1.0
 46
1.0
 77
1
  4

 78
1
 79
1
170
1
 48
1.0
171
1
  6

172
1
173
1
174
1
140
1.0
141
1.0
175
1
  7

176
1
177
1
178
1
143
1.0
179
1
  8

270
1
271
1
272
1
145
1.0
146
1.0
273
1
  9

274
1
275
1
276
1
 42
1.0
 72
1
  3

 73
1
 74
1
 75
1
 94
63
  0
MLINESTYLE
  5
22
102
{ACAD_REACTORS
330
10
102
}
330
10
100
AcDbMlineStyle
  2
Standard
 70
0
  3

 62
256
 51
90.0
 52
90.0
 71
2
 49
0.5
 62
256
  6
BYLAYER
 49
-0.5
 62
256
  6
BYLAYER
  0
MLEADERSTYLE
  5
2C
102
{ACAD_REACTORS
330
F
102
}
330
F
100
AcDbMLeaderStyle
179
2
170
2
171
1
172
0
 90
2
 40
0.0
 41
0.0
173
1
 91
-1056964608
 92
-2
290
1
 42
2.0
291
1
 43
8.0
  3
Standard
 44
4.0
300

342
29
174
1
175
1
176
0
178
1
 93
-1056964608
 45
4.0
292
0
297
0
 46
4.0
 94
-1056964608
 47
1.0
 49
1.0
140
1.0
294
1
141
0.0
177
0
142
1.0
295
0
296
0
143
3.75
271
0
272
9
273
9
  0
DICTIONARY
  5
2D
330
A
100
AcDbDictionary
280
1
281
1
  3
CREATED_BY_EZDXF
350
2E
  3
WRITTEN_BY_EZDXF
350
50
  0
DICTIONARYVAR
  5
2E
330
2D
100
DictionaryVariables
280
0
  1
1.4.3 @ 2026-05-01T15:52:42.444365+00:00
  0
DICTIONARYVAR
  5
50
330
2D
100
DictionaryVariables
280
0
  1
1.4.3 @ 2026-05-01T15:52:42.452397+00:00
  0
ENDSEC
  0
EOF
