  0
SECTION
  2
HEADER
  9
$ACADVER
  1
AC1024
  9
$ACADMAINTVER
 70
6
  9
$DWGCODEPAGE
  3
ANSI_1252
  9
$LASTSAVEDBY
  1
ezdxf
  9
$INSBASE
 10
0.0
 20
0.0
 30
0.0
  9
$EXTMIN
 10
1e+20
 20
1e+20
 30
1e+20
  9
$EXTMAX
 10
-1e+20
 20
-1e+20
 30
-1e+20
  9
$LIMMIN
 10
0.0
 20
0.0
  9
$LIMMAX
 10
420.0
 20
297.0
  9
$ORTHOMODE
 70
0
  9
$REGENMODE
 70
1
  9
$FILLMODE
 70
1
  9
$QTEXTMODE
 70
0
  9
$MIRRTEXT
 70
1
  9
$LTSCALE
 40
1.0
  9
$ATTMODE
 70
1
  9
$TEXTSIZE
 40
2.5
  9
$TRACEWID
 40
1.0
  9
$TEXTSTYLE
  7
Standard
  9
$CLAYER
  8
0
  9
$CELTYPE
  6
ByLayer
  9
$CECOLOR
 62
256
  9
$CELTSCALE
 40
1.0
  9
$DISPSILH
 70
0
  9
$DIMSCALE
 40
1.0
  9
$DIMASZ
 40
2.5
  9
$DIMEXO
 40
0.625
  9
$DIMDLI
 40
3.75
  9
$DIMRND
 40
0.0
  9
$DIMDLE
 40
0.0
  9
$DIMEXE
 40
1.25
  9
$DIMTP
 40
0.0
  9
$DIMTM
 40
0.0
  9
$DIMTXT
 40
2.5
  9
$DIMCEN
 40
2.5
  9
$DIMTSZ
 40
0.0
  9
$DIMTOL
 70
0
  9
$DIMLIM
 70
0
  9
$DIMTIH
 70
0
  9
$DIMTOH
 70
0
  9
$DIMSE1
 70
0
  9
$DIMSE2
 70
0
  9
$DIMTAD
 70
1
  9
$DIMZIN
 70
8
  9
$DIMBLK
  1

  9
$DIMASO
 70
1
  9
$DIMSHO
 70
1
  9
$DIMPOST
  1

  9
$DIMAPOST
  1

  9
$DIMALT
 70
0
  9
$DIMALTD
 70
3
  9
$DIMALTF
 40
0.03937007874
  9
$DIMLFAC
 40
1.0
  9
$DIMTOFL
 70
1
  9
$DIMTVP
 40
0.0
  9
$DIMTIX
 70
0
  9
$DIMSOXD
 70
0
  9
$DIMSAH
 70
0
  9
$DIMBLK1
  1

  9
$DIMBLK2
  1

  9
$DIMSTYLE
  2
ISO-25
  9
$DIMCLRD
 70
0
  9
$DIMCLRE
 70
0
  9
$DIMCLRT
 70
0
  9
$DIMTFAC
 40
1.0
  9
$DIMGAP
 40
0.625
  9
$DIMJUST
 70
0
  9
$DIMSD1
 70
0
  9
$DIMSD2
 70
0
  9
$DIMTOLJ
 70
0
  9
$DIMTZIN
 70
8
  9
$DIMALTZ
 70
0
  9
$DIMALTTZ
 70
0
  9
$DIMUPT
 70
0
  9
$DIMDEC
 70
2
  9
$DIMTDEC
 70
2
  9
$DIMALTU
 70
2
  9
$DIMALTTD
 70
3
  9
$DIMTXSTY
  7
Standard
  9
$DIMAUNIT
 70
0
  9
$DIMADEC
 70
0
  9
$DIMALTRND
 40
0.0
  9
$DIMAZIN
 70
0
  9
$DIMDSEP
 70
44
  9
$DIMATFIT
 70
3
  9
$DIMFRAC
 70
0
  9
$DIMLDRBLK
  1

  9
$DIMLUNIT
 70
2
  9
$DIMLWD
 70
-2
  9
$DIMLWE
 70
-2
  9
$DIMTMOVE
 70
0
  9
$DIMFXL
 40
1.0
  9
$DIMFXLON
 70
0
  9
$DIMJOGANG
 40
0.785398163397
  9
$DIMTFILL
 70
0
  9
$DIMTFILLCLR
 70
0
  9
$DIMARCSYM
 70
0
  9
$DIMLTYPE
  6

  9
$DIMLTEX1
  6

  9
$DIMLTEX2
  6

  9
$DIMTXTDIRECTION
 70
0
  9
$LUNITS
 70
2
  9
$LUPREC
 70
4
  9
$SKETCHINC
 40
1.0
  9
$FILLETRAD
 40
10.0
  9
$AUNITS
 70
0
  9
$AUPREC
 70
2
  9
$MENU
  1
.
  9
$ELEVATION
 40
0.0
  9
$PELEVATION
 40
0.0
  9
$THICKNESS
 40
0.0
  9
$LIMCHECK
 70
0
  9
$CHAMFERA
 40
0.0
  9
$CHAMFERB
 40
0.0
  9
$CHAMFERC
 40
0.0
  9
$CHAMFERD
 40
0.0
  9
$SKPOLY
 70
0
  9
$TDCREATE
 40
2461162.7449305556
  9
$TDUCREATE
 40
2458532.153996898
  9
$TDUPDATE
 40
2461162.7449305556
  9
$TDUUPDATE
 40
2458532.1544311
  9
$TDINDWG
 40
0.0
  9
$TDUSRTIMER
 40
0.0
  9
$USRTIMER
 70
1
  9
$ANGBASE
 50
0.0
  9
$ANGDIR
 70
0
  9
$PDMODE
 70
0
  9
$PDSIZE
 40
0.0
  9
$PLINEWID
 40
0.0
  9
$SPLFRAME
 70
0
  9
$SPLINETYPE
 70
6
  9
$SPLINESEGS
 70
8
  9
$HANDSEED
  5
5B
  9
$SURFTAB1
 70
6
  9
$SURFTAB2
 70
6
  9
$SURFTYPE
 70
6
  9
$SURFU
 70
6
  9
$SURFV
 70
6
  9
$UCSBASE
  2

  9
$UCSNAME
  2

  9
$UCSORG
 10
0.0
 20
0.0
 30
0.0
  9
$UCSXDIR
 10
1.0
 20
0.0
 30
0.0
  9
$UCSYDIR
 10
0.0
 20
1.0
 30
0.0
  9
$UCSORTHOREF
  2

  9
$UCSORTHOVIEW
 70
0
  9
$UCSORGTOP
 10
0.0
 20
0.0
 30
0.0
  9
$UCSORGBOTTOM
 10
0.0
 20
0.0
 30
0.0
  9
$UCSORGLEFT
 10
0.0
 20
0.0
 30
0.0
  9
$UCSORGRIGHT
 10
0.0
 20
0.0
 30
0.0
  9
$UCSORGFRONT
 10
0.0
 20
0.0
 30
0.0
  9
$UCSORGBACK
 10
0.0
 20
0.0
 30
0.0
  9
$PUCSBASE
  2

  9
$PUCSNAME
  2

  9
$PUCSORG
 10
0.0
 20
0.0
 30
0.0
  9
$PUCSXDIR
 10
1.0
 20
0.0
 30
0.0
  9
$PUCSYDIR
 10
0.0
 20
1.0
 30
0.0
  9
$PUCSORTHOREF
  2

  9
$PUCSORTHOVIEW
 70
0
  9
$PUCSORGTOP
 10
0.0
 20
0.0
 30
0.0
  9
$PUCSORGBOTTOM
 10
0.0
 20
0.0
 30
0.0
  9
$PUCSORGLEFT
 10
0.0
 20
0.0
 30
0.0
  9
$PUCSORGRIGHT
 10
0.0
 20
0.0
 30
0.0
  9
$PUCSORGFRONT
 10
0.0
 20
0.0
 30
0.0
  9
$PUCSORGBACK
 10
0.0
 20
0.0
 30
0.0
  9
$USERI1
 70
0
  9
$USERI2
 70
0
  9
$USERI3
 70
0
  9
$USERI4
 70
0
  9
$USERI5
 70
0
  9
$USERR1
 40
0.0
  9
$USERR2
 40
0.0
  9
$USERR3
 40
0.0
  9
$USERR4
 40
0.0
  9
$USERR5
 40
0.0
  9
$WORLDVIEW
 70
1
  9
$SHADEDGE
 70
3
  9
$SHADEDIF
 70
70
  9
$TILEMODE
 70
1
  9
$MAXACTVP
 70
64
  9
$PINSBASE
 10
0.0
 20
0.0
 30
0.0
  9
$PLIMCHECK
 70
0
  9
$PEXTMIN
 10
1e+20
 20
1e+20
 30
1e+20
  9
$PEXTMAX
 10
-1e+20
 20
-1e+20
 30
-1e+20
  9
$PLIMMIN
 10
0.0
 20
0.0
  9
$PLIMMAX
 10
420.0
 20
297.0
  9
$UNITMODE
 70
0
  9
$VISRETAIN
 70
1
  9
$PLINEGEN
 70
0
  9
$PSLTSCALE
 70
1
  9
$TREEDEPTH
 70
3020
  9
$CMLSTYLE
  2
Standard
  9
$CMLJUST
 70
0
  9
$CMLSCALE
 40
20.0
  9
$PROXYGRAPHICS
 70
1
  9
$MEASUREMENT
 70
1
  9
$CELWEIGHT
370
-1
  9
$ENDCAPS
280
0
  9
$JOINSTYLE
280
0
  9
$LWDISPLAY
290
0
  9
$INSUNITS
 70
4
  9
$HYPERLINKBASE
  1

  9
$STYLESHEET
  1

  9
$XEDIT
290
1
  9
$CEPSNTYPE
380
0
  9
$PSTYLEMODE
290
1
  9
$FINGERPRINTGUID
  2
{DE54C25C-A46B-4A4F-9088-C82F70BA5C7B}
  9
$VERSIONGUID
  2
{71AE9253-39D2-47D6-9BF1-08844F2BAA9D}
  9
$EXTNAMES
290
1
  9
$PSVPSCALE
 40
0.0
  9
$OLESTARTUP
290
0
  9
$SORTENTS
280
127
  9
$INDEXCTL
280
0
  9
$HIDETEXT
280
1
  9
$XCLIPFRAME
280
1
  9
$HALOGAP
280
0
  9
$OBSCOLOR
 70
257
  9
$OBSLTYPE
280
0
  9
$INTERSECTIONDISPLAY
280
0
  9
$INTERSECTIONCOLOR
 70
257
  9
$DIMASSOC
280
2
  9
$PROJECTNAME
  1

  9
$CAMERADISPLAY
290
0
  9
$LENSLENGTH
 40
50.0
  9
$CAMERAHEIGHT
 40
0.0
  9
$STEPSPERSEC
 40
24.0
  9
$STEPSIZE
 40
100.0
  9
$3DDWFPREC
 40
2.0
  9
$PSOLWIDTH
 40
0.005
  9
$PSOLHEIGHT
 40
0.08
  9
$LOFTANG1
 40
1.570796326795
  9
$LOFTANG2
 40
1.570796326795
  9
$LOFTMAG1
 40
0.0
  9
$LOFTMAG2
 40
0.0
  9
$LOFTPARAM
 70
7
  9
$LOFTNORMALS
280
1
  9
$LATITUDE
 40
37.795
  9
$LONGITUDE
 40
-122.394
  9
$NORTHDIRECTION
 40
0.0
  9
$TIMEZONE
 70
-8000
  9
$LIGHTGLYPHDISPLAY
280
1
  9
$TILEMODELIGHTSYNCH
280
1
  9
$CMATERIAL
347
20
  9
$SOLIDHIST
280
0
  9
$SHOWHIST
280
1
  9
$DWFFRAME
280
2
  9
$DGNFRAME
280
2
  9
$REALWORLDSCALE
290
1
  9
$INTERFERECOLOR
 62
256
  9
$CSHADOW
280
0
  9
$SHADOWPLANELOCATION
 40
0.0
  0
ENDSEC
  0
SECTION
  2
CLASSES
  0
CLASS
  1
ACDBDICTIONARYWDFLT
  2
AcDbDictionaryWithDefault
  3
ObjectDBX Classes
 90
0
 91
0
280
0
281
0
  0
CLASS
  1
SUN
  2
AcDbSun
  3
SCENEOE
 90
1153
 91
0
280
0
281
0
  0
CLASS
  1
VISUALSTYLE
  2
AcDbVisualStyle
  3
ObjectDBX Classes
 90
4095
 91
0
280
0
281
0
  0
CLASS
  1
MATERIAL
  2
AcDbMaterial
  3
ObjectDBX Classes
 90
1153
 91
0
280
0
281
0
  0
CLASS
  1
SCALE
  2
AcDbScale
  3
ObjectDBX Classes
 90
1153
 91
0
280
0
281
0
  0
CLASS
  1
TABLESTYLE
  2
AcDbTableStyle
  3
ObjectDBX Classes
 90
4095
 91
0
280
0
281
0
  0
CLASS
  1
MLEADERSTYLE
  2
AcDbMLeaderStyle
  3
ACDB_MLEADERSTYLE_CLASS
 90
4095
 91
0
280
0
281
0
  0
CLASS
  1
DICTIONARYVAR
  2
AcDbDictionaryVar
  3
ObjectDBX Classes
 90
0
 91
0
280
0
281
0
  0
CLASS
  1
CELLSTYLEMAP
  2
AcDbCellStyleMap
  3
ObjectDBX Classes
 90
1152
 91
0
280
0
281
0
  0
CLASS
  1
MENTALRAYRENDERSETTINGS
  2
AcDbMentalRayRenderSettings
  3
SCENEOE
 90
1024
 91
0
280
0
281
0
  0
CLASS
  1
ACDBDETAILVIEWSTYLE
  2
AcDbDetailViewStyle
  3
ObjectDBX Classes
 90
1025
 91
0
280
0
281
0
  0
CLASS
  1
ACDBSECTIONVIEWSTYLE
  2
AcDbSectionViewStyle
  3
ObjectDBX Classes
 90
1025
 91
0
280
0
281
0
  0
CLASS
  1
RASTERVARIABLES
  2
AcDbRasterVariables
  3
ISM
 90
0
 91
0
280
0
281
0
  0
CLASS
  1
ACDBPLACEHOLDER
  2
AcDbPlaceHolder
  3
ObjectDBX Classes
 90
0
 91
0
280
0
281
0
  0
CLASS
  1
LAYOUT
  2
AcDbLayout
  3
ObjectDBX Classes
 90
0
 91
0
280
0
281
0
  0
ENDSEC
  0
SECTION
  2
TABLES
  0
TABLE
  2
VPORT
  5
8
330
0
100
AcDbSymbolTable
 70
1
  0
VPORT
  5
23
330
8
100
AcDbSymbolTableRecord
100
AcDbViewportTableRecord
  2
*Active
 70
0
 10
0.0
 20
0.0
 11
1.0
 21
1.0
 12
0.0
 22
0.0
 13
0.0
 23
0.0
 14
0.5
 24
0.5
 15
0.5
 25
0.5
 16
0.0
 26
0.0
 36
1.0
 17
0.0
 27
0.0
 37
0.0
 40
1000.0
 41
1.34
 42
50.0
 43
0.0
 44
0.0
 50
0.0
 51
0.0
 71
0
 72
1000
 73
1
 74
3
 75
0
 76
0
 77
0
 78
0
281
0
 65
0
146
0.0
  0
ENDTAB
  0
TABLE
  2
LTYPE
  5
2
330
0
100
AcDbSymbolTable
 70
3
  0
LTYPE
  5
24
330
2
100
AcDbSymbolTableRecord
100
AcDbLinetypeTableRecord
  2
ByBlock
 70
0
  3

 72
65
 73
0
 40
0.0
  0
LTYPE
  5
25
330
2
100
AcDbSymbolTableRecord
100
AcDbLinetypeTableRecord
  2
ByLayer
 70
0
  3

 72
65
 73
0
 40
0.0
  0
LTYPE
  5
26
330
2
100
AcDbSymbolTableRecord
100
AcDbLinetypeTableRecord
  2
Continuous
 70
0
  3

 72
65
 73
0
 40
0.0
  0
ENDTAB
  0
TABLE
  2
LAYER
  5
1
330
0
100
AcDbSymbolTable
 70
2
  0
LAYER
  5
27
330
1
100
AcDbSymbolTableRecord
100
AcDbLayerTableRecord
  2
0
 70
0
 62
7
  6
Continuous
370
-3
390
13
347
21
  0
LAYER
  5
28
330
1
100
AcDbSymbolTableRecord
100
AcDbLayerTableRecord
  2
Defpoints
 70
0
 62
7
  6
Continuous
290
0
370
-3
390
13
347
21
  0
ENDTAB
  0
TABLE
  2
STYLE
  5
5
330
0
100
AcDbSymbolTable
 70
1
  0
STYLE
  5
29
330
5
100
AcDbSymbolTableRecord
100
AcDbTextStyleTableRecord
  2
Standard
 70
0
 40
0.0
 41
1.0
 50
0.0
 71
0
 42
2.5
  3
txt
  4

  0
ENDTAB
  0
TABLE
  2
VIEW
  5
7
330
0
100
AcDbSymbolTable
 70
0
  0
ENDTAB
  0
TABLE
  2
UCS
  5
6
330
0
100
AcDbSymbolTable
 70
0
  0
ENDTAB
  0
TABLE
  2
APPID
  5
3
330
0
100
AcDbSymbolTable
 70
3
  0
APPID
  5
2A
330
3
100
AcDbSymbolTableRecord
100
AcDbRegAppTableRecord
  2
ACAD
 70
0
  0
APPID
  5
58
330
3
100
AcDbSymbolTableRecord
100
AcDbRegAppTableRecord
  2
HATCHBACKGROUNDCOLOR
 70
0
  0
APPID
  5
59
330
3
100
AcDbSymbolTableRecord
100
AcDbRegAppTableRecord
  2
EZDXF
 70
0
  0
ENDTAB
  0
TABLE
  2
DIMSTYLE
  5
4
330
0
100
AcDbSymbolTable
 70
1
100
AcDbDimStyleTable
  0
DIMSTYLE
105
2B
330
4
100
AcDbSymbolTableRecord
100
AcDbDimStyleTableRecord
  2
Standard
 70
0
 40
1.0
 41
2.5
 42
0.625
 43
3.75
 44
1.25
 45
0.0
 46
0.0
 47
0.0
 48
0.0
 49
2.5
140
2.5
141
2.5
142
0.0
143
0.03937007874
144
1.0
145
0.0
146
1.0
147
0.625
148
0.0
 69
0
 70
0
 71
0
 72
0
 73
0
 74
0
 75
0
 76
0
 77
1
 78
8
 79
3
170
0
171
3
172
1
173
0
174
0
175
0
176
0
177
0
178
0
179
2
271
2
272
2
273
2
274
3
275
0
276
0
277
2
278
44
279
0
280
0
281
0
282
0
283
0
284
8
285
0
286
0
288
0
289
3
290
0
371
-2
372
-2
  0
ENDTAB
  0
TABLE
  2
BLOCK_RECORD
  5
9
330
0
100
AcDbSymbolTable
 70
2
  0
BLOCK_RECORD
  5
17
330
9
100
AcDbSymbolTableRecord
100
AcDbBlockTableRecord
  2
*Model_Space
340
1A
 70
0
280
1
281
0
  0
BLOCK_RECORD
  5
1B
330
9
100
AcDbSymbolTableRecord
100
AcDbBlockTableRecord
  2
*Paper_Space
340
1E
 70
0
280
1
281
0
  0
ENDTAB
  0
ENDSEC
  0
SECTION
  2
BLOCKS
  0
BLOCK
  5
18
330
17
100
AcDbEntity
  8
0
100
AcDbBlockBegin
  2
*Model_Space
 70
0
 10
0.0
 20
0.0
 30
0.0
  3
*Model_Space
  1

  0
ENDBLK
  5
19
330
17
100
AcDbEntity
  8
0
100
AcDbBlockEnd
  0
BLOCK
  5
1C
330
1B
100
AcDbEntity
  8
0
100
AcDbBlockBegin
  2
*Paper_Space
 70
0
 10
0.0
 20
0.0
 30
0.0
  3
*Paper_Space
  1

  0
ENDBLK
  5
1D
330
1B
100
AcDbEntity
  8
0
100
AcDbBlockEnd
  0
ENDSEC
  0
SECTION
  2
ENTITIES
  0
LWPOLYLINE
  5
2F
330
17
100
AcDbEntity
  8
0
100
AcDbPolyline
 90
129
 70
1
 10
4.124999934374998
 20
0.0249997757083305
 10
4.120031193721677
 20
-0.17740437965249464
 10
4.105136936862294
 20
-0.3793209257888021
 10
4.080353045366885
 20
-0.5802634280459249
 10
4.045739225802011
 20
-0.7797477983262504
 10
4.001378865892389
 20
-0.9772934612998982
 10
3.9473788336325866
 20
-1.1724245121527785
 10
3.8838692198326243
 20
-1.3646708630830071
 10
3.8110030247178326
 20
-1.5535693757836186
 10
3.7289557893379013
 20
-1.7386649771833258
 10
3.6379251726731
 20
-1.9195117557574388
 10
3.538130475456471
 20
-2.095674035767806
 10
3.429812111859155
 20
-2.2667274268438344
 10
3.313231030311573
 20
-2.432259846376097
 10
3.188668084855799
 20
-2.591872512259451
 10
3.0564233585435563
 20
-2.7451809035940706
 10
2.916815440509843
 20
-2.891815687029994
 10
2.770180658463786
 20
-3.0314236065235374
 10
2.6168722684457335
 20
-3.1636683343620473
 10
2.4572596038024663
 20
-3.2882312814068477
 10
2.291727185430831
 20
-3.404812364602391
 10
2.120673795433171
 20
-3.5131307299026355
 10
1.9445115164163127
 20
-3.6129254288730515
 10
1.7636647387484572
 20
-3.7039560473382784
 10
1.5785691381655729
 20
-3.7860032845609326
 10
1.3896706261903842
 20
-3.858869481556308
 10
1.1974242758924258
 20
-3.922379097270185
 10
1.0022932255771466
 20
-3.9763791314726213
 10
0.8047475630451274
 20
-4.020739493348911
 10
0.6052631931093965
 20
-4.05535331489976
 10
0.4043206910990157
 20
-4.080137208395659
 10
0.2024041451109866
 20
-4.095031467265228
 10
-1.0200372635764155e-08
 20
-4.100000209933585
 10
-0.20240416548715917
 20
-4.095031466264208
 10
-0.40432071140152537
 20
-4.080137206396034
 10
-0.6052632132893364
 20
-4.055353311906349
 10
-0.8047475830538793
 20
-4.020739489368923
 10
-1.0022932453665052
 20
-3.9763791265156443
 10
-1.1974242954147216
 20
-3.9223790913481618
 10
-1.3896706453985832
 20
-3.8588694746835044
 10
-1.578569157013404
 20
-3.786003276753907
 10
-1.763664757190512
 20
-3.703956038615836
 10
-1.9445115344081658
 20
-3.6129254192562064
 10
-2.120673812931474
 20
-3.513130719414555
 10
-2.291727202393431
 20
-3.4048123532683445
 10
-2.457259620188503
 20
-3.2882312692541373
 10
-2.6168722842157233
 20
-3.1636683214199515
 10
-2.7701806735797443
 20
-3.0314235928232365
 10
-2.9168154549353473
 20
-2.891815672604491
 10
-3.056423372243861
 20
-2.7451808884781177
 10
-3.1886680977978985
 20
-2.591872496489463
 10
-3.3132310424642832
 20
-2.4322598299900657
 10
-3.4298121231932033
 20
-2.2667274098812342
 10
-3.538130485944553
 20
-2.0956740182695026
 10
-3.637925182289947
 20
-1.9195117377655913
 10
-3.728955798060347
 20
-1.7386649587412712
 10
-3.8110030325248623
 20
-1.5535693569357876
 10
-3.8838692267054284
 20
-1.3646708438748099
 10
-3.9473788395546117
 20
-1.1724244926304865
 10
-4.001378870849369
 20
-0.9772934415105416
 10
-4.045739229782002
 20
-0.779747778317504
 10
-4.0803530483603
 20
-0.5802634078659867
 10
-4.105136938861922
 20
-0.37932090548629427
 10
-4.1200311947227
 20
-0.1774043592763256
 10
-4.124999934375001
 20
0.0249997757083305
 10
-4.120031193721682
 20
0.22740393106915563
 10
-4.105136936862298
 20
0.4293204772054649
 10
-4.08035304536689
 20
0.630262979462584
 10
-4.045739225802015
 20
0.8297473497429114
 10
-4.001378865892394
 20
1.0272930127165611
 10
-3.94737883363259
 20
1.2224240635694412
 10
-3.883869219832628
 20
1.41467041449967
 10
-3.811003024717838
 20
1.6035689272002795
 10
-3.7289557893379066
 20
1.788664528599987
 10
-3.6379251726731034
 20
1.9695113071741017
 10
-3.5381304754564744
 20
2.145673587184467
 10
-3.4298121118591585
 20
2.3167269782604953
 10
-3.3132310303115764
 20
2.4822593977927596
 10
-3.1886680848558044
 20
2.641872063676114
 10
-3.0564233585435616
 20
2.7951804550107315
 10
-2.9168154405098465
 20
2.9418152384466585
 10
-2.7701806584637896
 20
3.0814231579402
 10
-2.616872268445737
 20
3.21366788577871
 10
-2.457259603802474
 20
3.3382308328235104
 10
-2.2917271854308363
 20
3.454811916019054
 10
-2.1206737954331762
 20
3.5631302813192964
 10
-1.9445115164163198
 20
3.662924980289714
 10
-1.7636647387484607
 20
3.753955598754943
 10
-1.5785691381655764
 20
3.836002835977597
 10
-1.3896706261903895
 20
3.9088690329729707
 10
-1.1974242758924294
 20
3.9723786486868495
 10
-1.0022932255771484
 20
4.026378682889286
 10
-0.804747563045131
 20
4.070739044765575
 10
-0.6052631931094037
 20
4.105352866316425
 10
-0.40432069109901925
 20
4.1301367598123235
 10
-0.20240414511099195
 20
4.14503101868189
 10
1.0200365513757724e-08
 20
4.14999976135025
 10
0.20240416548715381
 20
4.145031017680873
 10
0.40432071140152004
 20
4.130136757812699
 10
0.6052632132893311
 20
4.105352863323015
 10
0.8047475830538738
 20
4.070739040785588
 10
1.0022932453665034
 20
4.026378677932309
 10
1.197424295414718
 20
3.972378642764826
 10
1.3896706453985814
 20
3.908869026100169
 10
1.5785691570133966
 20
3.836002828170573
 10
1.7636647571905049
 20
3.7539555900325023
 10
1.944511534408157
 20
3.6629249706728744
 10
2.120673812931467
 20
3.5631302708312234
 10
2.291727202393424
 20
3.4548119046850125
 10
2.4572596201884975
 20
3.3382308206708036
 10
2.616872284215718
 20
3.2136678728366177
 10
2.770180673579739
 20
3.081423144239899
 10
2.9168154549353456
 20
2.941815224021156
 10
3.0564233722438576
 20
2.795180439894782
 10
3.1886680977978914
 20
2.641872047906129
 10
3.3132310424642797
 20
2.482259381406732
 10
3.429812123193198
 20
2.3167269612979022
 10
3.5381304859445475
 20
2.1456735696861706
 10
3.637925182289942
 20
1.9695112891822593
 10
3.7289557980603436
 20
1.7886645101579375
 10
3.8110030325248587
 20
1.603568908352454
 10
3.883869226705425
 20
1.414670395291476
 10
3.94737883955461
 20
1.2224240440471492
 10
4.001378870849366
 20
1.0272929929272043
 10
4.045739229781998
 20
0.8297473297341685
 10
4.080353048360297
 20
0.6302629592826531
 10
4.105136938861919
 20
0.4293204569029606
 10
4.120031194722697
 20
0.22740391069299196
 10
4.124999934374998
 20
0.0249997757083305
  0
LWPOLYLINE
  5
30
330
17
100
AcDbEntity
  8
0
100
AcDbPolyline
 90
2
 70
0
 10
-1.0500000253643458e-07
 20
-0.01875037515625348
 10
-1.0500000253643458e-07
 20
14.999999930000001
  0
LWPOLYLINE
  5
31
330
17
100
AcDbEntity
  8
0
100
AcDbPolyline
 90
2
 70
0
 10
-2.1750002231250045
 20
10.849999215416661
 10
2.175000013124996
 20
10.849999215416661
  0
LWPOLYLINE
  5
32
330
17
100
AcDbEntity
  8
0
100
AcDbPolyline
 90
2
 70
0
 10
-2.1750002231250045
 20
9.350000002916667
 10
2.175000013124996
 20
9.350000002916667
  0
LWPOLYLINE
  5
33
330
17
100
AcDbEntity
  8
0
100
AcDbPolyline
 90
2
 70
0
 10
-2.1750002231250045
 20
7.8500000904166685
 10
2.175000013124996
 20
7.8500000904166685
  0
LWPOLYLINE
  5
34
330
17
100
AcDbEntity
  8
0
100
AcDbPolyline
 90
129
 70
0
 10
-1.9996544216637875
 20
14.999999930000001
 10
-1.9997873085327982
 20
14.997608114700299
 10
-2.000146529892377
 20
14.990533376813813
 10
-2.000672926871326
 20
14.97892677835947
 10
-2.001307340598461
 20
14.962939381356202
 10
-2.0019906122025892
 20
14.942722247822934
 10
-2.0026635828125214
 20
14.918426439778596
 10
-2.0032670935570684
 20
14.890203019242117
 10
-2.0037419855650387
 20
14.858203048232422
 10
-2.004029099965243
 20
14.822577588768445
 10
-2.00406927788649
 20
14.78347770286911
 10
-2.003803360457595
 20
14.741054452553348
 10
-2.0031721888073606
 20
14.695458899840089
 10
-2.0021166040645992
 20
14.646842106748258
 10
-2.000577447358126
 20
14.595355135296785
 10
-1.9984955598167415
 20
14.541149047504597
 10
-1.9958117825692645
 20
14.484374905390625
 10
-1.992466956744502
 20
14.425183770973797
 10
-1.9884019234712622
 20
14.363726706273042
 10
-1.9835575238783565
 20
14.300154773307284
 10
-1.9778745990945936
 20
14.23461903409546
 10
-1.971293990248784
 20
14.167270550656491
 10
-1.9637565384697422
 20
14.098260385009308
 10
-1.9552030848862716
 20
14.02773959917284
 10
-1.945574470627183
 20
13.955859255166015
 10
-1.9348115368212906
 20
13.882770415007762
 10
-1.922855124597405
 20
13.80862414071701
 10
-1.9096460750843263
 20
13.733571494312686
 10
-1.8951252294108776
 20
13.65776353781372
 10
-1.8792334287058587
 20
13.58135133323904
 10
-1.8619115140980844
 20
13.504485942607573
 10
-1.8431003267163648
 20
13.427318427938252
 10
-1.8227407076895072
 20
13.349999851249999
 10
-1.8007734981463261
 20
13.272681274561748
 10
-1.7771395392156248
 20
13.195513759892425
 10
-1.7517796720262195
 20
13.11864836926096
 10
-1.7246347377069189
 20
13.04223616468628
 10
-1.695645577386532
 20
12.966428208187313
 10
-1.6647530321938675
 20
12.89137556178299
 10
-1.6318979432577365
 20
12.817229287492237
 10
-1.5970211517069495
 20
12.744140447333985
 10
-1.560063498670317
 20
12.672260103327158
 10
-1.5209658252766463
 20
12.601739317490692
 10
-1.4796689726547516
 20
12.53272915184351
 10
-1.4361137819334382
 20
12.46538066840454
 10
-1.3902410942415186
 20
12.399844929192714
 10
-1.3419917507078019
 20
12.33627299622696
 10
-1.2913065924611002
 20
12.274815931526204
 10
-1.2381264606302227
 20
12.215624797109374
 10
-1.1823921963439763
 20
12.158850654995403
 10
-1.1240446407311773
 20
12.104644567203216
 10
-1.0630246349206272
 20
12.053157595751744
 10
-0.9992730200411439
 20
12.00454080265991
 10
-0.9327306372215346
 20
11.95894524994665
 10
-0.8633383275906064
 20
11.916521999630888
 10
-0.7910369322771715
 20
11.877422113731555
 10
-0.7157672924100428
 20
11.841796654267577
 10
-0.6374702491180253
 20
11.809796683257884
 10
-0.5560866435299316
 20
11.781573262721404
 10
-0.47155731677457247
 20
11.757277454677064
 10
-0.3838231099807549
 20
11.7370603211438
 10
-0.2928248642772896
 20
11.721072924140529
 10
-0.19850342079299257
 20
11.709466325686188
 10
-0.10079962065666566
 20
11.702391587799701
 10
0.00034569500287871314
 20
11.6999997725
 10
0.1009232767370206
 20
11.702391587799701
 10
0.19809510294961774
 20
11.709466325686188
 10
0.2919194742759221
 20
11.721072924140529
 10
0.3824546913511821
 20
11.7370603211438
 10
0.46975905481064967
 20
11.757277454677064
 10
0.553890865289584
 20
11.781573262721404
 10
0.6349084234232226
 20
11.809796683257884
 10
0.712870029846832
 20
11.841796654267576
 10
0.7878339851956498
 20
11.877422113731555
 10
0.8598585901049386
 20
11.916521999630888
 10
0.9290021452099433
 20
11.95894524994665
 10
0.9953229511459158
 20
12.00454080265991
 10
1.0588793085481154
 20
12.053157595751744
 10
1.1197295180517797
 20
12.104644567203216
 10
1.1779318802921712
 20
12.158850654995403
 10
1.233544695904535
 20
12.215624797109374
 10
1.28662626552413
 20
12.274815931526204
 10
1.3372348897861979
 20
12.336272996226958
 10
1.3854288693259973
 20
12.399844929192714
 10
1.4312665047787803
 20
12.46538066840454
 10
1.4748060967797954
 20
12.53272915184351
 10
1.5161059459642912
 20
12.601739317490692
 10
1.5552243529675263
 20
12.672260103327158
 10
1.592219618424746
 20
12.744140447333985
 10
1.627150042971202
 20
12.817229287492237
 10
1.66007392724215
 20
12.89137556178299
 10
1.6910495718728387
 20
12.966428208187313
 10
1.7201352774985195
 20
13.04223616468628
 10
1.7473893447544446
 20
13.11864836926096
 10
1.7728700742758696
 20
13.195513759892425
 10
1.7966357666980393
 20
13.272681274561748
 10
1.8187447226562021
 20
13.349999851249999
 10
1.8392552427856206
 20
13.427318427938252
 10
1.8582256277215363
 20
13.504485942607573
 10
1.8757141780992117
 20
13.58135133323904
 10
1.8917791945538847
 20
13.65776353781372
 10
1.9064789777208178
 20
13.733571494312686
 10
1.9198718282352556
 20
13.80862414071701
 10
1.9320160467324543
 20
13.882770415007762
 10
1.9429699338476616
 20
13.955859255166015
 10
1.95279179021613
 20
14.02773959917284
 10
1.9615399164731149
 20
14.098260385009308
 10
1.9692726132538645
 20
14.167270550656491
 10
1.9760481811936272
 20
14.23461903409546
 10
1.981924920927659
 20
14.300154773307284
 10
1.986961133091208
 20
14.363726706273042
 10
1.9912151183195297
 20
14.425183770973797
 10
1.9947451772478726
 20
14.484374905390625
 10
1.9976096105114884
 20
14.541149047504597
 10
1.9998667187456296
 20
14.595355135296785
 10
2.0015748025855515
 20
14.646842106748258
 10
2.0027921626664953
 20
14.695458899840089
 10
2.00357709962372
 20
14.741054452553348
 10
2.003987914092474
 20
14.78347770286911
 10
2.0040829067080135
 20
14.822577588768445
 10
2.0039203781055823
 20
14.858203048232422
 10
2.0035586289204406
 20
14.890203019242117
 10
2.003055959787832
 20
14.918426439778596
 10
2.0024706713430134
 20
14.942722247822934
 10
2.0018610642212358
 20
14.962939381356202
 10
2.0012854390577477
 20
14.97892677835947
 10
2.0008020964877984
 20
14.990533376813813
 10
2.000469337146649
 20
14.997608114700299
 10
2.0003454616695424
 20
14.999999930000001
  0
LWPOLYLINE
  5
35
330
17
100
AcDbEntity
  8
0
100
AcDbPolyline
 90
2
 70
0
 10
-0.013258521932913497
 20
-0.013259174699154056
 10
10.606601946345151
 20
10.60660129357891
  0
LWPOLYLINE
  5
36
330
17
100
AcDbEntity
  8
0
100
AcDbPolyline
 90
2
 70
0
 10
6.13415084753142
 20
9.21006494181916
 10
9.210065594585403
 20
6.13415019476518
  0
LWPOLYLINE
  5
37
330
17
100
AcDbEntity
  8
0
100
AcDbPolyline
 90
2
 70
0
 10
5.073491204378031
 20
8.14940529866577
 10
8.149405951432014
 20
5.073490551611789
  0
LWPOLYLINE
  5
38
330
17
100
AcDbEntity
  8
0
100
AcDbPolyline
 90
2
 70
0
 10
4.012831066249877
 20
7.0887451605376155
 10
7.088745813303857
 20
4.012830413483632
  0
LWPOLYLINE
  5
39
330
17
100
AcDbEntity
  8
0
100
AcDbPolyline
 90
129
 70
0
 10
9.192632781382834
 20
12.020570458541224
 10
9.190847547311362
 20
12.01897315488717
 10
9.18559094417755
 20
12.01422456748548
 10
9.177011620602299
 20
12.006389681676861
 10
9.165258225206516
 20
11.995533482802019
 10
9.15047940661111
 20
11.981720956201665
 10
9.132823813436975
 20
11.965017087216502
 10
9.112440094305033
 20
11.945486861187238
 10
9.089476897836173
 20
11.923195263454582
 10
9.064082872651312
 20
11.89820727935924
 10
9.036406667371338
 20
11.870587894241924
 10
9.00659693061718
 20
11.840402093443336
 10
8.974802311009721
 20
11.807714862304183
 10
8.941171457169874
 20
11.772591186165174
 10
8.905853017718544
 20
11.735096050367016
 10
8.868995641276639
 20
11.695294440250418
 10
8.830747976465062
 20
11.653251341156086
 10
8.79125867190471
 20
11.609031738424726
 10
8.750676376216502
 20
11.562700617397049
 10
8.709149738021331
 20
11.514322963413756
 10
8.666827405940111
 20
11.463963761815561
 10
8.623858028593737
 20
11.411687997943167
 10
8.580390254603124
 20
11.357560657137283
 10
8.536572732589173
 20
11.301646724738617
 10
8.492554111172783
 20
11.244011186087876
 10
8.448483038974866
 20
11.184719026525766
 10
8.404508164616328
 20
11.123835231392995
 10
8.360778136718068
 20
11.061424786030267
 10
8.317441603900992
 20
10.997552675778296
 10
8.274647214786004
 20
10.932283885977787
 10
8.232543617994013
 20
10.865683401969443
 10
8.191279462145927
 20
10.797816209093979
 10
8.151003395862642
 20
10.728747292692095
 10
8.111864067765069
 20
10.6585416381045
 10
8.074010126474107
 20
10.587264230671906
 10
8.037590220610669
 20
10.514980055735014
 10
8.00275299879565
 20
10.441754098634535
 10
7.969647109649966
 20
10.367651344711176
 10
7.938421201794516
 20
10.292736779305642
 10
7.909223923850199
 20
10.217075387758642
 10
7.8822039244379285
 20
10.140732155410886
 10
7.857509852178606
 20
10.063772067603077
 10
7.83529035569314
 20
9.986260109675923
 10
7.815694083602432
 20
9.908261266970133
 10
7.798869684527387
 20
9.829840524826414
 10
7.784965807088908
 20
9.751062868585473
 10
7.774131099907908
 20
9.671993283588018
 10
7.766514211605282
 20
9.592696755174753
 10
7.762263790801939
 20
9.51323826868639
 10
7.76152848611878
 20
9.433682809463631
 10
7.764456946176721
 20
9.35409536284719
 10
7.7711978195966545
 20
9.27454091417777
 10
7.781899754999494
 20
9.195084448796079
 10
7.79671140100614
 20
9.115790952042824
 10
7.815781406237494
 20
9.036725409258711
 10
7.839258419314469
 20
8.957952805784451
 10
7.867291088857967
 20
8.87953812696075
 10
7.900028063488888
 20
8.801546358128313
 10
7.937617991828144
 20
8.72404248462785
 10
7.980209522496634
 20
8.647091491800067
 10
8.027951304115268
 20
8.57075836498567
 10
8.080991985304944
 20
8.495108089525369
 10
8.13948021468657
 20
8.42020565075987
 10
8.203564640881057
 20
8.34611603402988
 10
8.273393912509304
 20
8.272904224676108
 10
8.346204273343835
 20
8.203476401567103
 10
8.41991772769493
 20
8.139768137751508
 10
8.494468683357425
 20
8.081631391472891
 10
8.56979154812613
 20
8.028918120974808
 10
8.645820729795872
 20
7.981480284500828
 10
8.72249063616148
 20
7.939169840294511
 10
8.799735675017775
 20
7.901838746599421
 10
8.877490254159596
 20
7.869338961659122
 10
8.955688781381744
 20
7.841522443717179
 10
9.034265664479054
 20
7.81824115101715
 10
9.113155311246354
 20
7.799347041802605
 10
9.192292129478469
 20
7.784692074317102
 10
9.271610526970214
 20
7.774128206804207
 10
9.351044911516432
 20
7.767507397507481
 10
9.430529690911928
 20
7.76468160467049
 10
9.509999272951534
 20
7.765502786536796
 10
9.589388065430072
 20
7.769822901349962
 10
9.668630476142372
 20
7.777493907353552
 10
9.747660912883257
 20
7.788367762791129
 10
9.82641378344755
 20
7.8022964259062535
 10
9.904823495630067
 20
7.819131854942494
 10
9.982824457225654
 20
7.838726008143411
 10
10.060351076029118
 20
7.860930843752568
 10
10.137337759835283
 20
7.885598320013527
 10
10.213718916438985
 20
7.9125803951698535
 10
10.289428953635046
 20
7.94172902746511
 10
10.364402279218282
 20
7.972896175142859
 10
10.438573300983522
 20
8.005933796446664
 10
10.51187642672559
 20
8.04069384962009
 10
10.584246064239318
 20
8.077028292906695
 10
10.65561662131952
 20
8.11478908455005
 10
10.725922505761021
 20
8.153828182793717
 10
10.795098125358658
 20
8.193997545881253
 10
10.863077887907234
 20
8.235149132056225
 10
10.9297962012016
 20
8.277134899562196
 10
10.99518747303656
 20
8.319806806642731
 10
11.059186111206948
 20
8.36301681154139
 10
11.121726523507578
 20
8.406616872501742
 10
11.182743117733295
 20
8.450458947767341
 10
11.242170301678904
 20
8.49439499558176
 10
11.299942483139231
 20
8.538276974188557
 10
11.35599406990912
 20
8.581956841831296
 10
11.410259469783373
 20
8.625286556753538
 10
11.462673090556821
 20
8.668118077198853
 10
11.513169340024293
 20
8.710303361410798
 10
11.561682625980614
 20
8.751694367632938
 10
11.608147356220602
 20
8.792143054108838
 10
11.652497938539089
 20
8.831501379082058
 10
11.694668780730897
 20
8.869621300796165
 10
11.734594290590842
 20
8.90635477749472
 10
11.772208875913766
 20
8.941553767421286
 10
11.807446944494476
 20
8.97507022881943
 10
11.840242904127807
 20
9.00675611993271
 10
11.870531162608577
 20
9.036463399004692
 10
11.898246127731618
 20
9.064044024278937
 10
11.923322207291747
 20
9.089349953999012
 10
11.945693809083798
 20
9.11223314640848
 10
11.965295340902582
 20
9.132545559750898
 10
11.982061210542938
 20
9.150139152269839
 10
11.995925825799683
 20
9.16486588220886
 10
12.006823594467638
 20
9.176577707811525
 10
12.014688924341636
 20
9.185126587321397
 10
12.019456223216496
 20
9.19036447898204
 10
12.021059898887042
 20
9.192143341037019
  0
LWPOLYLINE
  5
3A
330
17
100
AcDbEntity
  8
0
100
AcDbPolyline
 90
2
 70
0
 10
-0.018750305156252974
 20
-1.7499999947938668e-07
 10
15.000000000000002
 20
-1.7499999947938668e-07
  0
LWPOLYLINE
  5
3B
330
17
100
AcDbEntity
  8
0
100
AcDbPolyline
 90
2
 70
0
 10
10.849999285416663
 20
2.174999943125001
 10
10.849999285416663
 20
-2.1750002931249997
  0
LWPOLYLINE
  5
3C
330
17
100
AcDbEntity
  8
0
100
AcDbPolyline
 90
2
 70
0
 10
9.350000072916666
 20
2.174999943125001
 10
9.350000072916666
 20
-2.1750002931249997
  0
LWPOLYLINE
  5
3D
330
17
100
AcDbEntity
  8
0
100
AcDbPolyline
 90
2
 70
0
 10
7.850000160416669
 20
2.174999943125001
 10
7.850000160416669
 20
-2.1750002931249997
  0
LWPOLYLINE
  5
3E
330
17
100
AcDbEntity
  8
0
100
AcDbPolyline
 90
129
 70
0
 10
15.000000000000002
 20
1.9996541416637856
 10
14.9976081847003
 20
1.999787028532796
 10
14.990533446813814
 20
2.0001462498923734
 10
14.978926848359473
 20
2.0006726468713243
 10
14.962939451356203
 20
2.0013070605984593
 10
14.942722317822936
 20
2.0019903322025874
 10
14.918426509778598
 20
2.0026633028125196
 10
14.89020308924212
 20
2.003266813557066
 10
14.858203118232423
 20
2.0037417055650364
 10
14.822577658768445
 20
2.004028819965241
 10
14.78347777286911
 20
2.0040689978864883
 10
14.74105452255335
 20
2.003803080457593
 10
14.695458969840091
 20
2.0031719088073583
 10
14.64684217674826
 20
2.002116324064599
 10
14.595355205296789
 20
2.0005771673581236
 10
14.541149117504597
 20
1.9984952798167415
 10
14.484374975390622
 20
1.9958115025692644
 10
14.425183840973794
 20
1.9924666767444998
 10
14.363726776273042
 20
1.9884016434712601
 10
14.300154843307283
 20
1.9835572438783544
 10
14.23461910409546
 20
1.9778743190945933
 10
14.16727062065649
 20
1.9712937102487837
 10
14.098260455009312
 20
1.9637562584697383
 10
14.027739669172833
 20
1.9552028048862677
 10
13.955859325166017
 20
1.9455741906271828
 10
13.882770485007764
 20
1.934811256821292
 10
13.808624210717012
 20
1.9228548445974012
 10
13.733571564312683
 20
1.909645795084326
 10
13.657763607813719
 20
1.895124949410872
 10
13.581351403239045
 20
1.879233148705855
 10
13.504486012607574
 20
1.8619112340980806
 10
13.427318497938254
 20
1.8431000467163627
 10
13.34999992125
 20
1.8227404276895036
 10
13.27268134456175
 20
1.8007732181463223
 10
13.195513829892425
 20
1.7771392592156228
 10
13.118648439260959
 20
1.7517793920262175
 10
13.042236234686278
 20
1.7246344577069133
 10
12.96642827818731
 20
1.6956452973865281
 10
12.891375631782989
 20
1.6647527521938636
 10
12.81722935749224
 20
1.6318976632577327
 10
12.744140517333987
 20
1.5970208717069456
 10
12.672260173327167
 20
1.5600632186703114
 10
12.601739387490692
 20
1.5209655452766424
 10
12.53272922184351
 20
1.479668692654746
 10
12.46538073840454
 20
1.4361135019334326
 10
12.399844999192712
 20
1.3902408142415148
 10
12.336273066226955
 20
1.3419914707077998
 10
12.274816001526203
 20
1.2913063124610964
 10
12.215624867109371
 20
1.2381261806302206
 10
12.158850724995402
 20
1.1823919163439762
 10
12.104644637203215
 20
1.1240443607311716
 10
12.05315766575174
 20
1.063024354920627
 10
12.004540872659913
 20
0.9992727400411419
 10
11.95894531994665
 20
0.9327303572215307
 10
11.91652206963089
 20
0.8633380475906025
 10
11.877422183731555
 20
0.7910366522771696
 10
11.841796724267576
 20
0.7157670124100389
 10
11.809796753257883
 20
0.6374699691180233
 10
11.781573332721406
 20
0.5560863635299279
 10
11.757277524677065
 20
0.47155703677456867
 10
11.737060391143798
 20
0.3838228299807511
 10
11.721072994140528
 20
0.2928245842772876
 10
11.709466395686187
 20
0.19850314079298878
 10
11.702391657799703
 20
0.10079934065666009
 10
11.699999842499999
 20
-0.0003459750028825095
 10
11.702391657799703
 20
-0.10092355673702619
 10
11.70946639568619
 20
-0.19809538294962153
 10
11.721072994140528
 20
-0.29191975427592587
 10
11.737060391143798
 20
-0.3824549713511859
 10
11.757277524677065
 20
-0.46975933481065346
 10
11.781573332721406
 20
-0.5538911452895877
 10
11.80979675325788
 20
-0.63490870342323
 10
11.841796724267573
 20
-0.7128703098468323
 10
11.877422183731555
 20
-0.7878342651956571
 10
11.91652206963089
 20
-0.8598588701049424
 10
11.958945319946647
 20
-0.9290024252099471
 10
12.004540872659913
 20
-0.9953232311459197
 10
12.05315766575174
 20
-1.0588795885481193
 10
12.104644637203215
 20
-1.119729798051787
 10
12.158850724995405
 20
-1.1779321602921715
 10
12.215624867109375
 20
-1.2335449759045387
 10
12.274816001526203
 20
-1.286626545524134
 10
12.336273066226958
 20
-1.3372351697862015
 10
12.399844999192712
 20
-1.3854291493260045
 10
12.465380738404544
 20
-1.431266784778784
 10
12.532729221843507
 20
-1.4748063767797992
 10
12.601739387490692
 20
-1.5161062259642948
 10
12.672260173327164
 20
-1.55522463296753
 10
12.744140517333983
 20
-1.5922198984247462
 10
12.81722935749224
 20
-1.6271503229712059
 10
12.891375631782989
 20
-1.660074207242154
 10
12.96642827818731
 20
-1.6910498518728425
 10
13.042236234686278
 20
-1.7201355574985269
 10
13.118648439260959
 20
-1.7473896247544483
 10
13.195513829892425
 20
-1.7728703542758733
 10
13.27268134456175
 20
-1.7966360466980396
 10
13.34999992125
 20
-1.8187450026562095
 10
13.427318497938254
 20
-1.8392555227856244
 10
13.504486012607574
 20
-1.8582259077215437
 10
13.581351403239045
 20
-1.8757144580992156
 10
13.657763607813719
 20
-1.8917794745538885
 10
13.733571564312687
 20
-1.9064792577208216
 10
13.808624210717008
 20
-1.9198721082352594
 10
13.882770485007764
 20
-1.932016326732458
 10
13.955859325166017
 20
-1.9429702138476654
 10
14.027739669172833
 20
-1.9527920702161339
 10
14.098260455009312
 20
-1.9615401964731185
 10
14.16727062065649
 20
-1.9692728932538681
 10
14.23461910409546
 20
-1.976048461193631
 10
14.300154843307283
 20
-1.9819252009276629
 10
14.363726776273046
 20
-1.9869614130912154
 10
14.425183840973794
 20
-1.991215398319537
 10
14.484374975390622
 20
-1.9947454572478762
 10
14.541149117504597
 20
-1.9976098905114958
 10
14.595355205296785
 20
-1.999866998745637
 10
14.64684217674826
 20
-2.0015750825855516
 10
14.695458969840088
 20
-2.002792442666499
 10
14.74105452255335
 20
-2.0035773796237235
 10
14.78347777286911
 20
-2.0039881940924777
 10
14.822577658768445
 20
-2.0040831867080136
 10
14.858203118232423
 20
-2.003920658105586
 10
14.890203089242117
 20
-2.003558908920444
 10
14.918426509778598
 20
-2.0030562397878358
 10
14.942722317822936
 20
-2.002470951343017
 10
14.962939451356203
 20
-2.0018613442212394
 10
14.978926848359473
 20
-2.0012857190577518
 10
14.990533446813814
 20
-2.0008023764878056
 10
14.9976081847003
 20
-2.0004696171466496
 10
15.000000000000002
 20
-2.0003457416695465
  0
LWPOLYLINE
  5
3F
330
17
100
AcDbEntity
  8
0
100
AcDbPolyline
 90
2
 70
0
 10
-0.013259104699151772
 20
0.01325859193291222
 10
10.606601363578912
 20
-10.606601876345152
  0
LWPOLYLINE
  5
40
330
17
100
AcDbEntity
  8
0
100
AcDbPolyline
 90
2
 70
0
 10
9.210065011819164
 20
-6.1341507775314215
 10
6.134150264765182
 20
-9.210065524585405
  0
LWPOLYLINE
  5
41
330
17
100
AcDbEntity
  8
0
100
AcDbPolyline
 90
2
 70
0
 10
8.149405368665771
 20
-5.073491134378032
 10
5.073490621611793
 20
-8.149405881432012
  0
LWPOLYLINE
  5
42
330
17
100
AcDbEntity
  8
0
100
AcDbPolyline
 90
2
 70
0
 10
7.088745230537618
 20
-4.012830996249878
 10
4.012830483483635
 20
-7.088745743303861
  0
LWPOLYLINE
  5
43
330
17
100
AcDbEntity
  8
0
100
AcDbPolyline
 90
129
 70
0
 10
12.020570528541228
 20
-9.192632711382835
 10
12.018973224887171
 20
-9.19084747731136
 10
12.014224637485484
 20
-9.185590874177548
 10
12.006389751676863
 20
-9.177011550602296
 10
11.995533552802025
 20
-9.165258155206518
 10
11.98172102620167
 20
-9.150479336611111
 10
11.965017157216504
 20
-9.13282374343698
 10
11.945486931187244
 20
-9.112440024305034
 10
11.923195333454588
 20
-9.089476827836174
 10
11.898207349359243
 20
-9.06408280265131
 10
11.870587964241926
 20
-9.036406597371343
 10
11.840402163443335
 20
-9.006596860617178
 10
11.80771493230419
 20
-8.97480224100972
 10
11.772591256165176
 20
-8.941171387169875
 10
11.73509612036702
 20
-8.905852947718548
 10
11.695294510250424
 20
-8.86899557127664
 10
11.653251411156093
 20
-8.83074790646506
 10
11.609031808424728
 20
-8.791258601904712
 10
11.56270068739705
 20
-8.750676306216503
 10
11.514323033413758
 20
-8.709149668021336
 10
11.463963831815569
 20
-8.66682733594011
 10
11.411688067943173
 20
-8.623857958593742
 10
11.357560727137288
 20
-8.580390184603125
 10
11.30164679473862
 20
-8.53657266258917
 10
11.244011256087882
 20
-8.492554041172781
 10
11.18471909652577
 20
-8.448482968974863
 10
11.123835301392997
 20
-8.404508094616329
 10
11.061424856030277
 20
-8.360778066718066
 10
10.997552745778302
 20
-8.317441533900993
 10
10.932283955977791
 20
-8.274647144786005
 10
10.865683471969446
 20
-8.232543547994018
 10
10.797816279093983
 20
-8.191279392145928
 10
10.728747362692097
 20
-8.151003325862646
 10
10.658541708104506
 20
-8.11186399776507
 10
10.587264300671908
 20
-8.074010056474108
 10
10.514980125735017
 20
-8.03759015061067
 10
10.441754168634539
 20
-8.002752928795648
 10
10.367651414711181
 20
-7.9696470396499635
 10
10.29273684930564
 20
-7.93842113179451
 10
10.217075457758643
 20
-7.9092238538502
 10
10.140732225410888
 20
-7.88220385443793
 10
10.063772137603076
 20
-7.857509782178611
 10
9.986260179675927
 20
-7.835290285693138
 10
9.908261336970135
 20
-7.8156940136024335
 10
9.829840594826418
 20
-7.798869614527388
 10
9.751062938585477
 20
-7.784965737088913
 10
9.67199335358802
 20
-7.774131029907906
 10
9.592696825174757
 20
-7.766514141605279
 10
9.513238338686394
 20
-7.762263720801937
 10
9.433682879463637
 20
-7.761528416118785
 10
9.354095432847192
 20
-7.764456876176719
 10
9.274540984177774
 20
-7.771197749596659
 10
9.19508451879608
 20
-7.781899684999492
 10
9.115791022042828
 20
-7.796711331006141
 10
9.036725479258713
 20
-7.815781336237495
 10
8.957952875784454
 20
-7.839258349314471
 10
8.879538196960754
 20
-7.867291018857965
 10
8.801546428128317
 20
-7.900027993488889
 10
8.724042554627854
 20
-7.937617921828142
 10
8.64709156180007
 20
-7.980209452496635
 10
8.570758434985672
 20
-8.027951234115266
 10
8.49510815952537
 20
-8.080991915304946
 10
8.420205720759872
 20
-8.139480144686571
 10
8.346116104029884
 20
-8.203564570881056
 10
8.27290429467611
 20
-8.273393842509305
 10
8.203476471567106
 20
-8.346204203343836
 10
8.13976820775151
 20
-8.419917657694933
 10
8.08163146147289
 20
-8.494468613357423
 10
8.02891819097481
 20
-8.569791478126131
 10
7.981480354500831
 20
-8.645820659795874
 10
7.9391699102945115
 20
-8.722490566161484
 10
7.901838816599425
 20
-8.79973560501778
 10
7.869339031659125
 20
-8.877490184159594
 10
7.841522513717183
 20
-8.955688711381745
 10
7.818241221017156
 20
-9.034265594479056
 10
7.799347111802606
 20
-9.113155241246359
 10
7.784692144317102
 20
-9.19229205947847
 10
7.77412827680421
 20
-9.271610456970219
 10
7.767507467507482
 20
-9.351044841516426
 10
7.764681674670491
 20
-9.430529620911926
 10
7.765502856536795
 20
-9.509999202951532
 10
7.769822971349963
 20
-9.58938799543007
 10
7.7774939773535525
 20
-9.668630406142366
 10
7.7883678327911285
 20
-9.747660842883253
 10
7.802296495906256
 20
-9.826413713447543
 10
7.819131924942496
 20
-9.904823425630068
 10
7.838726078143413
 20
-9.982824387225651
 10
7.860930913752568
 20
-10.06035100602912
 10
7.885598390013529
 20
-10.137337689835284
 10
7.91258046516985
 20
-10.213718846438987
 10
7.941729097465111
 20
-10.289428883635043
 10
7.9728962451428576
 20
-10.36440220921828
 10
8.005933866446668
 20
-10.43857323098352
 10
8.040693919620088
 20
-10.511876356725592
 10
8.077028362906697
 20
-10.584245994239316
 10
8.114789154550055
 20
-10.655616551319518
 10
8.15382825279372
 20
-10.725922435761019
 10
8.193997615881255
 20
-10.795098055358656
 10
8.235149202056224
 20
-10.863077817907232
 10
8.277134969562198
 20
-10.929796131201599
 10
8.31980687664273
 20
-10.995187403036558
 10
8.363016881541396
 20
-11.059186041206942
 10
8.40661694250174
 20
-11.121726453507582
 10
8.45045901776734
 20
-11.18274304773329
 10
8.494395065581758
 20
-11.242170231678898
 10
8.538277044188554
 20
-11.29994241313923
 10
8.581956911831291
 20
-11.355993999909114
 10
8.62528662675354
 20
-11.41025939978337
 10
8.668118147198856
 20
-11.462673020556819
 10
8.710303431410797
 20
-11.513169270024294
 10
8.751694437632942
 20
-11.561682555980616
 10
8.792143124108836
 20
-11.6081472862206
 10
8.831501449082056
 20
-11.65249786853909
 10
8.869621370796168
 20
-11.694668710730895
 10
8.906354847494722
 20
-11.73459422059084
 10
8.941553837421289
 20
-11.77220880591376
 10
8.975070298819428
 20
-11.80744687449447
 10
9.006756189932707
 20
-11.840242834127805
 10
9.03646346900469
 20
-11.870531092608575
 10
9.064044094278938
 20
-11.898246057731612
 10
9.089350023999014
 20
-11.923322137291745
 10
9.112233216408478
 20
-11.945693739083792
 10
9.1325456297509
 20
-11.96529527090258
 10
9.150139222269837
 20
-11.982061140542935
 10
9.164865952208858
 20
-11.99592575579968
 10
9.176577777811527
 20
-12.006823524467636
 10
9.185126657321398
 20
-12.014688854341633
 10
9.190364548982041
 20
-12.019456153216494
 10
9.19214341103702
 20
-12.02105982888704
  0
LWPOLYLINE
  5
44
330
17
100
AcDbEntity
  8
0
100
AcDbPolyline
 90
2
 70
0
 10
2.4499999998334197e-07
 20
0.01875037515625526
 10
2.4499999998334197e-07
 20
-14.99999993
  0
LWPOLYLINE
  5
45
330
17
100
AcDbEntity
  8
0
100
AcDbPolyline
 90
2
 70
0
 10
2.1750003631250023
 20
-10.849999215416661
 10
-2.1749998731250004
 20
-10.849999215416661
  0
LWPOLYLINE
  5
46
330
17
100
AcDbEntity
  8
0
100
AcDbPolyline
 90
2
 70
0
 10
2.1750003631250023
 20
-9.350000002916664
 10
-2.1749998731250004
 20
-9.350000002916664
  0
LWPOLYLINE
  5
47
330
17
100
AcDbEntity
  8
0
100
AcDbPolyline
 90
2
 70
0
 10
2.1750003631250023
 20
-7.850000090416667
 10
-2.1749998731250004
 20
-7.850000090416667
  0
LWPOLYLINE
  5
48
330
17
100
AcDbEntity
  8
0
100
AcDbPolyline
 90
129
 70
0
 10
1.999654561663785
 20
-14.99999993
 10
1.9997874485327993
 20
-14.997608114700295
 10
2.000146669892376
 20
-14.990533376813811
 10
2.0006730668713217
 20
-14.978926778359469
 10
2.0013074805984585
 20
-14.9629393813562
 10
2.001990752202589
 20
-14.942722247822934
 10
2.002663722812517
 20
-14.918426439778592
 10
2.0032672335570676
 20
-14.890203019242119
 10
2.0037421255650343
 20
-14.85820304823242
 10
2.00402923996524
 20
-14.822577588768443
 10
2.0040694178864875
 20
-14.78347770286911
 10
2.0038035004575923
 20
-14.741054452553346
 10
2.0031723288073597
 20
-14.695458899840085
 10
2.002116744064602
 20
-14.646842106748254
 10
2.000577587358125
 20
-14.595355135296783
 10
1.998495699816741
 20
-14.541149047504598
 10
1.9958119225692657
 20
-14.484374905390624
 10
1.992467096744501
 20
-14.425183770973796
 10
1.9884020634712596
 20
-14.36372670627304
 10
1.9835576638783503
 20
-14.300154773307284
 10
1.9778747390945928
 20
-14.234619034095454
 10
1.9712941302487814
 20
-14.167270550656484
 10
1.9637566784697396
 20
-14.098260385009302
 10
1.955203224886269
 20
-14.027739599172834
 10
1.9455746106271823
 20
-13.955859255166018
 10
1.9348116768212915
 20
-13.882770415007762
 10
1.9228552645973989
 20
-13.80862414071701
 10
1.9096462150843236
 20
-13.733571494312681
 10
1.8951253694108714
 20
-13.657763537813723
 10
1.8792335687058543
 20
-13.58135133323904
 10
1.8619116540980818
 20
-13.504485942607571
 10
1.8431004667163622
 20
-13.427318427938252
 10
1.8227408476895048
 20
-13.349999851249997
 10
1.8007736381463217
 20
-13.272681274561748
 10
1.7771396792156258
 20
-13.195513759892423
 10
1.7517798120262187
 20
-13.118648369260956
 10
1.7246348777069163
 20
-13.042236164686274
 10
1.6956457173865311
 20
-12.966428208187315
 10
1.664753172193865
 20
-12.891375561782986
 10
1.631898083257734
 20
-12.817229287492237
 10
1.5970212917069468
 20
-12.744140447333985
 10
1.560063638670309
 20
-12.672260103327156
 10
1.5209659652766436
 20
-12.601739317490686
 10
1.4796691126547454
 20
-12.532729151843508
 10
1.4361139219334338
 20
-12.465380668404539
 10
1.390241234241518
 20
-12.39984492919271
 10
1.3419918907077995
 20
-12.336272996226956
 10
1.2913067324610976
 20
-12.274815931526204
 10
1.2381266006302185
 20
-12.215624797109372
 10
1.182392336343974
 20
-12.1588506549954
 10
1.1240447807311729
 20
-12.104644567203213
 10
1.0630247749206283
 20
-12.053157595751742
 10
0.9992731600411414
 20
-12.004540802659907
 10
0.9327307772215321
 20
-11.958945249946648
 10
0.863338467590602
 20
-11.916521999630888
 10
0.7910370722771708
 20
-11.877422113731551
 10
0.7157674324100403
 20
-11.841796654267574
 10
0.6374703891180228
 20
-11.809796683257881
 10
0.5560867835299274
 20
-11.781573262721398
 10
0.47155745677456995
 20
-11.757277454677064
 10
0.38382324998075235
 20
-11.7370603211438
 10
0.292825004277287
 20
-11.721072924140525
 10
0.19850356079298825
 20
-11.709466325686185
 10
0.10079976065665955
 20
-11.702391587799701
 10
-0.00034555500288304677
 20
-11.699999772499996
 10
-0.10092313673702673
 20
-11.702391587799701
 10
-0.1980949629496221
 20
-11.709466325686185
 10
-0.29191933427592465
 20
-11.721072924140525
 10
-0.38245455135118817
 20
-11.737060321143796
 10
-0.4697589148106558
 20
-11.75727745467706
 10
-0.5538907252895865
 20
-11.781573262721398
 10
-0.6349082834232288
 20
-11.809796683257881
 10
-0.7128698898468346
 20
-11.841796654267574
 10
-0.7878338451956559
 20
-11.877422113731551
 10
-0.8598584501049448
 20
-11.916521999630888
 10
-0.9290020052099476
 20
-11.958945249946652
 10
-0.995322811145922
 20
-12.004540802659903
 10
-1.058879168548118
 20
-12.053157595751745
 10
-1.1197293780517839
 20
-12.104644567203213
 10
-1.1779317402921756
 20
-12.1588506549954
 10
-1.2335445559045393
 20
-12.215624797109372
 10
-1.2866261255241327
 20
-12.274815931526204
 10
-1.3372347497862038
 20
-12.336272996226956
 10
-1.3854287293260032
 20
-12.39984492919271
 10
-1.4312663647787864
 20
-12.465380668404539
 10
-1.4748059567797962
 20
-12.532729151843508
 10
-1.5161058059642936
 20
-12.60173931749069
 10
-1.5552242129675289
 20
-12.672260103327156
 10
-1.5922194784247468
 20
-12.744140447333985
 10
-1.6271499029712029
 20
-12.817229287492237
 10
-1.6600737872421545
 20
-12.891375561782986
 10
-1.691049431872843
 20
-12.966428208187315
 10
-1.7201351374985274
 20
-13.04223616468628
 10
-1.7473892047544506
 20
-13.118648369260956
 10
-1.7728699342758703
 20
-13.195513759892423
 10
-1.7966356266980401
 20
-13.272681274561748
 10
-1.818744582656208
 20
-13.349999851249997
 10
-1.8392551027856232
 20
-13.427318427938252
 10
-1.8582254877215425
 20
-13.504485942607571
 10
-1.8757140380992143
 20
-13.58135133323904
 10
-1.891779054553889
 20
-13.657763537813723
 10
-1.906478837720822
 20
-13.733571494312685
 10
-1.9198716882352618
 20
-13.80862414071701
 10
-1.9320159067324567
 20
-13.882770415007762
 10
-1.9429697938476678
 20
-13.955859255166018
 10
-1.9527916502161362
 20
-14.027739599172834
 10
-1.961539776473119
 20
-14.098260385009302
 10
-1.969272473253867
 20
-14.167270550656488
 10
-1.9760480411936316
 20
-14.234619034095457
 10
-1.9819247809276634
 20
-14.300154773307288
 10
-1.986960993091214
 20
-14.36372670627304
 10
-1.9912149783195359
 20
-14.425183770973796
 10
-1.9947450372478785
 20
-14.484374905390624
 10
-1.9976094705114946
 20
-14.541149047504595
 10
-1.9998665787456358
 20
-14.595355135296783
 10
-2.0015746625855537
 20
-14.64684210674825
 10
-2.0027920226664992
 20
-14.695458899840089
 10
-2.0035769596237225
 20
-14.741054452553346
 10
-2.0039877740924803
 20
-14.783477702869106
 10
-2.0040827667080157
 20
-14.822577588768443
 10
-2.0039202381055885
 20
-14.85820304823242
 10
-2.0035584889204445
 20
-14.890203019242115
 10
-2.0030558197878365
 20
-14.918426439778592
 10
-2.0024705313430196
 20
-14.942722247822934
 10
-2.0018609242212384
 20
-14.962939381356197
 10
-2.0012852990577503
 20
-14.978926778359469
 10
-2.000801956487806
 20
-14.990533376813811
 10
-2.0004691971466535
 20
-14.997608114700299
 10
-2.000345321669547
 20
-14.99999993
  0
LWPOLYLINE
  5
49
330
17
100
AcDbEntity
  8
0
100
AcDbPolyline
 90
2
 70
0
 10
0.013259011932913463
 20
0.013258124699146497
 10
-10.60660145634515
 20
-10.606602343578917
  0
LWPOLYLINE
  5
4A
330
17
100
AcDbEntity
  8
0
100
AcDbPolyline
 90
2
 70
0
 10
-6.1341503575314205
 20
-9.210065991819171
 10
-9.210065104585402
 20
-6.134151244765188
  0
LWPOLYLINE
  5
4B
330
17
100
AcDbEntity
  8
0
100
AcDbPolyline
 90
2
 70
0
 10
-5.073490714378031
 20
-8.149406348665778
 10
-8.149405461432012
 20
-5.0734916016117975
  0
LWPOLYLINE
  5
4C
330
17
100
AcDbEntity
  8
0
100
AcDbPolyline
 90
2
 70
0
 10
-4.012830576249876
 20
-7.088746210537623
 10
-7.088745323303858
 20
-4.01283146348364
  0
LWPOLYLINE
  5
4D
330
17
100
AcDbEntity
  8
0
100
AcDbPolyline
 90
129
 70
0
 10
-9.192632291382836
 20
-12.020571508541234
 10
-9.19084705731136
 20
-12.01897420488718
 10
-9.185590454177548
 20
-12.01422561748549
 10
-9.177011130602299
 20
-12.006390731676868
 10
-9.165257735206518
 20
-11.995534532802033
 10
-9.15047891661111
 20
-11.981722006201675
 10
-9.13282332343698
 20
-11.965018137216509
 10
-9.112439604305035
 20
-11.945487911187247
 10
-9.089476407836175
 20
-11.923196313454593
 10
-9.064082382651309
 20
-11.898208329359253
 10
-9.036406177371342
 20
-11.87058894424193
 10
-9.006596440617177
 20
-11.840403143443343
 10
-8.974801821009718
 20
-11.807715912304195
 10
-8.941170967169874
 20
-11.772592236165181
 10
-8.905852527718546
 20
-11.735097100367026
 10
-8.86899515127664
 20
-11.69529549025043
 10
-8.83074748646506
 20
-11.653252391156094
 10
-8.791258181904713
 20
-11.609032788424734
 10
-8.750675886216502
 20
-11.562701667397059
 10
-8.709149248021333
 20
-11.51432401341377
 10
-8.666826915940112
 20
-11.46396481181557
 10
-8.62385753859374
 20
-11.411689047943177
 10
-8.580389764603124
 20
-11.357561707137293
 10
-8.536572242589171
 20
-11.30164777473863
 10
-8.492553621172785
 20
-11.244012236087888
 10
-8.448482548974868
 20
-11.184720076525775
 10
-8.404507674616326
 20
-11.123836281393006
 10
-8.360777646718066
 20
-11.06142583603028
 10
-8.31744111390099
 20
-10.997553725778303
 10
-8.274646724786006
 20
-10.932284935977796
 10
-8.232543127994017
 20
-10.865684451969456
 10
-8.191278972145927
 20
-10.79781725909399
 10
-8.151002905862642
 20
-10.728748342692102
 10
-8.111863577765067
 20
-10.658542688104513
 10
-8.074009636474107
 20
-10.587265280671913
 10
-8.037589730610668
 20
-10.514981105735021
 10
-8.002752508795652
 20
-10.441755148634543
 10
-7.969646619649964
 20
-10.367652394711182
 10
-7.938420711794511
 20
-10.292737829305652
 10
-7.909223433850198
 20
-10.21707643775865
 10
-7.882203434437927
 20
-10.14073320541089
 10
-7.857509362178607
 20
-10.063773117603084
 10
-7.835289865693142
 20
-9.986261159675928
 10
-7.8156935936024325
 20
-9.908262316970141
 10
-7.798869194527387
 20
-9.829841574826423
 10
-7.7849653170889095
 20
-9.751063918585478
 10
-7.774130609907907
 20
-9.671994333588028
 10
-7.766513721605282
 20
-9.592697805174762
 10
-7.762263300801938
 20
-9.513239318686395
 10
-7.761527996118781
 20
-9.43368385946364
 10
-7.764456456176721
 20
-9.354096412847195
 10
-7.7711973295966565
 20
-9.274541964177779
 10
-7.781899264999494
 20
-9.195085498796084
 10
-7.796710911006139
 20
-9.115792002042834
 10
-7.815780916237496
 20
-9.036726459258722
 10
-7.839257929314469
 20
-8.957953855784458
 10
-7.867290598857965
 20
-8.879539176960758
 10
-7.900027573488888
 20
-8.801547408128318
 10
-7.937617501828142
 20
-8.72404353462786
 10
-7.9802090324966315
 20
-8.647092541800074
 10
-8.027950814115266
 20
-8.570759414985679
 10
-8.080991495304945
 20
-8.495109139525375
 10
-8.139479724686572
 20
-8.420206700759879
 10
-8.203564150881057
 20
-8.34611708402989
 10
-8.273393422509304
 20
-8.272905274676116
 10
-8.346203783343837
 20
-8.203477451567112
 10
-8.419917237694934
 20
-8.139769187751517
 10
-8.494468193357424
 20
-8.081632441472898
 10
-8.569791058126128
 20
-8.028919170974815
 10
-8.64582023979587
 20
-7.981481334500833
 10
-8.722490146161482
 20
-7.939170890294521
 10
-8.799735185017779
 20
-7.901839796599427
 10
-8.87748976415959
 20
-7.86934001165913
 10
-8.955688291381742
 20
-7.841523493717185
 10
-9.034265174479057
 20
-7.818242201017162
 10
-9.113154821246356
 20
-7.799348091802612
 10
-9.19229163947847
 20
-7.78469312431711
 10
-9.27161003697022
 20
-7.774129256804211
 10
-9.351044421516429
 20
-7.76750844750749
 10
-9.430529200911923
 20
-7.764682654670497
 10
-9.50999878295153
 20
-7.765503836536804
 10
-9.58938757543007
 20
-7.769823951349972
 10
-9.66862998614237
 20
-7.777494957353561
 10
-9.747660422883254
 20
-7.788368812791134
 10
-9.826413293447546
 20
-7.802297475906258
 10
-9.90482300563007
 20
-7.819132904942501
 10
-9.982823967225652
 20
-7.8387270581434185
 10
-10.060350586029115
 20
-7.860931893752573
 10
-10.137337269835285
 20
-7.885599370013531
 10
-10.213718426438987
 20
-7.9125814451698595
 10
-10.289428463635044
 20
-7.941730077465112
 10
-10.364401789218281
 20
-7.972897225142869
 10
-10.438572810983521
 20
-8.005934846446667
 10
-10.51187593672559
 20
-8.040694899620096
 10
-10.584245574239315
 20
-8.077029342906703
 10
-10.655616131319517
 20
-8.114790134550061
 10
-10.725922015761022
 20
-8.15382923279372
 10
-10.795097635358651
 20
-8.193998595881261
 10
-10.863077397907237
 20
-8.235150182056232
 10
-10.929795711201598
 20
-8.277135949562199
 10
-10.99518698303656
 20
-8.319807856642738
 10
-11.059185621206943
 20
-8.3630178615414
 10
-11.12172603350758
 20
-8.406617922501749
 10
-11.18274262773329
 20
-8.45045999776735
 10
-11.2421698116789
 20
-8.494396045581766
 10
-11.299941993139234
 20
-8.538278024188562
 10
-11.355993579909114
 20
-8.5819578918313
 10
-11.410258979783368
 20
-8.625287606753547
 10
-11.46267260055682
 20
-8.66811912719886
 10
-11.513168850024295
 20
-8.710304411410801
 10
-11.561682135980613
 20
-8.751695417632947
 10
-11.608146866220602
 20
-8.792144104108841
 10
-11.652497448539087
 20
-8.831502429082063
 10
-11.694668290730892
 20
-8.869622350796169
 10
-11.734593800590842
 20
-8.906355827494723
 10
-11.772208385913759
 20
-8.941554817421293
 10
-11.807446454494475
 20
-8.975071278819433
 10
-11.840242414127804
 20
-9.006757169932712
 10
-11.870530672608576
 20
-9.036464449004695
 10
-11.898245637731616
 20
-9.064045074278942
 10
-11.923321717291746
 20
-9.089351003999019
 10
-11.945693319083793
 20
-9.112234196408483
 10
-11.965294850902582
 20
-9.132546609750905
 10
-11.982060720542936
 20
-9.150140202269844
 10
-11.99592533579968
 20
-9.164866932208865
 10
-12.006823104467637
 20
-9.176578757811528
 10
-12.014688434341632
 20
-9.185127637321402
 10
-12.019455733216493
 20
-9.190365528982047
 10
-12.02105940888704
 20
-9.192144391037026
  0
LWPOLYLINE
  5
4E
330
17
100
AcDbEntity
  8
0
100
AcDbPolyline
 90
2
 70
0
 10
0.018750305156251194
 20
-8.750000062994414e-07
 10
-15.000000000000002
 20
-8.750000062994414e-07
  0
LWPOLYLINE
  5
4F
330
17
100
AcDbEntity
  8
0
100
AcDbPolyline
 90
2
 70
0
 10
-10.849999285416663
 20
-2.1750009931250047
 10
-10.849999285416663
 20
2.174999243124994
  0
LWPOLYLINE
  5
50
330
17
100
AcDbEntity
  8
0
100
AcDbPolyline
 90
2
 70
0
 10
-9.350000072916668
 20
-2.1750009931250047
 10
-9.350000072916668
 20
2.174999243124994
  0
LWPOLYLINE
  5
51
330
17
100
AcDbEntity
  8
0
100
AcDbPolyline
 90
2
 70
0
 10
-7.850000160416671
 20
-2.1750009931250047
 10
-7.850000160416671
 20
2.174999243124994
  0
LWPOLYLINE
  5
52
330
17
100
AcDbEntity
  8
0
100
AcDbPolyline
 90
129
 70
0
 10
-15.000000000000002
 20
-1.9996551916637912
 10
-14.9976081847003
 20
-1.999788078532802
 10
-14.990533446813814
 20
-2.000147299892379
 10
-14.978926848359473
 20
-2.0006736968713317
 10
-14.962939451356203
 20
-2.001308110598465
 10
-14.942722317822934
 20
-2.001991382202591
 10
-14.918426509778596
 20
-2.0026643528125234
 10
-14.890203089242117
 20
-2.0032678635570704
 10
-14.858203118232423
 20
-2.0037427555650407
 10
-14.822577658768445
 20
-2.00402986996525
 10
-14.783477772869112
 20
-2.0040700478864903
 10
-14.741054522553352
 20
-2.0038041304575986
 10
-14.695458969840091
 20
-2.003172958807366
 10
-14.646842176748258
 20
-2.0021173740646048
 10
-14.595355205296785
 20
-2.000578217358128
 10
-14.541149117504597
 20
-1.998496329816747
 10
-14.484374975390628
 20
-1.9958125525692683
 10
-14.425183840973798
 20
-1.992467726744504
 10
-14.363726776273042
 20
-1.9884026934712624
 10
-14.300154843307286
 20
-1.9835582938783602
 10
-14.234619104095461
 20
-1.9778753690945956
 10
-14.167270620656492
 20
-1.9712947602487878
 10
-14.09826045500931
 20
-1.963757308469746
 10
-14.027739669172842
 20
-1.9552038548862718
 10
-13.955859325166017
 20
-1.945575240627185
 10
-13.882770485007764
 20
-1.9348123068212943
 10
-13.808624210717012
 20
-1.9228558945974088
 10
-13.733571564312689
 20
-1.90964684508433
 10
-13.657763607813722
 20
-1.8951259994108778
 10
-13.581351403239042
 20
-1.8792341987058607
 10
-13.504486012607575
 20
-1.8619122840980882
 10
-13.427318497938252
 20
-1.843101096716365
 10
-13.349999921250001
 20
-1.8227414776895074
 10
-13.27268134456175
 20
-1.8007742681463246
 10
-13.195513829892427
 20
-1.7771403092156286
 10
-13.11864843926096
 20
-1.7517804420262215
 10
-13.042236234686282
 20
-1.724635507706919
 10
-12.966428278187315
 20
-1.695646347386534
 10
-12.89137563178299
 20
-1.6647538021938713
 10
-12.817229357492238
 20
-1.6318987132577367
 10
-12.744140517333985
 20
-1.5970219217069532
 10
-12.672260173327162
 20
-1.5600642686703154
 10
-12.601739387490694
 20
-1.5209665952766465
 10
-12.532729221843512
 20
-1.4796697426547518
 10
-12.465380738404543
 20
-1.4361145519334366
 10
-12.399844999192714
 20
-1.3902418642415206
 10
-12.33627306622696
 20
-1.341992520707802
 10
-12.274816001526204
 20
-1.291307362461104
 10
-12.215624867109376
 20
-1.2381272306302247
 10
-12.158850724995403
 20
-1.1823929663439803
 10
-12.104644637203217
 20
-1.1240454107311793
 10
-12.053157665751746
 20
-1.063025404920631
 10
-12.004540872659913
 20
-0.9992737900411477
 10
-11.958945319946652
 20
-0.9327314072215348
 10
-11.91652206963089
 20
-0.8633390975906083
 10
-11.877422183731557
 20
-0.7910377022771735
 10
-11.841796724267578
 20
-0.715768062410043
 10
-11.809796753257885
 20
-0.6374710191180255
 10
-11.781573332721406
 20
-0.5560874135299336
 10
-11.757277524677068
 20
-0.47155808677457267
 10
-11.7370603911438
 20
-0.3838238799807551
 10
-11.72107299414053
 20
-0.29282563427729336
 10
-11.709466395686189
 20
-0.19850419079299278
 10
-11.702391657799703
 20
-0.10080039065666586
 10
-11.6999998425
 20
0.00034492500287673064
 10
-11.702391657799703
 20
0.10092250673702041
 10
-11.709466395686189
 20
0.19809433294961576
 10
-11.72107299414053
 20
0.29191870427592187
 10
-11.7370603911438
 20
0.3824539213511801
 10
-11.757277524677068
 20
0.46975828481065124
 10
-11.781573332721406
 20
0.553890095289582
 10
-11.809796753257885
 20
0.6349076534232224
 10
-11.841796724267578
 20
0.7128692598468283
 10
-11.877422183731557
 20
0.7878332151956496
 10
-11.91652206963089
 20
0.8598578201049384
 10
-11.958945319946652
 20
0.9290013752099413
 10
-12.004540872659913
 20
0.9953221811459139
 10
-12.053157665751744
 20
1.0588785385481099
 10
-12.104644637203217
 20
1.1197287480517777
 10
-12.158850724995403
 20
1.1779311102921675
 10
-12.215624867109376
 20
1.233543925904533
 10
-12.274816001526204
 20
1.2866254955241263
 10
-12.33627306622696
 20
1.3372341197861994
 10
-12.399844999192714
 20
1.3854280993259953
 10
-12.465380738404543
 20
1.4312657347787783
 10
-12.532729221843512
 20
1.4748053267797916
 10
-12.601739387490694
 20
1.5161051759642892
 10
-12.672260173327162
 20
1.5552235829675225
 10
-12.744140517333985
 20
1.5922188484247422
 10
-12.817229357492238
 20
1.6271492729712
 10
-12.89137563178299
 20
1.660073157242148
 10
-12.966428278187315
 20
1.6910488018728367
 10
-13.042236234686282
 20
1.7201345074985175
 10
-13.11864843926096
 20
1.7473885747544462
 10
-13.195513829892427
 20
1.7728693042758659
 10
-13.27268134456175
 20
1.796634996698032
 10
-13.349999921250001
 20
1.818743952656202
 10
-13.427318497938252
 20
1.8392544727856186
 10
-13.504486012607575
 20
1.858224857721538
 10
-13.581351403239042
 20
1.875713408099208
 10
-13.657763607813722
 20
1.8917784245538845
 10
-13.733571564312689
 20
1.9064782077208176
 10
-13.808624210717012
 20
1.9198710582352556
 10
-13.882770485007764
 20
1.932015276732454
 10
-13.955859325166017
 20
1.9429691638476614
 10
-14.027739669172842
 20
1.9527910202161316
 10
-14.09826045500931
 20
1.9615391464731147
 10
-14.167270620656492
 20
1.9692718432538607
 10
-14.234619104095461
 20
1.976047411193627
 10
-14.300154843307286
 20
1.9819241509276588
 10
-14.363726776273042
 20
1.9869603630912078
 10
-14.425183840973798
 20
1.9912143483195295
 10
-14.484374975390628
 20
1.9947444072478724
 10
-14.541149117504599
 20
1.9976088405114882
 10
-14.595355205296785
 20
1.9998659487456294
 10
-14.646842176748258
 20
2.001574032585546
 10
-14.695458969840091
 20
2.0027913926664915
 10
-14.741054522553352
 20
2.003576329623716
 10
-14.783477772869112
 20
2.003987144092474
 10
-14.822577658768445
 20
2.0040821367080097
 10
-14.858203118232423
 20
2.0039196081055803
 10
-14.890203089242117
 20
2.0035578589204386
 10
-14.918426509778596
 20
2.00305518978783
 10
-14.942722317822934
 20
2.002469901343013
 10
-14.962939451356203
 20
2.001860294221234
 10
-14.978926848359473
 20
2.001284669057744
 10
-14.990533446813814
 20
2.0008013264878
 10
-14.9976081847003
 20
2.000468567146647
 10
-15.000000000000002
 20
2.0003446916695404
  0
LWPOLYLINE
  5
53
330
17
100
AcDbEntity
  8
0
100
AcDbPolyline
 90
2
 70
0
 10
0.01325854469914774
 20
-0.013259291932915479
 10
-10.606601923578918
 20
10.606601176345148
  0
LWPOLYLINE
  5
54
330
17
100
AcDbEntity
  8
0
100
AcDbPolyline
 90
2
 70
0
 10
-9.210065571819168
 20
6.134150077531419
 10
-6.134150824765186
 20
9.2100648245854
  0
LWPOLYLINE
  5
55
330
17
100
AcDbEntity
  8
0
100
AcDbPolyline
 90
2
 70
0
 10
-8.149405928665777
 20
5.073490434378027
 10
-5.0734911816117965
 20
8.14940518143201
  0
LWPOLYLINE
  5
56
330
17
100
AcDbEntity
  8
0
100
AcDbPolyline
 90
2
 70
0
 10
-7.088745790537622
 20
4.012830296249873
 10
-4.012831043483639
 20
7.088745043303856
  0
LWPOLYLINE
  5
57
330
17
100
AcDbEntity
  8
0
100
AcDbPolyline
 90
129
 70
0
 10
-12.020571088541232
 20
9.192632011382834
 10
-12.018973784887178
 20
9.190846777311359
 10
-12.014225197485487
 20
9.185590174177547
 10
-12.006390311676869
 20
9.177010850602295
 10
-11.995534112802027
 20
9.165257455206516
 10
-11.981721586201672
 20
9.150478636611108
 10
-11.965017717216508
 20
9.132823043436979
 10
-11.945487491187246
 20
9.112439324305033
 10
-11.92319589345459
 20
9.089476127836173
 10
-11.89820790935925
 20
9.064082102651307
 10
-11.870588524241931
 20
9.03640589737134
 10
-11.840402723443342
 20
9.006596160617175
 10
-11.807715492304188
 20
8.974801541009718
 10
-11.772591816165182
 20
8.941170687169869
 10
-11.735096680367025
 20
8.905852247718544
 10
-11.695295070250424
 20
8.868994871276637
 10
-11.653251971156092
 20
8.830747206465059
 10
-11.609032368424733
 20
8.791257901904713
 10
-11.562701247397055
 20
8.7506756062165
 10
-11.514323593413764
 20
8.709148968021331
 10
-11.463964391815567
 20
8.66682663594011
 10
-11.411688627943175
 20
8.623857258593738
 10
-11.35756128713729
 20
8.580389484603122
 10
-11.301647354738623
 20
8.53657196258917
 10
-11.244011816087882
 20
8.492553341172782
 10
-11.184719656525772
 20
8.448482268974866
 10
-11.123835861393003
 20
8.404507394616324
 10
-11.061425416030277
 20
8.360777366718064
 10
-10.997553305778304
 20
8.317440833900987
 10
-10.932284515977793
 20
8.274646444786004
 10
-10.865684031969453
 20
8.232542847994011
 10
-10.797816839093985
 20
8.191278692145925
 10
-10.728747922692103
 20
8.151002625862642
 10
-10.65854226810451
 20
8.111863297765066
 10
-10.587264860671912
 20
8.074009356474106
 10
-10.51498068573502
 20
8.037589450610666
 10
-10.44175472863454
 20
8.002752228795648
 10
-10.367651974711181
 20
7.969646339649962
 10
-10.292737409305648
 20
7.938420431794509
 10
-10.21707601775865
 20
7.9092231538501965
 10
-10.140732785410892
 20
7.882203154437926
 10
-10.063772697603083
 20
7.8575090821786056
 10
-9.98626073967593
 20
7.835289585693138
 10
-9.90826189697014
 20
7.815693313602431
 10
-9.829841154826422
 20
7.798868914527385
 10
-9.75106349858548
 20
7.784965037088908
 10
-9.671993913588024
 20
7.774130329907905
 10
-9.59269738517476
 20
7.766513441605279
 10
-9.513238898686396
 20
7.762263020801936
 10
-9.43368343946364
 20
7.761527716118781
 10
-9.354095992847197
 20
7.7644561761767195
 10
-9.274541544177778
 20
7.771197049596654
 10
-9.195085078796085
 20
7.781898984999492
 10
-9.11579158204283
 20
7.796710631006136
 10
-9.036726039258719
 20
7.815780636237493
 10
-8.957953435784459
 20
7.839257649314467
 10
-8.879538756960756
 20
7.867290318857963
 10
-8.801546988128319
 20
7.900027293488886
 10
-8.724043114627856
 20
7.93761722182814
 10
-8.647092121800075
 20
7.9802087524966305
 10
-8.570758994985678
 20
8.027950534115265
 10
-8.495108719525376
 20
8.08099121530494
 10
-8.42020628075988
 20
8.13947944468657
 10
-8.346116664029887
 20
8.203563870881055
 10
-8.272904854676117
 20
8.273393142509303
 10
-8.203477031567111
 20
8.346203503343833
 10
-8.139768767751518
 20
8.41991695769493
 10
-8.081632021472897
 20
8.494467913357422
 10
-8.028918750974816
 20
8.569790778126126
 10
-7.9814809145008345
 20
8.645819959795869
 10
-7.939170470294519
 20
8.72248986616148
 10
-7.901839376599428
 20
8.799734905017777
 10
-7.869339591659131
 20
8.87748948415959
 10
-7.841523073717185
 20
8.955688011381739
 10
-7.818241781017159
 20
9.034264894479055
 10
-7.799347671802612
 20
9.113154541246354
 10
-7.784692704317109
 20
9.192291359478467
 10
-7.774128836804214
 20
9.271609756970216
 10
-7.76750802750749
 20
9.351044141516427
 10
-7.764682234670498
 20
9.430528920911922
 10
-7.765503416536804
 20
9.509998502951527
 10
-7.76982353134997
 20
9.589387295430068
 10
-7.777494537353559
 20
9.668629706142369
 10
-7.788368392791135
 20
9.747660142883252
 10
-7.802297055906262
 20
9.826413013447544
 10
-7.819132484942502
 20
9.904822725630067
 10
-7.8387266381434175
 20
9.98282368722565
 10
-7.860931473752576
 20
10.060350306029113
 10
-7.885598950013535
 20
10.137336989835283
 10
-7.912581025169861
 20
10.213718146438984
 10
-7.941729657465117
 20
10.289428183635042
 10
-7.972896805142867
 20
10.364401509218279
 10
-8.005934426446673
 20
10.43857253098352
 10
-8.040694479620097
 20
10.51187565672559
 10
-8.077028922906704
 20
10.584245294239313
 10
-8.11478971455006
 20
10.655615851319515
 10
-8.153828812793725
 20
10.725921735761018
 10
-8.193998175881257
 20
10.79509735535865
 10
-8.235149762056231
 20
10.863077117907235
 10
-8.277135529562203
 20
10.929795431201594
 10
-8.319807436642739
 20
10.995186703036557
 10
-8.3630174415414
 20
11.059185341206941
 10
-8.406617502501748
 20
11.121725753507576
 10
-8.450459577767349
 20
11.182742347733287
 10
-8.494395625581767
 20
11.242169531678897
 10
-8.538277604188563
 20
11.299941713139232
 10
-8.581957471831302
 20
11.355993299909112
 10
-8.625287186753548
 20
11.410258699783366
 10
-8.66811870719886
 20
11.462672320556818
 10
-8.710303991410804
 20
11.513168570024291
 10
-8.751694997632946
 20
11.561681855980611
 10
-8.792143684108844
 20
11.6081465862206
 10
-8.831502009082067
 20
11.652497168539085
 10
-8.869621930796171
 20
11.69466801073089
 10
-8.906355407494727
 20
11.73459352059084
 10
-8.941554397421294
 20
11.772208105913759
 10
-8.975070858819436
 20
11.807446174494473
 10
-9.006756749932716
 20
11.8402421341278
 10
-9.036464029004698
 20
11.870530392608574
 10
-9.064044654278945
 20
11.898245357731614
 10
-9.08935058399902
 20
11.923321437291744
 10
-9.112233776408486
 20
11.94569303908379
 10
-9.132546189750906
 20
11.96529457090258
 10
-9.150139782269846
 20
11.982060440542933
 10
-9.164866512208866
 20
11.995925055799677
 10
-9.17657833781153
 20
12.006822824467635
 10
-9.185127217321403
 20
12.01468815434163
 10
-9.190365108982046
 20
12.01945545321649
 10
-9.192143971037025
 20
12.021059128887039
  0
ENDSEC
  0
SECTION
  2
OBJECTS
  0
DICTIONARY
  5
A
330
0
100
AcDbDictionary
281
1
  3
ACAD_COLOR
350
B
  3
ACAD_GROUP
350
C
  3
ACAD_LAYOUT
350
D
  3
ACAD_MATERIAL
350
E
  3
ACAD_MLEADERSTYLE
350
F
  3
ACAD_MLINESTYLE
350
10
  3
ACAD_PLOTSETTINGS
350
11
  3
ACAD_PLOTSTYLENAME
350
12
  3
ACAD_SCALELIST
350
14
  3
ACAD_TABLESTYLE
350
15
  3
ACAD_VISUALSTYLE
350
16
  3
EZDXF_META
350
2D
  0
DICTIONARY
  5
B
330
A
100
AcDbDictionary
281
1
  0
DICTIONARY
  5
C
330
A
100
AcDbDictionary
281
1
  0
DICTIONARY
  5
D
330
A
100
AcDbDictionary
281
1
  3
Model
350
1A
  3
Layout1
350
1E
  0
DICTIONARY
  5
E
330
A
100
AcDbDictionary
281
1
  3
ByBlock
350
1F
  3
ByLayer
350
20
  3
Global
350
21
  0
DICTIONARY
  5
F
330
A
100
AcDbDictionary
281
1
  3
Standard
350
2C
  0
DICTIONARY
  5
10
330
A
100
AcDbDictionary
281
1
  3
Standard
350
22
  0
DICTIONARY
  5
11
330
A
100
AcDbDictionary
281
1
  0
ACDBDICTIONARYWDFLT
  5
12
330
A
100
AcDbDictionary
281
1
  3
Normal
350
13
100
AcDbDictionaryWithDefault
340
13
  0
ACDBPLACEHOLDER
  5
13
330
12
  0
DICTIONARY
  5
14
330
A
100
AcDbDictionary
281
1
  0
DICTIONARY
  5
15
330
A
100
AcDbDictionary
281
1
  0
DICTIONARY
  5
16
330
A
100
AcDbDictionary
281
1
  0
LAYOUT
  5
1A
330
D
100
AcDbPlotSettings
  1

  4
A3
  6

 40
7.5
 41
20.0
 42
7.5
 43
20.0
 44
420.0
 45
297.0
 46
0.0
 47
0.0
 48
0.0
 49
0.0
140
0.0
141
0.0
142
1.0
143
1.0
 70
1024
 72
1
 73
0
 74
5
  7

 75
16
 76
0
 77
2
 78
300
147
1.0
148
0.0
149
0.0
100
AcDbLayout
  1
Model
 70
1
 71
0
 10
0.0
 20
0.0
 11
420.0
 21
297.0
 12
0.0
 22
0.0
 32
0.0
 14
1e+20
 24
1e+20
 34
1e+20
 15
-1e+20
 25
-1e+20
 35
-1e+20
146
0.0
 13
0.0
 23
0.0
 33
0.0
 16
1.0
 26
0.0
 36
0.0
 17
0.0
 27
1.0
 37
0.0
 76
1
330
17
  0
LAYOUT
  5
1E
330
D
100
AcDbPlotSettings
  1

  4
A3
  6

 40
7.5
 41
20.0
 42
7.5
 43
20.0
 44
420.0
 45
297.0
 46
0.0
 47
0.0
 48
0.0
 49
0.0
140
0.0
141
0.0
142
1.0
143
1.0
 70
0
 72
1
 73
0
 74
5
  7

 75
16
 76
0
 77
2
 78
300
147
1.0
148
0.0
149
0.0
100
AcDbLayout
  1
Layout1
 70
1
 71
1
 10
0.0
 20
0.0
 11
420.0
 21
297.0
 12
0.0
 22
0.0
 32
0.0
 14
1e+20
 24
1e+20
 34
1e+20
 15
-1e+20
 25
-1e+20
 35
-1e+20
146
0.0
 13
0.0
 23
0.0
 33
0.0
 16
1.0
 26
0.0
 36
0.0
 17
0.0
 27
1.0
 37
0.0
 76
1
330
1B
  0
MATERIAL
  5
1F
102
{ACAD_REACTORS
330
E
102
}
330
E
100
AcDbMaterial
  1
ByBlock
  2

 70
0
 40
1.0
 71
1
 41
1.0
 91
-1023410177
 42
1.0
 72
1
  3

 73
1
 74
1
 75
1
 44
0.5
 73
0
 45
1.0
 46
1.0
 77
1
  4

 78
1
 79
1
170
1
 48
1.0
171
1
  6

172
1
173
1
174
1
140
1.0
141
1.0
175
1
  7

176
1
177
1
178
1
143
1.0
179
1
  8

270
1
271
1
272
1
145
1.0
146
1.0
273
1
  9

274
1
275
1
276
1
 42
1.0
 72
1
  3

 73
1
 74
1
 75
1
 94
63
  0
MATERIAL
  5
20
102
{ACAD_REACTORS
330
E
102
}
330
E
100
AcDbMaterial
  1
ByLayer
  2

 70
0
 40
1.0
 71
1
 41
1.0
 91
-1023410177
 42
1.0
 72
1
  3

 73
1
 74
1
 75
1
 44
0.5
 73
0
 45
1.0
 46
1.0
 77
1
  4

 78
1
 79
1
170
1
 48
1.0
171
1
  6

172
1
173
1
174
1
140
1.0
141
1.0
175
1
  7

176
1
177
1
178
1
143
1.0
179
1
  8

270
1
271
1
272
1
145
1.0
146
1.0
273
1
  9

274
1
275
1
276
1
 42
1.0
 72
1
  3

 73
1
 74
1
 75
1
 94
63
  0
MATERIAL
  5
21
102
{ACAD_REACTORS
330
E
102
}
330
E
100
AcDbMaterial
  1
Global
  2

 70
0
 40
1.0
 71
1
 41
1.0
 91
-1023410177
 42
1.0
 72
1
  3

 73
1
 74
1
 75
1
 44
0.5
 73
0
 45
1.0
 46
1.0
 77
1
  4

 78
1
 79
1
170
1
 48
1.0
171
1
  6

172
1
173
1
174
1
140
1.0
141
1.0
175
1
  7

176
1
177
1
178
1
143
1.0
179
1
  8

270
1
271
1
272
1
145
1.0
146
1.0
273
1
  9

274
1
275
1
276
1
 42
1.0
 72
1
  3

 73
1
 74
1
 75
1
 94
63
  0
MLINESTYLE
  5
22
102
{ACAD_REACTORS
330
10
102
}
330
10
100
AcDbMlineStyle
  2
Standard
 70
0
  3

 62
256
 51
90.0
 52
90.0
 71
2
 49
0.5
 62
256
  6
BYLAYER
 49
-0.5
 62
256
  6
BYLAYER
  0
MLEADERSTYLE
  5
2C
102
{ACAD_REACTORS
330
F
102
}
330
F
100
AcDbMLeaderStyle
179
2
170
2
171
1
172
0
 90
2
 40
0.0
 41
0.0
173
1
 91
-1056964608
 92
-2
290
1
 42
2.0
291
1
 43
8.0
  3
Standard
 44
4.0
300

342
29
174
1
175
1
176
0
178
1
 93
-1056964608
 45
4.0
292
0
297
0
 46
4.0
 94
-1056964608
 47
1.0
 49
1.0
140
1.0
294
1
141
0.0
177
0
142
1.0
295
0
296
0
143
3.75
271
0
272
9
273
9
  0
DICTIONARY
  5
2D
330
A
100
AcDbDictionary
280
1
281
1
  3
CREATED_BY_EZDXF
350
2E
  3
WRITTEN_BY_EZDXF
350
5A
  0
DICTIONARYVAR
  5
2E
330
2D
100
DictionaryVariables
280
0
  1
1.4.3 @ 2026-05-01T15:52:42.200699+00:00
  0
DICTIONARYVAR
  5
5A
330
2D
100
DictionaryVariables
280
0
  1
1.4.3 @ 2026-05-01T15:52:42.204153+00:00
  0
ENDSEC
  0
EOF
