  0
SECTION
  2
HEADER
  9
$ACADVER
  1
AC1024
  9
$ACADMAINTVER
 70
6
  9
$DWGCODEPAGE
  3
ANSI_1252
  9
$LASTSAVEDBY
  1
ezdxf
  9
$INSBASE
 10
0.0
 20
0.0
 30
0.0
  9
$EXTMIN
 10
1e+20
 20
1e+20
 30
1e+20
  9
$EXTMAX
 10
-1e+20
 20
-1e+20
 30
-1e+20
  9
$LIMMIN
 10
0.0
 20
0.0
  9
$LIMMAX
 10
420.0
 20
297.0
  9
$ORTHOMODE
 70
0
  9
$REGENMODE
 70
1
  9
$FILLMODE
 70
1
  9
$QTEXTMODE
 70
0
  9
$MIRRTEXT
 70
1
  9
$LTSCALE
 40
1.0
  9
$ATTMODE
 70
1
  9
$TEXTSIZE
 40
2.5
  9
$TRACEWID
 40
1.0
  9
$TEXTSTYLE
  7
Standard
  9
$CLAYER
  8
0
  9
$CELTYPE
  6
ByLayer
  9
$CECOLOR
 62
256
  9
$CELTSCALE
 40
1.0
  9
$DISPSILH
 70
0
  9
$DIMSCALE
 40
1.0
  9
$DIMASZ
 40
2.5
  9
$DIMEXO
 40
0.625
  9
$DIMDLI
 40
3.75
  9
$DIMRND
 40
0.0
  9
$DIMDLE
 40
0.0
  9
$DIMEXE
 40
1.25
  9
$DIMTP
 40
0.0
  9
$DIMTM
 40
0.0
  9
$DIMTXT
 40
2.5
  9
$DIMCEN
 40
2.5
  9
$DIMTSZ
 40
0.0
  9
$DIMTOL
 70
0
  9
$DIMLIM
 70
0
  9
$DIMTIH
 70
0
  9
$DIMTOH
 70
0
  9
$DIMSE1
 70
0
  9
$DIMSE2
 70
0
  9
$DIMTAD
 70
1
  9
$DIMZIN
 70
8
  9
$DIMBLK
  1

  9
$DIMASO
 70
1
  9
$DIMSHO
 70
1
  9
$DIMPOST
  1

  9
$DIMAPOST
  1

  9
$DIMALT
 70
0
  9
$DIMALTD
 70
3
  9
$DIMALTF
 40
0.03937007874
  9
$DIMLFAC
 40
1.0
  9
$DIMTOFL
 70
1
  9
$DIMTVP
 40
0.0
  9
$DIMTIX
 70
0
  9
$DIMSOXD
 70
0
  9
$DIMSAH
 70
0
  9
$DIMBLK1
  1

  9
$DIMBLK2
  1

  9
$DIMSTYLE
  2
ISO-25
  9
$DIMCLRD
 70
0
  9
$DIMCLRE
 70
0
  9
$DIMCLRT
 70
0
  9
$DIMTFAC
 40
1.0
  9
$DIMGAP
 40
0.625
  9
$DIMJUST
 70
0
  9
$DIMSD1
 70
0
  9
$DIMSD2
 70
0
  9
$DIMTOLJ
 70
0
  9
$DIMTZIN
 70
8
  9
$DIMALTZ
 70
0
  9
$DIMALTTZ
 70
0
  9
$DIMUPT
 70
0
  9
$DIMDEC
 70
2
  9
$DIMTDEC
 70
2
  9
$DIMALTU
 70
2
  9
$DIMALTTD
 70
3
  9
$DIMTXSTY
  7
Standard
  9
$DIMAUNIT
 70
0
  9
$DIMADEC
 70
0
  9
$DIMALTRND
 40
0.0
  9
$DIMAZIN
 70
0
  9
$DIMDSEP
 70
44
  9
$DIMATFIT
 70
3
  9
$DIMFRAC
 70
0
  9
$DIMLDRBLK
  1

  9
$DIMLUNIT
 70
2
  9
$DIMLWD
 70
-2
  9
$DIMLWE
 70
-2
  9
$DIMTMOVE
 70
0
  9
$DIMFXL
 40
1.0
  9
$DIMFXLON
 70
0
  9
$DIMJOGANG
 40
0.785398163397
  9
$DIMTFILL
 70
0
  9
$DIMTFILLCLR
 70
0
  9
$DIMARCSYM
 70
0
  9
$DIMLTYPE
  6

  9
$DIMLTEX1
  6

  9
$DIMLTEX2
  6

  9
$DIMTXTDIRECTION
 70
0
  9
$LUNITS
 70
2
  9
$LUPREC
 70
4
  9
$SKETCHINC
 40
1.0
  9
$FILLETRAD
 40
10.0
  9
$AUNITS
 70
0
  9
$AUPREC
 70
2
  9
$MENU
  1
.
  9
$ELEVATION
 40
0.0
  9
$PELEVATION
 40
0.0
  9
$THICKNESS
 40
0.0
  9
$LIMCHECK
 70
0
  9
$CHAMFERA
 40
0.0
  9
$CHAMFERB
 40
0.0
  9
$CHAMFERC
 40
0.0
  9
$CHAMFERD
 40
0.0
  9
$SKPOLY
 70
0
  9
$TDCREATE
 40
2461162.7449305556
  9
$TDUCREATE
 40
2458532.153996898
  9
$TDUPDATE
 40
2461162.7449305556
  9
$TDUUPDATE
 40
2458532.1544311
  9
$TDINDWG
 40
0.0
  9
$TDUSRTIMER
 40
0.0
  9
$USRTIMER
 70
1
  9
$ANGBASE
 50
0.0
  9
$ANGDIR
 70
0
  9
$PDMODE
 70
0
  9
$PDSIZE
 40
0.0
  9
$PLINEWID
 40
0.0
  9
$SPLFRAME
 70
0
  9
$SPLINETYPE
 70
6
  9
$SPLINESEGS
 70
8
  9
$HANDSEED
  5
47
  9
$SURFTAB1
 70
6
  9
$SURFTAB2
 70
6
  9
$SURFTYPE
 70
6
  9
$SURFU
 70
6
  9
$SURFV
 70
6
  9
$UCSBASE
  2

  9
$UCSNAME
  2

  9
$UCSORG
 10
0.0
 20
0.0
 30
0.0
  9
$UCSXDIR
 10
1.0
 20
0.0
 30
0.0
  9
$UCSYDIR
 10
0.0
 20
1.0
 30
0.0
  9
$UCSORTHOREF
  2

  9
$UCSORTHOVIEW
 70
0
  9
$UCSORGTOP
 10
0.0
 20
0.0
 30
0.0
  9
$UCSORGBOTTOM
 10
0.0
 20
0.0
 30
0.0
  9
$UCSORGLEFT
 10
0.0
 20
0.0
 30
0.0
  9
$UCSORGRIGHT
 10
0.0
 20
0.0
 30
0.0
  9
$UCSORGFRONT
 10
0.0
 20
0.0
 30
0.0
  9
$UCSORGBACK
 10
0.0
 20
0.0
 30
0.0
  9
$PUCSBASE
  2

  9
$PUCSNAME
  2

  9
$PUCSORG
 10
0.0
 20
0.0
 30
0.0
  9
$PUCSXDIR
 10
1.0
 20
0.0
 30
0.0
  9
$PUCSYDIR
 10
0.0
 20
1.0
 30
0.0
  9
$PUCSORTHOREF
  2

  9
$PUCSORTHOVIEW
 70
0
  9
$PUCSORGTOP
 10
0.0
 20
0.0
 30
0.0
  9
$PUCSORGBOTTOM
 10
0.0
 20
0.0
 30
0.0
  9
$PUCSORGLEFT
 10
0.0
 20
0.0
 30
0.0
  9
$PUCSORGRIGHT
 10
0.0
 20
0.0
 30
0.0
  9
$PUCSORGFRONT
 10
0.0
 20
0.0
 30
0.0
  9
$PUCSORGBACK
 10
0.0
 20
0.0
 30
0.0
  9
$USERI1
 70
0
  9
$USERI2
 70
0
  9
$USERI3
 70
0
  9
$USERI4
 70
0
  9
$USERI5
 70
0
  9
$USERR1
 40
0.0
  9
$USERR2
 40
0.0
  9
$USERR3
 40
0.0
  9
$USERR4
 40
0.0
  9
$USERR5
 40
0.0
  9
$WORLDVIEW
 70
1
  9
$SHADEDGE
 70
3
  9
$SHADEDIF
 70
70
  9
$TILEMODE
 70
1
  9
$MAXACTVP
 70
64
  9
$PINSBASE
 10
0.0
 20
0.0
 30
0.0
  9
$PLIMCHECK
 70
0
  9
$PEXTMIN
 10
1e+20
 20
1e+20
 30
1e+20
  9
$PEXTMAX
 10
-1e+20
 20
-1e+20
 30
-1e+20
  9
$PLIMMIN
 10
0.0
 20
0.0
  9
$PLIMMAX
 10
420.0
 20
297.0
  9
$UNITMODE
 70
0
  9
$VISRETAIN
 70
1
  9
$PLINEGEN
 70
0
  9
$PSLTSCALE
 70
1
  9
$TREEDEPTH
 70
3020
  9
$CMLSTYLE
  2
Standard
  9
$CMLJUST
 70
0
  9
$CMLSCALE
 40
20.0
  9
$PROXYGRAPHICS
 70
1
  9
$MEASUREMENT
 70
1
  9
$CELWEIGHT
370
-1
  9
$ENDCAPS
280
0
  9
$JOINSTYLE
280
0
  9
$LWDISPLAY
290
0
  9
$INSUNITS
 70
4
  9
$HYPERLINKBASE
  1

  9
$STYLESHEET
  1

  9
$XEDIT
290
1
  9
$CEPSNTYPE
380
0
  9
$PSTYLEMODE
290
1
  9
$FINGERPRINTGUID
  2
{9B855BBA-A290-4921-A5A7-12E64D890D17}
  9
$VERSIONGUID
  2
{63A55EF5-FA24-4724-8CA1-CDEFA3DB4461}
  9
$EXTNAMES
290
1
  9
$PSVPSCALE
 40
0.0
  9
$OLESTARTUP
290
0
  9
$SORTENTS
280
127
  9
$INDEXCTL
280
0
  9
$HIDETEXT
280
1
  9
$XCLIPFRAME
280
1
  9
$HALOGAP
280
0
  9
$OBSCOLOR
 70
257
  9
$OBSLTYPE
280
0
  9
$INTERSECTIONDISPLAY
280
0
  9
$INTERSECTIONCOLOR
 70
257
  9
$DIMASSOC
280
2
  9
$PROJECTNAME
  1

  9
$CAMERADISPLAY
290
0
  9
$LENSLENGTH
 40
50.0
  9
$CAMERAHEIGHT
 40
0.0
  9
$STEPSPERSEC
 40
24.0
  9
$STEPSIZE
 40
100.0
  9
$3DDWFPREC
 40
2.0
  9
$PSOLWIDTH
 40
0.005
  9
$PSOLHEIGHT
 40
0.08
  9
$LOFTANG1
 40
1.570796326795
  9
$LOFTANG2
 40
1.570796326795
  9
$LOFTMAG1
 40
0.0
  9
$LOFTMAG2
 40
0.0
  9
$LOFTPARAM
 70
7
  9
$LOFTNORMALS
280
1
  9
$LATITUDE
 40
37.795
  9
$LONGITUDE
 40
-122.394
  9
$NORTHDIRECTION
 40
0.0
  9
$TIMEZONE
 70
-8000
  9
$LIGHTGLYPHDISPLAY
280
1
  9
$TILEMODELIGHTSYNCH
280
1
  9
$CMATERIAL
347
20
  9
$SOLIDHIST
280
0
  9
$SHOWHIST
280
1
  9
$DWFFRAME
280
2
  9
$DGNFRAME
280
2
  9
$REALWORLDSCALE
290
1
  9
$INTERFERECOLOR
 62
256
  9
$CSHADOW
280
0
  9
$SHADOWPLANELOCATION
 40
0.0
  0
ENDSEC
  0
SECTION
  2
CLASSES
  0
CLASS
  1
ACDBDICTIONARYWDFLT
  2
AcDbDictionaryWithDefault
  3
ObjectDBX Classes
 90
0
 91
0
280
0
281
0
  0
CLASS
  1
SUN
  2
AcDbSun
  3
SCENEOE
 90
1153
 91
0
280
0
281
0
  0
CLASS
  1
VISUALSTYLE
  2
AcDbVisualStyle
  3
ObjectDBX Classes
 90
4095
 91
0
280
0
281
0
  0
CLASS
  1
MATERIAL
  2
AcDbMaterial
  3
ObjectDBX Classes
 90
1153
 91
0
280
0
281
0
  0
CLASS
  1
SCALE
  2
AcDbScale
  3
ObjectDBX Classes
 90
1153
 91
0
280
0
281
0
  0
CLASS
  1
TABLESTYLE
  2
AcDbTableStyle
  3
ObjectDBX Classes
 90
4095
 91
0
280
0
281
0
  0
CLASS
  1
MLEADERSTYLE
  2
AcDbMLeaderStyle
  3
ACDB_MLEADERSTYLE_CLASS
 90
4095
 91
0
280
0
281
0
  0
CLASS
  1
DICTIONARYVAR
  2
AcDbDictionaryVar
  3
ObjectDBX Classes
 90
0
 91
0
280
0
281
0
  0
CLASS
  1
CELLSTYLEMAP
  2
AcDbCellStyleMap
  3
ObjectDBX Classes
 90
1152
 91
0
280
0
281
0
  0
CLASS
  1
MENTALRAYRENDERSETTINGS
  2
AcDbMentalRayRenderSettings
  3
SCENEOE
 90
1024
 91
0
280
0
281
0
  0
CLASS
  1
ACDBDETAILVIEWSTYLE
  2
AcDbDetailViewStyle
  3
ObjectDBX Classes
 90
1025
 91
0
280
0
281
0
  0
CLASS
  1
ACDBSECTIONVIEWSTYLE
  2
AcDbSectionViewStyle
  3
ObjectDBX Classes
 90
1025
 91
0
280
0
281
0
  0
CLASS
  1
RASTERVARIABLES
  2
AcDbRasterVariables
  3
ISM
 90
0
 91
0
280
0
281
0
  0
CLASS
  1
ACDBPLACEHOLDER
  2
AcDbPlaceHolder
  3
ObjectDBX Classes
 90
0
 91
0
280
0
281
0
  0
CLASS
  1
LAYOUT
  2
AcDbLayout
  3
ObjectDBX Classes
 90
0
 91
0
280
0
281
0
  0
ENDSEC
  0
SECTION
  2
TABLES
  0
TABLE
  2
VPORT
  5
8
330
0
100
AcDbSymbolTable
 70
1
  0
VPORT
  5
23
330
8
100
AcDbSymbolTableRecord
100
AcDbViewportTableRecord
  2
*Active
 70
0
 10
0.0
 20
0.0
 11
1.0
 21
1.0
 12
0.0
 22
0.0
 13
0.0
 23
0.0
 14
0.5
 24
0.5
 15
0.5
 25
0.5
 16
0.0
 26
0.0
 36
1.0
 17
0.0
 27
0.0
 37
0.0
 40
1000.0
 41
1.34
 42
50.0
 43
0.0
 44
0.0
 50
0.0
 51
0.0
 71
0
 72
1000
 73
1
 74
3
 75
0
 76
0
 77
0
 78
0
281
0
 65
0
146
0.0
  0
ENDTAB
  0
TABLE
  2
LTYPE
  5
2
330
0
100
AcDbSymbolTable
 70
3
  0
LTYPE
  5
24
330
2
100
AcDbSymbolTableRecord
100
AcDbLinetypeTableRecord
  2
ByBlock
 70
0
  3

 72
65
 73
0
 40
0.0
  0
LTYPE
  5
25
330
2
100
AcDbSymbolTableRecord
100
AcDbLinetypeTableRecord
  2
ByLayer
 70
0
  3

 72
65
 73
0
 40
0.0
  0
LTYPE
  5
26
330
2
100
AcDbSymbolTableRecord
100
AcDbLinetypeTableRecord
  2
Continuous
 70
0
  3

 72
65
 73
0
 40
0.0
  0
ENDTAB
  0
TABLE
  2
LAYER
  5
1
330
0
100
AcDbSymbolTable
 70
2
  0
LAYER
  5
27
330
1
100
AcDbSymbolTableRecord
100
AcDbLayerTableRecord
  2
0
 70
0
 62
7
  6
Continuous
370
-3
390
13
347
21
  0
LAYER
  5
28
330
1
100
AcDbSymbolTableRecord
100
AcDbLayerTableRecord
  2
Defpoints
 70
0
 62
7
  6
Continuous
290
0
370
-3
390
13
347
21
  0
ENDTAB
  0
TABLE
  2
STYLE
  5
5
330
0
100
AcDbSymbolTable
 70
1
  0
STYLE
  5
29
330
5
100
AcDbSymbolTableRecord
100
AcDbTextStyleTableRecord
  2
Standard
 70
0
 40
0.0
 41
1.0
 50
0.0
 71
0
 42
2.5
  3
txt
  4

  0
ENDTAB
  0
TABLE
  2
VIEW
  5
7
330
0
100
AcDbSymbolTable
 70
0
  0
ENDTAB
  0
TABLE
  2
UCS
  5
6
330
0
100
AcDbSymbolTable
 70
0
  0
ENDTAB
  0
TABLE
  2
APPID
  5
3
330
0
100
AcDbSymbolTable
 70
3
  0
APPID
  5
2A
330
3
100
AcDbSymbolTableRecord
100
AcDbRegAppTableRecord
  2
ACAD
 70
0
  0
APPID
  5
44
330
3
100
AcDbSymbolTableRecord
100
AcDbRegAppTableRecord
  2
HATCHBACKGROUNDCOLOR
 70
0
  0
APPID
  5
45
330
3
100
AcDbSymbolTableRecord
100
AcDbRegAppTableRecord
  2
EZDXF
 70
0
  0
ENDTAB
  0
TABLE
  2
DIMSTYLE
  5
4
330
0
100
AcDbSymbolTable
 70
1
100
AcDbDimStyleTable
  0
DIMSTYLE
105
2B
330
4
100
AcDbSymbolTableRecord
100
AcDbDimStyleTableRecord
  2
Standard
 70
0
 40
1.0
 41
2.5
 42
0.625
 43
3.75
 44
1.25
 45
0.0
 46
0.0
 47
0.0
 48
0.0
 49
2.5
140
2.5
141
2.5
142
0.0
143
0.03937007874
144
1.0
145
0.0
146
1.0
147
0.625
148
0.0
 69
0
 70
0
 71
0
 72
0
 73
0
 74
0
 75
0
 76
0
 77
1
 78
8
 79
3
170
0
171
3
172
1
173
0
174
0
175
0
176
0
177
0
178
0
179
2
271
2
272
2
273
2
274
3
275
0
276
0
277
2
278
44
279
0
280
0
281
0
282
0
283
0
284
8
285
0
286
0
288
0
289
3
290
0
371
-2
372
-2
  0
ENDTAB
  0
TABLE
  2
BLOCK_RECORD
  5
9
330
0
100
AcDbSymbolTable
 70
2
  0
BLOCK_RECORD
  5
17
330
9
100
AcDbSymbolTableRecord
100
AcDbBlockTableRecord
  2
*Model_Space
340
1A
 70
0
280
1
281
0
  0
BLOCK_RECORD
  5
1B
330
9
100
AcDbSymbolTableRecord
100
AcDbBlockTableRecord
  2
*Paper_Space
340
1E
 70
0
280
1
281
0
  0
ENDTAB
  0
ENDSEC
  0
SECTION
  2
BLOCKS
  0
BLOCK
  5
18
330
17
100
AcDbEntity
  8
0
100
AcDbBlockBegin
  2
*Model_Space
 70
0
 10
0.0
 20
0.0
 30
0.0
  3
*Model_Space
  1

  0
ENDBLK
  5
19
330
17
100
AcDbEntity
  8
0
100
AcDbBlockEnd
  0
BLOCK
  5
1C
330
1B
100
AcDbEntity
  8
0
100
AcDbBlockBegin
  2
*Paper_Space
 70
0
 10
0.0
 20
0.0
 30
0.0
  3
*Paper_Space
  1

  0
ENDBLK
  5
1D
330
1B
100
AcDbEntity
  8
0
100
AcDbBlockEnd
  0
ENDSEC
  0
SECTION
  2
ENTITIES
  0
LWPOLYLINE
  5
2F
330
17
100
AcDbEntity
  8
0
100
AcDbPolyline
 90
513
 70
1
 10
-3.674071390384286
 20
6.56681944082509
 10
-3.6758921253087786
 20
6.578325148740204
 10
-3.6779911490608588
 20
6.589777509007367
 10
-3.680365130594628
 20
6.60117243051339
 10
-3.6830107388641906
 20
6.612505822145085
 10
-3.6859246428236494
 20
6.623773592789264
 10
-3.6891035114271054
 20
6.634971651332738
 10
-3.6925440136286647
 20
6.646095906662318
 10
-3.696242818382428
 20
6.657142267664817
 10
-3.7001965946424984
 20
6.668106643227046
 10
-3.70440201136298
 20
6.678984942235816
 10
-3.7088557374979745
 20
6.689773073577938
 10
-3.713554442001586
 20
6.700466946140226
 10
-3.7184947938279165
 20
6.711062468809489
 10
-3.723673461931069
 20
6.721555550472541
 10
-3.7290871152651475
 20
6.731942100016193
 10
-3.734732422784254
 20
6.7422180263272535
 10
-3.740606053442492
 20
6.752379238292538
 10
-3.7467046761939633
 20
6.762421644798857
 10
-3.753024959992772
 20
6.772341154733021
 10
-3.7595635737930206
 20
6.782133676981842
 10
-3.766317186548812
 20
6.791795120432132
 10
-3.77328246721425
 20
6.801321393970703
 10
-3.780456084743436
 20
6.810708406484366
 10
-3.7878347080904744
 20
6.819952066859932
 10
-3.795415006209468
 20
6.829048283984214
 10
-3.8031936480545183
 20
6.837992966744022
 10
-3.81116730257973
 20
6.846782024026169
 10
-3.819332638739205
 20
6.855411364717465
 10
-3.827686325487046
 20
6.863876897704723
 10
-3.8362250317773574
 20
6.872174531874755
 10
-3.8449454265642404
 20
6.880300176114371
 10
-3.853844178801799
 20
6.888249739310384
 10
-3.8629179574441364
 20
6.896019130349605
 10
-3.872163431445355
 20
6.903604258118844
 10
-3.8815772697595583
 20
6.911001031504915
 10
-3.891156141340848
 20
6.918205359394628
 10
-3.900896715143328
 20
6.925213150674796
 10
-3.910795660121101
 20
6.93202031423223
 10
-3.92084964522827
 20
6.938622758953741
 10
-3.9310553394189385
 20
6.945016393726141
 10
-3.941409411647208
 20
6.9511971274362425
 10
-3.9519085308671835
 20
6.957160868970855
 10
-3.9625493660329663
 20
6.962903527216792
 10
-3.9733285860986594
 20
6.968421011060864
 10
-3.9842428600183672
 20
6.9737092293898835
 10
-3.9952888567461913
 20
6.978764091090661
 10
-4.006463245236235
 20
6.983581505050008
 10
-4.017762694442601
 20
6.988157380154738
 10
-4.0291838733193925
 20
6.992487625291661
 10
-4.040723450820713
 20
6.996568149347588
 10
-4.052378095900664
 20
7.000394861209332
 10
-4.06414447751335
 20
7.003963669763705
 10
-4.0760192646128734
 20
7.007270483897517
 10
-4.0879991261533375
 20
7.010311212497579
 10
-4.100080731088844
 20
7.013081764450705
 10
-4.112260748373497
 20
7.015578048643706
 10
-4.124535846961399
 20
7.017795973963391
 10
-4.136902695806653
 20
7.019731449296575
 10
-4.149357963863363
 20
7.021380383530069
 10
-4.16189832008563
 20
7.022738685550682
 10
-4.174520433427558
 20
7.023802264245228
 10
-4.1872209728432495
 20
7.024567028500518
 10
-4.199996607286809
 20
7.025028887203363
 10
-4.212844005712337
 20
7.0251837492405755
 10
-4.225691404137866
 20
7.0250288896937025
 10
-4.238467038581424
 20
7.024567038303758
 10
-4.2511675779971165
 20
7.023802285946754
 10
-4.263789691339044
 20
7.022738723498706
 10
-4.276330047561311
 20
7.021380441835626
 10
-4.2887853156180205
 20
7.019731531833527
 10
-4.301152164463275
 20
7.017796084368423
 10
-4.313427263051176
 20
7.015578190316328
 10
-4.32560728033583
 20
7.013081940553253
 10
-4.337688885271336
 20
7.010311425955213
 10
-4.3496687468118
 20
7.007270737398221
 10
-4.361543533911323
 20
7.003963965758289
 10
-4.373309915524009
 20
7.0003952019114335
 10
-4.384964560603961
 20
6.996568536733664
 10
-4.396504138105281
 20
6.992488061100996
 10
-4.407925316982073
 20
6.988157865889441
 10
-4.419224766188439
 20
6.983582041975015
 10
-4.430399154678483
 20
6.978764680233729
 10
-4.441445151406307
 20
6.973709871541597
 10
-4.452359425326014
 20
6.968421706774632
 10
-4.463138645391708
 20
6.962904276808848
 10
-4.47377948055749
 20
6.957161672520257
 10
-4.484278599777466
 20
6.951197984784874
 10
-4.494632672005736
 20
6.94501730447871
 10
-4.504838366196403
 20
6.9386237224777805
 10
-4.514892351303573
 20
6.932021329658097
 10
-4.524791296281347
 20
6.925214216895675
 10
-4.534531870083826
 20
6.918206475066525
 10
-4.544110741665116
 20
6.911002195046662
 10
-4.553524579979319
 20
6.903605467712099
 10
-4.562770053980537
 20
6.896020383938849
 10
-4.571843832622875
 20
6.888251034602925
 10
-4.580742584860433
 20
6.880301510580342
 10
-4.589462979647316
 20
6.872175902747111
 10
-4.598001685937628
 20
6.863878301979247
 10
-4.60635537268547
 20
6.855412799152761
 10
-4.614520708844944
 20
6.8467834851436695
 10
-4.622494363370155
 20
6.837994450827982
 10
-4.630273005215207
 20
6.829049787081715
 10
-4.637853303334199
 20
6.8199535847808805
 10
-4.645231926681237
 20
6.8107099348014914
 10
-4.652405544210424
 20
6.801322928019561
 10
-4.659370824875861
 20
6.791796655311104
 10
-4.6661244376316535
 20
6.782135207552131
 10
-4.672663051431901
 20
6.772342675618658
 10
-4.67898333523071
 20
6.762423150386696
 10
-4.685081957982183
 20
6.752380722732261
 10
-4.69095558864042
 20
6.742219483531364
 10
-4.696600896159526
 20
6.73194352366002
 10
-4.7020145494936045
 20
6.721556933994238
 10
-4.707193217596757
 20
6.7110638054100376
 10
-4.712133569423088
 20
6.700468228783428
 10
-4.716832273926698
 20
6.689774294990422
 10
-4.721286000061695
 20
6.678986094907035
 10
-4.725491416782175
 20
6.66810771940928
 10
-4.729445193042246
 20
6.65714325937317
 10
-4.7331439977960095
 20
6.646096805674717
 10
-4.7365844999975675
 20
6.634972449189936
 10
-4.739763368601025
 20
6.62377428079484
 10
-4.742677272560483
 20
6.612506391365441
 10
-4.745322880830045
 20
6.601172871777753
 10
-4.747696862363815
 20
6.58977781290779
 10
-4.749795886115894
 20
6.578325305631564
 10
-4.751616621040387
 20
6.56681944082509
 10
-4.749017245612331
 20
6.566505295581904
 10
-4.746384436077991
 20
6.566175011597648
 10
-4.743718699043489
 20
6.565829263635617
 10
-4.7410205411149375
 20
6.565468726459109
 10
-4.738290468898454
 20
6.565094074831419
 10
-4.735528989000155
 20
6.564705983515842
 10
-4.7327366080261575
 20
6.564305127275678
 10
-4.729913832582576
 20
6.56389218087422
 10
-4.7270611692755296
 20
6.563467819074766
 10
-4.724179124711132
 20
6.563032716640613
 10
-4.721268205495502
 20
6.562587548335057
 10
-4.718328918234755
 20
6.562132988921395
 10
-4.715361769535007
 20
6.56166971316292
 10
-4.712367266002375
 20
6.561198395822933
 10
-4.7093459142429746
 20
6.560719711664727
 10
-4.706298220862923
 20
6.560234335451601
 10
-4.7032246924683365
 20
6.55974294194685
 10
-4.700125835665331
 20
6.559246205913771
 10
-4.697002157060023
 20
6.558744802115659
 10
-4.693854163258529
 20
6.558239405315813
 10
-4.690682360866965
 20
6.557730690277527
 10
-4.687487256491449
 20
6.5572193317641
 10
-4.684269356738096
 20
6.5567060045388255
 10
-4.681029168213023
 20
6.556191383365
 10
-4.677767197522346
 20
6.555676143005923
 10
-4.6744839512721805
 20
6.555160958224888
 10
-4.671179936068645
 20
6.554646503785192
 10
-4.667855658517854
 20
6.554133454450134
 10
-4.664511625225925
 20
6.5536224849830065
 10
-4.661148342798974
 20
6.553114270147108
 10
-4.657766317843118
 20
6.552609484705735
 10
-4.654366056964473
 20
6.5521088034221835
 10
-4.650948066769154
 20
6.55161290105975
 10
-4.6475128538632795
 20
6.55112245238173
 10
-4.6440609248529645
 20
6.550638132151422
 10
-4.640592786344326
 20
6.55016061513212
 10
-4.637108944943481
 20
6.549690576087123
 10
-4.633609907256545
 20
6.549228689779726
 10
-4.630096179889635
 20
6.548775630973225
 10
-4.626568269448867
 20
6.548332074430917
 10
-4.623026682540356
 20
6.547898694916098
 10
-4.619471925770221
 20
6.547476167192065
 10
-4.615904505744578
 20
6.547065166022114
 10
-4.612324929069541
 20
6.546666366169542
 10
-4.60873370235123
 20
6.546280442397644
 10
-4.605131332195757
 20
6.545908069469719
 10
-4.601518325209243
 20
6.545549922149061
 10
-4.597895187997801
 20
6.545206675198967
 10
-4.594262427167549
 20
6.544879003382735
 10
-4.590620549324603
 20
6.544567581463658
 10
-4.58697006107508
 20
6.544273084205036
 10
-4.5833114690250945
 20
6.543996186370164
 10
-4.579645279780765
 20
6.543737562722339
 10
-4.575971999948207
 20
6.543497888024855
 10
-4.572292136133537
 20
6.543277837041011
 10
-4.5686061949428725
 20
6.543078084534102
 10
-4.564914682982327
 20
6.542899305267426
 10
-4.5612181068580195
 20
6.542742174004278
 10
-4.557516973176066
 20
6.542607365507955
 10
-4.553811788542582
 20
6.542495554541754
 10
-4.550103059563685
 20
6.54240741586897
 10
-4.54639129284549
 20
6.5423436242529
 10
-4.542676994994115
 20
6.54230485445684
 10
-4.538960672615675
 20
6.542291781244088
 10
-4.525439440304074
 20
6.542462881148407
 10
-4.512002559966371
 20
6.542973437904424
 10
-4.498654146275154
 20
6.543819337076727
 10
-4.485398313903007
 20
6.544996464229904
 10
-4.472239177522518
 20
6.546500704928545
 10
-4.4591808518062725
 20
6.548327944737237
 10
-4.446227451426858
 20
6.550474069220572
 10
-4.43338309105686
 20
6.552934963943135
 10
-4.420651885368866
 20
6.555706514469517
 10
-4.408037949035461
 20
6.558784606364304
 10
-4.395545396729233
 20
6.562165125192088
 10
-4.3831783431227676
 20
6.565843956517456
 10
-4.370940902888651
 20
6.569816985904997
 10
-4.358837190699471
 20
6.5740800989193
 10
-4.3468713212278125
 20
6.578629181124953
 10
-4.335047409146263
 20
6.5834601180865455
 10
-4.323369569127409
 20
6.588568795368666
 10
-4.311841915843836
 20
6.593951098535901
 10
-4.30046856396813
 20
6.599602913152842
 10
-4.28925362817288
 20
6.605520124784077
 10
-4.2782012231306705
 20
6.611698618994194
 10
-4.2673154635140875
 20
6.618134281347784
 10
-4.25660046399572
 20
6.6248229974094315
 10
-4.246060339248152
 20
6.631760652743727
 10
-4.2356992039439705
 20
6.638943132915262
 10
-4.225521172755762
 20
6.646366323488623
 10
-4.215530360356114
 20
6.654026110028397
 10
-4.205730881417612
 20
6.661918378099175
 10
-4.196126850612842
 20
6.670039013265544
 10
-4.186722382614392
 20
6.6783839010920945
 10
-4.1775215920948465
 20
6.686948927143415
 10
-4.168528593726793
 20
6.695729976984092
 10
-4.159747502182819
 20
6.704722936178716
 10
-4.151182432135509
 20
6.713923690291876
 10
-4.142837498257451
 20
6.723328124888161
 10
-4.134716815221231
 20
6.732932125532157
 10
-4.126824497699435
 20
6.7427315777884544
 10
-4.11916466036465
 20
6.752722367221643
 10
-4.11174141788946
 20
6.76290037939631
 10
-4.1045588849464565
 20
6.773261499877045
 10
-4.097621176208222
 20
6.783801614228436
 10
-4.090932406347344
 20
6.794516608015071
 10
-4.08449669003641
 20
6.80540236680154
 10
-4.078318141948004
 20
6.8164547761524314
 10
-4.072400876754715
 20
6.827669721632334
 10
-4.066749009129128
 20
6.839043088805837
 10
-4.06136665374383
 20
6.850570763237526
 10
-4.0562579252714075
 20
6.862248630491994
 10
-4.051426938384448
 20
6.874072576133827
 10
-4.046877807755535
 20
6.886038485727614
 10
-4.042614648057257
 20
6.898142244837945
 10
-4.038641573962201
 20
6.910379739029407
 10
-4.034962700142952
 20
6.92274685386659
 10
-4.031582141272097
 20
6.9352394749140815
 10
-4.028504012022223
 20
6.947853487736471
 10
-4.025732427065916
 20
6.960584777898347
 10
-4.0232715010757625
 20
6.9734292309643
 10
-4.021125348724349
 20
6.986382732498915
 10
-4.019298084684261
 20
6.999441168066783
 10
-4.017793823628087
 20
7.0126004232324926
 10
-4.016616680228412
 20
7.025856383560631
 10
-4.015770769157823
 20
7.039204934615788
 10
-4.0152602050889055
 20
7.052641961962554
 10
-4.0150891026942475
 20
7.066163351165515
 10
-4.0151520433258865
 20
7.074304345617893
 10
-4.015339934387403
 20
7.082427518887758
 10
-4.015651379628702
 20
7.090531640668557
 10
-4.016084982799685
 20
7.09861548065374
 10
-4.016639347650257
 20
7.106677808536754
 10
-4.017313077930318
 20
7.114717394011047
 10
-4.018104777389773
 20
7.122733006770069
 10
-4.019013049778525
 20
7.1307234165072675
 10
-4.020036498846476
 20
7.13868739291609
 10
-4.0211737283435305
 20
7.1466237056899855
 10
-4.02242334201959
 20
7.154531124522402
 10
-4.023783943624558
 20
7.162408419106788
 10
-4.025254136908337
 20
7.1702543591365915
 10
-4.026832525620831
 20
7.17806771430526
 10
-4.028517713511943
 20
7.185847254306244
 10
-4.030308304331574
 20
7.193591748832991
 10
-4.0322029018296295
 20
7.201299967578948
 10
-4.034200109756012
 20
7.208970680237564
 10
-4.036298531860623
 20
7.216602656502288
 10
-4.0384967718933655
 20
7.224194666066567
 10
-4.040793433604144
 20
7.231745478623851
 10
-4.043187120742861
 20
7.239253863867587
 10
-4.045676437059419
 20
7.2467185914912235
 10
-4.048259986303721
 20
7.254138431188209
 10
-4.050936372225671
 20
7.261512152651991
 10
-4.053704198575171
 20
7.268838525576019
 10
-4.0565620691021245
 20
7.276116319653741
 10
-4.059508587556434
 20
7.283344304578604
 10
-4.062542357688002
 20
7.2905212500440575
 10
-4.065661983246733
 20
7.29764592574355
 10
-4.068866067982529
 20
7.304717101370529
 10
-4.072153215645293
 20
7.311733546618443
 10
-4.075522029984928
 20
7.318694031180741
 10
-4.078971114751337
 20
7.325597324750871
 10
-4.082499073694423
 20
7.332442197022281
 10
-4.086104510564089
 20
7.339227417688417
 10
-4.089786029110238
 20
7.345951756442732
 10
-4.093542233082773
 20
7.352613982978671
 10
-4.097371726231597
 20
7.359212866989683
 10
-4.101273112306614
 20
7.365747178169217
 10
-4.105244995057725
 20
7.372215686210721
 10
-4.109285978234834
 20
7.378617160807643
 10
-4.113394665587844
 20
7.384950371653431
 10
-4.117569660866657
 20
7.391214088441532
 10
-4.121809567821178
 20
7.397407080865398
 10
-4.1261129902013085
 20
7.403528118618475
 10
-4.1304785317569515
 20
7.409575971394211
 10
-4.134904796238011
 20
7.415549408886053
 10
-4.139390387394389
 20
7.421447200787453
 10
-4.143933908975988
 20
7.427268116791857
 10
-4.148533964732713
 20
7.433010926592713
 10
-4.153189158414465
 20
7.43867439988347
 10
-4.157898093771148
 20
7.444257306357578
 10
-4.162659374552664
 20
7.449758415708481
 10
-4.1674716045089175
 20
7.455176497629631
 10
-4.17233338738981
 20
7.460510321814475
 10
-4.177243326945246
 20
7.465758657956459
 10
-4.182200026925126
 20
7.4709202757490365
 10
-4.187202091079356
 20
7.475993944885651
 10
-4.192248123157837
 20
7.480978435059754
 10
-4.197336726910473
 20
7.485872515964792
 10
-4.202466506087166
 20
7.490674957294214
 10
-4.2076360644378195
 20
7.495384528741467
 10
-4.212844005712337
 20
7.500000000000001
 10
-4.218051946986854
 20
7.495384528741467
 10
-4.223221505337508
 20
7.490674957294214
 10
-4.228351284514201
 20
7.485872515964792
 10
-4.233439888266837
 20
7.480978435059754
 10
-4.238485920345318
 20
7.475993944885651
 10
-4.243487984499548
 20
7.4709202757490365
 10
-4.248444684479429
 20
7.465758657956459
 10
-4.253354624034864
 20
7.460510321814475
 10
-4.258216406915757
 20
7.455176497629631
 10
-4.26302863687201
 20
7.449758415708481
 10
-4.267789917653526
 20
7.444257306357578
 10
-4.272498853010209
 20
7.43867439988347
 10
-4.277154046691962
 20
7.433010926592713
 10
-4.281754102448685
 20
7.427268116791857
 10
-4.2862976240302855
 20
7.421447200787453
 10
-4.290783215186663
 20
7.415549408886053
 10
-4.295209479667722
 20
7.409575971394211
 10
-4.299575021223365
 20
7.403528118618475
 10
-4.303878443603496
 20
7.397407080865398
 10
-4.308118350558017
 20
7.391214088441533
 10
-4.312293345836831
 20
7.384950371653431
 10
-4.31640203318984
 20
7.378617160807643
 10
-4.32044301636695
 20
7.372215686210721
 10
-4.32441489911806
 20
7.365747178169217
 10
-4.328316285193076
 20
7.359212866989683
 10
-4.3321457783419
 20
7.352613982978671
 10
-4.335901982314436
 20
7.345951756442732
 10
-4.339583500860585
 20
7.339227417688417
 10
-4.343188937730251
 20
7.332442197022281
 10
-4.346716896673337
 20
7.325597324750871
 10
-4.350165981439746
 20
7.318694031180741
 10
-4.353534795779382
 20
7.311733546618443
 10
-4.356821943442145
 20
7.304717101370529
 10
-4.360026028177941
 20
7.29764592574355
 10
-4.363145653736671
 20
7.2905212500440575
 10
-4.36617942386824
 20
7.283344304578604
 10
-4.369125942322549
 20
7.276116319653741
 10
-4.3719838128495025
 20
7.268838525576019
 10
-4.374751639199003
 20
7.261512152651991
 10
-4.3774280251209525
 20
7.254138431188209
 10
-4.380011574365255
 20
7.2467185914912235
 10
-4.382500890681813
 20
7.239253863867587
 10
-4.38489457782053
 20
7.231745478623851
 10
-4.387191239531309
 20
7.224194666066567
 10
-4.389389479564052
 20
7.216602656502288
 10
-4.391487901668663
 20
7.208970680237564
 10
-4.393485109595045
 20
7.201299967578948
 10
-4.3953797070931
 20
7.193591748832991
 10
-4.397170297912731
 20
7.185847254306244
 10
-4.398855485803843
 20
7.17806771430526
 10
-4.400433874516336
 20
7.1702543591365915
 10
-4.401904067800116
 20
7.162408419106788
 10
-4.403264669405084
 20
7.154531124522402
 10
-4.404514283081143
 20
7.1466237056899855
 10
-4.405651512578197
 20
7.13868739291609
 10
-4.406674961646149
 20
7.1307234165072675
 10
-4.407583234034901
 20
7.122733006770069
 10
-4.408374933494356
 20
7.114717394011047
 10
-4.409048663774418
 20
7.106677808536754
 10
-4.409603028624988
 20
7.09861548065374
 10
-4.410036631795972
 20
7.090531640668557
 10
-4.410348077037271
 20
7.082427518887758
 10
-4.410535968098788
 20
7.074304345617893
 10
-4.410598908730426
 20
7.066163351165515
 10
-4.410427808826107
 20
7.052641961962554
 10
-4.40991725207009
 20
7.039204934615788
 10
-4.409071352897787
 20
7.025856383560631
 10
-4.407894225744611
 20
7.0126004232324926
 10
-4.40638998504597
 20
6.999441168066783
 10
-4.4045627452372775
 20
6.986382732498915
 10
-4.402416620753943
 20
6.9734292309643
 10
-4.399955726031379
 20
6.960584777898347
 10
-4.397184175504998
 20
6.947853487736471
 10
-4.39410608361021
 20
6.9352394749140815
 10
-4.390725564782426
 20
6.92274685386659
 10
-4.387046733457058
 20
6.910379739029407
 10
-4.383073704069517
 20
6.898142244837945
 10
-4.378810591055214
 20
6.886038485727614
 10
-4.374261508849561
 20
6.874072576133827
 10
-4.369430571887969
 20
6.862248630491994
 10
-4.364321894605849
 20
6.850570763237526
 10
-4.358939591438614
 20
6.839043088805837
 10
-4.353287776821673
 20
6.827669721632334
 10
-4.347370565190437
 20
6.8164547761524314
 10
-4.341192070980321
 20
6.80540236680154
 10
-4.334756408626731
 20
6.794516608015071
 10
-4.328067692565083
 20
6.783801614228436
 10
-4.321130037230786
 20
6.773261499877045
 10
-4.313947557059253
 20
6.76290037939631
 10
-4.306524366485893
 20
6.752722367221643
 10
-4.298864579946118
 20
6.7427315777884544
 10
-4.29097231187534
 20
6.732932125532157
 10
-4.282851676708971
 20
6.723328124888161
 10
-4.27450678888242
 20
6.713923690291876
 10
-4.2659417628311
 20
6.704722936178716
 10
-4.257160712990423
 20
6.695729976984092
 10
-4.248167753795798
 20
6.686948927143415
 10
-4.2389669996826385
 20
6.6783839010920945
 10
-4.229562565086354
 20
6.670039013265544
 10
-4.219958564442358
 20
6.661918378099175
 10
-4.2101591121860595
 20
6.654026110028397
 10
-4.200168322752872
 20
6.646366323488623
 10
-4.189990310578205
 20
6.638943132915262
 10
-4.17962919009747
 20
6.631760652743728
 10
-4.169089075746079
 20
6.6248229974094315
 10
-4.158374081959444
 20
6.618134281347784
 10
-4.147488323172975
 20
6.611698618994194
 10
-4.136435913822083
 20
6.605520124784077
 10
-4.125220968342181
 20
6.599602913152842
 10
-4.113847601168678
 20
6.593951098535901
 10
-4.102319926736988
 20
6.588568795368666
 10
-4.090642059482521
 20
6.5834601180865455
 10
-4.078818113840688
 20
6.578629181124953
 10
-4.0668522042469
 20
6.5740800989193
 10
-4.054748445136569
 20
6.569816985904997
 10
-4.042510950945108
 20
6.565843956517457
 10
-4.030143836107925
 20
6.562165125192088
 10
-4.017651215060432
 20
6.558784606364304
 10
-4.005037202238043
 20
6.555706514469517
 10
-3.9923059120761666
 20
6.552934963943135
 10
-3.9794614590102153
 20
6.550474069220572
 10
-3.9665079574755997
 20
6.548327944737238
 10
-3.953449521907732
 20
6.546500704928545
 10
-3.9402902667420223
 20
6.544996464229904
 10
-3.927034306413884
 20
6.543819337076727
 10
-3.9136857553587254
 20
6.542973437904424
 10
-3.900248728011961
 20
6.542462881148407
 10
-3.8867273388089996
 20
6.542291781244088
 10
-3.88301101643056
 20
6.54230485445684
 10
-3.879296718579184
 20
6.5423436242529
 10
-3.8755849518609895
 20
6.54240741586897
 10
-3.8718762228820918
 20
6.542495554541754
 10
-3.868171038248608
 20
6.542607365507955
 10
-3.8644699045666537
 20
6.542742174004278
 10
-3.8607733284423467
 20
6.542899305267426
 10
-3.857081816481802
 20
6.543078084534102
 10
-3.8533958752911364
 20
6.543277837041011
 10
-3.8497160114764664
 20
6.543497888024855
 10
-3.8460427316439088
 20
6.543737562722339
 10
-3.8423765423995793
 20
6.543996186370164
 10
-3.8387179503495945
 20
6.544273084205036
 10
-3.83506746210007
 20
6.544567581463658
 10
-3.8314255842571243
 20
6.544879003382735
 10
-3.8277928234268725
 20
6.545206675198967
 10
-3.824169686215431
 20
6.545549922149061
 10
-3.820556679228916
 20
6.545908069469719
 10
-3.8169543090734446
 20
6.546280442397644
 10
-3.8133630823551323
 20
6.546666366169542
 10
-3.8097835056800964
 20
6.547065166022114
 10
-3.806216085654452
 20
6.547476167192065
 10
-3.802661328884317
 20
6.547898694916098
 10
-3.799119741975807
 20
6.548332074430917
 10
-3.7955918315350394
 20
6.548775630973225
 10
-3.792078104168129
 20
6.549228689779726
 10
-3.7885790664811925
 20
6.549690576087123
 10
-3.785095225080348
 20
6.55016061513212
 10
-3.781627086571709
 20
6.550638132151422
 10
-3.7781751575613947
 20
6.55112245238173
 10
-3.7747399446555194
 20
6.55161290105975
 10
-3.7713219544602015
 20
6.5521088034221835
 10
-3.767921693581556
 20
6.552609484705735
 10
-3.7645396686256993
 20
6.553114270147108
 10
-3.7611763861987484
 20
6.5536224849830065
 10
-3.7578323529068194
 20
6.554133454450134
 10
-3.754508075356029
 20
6.554646503785192
 10
-3.7512040601524927
 20
6.555160958224888
 10
-3.747920813902328
 20
6.555676143005923
 10
-3.7446588432116505
 20
6.556191383365
 10
-3.7414186546865773
 20
6.5567060045388255
 10
-3.7382007549332243
 20
6.5572193317641
 10
-3.735005650557708
 20
6.557730690277527
 10
-3.7318338481661444
 20
6.558239405315813
 10
-3.728685854364651
 20
6.558744802115659
 10
-3.7255621757593436
 20
6.559246205913771
 10
-3.722463318956338
 20
6.55974294194685
 10
-3.719389790561751
 20
6.560234335451601
 10
-3.716342097181699
 20
6.560719711664727
 10
-3.713320745422299
 20
6.561198395822933
 10
-3.7103262418896668
 20
6.56166971316292
 10
-3.7073590931899187
 20
6.562132988921395
 10
-3.704419805929171
 20
6.562587548335057
 10
-3.701508886713541
 20
6.563032716640613
 10
-3.698626842149144
 20
6.563467819074766
 10
-3.6957741788420972
 20
6.56389218087422
 10
-3.692951403398517
 20
6.564305127275678
 10
-3.690159022424519
 20
6.564705983515842
 10
-3.68739754252622
 20
6.565094074831419
 10
-3.6846674703097366
 20
6.565468726459109
 10
-3.6819693123811854
 20
6.565829263635617
 10
-3.6793035753466823
 20
6.566175011597648
 10
-3.6766707658123434
 20
6.566505295581904
 10
-3.674071390384286
 20
6.56681944082509
  0
LWPOLYLINE
  5
30
330
17
100
AcDbEntity
  8
0
100
AcDbPolyline
 90
257
 70
1
 10
4.767850954237218
 20
-4.819607965799672
 10
4.767043670269675
 20
-4.885388079241976
 10
4.764622304644718
 20
-4.951128569203618
 10
4.760588315902458
 20
-5.016789836071644
 10
4.754944133966878
 20
-5.082332327954122
 10
4.7476931586821225
 20
-5.1477165645047345
 10
4.738839757764571
 20
-5.212903160704258
 10
4.728389264171888
 20
-5.277852850584626
 10
4.716347972890645
 20
-5.342526510881279
 10
4.702723137144455
 20
-5.406885184599559
 10
4.6875229640249065
 20
-5.470890104480944
 10
4.67075660954792
 20
-5.534502716354995
 10
4.652434173138491
 20
-5.597684702362946
 10
4.632566691547197
 20
-5.660398004038956
 10
4.6111661322020545
 20
-5.722604845235094
 10
4.588245385999794
 20
-5.78426775487629
 10
4.5638182595408665
 20
-5.8453495895315
 10
4.537899466812862
 20
-5.90581355578752
 10
4.510504620327353
 20
-5.965623232411978
 10
4.481650221715504
 20
-6.024742592292096
 10
4.451353651788103
 20
-6.083136024136104
 10
4.419633160066012
 20
-6.140768353924127
 10
4.386507853787339
 20
-6.197604866095712
 10
4.351997686397953
 20
-6.253611324461183
 10
4.316123445532267
 20
-6.308753992824233
 10
4.278906740491559
 20
-6.362999655303362
 10
4.240369989227321
 20
-6.416315636339865
 10
4.200536404837531
 20
-6.468669820380382
 10
4.159429981583955
 20
-6.520030671222092
 10
4.11707548043889
 20
-6.570367251008958
 10
4.073498414170091
 20
-6.619649238867518
 10
4.028725031972827
 20
-6.667846949171061
 10
3.9827823036583463
 20
-6.7149313494211285
 10
3.935697903408279
 20
-6.7608740777356084
 10
3.887500193104736
 20
-6.8056474599328745
 10
3.8382182052461755
 20
-6.849224526201672
 10
3.78788162545931
 20
-6.891579027346737
 10
3.7365207746175995
 20
-6.932685450600314
 10
3.684166590577084
 20
-6.9725190349901025
 10
3.630850609540581
 20
-7.011055786254341
 10
3.576604947061452
 20
-7.048272491295049
 10
3.5214622786984004
 20
-7.084146732160735
 10
3.4654558203329295
 20
-7.118656899550122
 10
3.408619308161345
 20
-7.151782205828795
 10
3.350986978373323
 20
-7.183502697550885
 10
3.2925935465293152
 20
-7.213799267478286
 10
3.2334741866491954
 20
-7.242653666090136
 10
3.173664510024738
 20
-7.270048512575642
 10
3.113200543768717
 20
-7.295967305303649
 10
3.052118709113509
 20
-7.320394431762575
 10
2.9904557994723127
 20
-7.343315177964836
 10
2.9282489582761744
 20
-7.364715737309979
 10
2.8655356566001635
 20
-7.384583218901273
 10
2.802353670592211
 20
-7.4029056553106996
 10
2.738741058718161
 20
-7.419672009787691
 10
2.674736138836777
 20
-7.434872182907236
 10
2.610377465118497
 20
-7.448497018653425
 10
2.545703804821844
 20
-7.46053830993467
 10
2.4807541149414756
 20
-7.470988803527352
 10
2.4155675187419523
 20
-7.479842204444902
 10
2.3501832821913404
 20
-7.487093179729659
 10
2.2846407903088615
 20
-7.492737361665241
 10
2.2189795234408374
 20
-7.4967713504075
 10
2.1532390334791938
 20
-7.499192716032457
 10
2.0874589200368896
 20
-7.500000000000001
 10
2.0216788065945854
 20
-7.499192716032457
 10
1.955938316632943
 20
-7.4967713504075
 10
1.8902770497649177
 20
-7.492737361665241
 10
1.824734557882439
 20
-7.487093179729659
 10
1.7593503213318271
 20
-7.479842204444902
 10
1.6941637251323034
 20
-7.470988803527352
 10
1.6292140352519353
 20
-7.46053830993467
 10
1.5645403749552822
 20
-7.448497018653425
 10
1.5001817012370025
 20
-7.434872182907236
 10
1.4361767813556179
 20
-7.419672009787691
 10
1.372564169481568
 20
-7.4029056553106996
 10
1.3093821834736157
 20
-7.384583218901273
 10
1.246668881797606
 20
-7.364715737309979
 10
1.1844620406014663
 20
-7.343315177964836
 10
1.1227991309602714
 20
-7.320394431762575
 10
1.0617172963050632
 20
-7.295967305303649
 10
1.0012533300490412
 20
-7.270048512575642
 10
0.9414436534245849
 20
-7.242653666090136
 10
0.8823242935444638
 20
-7.213799267478286
 10
0.8239308617004564
 20
-7.183502697550885
 10
0.7662985319124342
 20
-7.151782205828795
 10
0.7094620197408495
 20
-7.118656899550122
 10
0.6534555613753789
 20
-7.084146732160735
 10
0.5983128930123283
 20
-7.048272491295051
 10
0.5440672305331986
 20
-7.011055786254341
 10
0.49075124949669513
 20
-6.9725190349901025
 10
0.43839706545618
 20
-6.932685450600314
 10
0.3870362146144692
 20
-6.891579027346737
 10
0.33669963482760396
 20
-6.849224526201672
 10
0.28741764696904354
 20
-6.805647459932873
 10
0.23921993666550026
 20
-6.7608740777356084
 10
0.19213553641543304
 20
-6.7149313494211285
 10
0.1461928081009528
 20
-6.667846949171061
 10
0.10141942590368891
 20
-6.619649238867518
 10
0.05784235963488937
 20
-6.570367251008958
 10
0.015487858489824246
 20
-6.520030671222092
 10
-0.025618564763752252
 20
-6.468669820380382
 10
-0.06545214915354128
 20
-6.416315636339867
 10
-0.10398890041777946
 20
-6.362999655303364
 10
-0.14120560545848834
 20
-6.308753992824233
 10
-0.17707984632417315
 20
-6.253611324461183
 10
-0.2115900137135602
 20
-6.197604866095712
 10
-0.24471531999223278
 20
-6.140768353924127
 10
-0.27643581171432374
 20
-6.083136024136106
 10
-0.30673238164172456
 20
-6.024742592292099
 10
-0.33558678025357364
 20
-5.965623232411978
 10
-0.3629816267390825
 20
-5.90581355578752
 10
-0.388900419467087
 20
-5.8453495895315
 10
-0.41332754592601423
 20
-5.78426775487629
 10
-0.4362482921282745
 20
-5.722604845235094
 10
-0.4576488514734174
 20
-5.660398004038956
 10
-0.4775163330647111
 20
-5.597684702362946
 10
-0.4958387694741395
 20
-5.534502716354995
 10
-0.5126051239511283
 20
-5.470890104480944
 10
-0.5278052970706756
 20
-5.406885184599559
 10
-0.5414301328168651
 20
-5.342526510881279
 10
-0.553471424098109
 20
-5.277852850584626
 10
-0.5639219176907919
 20
-5.212903160704258
 10
-0.5727753186083421
 20
-5.1477165645047345
 10
-0.5800262938930986
 20
-5.082332327954122
 10
-0.5856704758286798
 20
-5.016789836071644
 10
-0.589704464570938
 20
-4.951128569203618
 10
-0.5921258301958952
 20
-4.885388079241976
 10
-0.5929331141634393
 20
-4.819607965799672
 10
-0.5921258301958952
 20
-4.753827852357369
 10
-0.589704464570938
 20
-4.688087362395725
 10
-0.5856704758286798
 20
-4.6224260955276995
 10
-0.5800262938930986
 20
-4.556883603645222
 10
-0.5727753186083421
 20
-4.491499367094609
 10
-0.5639219176907919
 20
-4.426312770895086
 10
-0.553471424098109
 20
-4.3613630810147175
 10
-0.5414301328168651
 20
-4.296689420718065
 10
-0.5278052970706756
 20
-4.232330746999785
 10
-0.5126051239511283
 20
-4.1683258271184
 10
-0.4958387694741395
 20
-4.1047132152443515
 10
-0.4775163330647116
 20
-4.041531229236398
 10
-0.4576488514734174
 20
-3.978817927560388
 10
-0.4362482921282745
 20
-3.9166110863642474
 10
-0.4133275459260148
 20
-3.854948176723054
 10
-0.38890041946708753
 20
-3.7938663420678442
 10
-0.3629816267390825
 20
-3.7334023758118233
 10
-0.33558678025357414
 20
-3.673592699187366
 10
-0.3067323816417251
 20
-3.614473339307247
 10
-0.27643581171432374
 20
-3.5560799074632397
 10
-0.2447153199922333
 20
-3.498447577675216
 10
-0.2115900137135602
 20
-3.441611065503632
 10
-0.17707984632417367
 20
-3.385604607138161
 10
-0.1412056054584894
 20
-3.3304619387751107
 10
-0.10398890041777946
 20
-3.276216276295982
 10
-0.06545214915354128
 20
-3.2229002952594783
 10
-0.025618564763752252
 20
-3.1705461112189623
 10
0.015487858489824246
 20
-3.119185260377251
 10
0.05784235963488937
 20
-3.0688486805903863
 10
0.10141942590368787
 20
-3.019566692731826
 10
0.1461928081009528
 20
-2.9713689824282823
 10
0.192135536415432
 20
-2.924284582178215
 10
0.2392199366654992
 20
-2.878341853863735
 10
0.2874176469690425
 20
-2.833568471666471
 10
0.3366996348276029
 20
-2.7899914053976715
 10
0.3870362146144671
 20
-2.7476369042526083
 10
0.4383970654561779
 20
-2.706530480999032
 10
0.4907512494966962
 20
-2.666696896609241
 10
0.5440672305331997
 20
-2.6281601453450025
 10
0.5983128930123273
 20
-2.590943440304295
 10
0.6534555613753789
 20
-2.5550691994386083
 10
0.7094620197408484
 20
-2.520559032049222
 10
0.7662985319124342
 20
-2.4874337257705488
 10
0.8239308617004564
 20
-2.4557132340484586
 10
0.8823242935444628
 20
-2.4254166641210575
 10
0.9414436534245829
 20
-2.396562265509208
 10
1.0012533300490412
 20
-2.3691674190236984
 10
1.061717296305061
 20
-2.343248626295695
 10
1.1227991309602714
 20
-2.3188214998367687
 10
1.1844620406014663
 20
-2.2959007536345073
 10
1.246668881797606
 20
-2.274500194289365
 10
1.3093821834736148
 20
-2.2546327126980708
 10
1.372564169481567
 20
-2.2363102762886435
 10
1.4361767813556179
 20
-2.2195439218116526
 10
1.5001817012370013
 20
-2.204343748692107
 10
1.564540374955281
 20
-2.190718912945918
 10
1.6292140352519344
 20
-2.1786776216646735
 10
1.6941637251323034
 20
-2.1682271280719907
 10
1.759350321331825
 20
-2.159373727154441
 10
1.82473455788244
 20
-2.152122751869684
 10
1.8902770497649177
 20
-2.1464785699341027
 10
1.9559383166329418
 20
-2.1424445811918438
 10
2.0216788065945854
 20
-2.1400232155668863
 10
2.0874589200368896
 20
-2.139215931599343
 10
2.1532390334791938
 20
-2.1400232155668863
 10
2.2189795234408374
 20
-2.1424445811918438
 10
2.2846407903088615
 20
-2.1464785699341027
 10
2.3501832821913404
 20
-2.152122751869684
 10
2.4155675187419523
 20
-2.159373727154441
 10
2.4807541149414756
 20
-2.1682271280719907
 10
2.545703804821844
 20
-2.1786776216646735
 10
2.610377465118497
 20
-2.190718912945918
 10
2.674736138836777
 20
-2.204343748692107
 10
2.738741058718161
 20
-2.2195439218116526
 10
2.802353670592211
 20
-2.2363102762886435
 10
2.8655356566001635
 20
-2.2546327126980708
 10
2.9282489582761744
 20
-2.274500194289365
 10
2.9904557994723127
 20
-2.2959007536345073
 10
3.052118709113509
 20
-2.3188214998367687
 10
3.113200543768717
 20
-2.343248626295695
 10
3.173664510024738
 20
-2.3691674190237006
 10
3.2334741866491954
 20
-2.396562265509208
 10
3.2925935465293152
 20
-2.4254166641210575
 10
3.350986978373323
 20
-2.4557132340484586
 10
3.408619308161345
 20
-2.4874337257705488
 10
3.4654558203329295
 20
-2.520559032049222
 10
3.5214622786984004
 20
-2.5550691994386083
 10
3.576604947061452
 20
-2.590943440304295
 10
3.630850609540581
 20
-2.6281601453450025
 10
3.684166590577084
 20
-2.666696896609241
 10
3.7365207746175995
 20
-2.70653048099903
 10
3.78788162545931
 20
-2.7476369042526065
 10
3.8382182052461755
 20
-2.7899914053976715
 10
3.887500193104736
 20
-2.833568471666469
 10
3.935697903408279
 20
-2.878341853863735
 10
3.9827823036583463
 20
-2.924284582178215
 10
4.028725031972827
 20
-2.9713689824282823
 10
4.073498414170091
 20
-3.019566692731826
 10
4.11707548043889
 20
-3.0688486805903863
 10
4.159429981583955
 20
-3.119185260377251
 10
4.200536404837531
 20
-3.1705461112189623
 10
4.240369989227321
 20
-3.2229002952594783
 10
4.278906740491559
 20
-3.276216276295982
 10
4.316123445532267
 20
-3.3304619387751107
 10
4.351997686397952
 20
-3.385604607138161
 10
4.386507853787339
 20
-3.441611065503632
 10
4.419633160066012
 20
-3.498447577675216
 10
4.451353651788103
 20
-3.5560799074632374
 10
4.481650221715504
 20
-3.614473339307247
 10
4.510504620327353
 20
-3.673592699187366
 10
4.537899466812862
 20
-3.7334023758118233
 10
4.5638182595408665
 20
-3.7938663420678442
 10
4.588245385999793
 20
-3.854948176723054
 10
4.6111661322020545
 20
-3.9166110863642496
 10
4.632566691547197
 20
-3.978817927560388
 10
4.652434173138491
 20
-4.041531229236398
 10
4.67075660954792
 20
-4.104713215244349
 10
4.6875229640249065
 20
-4.1683258271184
 10
4.702723137144455
 20
-4.232330746999785
 10
4.716347972890645
 20
-4.296689420718065
 10
4.728389264171888
 20
-4.3613630810147175
 10
4.738839757764571
 20
-4.426312770895086
 10
4.7476931586821225
 20
-4.491499367094609
 10
4.754944133966878
 20
-4.556883603645222
 10
4.760588315902458
 20
-4.6224260955276995
 10
4.764622304644718
 20
-4.688087362395725
 10
4.767043670269675
 20
-4.753827852357369
 10
4.767850954237218
 20
-4.819607965799672
  0
LWPOLYLINE
  5
31
330
17
100
AcDbEntity
  8
0
100
AcDbPolyline
 90
257
 70
1
 10
4.767850954237218
 20
-4.819607965799672
 10
4.767043670269675
 20
-4.885388079241976
 10
4.764622304644718
 20
-4.951128569203618
 10
4.760588315902458
 20
-5.016789836071644
 10
4.754944133966878
 20
-5.082332327954122
 10
4.7476931586821225
 20
-5.1477165645047345
 10
4.738839757764571
 20
-5.212903160704258
 10
4.728389264171888
 20
-5.277852850584626
 10
4.716347972890645
 20
-5.342526510881279
 10
4.702723137144455
 20
-5.406885184599559
 10
4.6875229640249065
 20
-5.470890104480944
 10
4.67075660954792
 20
-5.534502716354995
 10
4.652434173138491
 20
-5.597684702362946
 10
4.632566691547197
 20
-5.660398004038956
 10
4.6111661322020545
 20
-5.722604845235094
 10
4.588245385999794
 20
-5.78426775487629
 10
4.5638182595408665
 20
-5.8453495895315
 10
4.537899466812862
 20
-5.90581355578752
 10
4.510504620327353
 20
-5.965623232411978
 10
4.481650221715504
 20
-6.024742592292096
 10
4.451353651788103
 20
-6.083136024136104
 10
4.419633160066012
 20
-6.140768353924127
 10
4.386507853787339
 20
-6.197604866095712
 10
4.351997686397953
 20
-6.253611324461183
 10
4.316123445532267
 20
-6.308753992824233
 10
4.278906740491559
 20
-6.362999655303362
 10
4.240369989227321
 20
-6.416315636339865
 10
4.200536404837531
 20
-6.468669820380382
 10
4.159429981583955
 20
-6.520030671222092
 10
4.11707548043889
 20
-6.570367251008958
 10
4.073498414170091
 20
-6.619649238867518
 10
4.028725031972827
 20
-6.667846949171061
 10
3.9827823036583463
 20
-6.7149313494211285
 10
3.935697903408279
 20
-6.7608740777356084
 10
3.887500193104736
 20
-6.8056474599328745
 10
3.8382182052461755
 20
-6.849224526201672
 10
3.78788162545931
 20
-6.891579027346737
 10
3.7365207746175995
 20
-6.932685450600314
 10
3.684166590577084
 20
-6.9725190349901025
 10
3.630850609540581
 20
-7.011055786254341
 10
3.576604947061452
 20
-7.048272491295049
 10
3.5214622786984004
 20
-7.084146732160735
 10
3.4654558203329295
 20
-7.118656899550122
 10
3.408619308161345
 20
-7.151782205828795
 10
3.350986978373323
 20
-7.183502697550885
 10
3.2925935465293152
 20
-7.213799267478286
 10
3.2334741866491954
 20
-7.242653666090136
 10
3.173664510024738
 20
-7.270048512575642
 10
3.113200543768717
 20
-7.295967305303649
 10
3.052118709113509
 20
-7.320394431762575
 10
2.9904557994723127
 20
-7.343315177964836
 10
2.9282489582761744
 20
-7.364715737309979
 10
2.8655356566001635
 20
-7.384583218901273
 10
2.802353670592211
 20
-7.4029056553106996
 10
2.738741058718161
 20
-7.419672009787691
 10
2.674736138836777
 20
-7.434872182907236
 10
2.610377465118497
 20
-7.448497018653425
 10
2.545703804821844
 20
-7.46053830993467
 10
2.4807541149414756
 20
-7.470988803527352
 10
2.4155675187419523
 20
-7.479842204444902
 10
2.3501832821913404
 20
-7.487093179729659
 10
2.2846407903088615
 20
-7.492737361665241
 10
2.2189795234408374
 20
-7.4967713504075
 10
2.1532390334791938
 20
-7.499192716032457
 10
2.0874589200368896
 20
-7.500000000000001
 10
2.0216788065945854
 20
-7.499192716032457
 10
1.955938316632943
 20
-7.4967713504075
 10
1.8902770497649177
 20
-7.492737361665241
 10
1.824734557882439
 20
-7.487093179729659
 10
1.7593503213318271
 20
-7.479842204444902
 10
1.6941637251323034
 20
-7.470988803527352
 10
1.6292140352519353
 20
-7.46053830993467
 10
1.5645403749552822
 20
-7.448497018653425
 10
1.5001817012370025
 20
-7.434872182907236
 10
1.4361767813556179
 20
-7.419672009787691
 10
1.372564169481568
 20
-7.4029056553106996
 10
1.3093821834736157
 20
-7.384583218901273
 10
1.246668881797606
 20
-7.364715737309979
 10
1.1844620406014663
 20
-7.343315177964836
 10
1.1227991309602714
 20
-7.320394431762575
 10
1.0617172963050632
 20
-7.295967305303649
 10
1.0012533300490412
 20
-7.270048512575642
 10
0.9414436534245849
 20
-7.242653666090136
 10
0.8823242935444638
 20
-7.213799267478286
 10
0.8239308617004564
 20
-7.183502697550885
 10
0.7662985319124342
 20
-7.151782205828795
 10
0.7094620197408495
 20
-7.118656899550122
 10
0.6534555613753789
 20
-7.084146732160735
 10
0.5983128930123283
 20
-7.048272491295051
 10
0.5440672305331986
 20
-7.011055786254341
 10
0.49075124949669513
 20
-6.9725190349901025
 10
0.43839706545618
 20
-6.932685450600314
 10
0.3870362146144692
 20
-6.891579027346737
 10
0.33669963482760396
 20
-6.849224526201672
 10
0.28741764696904354
 20
-6.805647459932873
 10
0.23921993666550026
 20
-6.7608740777356084
 10
0.19213553641543304
 20
-6.7149313494211285
 10
0.1461928081009528
 20
-6.667846949171061
 10
0.10141942590368891
 20
-6.619649238867518
 10
0.05784235963488937
 20
-6.570367251008958
 10
0.015487858489824246
 20
-6.520030671222092
 10
-0.025618564763752252
 20
-6.468669820380382
 10
-0.06545214915354128
 20
-6.416315636339867
 10
-0.10398890041777946
 20
-6.362999655303364
 10
-0.14120560545848834
 20
-6.308753992824233
 10
-0.17707984632417315
 20
-6.253611324461183
 10
-0.2115900137135602
 20
-6.197604866095712
 10
-0.24471531999223278
 20
-6.140768353924127
 10
-0.27643581171432374
 20
-6.083136024136106
 10
-0.30673238164172456
 20
-6.024742592292099
 10
-0.33558678025357364
 20
-5.965623232411978
 10
-0.3629816267390825
 20
-5.90581355578752
 10
-0.388900419467087
 20
-5.8453495895315
 10
-0.41332754592601423
 20
-5.78426775487629
 10
-0.4362482921282745
 20
-5.722604845235094
 10
-0.4576488514734174
 20
-5.660398004038956
 10
-0.4775163330647111
 20
-5.597684702362946
 10
-0.4958387694741395
 20
-5.534502716354995
 10
-0.5126051239511283
 20
-5.470890104480944
 10
-0.5278052970706756
 20
-5.406885184599559
 10
-0.5414301328168651
 20
-5.342526510881279
 10
-0.553471424098109
 20
-5.277852850584626
 10
-0.5639219176907919
 20
-5.212903160704258
 10
-0.5727753186083421
 20
-5.1477165645047345
 10
-0.5800262938930986
 20
-5.082332327954122
 10
-0.5856704758286798
 20
-5.016789836071644
 10
-0.589704464570938
 20
-4.951128569203618
 10
-0.5921258301958952
 20
-4.885388079241976
 10
-0.5929331141634393
 20
-4.819607965799672
 10
-0.5921258301958952
 20
-4.753827852357369
 10
-0.589704464570938
 20
-4.688087362395725
 10
-0.5856704758286798
 20
-4.6224260955276995
 10
-0.5800262938930986
 20
-4.556883603645222
 10
-0.5727753186083421
 20
-4.491499367094609
 10
-0.5639219176907919
 20
-4.426312770895086
 10
-0.553471424098109
 20
-4.3613630810147175
 10
-0.5414301328168651
 20
-4.296689420718065
 10
-0.5278052970706756
 20
-4.232330746999785
 10
-0.5126051239511283
 20
-4.1683258271184
 10
-0.4958387694741395
 20
-4.1047132152443515
 10
-0.4775163330647116
 20
-4.041531229236398
 10
-0.4576488514734174
 20
-3.978817927560388
 10
-0.4362482921282745
 20
-3.9166110863642474
 10
-0.4133275459260148
 20
-3.854948176723054
 10
-0.38890041946708753
 20
-3.7938663420678442
 10
-0.3629816267390825
 20
-3.7334023758118233
 10
-0.33558678025357414
 20
-3.673592699187366
 10
-0.3067323816417251
 20
-3.614473339307247
 10
-0.27643581171432374
 20
-3.5560799074632397
 10
-0.2447153199922333
 20
-3.498447577675216
 10
-0.2115900137135602
 20
-3.441611065503632
 10
-0.17707984632417367
 20
-3.385604607138161
 10
-0.1412056054584894
 20
-3.3304619387751107
 10
-0.10398890041777946
 20
-3.276216276295982
 10
-0.06545214915354128
 20
-3.2229002952594783
 10
-0.025618564763752252
 20
-3.1705461112189623
 10
0.015487858489824246
 20
-3.119185260377251
 10
0.05784235963488937
 20
-3.0688486805903863
 10
0.10141942590368787
 20
-3.019566692731826
 10
0.1461928081009528
 20
-2.9713689824282823
 10
0.192135536415432
 20
-2.924284582178215
 10
0.2392199366654992
 20
-2.878341853863735
 10
0.2874176469690425
 20
-2.833568471666471
 10
0.3366996348276029
 20
-2.7899914053976715
 10
0.3870362146144671
 20
-2.7476369042526083
 10
0.4383970654561779
 20
-2.706530480999032
 10
0.4907512494966962
 20
-2.666696896609241
 10
0.5440672305331997
 20
-2.6281601453450025
 10
0.5983128930123273
 20
-2.590943440304295
 10
0.6534555613753789
 20
-2.5550691994386083
 10
0.7094620197408484
 20
-2.520559032049222
 10
0.7662985319124342
 20
-2.4874337257705488
 10
0.8239308617004564
 20
-2.4557132340484586
 10
0.8823242935444628
 20
-2.4254166641210575
 10
0.9414436534245829
 20
-2.396562265509208
 10
1.0012533300490412
 20
-2.3691674190236984
 10
1.061717296305061
 20
-2.343248626295695
 10
1.1227991309602714
 20
-2.3188214998367687
 10
1.1844620406014663
 20
-2.2959007536345073
 10
1.246668881797606
 20
-2.274500194289365
 10
1.3093821834736148
 20
-2.2546327126980708
 10
1.372564169481567
 20
-2.2363102762886435
 10
1.4361767813556179
 20
-2.2195439218116526
 10
1.5001817012370013
 20
-2.204343748692107
 10
1.564540374955281
 20
-2.190718912945918
 10
1.6292140352519344
 20
-2.1786776216646735
 10
1.6941637251323034
 20
-2.1682271280719907
 10
1.759350321331825
 20
-2.159373727154441
 10
1.82473455788244
 20
-2.152122751869684
 10
1.8902770497649177
 20
-2.1464785699341027
 10
1.9559383166329418
 20
-2.1424445811918438
 10
2.0216788065945854
 20
-2.1400232155668863
 10
2.0874589200368896
 20
-2.139215931599343
 10
2.1532390334791938
 20
-2.1400232155668863
 10
2.2189795234408374
 20
-2.1424445811918438
 10
2.2846407903088615
 20
-2.1464785699341027
 10
2.3501832821913404
 20
-2.152122751869684
 10
2.4155675187419523
 20
-2.159373727154441
 10
2.4807541149414756
 20
-2.1682271280719907
 10
2.545703804821844
 20
-2.1786776216646735
 10
2.610377465118497
 20
-2.190718912945918
 10
2.674736138836777
 20
-2.204343748692107
 10
2.738741058718161
 20
-2.2195439218116526
 10
2.802353670592211
 20
-2.2363102762886435
 10
2.8655356566001635
 20
-2.2546327126980708
 10
2.9282489582761744
 20
-2.274500194289365
 10
2.9904557994723127
 20
-2.2959007536345073
 10
3.052118709113509
 20
-2.3188214998367687
 10
3.113200543768717
 20
-2.343248626295695
 10
3.173664510024738
 20
-2.3691674190237006
 10
3.2334741866491954
 20
-2.396562265509208
 10
3.2925935465293152
 20
-2.4254166641210575
 10
3.350986978373323
 20
-2.4557132340484586
 10
3.408619308161345
 20
-2.4874337257705488
 10
3.4654558203329295
 20
-2.520559032049222
 10
3.5214622786984004
 20
-2.5550691994386083
 10
3.576604947061452
 20
-2.590943440304295
 10
3.630850609540581
 20
-2.6281601453450025
 10
3.684166590577084
 20
-2.666696896609241
 10
3.7365207746175995
 20
-2.70653048099903
 10
3.78788162545931
 20
-2.7476369042526065
 10
3.8382182052461755
 20
-2.7899914053976715
 10
3.887500193104736
 20
-2.833568471666469
 10
3.935697903408279
 20
-2.878341853863735
 10
3.9827823036583463
 20
-2.924284582178215
 10
4.028725031972827
 20
-2.9713689824282823
 10
4.073498414170091
 20
-3.019566692731826
 10
4.11707548043889
 20
-3.0688486805903863
 10
4.159429981583955
 20
-3.119185260377251
 10
4.200536404837531
 20
-3.1705461112189623
 10
4.240369989227321
 20
-3.2229002952594783
 10
4.278906740491559
 20
-3.276216276295982
 10
4.316123445532267
 20
-3.3304619387751107
 10
4.351997686397952
 20
-3.385604607138161
 10
4.386507853787339
 20
-3.441611065503632
 10
4.419633160066012
 20
-3.498447577675216
 10
4.451353651788103
 20
-3.5560799074632374
 10
4.481650221715504
 20
-3.614473339307247
 10
4.510504620327353
 20
-3.673592699187366
 10
4.537899466812862
 20
-3.7334023758118233
 10
4.5638182595408665
 20
-3.7938663420678442
 10
4.588245385999793
 20
-3.854948176723054
 10
4.6111661322020545
 20
-3.9166110863642496
 10
4.632566691547197
 20
-3.978817927560388
 10
4.652434173138491
 20
-4.041531229236398
 10
4.67075660954792
 20
-4.104713215244349
 10
4.6875229640249065
 20
-4.1683258271184
 10
4.702723137144455
 20
-4.232330746999785
 10
4.716347972890645
 20
-4.296689420718065
 10
4.728389264171888
 20
-4.3613630810147175
 10
4.738839757764571
 20
-4.426312770895086
 10
4.7476931586821225
 20
-4.491499367094609
 10
4.754944133966878
 20
-4.556883603645222
 10
4.760588315902458
 20
-4.6224260955276995
 10
4.764622304644718
 20
-4.688087362395725
 10
4.767043670269675
 20
-4.753827852357369
 10
4.767850954237218
 20
-4.819607965799672
  0
LWPOLYLINE
  5
32
330
17
100
AcDbEntity
  8
0
100
AcDbPolyline
 90
129
 70
0
 10
-3.690309177694564
 20
6.538696049146663
 10
-3.6913805973072726
 20
6.5514995501416635
 10
-3.692753719915366
 20
6.564209150807537
 10
-3.6944248428194904
 20
6.576821403724446
 10
-3.6963902633202914
 20
6.5893328614725535
 10
-3.698646278718415
 20
6.601740076632023
 10
-3.701189186314507
 20
6.61403960178302
 10
-3.704015283409214
 20
6.626227989505706
 10
-3.70712086730318
 20
6.638301792380246
 10
-3.7105022352970534
 20
6.650257562986803
 10
-3.7141556846914776
 20
6.66209185390554
 10
-3.7180775127870995
 20
6.673801217716622
 10
-3.7222640168845644
 20
6.685382207000211
 10
-3.7267114942845194
 20
6.696831374336471
 10
-3.731416242287609
 20
6.708145272305567
 10
-3.7363745581944805
 20
6.7193204534876605
 10
-3.7415827393057772
 20
6.7303534704629175
 10
-3.7470370829221475
 20
6.7412408758115
 10
-3.7527338863442363
 20
6.7519792221135715
 10
-3.7586694468726893
 20
6.762565061949297
 10
-3.7648400618081523
 20
6.772994947898837
 10
-3.7712420284512715
 20
6.783265432542359
 10
-3.7778716441026923
 20
6.793373068460024
 10
-3.784725206063061
 20
6.803314408231997
 10
-3.7917990116330227
 20
6.813086004438441
 10
-3.7990893581132243
 20
6.822684409659519
 10
-3.8065925428043106
 20
6.832106176475396
 10
-3.814304863006928
 20
6.841347857466235
 10
-3.822222616021722
 20
6.850406005212199
 10
-3.830342099149339
 20
6.859277172293451
 10
-3.838659609690424
 20
6.867957911290157
 10
-3.8471714449456242
 20
6.876444774782478
 10
-3.8558739022155843
 20
6.88473431535058
 10
-3.86476327880095
 20
6.8928230855746255
 10
-3.873835872002368
 20
6.900707638034778
 10
-3.883087979120483
 20
6.908384525311201
 10
-3.892515897455942
 20
6.915850299984057
 10
-3.90211592430939
 20
6.923101514633512
 10
-3.9118843569814734
 20
6.930134721839728
 10
-3.9218174927728375
 20
6.936946474182869
 10
-3.9319116289841287
 20
6.9435333242431
 10
-3.9421630629159927
 20
6.949891824600582
 10
-3.952568091869075
 20
6.9560185278354805
 10
-3.9631230131440214
 20
6.9619099865279575
 10
-3.973824124041478
 20
6.9675627532581785
 10
-3.9846677218620914
 20
6.972973380606305
 10
-3.995650103906506
 20
6.978138421152502
 10
-4.006767567475368
 20
6.983054427476934
 10
-4.018016409869324
 20
6.9877179521597625
 10
-4.0293929283890195
 20
6.992125547781152
 10
-4.0408934203351
 20
6.9962737669212665
 10
-4.052514183008211
 20
7.00015916216027
 10
-4.064251513708999
 20
7.003778286078324
 10
-4.0761017097381105
 20
7.007127691255595
 10
-4.08806106839619
 20
7.010203930272243
 10
-4.100125886983884
 20
7.013003555708436
 10
-4.112292462801838
 20
7.0155231201443335
 10
-4.124557093150697
 20
7.0177591761601015
 10
-4.13691607533111
 20
7.019708276335902
 10
-4.149365706643719
 20
7.021366973251902
 10
-4.161902284389172
 20
7.022731819488261
 10
-4.174522105868115
 20
7.023799367625145
 10
-4.187221468381193
 20
7.024566170242715
 10
-4.199996669229051
 20
7.025028779921138
 10
-4.212844005712337
 20
7.0251837492405755
 10
-4.225691342195622
 20
7.025028782424654
 10
-4.238466543043481
 20
7.024566180151366
 10
-4.251165905556559
 20
7.0237993896824324
 10
-4.2637857270355015
 20
7.022731858279574
 10
-4.276322304780955
 20
7.021367033204508
 10
-4.288771936093564
 20
7.019708361718956
 10
-4.3011309182739765
 20
7.017759291084637
 10
-4.313395548622837
 20
7.01552326856327
 10
-4.32556212444079
 20
7.013003741416576
 10
-4.337626943028484
 20
7.0102041569062745
 10
-4.349586301686564
 20
7.007127962294083
 10
-4.361436497715674
 20
7.003778604841723
 10
-4.373173828416463
 20
7.000159531810914
 10
-4.384794591089574
 20
6.996274190463375
 10
-4.396295083035655
 20
6.992126028060827
 10
-4.40767160155535
 20
6.987718491864988
 10
-4.418920443949306
 20
6.98305502913758
 10
-4.430037907518169
 20
6.978139087140318
 10
-4.441020289562583
 20
6.972974113134927
 10
-4.451863887383196
 20
6.967563554383123
 10
-4.462564998280652
 20
6.961910858146626
 10
-4.473119919555599
 20
6.956019471687158
 10
-4.483524948508681
 20
6.949892842266436
 10
-4.493776382440545
 20
6.943534417146183
 10
-4.503870518651836
 20
6.936947643588113
 10
-4.5138036544432
 20
6.930135968853951
 10
-4.523572087115284
 20
6.923102840205415
 10
-4.533172113968732
 20
6.915851704904223
 10
-4.542600032304191
 20
6.908386010212097
 10
-4.551852139422306
 20
6.900709203390755
 10
-4.560924732623723
 20
6.892824731701917
 10
-4.56981410920909
 20
6.884736042407304
 10
-4.578516566479049
 20
6.876446582768633
 10
-4.5870284017342495
 20
6.867959800047625
 10
-4.595345912275334
 20
6.8592791415060015
 10
-4.603465395402951
 20
6.850408054405478
 10
-4.611383148417746
 20
6.841349986007778
 10
-4.619095468620363
 20
6.832108383574619
 10
-4.62659865331145
 20
6.822686694367722
 10
-4.633888999791651
 20
6.813088365648805
 10
-4.640962805361613
 20
6.803316844679588
 10
-4.6478163673219814
 20
6.793375578721792
 10
-4.654445982973402
 20
6.7832680150371365
 10
-4.660847949616521
 20
6.772997600887339
 10
-4.667018564551984
 20
6.762567783534121
 10
-4.672954125080437
 20
6.751982010239201
 10
-4.678650928502526
 20
6.741243728264301
 10
-4.684105272118896
 20
6.730356384871138
 10
-4.689313453230194
 20
6.719323427321433
 10
-4.694271769137065
 20
6.708148302876904
 10
-4.698976517140155
 20
6.696834458799273
 10
-4.703423994540109
 20
6.685385342350258
 10
-4.707610498637575
 20
6.673804400791578
 10
-4.711532326733197
 20
6.662095081384956
 10
-4.715185776127621
 20
6.650260831392107
 10
-4.718567144121493
 20
6.638305098074754
 10
-4.72167272801546
 20
6.626231328694617
 10
-4.7244988251101665
 20
6.614042970513413
 10
-4.727041732706259
 20
6.601743470792862
 10
-4.729297748104383
 20
6.589336276794687
 10
-4.731263168605183
 20
6.576824835780603
 10
-4.732934291509308
 20
6.564212595012332
 10
-4.734307414117402
 20
6.551503001751595
 10
-4.735378833730109
 20
6.5386995032601085
  0
LWPOLYLINE
  5
33
330
17
100
AcDbEntity
  8
0
100
AcDbPolyline
 90
193
 70
0
 10
-4.767850954237219
 20
6.5949428325035155
 10
-4.764502422892253
 20
6.593330894180443
 10
-4.761143866628126
 20
6.591743369797477
 10
-4.757775420476556
 20
6.590180290424562
 10
-4.7543972194692605
 20
6.5886416871316404
 10
-4.751009398637956
 20
6.587127590988659
 10
-4.747612093014362
 20
6.5856380330655595
 10
-4.744205437630194
 20
6.58417304443229
 10
-4.740789567517173
 20
6.582732656158791
 10
-4.737364617707013
 20
6.581316899315009
 10
-4.733930723231435
 20
6.579925804970889
 10
-4.730488019122153
 20
6.578559404196374
 10
-4.727036640410888
 20
6.5772177280614095
 10
-4.723576722129356
 20
6.575900807635938
 10
-4.720108399309275
 20
6.574608673989907
 10
-4.716631806982362
 20
6.573341358193258
 10
-4.713147080180336
 20
6.572098891315938
 10
-4.709654353934914
 20
6.570881304427889
 10
-4.706153763277814
 20
6.569688628599056
 10
-4.702645443240753
 20
6.568520894899384
 10
-4.699129528855448
 20
6.567378134398818
 10
-4.6956061551536195
 20
6.566260378167301
 10
-4.6920754571669825
 20
6.5651676572747775
 10
-4.688537569927256
 20
6.564100002791193
 10
-4.684992628466156
 20
6.563057445786491
 10
-4.681440767815402
 20
6.5620400173306175
 10
-4.677882123006711
 20
6.561047748493514
 10
-4.674316829071801
 20
6.560080670345126
 10
-4.670745021042388
 20
6.5591388139554
 10
-4.667166833950192
 20
6.558222210394279
 10
-4.663582402826929
 20
6.557330890731706
 10
-4.659991862704318
 20
6.556464886037627
 10
-4.656395348614076
 20
6.555624227381987
 10
-4.652792995587921
 20
6.554808945834728
 10
-4.649184938657569
 20
6.554019072465796
 10
-4.645571312854741
 20
6.553254638345137
 10
-4.6419522532111515
 20
6.5525156745426925
 10
-4.638327894758519
 20
6.551802212128408
 10
-4.634698372528562
 20
6.551114282172228
 10
-4.631063821552997
 20
6.550451915744096
 10
-4.627424376863543
 20
6.549815143913959
 10
-4.623780173491917
 20
6.549203997751759
 10
-4.620131346469837
 20
6.548618508327441
 10
-4.616478030829019
 20
6.5480587067109495
 10
-4.612820361601183
 20
6.547524623972228
 10
-4.609158473818045
 20
6.547016291181223
 10
-4.605492502511324
 20
6.546533739407878
 10
-4.601822582712737
 20
6.5460769997221355
 10
-4.5981488494540015
 20
6.545646103193944
 10
-4.594471437766836
 20
6.545241080893243
 10
-4.590790482682956
 20
6.54486196388998
 10
-4.587106119234082
 20
6.5445087832540985
 10
-4.583418482451929
 20
6.544181570055544
 10
-4.579727707368217
 20
6.54388035536426
 10
-4.576033929014662
 20
6.54360517025019
 10
-4.572337282422983
 20
6.543356045783281
 10
-4.568637902624896
 20
6.543133013033474
 10
-4.564935924652121
 20
6.5429361030707165
 10
-4.561231483536374
 20
6.542765346964951
 10
-4.5575247143093724
 20
6.542620775786122
 10
-4.553815752002834
 20
6.542502420604176
 10
-4.550104731648479
 20
6.542410312489054
 10
-4.546391788278021
 20
6.542344482510702
 10
-4.54267705692318
 20
6.542304961739066
 10
-4.538960672615675
 20
6.542291781244088
 10
-4.525439440304074
 20
6.542462881148407
 10
-4.512002559966371
 20
6.542973437904424
 10
-4.498654146275154
 20
6.543819337076727
 10
-4.485398313903007
 20
6.544996464229904
 10
-4.472239177522518
 20
6.546500704928545
 10
-4.4591808518062725
 20
6.548327944737237
 10
-4.446227451426858
 20
6.550474069220572
 10
-4.43338309105686
 20
6.552934963943135
 10
-4.420651885368866
 20
6.555706514469517
 10
-4.408037949035461
 20
6.558784606364304
 10
-4.395545396729233
 20
6.562165125192088
 10
-4.3831783431227676
 20
6.565843956517456
 10
-4.370940902888651
 20
6.569816985904997
 10
-4.358837190699471
 20
6.5740800989193
 10
-4.3468713212278125
 20
6.578629181124953
 10
-4.335047409146263
 20
6.5834601180865455
 10
-4.323369569127409
 20
6.588568795368666
 10
-4.311841915843836
 20
6.593951098535901
 10
-4.30046856396813
 20
6.599602913152842
 10
-4.28925362817288
 20
6.605520124784077
 10
-4.2782012231306705
 20
6.611698618994194
 10
-4.2673154635140875
 20
6.618134281347784
 10
-4.25660046399572
 20
6.6248229974094315
 10
-4.246060339248152
 20
6.631760652743727
 10
-4.2356992039439705
 20
6.638943132915262
 10
-4.225521172755762
 20
6.646366323488623
 10
-4.215530360356114
 20
6.654026110028397
 10
-4.205730881417612
 20
6.661918378099175
 10
-4.196126850612842
 20
6.670039013265544
 10
-4.186722382614392
 20
6.6783839010920945
 10
-4.1775215920948465
 20
6.686948927143415
 10
-4.168528593726793
 20
6.695729976984092
 10
-4.159747502182819
 20
6.704722936178716
 10
-4.151182432135509
 20
6.713923690291876
 10
-4.142837498257451
 20
6.723328124888161
 10
-4.134716815221231
 20
6.732932125532157
 10
-4.126824497699435
 20
6.7427315777884544
 10
-4.11916466036465
 20
6.752722367221643
 10
-4.11174141788946
 20
6.76290037939631
 10
-4.1045588849464565
 20
6.773261499877045
 10
-4.097621176208222
 20
6.783801614228436
 10
-4.090932406347344
 20
6.794516608015071
 10
-4.08449669003641
 20
6.80540236680154
 10
-4.078318141948004
 20
6.8164547761524314
 10
-4.072400876754715
 20
6.827669721632334
 10
-4.066749009129128
 20
6.839043088805837
 10
-4.06136665374383
 20
6.850570763237526
 10
-4.0562579252714075
 20
6.862248630491994
 10
-4.051426938384448
 20
6.874072576133827
 10
-4.046877807755535
 20
6.886038485727614
 10
-4.042614648057257
 20
6.898142244837945
 10
-4.038641573962201
 20
6.910379739029407
 10
-4.034962700142952
 20
6.92274685386659
 10
-4.031582141272097
 20
6.9352394749140815
 10
-4.028504012022223
 20
6.947853487736471
 10
-4.025732427065916
 20
6.960584777898347
 10
-4.0232715010757625
 20
6.9734292309643
 10
-4.021125348724349
 20
6.986382732498915
 10
-4.019298084684261
 20
6.999441168066783
 10
-4.017793823628087
 20
7.0126004232324926
 10
-4.016616680228412
 20
7.025856383560631
 10
-4.015770769157823
 20
7.039204934615788
 10
-4.0152602050889055
 20
7.052641961962554
 10
-4.0150891026942475
 20
7.066163351165515
 10
-4.015152167197195
 20
7.074304345617893
 10
-4.015340925357878
 20
7.082427518887758
 10
-4.015654724154054
 20
7.090531640668557
 10
-4.016092910563481
 20
7.09861548065374
 10
-4.01665483156392
 20
7.106677808536754
 10
-4.017339834133129
 20
7.114717394011047
 10
-4.0181472652488655
 20
7.122733006770069
 10
-4.019076471888891
 20
7.1307234165072675
 10
-4.020126801030962
 20
7.13868739291609
 10
-4.021297599652838
 20
7.1466237056899855
 10
-4.022588214732278
 20
7.154531124522402
 10
-4.0239979932470415
 20
7.162408419106788
 10
-4.025526282174886
 20
7.1702543591365915
 10
-4.0271724284935715
 20
7.17806771430526
 10
-4.0289357791808555
 20
7.185847254306244
 10
-4.030815681214498
 20
7.193591748832991
 10
-4.032811481572257
 20
7.201299967578948
 10
-4.034922527231892
 20
7.208970680237564
 10
-4.037148165171162
 20
7.216602656502288
 10
-4.039487742367825
 20
7.224194666066567
 10
-4.041940605799641
 20
7.231745478623851
 10
-4.044506102444368
 20
7.239253863867587
 10
-4.047183579279763
 20
7.2467185914912235
 10
-4.049972383283588
 20
7.254138431188209
 10
-4.052871861433601
 20
7.261512152651991
 10
-4.05588136070756
 20
7.268838525576019
 10
-4.0590002280832245
 20
7.276116319653741
 10
-4.062227810538352
 20
7.283344304578604
 10
-4.065563455050703
 20
7.2905212500440575
 10
-4.069006508598036
 20
7.29764592574355
 10
-4.072556318158109
 20
7.304717101370529
 10
-4.076212230708681
 20
7.311733546618443
 10
-4.079973593227512
 20
7.318694031180741
 10
-4.083839752692359
 20
7.325597324750871
 10
-4.087810056080983
 20
7.332442197022281
 10
-4.091883850371141
 20
7.339227417688417
 10
-4.096060482540592
 20
7.345951756442732
 10
-4.1003392995670955
 20
7.352613982978671
 10
-4.104719648428411
 20
7.359212866989683
 10
-4.109200876102295
 20
7.365747178169217
 10
-4.113782329566509
 20
7.372215686210721
 10
-4.118463355798809
 20
7.378617160807643
 10
-4.123243301776957
 20
7.384950371653431
 10
-4.128121514478709
 20
7.391214088441532
 10
-4.133097340881826
 20
7.397407080865398
 10
-4.138170127964065
 20
7.403528118618475
 10
-4.143339222703186
 20
7.409575971394211
 10
-4.148603972076948
 20
7.415549408886053
 10
-4.153963723063109
 20
7.421447200787453
 10
-4.159417822639428
 20
7.427268116791857
 10
-4.164965617783664
 20
7.433010926592713
 10
-4.1706064554735764
 20
7.43867439988347
 10
-4.176339682686923
 20
7.444257306357578
 10
-4.182164646401463
 20
7.449758415708481
 10
-4.188080693594956
 20
7.455176497629631
 10
-4.194087171245159
 20
7.460510321814475
 10
-4.200183426329832
 20
7.465758657956459
 10
-4.206368805826735
 20
7.4709202757490365
 10
-4.212642656713625
 20
7.475993944885651
 10
-4.219004325968261
 20
7.480978435059754
 10
-4.225453160568402
 20
7.485872515964792
 10
-4.231988507491808
 20
7.490674957294214
 10
-4.238609713716237
 20
7.495384528741467
 10
-4.245316126219447
 20
7.500000000000001
  0
LWPOLYLINE
  5
34
330
17
100
AcDbEntity
  8
0
100
AcDbPolyline
 90
193
 70
0
 10
-4.1803718852052265
 20
7.500000000000001
 10
-4.187078297708437
 20
7.495384528741467
 10
-4.193699503932866
 20
7.490674957294214
 10
-4.200234850856271
 20
7.485872515964792
 10
-4.2066836854564125
 20
7.480978435059754
 10
-4.213045354711049
 20
7.475993944885651
 10
-4.219319205597939
 20
7.4709202757490365
 10
-4.225504585094841
 20
7.465758657956459
 10
-4.231600840179515
 20
7.460510321814475
 10
-4.237607317829719
 20
7.455176497629631
 10
-4.243523365023211
 20
7.449758415708481
 10
-4.249348328737751
 20
7.444257306357578
 10
-4.255081555951098
 20
7.43867439988347
 10
-4.26072239364101
 20
7.433010926592713
 10
-4.266270188785246
 20
7.427268116791857
 10
-4.271724288361566
 20
7.421447200787453
 10
-4.277084039347726
 20
7.415549408886053
 10
-4.282348788721488
 20
7.409575971394211
 10
-4.287517883460609
 20
7.403528118618475
 10
-4.2925906705428485
 20
7.397407080865398
 10
-4.297566496945965
 20
7.391214088441533
 10
-4.302444709647718
 20
7.384950371653431
 10
-4.307224655625865
 20
7.378617160807643
 10
-4.311905681858166
 20
7.372215686210721
 10
-4.316487135322379
 20
7.365747178169217
 10
-4.320968362996264
 20
7.359212866989683
 10
-4.325348711857578
 20
7.352613982978671
 10
-4.329627528884083
 20
7.345951756442732
 10
-4.333804161053533
 20
7.339227417688417
 10
-4.337877955343691
 20
7.332442197022281
 10
-4.341848258732314
 20
7.325597324750871
 10
-4.345714418197162
 20
7.318694031180741
 10
-4.349475780715992
 20
7.311733546618443
 10
-4.353131693266565
 20
7.304717101370529
 10
-4.356681502826638
 20
7.29764592574355
 10
-4.360124556373971
 20
7.2905212500440575
 10
-4.363460200886322
 20
7.283344304578604
 10
-4.366687783341449
 20
7.276116319653741
 10
-4.369806650717114
 20
7.268838525576019
 10
-4.372816149991073
 20
7.261512152651991
 10
-4.375715628141085
 20
7.254138431188209
 10
-4.3785044321449105
 20
7.2467185914912235
 10
-4.381181908980307
 20
7.239253863867587
 10
-4.383747405625034
 20
7.231745478623851
 10
-4.3862002690568485
 20
7.224194666066567
 10
-4.3885398462535115
 20
7.216602656502288
 10
-4.390765484192781
 20
7.208970680237564
 10
-4.392876529852416
 20
7.201299967578948
 10
-4.394872330210176
 20
7.193591748832991
 10
-4.396752232243818
 20
7.185847254306244
 10
-4.398515582931103
 20
7.17806771430526
 10
-4.400161729249788
 20
7.1702543591365915
 10
-4.401690018177632
 20
7.162408419106788
 10
-4.403099796692396
 20
7.154531124522402
 10
-4.4043904117718355
 20
7.1466237056899855
 10
-4.405561210393712
 20
7.13868739291609
 10
-4.406611539535783
 20
7.1307234165072675
 10
-4.407540746175808
 20
7.122733006770069
 10
-4.408348177291545
 20
7.114717394011047
 10
-4.409033179860754
 20
7.106677808536754
 10
-4.409595100861193
 20
7.09861548065374
 10
-4.410033287270621
 20
7.090531640668557
 10
-4.410347086066796
 20
7.082427518887758
 10
-4.4105358442274785
 20
7.074304345617893
 10
-4.410598908730426
 20
7.066163351165515
 10
-4.410427808826107
 20
7.052641961962554
 10
-4.40991725207009
 20
7.039204934615788
 10
-4.409071352897787
 20
7.025856383560631
 10
-4.407894225744611
 20
7.0126004232324926
 10
-4.40638998504597
 20
6.999441168066783
 10
-4.4045627452372775
 20
6.986382732498915
 10
-4.402416620753943
 20
6.9734292309643
 10
-4.399955726031379
 20
6.960584777898347
 10
-4.397184175504998
 20
6.947853487736471
 10
-4.39410608361021
 20
6.9352394749140815
 10
-4.390725564782426
 20
6.92274685386659
 10
-4.387046733457058
 20
6.910379739029407
 10
-4.383073704069517
 20
6.898142244837945
 10
-4.378810591055214
 20
6.886038485727614
 10
-4.374261508849561
 20
6.874072576133827
 10
-4.369430571887969
 20
6.862248630491994
 10
-4.364321894605849
 20
6.850570763237526
 10
-4.358939591438614
 20
6.839043088805837
 10
-4.353287776821673
 20
6.827669721632334
 10
-4.347370565190437
 20
6.8164547761524314
 10
-4.341192070980321
 20
6.80540236680154
 10
-4.334756408626731
 20
6.794516608015071
 10
-4.328067692565083
 20
6.783801614228436
 10
-4.321130037230786
 20
6.773261499877045
 10
-4.313947557059253
 20
6.76290037939631
 10
-4.306524366485893
 20
6.752722367221643
 10
-4.298864579946118
 20
6.7427315777884544
 10
-4.29097231187534
 20
6.732932125532157
 10
-4.282851676708971
 20
6.723328124888161
 10
-4.27450678888242
 20
6.713923690291876
 10
-4.2659417628311
 20
6.704722936178716
 10
-4.257160712990423
 20
6.695729976984092
 10
-4.248167753795798
 20
6.686948927143415
 10
-4.2389669996826385
 20
6.6783839010920945
 10
-4.229562565086354
 20
6.670039013265544
 10
-4.219958564442358
 20
6.661918378099175
 10
-4.2101591121860595
 20
6.654026110028397
 10
-4.200168322752872
 20
6.646366323488623
 10
-4.189990310578205
 20
6.638943132915262
 10
-4.17962919009747
 20
6.631760652743728
 10
-4.169089075746079
 20
6.6248229974094315
 10
-4.158374081959444
 20
6.618134281347784
 10
-4.147488323172975
 20
6.611698618994194
 10
-4.136435913822083
 20
6.605520124784077
 10
-4.125220968342181
 20
6.599602913152842
 10
-4.113847601168678
 20
6.593951098535901
 10
-4.102319926736988
 20
6.588568795368666
 10
-4.090642059482521
 20
6.5834601180865455
 10
-4.078818113840688
 20
6.578629181124953
 10
-4.0668522042469
 20
6.5740800989193
 10
-4.054748445136569
 20
6.569816985904997
 10
-4.042510950945108
 20
6.565843956517457
 10
-4.030143836107925
 20
6.562165125192088
 10
-4.017651215060432
 20
6.558784606364304
 10
-4.005037202238043
 20
6.555706514469517
 10
-3.9923059120761666
 20
6.552934963943135
 10
-3.9794614590102153
 20
6.550474069220572
 10
-3.9665079574755997
 20
6.548327944737238
 10
-3.953449521907732
 20
6.546500704928545
 10
-3.9402902667420223
 20
6.544996464229904
 10
-3.927034306413884
 20
6.543819337076727
 10
-3.9136857553587254
 20
6.542973437904424
 10
-3.900248728011961
 20
6.542462881148407
 10
-3.8867273388089996
 20
6.542291781244088
 10
-3.8830109544883165
 20
6.542304961739066
 10
-3.879296223041241
 20
6.542344482510702
 10
-3.8755832794204323
 20
6.542410312489054
 10
-3.8718722585785494
 20
6.542502420604176
 10
-3.8681632954682517
 20
6.542620775786122
 10
-3.8644565250421983
 20
6.542765346964951
 10
-3.860752082253048
 20
6.5429361030707165
 10
-3.8570501020534613
 20
6.543133013033474
 10
-3.8533507193960976
 20
6.543356045783281
 10
-3.849654069233614
 20
6.54360517025019
 10
-3.8459602865186726
 20
6.54388035536426
 10
-3.8422695062039307
 20
6.544181570055544
 10
-3.838581863242048
 20
6.5445087832540985
 10
-3.834897492585684
 20
6.54486196388998
 10
-3.8312165291874978
 20
6.545241080893243
 10
-3.82753910800015
 20
6.545646103193944
 10
-3.8238653639762976
 20
6.5460769997221355
 10
-3.8201954320686013
 20
6.546533739407878
 10
-3.8165294472297204
 20
6.547016291181223
 10
-3.8128675444123137
 20
6.547524623972228
 10
-3.809209858569041
 20
6.5480587067109495
 10
-3.805556524652561
 20
6.548618508327441
 10
-3.8019076776155334
 20
6.549203997751759
 10
-3.798263452410617
 20
6.549815143913959
 10
-3.794623983990472
 20
6.550451915744096
 10
-3.790989407307756
 20
6.551114282172228
 10
-3.7873598573151304
 20
6.551802212128408
 10
-3.783735468965253
 20
6.5525156745426925
 10
-3.7801163772107835
 20
6.553254638345137
 10
-3.776502717004382
 20
6.554019072465796
 10
-3.7728946232987064
 20
6.554808945834728
 10
-3.7692922310464168
 20
6.555624227381987
 10
-3.7656956752001722
 20
6.556464886037627
 10
-3.7621050907126317
 20
6.557330890731706
 10
-3.758520612536455
 20
6.558222210394279
 10
-3.754942375624302
 20
6.5591388139554
 10
-3.7513705149288303
 20
6.560080670345126
 10
-3.7478051654027005
 20
6.561047748493514
 10
-3.744246461998572
 20
6.5620400173306175
 10
-3.7406945396691023
 20
6.563057445786491
 10
-3.737149533366953
 20
6.564100002791193
 10
-3.733611578044782
 20
6.5651676572747775
 10
-3.7300808086552486
 20
6.566260378167301
 10
-3.726557360151013
 20
6.567378134398818
 10
-3.7230413674847336
 20
6.568520894899384
 10
-3.71953296560907
 20
6.569688628599056
 10
-3.7160322894766815
 20
6.570881304427889
 10
-3.712539474040227
 20
6.572098891315938
 10
-3.7090546542523666
 20
6.573341358193258
 10
-3.705577965065759
 20
6.574608673989907
 10
-3.7021095414330643
 20
6.575900807635938
 10
-3.6986495183069397
 20
6.5772177280614095
 10
-3.6951980306400465
 20
6.578559404196374
 10
-3.691755213385044
 20
6.579925804970889
 10
-3.6883212014945896
 20
6.581316899315009
 10
-3.684896129921345
 20
6.582732656158791
 10
-3.6814801336179674
 20
6.58417304443229
 10
-3.6780733475371172
 20
6.5856380330655595
 10
-3.674675906631454
 20
6.587127590988659
 10
-3.6712879458536363
 20
6.5886416871316404
 10
-3.6679096001563236
 20
6.590180290424562
 10
-3.664541004492175
 20
6.591743369797477
 10
-3.66118229381385
 20
6.593330894180443
 10
-3.6578336030740077
 20
6.5949428325035155
  0
LWPOLYLINE
  5
35
330
17
100
AcDbEntity
  8
0
100
AcDbPolyline
 90
129
 70
0
 10
-3.6919878768293852
 20
6.557424252251603
 10
-3.6934743349260035
 20
6.5698484654245295
 10
-3.695244291718571
 20
6.582175237322425
 10
-3.6972942475296593
 20
6.594401424979284
 10
-3.6996207026818424
 20
6.6065238854291035
 10
-3.7022201574976927
 20
6.618539475705877
 10
-3.7050891122997824
 20
6.630445052843601
 10
-3.7082240674106846
 20
6.6422374738762695
 10
-3.711621523152971
 20
6.653913595837881
 10
-3.7152779798492155
 20
6.665470275762428
 10
-3.719189937821989
 20
6.676904370683908
 10
-3.7233538973938667
 20
6.688212737636314
 10
-3.727766358887419
 20
6.699392233653643
 10
-3.7324238226252193
 20
6.7104397157698905
 10
-3.737322788929841
 20
6.721352041019052
 10
-3.742459758123855
 20
6.732126066435122
 10
-3.747831230529835
 20
6.742758649052096
 10
-3.753433706470353
 20
6.753246645903971
 10
-3.759263686267983
 20
6.76358691402474
 10
-3.7653176702452966
 20
6.773776310448401
 10
-3.771592158724867
 20
6.783811692208947
 10
-3.7780836520292658
 20
6.793689916340375
 10
-3.784788650481067
 20
6.80340783987668
 10
-3.7917036544028417
 20
6.812962319851857
 10
-3.7988251641171638
 20
6.822350213299902
 10
-3.8061496799466057
 20
6.83156837725481
 10
-3.8136737022137392
 20
6.840613668750577
 10
-3.821393731241138
 20
6.849482944821197
 10
-3.829306267351374
 20
6.858173062500667
 10
-3.8374078108670204
 20
6.866680878822982
 10
-3.845694862110649
 20
6.875003250822137
 10
-3.8541639214048335
 20
6.883137035532127
 10
-3.8628114890721448
 20
6.891079089986948
 10
-3.8716340654351584
 20
6.898826271220596
 10
-3.8806281508164444
 20
6.906375436267066
 10
-3.8897902455385767
 20
6.913723442160353
 10
-3.899116849924127
 20
6.920867145934454
 10
-3.908604464295668
 20
6.927803404623361
 10
-3.918249588975774
 20
6.934529075261073
 10
-3.9280487242870157
 20
6.941041014881582
 10
-3.9379983705519663
 20
6.947336080518888
 10
-3.948095028093199
 20
6.953411129206983
 10
-3.958335197233285
 20
6.959263017979862
 10
-3.9687153782947995
 20
6.964888603871522
 10
-3.9792320716003124
 20
6.970284743915958
 10
-3.989881777472398
 20
6.9754482951471655
 10
-4.000660996233628
 20
6.9803761145991405
 10
-4.011566228206576
 20
6.985065059305877
 10
-4.022593973713814
 20
6.9895119863013715
 10
-4.033740733077915
 20
6.993713752619619
 10
-4.04500300662145
 20
6.997667215294615
 10
-4.056377294666994
 20
7.001369231360354
 10
-4.067860097537118
 20
7.004816657850833
 10
-4.079447915554396
 20
7.008006351800047
 10
-4.0911372490414
 20
7.010935170241991
 10
-4.102924598320702
 20
7.0135999702106595
 10
-4.114806463714875
 20
7.01599760874005
 10
-4.126779345546492
 20
7.018124942864157
 10
-4.138839744138125
 20
7.019978829616975
 10
-4.150984159812348
 20
7.0215561260325
 10
-4.163209092891732
 20
7.022853689144729
 10
-4.17551104369885
 20
7.0238683759876555
 10
-4.187886512556275
 20
7.024597043595275
 10
-4.20033199978658
 20
7.025036549001583
 10
-4.212844005712337
 20
7.0251837492405755
 10
-4.225355852256394
 20
7.025036551505099
 10
-4.237801185164736
 20
7.024597053503926
 10
-4.250176504759935
 20
7.023868398044944
 10
-4.262478311364563
 20
7.022853727936043
 10
-4.274703105301193
 20
7.021556185985108
 10
-4.286847386892399
 20
7.019978915000029
 10
-4.298907656460751
 20
7.0181250577886924
 10
-4.310880414328825
 20
7.0159977571589875
 10
-4.32276216081919
 20
7.013600155918801
 10
-4.33454939625442
 20
7.010935396876021
 10
-4.34623862095709
 20
7.008006622838535
 10
-4.3578263352497695
 20
7.004816976614232
 10
-4.3693090394550325
 20
7.001369601010999
 10
-4.380683233895451
 20
6.997667638836723
 10
-4.391945418893599
 20
6.993714232899293
 10
-4.403092094772046
 20
6.989512526006597
 10
-4.414119761853369
 20
6.985065660966523
 10
-4.425024920460137
 20
6.9803767805869565
 10
-4.435804070914926
 20
6.975449027675787
 10
-4.446453713540304
 20
6.970285545040904
 10
-4.456970348658848
 20
6.9648894754901916
 10
-4.467350476593128
 20
6.959263961831541
 10
-4.477590597665718
 20
6.953412146872838
 10
-4.487687212199191
 20
6.94733717342197
 10
-4.497636820516118
 20
6.941042184286827
 10
-4.507435922939073
 20
6.934530322275297
 10
-4.517081019790627
 20
6.927804730195264
 10
-4.526568611393355
 20
6.92086855085462
 10
-4.535895198069827
 20
6.91372492706125
 10
-4.545057280142618
 20
6.906377001623044
 10
-4.554051357934299
 20
6.898827917347889
 10
-4.562873931767444
 20
6.8910808170436715
 10
-4.571521501964624
 20
6.883138843518282
 10
-4.579990568848413
 20
6.8750051395796055
 10
-4.5882776327413834
 20
6.866682848035531
 10
-4.596379193966108
 20
6.858175111693947
 10
-4.604291752845158
 20
6.84948507336274
 10
-4.612011809701107
 20
6.8406158758498
 10
-4.619535864856528
 20
6.831570661963012
 10
-4.626860418633993
 20
6.8223525745102656
 10
-4.633981971356076
 20
6.812964756299448
 10
-4.640897023345347
 20
6.8034103501384475
 10
-4.6476020749243805
 20
6.793692498835152
 10
-4.65409362641575
 20
6.783814345197448
 10
-4.660368178142026
 20
6.773779032033226
 10
-4.666422230425782
 20
6.763589702150371
 10
-4.672252283589591
 20
6.753249498356771
 10
-4.677854837956025
 20
6.742761563460316
 10
-4.683226393847658
 20
6.732129040268894
 10
-4.688363451587061
 20
6.721355071590389
 10
-4.6932625114968065
 20
6.710442800232693
 10
-4.697920073899469
 20
6.69939536900369
 10
-4.7023326391176195
 20
6.688215920711271
 10
-4.706496707473831
 20
6.676907598163323
 10
-4.710408779290677
 20
6.6654735441677335
 10
-4.714065354890728
 20
6.653916901532391
 10
-4.7174629345965595
 20
6.642240813065181
 10
-4.720598018730742
 20
6.630448421573993
 10
-4.723467107615848
 20
6.618542869866716
 10
-4.726066701574452
 20
6.606527300751236
 10
-4.728393300929125
 20
6.594404857035442
 10
-4.730443406002441
 20
6.582178681527221
 10
-4.73221351711697
 20
6.569851917034461
 10
-4.7337001345952885
 20
6.55742770636505
  0
LWPOLYLINE
  5
36
330
17
100
AcDbEntity
  8
0
100
AcDbPolyline
 90
193
 70
0
 10
-4.750791087926761
 20
6.587029458598423
 10
-4.7476594828752985
 20
6.585657180847735
 10
-4.744520029856299
 20
6.584305812141873
 10
-4.741372834807999
 20
6.582975374933419
 10
-4.73821800366863
 20
6.58166589167495
 10
-4.735055642376423
 20
6.580377384819048
 10
-4.7318858568696145
 20
6.579109876818295
 10
-4.728708753086435
 20
6.5778633901252705
 10
-4.7255244369651175
 20
6.576637947192555
 10
-4.722333014443895
 20
6.57543357047273
 10
-4.719134591461001
 20
6.574250282418376
 10
-4.715929273954666
 20
6.573088105482073
 10
-4.7127171678631266
 20
6.5719470621164024
 10
-4.7094983791246126
 20
6.570827174773945
 10
-4.706273013677357
 20
6.56972846590728
 10
-4.703041177459595
 20
6.568650957968991
 10
-4.699802976409558
 20
6.567594673411656
 10
-4.696558516465478
 20
6.566559634687857
 10
-4.6933079035655885
 20
6.565545864250174
 10
-4.6900512436481225
 20
6.5645533845511865
 10
-4.686788642651312
 20
6.5635822180434795
 10
-4.683520206513391
 20
6.562632387179629
 10
-4.680246041172592
 20
6.561703914412218
 10
-4.676966252567149
 20
6.560796822193827
 10
-4.673680946635292
 20
6.559911132977036
 10
-4.670390229315255
 20
6.559046869214427
 10
-4.667094206545272
 20
6.558204053358579
 10
-4.663792984263575
 20
6.5573827078620734
 10
-4.660486668408397
 20
6.556582855177492
 10
-4.657175364917969
 20
6.555804517757413
 10
-4.653859179730527
 20
6.5550477180544195
 10
-4.650538218784303
 20
6.554312478521092
 10
-4.647212588017528
 20
6.553598821610009
 10
-4.643882393368436
 20
6.552906769773754
 10
-4.64054774077526
 20
6.552236345464905
 10
-4.637208736176233
 20
6.551587571136045
 10
-4.633865485509587
 20
6.550960469239753
 10
-4.630518094713556
 20
6.550355062228611
 10
-4.627166669726372
 20
6.5497713725552
 10
-4.623811316486267
 20
6.549209422672098
 10
-4.620452140931476
 20
6.5486692350318885
 10
-4.617089249000229
 20
6.548150832087151
 10
-4.613722746630762
 20
6.547654236290465
 10
-4.610352739761305
 20
6.547179470094415
 10
-4.606979334330094
 20
6.546726555951577
 10
-4.603602636275359
 20
6.546295516314536
 10
-4.600222751535333
 20
6.545886373635869
 10
-4.596839786048251
 20
6.545499150368159
 10
-4.593453845752343
 20
6.545133868963986
 10
-4.590065036585845
 20
6.544790551875931
 10
-4.586673464486987
 20
6.544469221556573
 10
-4.583279235394002
 20
6.5441699004584954
 10
-4.579882455245125
 20
6.543892611034277
 10
-4.576483229978588
 20
6.543637375736499
 10
-4.573081665532622
 20
6.543404217017742
 10
-4.569677867845462
 20
6.543193157330587
 10
-4.56627194285534
 20
6.543004219127615
 10
-4.5628639965004885
 20
6.542837424861405
 10
-4.559454134719141
 20
6.54269279698454
 10
-4.556042463449531
 20
6.542570357949599
 10
-4.55262908862989
 20
6.542470130209163
 10
-4.54921411619845
 20
6.542392136215815
 10
-4.545797652093446
 20
6.5423363984221306
 10
-4.54237980225311
 20
6.542302939280696
 10
-4.538960672615675
 20
6.542291781244088
 10
-4.525439440304074
 20
6.542462881148407
 10
-4.512002559966371
 20
6.542973437904424
 10
-4.498654146275154
 20
6.543819337076727
 10
-4.485398313903007
 20
6.544996464229904
 10
-4.472239177522518
 20
6.546500704928545
 10
-4.4591808518062725
 20
6.548327944737237
 10
-4.446227451426858
 20
6.550474069220572
 10
-4.43338309105686
 20
6.552934963943135
 10
-4.420651885368866
 20
6.555706514469517
 10
-4.408037949035461
 20
6.558784606364304
 10
-4.395545396729233
 20
6.562165125192088
 10
-4.3831783431227676
 20
6.565843956517456
 10
-4.370940902888651
 20
6.569816985904997
 10
-4.358837190699471
 20
6.5740800989193
 10
-4.3468713212278125
 20
6.578629181124953
 10
-4.335047409146263
 20
6.5834601180865455
 10
-4.323369569127409
 20
6.588568795368666
 10
-4.311841915843836
 20
6.593951098535901
 10
-4.30046856396813
 20
6.599602913152842
 10
-4.28925362817288
 20
6.605520124784077
 10
-4.2782012231306705
 20
6.611698618994194
 10
-4.2673154635140875
 20
6.618134281347784
 10
-4.25660046399572
 20
6.6248229974094315
 10
-4.246060339248152
 20
6.631760652743727
 10
-4.2356992039439705
 20
6.638943132915262
 10
-4.225521172755762
 20
6.646366323488623
 10
-4.215530360356114
 20
6.654026110028397
 10
-4.205730881417612
 20
6.661918378099175
 10
-4.196126850612842
 20
6.670039013265544
 10
-4.186722382614392
 20
6.6783839010920945
 10
-4.1775215920948465
 20
6.686948927143415
 10
-4.168528593726793
 20
6.695729976984092
 10
-4.159747502182819
 20
6.704722936178716
 10
-4.151182432135509
 20
6.713923690291876
 10
-4.142837498257451
 20
6.723328124888161
 10
-4.134716815221231
 20
6.732932125532157
 10
-4.126824497699435
 20
6.7427315777884544
 10
-4.11916466036465
 20
6.752722367221643
 10
-4.11174141788946
 20
6.76290037939631
 10
-4.1045588849464565
 20
6.773261499877045
 10
-4.097621176208222
 20
6.783801614228436
 10
-4.090932406347344
 20
6.794516608015071
 10
-4.08449669003641
 20
6.80540236680154
 10
-4.078318141948004
 20
6.8164547761524314
 10
-4.072400876754715
 20
6.827669721632334
 10
-4.066749009129128
 20
6.839043088805837
 10
-4.06136665374383
 20
6.850570763237526
 10
-4.0562579252714075
 20
6.862248630491994
 10
-4.051426938384448
 20
6.874072576133827
 10
-4.046877807755535
 20
6.886038485727614
 10
-4.042614648057257
 20
6.898142244837945
 10
-4.038641573962201
 20
6.910379739029407
 10
-4.034962700142952
 20
6.92274685386659
 10
-4.031582141272097
 20
6.9352394749140815
 10
-4.028504012022223
 20
6.947853487736471
 10
-4.025732427065916
 20
6.960584777898347
 10
-4.0232715010757625
 20
6.9734292309643
 10
-4.021125348724349
 20
6.986382732498915
 10
-4.019298084684261
 20
6.999441168066783
 10
-4.017793823628087
 20
7.0126004232324926
 10
-4.016616680228412
 20
7.025856383560631
 10
-4.015770769157823
 20
7.039204934615788
 10
-4.0152602050889055
 20
7.052641961962554
 10
-4.0150891026942475
 20
7.066163351165515
 10
-4.015147474001717
 20
7.073993948334987
 10
-4.015322212133279
 20
7.081808721969159
 10
-4.0156127534026655
 20
7.089606562246455
 10
-4.016018534123607
 20
7.0973863593452995
 10
-4.016538990609836
 20
7.105147003444116
 10
-4.017173559175082
 20
7.112887384721326
 10
-4.017921676133079
 20
7.120606393355355
 10
-4.018782777797554
 20
7.128302919524627
 10
-4.019756300482243
 20
7.1359758534075635
 10
-4.020841680500874
 20
7.14362408518259
 10
-4.02203835416718
 20
7.151246505028129
 10
-4.023345757794892
 20
7.158842003122603
 10
-4.02476332769774
 20
7.166409469644439
 10
-4.026290500189457
 20
7.173947794772056
 10
-4.027926711583773
 20
7.181455868683881
 10
-4.02967139819442
 20
7.188932581558337
 10
-4.03152399633513
 20
7.196376823573845
 10
-4.033483942319633
 20
7.203787484908831
 10
-4.03555067246166
 20
7.211163455741719
 10
-4.037723623074944
 20
7.2185036262509295
 10
-4.040002230473215
 20
7.2258068866148895
 10
-4.042385930970205
 20
7.233072127012021
 10
-4.044874160879644
 20
7.240298237620747
 10
-4.047466356515264
 20
7.247484108619491
 10
-4.050161954190798
 20
7.254628630186679
 10
-4.052960390219974
 20
7.261730692500731
 10
-4.055861100916526
 20
7.268789185740074
 10
-4.0588635225941845
 20
7.275803000083129
 10
-4.061967091566681
 20
7.2827710257083185
 10
-4.065171244147744
 20
7.2896921527940695
 10
-4.0684754166511095
 20
7.296565271518804
 10
-4.071879045390506
 20
7.303389272060944
 10
-4.075381566679665
 20
7.310163044598915
 10
-4.078982416832318
 20
7.316885479311141
 10
-4.082681032162196
 20
7.323555466376043
 10
-4.086476848983031
 20
7.330171895972047
 10
-4.090369303608553
 20
7.336733658277575
 10
-4.094357832352495
 20
7.343239643471051
 10
-4.098441871528588
 20
7.349688741730899
 10
-4.102620857450562
 20
7.356079843235542
 10
-4.106894226432149
 20
7.362411838163404
 10
-4.111261414787081
 20
7.368683616692907
 10
-4.115721858829088
 20
7.374894069002478
 10
-4.1202749948719015
 20
7.381042085270536
 10
-4.1249202592292535
 20
7.387126555675509
 10
-4.129657088214875
 20
7.393146370395817
 10
-4.134484918142498
 20
7.399100419609884
 10
-4.139403185325852
 20
7.404987593496136
 10
-4.14441132607867
 20
7.410806782232995
 10
-4.149508776714682
 20
7.416556875998883
 10
-4.15469497354762
 20
7.422236764972226
 10
-4.159969352891216
 20
7.427845339331447
 10
-4.1653313510592
 20
7.433381489254968
 10
-4.170780404365304
 20
7.438844104921214
 10
-4.176315949123258
 20
7.444232076508609
 10
-4.181937421646795
 20
7.449544294195575
 10
-4.187644258249646
 20
7.454779648160535
 10
-4.193435895245542
 20
7.459937028581916
 10
-4.199311768948213
 20
7.465015325638138
 10
-4.205271315671393
 20
7.470013429507627
 10
-4.211313971728811
 20
7.4749302303688046
 10
-4.217439173434199
 20
7.479764618400095
 10
-4.223646357101288
 20
7.484515483779922
 10
-4.229934959043811
 20
7.489181716686709
  0
LWPOLYLINE
  5
37
330
17
100
AcDbEntity
  8
0
100
AcDbPolyline
 90
193
 70
0
 10
-4.195749598267417
 20
7.489181716686709
 10
-4.202038359604816
 20
7.484515483779922
 10
-4.208245697686103
 20
7.479764618400095
 10
-4.214371048904069
 20
7.4749302303688046
 10
-4.220413849651504
 20
7.470013429507627
 10
-4.226373536321197
 20
7.465015325638138
 10
-4.232249545305938
 20
7.459937028581916
 10
-4.238041312998516
 20
7.454779648160535
 10
-4.243748275791722
 20
7.449544294195575
 10
-4.249369870078345
 20
7.444232076508609
 10
-4.254905532251174
 20
7.438844104921214
 10
-4.260354698703
 20
7.433381489254968
 10
-4.265716805826612
 20
7.427845339331447
 10
-4.270991290014799
 20
7.422236764972226
 10
-4.276177587660352
 20
7.416556875998883
 10
-4.281275135156059
 20
7.410806782232995
 10
-4.286283368894711
 20
7.404987593496136
 10
-4.291201725269098
 20
7.399100419609884
 10
-4.296029640672009
 20
7.393146370395817
 10
-4.300766551496233
 20
7.387126555675509
 10
-4.3054118941345605
 20
7.381042085270536
 10
-4.3099651049797805
 20
7.374894069002478
 10
-4.314425620424684
 20
7.368683616692907
 10
-4.31879287686206
 20
7.362411838163404
 10
-4.3230663106846965
 20
7.356079843235542
 10
-4.327245358285386
 20
7.349688741730899
 10
-4.331329456056916
 20
7.343239643471051
 10
-4.335318040392077
 20
7.336733658277575
 10
-4.33921054768366
 20
7.330171895972047
 10
-4.343006414324452
 20
7.323555466376043
 10
-4.346705076707244
 20
7.316885479311141
 10
-4.350305971224826
 20
7.310163044598915
 10
-4.353808534269987
 20
7.303389272060944
 10
-4.357212202235518
 20
7.296565271518804
 10
-4.360516411514207
 20
7.2896921527940695
 10
-4.363720598498844
 20
7.2827710257083185
 10
-4.36682419958222
 20
7.275803000083129
 10
-4.3698266511571235
 20
7.268789185740074
 10
-4.372727389616343
 20
7.261730692500731
 10
-4.375525851352671
 20
7.254628630186679
 10
-4.378221472758895
 20
7.247484108619491
 10
-4.380813690227806
 20
7.240298237620747
 10
-4.383301940152193
 20
7.233072127012021
 10
-4.385685658924845
 20
7.2258068866148895
 10
-4.387964282938553
 20
7.2185036262509295
 10
-4.390137248586106
 20
7.211163455741719
 10
-4.392203992260293
 20
7.203787484908831
 10
-4.394163950353905
 20
7.196376823573845
 10
-4.3960165592597304
 20
7.188932581558337
 10
-4.39776125537056
 20
7.181455868683881
 10
-4.3993974750791836
 20
7.173947794772056
 10
-4.40092465477839
 20
7.166409469644439
 10
-4.4023422308609685
 20
7.158842003122604
 10
-4.40364963971971
 20
7.151246505028129
 10
-4.404846317747403
 20
7.14362408518259
 10
-4.405931701336837
 20
7.1359758534075635
 10
-4.406905226880804
 20
7.128302919524627
 10
-4.407766330772091
 20
7.120606393355355
 10
-4.40851444940349
 20
7.112887384721326
 10
-4.4091490191677885
 20
7.105147003444116
 10
-4.409669476457777
 20
7.0973863593452995
 10
-4.410075257666246
 20
7.089606562246455
 10
-4.410365799185984
 20
7.081808721969159
 10
-4.41054053740978
 20
7.073993948334987
 10
-4.410598908730426
 20
7.066163351165515
 10
-4.410427808826107
 20
7.052641961962554
 10
-4.40991725207009
 20
7.039204934615788
 10
-4.409071352897787
 20
7.025856383560631
 10
-4.407894225744611
 20
7.0126004232324926
 10
-4.40638998504597
 20
6.999441168066783
 10
-4.4045627452372775
 20
6.986382732498915
 10
-4.402416620753943
 20
6.9734292309643
 10
-4.399955726031379
 20
6.960584777898347
 10
-4.397184175504998
 20
6.947853487736471
 10
-4.39410608361021
 20
6.9352394749140815
 10
-4.390725564782426
 20
6.92274685386659
 10
-4.387046733457058
 20
6.910379739029407
 10
-4.383073704069517
 20
6.898142244837945
 10
-4.378810591055214
 20
6.886038485727614
 10
-4.374261508849561
 20
6.874072576133827
 10
-4.369430571887969
 20
6.862248630491994
 10
-4.364321894605849
 20
6.850570763237526
 10
-4.358939591438614
 20
6.839043088805837
 10
-4.353287776821673
 20
6.827669721632334
 10
-4.347370565190437
 20
6.8164547761524314
 10
-4.341192070980321
 20
6.80540236680154
 10
-4.334756408626731
 20
6.794516608015071
 10
-4.328067692565083
 20
6.783801614228436
 10
-4.321130037230786
 20
6.773261499877045
 10
-4.313947557059253
 20
6.76290037939631
 10
-4.306524366485893
 20
6.752722367221643
 10
-4.298864579946118
 20
6.7427315777884544
 10
-4.29097231187534
 20
6.732932125532157
 10
-4.282851676708971
 20
6.723328124888161
 10
-4.27450678888242
 20
6.713923690291876
 10
-4.2659417628311
 20
6.704722936178716
 10
-4.257160712990423
 20
6.695729976984092
 10
-4.248167753795798
 20
6.686948927143415
 10
-4.2389669996826385
 20
6.6783839010920945
 10
-4.229562565086354
 20
6.670039013265544
 10
-4.219958564442358
 20
6.661918378099175
 10
-4.2101591121860595
 20
6.654026110028397
 10
-4.200168322752872
 20
6.646366323488623
 10
-4.189990310578205
 20
6.638943132915262
 10
-4.17962919009747
 20
6.631760652743728
 10
-4.169089075746079
 20
6.6248229974094315
 10
-4.158374081959444
 20
6.618134281347784
 10
-4.147488323172975
 20
6.611698618994194
 10
-4.136435913822083
 20
6.605520124784077
 10
-4.125220968342181
 20
6.599602913152842
 10
-4.113847601168678
 20
6.593951098535901
 10
-4.102319926736988
 20
6.588568795368666
 10
-4.090642059482521
 20
6.5834601180865455
 10
-4.078818113840688
 20
6.578629181124953
 10
-4.0668522042469
 20
6.5740800989193
 10
-4.054748445136569
 20
6.569816985904997
 10
-4.042510950945108
 20
6.565843956517457
 10
-4.030143836107925
 20
6.562165125192088
 10
-4.017651215060432
 20
6.558784606364304
 10
-4.005037202238043
 20
6.555706514469517
 10
-3.9923059120761666
 20
6.552934963943135
 10
-3.9794614590102153
 20
6.550474069220572
 10
-3.9665079574755997
 20
6.548327944737238
 10
-3.953449521907732
 20
6.546500704928545
 10
-3.9402902667420223
 20
6.544996464229904
 10
-3.927034306413884
 20
6.543819337076727
 10
-3.9136857553587254
 20
6.542973437904424
 10
-3.900248728011961
 20
6.542462881148407
 10
-3.8867273388089996
 20
6.542291781244088
 10
-3.883308052267027
 20
6.542302939293872
 10
-3.8798900553253937
 20
6.542336398527543
 10
-3.876473453606098
 20
6.542392136571577
 10
-3.8730583527311397
 20
6.542470131052454
 10
-3.8696448583225176
 20
6.542570359596649
 10
-3.866233076002232
 20
6.542692799830642
 10
-3.8628231113922817
 20
6.54283742938091
 10
-3.859415070114666
 20
6.54300422587393
 10
-3.856009057791384
 20
6.543193166936181
 10
-3.8526051800444345
 20
6.543404230194139
 10
-3.8492035424958186
 20
6.543637393274284
 10
-3.8458042507675336
 20
6.5438926338030905
 10
-3.84240741048158
 20
6.54416992940704
 10
-3.839013127259957
 20
6.544469257712607
 10
-3.8356215067246624
 20
6.544790596346271
 10
-3.8322326544976977
 20
6.545133922934508
 10
-3.8288466762010613
 20
6.545499215103798
 10
-3.8254636774567525
 20
6.545886450480617
 10
-3.82208376388677
 20
6.5462956066914435
 10
-3.818707041113114
 20
6.546726661362754
 10
-3.8153336147577828
 20
6.5471795921210285
 10
-3.8119635904427773
 20
6.5476543765927415
 10
-3.808597073790095
 20
6.548150992404374
 10
-3.8052341704217367
 20
6.548669417182403
 10
-3.8018749859597003
 20
6.549209628553303
 10
-3.7985196260259864
 20
6.5497716041435545
 10
-3.795168196242593
 20
6.550355321579636
 10
-3.791820802231521
 20
6.550960758488023
 10
-3.788477549614769
 20
6.551587892495195
 10
-3.7851385440143352
 20
6.552236701227627
 10
-3.78180389105222
 20
6.5529071623118
 10
-3.778473696350423
 20
6.55359925337419
 10
-3.775148065530943
 20
6.5543129520412755
 10
-3.771827104215779
 20
6.555048235939532
 10
-3.76851091802693
 20
6.55580508269544
 10
-3.7651996125863967
 20
6.556583469935475
 10
-3.7618932935161777
 20
6.557383375286117
 10
-3.758592066438272
 20
6.558204776373842
 10
-3.755296036974679
 20
6.559047650825127
 10
-3.752005310747398
 20
6.559911976266452
 10
-3.7487199933784288
 20
6.560797730324293
 10
-3.74544019048977
 20
6.561704890625128
 10
-3.742166007703421
 20
6.562633434795434
 10
-3.738897550641382
 20
6.56358334046169
 10
-3.735634924925651
 20
6.564554585250375
 10
-3.7323782361782283
 20
6.565547146787963
 10
-3.729127590021112
 20
6.566561002700935
 10
-3.725883092076303
 20
6.567596130615765
 10
-3.722644847965799
 20
6.5686525081589355
 10
-3.7194129633116013
 20
6.56973011295692
 10
-3.7161875437357073
 20
6.570828922636198
 10
-3.7129686948601166
 20
6.571948914823249
 10
-3.7097565223068294
 20
6.5730900671445465
 10
-3.7065511316978443
 20
6.574252357226572
 10
-3.7033526286551615
 20
6.5754357626958
 10
-3.7001611188007786
 20
6.576640261178712
 10
-3.696976707756696
 20
6.577865830301782
 10
-3.6937995011449134
 20
6.5791124476914895
 10
-3.6906296045874294
 20
6.580380090974312
 10
-3.6874671237062437
 20
6.581668737776727
 10
-3.6843121641233547
 20
6.582978365725213
 10
-3.6811648314607632
 20
6.584308952446246
 10
-3.678025231340467
 20
6.585660475566306
 10
-3.6748934693844664
 20
6.587032912711868
  0
LWPOLYLINE
  5
38
330
17
100
AcDbEntity
  8
0
100
AcDbPolyline
 90
65
 70
0
 10
-4.357243218327987
 20
7.004890832744536
 10
-4.358754279169306
 20
7.004454982615729
 10
-4.360263918540904
 20
7.0040146331162445
 10
-4.361772126639539
 20
7.003569788040886
 10
-4.363278893661977
 20
7.003120451184455
 10
-4.364784209804974
 20
7.002666626341755
 10
-4.366288065265292
 20
7.002208317307587
 10
-4.367790450239691
 20
7.001745527876755
 10
-4.3692913549249335
 20
7.00127826184406
 10
-4.370790769517778
 20
7.0008065230043055
 10
-4.372288684214986
 20
7.000330315152293
 10
-4.373785089213317
 20
6.9998496420828245
 10
-4.375279974709534
 20
6.999364507590704
 10
-4.376773330900395
 20
6.998874915470732
 10
-4.3782651479826615
 20
6.998380869517711
 10
-4.379755416153094
 20
6.997882373526446
 10
-4.381244125608452
 20
6.997379431291736
 10
-4.382731266545498
 20
6.996872046608385
 10
-4.384216829160993
 20
6.996360223271196
 10
-4.385700803651694
 20
6.99584396507497
 10
-4.387183180214365
 20
6.99532327581451
 10
-4.388663949045764
 20
6.994798159284619
 10
-4.390143100342653
 20
6.994268619280097
 10
-4.391620624301793
 20
6.9937346595957495
 10
-4.393096511119944
 20
6.993196284026377
 10
-4.394570750993866
 20
6.992653496366782
 10
-4.39604333412032
 20
6.992106300411768
 10
-4.397514250696066
 20
6.991554699956135
 10
-4.398983490917865
 20
6.990998698794689
 10
-4.4004510449824785
 20
6.990438300722229
 10
-4.401916903086666
 20
6.989873509533558
 10
-4.403381055427188
 20
6.98930432902348
 10
-4.404843492200805
 20
6.988730762986796
 10
-4.406304203604278
 20
6.988152815218308
 10
-4.407763179834366
 20
6.987570489512821
 10
-4.409220411087833
 20
6.9869837896651354
 10
-4.410675887561436
 20
6.986392719470052
 10
-4.412129599451937
 20
6.985797282722375
 10
-4.413581536956098
 20
6.985197483216908
 10
-4.415031690270676
 20
6.984593324748451
 10
-4.416480049592434
 20
6.9839848111118075
 10
-4.417926605118133
 20
6.983371946101779
 10
-4.419371347044533
 20
6.98275473351317
 10
-4.420814265568393
 20
6.98213317714078
 10
-4.422255350886475
 20
6.981507280779414
 10
-4.42369459319554
 20
6.980877048223873
 10
-4.425131982692347
 20
6.98024248326896
 10
-4.426567509573657
 20
6.979603589709476
 10
-4.428001164036233
 20
6.978960371340224
 10
-4.429432936276831
 20
6.978312831956008
 10
-4.4308628164922155
 20
6.977660975351627
 10
-4.432290794879146
 20
6.977004805321887
 10
-4.433716861634381
 20
6.9763443256615885
 10
-4.435141006954683
 20
6.975679540165534
 10
-4.436563221036813
 20
6.975010452628527
 10
-4.43798349407753
 20
6.974337066845367
 10
-4.4394018162735955
 20
6.973659386610859
 10
-4.44081817782177
 20
6.9729774157198054
 10
-4.442232568918814
 20
6.972291157967008
 10
-4.443644979761488
 20
6.971600617147268
 10
-4.4450554005465515
 20
6.970905797055388
 10
-4.4464638214707675
 20
6.970206701486172
 10
-4.447870232730894
 20
6.969503334234423
 10
-4.449274624523693
 20
6.96879569909494
 10
-4.450676987045925
 20
6.968083799862527
  0
LWPOLYLINE
  5
39
330
17
100
AcDbEntity
  8
0
100
AcDbPolyline
 90
65
 70
0
 10
-4.030649883769083
 20
6.939428474713396
 10
-4.030271855939983
 20
6.940955005580456
 10
-4.029898434052259
 20
6.942482558118994
 10
-4.029529619687079
 20
6.944011121814247
 10
-4.029165414425612
 20
6.945540686151452
 10
-4.0288058198490235
 20
6.94707124061584
 10
-4.028450837538482
 20
6.94860277469265
 10
-4.028100469075157
 20
6.950135277867114
 10
-4.027754716040213
 20
6.951668739624468
 10
-4.027413580014819
 20
6.953203149449948
 10
-4.027077062580144
 20
6.954738496828789
 10
-4.0267451653173545
 20
6.956274771246225
 10
-4.026417889807617
 20
6.957811962187491
 10
-4.026095237632101
 20
6.959350059137824
 10
-4.025777210371974
 20
6.960889051582457
 10
-4.025463809608403
 20
6.962428929006628
 10
-4.025155036922555
 20
6.963969680895569
 10
-4.024850893895598
 20
6.965511296734515
 10
-4.024551382108702
 20
6.9670537660087035
 10
-4.024256503143031
 20
6.968597078203369
 10
-4.023966258579755
 20
6.970141222803744
 10
-4.023680650000041
 20
6.971686189295069
 10
-4.023399678985057
 20
6.973231967162572
 10
-4.02312334711597
 20
6.974778545891494
 10
-4.022851655973947
 20
6.976325914967068
 10
-4.022584607140158
 20
6.977874063874529
 10
-4.022322202195769
 20
6.979422982099111
 10
-4.022064442721948
 20
6.980972659126051
 10
-4.021811330299863
 20
6.982523084440584
 10
-4.02156286651068
 20
6.984074247527944
 10
-4.02131905293557
 20
6.985626137873365
 10
-4.021079891155697
 20
6.987178744962085
 10
-4.02084538275223
 20
6.988732058279339
 10
-4.020615529306339
 20
6.990286067310358
 10
-4.020390332399187
 20
6.991840761540383
 10
-4.020169793611946
 20
6.993396130454644
 10
-4.019953914525781
 20
6.994952163538379
 10
-4.019742696721861
 20
6.996508850276821
 10
-4.019536141781352
 20
6.998066180155207
 10
-4.019334251285424
 20
6.999624142658772
 10
-4.019137026815243
 20
7.0011827272727505
 10
-4.018944469951977
 20
7.002741923482377
 10
-4.0187565822767946
 20
7.004301720772888
 10
-4.0185733653708615
 20
7.005862108629517
 10
-4.018394820815347
 20
7.0074230765375
 10
-4.018220950191418
 20
7.008984613982072
 10
-4.018051755080243
 20
7.010546710448469
 10
-4.017887237062989
 20
7.0121093554219245
 10
-4.017727397720823
 20
7.013672538387675
 10
-4.017572238634914
 20
7.015236248830955
 10
-4.017421761386429
 20
7.016800476236998
 10
-4.017275967556535
 20
7.018365210091042
 10
-4.017134858726401
 20
7.01993043987832
 10
-4.016998436477194
 20
7.021496155084069
 10
-4.0168667023900815
 20
7.023062345193522
 10
-4.016739658046231
 20
7.024628999691914
 10
-4.016617305026811
 20
7.026196108064483
 10
-4.016499644912988
 20
7.027763659796461
 10
-4.01638667928593
 20
7.0293316443730856
 10
-4.016278409726805
 20
7.030900051279589
 10
-4.016174837816782
 20
7.0324688700012095
 10
-4.016075965137025
 20
7.03403809002318
 10
-4.015981793268706
 20
7.035607700830736
 10
-4.015892323792989
 20
7.037177691909113
 10
-4.015807558291044
 20
7.038748052743546
  0
LWPOLYLINE
  5
3A
330
17
100
AcDbEntity
  8
0
100
AcDbPolyline
 90
65
 70
0
 10
-4.25063891503994
 20
6.689323028305693
 10
-4.249506038919082
 20
6.688232190662904
 10
-4.248369968444272
 20
6.687144840522553
 10
-4.247230712074756
 20
6.686060984288367
 10
-4.246088278269778
 20
6.684980628364074
 10
-4.2449426754885895
 20
6.683903779153406
 10
-4.243793912190435
 20
6.682830443060088
 10
-4.242641996834562
 20
6.681760626487854
 10
-4.241486937880217
 20
6.68069433584043
 10
-4.240328743786648
 20
6.679631577521545
 10
-4.2391674230131
 20
6.678572357934927
 10
-4.238002984018823
 20
6.677516683484308
 10
-4.23683543526306
 20
6.676464560573415
 10
-4.235664785205062
 20
6.675415995605977
 10
-4.234491042304073
 20
6.6743709949857255
 10
-4.233314215019341
 20
6.6733295651163855
 10
-4.232134311810114
 20
6.672291712401688
 10
-4.230951341135636
 20
6.671257443245363
 10
-4.229765311455157
 20
6.6702267640511375
 10
-4.228576231227923
 20
6.669199681222742
 10
-4.227384108913181
 20
6.668176201163904
 10
-4.226188952970177
 20
6.667156330278354
 10
-4.224990771858159
 20
6.66614007496982
 10
-4.223789574036374
 20
6.665127441642032
 10
-4.222585367964068
 20
6.664118436698718
 10
-4.221378162100488
 20
6.663113066543608
 10
-4.220167964904882
 20
6.662111337580431
 10
-4.218954784836496
 20
6.661113256212914
 10
-4.217738630354578
 20
6.660118828844788
 10
-4.216519509918375
 20
6.659128061879781
 10
-4.215297431987132
 20
6.658140961721623
 10
-4.214072405020097
 20
6.657157534774042
 10
-4.212844437476518
 20
6.656177787440767
 10
-4.211613537815641
 20
6.655201726125529
 10
-4.210379714496712
 20
6.6542293572320546
 10
-4.20914297597898
 20
6.653260687164074
 10
-4.207903330721691
 20
6.652295722325315
 10
-4.2066607871840915
 20
6.651334469119507
 10
-4.205415353825429
 20
6.650376933950381
 10
-4.2041670391049495
 20
6.649423123221663
 10
-4.202915851481902
 20
6.648473043337083
 10
-4.201661799415532
 20
6.6475267007003715
 10
-4.200404891365086
 20
6.6465841017152565
 10
-4.199145135789812
 20
6.645645252785466
 10
-4.197882541148957
 20
6.644710160314731
 10
-4.196617115901766
 20
6.643778830706779
 10
-4.195348868507489
 20
6.642851270365339
 10
-4.19407780742537
 20
6.641927485694141
 10
-4.192803941114659
 20
6.641007483096913
 10
-4.1915272780346
 20
6.640091268977385
 10
-4.190247826644441
 20
6.6391788497392845
 10
-4.188965595403431
 20
6.638270231786342
 10
-4.187680592770813
 20
6.6373654215222855
 10
-4.186392827205838
 20
6.6364644253508445
 10
-4.18510230716775
 20
6.6355672496757485
 10
-4.183809041115797
 20
6.634673900900725
 10
-4.182513037509226
 20
6.633784385429505
 10
-4.181214304807284
 20
6.632898709665816
 10
-4.179912851469218
 20
6.632016880013387
 10
-4.178608685954274
 20
6.631138902875947
 10
-4.177301816721701
 20
6.630264784657226
 10
-4.175992252230744
 20
6.629394531760953
 10
-4.174680000940651
 20
6.6285281505908555
 10
-4.173365071310668
 20
6.627665647550663
 10
-4.1720474718000435
 20
6.626807029044106
  0
LWPOLYLINE
  5
3B
330
17
100
AcDbEntity
  8
0
100
AcDbPolyline
 90
65
 70
0
 10
-3.9438134717332636
 20
7.176667348534248
 10
-3.9464475759540303
 20
7.179018168425871
 10
-3.9491005955253264
 20
7.181344370881109
 10
-3.9517723503521576
 20
7.183645868066103
 10
-3.954462660339528
 20
7.1859225721469855
 10
-3.9571713453924393
 20
7.188174395289898
 10
-3.959898225415899
 20
7.190401249660972
 10
-3.962643120314909
 20
7.192603047426348
 10
-3.9654058499944744
 20
7.194779700752163
 10
-3.968186234359599
 20
7.1969311218045515
 10
-3.9709840933152876
 20
7.199057222749652
 10
-3.973799246766544
 20
7.201157915753601
 10
-3.976631514618372
 20
7.203233112982534
 10
-3.979480716775777
 20
7.20528272660259
 10
-3.9823466731437622
 20
7.207306668779904
 10
-3.9852292036273322
 20
7.209304851680615
 10
-3.9881281281314904
 20
7.211277187470857
 10
-3.9910432665612423
 20
7.213223588316768
 10
-3.9939744388215908
 20
7.2151439663844865
 10
-3.9969214648175404
 20
7.217038233840147
 10
-3.999884164454096
 20
7.218906302849886
 10
-4.0028623576362605
 20
7.220748085579842
 10
-4.005855864269041
 20
7.222563494196152
 10
-4.008864504257438
 20
7.22435244086495
 10
-4.011888097506457
 20
7.226114837752377
 10
-4.014926463921103
 20
7.227850597024567
 10
-4.01797942340638
 20
7.229559630847657
 10
-4.021046795867291
 20
7.231241851387784
 10
-4.024128401208842
 20
7.2328971708110865
 10
-4.027224059336036
 20
7.2345255012836995
 10
-4.0303335901538775
 20
7.236126754971759
 10
-4.03345681356737
 20
7.237700844041404
 10
-4.036593549481519
 20
7.23924768065877
 10
-4.039743617801328
 20
7.240767176989993
 10
-4.042906838431801
 20
7.242259245201214
 10
-4.046083031277942
 20
7.243723797458563
 10
-4.049272016244756
 20
7.2451607459281835
 10
-4.052473613237247
 20
7.246570002776208
 10
-4.055687642160419
 20
7.247951480168775
 10
-4.058913922919276
 20
7.2493050902720215
 10
-4.062152275418822
 20
7.250630745252082
 10
-4.065402519564061
 20
7.251928357275097
 10
-4.0686644752599985
 20
7.2531978385072
 10
-4.0719379624116385
 20
7.254439101114531
 10
-4.075222800923983
 20
7.255652057263224
 10
-4.078518810702039
 20
7.256836619119417
 10
-4.081825811650809
 20
7.257992698849246
 10
-4.085143623675298
 20
7.259120208618849
 10
-4.088472066680509
 20
7.260219060594363
 10
-4.091810960571448
 20
7.261289166941922
 10
-4.095160125253118
 20
7.262330439827666
 10
-4.098519380630524
 20
7.263342791417732
 10
-4.101888546608668
 20
7.264326133878255
 10
-4.105267443092557
 20
7.265280379375371
 10
-4.108655889987194
 20
7.266205440075219
 10
-4.112053707197583
 20
7.267101228143935
 10
-4.115460714628728
 20
7.267967655747656
 10
-4.118876732185633
 20
7.268804635052518
 10
-4.122301579773304
 20
7.269612078224659
 10
-4.125735077296743
 20
7.270389897430214
 10
-4.129177044660956
 20
7.271138004835322
 10
-4.132627301770946
 20
7.271856312606119
 10
-4.1360856685317176
 20
7.272544732908742
 10
-4.139551964848274
 20
7.273203177909326
 10
-4.143026010625621
 20
7.273831559774011
  0
LWPOLYLINE
  5
3C
330
17
100
AcDbEntity
  8
0
100
AcDbPolyline
 90
129
 70
0
 10
-4.60611554623542
 20
6.961472626726627
 10
-4.606387218469313
 20
6.960184067903015
 10
-4.606654649458147
 20
6.958894735255953
 10
-4.60691783801605
 20
6.957604639221148
 10
-4.607176782957143
 20
6.956313790234307
 10
-4.607431483095552
 20
6.955022198731134
 10
-4.6076819372454
 20
6.953729875147338
 10
-4.607928144220813
 20
6.952436829918624
 10
-4.608170102835914
 20
6.9511430734807
 10
-4.608407811904828
 20
6.9498486162692705
 10
-4.608641270241679
 20
6.9485534687200445
 10
-4.6088704766605915
 20
6.947257641268727
 10
-4.609095429975689
 20
6.945961144351024
 10
-4.609316129001096
 20
6.9446639884026435
 10
-4.609532572550936
 20
6.943366183859291
 10
-4.609744759439336
 20
6.942067741156673
 10
-4.609952688480417
 20
6.940768670730497
 10
-4.610156358488306
 20
6.939468983016468
 10
-4.610355768277125
 20
6.938168688450293
 10
-4.610550916661
 20
6.936867797467679
 10
-4.610741802454054
 20
6.935566320504334
 10
-4.610928424470412
 20
6.934264267995961
 10
-4.611110781524197
 20
6.932961650378269
 10
-4.611288872429536
 20
6.931658478086964
 10
-4.61146269600055
 20
6.930354761557752
 10
-4.611632251051366
 20
6.929050511226341
 10
-4.611797536396106
 20
6.927745737528436
 10
-4.611958550848896
 20
6.926440450899743
 10
-4.61211529322386
 20
6.925134661775971
 10
-4.6122677623351205
 20
6.923828380592824
 10
-4.612415956996804
 20
6.92252161778601
 10
-4.612559876023033
 20
6.921214383791236
 10
-4.612699518227933
 20
6.919906689044206
 10
-4.612834882425629
 20
6.918598543980629
 10
-4.612965967430243
 20
6.91728995903621
 10
-4.6130927720559
 20
6.915980944646656
 10
-4.613215295116725
 20
6.914671511247674
 10
-4.613333535426842
 20
6.913361669274971
 10
-4.613447491800375
 20
6.912051429164251
 10
-4.613557163051449
 20
6.910740801351223
 10
-4.6136625479941875
 20
6.909429796271593
 10
-4.613763645442715
 20
6.908118424361067
 10
-4.613860454211156
 20
6.906806696055352
 10
-4.6139529731136335
 20
6.905494621790153
 10
-4.614041200964273
 20
6.90418221200118
 10
-4.614125136577199
 20
6.902869477124135
 10
-4.614204778766535
 20
6.901556427594728
 10
-4.614280126346404
 20
6.900243073848665
 10
-4.614351178130934
 20
6.898929426321651
 10
-4.614417932934247
 20
6.897615495449394
 10
-4.614480389570466
 20
6.896301291667598
 10
-4.614538546853717
 20
6.894986825411973
 10
-4.614592403598123
 20
6.893672107118223
 10
-4.61464195861781
 20
6.892357147222057
 10
-4.614687210726902
 20
6.891041956159179
 10
-4.614728158739521
 20
6.889726544365296
 10
-4.614764801469793
 20
6.888410922276116
 10
-4.614797137731843
 20
6.887095100327344
 10
-4.614825166339794
 20
6.8857790889546875
 10
-4.6148488861077706
 20
6.884462898593852
 10
-4.614868295849897
 20
6.883146539680545
 10
-4.614883394380297
 20
6.881830022650472
 10
-4.6148941805130965
 20
6.880513357939341
 10
-4.614900653062418
 20
6.8791965559828565
 10
-4.614902810842386
 20
6.877879627216726
 10
-4.6148968012984835
 20
6.875681463106383
 10
-4.614878778358976
 20
6.873483873513307
 10
-4.614848750562174
 20
6.871286906742171
 10
-4.6148067264463775
 20
6.869090611097644
 10
-4.614752714549895
 20
6.866895034884401
 10
-4.6146867234110305
 20
6.864700226407112
 10
-4.614608761568089
 20
6.862506233970449
 10
-4.614518837559379
 20
6.860313105879085
 10
-4.614416959923202
 20
6.85812089043769
 10
-4.614303137197863
 20
6.855929635950937
 10
-4.6141773779216715
 20
6.853739390723498
 10
-4.6140396906329295
 20
6.851550203060045
 10
-4.6138900838699435
 20
6.849362121265249
 10
-4.6137285661710195
 20
6.847175193643782
 10
-4.613555146074461
 20
6.844989468500316
 10
-4.613369832118574
 20
6.842804994139522
 10
-4.613172632841664
 20
6.840621818866073
 10
-4.612963556782037
 20
6.838439990984641
 10
-4.612742612477997
 20
6.836259558799897
 10
-4.612509808467851
 20
6.834080570616515
 10
-4.612265153289903
 20
6.831903074739163
 10
-4.612008655482459
 20
6.829727119472515
 10
-4.611740323583824
 20
6.8275527531212425
 10
-4.611460166132304
 20
6.825380023990019
 10
-4.611168191666202
 20
6.823208980383513
 10
-4.610864408723827
 20
6.821039670606399
 10
-4.610548825843481
 20
6.8188721429633485
 10
-4.610221451563472
 20
6.816706445759032
 10
-4.609882294422103
 20
6.814542627298123
 10
-4.609531362957681
 20
6.812380735885292
 10
-4.609168665708511
 20
6.810220819825211
 10
-4.6087942112128975
 20
6.8080629274225535
 10
-4.608408008009147
 20
6.805907106981989
 10
-4.608010064635564
 20
6.80375340680819
 10
-4.607600389630453
 20
6.801601875205829
 10
-4.6071789915321215
 20
6.799452560479579
 10
-4.606745878878874
 20
6.797305510934109
 10
-4.606301060209016
 20
6.795160774874091
 10
-4.605844544060851
 20
6.7930184006042005
 10
-4.605376338972686
 20
6.7908784364291055
 10
-4.6048964534828265
 20
6.78874093065348
 10
-4.604404896129577
 20
6.786605931581994
 10
-4.603901675451244
 20
6.784473487519322
 10
-4.603386799986132
 20
6.7823436467701335
 10
-4.602860278272546
 20
6.7802164576391
 10
-4.602322118848791
 20
6.7780919684308945
 10
-4.601772330253175
 20
6.77597022745019
 10
-4.601210921023999
 20
6.773851283001656
 10
-4.600637899699573
 20
6.771735183389966
 10
-4.600053274818198
 20
6.769621976919791
 10
-4.599457054918183
 20
6.767511711895803
 10
-4.598849248537832
 20
6.765404436622674
 10
-4.598229864215449
 20
6.763300199405076
 10
-4.59759891048934
 20
6.76119904854768
 10
-4.596956395897812
 20
6.759101032355159
 10
-4.596302328979168
 20
6.757006199132184
 10
-4.595636718271716
 20
6.7549145971834275
 10
-4.594959572313758
 20
6.75282627481356
 10
-4.594270899643601
 20
6.750741280327254
 10
-4.593570708799551
 20
6.7486596620291825
 10
-4.5928590083199134
 20
6.746581468224016
 10
-4.592135806742992
 20
6.744506747216428
 10
-4.591401112607094
 20
6.742435547311087
 10
-4.590654934450522
 20
6.740367916812668
  0
LWPOLYLINE
  5
3D
330
17
100
AcDbEntity
  8
0
100
AcDbPolyline
 90
65
 70
0
 10
-4.0885995450548815
 20
6.495498906389305
 10
-4.085246725701825
 20
6.496604576728682
 10
-4.0819057655014666
 20
6.4977389450238086
 10
-4.078576830555468
 20
6.4989018990908365
 10
-4.075260086965493
 20
6.500093326745922
 10
-4.071955700833201
 20
6.501313115805221
 10
-4.068663838260257
 20
6.502561154084889
 10
-4.06538466534832
 20
6.50383732940108
 10
-4.062118348199055
 20
6.505141529569946
 10
-4.058865052914122
 20
6.506473642407648
 10
-4.055624945595184
 20
6.507833555730335
 10
-4.052398192343904
 20
6.509221157354166
 10
-4.049184959261941
 20
6.510636335095294
 10
-4.0459854124509596
 20
6.512078976769875
 10
-4.042799718012621
 20
6.513548970194062
 10
-4.039628042048589
 20
6.515046203184013
 10
-4.036470550660523
 20
6.516570563555881
 10
-4.033327409950087
 20
6.51812193912582
 10
-4.030198786018942
 20
6.519700217709986
 10
-4.02708484496875
 20
6.521305287124536
 10
-4.023985752901174
 20
6.522937035185621
 10
-4.020901675917876
 20
6.524595349709399
 10
-4.017832780120517
 20
6.526280118512024
 10
-4.01477923161076
 20
6.5279912294096505
 10
-4.011741196490267
 20
6.529728570218433
 10
-4.008718840860699
 20
6.531492028754529
 10
-4.0057123308237195
 20
6.5332814928340905
 10
-4.00272183248099
 20
6.535096850273273
 10
-3.9997475119341726
 20
6.536937988888232
 10
-3.99678953528493
 20
6.538804796495123
 10
-3.9938480686349225
 20
6.540697160910099
 10
-3.9909232780858135
 20
6.5426149699493195
 10
-3.988015329739265
 20
6.544558111428933
 10
-3.985124389696939
 20
6.546526473165099
 10
-3.9822506240604976
 20
6.548519942973971
 10
-3.979394198931603
 20
6.550538408671704
 10
-3.976555280411917
 20
6.552581758074453
 10
-3.973734034603101
 20
6.554649878998373
 10
-3.9709306276068186
 20
6.556742659259618
 10
-3.9681452255247303
 20
6.558859986674345
 10
-3.9653779944584993
 20
6.561001749058708
 10
-3.9626291005097873
 20
6.56316783422886
 10
-3.959898709780257
 20
6.565358130000959
 10
-3.957186988371569
 20
6.567572524191158
 10
-3.9544941023853863
 20
6.569810904615612
 10
-3.9518202179233715
 20
6.572073159090476
 10
-3.9491655010871853
 20
6.574359175431906
 10
-3.946530117978491
 20
6.5766688414560575
 10
-3.94391423469895
 20
6.579002044979083
 10
-3.9413180173502242
 20
6.581358673817139
 10
-3.938741632033977
 20
6.5837386157863795
 10
-3.9361852448518686
 20
6.5861417587029605
 10
-3.933649021905562
 20
6.588567990383036
 10
-3.9311331292967204
 20
6.591017198642762
 10
-3.9286377331270033
 20
6.593489271298292
 10
-3.9261629994980756
 20
6.5959840961657825
 10
-3.923709094511597
 20
6.598501561061387
 10
-3.9212761842692307
 20
6.601041553801261
 10
-3.918864434872639
 20
6.603603962201561
 10
-3.916474012423483
 20
6.606188674078439
 10
-3.914105083023425
 20
6.608795577248053
 10
-3.9117578127741286
 20
6.611424559526554
 10
-3.9094323677772542
 20
6.614075508730101
 10
-3.907128914134464
 20
6.616748312674847
 10
-3.904847617947421
 20
6.619442859176948
  0
LWPOLYLINE
  5
3E
330
17
100
AcDbEntity
  8
0
100
AcDbPolyline
 90
65
 70
0
 10
-4.348431774926898
 20
7.007332890950953
 10
-4.3502267491649125
 20
7.006848528503469
 10
-4.352019814854509
 20
7.006357847789096
 10
-4.35381095578872
 20
7.005860855211565
 10
-4.355600155760579
 20
7.005357557174604
 10
-4.357387398563113
 20
7.004847960081942
 10
-4.359172667989358
 20
7.004332070337309
 10
-4.360955947832343
 20
7.003809894344433
 10
-4.362737221885101
 20
7.003281438507043
 10
-4.364516473940662
 20
7.002746709228869
 10
-4.366293687792059
 20
7.002205712913638
 10
-4.368068847232323
 20
7.001658455965082
 10
-4.369841936054485
 20
7.001104944786927
 10
-4.371612938051577
 20
7.000545185782904
 10
-4.37338183701663
 20
6.999979185356741
 10
-4.375148616742678
 20
6.999406949912168
 10
-4.376913261022748
 20
6.998828485852912
 10
-4.378675753649876
 20
6.9982437995827045
 10
-4.380436078417092
 20
6.997652897505271
 10
-4.382194219117427
 20
6.997055786024346
 10
-4.383950159543912
 20
6.996452471543654
 10
-4.38570388348958
 20
6.995842960466925
 10
-4.387455374747462
 20
6.995227259197887
 10
-4.389204617110589
 20
6.9946053741402725
 10
-4.390951594371993
 20
6.993977311697808
 10
-4.392696290324706
 20
6.993343078274222
 10
-4.394438688761759
 20
6.992702680273244
 10
-4.3961787734761835
 20
6.992056124098604
 10
-4.397916528261011
 20
6.99140341615403
 10
-4.399651936909274
 20
6.990744562843251
 10
-4.401384983214003
 20
6.990079570569996
 10
-4.403115650968229
 20
6.989408445737996
 10
-4.404843923964985
 20
6.988731194750978
 10
-4.406569785997302
 20
6.9880478240126696
 10
-4.408293220858211
 20
6.987358339926803
 10
-4.410014212340745
 20
6.986662748897104
 10
-4.411732744237934
 20
6.985961057327305
 10
-4.4134488003428105
 20
6.985253271621132
 10
-4.415162364448404
 20
6.984539398182316
 10
-4.416873420347749
 20
6.9838194434145855
 10
-4.418581951833876
 20
6.983093413721669
 10
-4.420287942699816
 20
6.982361315507295
 10
-4.4219913767386005
 20
6.981623155175194
 10
-4.4236922377432615
 20
6.980878939129094
 10
-4.425390509506831
 20
6.980128673772724
 10
-4.427086175822339
 20
6.979372365509815
 10
-4.428779220482818
 20
6.978610020744092
 10
-4.4304696272813
 20
6.977841645879288
 10
-4.432157380010816
 20
6.9770672473191295
 10
-4.433842462464398
 20
6.976286831467346
 10
-4.435524858435077
 20
6.975500404727668
 10
-4.437204551715884
 20
6.974707973503822
 10
-4.438881526099852
 20
6.973909544199539
 10
-4.440555765380012
 20
6.973105123218546
 10
-4.442227253349395
 20
6.972294716964575
 10
-4.443895973801032
 20
6.971478331841353
 10
-4.445561910527957
 20
6.970655974252608
 10
-4.447225047323199
 20
6.969827650602071
 10
-4.44888536797979
 20
6.96899336729347
 10
-4.450542856290763
 20
6.968153130730534
 10
-4.452197496049149
 20
6.967306947316993
 10
-4.453849271047979
 20
6.9664548234565755
 10
-4.455498165080284
 20
6.96559676555301
 10
-4.457144161939096
 20
6.964732780010025
 10
-4.458787245417448
 20
6.963862873231351
  0
LWPOLYLINE
  5
3F
330
17
100
AcDbEntity
  8
0
100
AcDbPolyline
 90
65
 70
0
 10
-4.03293996098387
 20
6.930575581950953
 10
-4.032461970655208
 20
6.93237226367874
 10
-4.031990403820141
 20
6.934170451152485
 10
-4.031525263166655
 20
6.935970127137459
 10
-4.031066551382733
 20
6.937771274398934
 10
-4.030614271156361
 20
6.9395738757021865
 10
-4.030168425175524
 20
6.941377913812484
 10
-4.029729016128209
 20
6.943183371495103
 10
-4.029296046702397
 20
6.944990231515313
 10
-4.028869519586076
 20
6.946798476638389
 10
-4.02844943746723
 20
6.948608089629602
 10
-4.028035803033845
 20
6.950419053254226
 10
-4.027628618973904
 20
6.952231350277532
 10
-4.0272278879753935
 20
6.954044963464793
 10
-4.026833612726299
 20
6.955859875581283
 10
-4.026445795914604
 20
6.9576760693922735
 10
-4.026064440228295
 20
6.959493527663036
 10
-4.025689548355356
 20
6.961312233158845
 10
-4.0253211229837715
 20
6.963132168644972
 10
-4.024959166801528
 20
6.96495331688669
 10
-4.024603682496609
 20
6.966775660649271
 10
-4.024254672757001
 20
6.968599182697988
 10
-4.0239121402706886
 20
6.970423865798112
 10
-4.023576087725656
 20
6.972249692714919
 10
-4.0232465178098895
 20
6.974076646213679
 10
-4.022923433211373
 20
6.975904709059665
 10
-4.022606836618091
 20
6.977733864018149
 10
-4.022296730718031
 20
6.979564093854406
 10
-4.021993118199175
 20
6.981395381333706
 10
-4.02169600174951
 20
6.983227709221323
 10
-4.0214053840570205
 20
6.985061060282528
 10
-4.021121267809692
 20
6.986895417282595
 10
-4.020843655695508
 20
6.988730762986796
 10
-4.020572550402455
 20
6.990567080160403
 10
-4.0203079546185165
 20
6.992404351568692
 10
-4.02004987103168
 20
6.9942425599769305
 10
-4.019798302329927
 20
6.996081688150394
 10
-4.019553251201246
 20
6.9979217188543545
 10
-4.01931472033362
 20
6.9997626348540845
 10
-4.0190827124150355
 20
7.001604418914857
 10
-4.0188572301334755
 20
7.003447053801944
 10
-4.018638276176927
 20
7.005290522280617
 10
-4.0184258532333725
 20
7.007134807116152
 10
-4.0182199639908
 20
7.008979891073819
 10
-4.018020611137192
 20
7.01082575691889
 10
-4.017827797360535
 20
7.0126723874166395
 10
-4.0176415253488145
 20
7.014519765332339
 10
-4.0174617977900136
 20
7.0163678734312604
 10
-4.017288617372119
 20
7.018216694478678
 10
-4.017121986783115
 20
7.020066211239863
 10
-4.016961908710986
 20
7.021916406480088
 10
-4.016808385843719
 20
7.023767262964626
 10
-4.016661420869296
 20
7.025618763458751
 10
-4.016521016475704
 20
7.027470890727732
 10
-4.016387175350929
 20
7.0293236275368445
 10
-4.016259900182954
 20
7.031176956651361
 10
-4.016139193659765
 20
7.033030860836553
 10
-4.016025058469346
 20
7.0348853228576935
 10
-4.015917497299683
 20
7.0367403254800545
 10
-4.015816512838761
 20
7.038595851468909
 10
-4.015722107774565
 20
7.04045188358953
 10
-4.0156342847950794
 20
7.04230840460719
 10
-4.01555304658829
 20
7.04416539728716
 10
-4.015478395842181
 20
7.046022844394715
 10
-4.015410335244739
 20
7.047880728695126
  0
LWPOLYLINE
  5
40
330
17
100
AcDbEntity
  8
0
100
AcDbPolyline
 90
65
 70
0
 10
-4.257160281226242
 20
6.695730408748273
 10
-4.25584329731689
 20
6.694418246359331
 10
-4.25452179846236
 20
6.693110886609022
 10
-4.253195798181635
 20
6.691808340565519
 10
-4.2518653099937
 20
6.6905106192969965
 10
-4.250530347417536
 20
6.689217733871627
 10
-4.249190923972129
 20
6.687929695357584
 10
-4.24784705317646
 20
6.6866465148230425
 10
-4.246498748549513
 20
6.685368203336176
 10
-4.245146023610273
 20
6.684094771965156
 10
-4.243788891877722
 20
6.682826231778159
 10
-4.242427366870844
 20
6.681562593843355
 10
-4.241061462108623
 20
6.680303869228921
 10
-4.23969119111004
 20
6.679050069003028
 10
-4.238316567394081
 20
6.677801204233852
 10
-4.23693760447973
 20
6.676557285989566
 10
-4.235554315885968
 20
6.675318325338341
 10
-4.234166715131779
 20
6.674084333348354
 10
-4.232774815736147
 20
6.672855321087775
 10
-4.231378631218057
 20
6.6716312996247815
 10
-4.229978175096489
 20
6.670412280027545
 10
-4.22857346089043
 20
6.6691982733642385
 10
-4.22716450211886
 20
6.667989290703037
 10
-4.2257513123007655
 20
6.666785343112114
 10
-4.224333904955128
 20
6.6655864416596415
 10
-4.222912293600932
 20
6.664392597413794
 10
-4.22148649175716
 20
6.663203821442746
 10
-4.220056512942796
 20
6.66202012481467
 10
-4.218622370676824
 20
6.660841518597739
 10
-4.217184078478226
 20
6.659668013860129
 10
-4.215741649865987
 20
6.6584996216700105
 10
-4.21429509835909
 20
6.657336353095559
 10
-4.212844437476518
 20
6.656178219204949
 10
-4.211389680737254
 20
6.655025231066351
 10
-4.209930841660283
 20
6.653877399747941
 10
-4.208467933764586
 20
6.652734736317892
 10
-4.207000970569149
 20
6.651597251844378
 10
-4.205529965592954
 20
6.650464957395571
 10
-4.204054932354986
 20
6.649337864039646
 10
-4.202575884374226
 20
6.648215982844777
 10
-4.201092835169659
 20
6.647099324879136
 10
-4.199605798260269
 20
6.645987901210898
 10
-4.1981147871650375
 20
6.644881722908235
 10
-4.19661981540295
 20
6.6437808010393224
 10
-4.195120896492988
 20
6.642685146672332
 10
-4.193618043954136
 20
6.6415947708754395
 10
-4.192111271305378
 20
6.640509684716816
 10
-4.190600592065697
 20
6.639429899264637
 10
-4.189086019754076
 20
6.6383554255870765
 10
-4.187567567889499
 20
6.637286274752306
 10
-4.186045249990948
 20
6.636222457828499
 10
-4.1845190795774085
 20
6.635163985883831
 10
-4.182989070167863
 20
6.634110869986475
 10
-4.181455235281295
 20
6.633063121204605
 10
-4.1799175884366875
 20
6.632020750606393
 10
-4.178376143153025
 20
6.6309837692600135
 10
-4.176830912949289
 20
6.62995218823364
 10
-4.175281911344467
 20
6.628926018595447
 10
-4.173729151857537
 20
6.627905271413606
 10
-4.1721726480074866
 20
6.626889957756292
 10
-4.170612413313298
 20
6.625880088691679
 10
-4.169048461293953
 20
6.624875675287941
 10
-4.167480805468437
 20
6.62387672861325
 10
-4.165909459355733
 20
6.622883259735778
 10
-4.1643344364748245
 20
6.621895279723702
  0
LWPOLYLINE
  5
41
330
17
100
AcDbEntity
  8
0
100
AcDbPolyline
 90
65
 70
0
 10
-3.933551300684798
 20
7.167096000175009
 10
-3.936426706189743
 20
7.16984550846006
 10
-3.939326911044409
 20
7.172564346124599
 10
-3.942251658783404
 20
7.17525238817732
 10
-3.9452006929413326
 20
7.177909509626921
 10
-3.9481737570528037
 20
7.1805355854821
 10
-3.951170594652421
 20
7.183130490751553
 10
-3.954190949274793
 20
7.185694100443978
 10
-3.9572345644545255
 20
7.188226289568069
 10
-3.9603011837262247
 20
7.190726933132528
 10
-3.963390550624498
 20
7.193195906146047
 10
-3.9665024086839513
 20
7.1956330836173255
 10
-3.969636501439191
 20
7.198038340555061
 10
-3.9727925724248236
 20
7.200411551967947
 10
-3.9759703651754554
 20
7.202752592864684
 10
-3.979169623225694
 20
7.205061338253968
 10
-3.9823900901101448
 20
7.207337663144496
 10
-3.9856315093634143
 20
7.209581442544964
 10
-3.9888936245201103
 20
7.211792551464069
 10
-3.992176179114837
 20
7.213970864910508
 10
-3.995478916682203
 20
7.21611625789298
 10
-3.998801580756814
 20
7.2182286054201805
 10
-4.002143914873276
 20
7.2203077825008055
 10
-4.005505662566196
 20
7.222353664143553
 10
-4.008886567370181
 20
7.224366125357118
 10
-4.012286372819836
 20
7.226345041150201
 10
-4.01570482244977
 20
7.228290286531496
 10
-4.019141659794586
 20
7.230201736509701
 10
-4.022596628388894
 20
7.232079266093513
 10
-4.026069471767298
 20
7.2339227502916295
 10
-4.029559933464406
 20
7.235732064112747
 10
-4.033067757014823
 20
7.2375070825655605
 10
-4.036592685953157
 20
7.23924768065877
 10
-4.040134463814014
 20
7.240953733401071
 10
-4.043692834132001
 20
7.24262511580116
 10
-4.047267540441723
 20
7.244261702867734
 10
-4.050858326277788
 20
7.245863369609491
 10
-4.054464935174801
 20
7.247429991035128
 10
-4.05808711066737
 20
7.24896144215334
 10
-4.061724596290101
 20
7.250457597972827
 10
-4.0653771355776
 20
7.2519183335022825
 10
-4.069044472064474
 20
7.253343523750406
 10
-4.072726349285329
 20
7.254733043725893
 10
-4.076422510774772
 20
7.256086768437441
 10
-4.080132700067409
 20
7.257404572893747
 10
-4.083856660697847
 20
7.258686332103507
 10
-4.087594136200693
 20
7.259931921075419
 10
-4.091344870110552
 20
7.261141214818181
 10
-4.0951086059620305
 20
7.262314088340488
 10
-4.098885087289737
 20
7.263450416651037
 10
-4.102674057628277
 20
7.264550074758526
 10
-4.106475260512256
 20
7.265612937671652
 10
-4.110288439476282
 20
7.26663888039911
 10
-4.11411333805496
 20
7.2676277779496
 10
-4.117949699782898
 20
7.268579505331815
 10
-4.1217972681947
 20
7.269493937554456
 10
-4.125655786824976
 20
7.270370949626218
 10
-4.12952499920833
 20
7.271210416555799
 10
-4.133404648879369
 20
7.272012213351894
 10
-4.1372944793727005
 20
7.2727762150232005
 10
-4.14119423422293
 20
7.273502296578416
 10
-4.145103656964664
 20
7.274190333026237
 10
-4.149022491132508
 20
7.274840199375362
 10
-4.1529504802610715
 20
7.2754517706344854
 10
-4.156887367884958
 20
7.276024921812305
  0
LWPOLYLINE
  5
42
330
17
100
AcDbEntity
  8
0
100
AcDbPolyline
 90
129
 70
0
 10
-4.602958486545654
 20
6.975147461859873
 10
-4.603327523157123
 20
6.973655477331952
 10
-4.603690809931477
 20
6.972162269612733
 10
-4.604048344892255
 20
6.9706678551463614
 10
-4.604400126062998
 20
6.969172250376979
 10
-4.604746151467247
 20
6.967675471748731
 10
-4.605086419128541
 20
6.96617753570576
 10
-4.605420927070421
 20
6.964678458692209
 10
-4.605749673316428
 20
6.963178257152222
 10
-4.6060726558901015
 20
6.961676947529945
 10
-4.606389872814983
 20
6.960174546269518
 10
-4.606701322114612
 20
6.958671069815087
 10
-4.607007001812529
 20
6.957166534610793
 10
-4.607306909932276
 20
6.9556609571007835
 10
-4.6076010444973905
 20
6.954154353729199
 10
-4.6078894035314155
 20
6.952646740940184
 10
-4.60817198505789
 20
6.9511381351778825
 10
-4.608448787100356
 20
6.949628552886438
 10
-4.608719807682351
 20
6.948118010509993
 10
-4.608985044827419
 20
6.946606524492693
 10
-4.609244496559098
 20
6.94509411127868
 10
-4.609498160900929
 20
6.943580787312097
 10
-4.609746035876454
 20
6.94206656903709
 10
-4.609988119509211
 20
6.940551472897803
 10
-4.610224409822742
 20
6.939035515338376
 10
-4.610454904840586
 20
6.937518712802954
 10
-4.610679602586285
 20
6.936001081735682
 10
-4.610898501083379
 20
6.934482638580704
 10
-4.611111598355407
 20
6.932963399782162
 10
-4.6113188924259125
 20
6.9314433817842
 10
-4.611520381318433
 20
6.92992260103096
 10
-4.61171606305651
 20
6.928401073966588
 10
-4.611905935663684
 20
6.926878817035227
 10
-4.612089997163496
 20
6.925355846681022
 10
-4.612268245579485
 20
6.923832179348114
 10
-4.612440678935192
 20
6.922307831480646
 10
-4.612607295254159
 20
6.920782819522765
 10
-4.612768092559923
 20
6.9192571599186135
 10
-4.612923068876029
 20
6.917730869112333
 10
-4.6130722222260125
 20
6.916203963548069
 10
-4.613215550633418
 20
6.914676459669964
 10
-4.613353052121784
 20
6.913148373922163
 10
-4.6134847247146515
 20
6.911619722748809
 10
-4.61361056643556
 20
6.910090522594045
 10
-4.613730575308051
 20
6.908560789902015
 10
-4.613844749355666
 20
6.907030541116863
 10
-4.613953086601942
 20
6.905499792682733
 10
-4.614055585070422
 20
6.903968561043767
 10
-4.6141522427846455
 20
6.90243686264411
 10
-4.614243057768155
 20
6.900904713927905
 10
-4.614328028044487
 20
6.899372131339295
 10
-4.614407151637185
 20
6.897839131322424
 10
-4.614480426569789
 20
6.896305730321436
 10
-4.614547850865838
 20
6.8947719447804765
 10
-4.614609422548875
 20
6.893237791143686
 10
-4.614665139642438
 20
6.8917032858552085
 10
-4.614715000170068
 20
6.890168445359189
 10
-4.614759002155306
 20
6.88863328609977
 10
-4.614797143621693
 20
6.887097824521096
 10
-4.614829422592767
 20
6.885562077067309
 10
-4.614855837092072
 20
6.884026060182555
 10
-4.614876385143145
 20
6.882489790310975
 10
-4.6148910647695285
 20
6.880953283896715
 10
-4.614899873994761
 20
6.879416557383918
 10
-4.614902810842386
 20
6.877879627216726
 10
-4.614895531963443
 20
6.875460385575793
 10
-4.614873703654096
 20
6.873041916177141
 10
-4.614837338405571
 20
6.8706242828999455
 10
-4.614786448709091
 20
6.868207549623379
 10
-4.614721047055881
 20
6.865791780226613
 10
-4.614641145937165
 20
6.863377038588823
 10
-4.614546757844169
 20
6.860963388589181
 10
-4.614437895268115
 20
6.858550894106862
 10
-4.6143145707002295
 20
6.856139619021037
 10
-4.614176796631736
 20
6.85372962721088
 10
-4.61402458555386
 20
6.851320982555564
 10
-4.613857949957825
 20
6.848913748934263
 10
-4.613676902334856
 20
6.84650799022615
 10
-4.613481455176176
 20
6.844103770310398
 10
-4.613271620973012
 20
6.841701153066181
 10
-4.613047412216586
 20
6.83930020237267
 10
-4.612808841398124
 20
6.83690098210904
 10
-4.612555921008851
 20
6.8345035561544645
 10
-4.61228866353999
 20
6.832107988388116
 10
-4.612007081482766
 20
6.829714342689169
 10
-4.611711187328402
 20
6.827322682936795
 10
-4.611400993568125
 20
6.8249330730101665
 10
-4.611076512693159
 20
6.8225455767884595
 10
-4.610737757194728
 20
6.820160258150845
 10
-4.610384739564055
 20
6.817777180976498
 10
-4.610017472292367
 20
6.81539640914459
 10
-4.6096359678708865
 20
6.813018006534295
 10
-4.609240238790839
 20
6.810642037024787
 10
-4.608830297543449
 20
6.808268564495238
 10
-4.608406156619941
 20
6.805897652824822
 10
-4.607967828511538
 20
6.803529365892712
 10
-4.607515325709467
 20
6.801163767578081
 10
-4.60704866070495
 20
6.798800921760101
 10
-4.606567845989212
 20
6.796440892317948
 10
-4.606072894053479
 20
6.794083743130794
 10
-4.605563817388974
 20
6.791729538077812
 10
-4.605040628486923
 20
6.789378341038176
 10
-4.604503339838549
 20
6.787030215891056
 10
-4.603951963935076
 20
6.78468522651563
 10
-4.603386513267731
 20
6.782343436791068
 10
-4.6028070003277355
 20
6.780004910596545
 10
-4.6022134376063155
 20
6.777669711811233
 10
-4.601605837594695
 20
6.775337904314306
 10
-4.6009842127841
 20
6.773009551984936
 10
-4.600348575665753
 20
6.770684718702299
 10
-4.599698938730878
 20
6.768363468345564
 10
-4.599035314470702
 20
6.766045864793909
 10
-4.598357715376447
 20
6.763731971926502
 10
-4.59766615393934
 20
6.761421853622521
 10
-4.596960642650603
 20
6.759115573761136
 10
-4.596241194001462
 20
6.756813196221523
 10
-4.5955078204831405
 20
6.754514784882853
 10
-4.5947605345868645
 20
6.7522204036243
 10
-4.593999348803856
 20
6.749930116325038
 10
-4.593224275625342
 20
6.7476439868642375
 10
-4.592435327542545
 20
6.745362079121075
 10
-4.5916325170466905
 20
6.743084456974723
 10
-4.590815856629003
 20
6.740811184304353
 10
-4.589985358780707
 20
6.738542324989139
 10
-4.589141035993027
 20
6.736277942908256
 10
-4.588282900757187
 20
6.734018101940874
 10
-4.587410965564411
 20
6.73176286596617
 10
-4.586525242905924
 20
6.729512298863314
 10
-4.585625745272951
 20
6.72726646451148
  0
LWPOLYLINE
  5
43
330
17
100
AcDbEntity
  8
0
100
AcDbPolyline
 90
65
 70
0
 10
-4.102022229906559
 20
6.491395419615297
 10
-4.098203420588987
 20
6.492510989026067
 10
-4.094398767307306
 20
6.49366336533184
 10
-4.090608506762313
 20
6.494852388992802
 10
-4.086832875654808
 20
6.4960779004691345
 10
-4.0830721106855865
 20
6.4973397402210225
 10
-4.079326448555447
 20
6.498637748708649
 10
-4.0755961259651885
 20
6.4999717663922
 10
-4.071881379615608
 20
6.5013416337318555
 10
-4.068182446207503
 20
6.502747191187802
 10
-4.064499562441672
 20
6.504188279220222
 10
-4.060832965018913
 20
6.5056647382893
 10
-4.057182890640022
 20
6.507176408855218
 10
-4.0535495760058
 20
6.5087231313781615
 10
-4.049933257817042
 20
6.5103047463183135
 10
-4.0463341727745465
 20
6.511921094135858
 10
-4.042752557579113
 20
6.513572015290977
 10
-4.039188648931537
 20
6.515257350243856
 10
-4.035642683532617
 20
6.51697693945468
 10
-4.032114898083152
 20
6.51873062338363
 10
-4.028605529283939
 20
6.5205182424908905
 10
-4.025114813835775
 20
6.522339637236645
 10
-4.021642988439459
 20
6.524194648081079
 10
-4.018190289795789
 20
6.526083115484373
 10
-4.014756954605562
 20
6.528004879906713
 10
-4.011343219569577
 20
6.529959781808283
 10
-4.0079493213886295
 20
6.531947661649265
 10
-4.00457549676352
 20
6.533968359889843
 10
-4.001221982395045
 20
6.536021716990202
 10
-3.9978890149840014
 20
6.538107573410525
 10
-3.9945768312311887
 20
6.540225769610995
 10
-3.9912856678374045
 20
6.542376146051797
 10
-3.9880157615034455
 20
6.544558543193114
 10
-3.984767348930111
 20
6.546772801495129
 10
-3.9815406668181983
 20
6.5490187614180275
 10
-3.978335951868505
 20
6.551296263421991
 10
-3.9751534407818285
 20
6.553605147967205
 10
-3.9719933702589674
 20
6.555945255513852
 10
-3.968855977000719
 20
6.558316426522116
 10
-3.9657414977078815
 20
6.560718501452182
 10
-3.962650169081253
 20
6.563151320764232
 10
-3.9595822278216306
 20
6.56561472491845
 10
-3.956537910629812
 20
6.568108554375018
 10
-3.953517454206596
 20
6.570632649594125
 10
-3.95052109525278
 20
6.573186851035949
 10
-3.947549070469162
 20
6.575770999160677
 10
-3.9446016165565387
 20
6.578384934428493
 10
-3.9416789702157096
 20
6.581028497299577
 10
-3.9387813681474713
 20
6.5837015282341165
 10
-3.9359090470526223
 20
6.586403867692293
 10
-3.9330622436319604
 20
6.589135356134292
 10
-3.930241194586283
 20
6.591895834020295
 10
-3.927446136616388
 20
6.594685141810487
 10
-3.924677306423074
 20
6.597503119965053
 10
-3.9219349407071378
 20
6.600349608944174
 10
-3.9192192761693776
 20
6.603224449208035
 10
-3.9165305495105915
 20
6.60612748121682
 10
-3.913868997431577
 20
6.609058545430712
 10
-3.911234856633132
 20
6.612017482309896
 10
-3.908628363816055
 20
6.615004132314553
 10
-3.906049755681142
 20
6.61801833590487
 10
-3.9034992689291927
 20
6.621059933541029
 10
-3.9009771402610043
 20
6.6241287656832135
 10
-3.8984836063773742
 20
6.627224672791607
 10
-3.896018903979101
 20
6.630347495326394
  0
ENDSEC
  0
SECTION
  2
OBJECTS
  0
DICTIONARY
  5
A
330
0
100
AcDbDictionary
281
1
  3
ACAD_COLOR
350
B
  3
ACAD_GROUP
350
C
  3
ACAD_LAYOUT
350
D
  3
ACAD_MATERIAL
350
E
  3
ACAD_MLEADERSTYLE
350
F
  3
ACAD_MLINESTYLE
350
10
  3
ACAD_PLOTSETTINGS
350
11
  3
ACAD_PLOTSTYLENAME
350
12
  3
ACAD_SCALELIST
350
14
  3
ACAD_TABLESTYLE
350
15
  3
ACAD_VISUALSTYLE
350
16
  3
EZDXF_META
350
2D
  0
DICTIONARY
  5
B
330
A
100
AcDbDictionary
281
1
  0
DICTIONARY
  5
C
330
A
100
AcDbDictionary
281
1
  0
DICTIONARY
  5
D
330
A
100
AcDbDictionary
281
1
  3
Model
350
1A
  3
Layout1
350
1E
  0
DICTIONARY
  5
E
330
A
100
AcDbDictionary
281
1
  3
ByBlock
350
1F
  3
ByLayer
350
20
  3
Global
350
21
  0
DICTIONARY
  5
F
330
A
100
AcDbDictionary
281
1
  3
Standard
350
2C
  0
DICTIONARY
  5
10
330
A
100
AcDbDictionary
281
1
  3
Standard
350
22
  0
DICTIONARY
  5
11
330
A
100
AcDbDictionary
281
1
  0
ACDBDICTIONARYWDFLT
  5
12
330
A
100
AcDbDictionary
281
1
  3
Normal
350
13
100
AcDbDictionaryWithDefault
340
13
  0
ACDBPLACEHOLDER
  5
13
330
12
  0
DICTIONARY
  5
14
330
A
100
AcDbDictionary
281
1
  0
DICTIONARY
  5
15
330
A
100
AcDbDictionary
281
1
  0
DICTIONARY
  5
16
330
A
100
AcDbDictionary
281
1
  0
LAYOUT
  5
1A
330
D
100
AcDbPlotSettings
  1

  4
A3
  6

 40
7.5
 41
20.0
 42
7.5
 43
20.0
 44
420.0
 45
297.0
 46
0.0
 47
0.0
 48
0.0
 49
0.0
140
0.0
141
0.0
142
1.0
143
1.0
 70
1024
 72
1
 73
0
 74
5
  7

 75
16
 76
0
 77
2
 78
300
147
1.0
148
0.0
149
0.0
100
AcDbLayout
  1
Model
 70
1
 71
0
 10
0.0
 20
0.0
 11
420.0
 21
297.0
 12
0.0
 22
0.0
 32
0.0
 14
1e+20
 24
1e+20
 34
1e+20
 15
-1e+20
 25
-1e+20
 35
-1e+20
146
0.0
 13
0.0
 23
0.0
 33
0.0
 16
1.0
 26
0.0
 36
0.0
 17
0.0
 27
1.0
 37
0.0
 76
1
330
17
  0
LAYOUT
  5
1E
330
D
100
AcDbPlotSettings
  1

  4
A3
  6

 40
7.5
 41
20.0
 42
7.5
 43
20.0
 44
420.0
 45
297.0
 46
0.0
 47
0.0
 48
0.0
 49
0.0
140
0.0
141
0.0
142
1.0
143
1.0
 70
0
 72
1
 73
0
 74
5
  7

 75
16
 76
0
 77
2
 78
300
147
1.0
148
0.0
149
0.0
100
AcDbLayout
  1
Layout1
 70
1
 71
1
 10
0.0
 20
0.0
 11
420.0
 21
297.0
 12
0.0
 22
0.0
 32
0.0
 14
1e+20
 24
1e+20
 34
1e+20
 15
-1e+20
 25
-1e+20
 35
-1e+20
146
0.0
 13
0.0
 23
0.0
 33
0.0
 16
1.0
 26
0.0
 36
0.0
 17
0.0
 27
1.0
 37
0.0
 76
1
330
1B
  0
MATERIAL
  5
1F
102
{ACAD_REACTORS
330
E
102
}
330
E
100
AcDbMaterial
  1
ByBlock
  2

 70
0
 40
1.0
 71
1
 41
1.0
 91
-1023410177
 42
1.0
 72
1
  3

 73
1
 74
1
 75
1
 44
0.5
 73
0
 45
1.0
 46
1.0
 77
1
  4

 78
1
 79
1
170
1
 48
1.0
171
1
  6

172
1
173
1
174
1
140
1.0
141
1.0
175
1
  7

176
1
177
1
178
1
143
1.0
179
1
  8

270
1
271
1
272
1
145
1.0
146
1.0
273
1
  9

274
1
275
1
276
1
 42
1.0
 72
1
  3

 73
1
 74
1
 75
1
 94
63
  0
MATERIAL
  5
20
102
{ACAD_REACTORS
330
E
102
}
330
E
100
AcDbMaterial
  1
ByLayer
  2

 70
0
 40
1.0
 71
1
 41
1.0
 91
-1023410177
 42
1.0
 72
1
  3

 73
1
 74
1
 75
1
 44
0.5
 73
0
 45
1.0
 46
1.0
 77
1
  4

 78
1
 79
1
170
1
 48
1.0
171
1
  6

172
1
173
1
174
1
140
1.0
141
1.0
175
1
  7

176
1
177
1
178
1
143
1.0
179
1
  8

270
1
271
1
272
1
145
1.0
146
1.0
273
1
  9

274
1
275
1
276
1
 42
1.0
 72
1
  3

 73
1
 74
1
 75
1
 94
63
  0
MATERIAL
  5
21
102
{ACAD_REACTORS
330
E
102
}
330
E
100
AcDbMaterial
  1
Global
  2

 70
0
 40
1.0
 71
1
 41
1.0
 91
-1023410177
 42
1.0
 72
1
  3

 73
1
 74
1
 75
1
 44
0.5
 73
0
 45
1.0
 46
1.0
 77
1
  4

 78
1
 79
1
170
1
 48
1.0
171
1
  6

172
1
173
1
174
1
140
1.0
141
1.0
175
1
  7

176
1
177
1
178
1
143
1.0
179
1
  8

270
1
271
1
272
1
145
1.0
146
1.0
273
1
  9

274
1
275
1
276
1
 42
1.0
 72
1
  3

 73
1
 74
1
 75
1
 94
63
  0
MLINESTYLE
  5
22
102
{ACAD_REACTORS
330
10
102
}
330
10
100
AcDbMlineStyle
  2
Standard
 70
0
  3

 62
256
 51
90.0
 52
90.0
 71
2
 49
0.5
 62
256
  6
BYLAYER
 49
-0.5
 62
256
  6
BYLAYER
  0
MLEADERSTYLE
  5
2C
102
{ACAD_REACTORS
330
F
102
}
330
F
100
AcDbMLeaderStyle
179
2
170
2
171
1
172
0
 90
2
 40
0.0
 41
0.0
173
1
 91
-1056964608
 92
-2
290
1
 42
2.0
291
1
 43
8.0
  3
Standard
 44
4.0
300

342
29
174
1
175
1
176
0
178
1
 93
-1056964608
 45
4.0
292
0
297
0
 46
4.0
 94
-1056964608
 47
1.0
 49
1.0
140
1.0
294
1
141
0.0
177
0
142
1.0
295
0
296
0
143
3.75
271
0
272
9
273
9
  0
DICTIONARY
  5
2D
330
A
100
AcDbDictionary
280
1
281
1
  3
CREATED_BY_EZDXF
350
2E
  3
WRITTEN_BY_EZDXF
350
46
  0
DICTIONARYVAR
  5
2E
330
2D
100
DictionaryVariables
280
0
  1
1.4.3 @ 2026-05-01T15:52:42.252352+00:00
  0
DICTIONARYVAR
  5
46
330
2D
100
DictionaryVariables
280
0
  1
1.4.3 @ 2026-05-01T15:52:42.259616+00:00
  0
ENDSEC
  0
EOF
