  0
SECTION
  2
HEADER
  9
$ACADVER
  1
AC1024
  9
$ACADMAINTVER
 70
6
  9
$DWGCODEPAGE
  3
ANSI_1252
  9
$LASTSAVEDBY
  1
ezdxf
  9
$INSBASE
 10
0.0
 20
0.0
 30
0.0
  9
$EXTMIN
 10
1e+20
 20
1e+20
 30
1e+20
  9
$EXTMAX
 10
-1e+20
 20
-1e+20
 30
-1e+20
  9
$LIMMIN
 10
0.0
 20
0.0
  9
$LIMMAX
 10
420.0
 20
297.0
  9
$ORTHOMODE
 70
0
  9
$REGENMODE
 70
1
  9
$FILLMODE
 70
1
  9
$QTEXTMODE
 70
0
  9
$MIRRTEXT
 70
1
  9
$LTSCALE
 40
1.0
  9
$ATTMODE
 70
1
  9
$TEXTSIZE
 40
2.5
  9
$TRACEWID
 40
1.0
  9
$TEXTSTYLE
  7
Standard
  9
$CLAYER
  8
0
  9
$CELTYPE
  6
ByLayer
  9
$CECOLOR
 62
256
  9
$CELTSCALE
 40
1.0
  9
$DISPSILH
 70
0
  9
$DIMSCALE
 40
1.0
  9
$DIMASZ
 40
2.5
  9
$DIMEXO
 40
0.625
  9
$DIMDLI
 40
3.75
  9
$DIMRND
 40
0.0
  9
$DIMDLE
 40
0.0
  9
$DIMEXE
 40
1.25
  9
$DIMTP
 40
0.0
  9
$DIMTM
 40
0.0
  9
$DIMTXT
 40
2.5
  9
$DIMCEN
 40
2.5
  9
$DIMTSZ
 40
0.0
  9
$DIMTOL
 70
0
  9
$DIMLIM
 70
0
  9
$DIMTIH
 70
0
  9
$DIMTOH
 70
0
  9
$DIMSE1
 70
0
  9
$DIMSE2
 70
0
  9
$DIMTAD
 70
1
  9
$DIMZIN
 70
8
  9
$DIMBLK
  1

  9
$DIMASO
 70
1
  9
$DIMSHO
 70
1
  9
$DIMPOST
  1

  9
$DIMAPOST
  1

  9
$DIMALT
 70
0
  9
$DIMALTD
 70
3
  9
$DIMALTF
 40
0.03937007874
  9
$DIMLFAC
 40
1.0
  9
$DIMTOFL
 70
1
  9
$DIMTVP
 40
0.0
  9
$DIMTIX
 70
0
  9
$DIMSOXD
 70
0
  9
$DIMSAH
 70
0
  9
$DIMBLK1
  1

  9
$DIMBLK2
  1

  9
$DIMSTYLE
  2
ISO-25
  9
$DIMCLRD
 70
0
  9
$DIMCLRE
 70
0
  9
$DIMCLRT
 70
0
  9
$DIMTFAC
 40
1.0
  9
$DIMGAP
 40
0.625
  9
$DIMJUST
 70
0
  9
$DIMSD1
 70
0
  9
$DIMSD2
 70
0
  9
$DIMTOLJ
 70
0
  9
$DIMTZIN
 70
8
  9
$DIMALTZ
 70
0
  9
$DIMALTTZ
 70
0
  9
$DIMUPT
 70
0
  9
$DIMDEC
 70
2
  9
$DIMTDEC
 70
2
  9
$DIMALTU
 70
2
  9
$DIMALTTD
 70
3
  9
$DIMTXSTY
  7
Standard
  9
$DIMAUNIT
 70
0
  9
$DIMADEC
 70
0
  9
$DIMALTRND
 40
0.0
  9
$DIMAZIN
 70
0
  9
$DIMDSEP
 70
44
  9
$DIMATFIT
 70
3
  9
$DIMFRAC
 70
0
  9
$DIMLDRBLK
  1

  9
$DIMLUNIT
 70
2
  9
$DIMLWD
 70
-2
  9
$DIMLWE
 70
-2
  9
$DIMTMOVE
 70
0
  9
$DIMFXL
 40
1.0
  9
$DIMFXLON
 70
0
  9
$DIMJOGANG
 40
0.785398163397
  9
$DIMTFILL
 70
0
  9
$DIMTFILLCLR
 70
0
  9
$DIMARCSYM
 70
0
  9
$DIMLTYPE
  6

  9
$DIMLTEX1
  6

  9
$DIMLTEX2
  6

  9
$DIMTXTDIRECTION
 70
0
  9
$LUNITS
 70
2
  9
$LUPREC
 70
4
  9
$SKETCHINC
 40
1.0
  9
$FILLETRAD
 40
10.0
  9
$AUNITS
 70
0
  9
$AUPREC
 70
2
  9
$MENU
  1
.
  9
$ELEVATION
 40
0.0
  9
$PELEVATION
 40
0.0
  9
$THICKNESS
 40
0.0
  9
$LIMCHECK
 70
0
  9
$CHAMFERA
 40
0.0
  9
$CHAMFERB
 40
0.0
  9
$CHAMFERC
 40
0.0
  9
$CHAMFERD
 40
0.0
  9
$SKPOLY
 70
0
  9
$TDCREATE
 40
2461162.7449305556
  9
$TDUCREATE
 40
2458532.153996898
  9
$TDUPDATE
 40
2461162.7449305556
  9
$TDUUPDATE
 40
2458532.1544311
  9
$TDINDWG
 40
0.0
  9
$TDUSRTIMER
 40
0.0
  9
$USRTIMER
 70
1
  9
$ANGBASE
 50
0.0
  9
$ANGDIR
 70
0
  9
$PDMODE
 70
0
  9
$PDSIZE
 40
0.0
  9
$PLINEWID
 40
0.0
  9
$SPLFRAME
 70
0
  9
$SPLINETYPE
 70
6
  9
$SPLINESEGS
 70
8
  9
$HANDSEED
  5
47
  9
$SURFTAB1
 70
6
  9
$SURFTAB2
 70
6
  9
$SURFTYPE
 70
6
  9
$SURFU
 70
6
  9
$SURFV
 70
6
  9
$UCSBASE
  2

  9
$UCSNAME
  2

  9
$UCSORG
 10
0.0
 20
0.0
 30
0.0
  9
$UCSXDIR
 10
1.0
 20
0.0
 30
0.0
  9
$UCSYDIR
 10
0.0
 20
1.0
 30
0.0
  9
$UCSORTHOREF
  2

  9
$UCSORTHOVIEW
 70
0
  9
$UCSORGTOP
 10
0.0
 20
0.0
 30
0.0
  9
$UCSORGBOTTOM
 10
0.0
 20
0.0
 30
0.0
  9
$UCSORGLEFT
 10
0.0
 20
0.0
 30
0.0
  9
$UCSORGRIGHT
 10
0.0
 20
0.0
 30
0.0
  9
$UCSORGFRONT
 10
0.0
 20
0.0
 30
0.0
  9
$UCSORGBACK
 10
0.0
 20
0.0
 30
0.0
  9
$PUCSBASE
  2

  9
$PUCSNAME
  2

  9
$PUCSORG
 10
0.0
 20
0.0
 30
0.0
  9
$PUCSXDIR
 10
1.0
 20
0.0
 30
0.0
  9
$PUCSYDIR
 10
0.0
 20
1.0
 30
0.0
  9
$PUCSORTHOREF
  2

  9
$PUCSORTHOVIEW
 70
0
  9
$PUCSORGTOP
 10
0.0
 20
0.0
 30
0.0
  9
$PUCSORGBOTTOM
 10
0.0
 20
0.0
 30
0.0
  9
$PUCSORGLEFT
 10
0.0
 20
0.0
 30
0.0
  9
$PUCSORGRIGHT
 10
0.0
 20
0.0
 30
0.0
  9
$PUCSORGFRONT
 10
0.0
 20
0.0
 30
0.0
  9
$PUCSORGBACK
 10
0.0
 20
0.0
 30
0.0
  9
$USERI1
 70
0
  9
$USERI2
 70
0
  9
$USERI3
 70
0
  9
$USERI4
 70
0
  9
$USERI5
 70
0
  9
$USERR1
 40
0.0
  9
$USERR2
 40
0.0
  9
$USERR3
 40
0.0
  9
$USERR4
 40
0.0
  9
$USERR5
 40
0.0
  9
$WORLDVIEW
 70
1
  9
$SHADEDGE
 70
3
  9
$SHADEDIF
 70
70
  9
$TILEMODE
 70
1
  9
$MAXACTVP
 70
64
  9
$PINSBASE
 10
0.0
 20
0.0
 30
0.0
  9
$PLIMCHECK
 70
0
  9
$PEXTMIN
 10
1e+20
 20
1e+20
 30
1e+20
  9
$PEXTMAX
 10
-1e+20
 20
-1e+20
 30
-1e+20
  9
$PLIMMIN
 10
0.0
 20
0.0
  9
$PLIMMAX
 10
420.0
 20
297.0
  9
$UNITMODE
 70
0
  9
$VISRETAIN
 70
1
  9
$PLINEGEN
 70
0
  9
$PSLTSCALE
 70
1
  9
$TREEDEPTH
 70
3020
  9
$CMLSTYLE
  2
Standard
  9
$CMLJUST
 70
0
  9
$CMLSCALE
 40
20.0
  9
$PROXYGRAPHICS
 70
1
  9
$MEASUREMENT
 70
1
  9
$CELWEIGHT
370
-1
  9
$ENDCAPS
280
0
  9
$JOINSTYLE
280
0
  9
$LWDISPLAY
290
0
  9
$INSUNITS
 70
4
  9
$HYPERLINKBASE
  1

  9
$STYLESHEET
  1

  9
$XEDIT
290
1
  9
$CEPSNTYPE
380
0
  9
$PSTYLEMODE
290
1
  9
$FINGERPRINTGUID
  2
{D766BED7-7A96-42B0-9AFD-7D09A703093D}
  9
$VERSIONGUID
  2
{B41DE114-A6CE-48A0-8BC3-9FEA7B96175B}
  9
$EXTNAMES
290
1
  9
$PSVPSCALE
 40
0.0
  9
$OLESTARTUP
290
0
  9
$SORTENTS
280
127
  9
$INDEXCTL
280
0
  9
$HIDETEXT
280
1
  9
$XCLIPFRAME
280
1
  9
$HALOGAP
280
0
  9
$OBSCOLOR
 70
257
  9
$OBSLTYPE
280
0
  9
$INTERSECTIONDISPLAY
280
0
  9
$INTERSECTIONCOLOR
 70
257
  9
$DIMASSOC
280
2
  9
$PROJECTNAME
  1

  9
$CAMERADISPLAY
290
0
  9
$LENSLENGTH
 40
50.0
  9
$CAMERAHEIGHT
 40
0.0
  9
$STEPSPERSEC
 40
24.0
  9
$STEPSIZE
 40
100.0
  9
$3DDWFPREC
 40
2.0
  9
$PSOLWIDTH
 40
0.005
  9
$PSOLHEIGHT
 40
0.08
  9
$LOFTANG1
 40
1.570796326795
  9
$LOFTANG2
 40
1.570796326795
  9
$LOFTMAG1
 40
0.0
  9
$LOFTMAG2
 40
0.0
  9
$LOFTPARAM
 70
7
  9
$LOFTNORMALS
280
1
  9
$LATITUDE
 40
37.795
  9
$LONGITUDE
 40
-122.394
  9
$NORTHDIRECTION
 40
0.0
  9
$TIMEZONE
 70
-8000
  9
$LIGHTGLYPHDISPLAY
280
1
  9
$TILEMODELIGHTSYNCH
280
1
  9
$CMATERIAL
347
20
  9
$SOLIDHIST
280
0
  9
$SHOWHIST
280
1
  9
$DWFFRAME
280
2
  9
$DGNFRAME
280
2
  9
$REALWORLDSCALE
290
1
  9
$INTERFERECOLOR
 62
256
  9
$CSHADOW
280
0
  9
$SHADOWPLANELOCATION
 40
0.0
  0
ENDSEC
  0
SECTION
  2
CLASSES
  0
CLASS
  1
ACDBDICTIONARYWDFLT
  2
AcDbDictionaryWithDefault
  3
ObjectDBX Classes
 90
0
 91
0
280
0
281
0
  0
CLASS
  1
SUN
  2
AcDbSun
  3
SCENEOE
 90
1153
 91
0
280
0
281
0
  0
CLASS
  1
VISUALSTYLE
  2
AcDbVisualStyle
  3
ObjectDBX Classes
 90
4095
 91
0
280
0
281
0
  0
CLASS
  1
MATERIAL
  2
AcDbMaterial
  3
ObjectDBX Classes
 90
1153
 91
0
280
0
281
0
  0
CLASS
  1
SCALE
  2
AcDbScale
  3
ObjectDBX Classes
 90
1153
 91
0
280
0
281
0
  0
CLASS
  1
TABLESTYLE
  2
AcDbTableStyle
  3
ObjectDBX Classes
 90
4095
 91
0
280
0
281
0
  0
CLASS
  1
MLEADERSTYLE
  2
AcDbMLeaderStyle
  3
ACDB_MLEADERSTYLE_CLASS
 90
4095
 91
0
280
0
281
0
  0
CLASS
  1
DICTIONARYVAR
  2
AcDbDictionaryVar
  3
ObjectDBX Classes
 90
0
 91
0
280
0
281
0
  0
CLASS
  1
CELLSTYLEMAP
  2
AcDbCellStyleMap
  3
ObjectDBX Classes
 90
1152
 91
0
280
0
281
0
  0
CLASS
  1
MENTALRAYRENDERSETTINGS
  2
AcDbMentalRayRenderSettings
  3
SCENEOE
 90
1024
 91
0
280
0
281
0
  0
CLASS
  1
ACDBDETAILVIEWSTYLE
  2
AcDbDetailViewStyle
  3
ObjectDBX Classes
 90
1025
 91
0
280
0
281
0
  0
CLASS
  1
ACDBSECTIONVIEWSTYLE
  2
AcDbSectionViewStyle
  3
ObjectDBX Classes
 90
1025
 91
0
280
0
281
0
  0
CLASS
  1
RASTERVARIABLES
  2
AcDbRasterVariables
  3
ISM
 90
0
 91
0
280
0
281
0
  0
CLASS
  1
ACDBPLACEHOLDER
  2
AcDbPlaceHolder
  3
ObjectDBX Classes
 90
0
 91
0
280
0
281
0
  0
CLASS
  1
LAYOUT
  2
AcDbLayout
  3
ObjectDBX Classes
 90
0
 91
0
280
0
281
0
  0
ENDSEC
  0
SECTION
  2
TABLES
  0
TABLE
  2
VPORT
  5
8
330
0
100
AcDbSymbolTable
 70
1
  0
VPORT
  5
23
330
8
100
AcDbSymbolTableRecord
100
AcDbViewportTableRecord
  2
*Active
 70
0
 10
0.0
 20
0.0
 11
1.0
 21
1.0
 12
0.0
 22
0.0
 13
0.0
 23
0.0
 14
0.5
 24
0.5
 15
0.5
 25
0.5
 16
0.0
 26
0.0
 36
1.0
 17
0.0
 27
0.0
 37
0.0
 40
1000.0
 41
1.34
 42
50.0
 43
0.0
 44
0.0
 50
0.0
 51
0.0
 71
0
 72
1000
 73
1
 74
3
 75
0
 76
0
 77
0
 78
0
281
0
 65
0
146
0.0
  0
ENDTAB
  0
TABLE
  2
LTYPE
  5
2
330
0
100
AcDbSymbolTable
 70
3
  0
LTYPE
  5
24
330
2
100
AcDbSymbolTableRecord
100
AcDbLinetypeTableRecord
  2
ByBlock
 70
0
  3

 72
65
 73
0
 40
0.0
  0
LTYPE
  5
25
330
2
100
AcDbSymbolTableRecord
100
AcDbLinetypeTableRecord
  2
ByLayer
 70
0
  3

 72
65
 73
0
 40
0.0
  0
LTYPE
  5
26
330
2
100
AcDbSymbolTableRecord
100
AcDbLinetypeTableRecord
  2
Continuous
 70
0
  3

 72
65
 73
0
 40
0.0
  0
ENDTAB
  0
TABLE
  2
LAYER
  5
1
330
0
100
AcDbSymbolTable
 70
2
  0
LAYER
  5
27
330
1
100
AcDbSymbolTableRecord
100
AcDbLayerTableRecord
  2
0
 70
0
 62
7
  6
Continuous
370
-3
390
13
347
21
  0
LAYER
  5
28
330
1
100
AcDbSymbolTableRecord
100
AcDbLayerTableRecord
  2
Defpoints
 70
0
 62
7
  6
Continuous
290
0
370
-3
390
13
347
21
  0
ENDTAB
  0
TABLE
  2
STYLE
  5
5
330
0
100
AcDbSymbolTable
 70
1
  0
STYLE
  5
29
330
5
100
AcDbSymbolTableRecord
100
AcDbTextStyleTableRecord
  2
Standard
 70
0
 40
0.0
 41
1.0
 50
0.0
 71
0
 42
2.5
  3
txt
  4

  0
ENDTAB
  0
TABLE
  2
VIEW
  5
7
330
0
100
AcDbSymbolTable
 70
0
  0
ENDTAB
  0
TABLE
  2
UCS
  5
6
330
0
100
AcDbSymbolTable
 70
0
  0
ENDTAB
  0
TABLE
  2
APPID
  5
3
330
0
100
AcDbSymbolTable
 70
3
  0
APPID
  5
2A
330
3
100
AcDbSymbolTableRecord
100
AcDbRegAppTableRecord
  2
ACAD
 70
0
  0
APPID
  5
44
330
3
100
AcDbSymbolTableRecord
100
AcDbRegAppTableRecord
  2
HATCHBACKGROUNDCOLOR
 70
0
  0
APPID
  5
45
330
3
100
AcDbSymbolTableRecord
100
AcDbRegAppTableRecord
  2
EZDXF
 70
0
  0
ENDTAB
  0
TABLE
  2
DIMSTYLE
  5
4
330
0
100
AcDbSymbolTable
 70
1
100
AcDbDimStyleTable
  0
DIMSTYLE
105
2B
330
4
100
AcDbSymbolTableRecord
100
AcDbDimStyleTableRecord
  2
Standard
 70
0
 40
1.0
 41
2.5
 42
0.625
 43
3.75
 44
1.25
 45
0.0
 46
0.0
 47
0.0
 48
0.0
 49
2.5
140
2.5
141
2.5
142
0.0
143
0.03937007874
144
1.0
145
0.0
146
1.0
147
0.625
148
0.0
 69
0
 70
0
 71
0
 72
0
 73
0
 74
0
 75
0
 76
0
 77
1
 78
8
 79
3
170
0
171
3
172
1
173
0
174
0
175
0
176
0
177
0
178
0
179
2
271
2
272
2
273
2
274
3
275
0
276
0
277
2
278
44
279
0
280
0
281
0
282
0
283
0
284
8
285
0
286
0
288
0
289
3
290
0
371
-2
372
-2
  0
ENDTAB
  0
TABLE
  2
BLOCK_RECORD
  5
9
330
0
100
AcDbSymbolTable
 70
2
  0
BLOCK_RECORD
  5
17
330
9
100
AcDbSymbolTableRecord
100
AcDbBlockTableRecord
  2
*Model_Space
340
1A
 70
0
280
1
281
0
  0
BLOCK_RECORD
  5
1B
330
9
100
AcDbSymbolTableRecord
100
AcDbBlockTableRecord
  2
*Paper_Space
340
1E
 70
0
280
1
281
0
  0
ENDTAB
  0
ENDSEC
  0
SECTION
  2
BLOCKS
  0
BLOCK
  5
18
330
17
100
AcDbEntity
  8
0
100
AcDbBlockBegin
  2
*Model_Space
 70
0
 10
0.0
 20
0.0
 30
0.0
  3
*Model_Space
  1

  0
ENDBLK
  5
19
330
17
100
AcDbEntity
  8
0
100
AcDbBlockEnd
  0
BLOCK
  5
1C
330
1B
100
AcDbEntity
  8
0
100
AcDbBlockBegin
  2
*Paper_Space
 70
0
 10
0.0
 20
0.0
 30
0.0
  3
*Paper_Space
  1

  0
ENDBLK
  5
1D
330
1B
100
AcDbEntity
  8
0
100
AcDbBlockEnd
  0
ENDSEC
  0
SECTION
  2
ENTITIES
  0
LWPOLYLINE
  5
2F
330
17
100
AcDbEntity
  8
0
100
AcDbPolyline
 90
513
 70
1
 10
-2.6943190196151425
 20
4.815667589938399
 10
-2.6956542252264373
 20
4.824105109076149
 10
-2.697193509311296
 20
4.832503506605401
 10
-2.698934429102727
 20
4.840859782376485
 10
-2.7008745418337394
 20
4.849170936239728
 10
-2.7030114047373424
 20
4.857433968045459
 10
-2.7053425750465436
 20
4.865645877644008
 10
-2.7078656099943537
 20
4.8738036648857
 10
-2.71057806681378
 20
4.881904329620865
 10
-2.713477502737832
 20
4.889944871699833
 10
-2.7165614749995184
 20
4.897922290972931
 10
-2.7198275408318477
 20
4.905833587290488
 10
-2.7232732574678296
 20
4.913675760502832
 10
-2.726896182140472
 20
4.921445810460292
 10
-2.730693872082784
 20
4.9291407370131965
 10
-2.7346638845277744
 20
4.936757540011874
 10
-2.7388037767084525
 20
4.944293219306652
 10
-2.7431111058578272
 20
4.951744774747861
 10
-2.747583429208906
 20
4.959109206185828
 10
-2.7522183039946992
 20
4.966383513470881
 10
-2.7570132874482147
 20
4.973564696453351
 10
-2.761965936802462
 20
4.980649754983563
 10
-2.7670738092904497
 20
4.9876356889118485
 10
-2.772334462145186
 20
4.994519498088534
 10
-2.777745452599681
 20
5.001298182363949
 10
-2.7833043378869426
 20
5.007968741588423
 10
-2.78900867523998
 20
5.014528175612282
 10
-2.7948560218918015
 20
5.020973484285856
 10
-2.8008439350754166
 20
5.027301667459474
 10
-2.8069699720238335
 20
5.033509724983463
 10
-2.8132316899700616
 20
5.039594656708154
 10
-2.8196266461471096
 20
5.045553462483872
 10
-2.8261523977879857
 20
5.051383142160947
 10
-2.8328065021257
 20
5.057080695589709
 10
-2.8395865163932603
 20
5.062643122620486
 10
-2.8464899978236757
 20
5.068067423103604
 10
-2.8535145036499547
 20
5.0733505968893935
 10
-2.860657591105107
 20
5.078489643828183
 10
-2.8679168174221408
 20
5.0834815637703015
 10
-2.8752897398340647
 20
5.088323356566076
 10
-2.882773915573888
 20
5.093012022065837
 10
-2.8903669018746188
 20
5.0975445601199105
 10
-2.8980662559692676
 20
5.101917970578627
 10
-2.905869535090842
 20
5.1061292532923135
 10
-2.91377429647235
 20
5.1101754081113
 10
-2.9217780973468024
 20
5.114053434885914
 10
-2.9298784949472068
 20
5.117760333466484
 10
-2.9380730465065716
 20
5.121293103703339
 10
-2.946359309257907
 20
5.124648745446807
 10
-2.954734840434221
 20
5.127824258547217
 10
-2.9631971972685225
 20
5.130816642854898
 10
-2.9717439369938203
 20
5.133622898220176
 10
-2.9803726168431233
 20
5.136240024493382
 10
-2.9890807940494404
 20
5.1386650215248455
 10
-2.9978660258457803
 20
5.1408948891648905
 10
-3.006725869465152
 20
5.14292662726385
 10
-3.015657882140564
 20
5.14475723567205
 10
-3.024659621105026
 20
5.146383714239819
 10
-3.033728643591546
 20
5.147803062817488
 10
-3.0428625068331323
 20
5.149012281255383
 10
-3.052058768062795
 20
5.150008369403833
 10
-3.061314984513542
 20
5.150788327113166
 10
-3.0706287134183827
 20
5.151349154233713
 10
-3.0799975120103262
 20
5.151687850615799
 10
-3.0894189375223804
 20
5.151801416109755
 10
-3.0988403630344346
 20
5.151687852442048
 10
-3.1082091616263776
 20
5.151349161422756
 10
-3.1175228905312182
 20
5.150788343027619
 10
-3.126779106981965
 20
5.1500083972323845
 10
-3.135975368211628
 20
5.149012324012792
 10
-3.145109231453215
 20
5.147803123344586
 10
-3.1541782539397345
 20
5.146383795203509
 10
-3.1631799929041957
 20
5.144757339565307
 10
-3.172112005579608
 20
5.142926756405719
 10
-3.1809718491989796
 20
5.140895045700489
 10
-3.1897570809953195
 20
5.138665207425362
 10
-3.198465258201637
 20
5.136240241556078
 10
-3.20709393805094
 20
5.133623148068384
 10
-3.215640677776238
 20
5.13081692693802
 10
-3.2241030346105393
 20
5.1278245781407295
 10
-3.2324785657868533
 20
5.124649101652256
 10
-3.2407648285381883
 20
5.1212934974483435
 10
-3.248959380097554
 20
5.117760765504734
 10
-3.257059777697958
 20
5.11405390579717
 10
-3.26506357857241
 20
5.110175918301396
 10
-3.272968339953919
 20
5.106129802993155
 10
-3.2807716190754928
 20
5.101918559848189
 10
-3.288470973170141
 20
5.09754518884224
 10
-3.2960639594708727
 20
5.0930126899510535
 10
-3.3035481352106957
 20
5.088324063150372
 10
-3.31092105762262
 20
5.083482308415937
 10
-3.3181802839396535
 20
5.078490425723495
 10
-3.325323371394805
 20
5.073351415048785
 10
-3.3323478772210846
 20
5.068068276367552
 10
-3.3392513586515005
 20
5.062644009655539
 10
-3.3460313729190605
 20
5.057081614888489
 10
-3.3526854772567742
 20
5.051384092042145
 10
-3.359211228897651
 20
5.04555444109225
 10
-3.3656061850746983
 20
5.0395956620145475
 10
-3.371867903020927
 20
5.03351075478478
 10
-3.377993939969344
 20
5.0273027193786906
 10
-3.383981853152959
 20
5.020974555772024
 10
-3.3898291998047805
 20
5.01452926394052
 10
-3.3955335371578177
 20
5.007969843859923
 10
-3.401092422445079
 20
5.001299295505978
 10
-3.4065034128995735
 20
4.994520618854427
 10
-3.4117640657543107
 20
4.987636813881011
 10
-3.416871938242298
 20
4.980650880561475
 10
-3.421824587596545
 20
4.973565818871563
 10
-3.426619571050061
 20
4.966384628787015
 10
-3.431254445835854
 20
4.959110310283577
 10
-3.4357267691869335
 20
4.951745863336991
 10
-3.4400340983363074
 20
4.944294287923
 10
-3.4441739905169855
 20
4.936758584017347
 10
-3.448144002961976
 20
4.9291417515957745
 10
-3.4519416929042883
 20
4.921446790634027
 10
-3.455564617576931
 20
4.913676701107846
 10
-3.4590103342129117
 20
4.905834482992976
 10
-3.4622764000452424
 20
4.897923136265159
 10
-3.465360372306928
 20
4.889945660900138
 10
-3.4682598082309806
 20
4.8819050568736575
 10
-3.4709722650504062
 20
4.873804324161458
 10
-3.473495299998216
 20
4.865646462739286
 10
-3.475826470307418
 20
4.857434472582883
 10
-3.477963333211021
 20
4.84917135366799
 10
-3.479903445942033
 20
4.840860105970352
 10
-3.4816443657334646
 20
4.832503729465713
 10
-3.483183649818322
 20
4.824105224129813
 10
-3.484518855429617
 20
4.815667589938399
 10
-3.4826126467823753
 20
4.8154372167600625
 10
-3.480681919790527
 20
4.815195008504942
 10
-3.4787270459652246
 20
4.814941459999452
 10
-3.4767483968176203
 20
4.814677066070012
 10
-3.474746343858866
 20
4.81440232154304
 10
-3.4727212586001133
 20
4.81411772124495
 10
-3.4706735125525148
 20
4.813823760002164
 10
-3.468603477227222
 20
4.813520932641095
 10
-3.4665115241353877
 20
4.813209733988161
 10
-3.4643980247881636
 20
4.812890658869782
 10
-3.462263350696701
 20
4.812564202112375
 10
-3.4601078733721535
 20
4.812230858542355
 10
-3.4579319643256716
 20
4.811891122986141
 10
-3.455735995068408
 20
4.81154549027015
 10
-3.4535203371115144
 20
4.811194455220799
 10
-3.451285361966143
 20
4.810838512664507
 10
-3.4490314411434464
 20
4.81047815742769
 10
-3.4467589461545756
 20
4.810113884336765
 10
-3.4444682485106832
 20
4.80974618821815
 10
-3.442159719722921
 20
4.8093755638982625
 10
-3.4398337313024414
 20
4.8090025062035195
 10
-3.437490654760396
 20
4.808627509960339
 10
-3.435130861607937
 20
4.808251069995138
 10
-3.4327547233562163
 20
4.807873681134333
 10
-3.4303626115163866
 20
4.807495838204343
 10
-3.427954897599599
 20
4.807118036031584
 10
-3.425531953117006
 20
4.806740769442474
 10
-3.4230941495797595
 20
4.806364533263431
 10
-3.4206418584990117
 20
4.805989822320871
 10
-3.418175451385914
 20
4.805617131441212
 10
-3.4156952997516195
 20
4.805246955450872
 10
-3.4132017751072796
 20
4.804879789176267
 10
-3.410695248964046
 20
4.804516127443816
 10
-3.408176092833071
 20
4.804156465079934
 10
-3.405644678225507
 20
4.803801296911042
 10
-3.403101376652506
 20
4.803451117763554
 10
-3.4005465596252193
 20
4.80310642246389
 10
-3.3979805986547995
 20
4.802767705838465
 10
-3.3954038652523986
 20
4.802435462713698
 10
-3.392816730929168
 20
4.802110187916005
 10
-3.390219567196261
 20
4.801792376271805
 10
-3.387612745564829
 20
4.801482522607514
 10
-3.3849966375460236
 20
4.80118112174955
 10
-3.382371614650997
 20
4.80088866852433
 10
-3.379738048390901
 20
4.800605657758272
 10
-3.3770963102768885
 20
4.800332584277793
 10
-3.374446771820111
 20
4.800069942909311
 10
-3.3717898045317205
 20
4.799818228479243
 10
-3.369125779922869
 20
4.799577935814005
 10
-3.366455069504709
 20
4.7993495597400155
 10
-3.3637780447883916
 20
4.799133595083693
 10
-3.361095077285069
 20
4.798930536671453
 10
-3.358406538505894
 20
4.798740879329714
 10
-3.3557127999620184
 20
4.798565117884893
 10
-3.353014233164594
 20
4.798403747163408
 10
-3.3503112096247727
 20
4.798257261991675
 10
-3.3476041008537063
 20
4.798126157196112
 10
-3.3448932783625476
 20
4.798010927603137
 10
-3.342179113662448
 20
4.7979120680391665
 10
-3.3394619782645596
 20
4.797830073330619
 10
-3.336742243680035
 20
4.797765438303911
 10
-3.3340202814200257
 20
4.79771865778546
 10
-3.3312964629956836
 20
4.7976902266016825
 10
-3.3285711599181607
 20
4.7976806395789975
 10
-3.3186555895563203
 20
4.797806112842165
 10
-3.308801877308672
 20
4.79818052112991
 10
-3.299013040601779
 20
4.798800847189599
 10
-3.2892920968622046
 20
4.799664073768596
 10
-3.2796420635165124
 20
4.800767183614266
 10
-3.270065957991266
 20
4.802107159473973
 10
-3.260566797713029
 20
4.803680984095085
 10
-3.2511476001083635
 20
4.805485640224965
 10
-3.241811382603834
 20
4.807518110610978
 10
-3.2325611626260042
 20
4.809775378000489
 10
-3.223399957601437
 20
4.812254425140864
 10
-3.2143307849566956
 20
4.814952234779467
 10
-3.205356662118344
 20
4.8178657896636645
 10
-3.196480606512945
 20
4.820992072540819
 10
-3.1877056355670623
 20
4.824328066158298
 10
-3.179034766707259
 20
4.827870753263466
 10
-3.170471017360099
 20
4.831617116603687
 10
-3.1620174049521457
 20
4.835564138926327
 10
-3.153676946909962
 20
4.839708802978751
 10
-3.1454526606601116
 20
4.844048091508323
 10
-3.1373475636291577
 20
4.8485789872624085
 10
-3.129364673243664
 20
4.853298472988374
 10
-3.1215070069301944
 20
4.858203531433583
 10
-3.1137775821153113
 20
4.8632911453454
 10
-3.106179416225578
 20
4.868558297471192
 10
-3.098715526687559
 20
4.874001970558323
 10
-3.091388930927817
 20
4.879619147354157
 10
-3.084202646372915
 20
4.885406810606061
 10
-3.0771596904494176
 20
4.891361943061399
 10
-3.070263080583887
 20
4.897481527467535
 10
-3.063515834202887
 20
4.903762546571837
 10
-3.0569209687329817
 20
4.910201983121667
 10
-3.050481501600734
 20
4.916796819864391
 10
-3.0442004502327067
 20
4.923544039547376
 10
-3.038080832055464
 20
4.930440624917984
 10
-3.032125664495569
 20
4.9374835587235815
 10
-3.0263379649795854
 20
4.944669823711533
 10
-3.020720750934076
 20
4.951996402629204
 10
-3.0152770397856044
 20
4.95946027822396
 10
-3.0100098489607343
 20
4.9670584332431655
 10
-3.0049221958860293
 20
4.974787850434185
 10
-3.000017097988052
 20
4.9826455125443845
 10
-2.995297572693367
 20
4.9906284023211285
 10
-2.990766637428536
 20
4.998733502511782
 10
-2.986427309620124
 20
5.006957795863711
 10
-2.982282606694694
 20
5.0152982651242795
 10
-2.9783355460788083
 20
5.023751893040852
 10
-2.9745891451990323
 20
5.032315662360795
 10
-2.971046421481928
 20
5.040986555831473
 10
-2.9677103923540584
 20
5.04976155620025
 10
-2.964584075241988
 20
5.058637646214493
 10
-2.96167048757228
 20
5.067611808621565
 10
-2.9589726467714974
 20
5.076681026168832
 10
-2.9564935702662045
 20
5.085842281603659
 10
-2.954236275482963
 20
5.095092557673412
 10
-2.9522037798483383
 20
5.104428837125455
 10
-2.950399100788892
 20
5.113848102707153
 10
-2.9488252557311885
 20
5.12334733716587
 10
-2.9474852621017913
 20
5.132923523248973
 10
-2.9463821373272636
 20
5.142573643703828
 10
-2.9455188988341687
 20
5.152294681277795
 10
-2.94489856404907
 20
5.162083618718245
 10
-2.9445241503985304
 20
5.171937438772539
 10
-2.9443986753091145
 20
5.181853124188044
 10
-2.944444831772316
 20
5.187823186786455
 10
-2.944582618550762
 20
5.193780180517688
 10
-2.944811011727715
 20
5.199723203156942
 10
-2.9451289873864357
 20
5.205651352479408
 10
-2.945535521610188
 20
5.211563726260286
 10
-2.946029590482233
 20
5.217459422274767
 10
-2.9466101700858336
 20
5.2233375382980505
 10
-2.9472762365042513
 20
5.229197172105329
 10
-2.948026765820749
 20
5.235037421471799
 10
-2.948860734118589
 20
5.240857384172656
 10
-2.9497771174810326
 20
5.246656157983094
 10
-2.950774891991342
 20
5.252432840678311
 10
-2.9518530337327804
 20
5.2581865300335
 10
-2.9530105187886093
 20
5.263916323823857
 10
-2.954246323242091
 20
5.269621319824579
 10
-2.9555594231764872
 20
5.27530061581086
 10
-2.9569487946750614
 20
5.280953309557894
 10
-2.9584134138210745
 20
5.28657849884088
 10
-2.959952256697789
 20
5.292175281435011
 10
-2.961564299388468
 20
5.2977427551154825
 10
-2.9632485179763717
 20
5.303280017657491
 10
-2.9650038885447643
 20
5.30878616683623
 10
-2.966829387176907
 20
5.314260300426897
 10
-2.9687239899560622
 20
5.3197015162046855
 10
-2.970686672965492
 20
5.325108911944793
 10
-2.9727164122884586
 20
5.3304815854224135
 10
-2.9748121840082242
 20
5.3358186344127425
 10
-2.9769729642080516
 20
5.341119156690976
 10
-2.9791977289712013
 20
5.346382250032309
 10
-2.9814854543809375
 20
5.351607012211936
 10
-2.983835116520521
 20
5.3567925410050545
 10
-2.9862456914732145
 20
5.361937934186858
 10
-2.98871615532228
 20
5.367042289532543
 10
-2.9912454841509803
 20
5.372104704817304
 10
-2.993832654042577
 20
5.377124277816338
 10
-2.996476641080332
 20
5.382100106304839
 10
-2.999176421347508
 20
5.387031288058003
 10
-3.0019309709273667
 20
5.391916920851025
 10
-3.0047392659031713
 20
5.396756102459101
 10
-3.007600282358183
 20
5.401547930657426
 10
-3.0105129963756645
 20
5.406291503221195
 10
-3.013476384038878
 20
5.410985917925604
 10
-3.016489421431085
 20
5.415630272545848
 10
-3.019551084635548
 20
5.420223664857123
 10
-3.0226603497355304
 20
5.424765192634625
 10
-3.025816192814293
 20
5.429253953653547
 10
-3.0290175899550977
 20
5.433689045689087
 10
-3.032263517241208
 20
5.438069566516439
 10
-3.0355529507558847
 20
5.442394613910798
 10
-3.038884866582391
 20
5.446663285647361
 10
-3.042258240803989
 20
5.4508746795013225
 10
-3.0456720495039407
 20
5.455027893247878
 10
-3.049125268765508
 20
5.459122024662223
 10
-3.052616874671953
 20
5.463156171519552
 10
-3.056145843306539
 20
5.467129431595062
 10
-3.059711150752527
 20
5.4710409026639475
 10
-3.06331177309318
 20
5.474889682501403
 10
-3.0669466864117587
 20
5.478674868882626
 10
-3.0706148667915274
 20
5.482395559582811
 10
-3.074315290315747
 20
5.4860508523771525
 10
-3.0780469330676796
 20
5.4896398450408475
 10
-3.0818087711305884
 20
5.4931616353490895
 10
-3.085599780587734
 20
5.496615321077075
 10
-3.0894189375223804
 20
5.5
 10
-3.093238094457026
 20
5.496615321077075
 10
-3.0970291039141724
 20
5.4931616353490895
 10
-3.1007909419770803
 20
5.4896398450408475
 10
-3.1045225847290134
 20
5.4860508523771525
 10
-3.108223008253233
 20
5.482395559582811
 10
-3.111891188633001
 20
5.478674868882626
 10
-3.1155261019515805
 20
5.474889682501403
 10
-3.1191267242922334
 20
5.4710409026639475
 10
-3.1226920317382216
 20
5.467129431595062
 10
-3.126221000372807
 20
5.463156171519552
 10
-3.129712606279252
 20
5.459122024662223
 10
-3.1331658255408197
 20
5.455027893247878
 10
-3.1365796342407717
 20
5.4508746795013225
 10
-3.1399530084623692
 20
5.446663285647361
 10
-3.1432849242888756
 20
5.442394613910798
 10
-3.1465743578035528
 20
5.438069566516439
 10
-3.1498202850896626
 20
5.433689045689087
 10
-3.153021682230468
 20
5.429253953653547
 10
-3.15617752530923
 20
5.424765192634625
 10
-3.1592867904092117
 20
5.420223664857124
 10
-3.1623484536136752
 20
5.415630272545848
 10
-3.1653614910058825
 20
5.410985917925604
 10
-3.168324878669096
 20
5.406291503221195
 10
-3.1712375926865772
 20
5.401547930657426
 10
-3.174098609141589
 20
5.396756102459101
 10
-3.176906904117393
 20
5.391916920851025
 10
-3.179661453697253
 20
5.387031288058003
 10
-3.1823612339644285
 20
5.382100106304839
 10
-3.1850052210021835
 20
5.377124277816338
 10
-3.1875923908937804
 20
5.372104704817304
 10
-3.1901217197224803
 20
5.367042289532543
 10
-3.1925921835715463
 20
5.361937934186858
 10
-3.1950027585242395
 20
5.3567925410050545
 10
-3.1973524206638233
 20
5.351607012211936
 10
-3.199640146073559
 20
5.346382250032309
 10
-3.201864910836709
 20
5.341119156690976
 10
-3.204025691036536
 20
5.3358186344127425
 10
-3.2061214627563017
 20
5.3304815854224135
 10
-3.2081512020792684
 20
5.325108911944793
 10
-3.210113885088698
 20
5.3197015162046855
 10
-3.212008487867853
 20
5.314260300426897
 10
-3.213833986499996
 20
5.30878616683623
 10
-3.2155893570683887
 20
5.303280017657491
 10
-3.217273575656293
 20
5.2977427551154825
 10
-3.218885618346971
 20
5.292175281435011
 10
-3.220424461223686
 20
5.28657849884088
 10
-3.2218890803696993
 20
5.280953309557894
 10
-3.2232784518682727
 20
5.27530061581086
 10
-3.2245915518026695
 20
5.269621319824579
 10
-3.225827356256151
 20
5.263916323823857
 10
-3.22698484131198
 20
5.2581865300335
 10
-3.228062983053418
 20
5.252432840678311
 10
-3.2290607575637282
 20
5.246656157983094
 10
-3.2299771409261715
 20
5.240857384172656
 10
-3.2308111092240113
 20
5.235037421471799
 10
-3.231561638540509
 20
5.229197172105329
 10
-3.2322277049589268
 20
5.2233375382980505
 10
-3.2328082845625277
 20
5.217459422274767
 10
-3.233302353434573
 20
5.211563726260286
 10
-3.2337088876583246
 20
5.205651352479408
 10
-3.234026863317046
 20
5.199723203156942
 10
-3.234255256493998
 20
5.193780180517688
 10
-3.234393043272444
 20
5.187823186786455
 10
-3.2344391997356454
 20
5.181853124188044
 10
-3.2343137264724784
 20
5.171937438772539
 10
-3.2339393181847327
 20
5.162083618718245
 10
-3.233318992125044
 20
5.152294681277795
 10
-3.2324557655460477
 20
5.142573643703828
 10
-3.2313526557003778
 20
5.132923523248973
 10
-3.2300126798406694
 20
5.12334733716587
 10
-3.228438855219558
 20
5.113848102707153
 10
-3.2266341990896783
 20
5.104428837125455
 10
-3.2246017287036652
 20
5.095092557673412
 10
-3.222344461314154
 20
5.085842281603659
 10
-3.219865414173779
 20
5.076681026168832
 10
-3.217167604535176
 20
5.067611808621565
 10
-3.214254049650979
 20
5.058637646214493
 10
-3.211127766773824
 20
5.04976155620025
 10
-3.207791773156345
 20
5.040986555831473
 10
-3.2042490860511776
 20
5.032315662360795
 10
-3.200502722710956
 20
5.023751893040852
 10
-3.1965557003883167
 20
5.0152982651242795
 10
-3.192411036335893
 20
5.006957795863711
 10
-3.1880717478063203
 20
4.998733502511782
 10
-3.183540852052235
 20
4.9906284023211285
 10
-3.1788213663262694
 20
4.9826455125443845
 10
-3.173916307881061
 20
4.974787850434185
 10
-3.168828693969243
 20
4.9670584332431655
 10
-3.1635615418434515
 20
4.95946027822396
 10
-3.158117868756321
 20
4.951996402629204
 10
-3.152500691960486
 20
4.944669823711533
 10
-3.1467130287085823
 20
4.9374835587235815
 10
-3.1407578962532448
 20
4.930440624917984
 10
-3.134638311847108
 20
4.923544039547376
 10
-3.1283572927428067
 20
4.916796819864391
 10
-3.1219178561929763
 20
4.910201983121667
 10
-3.1153230194502517
 20
4.903762546571837
 10
-3.108575799767268
 20
4.897481527467535
 10
-3.1016792143966594
 20
4.891361943061399
 10
-3.094636280591062
 20
4.885406810606061
 10
-3.0874500156031104
 20
4.879619147354157
 10
-3.080123436685439
 20
4.874001970558323
 10
-3.072659561090683
 20
4.868558297471192
 10
-3.065061406071478
 20
4.863291145345401
 10
-3.0573319888804575
 20
4.858203531433583
 10
-3.049474326770259
 20
4.853298472988374
 10
-3.0414914369935144
 20
4.8485789872624085
 10
-3.033386336802861
 20
4.844048091508323
 10
-3.0251620434509325
 20
4.839708802978751
 10
-3.016821574190364
 20
4.835564138926327
 10
-3.008367946273791
 20
4.831617116603687
 10
-2.999804176953848
 20
4.827870753263466
 10
-2.9911332834831708
 20
4.824328066158298
 10
-2.9823582831143933
 20
4.820992072540819
 10
-2.9734821931001507
 20
4.8178657896636645
 10
-2.9645080306930787
 20
4.814952234779468
 10
-2.955438813145811
 20
4.812254425140864
 10
-2.9462775577109834
 20
4.809775378000489
 10
-2.9370272816412313
 20
4.807518110610978
 10
-2.9276910021891887
 20
4.805485640224965
 10
-2.918271736607491
 20
4.803680984095085
 10
-2.9087725021487727
 20
4.802107159473974
 10
-2.89919631606567
 20
4.800767183614266
 10
-2.889546195610816
 20
4.799664073768596
 10
-2.879825158036848
 20
4.798800847189599
 10
-2.8700362205963987
 20
4.79818052112991
 10
-2.8601824005421044
 20
4.797806112842165
 10
-2.8502667151265992
 20
4.7976806395789975
 10
-2.8475414120490767
 20
4.7976902266016825
 10
-2.8448175936247346
 20
4.79771865778546
 10
-2.8420956313647254
 20
4.797765438303911
 10
-2.8393758967802003
 20
4.797830073330619
 10
-2.8366587613823127
 20
4.7979120680391665
 10
-2.8339445966822128
 20
4.798010927603137
 10
-2.831233774191054
 20
4.798126157196112
 10
-2.828526665419988
 20
4.798257261991675
 10
-2.8258236418801665
 20
4.798403747163408
 10
-2.823125075082742
 20
4.798565117884893
 10
-2.8204313365388662
 20
4.798740879329714
 10
-2.817742797759691
 20
4.798930536671453
 10
-2.815059830256369
 20
4.799133595083693
 10
-2.8123828055400515
 20
4.7993495597400155
 10
-2.809712095121891
 20
4.799577935814005
 10
-2.8070480705130394
 20
4.799818228479243
 10
-2.8043911032246496
 20
4.800069942909311
 10
-2.8017415647678714
 20
4.800332584277793
 10
-2.799099826653859
 20
4.800605657758272
 10
-2.7964662603937636
 20
4.80088866852433
 10
-2.793841237498737
 20
4.80118112174955
 10
-2.7912251294799315
 20
4.801482522607514
 10
-2.788618307848499
 20
4.801792376271805
 10
-2.7860211441155918
 20
4.802110187916005
 10
-2.7834340097923618
 20
4.802435462713698
 10
-2.780857276389961
 20
4.802767705838465
 10
-2.778291315419541
 20
4.80310642246389
 10
-2.775736498392255
 20
4.803451117763554
 10
-2.773193196819253
 20
4.803801296911042
 10
-2.7706617822116892
 20
4.804156465079934
 10
-2.768142626080714
 20
4.804516127443816
 10
-2.7656360999374807
 20
4.804879789176267
 10
-2.763142575293141
 20
4.805246955450872
 10
-2.7606624236588457
 20
4.805617131441212
 10
-2.7581960165457486
 20
4.805989822320871
 10
-2.755743725465001
 20
4.806364533263431
 10
-2.7533059219277543
 20
4.806740769442474
 10
-2.750882977445161
 20
4.807118036031584
 10
-2.7484752635283733
 20
4.807495838204343
 10
-2.7460831516885436
 20
4.807873681134333
 10
-2.743707013436823
 20
4.808251069995138
 10
-2.7413472202843643
 20
4.808627509960339
 10
-2.739004143742319
 20
4.8090025062035195
 10
-2.7366781553218393
 20
4.8093755638982625
 10
-2.734369626534077
 20
4.80974618821815
 10
-2.7320789288901848
 20
4.810113884336765
 10
-2.7298064339013144
 20
4.81047815742769
 10
-2.727552513078617
 20
4.810838512664507
 10
-2.725317537933246
 20
4.811194455220799
 10
-2.7231018799763524
 20
4.81154549027015
 10
-2.7209059107190887
 20
4.811891122986141
 10
-2.718730001672607
 20
4.812230858542355
 10
-2.7165745243480584
 20
4.812564202112375
 10
-2.7144398502565967
 20
4.812890658869782
 10
-2.712326350909372
 20
4.813209733988161
 10
-2.710234397817538
 20
4.813520932641095
 10
-2.7081643624922456
 20
4.813823760002164
 10
-2.706116616444647
 20
4.81411772124495
 10
-2.7040915311858944
 20
4.81440232154304
 10
-2.70208947822714
 20
4.814677066070012
 10
-2.7001108290795357
 20
4.814941459999452
 10
-2.6981559552542334
 20
4.815195008504942
 10
-2.696225228262385
 20
4.8154372167600625
 10
-2.6943190196151425
 20
4.815667589938399
  0
LWPOLYLINE
  5
30
330
17
100
AcDbEntity
  8
0
100
AcDbPolyline
 90
257
 70
1
 10
3.496424033107293
 20
-3.534379174919759
 10
3.495832024864428
 20
-3.5826179247774492
 10
3.4940563567394594
 20
-3.630827617415987
 10
3.4910980983284694
 20
-3.678979213119205
 10
3.4869590315757097
 20
-3.7270437071663554
 10
3.4816416497002227
 20
-3.7749921473034713
 10
3.475149155694018
 20
-3.8227956511831223
 10
3.467485460392717
 20
-3.870425423762059
 10
3.4586551801198064
 20
-3.917852774646271
 10
3.448663633905933
 20
-3.9650491353730097
 10
3.437516840284931
 20
-4.011986076619358
 10
3.425221513668474
 20
-4.058635325326995
 10
3.41178506030156
 20
-4.104968781732826
 10
3.3972155738012773
 20
-4.150958536295234
 10
3.381521830281506
 20
-4.196576886505735
 10
3.364713283066515
 20
-4.241796353575945
 10
3.3468000569966354
 20
-4.286589698989766
 10
3.3277929423294315
 20
-4.330929940910848
 10
3.307703388240059
 20
-4.374790370435449
 10
3.2865434959247026
 20
-4.41814456768087
 10
3.264326011311275
 20
-4.460966417699809
 10
3.2410643173817424
 20
-4.503230126211026
 10
3.2167724261107153
 20
-4.544910235136855
 10
3.1914649700251654
 20
-4.5859816379382
 10
3.1651571933903293
 20
-4.62641959473777
 10
3.1378649430271426
 20
-4.666199747222465
 10
3.1096046587667017
 20
-4.7052981333159005
 10
3.0803933635475227
 20
-4.743691201612279
 10
3.050248653161567
 20
-4.781355825562867
 10
3.0191886856551857
 20
-4.8182693174065685
 10
2.9872321703914
 20
-4.85440944183618
 10
2.9543983567800725
 20
-4.889754429392111
 10
2.920707022682787
 20
-4.924282989575493
 10
2.8861784624994042
 20
-4.957974323672779
 10
2.8508334749434727
 20
-4.990808137284108
 10
2.8146933505138616
 20
-5.022764652547893
 10
2.7777798586701605
 20
-5.053824620054273
 10
2.7401152347195725
 20
-5.08396933044023
 10
2.701722166423195
 20
-5.113180625659409
 10
2.662623780329759
 20
-5.14144090991985
 10
2.6228436278450644
 20
-5.168733160283035
 10
2.5824056710454935
 20
-5.195040936917872
 10
2.541334268244148
 20
-5.220348393003422
 10
2.4996541593183195
 20
-5.244640284274449
 10
2.4573904508071034
 20
-5.267901978203982
 10
2.4145686007881646
 20
-5.290119462817409
 10
2.371214403542743
 20
-5.311279355132766
 10
2.3273539740181413
 20
-5.331368909222138
 10
2.283013732097059
 20
-5.350376023889342
 10
2.2382203866832397
 20
-5.368289249959221
 10
2.1930009196130293
 20
-5.385097797174213
 10
2.1473825694025277
 20
-5.400791540693984
 10
2.1013928148401195
 20
-5.415361027194266
 10
2.055059358434288
 20
-5.42879748056118
 10
2.0084101097266513
 20
-5.44109280717764
 10
1.9614731684803028
 20
-5.45223960079864
 10
1.9142768077535643
 20
-5.462231147012512
 10
1.866849456869352
 20
-5.471061427285424
 10
1.8192196842904154
 20
-5.478725122586725
 10
1.7714161804107649
 20
-5.485217616592928
 10
1.7234677402736494
 20
-5.490534998468417
 10
1.6754032462264983
 20
-5.494674065221176
 10
1.6272516505232806
 20
-5.497632323632166
 10
1.5790419578847419
 20
-5.499407991757135
 10
1.5308032080270522
 20
-5.5
 10
1.4825644581693627
 20
-5.499407991757135
 10
1.4343547655308246
 20
-5.497632323632166
 10
1.3862031698276063
 20
-5.494674065221176
 10
1.3381386757804552
 20
-5.490534998468417
 10
1.2901902356433397
 20
-5.485217616592928
 10
1.2423867317636892
 20
-5.478725122586725
 10
1.1947569591847524
 20
-5.471061427285424
 10
1.1473296083005402
 20
-5.462231147012512
 10
1.1001332475738017
 20
-5.45223960079864
 10
1.053196306327453
 20
-5.44109280717764
 10
1.0065470576198163
 20
-5.42879748056118
 10
0.9602136012139848
 20
-5.415361027194266
 10
0.9142238466515775
 20
-5.400791540693984
 10
0.8686054964410753
 20
-5.385097797174213
 10
0.8233860293708657
 20
-5.368289249959221
 10
0.7785926839570462
 20
-5.350376023889342
 10
0.7342524420359634
 20
-5.331368909222138
 10
0.6903920125113623
 20
-5.311279355132766
 10
0.6470378152659401
 20
-5.290119462817409
 10
0.6042159652470013
 20
-5.267901978203982
 10
0.5619522567357851
 20
-5.244640284274449
 10
0.5202721478099562
 20
-5.220348393003422
 10
0.4792007450086111
 20
-5.195040936917872
 10
0.4387627882090407
 20
-5.168733160283037
 10
0.39898263572434567
 20
-5.14144090991985
 10
0.3598842496309097
 20
-5.113180625659409
 10
0.321491181334532
 20
-5.08396933044023
 10
0.283826557383944
 20
-5.053824620054273
 10
0.24691306554024287
 20
-5.022764652547893
 10
0.2107729411106319
 20
-4.990808137284106
 10
0.17542795355470017
 20
-4.957974323672779
 10
0.14089939337131754
 20
-4.924282989575493
 10
0.10720805927403204
 20
-4.889754429392111
 10
0.0743742456627052
 20
-4.85440944183618
 10
0.04241773039891887
 20
-4.8182693174065685
 10
0.011357762892537778
 20
-4.781355825562867
 10
-0.01878694749341832
 20
-4.743691201612279
 10
-0.047998242712596936
 20
-4.705298133315902
 10
-0.07625852697303827
 20
-4.666199747222467
 10
-0.10355077733622478
 20
-4.62641959473777
 10
-0.1298585539710603
 20
-4.5859816379382
 10
-0.1551660100566108
 20
-4.544910235136855
 10
-0.17945790132763736
 20
-4.503230126211026
 10
-0.2027195952571707
 20
-4.460966417699811
 10
-0.22493707987059802
 20
-4.418144567680872
 10
-0.24609697218595397
 20
-4.374790370435449
 10
-0.26618652627532713
 20
-4.330929940910848
 10
-0.2851936409425304
 20
-4.286589698989766
 10
-0.3031068670124104
 20
-4.241796353575945
 10
-0.3199154142274013
 20
-4.196576886505735
 10
-0.3356091577471727
 20
-4.150958536295234
 10
-0.35017864424745476
 20
-4.104968781732826
 10
-0.36361509761436894
 20
-4.058635325326995
 10
-0.3759104242308274
 20
-4.011986076619358
 10
-0.3870572178518287
 20
-3.9650491353730097
 10
-0.39704876406570105
 20
-3.917852774646271
 10
-0.4058790443386132
 20
-3.870425423762059
 10
-0.413542739639914
 20
-3.8227956511831223
 10
-0.4200352336461175
 20
-3.7749921473034713
 10
-0.4253526155216056
 20
-3.7270437071663554
 10
-0.4294916822743652
 20
-3.678979213119205
 10
-0.4324499406853544
 20
-3.630827617415987
 10
-0.43422560881032307
 20
-3.5826179247774492
 10
-0.4348176170531888
 20
-3.534379174919759
 10
-0.43422560881032307
 20
-3.4861404250620702
 10
-0.4324499406853544
 20
-3.4379307324235313
 10
-0.4294916822743652
 20
-3.3897791367203127
 10
-0.4253526155216056
 20
-3.3417146426731628
 10
-0.4200352336461175
 20
-3.2937662025360464
 10
-0.413542739639914
 20
-3.245962698656396
 10
-0.4058790443386132
 20
-3.1983329260774593
 10
-0.39704876406570105
 20
-3.150905575193247
 10
-0.3870572178518287
 20
-3.1037092144665084
 10
-0.3759104242308274
 20
-3.05677227322016
 10
-0.36361509761436894
 20
-3.010123024512524
 10
-0.35017864424745515
 20
-2.9637895681066917
 10
-0.3356091577471727
 20
-2.9177998135442844
 10
-0.3199154142274013
 20
-2.8721814633337814
 10
-0.3031068670124108
 20
-2.8269619962635724
 10
-0.2851936409425308
 20
-2.7821686508497523
 10
-0.26618652627532713
 20
-2.73782840892867
 10
-0.24609697218595433
 20
-2.6939679794040683
 10
-0.22493707987059838
 20
-2.6506137821586475
 10
-0.2027195952571707
 20
-2.6077919321397087
 10
-0.17945790132763775
 20
-2.5655282236284918
 10
-0.1551660100566108
 20
-2.523848114702663
 10
-0.12985855397106066
 20
-2.4827767119013178
 10
-0.10355077733622554
 20
-2.4423387551017472
 10
-0.07625852697303827
 20
-2.402558602617053
 10
-0.047998242712596936
 20
-2.363460216523617
 10
-0.01878694749341832
 20
-2.3250671482272387
 10
0.011357762892537778
 20
-2.2874025242766507
 10
0.04241773039891887
 20
-2.2504890324329496
 10
0.07437424566270442
 20
-2.2143489080033385
 10
0.10720805927403204
 20
-2.179003920447407
 10
0.1408993933713168
 20
-2.1444753602640243
 10
0.1754279535546994
 20
-2.1107840261667388
 10
0.21077294111063113
 20
-2.077950212555412
 10
0.2469130655402421
 20
-2.0459936972916255
 10
0.2838265573839425
 20
-2.014933729785246
 10
0.3214911813345304
 20
-1.9847890193992899
 10
0.3598842496309105
 20
-1.9555777241801098
 10
0.3989826357243464
 20
-1.9273174399196684
 10
0.4387627882090399
 20
-1.9000251895564828
 10
0.4792007450086111
 20
-1.873717412921646
 10
0.5202721478099555
 20
-1.8484099568360959
 10
0.5619522567357851
 20
-1.824118065565069
 10
0.6042159652470013
 20
-1.8008563716355361
 10
0.6470378152659393
 20
-1.7786388870221088
 10
0.6903920125113607
 20
-1.7574789947067524
 10
0.7342524420359634
 20
-1.7373894406173789
 10
0.7785926839570446
 20
-1.7183823259501758
 10
0.8233860293708657
 20
-1.7004690998802967
 10
0.8686054964410753
 20
-1.683660552665305
 10
0.9142238466515775
 20
-1.667966809145534
 10
0.960213601213984
 20
-1.6533973226452516
 10
1.0065470576198157
 20
-1.6399608692783385
 10
1.053196306327453
 20
-1.6276655426618787
 10
1.1001332475738008
 20
-1.6165187490408783
 10
1.1473296083005395
 20
-1.6065272028270063
 10
1.1947569591847518
 20
-1.597696922554094
 10
1.2423867317636892
 20
-1.590033227252793
 10
1.2901902356433381
 20
-1.58354073324659
 10
1.3381386757804559
 20
-1.5782233513711015
 10
1.3862031698276063
 20
-1.574084284618342
 10
1.434354765530824
 20
-1.5711260262073519
 10
1.4825644581693627
 20
-1.5693503580823833
 10
1.5308032080270522
 20
-1.568758349839518
 10
1.5790419578847419
 20
-1.5693503580823833
 10
1.6272516505232806
 20
-1.5711260262073519
 10
1.6754032462264983
 20
-1.574084284618342
 10
1.7234677402736494
 20
-1.5782233513711015
 10
1.7714161804107649
 20
-1.58354073324659
 10
1.8192196842904154
 20
-1.590033227252793
 10
1.866849456869352
 20
-1.597696922554094
 10
1.9142768077535643
 20
-1.6065272028270063
 10
1.9614731684803028
 20
-1.6165187490408783
 10
2.0084101097266513
 20
-1.6276655426618787
 10
2.055059358434288
 20
-1.6399608692783385
 10
2.1013928148401195
 20
-1.6533973226452516
 10
2.1473825694025277
 20
-1.667966809145534
 10
2.1930009196130293
 20
-1.683660552665305
 10
2.2382203866832397
 20
-1.7004690998802967
 10
2.283013732097059
 20
-1.7183823259501758
 10
2.3273539740181413
 20
-1.7373894406173804
 10
2.371214403542743
 20
-1.7574789947067524
 10
2.4145686007881646
 20
-1.7786388870221088
 10
2.4573904508071034
 20
-1.8008563716355361
 10
2.4996541593183195
 20
-1.824118065565069
 10
2.541334268244148
 20
-1.8484099568360959
 10
2.5824056710454935
 20
-1.873717412921646
 10
2.6228436278450644
 20
-1.9000251895564828
 10
2.662623780329759
 20
-1.9273174399196684
 10
2.701722166423195
 20
-1.9555777241801098
 10
2.7401152347195725
 20
-1.9847890193992885
 10
2.7777798586701605
 20
-2.0149337297852443
 10
2.8146933505138616
 20
-2.0459936972916255
 10
2.8508334749434727
 20
-2.0779502125554106
 10
2.8861784624994042
 20
-2.1107840261667388
 10
2.920707022682787
 20
-2.1444753602640243
 10
2.9543983567800725
 20
-2.179003920447407
 10
2.9872321703914
 20
-2.2143489080033385
 10
3.0191886856551857
 20
-2.2504890324329496
 10
3.050248653161567
 20
-2.2874025242766507
 10
3.0803933635475227
 20
-2.3250671482272387
 10
3.1096046587667017
 20
-2.363460216523617
 10
3.1378649430271426
 20
-2.402558602617053
 10
3.1651571933903293
 20
-2.4423387551017472
 10
3.1914649700251645
 20
-2.4827767119013178
 10
3.2167724261107153
 20
-2.523848114702663
 10
3.2410643173817424
 20
-2.5655282236284918
 10
3.264326011311275
 20
-2.6077919321397074
 10
3.2865434959247026
 20
-2.6506137821586475
 10
3.307703388240059
 20
-2.6939679794040683
 10
3.3277929423294315
 20
-2.73782840892867
 10
3.3468000569966354
 20
-2.7821686508497523
 10
3.3647132830665147
 20
-2.8269619962635724
 10
3.381521830281506
 20
-2.8721814633337828
 10
3.3972155738012773
 20
-2.9177998135442844
 10
3.41178506030156
 20
-2.9637895681066917
 10
3.425221513668474
 20
-3.0101230245125223
 10
3.437516840284931
 20
-3.05677227322016
 10
3.448663633905933
 20
-3.1037092144665084
 10
3.4586551801198064
 20
-3.150905575193247
 10
3.467485460392717
 20
-3.1983329260774593
 10
3.475149155694018
 20
-3.245962698656396
 10
3.4816416497002227
 20
-3.2937662025360464
 10
3.4869590315757097
 20
-3.3417146426731628
 10
3.4910980983284694
 20
-3.3897791367203127
 10
3.4940563567394594
 20
-3.4379307324235313
 10
3.495832024864428
 20
-3.4861404250620702
 10
3.496424033107293
 20
-3.534379174919759
  0
LWPOLYLINE
  5
31
330
17
100
AcDbEntity
  8
0
100
AcDbPolyline
 90
257
 70
1
 10
3.496424033107293
 20
-3.534379174919759
 10
3.495832024864428
 20
-3.5826179247774492
 10
3.4940563567394594
 20
-3.630827617415987
 10
3.4910980983284694
 20
-3.678979213119205
 10
3.4869590315757097
 20
-3.7270437071663554
 10
3.4816416497002227
 20
-3.7749921473034713
 10
3.475149155694018
 20
-3.8227956511831223
 10
3.467485460392717
 20
-3.870425423762059
 10
3.4586551801198064
 20
-3.917852774646271
 10
3.448663633905933
 20
-3.9650491353730097
 10
3.437516840284931
 20
-4.011986076619358
 10
3.425221513668474
 20
-4.058635325326995
 10
3.41178506030156
 20
-4.104968781732826
 10
3.3972155738012773
 20
-4.150958536295234
 10
3.381521830281506
 20
-4.196576886505735
 10
3.364713283066515
 20
-4.241796353575945
 10
3.3468000569966354
 20
-4.286589698989766
 10
3.3277929423294315
 20
-4.330929940910848
 10
3.307703388240059
 20
-4.374790370435449
 10
3.2865434959247026
 20
-4.41814456768087
 10
3.264326011311275
 20
-4.460966417699809
 10
3.2410643173817424
 20
-4.503230126211026
 10
3.2167724261107153
 20
-4.544910235136855
 10
3.1914649700251654
 20
-4.5859816379382
 10
3.1651571933903293
 20
-4.62641959473777
 10
3.1378649430271426
 20
-4.666199747222465
 10
3.1096046587667017
 20
-4.7052981333159005
 10
3.0803933635475227
 20
-4.743691201612279
 10
3.050248653161567
 20
-4.781355825562867
 10
3.0191886856551857
 20
-4.8182693174065685
 10
2.9872321703914
 20
-4.85440944183618
 10
2.9543983567800725
 20
-4.889754429392111
 10
2.920707022682787
 20
-4.924282989575493
 10
2.8861784624994042
 20
-4.957974323672779
 10
2.8508334749434727
 20
-4.990808137284108
 10
2.8146933505138616
 20
-5.022764652547893
 10
2.7777798586701605
 20
-5.053824620054273
 10
2.7401152347195725
 20
-5.08396933044023
 10
2.701722166423195
 20
-5.113180625659409
 10
2.662623780329759
 20
-5.14144090991985
 10
2.6228436278450644
 20
-5.168733160283035
 10
2.5824056710454935
 20
-5.195040936917872
 10
2.541334268244148
 20
-5.220348393003422
 10
2.4996541593183195
 20
-5.244640284274449
 10
2.4573904508071034
 20
-5.267901978203982
 10
2.4145686007881646
 20
-5.290119462817409
 10
2.371214403542743
 20
-5.311279355132766
 10
2.3273539740181413
 20
-5.331368909222138
 10
2.283013732097059
 20
-5.350376023889342
 10
2.2382203866832397
 20
-5.368289249959221
 10
2.1930009196130293
 20
-5.385097797174213
 10
2.1473825694025277
 20
-5.400791540693984
 10
2.1013928148401195
 20
-5.415361027194266
 10
2.055059358434288
 20
-5.42879748056118
 10
2.0084101097266513
 20
-5.44109280717764
 10
1.9614731684803028
 20
-5.45223960079864
 10
1.9142768077535643
 20
-5.462231147012512
 10
1.866849456869352
 20
-5.471061427285424
 10
1.8192196842904154
 20
-5.478725122586725
 10
1.7714161804107649
 20
-5.485217616592928
 10
1.7234677402736494
 20
-5.490534998468417
 10
1.6754032462264983
 20
-5.494674065221176
 10
1.6272516505232806
 20
-5.497632323632166
 10
1.5790419578847419
 20
-5.499407991757135
 10
1.5308032080270522
 20
-5.5
 10
1.4825644581693627
 20
-5.499407991757135
 10
1.4343547655308246
 20
-5.497632323632166
 10
1.3862031698276063
 20
-5.494674065221176
 10
1.3381386757804552
 20
-5.490534998468417
 10
1.2901902356433397
 20
-5.485217616592928
 10
1.2423867317636892
 20
-5.478725122586725
 10
1.1947569591847524
 20
-5.471061427285424
 10
1.1473296083005402
 20
-5.462231147012512
 10
1.1001332475738017
 20
-5.45223960079864
 10
1.053196306327453
 20
-5.44109280717764
 10
1.0065470576198163
 20
-5.42879748056118
 10
0.9602136012139848
 20
-5.415361027194266
 10
0.9142238466515775
 20
-5.400791540693984
 10
0.8686054964410753
 20
-5.385097797174213
 10
0.8233860293708657
 20
-5.368289249959221
 10
0.7785926839570462
 20
-5.350376023889342
 10
0.7342524420359634
 20
-5.331368909222138
 10
0.6903920125113623
 20
-5.311279355132766
 10
0.6470378152659401
 20
-5.290119462817409
 10
0.6042159652470013
 20
-5.267901978203982
 10
0.5619522567357851
 20
-5.244640284274449
 10
0.5202721478099562
 20
-5.220348393003422
 10
0.4792007450086111
 20
-5.195040936917872
 10
0.4387627882090407
 20
-5.168733160283037
 10
0.39898263572434567
 20
-5.14144090991985
 10
0.3598842496309097
 20
-5.113180625659409
 10
0.321491181334532
 20
-5.08396933044023
 10
0.283826557383944
 20
-5.053824620054273
 10
0.24691306554024287
 20
-5.022764652547893
 10
0.2107729411106319
 20
-4.990808137284106
 10
0.17542795355470017
 20
-4.957974323672779
 10
0.14089939337131754
 20
-4.924282989575493
 10
0.10720805927403204
 20
-4.889754429392111
 10
0.0743742456627052
 20
-4.85440944183618
 10
0.04241773039891887
 20
-4.8182693174065685
 10
0.011357762892537778
 20
-4.781355825562867
 10
-0.01878694749341832
 20
-4.743691201612279
 10
-0.047998242712596936
 20
-4.705298133315902
 10
-0.07625852697303827
 20
-4.666199747222467
 10
-0.10355077733622478
 20
-4.62641959473777
 10
-0.1298585539710603
 20
-4.5859816379382
 10
-0.1551660100566108
 20
-4.544910235136855
 10
-0.17945790132763736
 20
-4.503230126211026
 10
-0.2027195952571707
 20
-4.460966417699811
 10
-0.22493707987059802
 20
-4.418144567680872
 10
-0.24609697218595397
 20
-4.374790370435449
 10
-0.26618652627532713
 20
-4.330929940910848
 10
-0.2851936409425304
 20
-4.286589698989766
 10
-0.3031068670124104
 20
-4.241796353575945
 10
-0.3199154142274013
 20
-4.196576886505735
 10
-0.3356091577471727
 20
-4.150958536295234
 10
-0.35017864424745476
 20
-4.104968781732826
 10
-0.36361509761436894
 20
-4.058635325326995
 10
-0.3759104242308274
 20
-4.011986076619358
 10
-0.3870572178518287
 20
-3.9650491353730097
 10
-0.39704876406570105
 20
-3.917852774646271
 10
-0.4058790443386132
 20
-3.870425423762059
 10
-0.413542739639914
 20
-3.8227956511831223
 10
-0.4200352336461175
 20
-3.7749921473034713
 10
-0.4253526155216056
 20
-3.7270437071663554
 10
-0.4294916822743652
 20
-3.678979213119205
 10
-0.4324499406853544
 20
-3.630827617415987
 10
-0.43422560881032307
 20
-3.5826179247774492
 10
-0.4348176170531888
 20
-3.534379174919759
 10
-0.43422560881032307
 20
-3.4861404250620702
 10
-0.4324499406853544
 20
-3.4379307324235313
 10
-0.4294916822743652
 20
-3.3897791367203127
 10
-0.4253526155216056
 20
-3.3417146426731628
 10
-0.4200352336461175
 20
-3.2937662025360464
 10
-0.413542739639914
 20
-3.245962698656396
 10
-0.4058790443386132
 20
-3.1983329260774593
 10
-0.39704876406570105
 20
-3.150905575193247
 10
-0.3870572178518287
 20
-3.1037092144665084
 10
-0.3759104242308274
 20
-3.05677227322016
 10
-0.36361509761436894
 20
-3.010123024512524
 10
-0.35017864424745515
 20
-2.9637895681066917
 10
-0.3356091577471727
 20
-2.9177998135442844
 10
-0.3199154142274013
 20
-2.8721814633337814
 10
-0.3031068670124108
 20
-2.8269619962635724
 10
-0.2851936409425308
 20
-2.7821686508497523
 10
-0.26618652627532713
 20
-2.73782840892867
 10
-0.24609697218595433
 20
-2.6939679794040683
 10
-0.22493707987059838
 20
-2.6506137821586475
 10
-0.2027195952571707
 20
-2.6077919321397087
 10
-0.17945790132763775
 20
-2.5655282236284918
 10
-0.1551660100566108
 20
-2.523848114702663
 10
-0.12985855397106066
 20
-2.4827767119013178
 10
-0.10355077733622554
 20
-2.4423387551017472
 10
-0.07625852697303827
 20
-2.402558602617053
 10
-0.047998242712596936
 20
-2.363460216523617
 10
-0.01878694749341832
 20
-2.3250671482272387
 10
0.011357762892537778
 20
-2.2874025242766507
 10
0.04241773039891887
 20
-2.2504890324329496
 10
0.07437424566270442
 20
-2.2143489080033385
 10
0.10720805927403204
 20
-2.179003920447407
 10
0.1408993933713168
 20
-2.1444753602640243
 10
0.1754279535546994
 20
-2.1107840261667388
 10
0.21077294111063113
 20
-2.077950212555412
 10
0.2469130655402421
 20
-2.0459936972916255
 10
0.2838265573839425
 20
-2.014933729785246
 10
0.3214911813345304
 20
-1.9847890193992899
 10
0.3598842496309105
 20
-1.9555777241801098
 10
0.3989826357243464
 20
-1.9273174399196684
 10
0.4387627882090399
 20
-1.9000251895564828
 10
0.4792007450086111
 20
-1.873717412921646
 10
0.5202721478099555
 20
-1.8484099568360959
 10
0.5619522567357851
 20
-1.824118065565069
 10
0.6042159652470013
 20
-1.8008563716355361
 10
0.6470378152659393
 20
-1.7786388870221088
 10
0.6903920125113607
 20
-1.7574789947067524
 10
0.7342524420359634
 20
-1.7373894406173789
 10
0.7785926839570446
 20
-1.7183823259501758
 10
0.8233860293708657
 20
-1.7004690998802967
 10
0.8686054964410753
 20
-1.683660552665305
 10
0.9142238466515775
 20
-1.667966809145534
 10
0.960213601213984
 20
-1.6533973226452516
 10
1.0065470576198157
 20
-1.6399608692783385
 10
1.053196306327453
 20
-1.6276655426618787
 10
1.1001332475738008
 20
-1.6165187490408783
 10
1.1473296083005395
 20
-1.6065272028270063
 10
1.1947569591847518
 20
-1.597696922554094
 10
1.2423867317636892
 20
-1.590033227252793
 10
1.2901902356433381
 20
-1.58354073324659
 10
1.3381386757804559
 20
-1.5782233513711015
 10
1.3862031698276063
 20
-1.574084284618342
 10
1.434354765530824
 20
-1.5711260262073519
 10
1.4825644581693627
 20
-1.5693503580823833
 10
1.5308032080270522
 20
-1.568758349839518
 10
1.5790419578847419
 20
-1.5693503580823833
 10
1.6272516505232806
 20
-1.5711260262073519
 10
1.6754032462264983
 20
-1.574084284618342
 10
1.7234677402736494
 20
-1.5782233513711015
 10
1.7714161804107649
 20
-1.58354073324659
 10
1.8192196842904154
 20
-1.590033227252793
 10
1.866849456869352
 20
-1.597696922554094
 10
1.9142768077535643
 20
-1.6065272028270063
 10
1.9614731684803028
 20
-1.6165187490408783
 10
2.0084101097266513
 20
-1.6276655426618787
 10
2.055059358434288
 20
-1.6399608692783385
 10
2.1013928148401195
 20
-1.6533973226452516
 10
2.1473825694025277
 20
-1.667966809145534
 10
2.1930009196130293
 20
-1.683660552665305
 10
2.2382203866832397
 20
-1.7004690998802967
 10
2.283013732097059
 20
-1.7183823259501758
 10
2.3273539740181413
 20
-1.7373894406173804
 10
2.371214403542743
 20
-1.7574789947067524
 10
2.4145686007881646
 20
-1.7786388870221088
 10
2.4573904508071034
 20
-1.8008563716355361
 10
2.4996541593183195
 20
-1.824118065565069
 10
2.541334268244148
 20
-1.8484099568360959
 10
2.5824056710454935
 20
-1.873717412921646
 10
2.6228436278450644
 20
-1.9000251895564828
 10
2.662623780329759
 20
-1.9273174399196684
 10
2.701722166423195
 20
-1.9555777241801098
 10
2.7401152347195725
 20
-1.9847890193992885
 10
2.7777798586701605
 20
-2.0149337297852443
 10
2.8146933505138616
 20
-2.0459936972916255
 10
2.8508334749434727
 20
-2.0779502125554106
 10
2.8861784624994042
 20
-2.1107840261667388
 10
2.920707022682787
 20
-2.1444753602640243
 10
2.9543983567800725
 20
-2.179003920447407
 10
2.9872321703914
 20
-2.2143489080033385
 10
3.0191886856551857
 20
-2.2504890324329496
 10
3.050248653161567
 20
-2.2874025242766507
 10
3.0803933635475227
 20
-2.3250671482272387
 10
3.1096046587667017
 20
-2.363460216523617
 10
3.1378649430271426
 20
-2.402558602617053
 10
3.1651571933903293
 20
-2.4423387551017472
 10
3.1914649700251645
 20
-2.4827767119013178
 10
3.2167724261107153
 20
-2.523848114702663
 10
3.2410643173817424
 20
-2.5655282236284918
 10
3.264326011311275
 20
-2.6077919321397074
 10
3.2865434959247026
 20
-2.6506137821586475
 10
3.307703388240059
 20
-2.6939679794040683
 10
3.3277929423294315
 20
-2.73782840892867
 10
3.3468000569966354
 20
-2.7821686508497523
 10
3.3647132830665147
 20
-2.8269619962635724
 10
3.381521830281506
 20
-2.8721814633337828
 10
3.3972155738012773
 20
-2.9177998135442844
 10
3.41178506030156
 20
-2.9637895681066917
 10
3.425221513668474
 20
-3.0101230245125223
 10
3.437516840284931
 20
-3.05677227322016
 10
3.448663633905933
 20
-3.1037092144665084
 10
3.4586551801198064
 20
-3.150905575193247
 10
3.467485460392717
 20
-3.1983329260774593
 10
3.475149155694018
 20
-3.245962698656396
 10
3.4816416497002227
 20
-3.2937662025360464
 10
3.4869590315757097
 20
-3.3417146426731628
 10
3.4910980983284694
 20
-3.3897791367203127
 10
3.4940563567394594
 20
-3.4379307324235313
 10
3.495832024864428
 20
-3.4861404250620702
 10
3.496424033107293
 20
-3.534379174919759
  0
LWPOLYLINE
  5
32
330
17
100
AcDbEntity
  8
0
100
AcDbPolyline
 90
129
 70
0
 10
-2.706226730309347
 20
4.795043769374219
 10
-2.707012438025333
 20
4.80443300343722
 10
-2.7080193946046016
 20
4.81375337725886
 10
-2.709244884734293
 20
4.82300236273126
 10
-2.7106861931015467
 20
4.832177431746539
 10
-2.7123406043935043
 20
4.841276056196817
 10
-2.714205403297305
 20
4.850295707974214
 10
-2.71627787450009
 20
4.859233858970851
 10
-2.7185553026889986
 20
4.868087981078847
 10
-2.7210349725511724
 20
4.876855546190322
 10
-2.72371416877375
 20
4.885534026197396
 10
-2.7265901760438727
 20
4.894120892992189
 10
-2.7296602790486806
 20
4.902613618466821
 10
-2.7329217624753137
 20
4.911009674513411
 10
-2.736371911010913
 20
4.9193065330240815
 10
-2.7400080093426187
 20
4.927501665890951
 10
-2.74382734215757
 20
4.9355925450061395
 10
-2.747827194142908
 20
4.943576642261767
 10
-2.752004849985773
 20
4.951451429549952
 10
-2.756357594373305
 20
4.959214378762817
 10
-2.760882711992645
 20
4.96686296179248
 10
-2.765577487530932
 20
4.974394650531063
 10
-2.7704392056753075
 20
4.981806916870684
 10
-2.775465151112911
 20
4.989097232703464
 10
-2.7806526085308834
 20
4.996263069921523
 10
-2.7859988626163643
 20
5.0033019004169805
 10
-2.791501198056494
 20
5.010211196081957
 10
-2.7971568995384137
 20
5.016988428808572
 10
-2.802963251749263
 20
5.023631070488945
 10
-2.8089175393761816
 20
5.030136593015197
 10
-2.815017047106311
 20
5.036502468279448
 10
-2.821259059626791
 20
5.042726168173817
 10
-2.8276408616247615
 20
5.0488051645904255
 10
-2.8341597377873633
 20
5.0547369294213915
 10
-2.840812972801736
 20
5.060518934558837
 10
-2.8475978513550206
 20
5.0661486518948795
 10
-2.8545116581343573
 20
5.071623553321642
 10
-2.8615516778268857
 20
5.076941110731242
 10
-2.868715195119747
 20
5.0820987960158
 10
-2.8759994947000806
 20
5.087094081067437
 10
-2.8834018612550274
 20
5.091924437778273
 10
-2.8909195794717277
 20
5.096587338040426
 10
-2.8985499340373213
 20
5.1010802537460185
 10
-2.9062902096389487
 20
5.105400656787168
 10
-2.9141376909637504
 20
5.109546019055997
 10
-2.9220896626988666
 20
5.113513812444623
 10
-2.9301434095314374
 20
5.117301508845168
 10
-2.938296216148603
 20
5.120906580149751
 10
-2.946545367237504
 20
5.124326498250492
 10
-2.9548881474852804
 20
5.127558735039511
 10
-2.9633218415790727
 20
5.130600762408928
 10
-2.971843734206021
 20
5.133450052250864
 10
-2.980451110053266
 20
5.136104076457437
 10
-2.989141253807947
 20
5.138560306920769
 10
-2.9979114501572055
 20
5.140816215532978
 10
-3.006758983788181
 20
5.142869274186186
 10
-3.0156811393880143
 20
5.144716954772511
 10
-3.0246752016438445
 20
5.146356729184074
 10
-3.0337384552428137
 20
5.147786069312994
 10
-3.0428681848720602
 20
5.149002447051394
 10
-3.052061675218726
 20
5.150003334291391
 10
-3.0613162109699505
 20
5.150786202925105
 10
-3.0706290768128746
 20
5.151348524844657
 10
-3.079997557434637
 20
5.151687771942168
 10
-3.0894189375223804
 20
5.151801416109755
 10
-3.0988403176101227
 20
5.151687773778079
 10
-3.1082087982318862
 20
5.151348532111001
 10
-3.11752166407481
 20
5.15078621910045
 10
-3.1267761998260344
 20
5.150003362738354
 10
-3.1359696901726997
 20
5.149002491016638
 10
-3.145099419801947
 20
5.147786131927234
 10
-3.154162673400916
 20
5.1463568134620665
 10
-3.1631567356567465
 20
5.144717063613064
 10
-3.172078891256579
 20
5.142869410372155
 10
-3.180926424887555
 20
5.140816381731267
 10
-3.189696621236813
 20
5.138560505682327
 10
-3.1983867649914943
 20
5.136104310217263
 10
-3.2069941408387392
 20
5.133450323328003
 10
-3.2155160334656876
 20
5.130601073006475
 10
-3.22394972755948
 20
5.127559087244607
 10
-3.232292507807256
 20
5.124326894034325
 10
-3.2405416588961575
 20
5.120907021367557
 10
-3.248694465513323
 20
5.117301997236233
 10
-3.2567482123458937
 20
5.113514349632279
 10
-3.26470018408101
 20
5.109546606547623
 10
-3.2725476654058117
 20
5.105401295974192
 10
-3.280287941007439
 20
5.101080945903916
 10
-3.2879182955730326
 20
5.09658808432872
 10
-3.2954360137897325
 20
5.091925239240534
 10
-3.3028383803446797
 20
5.0870949386312825
 10
-3.3101226799250134
 20
5.082099710492897
 10
-3.317286197217874
 20
5.076942082817304
 10
-3.324326216910403
 20
5.07162458359643
 10
-3.3312400236897397
 20
5.066149740822205
 10
-3.338024902243024
 20
5.060520082486553
 10
-3.344678137257397
 20
5.054738136581405
 10
-3.3511970134199984
 20
5.048806431098689
 10
-3.3575788154179693
 20
5.042727494030331
 10
-3.363820827938449
 20
5.0365038533682585
 10
-3.3699203356685783
 20
5.0301380371044
 10
-3.3758746232954975
 20
5.0236325732306835
 10
-3.3816809755063466
 20
5.016989989739037
 10
-3.387336676988266
 20
5.0102128146213865
 10
-3.392839012428396
 20
5.003303575869662
 10
-3.398185266513877
 20
4.99626480147579
 10
-3.403372723931849
 20
4.9890990194316975
 10
-3.408398669369453
 20
4.981808757729314
 10
-3.413260387513828
 20
4.974396544360566
 10
-3.4179551630521154
 20
4.966864907317381
 10
-3.4224802806714547
 20
4.959216374591688
 10
-3.426833025058987
 20
4.9514534741754135
 10
-3.431010680901852
 20
4.9435787340604875
 10
-3.4350105328871905
 20
4.935594682238834
 10
-3.4388298657021417
 20
4.9275038467023835
 10
-3.4424659640338473
 20
4.919308755443062
 10
-3.445916112569446
 20
4.9110119364528
 10
-3.4491775959960798
 20
4.902615917723522
 10
-3.4522476990008877
 20
4.894123227247157
 10
-3.4551237062710105
 20
4.885536393015634
 10
-3.4578029024935883
 20
4.8768579430208785
 10
-3.4602825723557613
 20
4.8680904052548195
 10
-3.4625600005446704
 20
4.859236307709385
 10
-3.464632471747455
 20
4.8502981783765025
 10
-3.4664972706512565
 20
4.841278545248099
 10
-3.4681516819432137
 20
4.832179936316104
 10
-3.4695929903104674
 20
4.823004879572442
 10
-3.4708184804401587
 20
4.813755903009043
 10
-3.4718254370194277
 20
4.804435534617835
 10
-3.472611144735413
 20
4.7950463023907455
  0
LWPOLYLINE
  5
33
330
17
100
AcDbEntity
  8
0
100
AcDbPolyline
 90
193
 70
0
 10
-3.496424033107294
 20
4.836291410502578
 10
-3.493968443454319
 20
4.835109322398991
 10
-3.491505502193959
 20
4.833945137851483
 10
-3.4890353083494743
 20
4.832798879644678
 10
-3.486557960944124
 20
4.831670570563203
 10
-3.4840735590011676
 20
4.830560233391682
 10
-3.481582201543865
 20
4.829467890914743
 10
-3.4790839875954758
 20
4.828393565917012
 10
-3.47657901617926
 20
4.827337281183113
 10
-3.474067386318476
 20
4.826299059497673
 10
-3.471549197036385
 20
4.825278923645318
 10
-3.4690245473562453
 20
4.824276896410674
 10
-3.4664935363013174
 20
4.823293000578366
 10
-3.4639562628948606
 20
4.822327258933021
 10
-3.4614128261601347
 20
4.821379694259265
 10
-3.458863325120399
 20
4.820450329341722
 10
-3.456307858798913
 20
4.819539186965021
 10
-3.4537465262189366
 20
4.818646289913785
 10
-3.45117942640373
 20
4.817771660972641
 10
-3.448606658376552
 20
4.8169153229262145
 10
-3.446028321160662
 20
4.816077298559133
 10
-3.443444513779321
 20
4.81525761065602
 10
-3.4408553352557867
 20
4.814456282001503
 10
-3.4382608846133205
 20
4.813673335380208
 10
-3.4356612608751806
 20
4.81290879357676
 10
-3.433056563064628
 20
4.812162679375786
 10
-3.4304468902049208
 20
4.8114350155619094
 10
-3.42783234131932
 20
4.810725824919759
 10
-3.4252130154310843
 20
4.81003513023396
 10
-3.422589011563474
 20
4.809362954289137
 10
-3.419960428739748
 20
4.808709319869918
 10
-3.4173273659831667
 20
4.808074249760926
 10
-3.4146899223169886
 20
4.80745776674679
 10
-3.4120481967644753
 20
4.806859893612133
 10
-3.409402288348884
 20
4.806280653141584
 10
-3.406752296093476
 20
4.805720068119767
 10
-3.404098319021511
 20
4.805178161331307
 10
-3.401440456156247
 20
4.8046549555608316
 10
-3.3987788065209448
 20
4.8041504735929665
 10
-3.3961134691388644
 20
4.803664738212337
 10
-3.3934445430332647
 20
4.8031977722035695
 10
-3.3907721272274056
 20
4.802749598351289
 10
-3.3880963207445465
 20
4.802320239440123
 10
-3.385417222607947
 20
4.801909718254696
 10
-3.3827349318408673
 20
4.801518057579633
 10
-3.3800495474665664
 20
4.801145280199563
 10
-3.3773611685083043
 20
4.80079140889911
 10
-3.3746698939893403
 20
4.800456466462899
 10
-3.371975822932934
 20
4.800140475675558
 10
-3.369279054362346
 20
4.799843459321711
 10
-3.3665796873008342
 20
4.799565440185985
 10
-3.3638778207716595
 20
4.799306441053005
 10
-3.361173553798081
 20
4.7990664847073985
 10
-3.358466985403359
 20
4.798845593933791
 10
-3.355758214610752
 20
4.798643791516806
 10
-3.3530473404435206
 20
4.798461100241072
 10
-3.3503344619249242
 20
4.798297542891214
 10
-3.347619678078222
 20
4.798153142251858
 10
-3.344903087926674
 20
4.79802792110763
 10
-3.3421847904935396
 20
4.797921902243155
 10
-3.3394648848020787
 20
4.797835108443062
 10
-3.3367434698755507
 20
4.7977675624919724
 10
-3.3340206447372154
 20
4.797719287174515
 10
-3.331296508410332
 20
4.797690305275315
 10
-3.3285711599181607
 20
4.7976806395789975
 10
-3.3186555895563203
 20
4.797806112842165
 10
-3.308801877308672
 20
4.79818052112991
 10
-3.299013040601779
 20
4.798800847189599
 10
-3.2892920968622046
 20
4.799664073768596
 10
-3.2796420635165124
 20
4.800767183614266
 10
-3.270065957991266
 20
4.802107159473973
 10
-3.260566797713029
 20
4.803680984095085
 10
-3.2511476001083635
 20
4.805485640224965
 10
-3.241811382603834
 20
4.807518110610978
 10
-3.2325611626260042
 20
4.809775378000489
 10
-3.223399957601437
 20
4.812254425140864
 10
-3.2143307849566956
 20
4.814952234779467
 10
-3.205356662118344
 20
4.8178657896636645
 10
-3.196480606512945
 20
4.820992072540819
 10
-3.1877056355670623
 20
4.824328066158298
 10
-3.179034766707259
 20
4.827870753263466
 10
-3.170471017360099
 20
4.831617116603687
 10
-3.1620174049521457
 20
4.835564138926327
 10
-3.153676946909962
 20
4.839708802978751
 10
-3.1454526606601116
 20
4.844048091508323
 10
-3.1373475636291577
 20
4.8485789872624085
 10
-3.129364673243664
 20
4.853298472988374
 10
-3.1215070069301944
 20
4.858203531433583
 10
-3.1137775821153113
 20
4.8632911453454
 10
-3.106179416225578
 20
4.868558297471192
 10
-3.098715526687559
 20
4.874001970558323
 10
-3.091388930927817
 20
4.879619147354157
 10
-3.084202646372915
 20
4.885406810606061
 10
-3.0771596904494176
 20
4.891361943061399
 10
-3.070263080583887
 20
4.897481527467535
 10
-3.063515834202887
 20
4.903762546571837
 10
-3.0569209687329817
 20
4.910201983121667
 10
-3.050481501600734
 20
4.916796819864391
 10
-3.0442004502327067
 20
4.923544039547376
 10
-3.038080832055464
 20
4.930440624917984
 10
-3.032125664495569
 20
4.9374835587235815
 10
-3.0263379649795854
 20
4.944669823711533
 10
-3.020720750934076
 20
4.951996402629204
 10
-3.0152770397856044
 20
4.95946027822396
 10
-3.0100098489607343
 20
4.9670584332431655
 10
-3.0049221958860293
 20
4.974787850434185
 10
-3.000017097988052
 20
4.9826455125443845
 10
-2.995297572693367
 20
4.9906284023211285
 10
-2.990766637428536
 20
4.998733502511782
 10
-2.986427309620124
 20
5.006957795863711
 10
-2.982282606694694
 20
5.0152982651242795
 10
-2.9783355460788083
 20
5.023751893040852
 10
-2.9745891451990323
 20
5.032315662360795
 10
-2.971046421481928
 20
5.040986555831473
 10
-2.9677103923540584
 20
5.04976155620025
 10
-2.964584075241988
 20
5.058637646214493
 10
-2.96167048757228
 20
5.067611808621565
 10
-2.9589726467714974
 20
5.076681026168832
 10
-2.9564935702662045
 20
5.085842281603659
 10
-2.954236275482963
 20
5.095092557673412
 10
-2.9522037798483383
 20
5.104428837125455
 10
-2.950399100788892
 20
5.113848102707153
 10
-2.9488252557311885
 20
5.12334733716587
 10
-2.9474852621017913
 20
5.132923523248973
 10
-2.9463821373272636
 20
5.142573643703828
 10
-2.9455188988341687
 20
5.152294681277795
 10
-2.94489856404907
 20
5.162083618718245
 10
-2.9445241503985304
 20
5.171937438772539
 10
-2.9443986753091145
 20
5.181853124188044
 10
-2.944444922611276
 20
5.187823186786455
 10
-2.9445833452624433
 20
5.193780180517688
 10
-2.944813464379639
 20
5.199723203156942
 10
-2.945134801079886
 20
5.205651352479408
 10
-2.9455468764802077
 20
5.211563726260286
 10
-2.9460492116976273
 20
5.217459422274767
 10
-2.946641327849168
 20
5.2233375382980505
 10
-2.947322746051853
 20
5.229197172105329
 10
-2.948092987422705
 20
5.235037421471799
 10
-2.9489515730787477
 20
5.240857384172656
 10
-2.9498980241370036
 20
5.246656157983094
 10
-2.9509318617144964
 20
5.252432840678311
 10
-2.9520526069282496
 20
5.2581865300335
 10
-2.9532597808952854
 20
5.263916323823857
 10
-2.954552904732627
 20
5.269621319824579
 10
-2.9559314995572983
 20
5.27530061581086
 10
-2.9573950864863217
 20
5.280953309557894
 10
-2.958943186636721
 20
5.28657849884088
 10
-2.960575321125519
 20
5.292175281435011
 10
-2.9622910110697385
 20
5.2977427551154825
 10
-2.9640897775864032
 20
5.303280017657491
 10
-2.965971141792536
 20
5.30878616683623
 10
-2.9679346248051597
 20
5.314260300426897
 10
-2.969979747741298
 20
5.3197015162046855
 10
-2.9721060317179737
 20
5.325108911944793
 10
-2.9743129978522105
 20
5.3304815854224135
 10
-2.9766001672610307
 20
5.3358186344127425
 10
-2.978967061061458
 20
5.341119156690976
 10
-2.9814132003705156
 20
5.346382250032309
 10
-2.983938106305226
 20
5.351607012211936
 10
-2.986541299982613
 20
5.3567925410050545
 10
-2.9892223025197
 20
5.361937934186858
 10
-2.9919806350335088
 20
5.367042289532543
 10
-2.994815818641063
 20
5.372104704817304
 10
-2.9977273744593873
 20
5.377124277816338
 10
-3.000714823605503
 20
5.382100106304839
 10
-3.003777687196434
 20
5.387031288058003
 10
-3.0069154863492034
 20
5.391916920851025
 10
-3.0101277421808343
 20
5.396756102459101
 10
-3.013413975808349
 20
5.401547930657426
 10
-3.0167737083487727
 20
5.406291503221195
 10
-3.0202064609191264
 20
5.410985917925604
 10
-3.0237117546364347
 20
5.415630272545848
 10
-3.0272891106177195
 20
5.420223664857123
 10
-3.0309380499800054
 20
5.424765192634625
 10
-3.034658093840314
 20
5.429253953653547
 10
-3.0384487633156696
 20
5.433689045689087
 10
-3.0423095795230948
 20
5.438069566516439
 10
-3.0462400635796127
 20
5.442394613910798
 10
-3.0502397366022467
 20
5.446663285647361
 10
-3.05430811970802
 20
5.4508746795013225
 10
-3.0584447340139556
 20
5.455027893247878
 10
-3.0626491006370764
 20
5.459122024662223
 10
-3.066920740694406
 20
5.463156171519552
 10
-3.071259175302967
 20
5.467129431595062
 10
-3.0756639255797826
 20
5.4710409026639475
 10
-3.0801345126418767
 20
5.474889682501403
 10
-3.084670457606272
 20
5.478674868882626
 10
-3.089271281589991
 20
5.482395559582811
 10
-3.093936505710058
 20
5.4860508523771525
 10
-3.0986656510834947
 20
5.4896398450408475
 10
-3.1034582388273257
 20
5.4931616353490895
 10
-3.108313790058573
 20
5.496615321077075
 10
-3.113231825894261
 20
5.5
  0
LWPOLYLINE
  5
34
330
17
100
AcDbEntity
  8
0
100
AcDbPolyline
 90
193
 70
0
 10
-3.0656060491504995
 20
5.5
 10
-3.070524084986187
 20
5.496615321077075
 10
-3.0753796362174346
 20
5.4931616353490895
 10
-3.080172223961265
 20
5.4896398450408475
 10
-3.0849013693347027
 20
5.4860508523771525
 10
-3.089566593454769
 20
5.482395559582811
 10
-3.0941674174384888
 20
5.478674868882626
 10
-3.0987033624028832
 20
5.474889682501403
 10
-3.1031739494649773
 20
5.4710409026639475
 10
-3.1075786997417936
 20
5.467129431595062
 10
-3.1119171343503544
 20
5.463156171519552
 10
-3.1161887744076835
 20
5.459122024662223
 10
-3.120393141030805
 20
5.455027893247878
 10
-3.12452975533674
 20
5.4508746795013225
 10
-3.128598138442513
 20
5.446663285647361
 10
-3.1325978114651476
 20
5.442394613910798
 10
-3.1365282955216656
 20
5.438069566516439
 10
-3.1403891117290907
 20
5.433689045689087
 10
-3.1441797812044463
 20
5.429253953653547
 10
-3.1478998250647554
 20
5.424765192634625
 10
-3.151548764427041
 20
5.420223664857124
 10
-3.155126120408326
 20
5.415630272545848
 10
-3.158631414125634
 20
5.410985917925604
 10
-3.162064166695988
 20
5.406291503221195
 10
-3.1654238992364108
 20
5.401547930657426
 10
-3.1687101328639264
 20
5.396756102459101
 10
-3.171922388695557
 20
5.391916920851025
 10
-3.175060187848327
 20
5.387031288058003
 10
-3.1781230514392576
 20
5.382100106304839
 10
-3.181110500585373
 20
5.377124277816338
 10
-3.184022056403697
 20
5.372104704817304
 10
-3.186857240011252
 20
5.367042289532543
 10
-3.189615572525061
 20
5.361937934186858
 10
-3.1922965750621475
 20
5.3567925410050545
 10
-3.194899768739534
 20
5.351607012211936
 10
-3.1974246746742447
 20
5.346382250032309
 10
-3.199870813983302
 20
5.341119156690976
 10
-3.2022377077837296
 20
5.3358186344127425
 10
-3.20452487719255
 20
5.3304815854224135
 10
-3.206731843326786
 20
5.325108911944793
 10
-3.208858127303462
 20
5.3197015162046855
 10
-3.2109032502396007
 20
5.314260300426897
 10
-3.2128667332522247
 20
5.30878616683623
 10
-3.2147480974583575
 20
5.303280017657491
 10
-3.216546863975022
 20
5.2977427551154825
 10
-3.2182625539192418
 20
5.292175281435011
 10
-3.2198946884080395
 20
5.28657849884088
 10
-3.2214427885584382
 20
5.280953309557894
 10
-3.222906375487462
 20
5.27530061581086
 10
-3.2242849703121332
 20
5.269621319824579
 10
-3.2255780941494754
 20
5.263916323823857
 10
-3.2267852681165112
 20
5.2581865300335
 10
-3.2279060133302635
 20
5.252432840678311
 10
-3.2289398509077563
 20
5.246656157983094
 10
-3.2298863019660127
 20
5.240857384172656
 10
-3.230744887622055
 20
5.235037421471799
 10
-3.2315151289929074
 20
5.229197172105329
 10
-3.2321965471955925
 20
5.2233375382980505
 10
-3.232788663347133
 20
5.217459422274767
 10
-3.233290998564553
 20
5.211563726260286
 10
-3.2337030739648744
 20
5.205651352479408
 10
-3.2340244106651217
 20
5.199723203156942
 10
-3.234254529782317
 20
5.193780180517688
 10
-3.234392952433484
 20
5.187823186786455
 10
-3.2344391997356454
 20
5.181853124188044
 10
-3.2343137264724784
 20
5.171937438772539
 10
-3.2339393181847327
 20
5.162083618718245
 10
-3.233318992125044
 20
5.152294681277795
 10
-3.2324557655460477
 20
5.142573643703828
 10
-3.2313526557003778
 20
5.132923523248973
 10
-3.2300126798406694
 20
5.12334733716587
 10
-3.228438855219558
 20
5.113848102707153
 10
-3.2266341990896783
 20
5.104428837125455
 10
-3.2246017287036652
 20
5.095092557673412
 10
-3.222344461314154
 20
5.085842281603659
 10
-3.219865414173779
 20
5.076681026168832
 10
-3.217167604535176
 20
5.067611808621565
 10
-3.214254049650979
 20
5.058637646214493
 10
-3.211127766773824
 20
5.04976155620025
 10
-3.207791773156345
 20
5.040986555831473
 10
-3.2042490860511776
 20
5.032315662360795
 10
-3.200502722710956
 20
5.023751893040852
 10
-3.1965557003883167
 20
5.0152982651242795
 10
-3.192411036335893
 20
5.006957795863711
 10
-3.1880717478063203
 20
4.998733502511782
 10
-3.183540852052235
 20
4.9906284023211285
 10
-3.1788213663262694
 20
4.9826455125443845
 10
-3.173916307881061
 20
4.974787850434185
 10
-3.168828693969243
 20
4.9670584332431655
 10
-3.1635615418434515
 20
4.95946027822396
 10
-3.158117868756321
 20
4.951996402629204
 10
-3.152500691960486
 20
4.944669823711533
 10
-3.1467130287085823
 20
4.9374835587235815
 10
-3.1407578962532448
 20
4.930440624917984
 10
-3.134638311847108
 20
4.923544039547376
 10
-3.1283572927428067
 20
4.916796819864391
 10
-3.1219178561929763
 20
4.910201983121667
 10
-3.1153230194502517
 20
4.903762546571837
 10
-3.108575799767268
 20
4.897481527467535
 10
-3.1016792143966594
 20
4.891361943061399
 10
-3.094636280591062
 20
4.885406810606061
 10
-3.0874500156031104
 20
4.879619147354157
 10
-3.080123436685439
 20
4.874001970558323
 10
-3.072659561090683
 20
4.868558297471192
 10
-3.065061406071478
 20
4.863291145345401
 10
-3.0573319888804575
 20
4.858203531433583
 10
-3.049474326770259
 20
4.853298472988374
 10
-3.0414914369935144
 20
4.8485789872624085
 10
-3.033386336802861
 20
4.844048091508323
 10
-3.0251620434509325
 20
4.839708802978751
 10
-3.016821574190364
 20
4.835564138926327
 10
-3.008367946273791
 20
4.831617116603687
 10
-2.999804176953848
 20
4.827870753263466
 10
-2.9911332834831708
 20
4.824328066158298
 10
-2.9823582831143933
 20
4.820992072540819
 10
-2.9734821931001507
 20
4.8178657896636645
 10
-2.9645080306930787
 20
4.814952234779468
 10
-2.955438813145811
 20
4.812254425140864
 10
-2.9462775577109834
 20
4.809775378000489
 10
-2.9370272816412313
 20
4.807518110610978
 10
-2.9276910021891887
 20
4.805485640224965
 10
-2.918271736607491
 20
4.803680984095085
 10
-2.9087725021487727
 20
4.802107159473974
 10
-2.89919631606567
 20
4.800767183614266
 10
-2.889546195610816
 20
4.799664073768596
 10
-2.879825158036848
 20
4.798800847189599
 10
-2.8700362205963987
 20
4.79818052112991
 10
-2.8601824005421044
 20
4.797806112842165
 10
-2.8502667151265992
 20
4.7976806395789975
 10
-2.8475413666247653
 20
4.797690305275315
 10
-2.8448172302302432
 20
4.797719287174515
 10
-2.8420944049083166
 20
4.7977675624919724
 10
-2.839372989624269
 20
4.797835108443062
 10
-2.8366530833433843
 20
4.797921902243155
 10
-2.8339347850309453
 20
4.79802792110763
 10
-2.8312181936522354
 20
4.798153142251858
 10
-2.828503408172538
 20
4.798297542891214
 10
-2.825790527557138
 20
4.798461100241072
 10
-2.8230796507713167
 20
4.798643791516806
 10
-2.8203708767803595
 20
4.798845593933791
 10
-2.817664304549549
 20
4.7990664847073985
 10
-2.8149600330441684
 20
4.799306441053005
 10
-2.8122581612295012
 20
4.799565440185985
 10
-2.8095587880708317
 20
4.799843459321711
 10
-2.806862012533443
 20
4.800140475675558
 10
-2.804167933582618
 20
4.800456466462899
 10
-2.801476650183641
 20
4.80079140889911
 10
-2.7987882613017945
 20
4.801145280199563
 10
-2.796102865902363
 20
4.801518057579633
 10
-2.79342056295063
 20
4.801909718254696
 10
-2.790741451411878
 20
4.802320239440123
 10
-2.7880656302513906
 20
4.802749598351289
 10
-2.785393198434452
 20
4.8031977722035695
 10
-2.782724254926346
 20
4.803664738212337
 10
-2.7800588986923542
 20
4.8041504735929665
 10
-2.7773972286977617
 20
4.8046549555608316
 10
-2.774739343907852
 20
4.805178161331307
 10
-2.772085343287908
 20
4.805720068119767
 10
-2.769435325803213
 20
4.806280653141584
 10
-2.766789390419051
 20
4.806859893612133
 10
-2.7641476361007054
 20
4.80745776674679
 10
-2.7615101618134594
 20
4.808074249760926
 10
-2.7588770665225963
 20
4.808709319869918
 10
-2.7562484491934
 20
4.809362954289137
 10
-2.7536244087911546
 20
4.81003513023396
 10
-2.751005044281142
 20
4.810725824919759
 10
-2.748390454628647
 20
4.8114350155619094
 10
-2.745780738798952
 20
4.812162679375786
 10
-2.7431759957573414
 20
4.81290879357676
 10
-2.7405763244690986
 20
4.813673335380208
 10
-2.7379818238995064
 20
4.814456282001503
 10
-2.7353925930138487
 20
4.81525761065602
 10
-2.7328087307774096
 20
4.816077298559133
 10
-2.730230336155471
 20
4.8169153229262145
 10
-2.727657508113318
 20
4.817771660972641
 10
-2.7250903456162328
 20
4.818646289913785
 10
-2.7225289476294994
 20
4.819539186965021
 10
-2.719973413118402
 20
4.820450329341722
 10
-2.717423841048223
 20
4.821379694259265
 10
-2.7148803303842466
 20
4.822327258933021
 10
-2.712342980091756
 20
4.823293000578366
 10
-2.709811889136034
 20
4.824276896410674
 10
-2.7072871564823653
 20
4.825278923645318
 10
-2.704768881096032
 20
4.826299059497673
 10
-2.7022571619423195
 20
4.827337281183113
 10
-2.6997520979865093
 20
4.828393565917012
 10
-2.697253788193886
 20
4.829467890914743
 10
-2.694762331529733
 20
4.830560233391682
 10
-2.692277826959333
 20
4.831670570563203
 10
-2.6898003734479703
 20
4.832798879644678
 10
-2.687330069960928
 20
4.833945137851483
 10
-2.6848670154634897
 20
4.835109322398991
 10
-2.6824113089209387
 20
4.836291410502578
  0
LWPOLYLINE
  5
35
330
17
100
AcDbEntity
  8
0
100
AcDbPolyline
 90
129
 70
0
 10
-2.707457776341549
 20
4.808777784984509
 10
-2.708547845612402
 20
4.817888874644654
 10
-2.7098458139269517
 20
4.826928507369778
 10
-2.7113491148550835
 20
4.835894378318142
 10
-2.713055181966684
 20
4.8447841826480085
 10
-2.714961448831641
 20
4.8535956155176425
 10
-2.7170653490198404
 20
4.862326372085307
 10
-2.7193643161011685
 20
4.870974147509264
 10
-2.7218557836455117
 20
4.879536636947779
 10
-2.724537185222758
 20
4.888011535559113
 10
-2.727405954402792
 20
4.896396538501532
 10
-2.730459524755502
 20
4.904689340933296
 10
-2.7336953298507733
 20
4.912887638012671
 10
-2.737110803258494
 20
4.920989124897919
 10
-2.7407033785485497
 20
4.928991496747304
 10
-2.7444704892908267
 20
4.936892448719089
 10
-2.748409569055212
 20
4.944689675971537
 10
-2.752518051411592
 20
4.952380873662912
 10
-2.7567933699298544
 20
4.959963736951476
 10
-2.761232958179884
 20
4.967435960995493
 10
-2.7658342497315687
 20
4.9747952409532274
 10
-2.7705946781547945
 20
4.982039271982941
 10
-2.775511677019449
 20
4.989165749242899
 10
-2.7805826798954167
 20
4.996172367891361
 10
-2.7858051203525864
 20
5.003056823086594
 10
-2.7911764319608436
 20
5.0098168099868605
 10
-2.796694048290075
 20
5.016450023750423
 10
-2.802355402910168
 20
5.022954159535544
 10
-2.8081579293910073
 20
5.029326912500489
 10
-2.8140990613024814
 20
5.03556597780352
 10
-2.8201762322144757
 20
5.041669050602899
 10
-2.8263868756968775
 20
5.0476338260568925
 10
-2.832728425319573
 20
5.053457999323761
 10
-2.839198314652449
 20
5.05913926556177
 10
-2.845793977265392
 20
5.064675319929181
 10
-2.852512846728289
 20
5.070063857584259
 10
-2.8593523566110264
 20
5.075302573685266
 10
-2.8663099404834895
 20
5.080389163390464
 10
-2.873383031915567
 20
5.08532132185812
 10
-2.8805690644771444
 20
5.090096744246494
 10
-2.8878654717381083
 20
5.094713125713851
 10
-2.8952696872683457
 20
5.099168161418453
 10
-2.9027791446377424
 20
5.1034595465185655
 10
-2.9103912774161858
 20
5.107584976172449
 10
-2.9181035191735623
 20
5.111542145538369
 10
-2.925913303479758
 20
5.115328749774588
 10
-2.9338180639046603
 20
5.118942484039369
 10
-2.941815234018155
 20
5.122381043490976
 10
-2.94990224739013
 20
5.125642123287672
 10
-2.9580765375904705
 20
5.12872341858772
 10
-2.966335538189063
 20
5.131622624549384
 10
-2.9746766827557956
 20
5.1343374363309255
 10
-2.9830974048605534
 20
5.1368655490906105
 10
-2.9915951380732237
 20
5.1392046579867
 10
-3.000167315963693
 20
5.14135245817746
 10
-3.0088113721018477
 20
5.143306644821149
 10
-3.0175247400575747
 20
5.145064913076037
 10
-3.0263048534007604
 20
5.146624958100381
 10
-3.035149145701292
 20
5.147984475052448
 10
-3.044055050529055
 20
5.1491411590905
 10
-3.0530200014539366
 20
5.150092705372801
 10
-3.062041432045823
 20
5.150836809057614
 10
-3.0711167758746014
 20
5.1513711653032015
 10
-3.0802434665101583
 20
5.151693469267827
 10
-3.0894189375223804
 20
5.151801416109755
 10
-3.0985942916546887
 20
5.151693471103739
 10
-3.1077208691208065
 20
5.1513711725695455
 10
-3.1167961034906186
 20
5.150836825232958
 10
-3.1258174283340128
 20
5.150092733819764
 10
-3.1347822772208747
 20
5.149141203055746
 10
-3.1436880837210923
 20
5.147984537666687
 10
-3.1525322814045507
 20
5.146625042378374
 10
-3.1613123038411377
 20
5.14506502191659
 10
-3.1700255846007392
 20
5.14330678100712
 10
-3.1786695572532415
 20
5.141352624375748
 10
-3.187241655368532
 20
5.139204856748259
 10
-3.1957393125164972
 20
5.136865782850436
 10
-3.2041599622670236
 20
5.134337707408065
 10
-3.212501038189997
 20
5.13162293514693
 10
-3.220759973855305
 20
5.128723770792814
 10
-3.228934202832834
 20
5.125642519071504
 10
-3.23702115869247
 20
5.122381484708783
 10
-3.2450182750041003
 20
5.1189429724304345
 10
-3.2529229853376114
 20
5.115329286962243
 10
-3.2607327232628895
 20
5.111542733029995
 10
-3.2684449223498215
 20
5.107585615359474
 10
-3.276057016168294
 20
5.103460238676463
 10
-3.2835664382881933
 20
5.099168907706747
 10
-3.2909706222794064
 20
5.094713927176111
 10
-3.2982670017118196
 20
5.090097601810339
 10
-3.3054530101553197
 20
5.085322236335217
 10
-3.3125260811797927
 20
5.080390135476526
 10
-3.3194836483551264
 20
5.075303603960054
 10
-3.3263231452512065
 20
5.070064946511583
 10
-3.3330420054379197
 20
5.0646764678568985
 10
-3.3396376624851527
 20
5.059140472721785
 10
-3.346107549962792
 20
5.053459265832026
 10
-3.3524491014407243
 20
5.047635151913406
 10
-3.3586597504888362
 20
5.04167043569171
 10
-3.3647369306770143
 20
5.035567421892722
 10
-3.370678075575145
 20
5.029328415242228
 10
-3.3764806187531153
 20
5.022955720466009
 10
-3.3821419937808117
 20
5.016451642289853
 10
-3.38765963422812
 20
5.009818485439541
 10
-3.393030973664928
 20
5.003058554640861
 10
-3.3982534456611218
 20
4.996174154619595
 10
-3.4033244837865873
 20
4.989167590101528
 10
-3.4082415216112123
 20
4.982041165812444
 10
-3.4130019927048827
 20
4.974797186478129
 10
-3.4176033306374856
 20
4.967437956824365
 10
-3.4220429689789067
 20
4.959965781576939
 10
-3.4263183412990332
 20
4.952382965461632
 10
-3.4304268811677514
 20
4.944691813204232
 10
-3.434366022154949
 20
4.936894629530522
 10
-3.4381331978305107
 20
4.928993719166285
 10
-3.441725841764325
 20
4.920991386837308
 10
-3.445141387526277
 20
4.912889937269372
 10
-3.448377268686254
 20
4.904691675188265
 10
-3.4514309188141423
 20
4.89639890531977
 10
-3.454299771479829
 20
4.888013932389671
 10
-3.4569812602532006
 20
4.879539061123753
 10
-3.459472818704143
 20
4.870976596247798
 10
-3.461771880402544
 20
4.862328842487595
 10
-3.4638758789182886
 20
4.853598104568925
 10
-3.4657822478212643
 20
4.844786687217573
 10
-3.4674884206813577
 20
4.8358968951593235
 10
-3.468991831068456
 20
4.826931033119962
 10
-3.4702899125524445
 20
4.817891405825271
 10
-3.4713800987032113
 20
4.808780318001036
  0
LWPOLYLINE
  5
36
330
17
100
AcDbEntity
  8
0
100
AcDbPolyline
 90
193
 70
0
 10
-3.483913464479625
 20
4.830488269638843
 10
-3.4816169541085515
 20
4.829481932621673
 10
-3.479314688561286
 20
4.82849092890404
 10
-3.4770067455258657
 20
4.827515274951173
 10
-3.4746932026903283
 20
4.826554987228296
 10
-3.4723741377427104
 20
4.825610082200635
 10
-3.4700496283710502
 20
4.8246805763334155
 10
-3.467719752263385
 20
4.8237664860918645
 10
-3.465384587107752
 20
4.822867827941207
 10
-3.463044210592189
 20
4.821984618346668
 10
-3.4606987004047336
 20
4.821116873773475
 10
-3.4583481342334217
 20
4.820264610686853
 10
-3.4559925897662924
 20
4.819427845552028
 10
-3.4536321446913822
 20
4.818606594834226
 10
-3.4512668766967285
 20
4.817800874998672
 10
-3.4488968634703694
 20
4.817010702510593
 10
-3.446522182700342
 20
4.816236093835213
 10
-3.4441429120746836
 20
4.815477065437761
 10
-3.441759129281431
 20
4.81473363378346
 10
-3.4393709120086227
 20
4.814005815337537
 10
-3.436978337944295
 20
4.813293626565218
 10
-3.4345814847764866
 20
4.812597083931728
 10
-3.432180430193234
 20
4.8119162039022925
 10
-3.4297752518825755
 20
4.811251002942139
 10
-3.427366027532547
 20
4.810601497516493
 10
-3.4249528348311866
 20
4.80996770409058
 10
-3.4225357514665324
 20
4.809349639129624
 10
-3.420114855126621
 20
4.8087473190988534
 10
-3.4176902234994904
 20
4.808160760463493
 10
-3.4152619342731776
 20
4.807589979688769
 10
-3.4128300651357195
 20
4.807034993239908
 10
-3.4103946937751553
 20
4.8064958175821335
 10
-3.40795589787952
 20
4.805972469180673
 10
-3.405513755136853
 20
4.805464964500753
 10
-3.4030683432351907
 20
4.804973320007597
 10
-3.4006197398625706
 20
4.804497552166432
 10
-3.39816802270703
 20
4.804037677442485
 10
-3.3957132694566075
 20
4.803593712300981
 10
-3.393255557799339
 20
4.803165673207146
 10
-3.3907949654232623
 20
4.802753576626205
 10
-3.388331570016415
 20
4.8023574390233845
 10
-3.3858654492668347
 20
4.80197727686391
 10
-3.3833966808625586
 20
4.801613106613008
 10
-3.380925342491624
 20
4.8012649447359035
 10
-3.3784515118420684
 20
4.800932807697823
 10
-3.3759752666019294
 20
4.800616711963992
 10
-3.373496684459244
 20
4.800316673999637
 10
-3.3710158431020503
 20
4.800032710269983
 10
-3.3685328202183844
 20
4.799764837240256
 10
-3.3660476934962853
 20
4.7995130713756815
 10
-3.36356054062379
 20
4.799277429141487
 10
-3.3610714392889345
 20
4.799057927002896
 10
-3.358580467179758
 20
4.798854581425136
 10
-3.356087701984297
 20
4.798667408873432
 10
-3.353593221390589
 20
4.798496425813011
 10
-3.351097103086672
 20
4.798341648709097
 10
-3.3485994247605824
 20
4.798203094026918
 10
-3.3461002641003583
 20
4.798080778231697
 10
-3.3435996987940366
 20
4.797974717788662
 10
-3.341097806529656
 20
4.797884929163039
 10
-3.338594664995252
 20
4.797811428820053
 10
-3.3360903518788634
 20
4.79775423322493
 10
-3.3335849448685266
 20
4.797713358842896
 10
-3.3310785216522802
 20
4.797688822139176
 10
-3.3285711599181607
 20
4.7976806395789975
 10
-3.3186555895563203
 20
4.797806112842165
 10
-3.308801877308672
 20
4.79818052112991
 10
-3.299013040601779
 20
4.798800847189599
 10
-3.2892920968622046
 20
4.799664073768596
 10
-3.2796420635165124
 20
4.800767183614266
 10
-3.270065957991266
 20
4.802107159473973
 10
-3.260566797713029
 20
4.803680984095085
 10
-3.2511476001083635
 20
4.805485640224965
 10
-3.241811382603834
 20
4.807518110610978
 10
-3.2325611626260042
 20
4.809775378000489
 10
-3.223399957601437
 20
4.812254425140864
 10
-3.2143307849566956
 20
4.814952234779467
 10
-3.205356662118344
 20
4.8178657896636645
 10
-3.196480606512945
 20
4.820992072540819
 10
-3.1877056355670623
 20
4.824328066158298
 10
-3.179034766707259
 20
4.827870753263466
 10
-3.170471017360099
 20
4.831617116603687
 10
-3.1620174049521457
 20
4.835564138926327
 10
-3.153676946909962
 20
4.839708802978751
 10
-3.1454526606601116
 20
4.844048091508323
 10
-3.1373475636291577
 20
4.8485789872624085
 10
-3.129364673243664
 20
4.853298472988374
 10
-3.1215070069301944
 20
4.858203531433583
 10
-3.1137775821153113
 20
4.8632911453454
 10
-3.106179416225578
 20
4.868558297471192
 10
-3.098715526687559
 20
4.874001970558323
 10
-3.091388930927817
 20
4.879619147354157
 10
-3.084202646372915
 20
4.885406810606061
 10
-3.0771596904494176
 20
4.891361943061399
 10
-3.070263080583887
 20
4.897481527467535
 10
-3.063515834202887
 20
4.903762546571837
 10
-3.0569209687329817
 20
4.910201983121667
 10
-3.050481501600734
 20
4.916796819864391
 10
-3.0442004502327067
 20
4.923544039547376
 10
-3.038080832055464
 20
4.930440624917984
 10
-3.032125664495569
 20
4.9374835587235815
 10
-3.0263379649795854
 20
4.944669823711533
 10
-3.020720750934076
 20
4.951996402629204
 10
-3.0152770397856044
 20
4.95946027822396
 10
-3.0100098489607343
 20
4.9670584332431655
 10
-3.0049221958860293
 20
4.974787850434185
 10
-3.000017097988052
 20
4.9826455125443845
 10
-2.995297572693367
 20
4.9906284023211285
 10
-2.990766637428536
 20
4.998733502511782
 10
-2.986427309620124
 20
5.006957795863711
 10
-2.982282606694694
 20
5.0152982651242795
 10
-2.9783355460788083
 20
5.023751893040852
 10
-2.9745891451990323
 20
5.032315662360795
 10
-2.971046421481928
 20
5.040986555831473
 10
-2.9677103923540584
 20
5.04976155620025
 10
-2.964584075241988
 20
5.058637646214493
 10
-2.96167048757228
 20
5.067611808621565
 10
-2.9589726467714974
 20
5.076681026168832
 10
-2.9564935702662045
 20
5.085842281603659
 10
-2.954236275482963
 20
5.095092557673412
 10
-2.9522037798483383
 20
5.104428837125455
 10
-2.950399100788892
 20
5.113848102707153
 10
-2.9488252557311885
 20
5.12334733716587
 10
-2.9474852621017913
 20
5.132923523248973
 10
-2.9463821373272636
 20
5.142573643703828
 10
-2.9455188988341687
 20
5.152294681277795
 10
-2.94489856404907
 20
5.162083618718245
 10
-2.9445241503985304
 20
5.171937438772539
 10
-2.9443986753091145
 20
5.181853124188044
 10
-2.944441480934592
 20
5.187595562112323
 10
-2.944569622231071
 20
5.193326396110716
 10
-2.944782685828621
 20
5.1990448123140665
 10
-2.945080258357312
 20
5.204749996853219
 10
-2.9454619264472126
 20
5.210441135859018
 10
-2.9459272767283933
 20
5.216117415462305
 10
-2.946475895830924
 20
5.221778021793927
 10
-2.947107370384873
 20
5.227422140984726
 10
-2.947821287020311
 20
5.233048959165546
 10
-2.948617232367307
 20
5.238657662467232
 10
-2.9494947930559317
 20
5.244247437020627
 10
-2.9504535557162535
 20
5.249817468956575
 10
-2.9514931069783423
 20
5.255366944405921
 10
-2.9526130334722684
 20
5.260895049499507
 10
-2.9538129218281
 20
5.266400970368179
 10
-2.955092358675908
 20
5.27188389314278
 10
-2.9564509306457616
 20
5.277343003954153
 10
-2.9578882243677307
 20
5.282777488933142
 10
-2.9594038264718843
 20
5.288186534210594
 10
-2.960997323588292
 20
5.293569325917348
 10
-2.962668302347024
 20
5.298925050184252
 10
-2.96441634937815
 20
5.304252893142149
 10
-2.966241051311739
 20
5.309552040921881
 10
-2.9681419947778602
 20
5.314821679654293
 10
-2.9701187664065847
 20
5.3200609954702305
 10
-2.972170952827981
 20
5.325269174500536
 10
-2.974298140672119
 20
5.3304454028760535
 10
-2.976499916569068
 20
5.335588866727627
 10
-2.9787758671488986
 20
5.3406987521861
 10
-2.981125579041679
 20
5.345774245382318
 10
-2.98354863887748
 20
5.350814532447123
 10
-2.9860446332863706
 20
5.355818799511359
 10
-2.9886131488984207
 20
5.360786232705871
 10
-2.991253772343699
 20
5.365716018161503
 10
-2.9939660902522767
 20
5.370607342009098
 10
-2.996749689254222
 20
5.3754593903795005
 10
-2.999604155979606
 20
5.380271349403555
 10
-3.002529077058496
 20
5.385042405212103
 10
-3.005524039120964
 20
5.3897717439359925
 10
-3.0085886287970784
 20
5.394458551706064
 10
-3.011722432716909
 20
5.399102014653162
 10
-3.0149250375105257
 20
5.403701318908132
 10
-3.0181960298079975
 20
5.4082556506018165
 10
-3.0215349962393945
 20
5.412764195865059
 10
-3.024941523434786
 20
5.4172261408287055
 10
-3.0284151980242418
 20
5.4216406716235985
 10
-3.0319556066378315
 20
5.426006974380582
 10
-3.0355623359056247
 20
5.430324235230499
 10
-3.039234972457691
 20
5.434591640304196
 10
-3.0429731029241
 20
5.438808375732514
 10
-3.0467763139349215
 20
5.442973627646299
 10
-3.0506441921202248
 20
5.447086582176394
 10
-3.0545763241100796
 20
5.451146425453643
 10
-3.058572296534556
 20
5.455152343608891
 10
-3.0626316960237223
 20
5.459103522772979
 10
-3.0667541092076496
 20
5.462999149076754
 10
-3.070939122716407
 20
5.466838408651059
 10
-3.0751863231800636
 20
5.470620487626738
 10
-3.0794952972286898
 20
5.474344572134634
 10
-3.0838656314923543
 20
5.478009848305592
 10
-3.0882969126011277
 20
5.481615502270456
 10
-3.092788727185079
 20
5.485160720160069
 10
-3.0973406618742776
 20
5.488644688105276
 10
-3.101952303298794
 20
5.492066592236919
  0
LWPOLYLINE
  5
37
330
17
100
AcDbEntity
  8
0
100
AcDbPolyline
 90
193
 70
0
 10
-3.0768830387294392
 20
5.492066592236919
 10
-3.0814947970435314
 20
5.488644688105276
 10
-3.0860468449698084
 20
5.485160720160069
 10
-3.090538769196317
 20
5.481615502270456
 10
-3.0949701564111023
 20
5.478009848305592
 10
-3.0993405933022107
 20
5.474344572134634
 10
-3.103649666557687
 20
5.470620487626738
 10
-3.107896962865578
 20
5.466838408651059
 10
-3.1120820689139292
 20
5.462999149076754
 10
-3.116204571390786
 20
5.459103522772979
 10
-3.120264056984194
 20
5.455152343608891
 10
-3.1242601123822
 20
5.451146425453643
 10
-3.1281923242728484
 20
5.447086582176394
 10
-3.1320602793441856
 20
5.442973627646299
 10
-3.1358635642842576
 20
5.438808375732514
 10
-3.13960176578111
 20
5.434591640304196
 10
-3.143274470522788
 20
5.430324235230499
 10
-3.1468812651973384
 20
5.426006974380582
 10
-3.150421736492806
 20
5.4216406716235985
 10
-3.153895471097237
 20
5.4172261408287055
 10
-3.1573020556986773
 20
5.412764195865059
 10
-3.160641076985172
 20
5.4082556506018165
 10
-3.163912121644768
 20
5.403701318908132
 10
-3.16711477636551
 20
5.399102014653162
 10
-3.1702486278354436
 20
5.394458551706064
 10
-3.1733132627426155
 20
5.3897717439359925
 10
-3.176308267775071
 20
5.385042405212103
 10
-3.1792332296208565
 20
5.380271349403555
 10
-3.182087734968017
 20
5.3754593903795005
 10
-3.1848713705045975
 20
5.370607342009098
 10
-3.1875837229186454
 20
5.365716018161503
 10
-3.1902243788982054
 20
5.360786232705871
 10
-3.192792925131324
 20
5.355818799511359
 10
-3.1952889483060463
 20
5.350814532447123
 10
-3.1977120351104182
 20
5.345774245382318
 10
-3.200061772232486
 20
5.3406987521861
 10
-3.2023377463602944
 20
5.335588866727627
 10
-3.2045395441818902
 20
5.3304454028760535
 10
-3.2066667523853183
 20
5.325269174500536
 10
-3.208718957658625
 20
5.3200609954702305
 10
-3.2106957466898565
 20
5.314821679654293
 10
-3.2125967061670573
 20
5.309552040921881
 10
-3.2144214227782744
 20
5.304252893142149
 10
-3.2161694832115524
 20
5.298925050184252
 10
-3.2178404741549382
 20
5.293569325917348
 10
-3.219433982296477
 20
5.288186534210594
 10
-3.2209495943242143
 20
5.282777488933142
 10
-3.2223868969261966
 20
5.277343003954153
 10
-3.223745476790469
 20
5.27188389314278
 10
-3.2250249206050774
 20
5.266400970368179
 10
-3.2262248150580675
 20
5.260895049499507
 10
-3.2273447468374856
 20
5.255366944405921
 10
-3.2283843026313765
 20
5.249817468956576
 10
-3.2293430691277867
 20
5.244247437020627
 10
-3.2302206330147616
 20
5.238657662467232
 10
-3.2310165809803473
 20
5.233048959165546
 10
-3.2317304997125893
 20
5.227422140984726
 10
-3.2323619758995332
 20
5.221778021793927
 10
-3.2329105962292255
 20
5.216117415462305
 10
-3.2333759473897112
 20
5.210441135859018
 10
-3.2337576160690364
 20
5.204749996853219
 10
-3.2340551889552462
 20
5.1990448123140665
 10
-3.2342682527363875
 20
5.193326396110716
 10
-3.2343963941005054
 20
5.187595562112323
 10
-3.2344391997356454
 20
5.181853124188044
 10
-3.2343137264724784
 20
5.171937438772539
 10
-3.2339393181847327
 20
5.162083618718245
 10
-3.233318992125044
 20
5.152294681277795
 10
-3.2324557655460477
 20
5.142573643703828
 10
-3.2313526557003778
 20
5.132923523248973
 10
-3.2300126798406694
 20
5.12334733716587
 10
-3.228438855219558
 20
5.113848102707153
 10
-3.2266341990896783
 20
5.104428837125455
 10
-3.2246017287036652
 20
5.095092557673412
 10
-3.222344461314154
 20
5.085842281603659
 10
-3.219865414173779
 20
5.076681026168832
 10
-3.217167604535176
 20
5.067611808621565
 10
-3.214254049650979
 20
5.058637646214493
 10
-3.211127766773824
 20
5.04976155620025
 10
-3.207791773156345
 20
5.040986555831473
 10
-3.2042490860511776
 20
5.032315662360795
 10
-3.200502722710956
 20
5.023751893040852
 10
-3.1965557003883167
 20
5.0152982651242795
 10
-3.192411036335893
 20
5.006957795863711
 10
-3.1880717478063203
 20
4.998733502511782
 10
-3.183540852052235
 20
4.9906284023211285
 10
-3.1788213663262694
 20
4.9826455125443845
 10
-3.173916307881061
 20
4.974787850434185
 10
-3.168828693969243
 20
4.9670584332431655
 10
-3.1635615418434515
 20
4.95946027822396
 10
-3.158117868756321
 20
4.951996402629204
 10
-3.152500691960486
 20
4.944669823711533
 10
-3.1467130287085823
 20
4.9374835587235815
 10
-3.1407578962532448
 20
4.930440624917984
 10
-3.134638311847108
 20
4.923544039547376
 10
-3.1283572927428067
 20
4.916796819864391
 10
-3.1219178561929763
 20
4.910201983121667
 10
-3.1153230194502517
 20
4.903762546571837
 10
-3.108575799767268
 20
4.897481527467535
 10
-3.1016792143966594
 20
4.891361943061399
 10
-3.094636280591062
 20
4.885406810606061
 10
-3.0874500156031104
 20
4.879619147354157
 10
-3.080123436685439
 20
4.874001970558323
 10
-3.072659561090683
 20
4.868558297471192
 10
-3.065061406071478
 20
4.863291145345401
 10
-3.0573319888804575
 20
4.858203531433583
 10
-3.049474326770259
 20
4.853298472988374
 10
-3.0414914369935144
 20
4.8485789872624085
 10
-3.033386336802861
 20
4.844048091508323
 10
-3.0251620434509325
 20
4.839708802978751
 10
-3.016821574190364
 20
4.835564138926327
 10
-3.008367946273791
 20
4.831617116603687
 10
-2.999804176953848
 20
4.827870753263466
 10
-2.9911332834831708
 20
4.824328066158298
 10
-2.9823582831143933
 20
4.820992072540819
 10
-2.9734821931001507
 20
4.8178657896636645
 10
-2.9645080306930787
 20
4.814952234779468
 10
-2.955438813145811
 20
4.812254425140864
 10
-2.9462775577109834
 20
4.809775378000489
 10
-2.9370272816412313
 20
4.807518110610978
 10
-2.9276910021891887
 20
4.805485640224965
 10
-2.918271736607491
 20
4.803680984095085
 10
-2.9087725021487727
 20
4.802107159473974
 10
-2.89919631606567
 20
4.800767183614266
 10
-2.889546195610816
 20
4.799664073768596
 10
-2.879825158036848
 20
4.798800847189599
 10
-2.8700362205963987
 20
4.79818052112991
 10
-2.8601824005421044
 20
4.797806112842165
 10
-2.8502667151265992
 20
4.7976806395789975
 10
-2.8477592383291532
 20
4.79768882214884
 10
-2.845252707238622
 20
4.7977133589201975
 10
-2.842747199311138
 20
4.797754233485823
 10
-2.8402427920028352
 20
4.7978114294384655
 10
-2.837739562769846
 20
4.797884930370875
 10
-2.8352375890683033
 20
4.797974719875803
 10
-2.8327369483543396
 20
4.798080781546
 10
-2.830237718084088
 20
4.798203098974215
 10
-2.827739975713681
 20
4.798341655753199
 10
-2.8252437986992516
 20
4.798496435475702
 10
-2.822749264496933
 20
4.798667421734474
 10
-2.820256450562858
 20
4.798854598122266
 10
-2.8177654343531584
 20
4.7990579482318285
 10
-2.815276293323968
 20
4.799277455655911
 10
-2.812789104931419
 20
4.799513103987264
 10
-2.810303946631645
 20
4.799764876818639
 10
-2.807820895880778
 20
4.800032757742785
 10
-2.8053400301349516
 20
4.800316730352452
 10
-2.802861426850298
 20
4.800616778240392
 10
-2.80038516348295
 20
4.8009328849993524
 10
-2.7979113174890404
 20
4.801265034222087
 10
-2.795439966324703
 20
4.801613209501344
 10
-2.7929711874460694
 20
4.8019773944298745
 10
-2.7905050583092734
 20
4.802357572600428
 10
-2.7880416563704467
 20
4.802753727605755
 10
-2.785581059085723
 20
4.803165843038607
 10
-2.783123343911235
 20
4.803593902491733
 10
-2.7806685883031155
 20
4.8040378895578835
 10
-2.778216869717497
 20
4.804497787829809
 10
-2.7757682656105125
 20
4.80497358090026
 10
-2.7733228534382945
 20
4.805465252361986
 10
-2.770880710656977
 20
4.8059727858077395
 10
-2.768441914722691
 20
4.806496164830268
 10
-2.766006543091571
 20
4.807035373022323
 10
-2.7635746732197486
 20
4.807590393976655
 10
-2.761146382563357
 20
4.808161211286015
 10
-2.75872174857853
 20
4.808747808543152
 10
-2.7563008487213994
 20
4.809350169340816
 10
-2.7538837604480975
 20
4.809968277271759
 10
-2.7514705612147585
 20
4.810602115928731
 10
-2.7490613284775143
 20
4.811251668904481
 10
-2.7466561396924978
 20
4.81191691979176
 10
-2.744255072315842
 20
4.812597852183318
 10
-2.74185820380368
 20
4.813294449671906
 10
-2.7394656116121436
 20
4.814006695850274
 10
-2.737077373197367
 20
4.8147345743111725
 10
-2.7346935660154816
 20
4.8154780686473515
 10
-2.732314267522622
 20
4.816237162451561
 10
-2.7299395551749193
 20
4.817011839316552
 10
-2.7275695064285075
 20
4.817802082835074
 10
-2.7252041987395184
 20
4.818607876599879
 10
-2.7228437095640854
 20
4.819429204203716
 10
-2.7204881163583416
 20
4.820266049239334
 10
-2.7181374965784193
 20
4.821118395299486
 10
-2.7157919276804514
 20
4.82198622597692
 10
-2.7134514871205706
 20
4.822869524864388
 10
-2.7111162523549104
 20
4.82376827555464
 10
-2.708786300839603
 20
4.824682461640425
 10
-2.7064617100307813
 20
4.825612066714495
 10
-2.7041425573845785
 20
4.8265570743696
 10
-2.7018289203571264
 20
4.827517468198489
 10
-2.6995208764045593
 20
4.828493231793914
 10
-2.697218502983009
 20
4.829484348748624
 10
-2.6949218775486083
 20
4.830490802655369
  0
LWPOLYLINE
  5
38
330
17
100
AcDbEntity
  8
0
100
AcDbPolyline
 90
65
 70
0
 10
-3.195311693440524
 20
5.136919944012659
 10
-3.196419804724157
 20
5.136600320584868
 10
-3.197526873596662
 20
5.136277397618579
 10
-3.198632892868995
 20
5.135951177896649
 10
-3.1997378553521156
 20
5.135621664201933
 10
-3.2008417538569804
 20
5.135288859317287
 10
-3.2019445811945473
 20
5.134952766025563
 10
-3.2030463301757734
 20
5.13461338710962
 10
-3.2041469936116176
 20
5.1342707253523105
 10
-3.205246564313037
 20
5.13392478353649
 10
-3.2063450350909894
 20
5.133575564445015
 10
-3.2074423987564327
 20
5.133223070860738
 10
-3.208538648120325
 20
5.132867305566516
 10
-3.209633775993623
 20
5.132508271345203
 10
-3.210727775187285
 20
5.132145970979654
 10
-3.2118206385122687
 20
5.131780407252727
 10
-3.2129123587795316
 20
5.131411582947273
 10
-3.214002928800032
 20
5.131039500846149
 10
-3.2150923413847274
 20
5.13066416373221
 10
-3.2161805893445754
 20
5.130285574388311
 10
-3.2172676654905334
 20
5.129903735597307
 10
-3.2183535626335598
 20
5.129518650142053
 10
-3.219438273584612
 20
5.129130320805404
 10
-3.2205217911546478
 20
5.128738750370216
 10
-3.221604108154625
 20
5.128343941619343
 10
-3.2226852173955014
 20
5.12794589733564
 10
-3.2237651116882335
 20
5.127544620301962
 10
-3.2248437838437813
 20
5.127140113301166
 10
-3.2259212266731008
 20
5.126732379116104
 10
-3.226997432987151
 20
5.126321420529634
 10
-3.228072395596888
 20
5.125907240324609
 10
-3.2291461073132703
 20
5.125489841283884
 10
-3.2302185609472565
 20
5.125069226190316
 10
-3.2312897493098034
 20
5.124645397826759
 10
-3.2323596652118685
 20
5.124218358976068
 10
-3.2334283014644107
 20
5.123788112421098
 10
-3.234495650878386
 20
5.123354660944704
 10
-3.235561706264754
 20
5.122918007329742
 10
-3.236626460434471
 20
5.122478154359065
 10
-3.237689906198496
 20
5.12203510481553
 10
-3.238752036367785
 20
5.1215888614819916
 10
-3.2398128437532976
 20
5.121139427141305
 10
-3.24087232116599
 20
5.120686804576325
 10
-3.241930461416821
 20
5.120230996569905
 10
-3.242987257316748
 20
5.1197720059049034
 10
-3.244042701676729
 20
5.119309835364173
 10
-3.245096787307721
 20
5.11884448773057
 10
-3.246149507020682
 20
5.1183759657869485
 10
-3.24720085362657
 20
5.1179042723161645
 10
-3.248250819936343
 20
5.117429410101072
 10
-3.2492993987609577
 20
5.116951381924526
 10
-3.250346582911373
 20
5.116470190569384
 10
-3.2513923651985457
 20
5.1159858388184976
 10
-3.2524367384334343
 20
5.1154983294547245
 10
-3.253479695426996
 20
5.115007665260919
 10
-3.2545212289901886
 20
5.114513849019936
 10
-3.25556133193397
 20
5.11401688351463
 10
-3.256599997069298
 20
5.113516771527857
 10
-3.25763721720713
 20
5.113013515842471
 10
-3.258672985158424
 20
5.11250711924133
 10
-3.2597072937341376
 20
5.111997584507284
 10
-3.260740135745229
 20
5.111484914423193
 10
-3.261771504002655
 20
5.11096911177191
 10
-3.2628013913173746
 20
5.110450179336289
 10
-3.263829790500344
 20
5.109928119899187
  0
LWPOLYLINE
  5
39
330
17
100
AcDbEntity
  8
0
100
AcDbPolyline
 90
65
 70
0
 10
-2.9558099147639942
 20
5.088914214789823
 10
-2.955532694355987
 20
5.090033670759
 10
-2.955258851638323
 20
5.091153875953928
 10
-2.9549883877705243
 20
5.092274822663781
 10
-2.954721303912115
 20
5.093396503177731
 10
-2.9544576012226167
 20
5.094518909784949
 10
-2.9541972808615533
 20
5.09564203477461
 10
-2.9539403439884477
 20
5.096765870435883
 10
-2.9536867917628222
 20
5.097890409057943
 10
-2.953436625344201
 20
5.099015642929961
 10
-2.9531898458921053
 20
5.100141564341111
 10
-2.9529464545660598
 20
5.1012681655805645
 10
-2.952706452525586
 20
5.102395438937493
 10
-2.9524698409302075
 20
5.103523376701071
 10
-2.952236620939447
 20
5.104651971160468
 10
-2.9520067937128283
 20
5.10578121460486
 10
-2.9517803604098733
 20
5.106911099323416
 10
-2.9515573221901055
 20
5.108041617605311
 10
-2.9513376802130473
 20
5.109172761739716
 10
-2.9511214356382225
 20
5.110304524015803
 10
-2.9509085896251532
 20
5.111436896722745
 10
-2.950699143333363
 20
5.112569872149717
 10
-2.9504930979223745
 20
5.113703442585886
 10
-2.950290454551711
 20
5.114837600320429
 10
-2.9500912143808944
 20
5.115972337642516
 10
-2.949895378569449
 20
5.117107646841321
 10
-2.9497029482768973
 20
5.118243520206014
 10
-2.949513924662762
 20
5.11937995002577
 10
-2.9493283088865656
 20
5.120516928589761
 10
-2.9491461021078322
 20
5.121654448187158
 10
-2.948967305486084
 20
5.122792501107134
 10
-2.9487919201808444
 20
5.123931079638862
 10
-2.9486199473516352
 20
5.125070176071515
 10
-2.9484513881579812
 20
5.1262097826942625
 10
-2.9482862437594037
 20
5.12734989179628
 10
-2.9481245153154267
 20
5.128490495666739
 10
-2.9479662039855725
 20
5.129631586594811
 10
-2.947811310929364
 20
5.130773156869669
 10
-2.947659837306325
 20
5.131915198780485
 10
-2.947511784275977
 20
5.133057704616432
 10
-2.9473671529978445
 20
5.1342006666666835
 10
-2.9472259446314495
 20
5.1353440772204095
 10
-2.9470881603363157
 20
5.136487928566784
 10
-2.946953801271965
 20
5.137632212994979
 10
-2.946822868597921
 20
5.138776922794166
 10
-2.9466953634737068
 20
5.139922050253519
 10
-2.9465712870588443
 20
5.14106758766221
 10
-2.9464506405128583
 20
5.142213527309411
 10
-2.94633342499527
 20
5.143359861484295
 10
-2.9462196416656035
 20
5.1445065824760325
 10
-2.9461092916833813
 20
5.145653682573799
 10
-2.9460023762081256
 20
5.146801154066764
 10
-2.94589889639936
 20
5.147948989244101
 10
-2.9457988534166084
 20
5.149097180394984
 10
-2.945702248419393
 20
5.1502457198085825
 10
-2.945609082567236
 20
5.15139459977407
 10
-2.945519357019661
 20
5.15254381258062
 10
-2.945433072936191
 20
5.153693350517404
 10
-2.9453502314763487
 20
5.154843205873595
 10
-2.945270833799657
 20
5.155993370938365
 10
-2.94519488106564
 20
5.157143838000887
 10
-2.945122374433818
 20
5.158294599350331
 10
-2.9450533150637175
 20
5.159445647275873
 10
-2.9449877041148587
 20
5.160596974066682
 10
-2.9449255427467653
 20
5.161748572011934
  0
LWPOLYLINE
  5
3A
330
17
100
AcDbEntity
  8
0
100
AcDbPolyline
 90
65
 70
0
 10
-3.1171352043626226
 20
4.905503554090841
 10
-3.1163044285406603
 20
4.904703606486129
 10
-3.115471310192466
 20
4.903906216383205
 10
-3.114635855521487
 20
4.903111388478135
 10
-3.1137980707311708
 20
4.902319127466987
 10
-3.112957962024965
 20
4.90152943804583
 10
-3.1121155356063186
 20
4.900742324910731
 10
-3.1112707976786784
 20
4.89995779275776
 10
-3.1104237544454927
 20
4.899175846282981
 10
-3.109574412110208
 20
4.898396490182465
 10
-3.1087227768762733
 20
4.89761972915228
 10
-3.1078688549471365
 20
4.896845567888493
 10
-3.1070126525262443
 20
4.896074011087171
 10
-3.106154175817045
 20
4.8953050634443835
 10
-3.1052934310229867
 20
4.894538729656198
 10
-3.104430424347517
 20
4.893775014418682
 10
-3.103565161994083
 20
4.893013922427905
 10
-3.1026976501661334
 20
4.892255458379932
 10
-3.101827895067115
 20
4.891499626970834
 10
-3.100955902900477
 20
4.890746432896677
 10
-3.1000816798696658
 20
4.8899958808535295
 10
-3.09920523217813
 20
4.88924797553746
 10
-3.0983265660293164
 20
4.888502721644534
 10
-3.097445687626674
 20
4.887760123870823
 10
-3.0965626031736493
 20
4.887020186912393
 10
-3.0956773188736912
 20
4.886282915465312
 10
-3.094789840930247
 20
4.885548314225649
 10
-3.093900175546764
 20
4.884816387889471
 10
-3.09300832892669
 20
4.884087141152844
 10
-3.0921143072734747
 20
4.883360578711839
 10
-3.091218116790563
 20
4.882636705262523
 10
-3.0903197636814044
 20
4.881915525500964
 10
-3.0894192541494463
 20
4.881197044123229
 10
-3.0885165943981363
 20
4.880481265825388
 10
-3.087611790630922
 20
4.879768195303506
 10
-3.0867048490512516
 20
4.8790578372536535
 10
-3.085795775862573
 20
4.878350196371897
 10
-3.0848845772683333
 20
4.877645277354305
 10
-3.083971259471981
 20
4.876943084896945
 10
-3.083055828676963
 20
4.876243623695886
 10
-3.082138291086728
 20
4.875546898447194
 10
-3.081218652904723
 20
4.874852913846939
 10
-3.0802969203343964
 20
4.874161674591188
 10
-3.079373099579195
 20
4.8734731853760085
 10
-3.0784471968425677
 20
4.872787450897469
 10
-3.0775192183279616
 20
4.872104475851637
 10
-3.076589170238825
 20
4.871424264934582
 10
-3.0756570587786047
 20
4.87074682284237
 10
-3.0747228901507495
 20
4.870072154271069
 10
-3.0737866705587065
 20
4.869400263916749
 10
-3.0728484062059236
 20
4.868731156475475
 10
-3.071908103295849
 20
4.868064836643317
 10
-3.0709657680319298
 20
4.867401309116342
 10
-3.0700214066176144
 20
4.866740578590619
 10
-3.0690750252563497
 20
4.866082649762215
 10
-3.068126630151584
 20
4.865427527327198
 10
-3.0671762275067658
 20
4.864775215981637
 10
-3.0662238235253416
 20
4.8641257204215975
 10
-3.0652694244107597
 20
4.86347904534315
 10
-3.064313036366468
 20
4.862835195442361
 10
-3.0633546655959134
 20
4.862194175415299
 10
-3.0623943183025455
 20
4.861555989958032
 10
-3.0614320006898104
 20
4.860920643766627
 10
-3.060467718961156
 20
4.860288141537153
 10
-3.0595014793200312
 20
4.859658487965677
  0
LWPOLYLINE
  5
3B
330
17
100
AcDbEntity
  8
0
100
AcDbPolyline
 90
65
 70
0
 10
-2.8921298792710597
 20
5.262889388925115
 10
-2.894061555699622
 20
5.264613323512305
 10
-2.896007103385239
 20
5.266319205312813
 10
-2.8979663902582486
 20
5.268006969915142
 10
-2.899939284248987
 20
5.269676552907789
 10
-2.9019256532877886
 20
5.271327889879258
 10
-2.9039253653049926
 20
5.272960916418046
 10
-2.9059382882309333
 20
5.274575568112655
 10
-2.9079642899959475
 20
5.276171780551587
 10
-2.9100032385303725
 20
5.277749489323337
 10
-2.912055001764544
 20
5.279308630016411
 10
-2.914119447628799
 20
5.280849138219307
 10
-2.916196444053473
 20
5.282370949520525
 10
-2.918285858968903
 20
5.2838739995085655
 10
-2.9203875603054255
 20
5.285358223771929
 10
-2.9225014159933766
 20
5.286823557899117
 10
-2.9246272939630926
 20
5.288269937478629
 10
-2.9267650621449106
 20
5.289697298098963
 10
-2.928914588469166
 20
5.291105575348623
 10
-2.9310757408661963
 20
5.292494704816107
 10
-2.9332483872663366
 20
5.293864622089916
 10
-2.9354323955999244
 20
5.295215262758551
 10
-2.937627633797296
 20
5.29654656241051
 10
-2.939833969788787
 20
5.297858456634296
 10
-2.942051271504735
 20
5.299150881018409
 10
-2.9442794068754754
 20
5.300423771151348
 10
-2.9465182438313446
 20
5.301677062621615
 10
-2.9487676503026803
 20
5.302910691017708
 10
-2.9510274942198174
 20
5.3041245919281295
 10
-2.9532976435130927
 20
5.305318700941379
 10
-2.955577966112843
 20
5.306492953645956
 10
-2.9578683299494046
 20
5.307647285630362
 10
-2.960168602953114
 20
5.308781632483098
 10
-2.962478653054307
 20
5.309895929792662
 10
-2.9647983481833204
 20
5.310990113147556
 10
-2.9671275562704906
 20
5.31206411813628
 10
-2.9694661452461544
 20
5.313117880347334
 10
-2.9718139830406476
 20
5.314151335369219
 10
-2.9741709375843066
 20
5.3151644187904346
 10
-2.9765368768074687
 20
5.316157066199482
 10
-2.978911668640469
 20
5.31712921318486
 10
-2.9812951810136448
 20
5.318080795335071
 10
-2.983687281857332
 20
5.319011748238613
 10
-2.9860878391018675
 20
5.319922007483989
 10
-2.9884967206775874
 20
5.3208115086596965
 10
-2.9909137945148285
 20
5.3216801873542385
 10
-2.9933389285439262
 20
5.3225279791561135
 10
-2.9957719906952183
 20
5.323354819653822
 10
-2.99821284889904
 20
5.324160644435866
 10
-3.0006613710857284
 20
5.324945389090742
 10
-3.0031174251856196
 20
5.325708989206955
 10
-3.0055808791290506
 20
5.326451380373003
 10
-3.0080516008463567
 20
5.3271724981773865
 10
-3.0105294582678748
 20
5.327872278208605
 10
-3.0130143193239416
 20
5.32855065605516
 10
-3.0155060519448935
 20
5.329207567305552
 10
-3.018004524061067
 20
5.32984294754828
 10
-3.0205096036027976
 20
5.330456732371847
 10
-3.0230211585004225
 20
5.331048857364749
 10
-3.0255390566842784
 20
5.331619258115491
 10
-3.0280631660847006
 20
5.332167870212569
 10
-3.030593354632027
 20
5.332694629244487
 10
-3.0331294902565924
 20
5.333199470799744
 10
-3.035671440888734
 20
5.333682330466838
 10
-3.0382190744587887
 20
5.3341431438342735
  0
LWPOLYLINE
  5
3C
330
17
100
AcDbEntity
  8
0
100
AcDbPolyline
 90
129
 70
0
 10
-3.377818067239308
 20
5.105079926266193
 10
-3.378017293544162
 20
5.104134983128877
 10
-3.378213409602641
 20
5.103189472521032
 10
-3.3784064145451027
 20
5.102243402095508
 10
-3.3785963075019043
 20
5.101296779505158
 10
-3.3787830876034044
 20
5.100349612402831
 10
-3.37896675397996
 20
5.09940190844138
 10
-3.3791473057619292
 20
5.098453675273657
 10
-3.37932474207967
 20
5.097504920552512
 10
-3.3794990620635406
 20
5.096555651930798
 10
-3.379670264843898
 20
5.095605877061366
 10
-3.3798383495511
 20
5.094655603597065
 10
-3.3800033153155047
 20
5.0937048391907505
 10
-3.38016516126747
 20
5.0927535914952715
 10
-3.380323886537353
 20
5.09180186816348
 10
-3.380479490255513
 20
5.090849676848226
 10
-3.380631971552306
 20
5.089897025202364
 10
-3.380781329558091
 20
5.088943920878743
 10
-3.3809275634032248
 20
5.087990371530215
 10
-3.3810706722180663
 20
5.087036384809631
 10
-3.3812106551329726
 20
5.086081968369844
 10
-3.381347511278302
 20
5.085127129863705
 10
-3.3814812397844114
 20
5.084171876944064
 10
-3.3816118397816592
 20
5.083216217263773
 10
-3.381739310400403
 20
5.082260158475685
 10
-3.381863650771001
 20
5.0813037082326495
 10
-3.381984860023811
 20
5.080346874187519
 10
-3.38210293728919
 20
5.079389663993145
 10
-3.3822178816974966
 20
5.078432085302378
 10
-3.382329692379088
 20
5.077474145768071
 10
-3.3824383684643227
 20
5.076515853043073
 10
-3.3825439090835574
 20
5.075557214780239
 10
-3.3826463133671507
 20
5.074598238632417
 10
-3.382745580445461
 20
5.07363893225246
 10
-3.3828417094488445
 20
5.07267930329322
 10
-3.38293469950766
 20
5.071719359407547
 10
-3.383024549752265
 20
5.070759108248294
 10
-3.3831112593130173
 20
5.069798557468311
 10
-3.3831948273202754
 20
5.06883771472045
 10
-3.383275252904396
 20
5.067876587657563
 10
-3.3833525351957374
 20
5.066915183932501
 10
-3.3834266733246574
 20
5.065953511198115
 10
-3.3834976664215137
 20
5.064991577107257
 10
-3.3835655136166642
 20
5.064029389312778
 10
-3.383630214040467
 20
5.063066955467531
 10
-3.3836917668232784
 20
5.0621042832243655
 10
-3.3837501710954583
 20
5.061141380236133
 10
-3.3838054259873633
 20
5.060178254155687
 10
-3.3838575306293515
 20
5.059214912635877
 10
-3.3839064841517805
 20
5.058251363329554
 10
-3.383952285685008
 20
5.057287613889571
 10
-3.383994934359392
 20
5.056323671968779
 10
-3.38403442930529
 20
5.05535954522003
 10
-3.3840707696530603
 20
5.054395241296175
 10
-3.3841039545330607
 20
5.053430767850064
 10
-3.3841339830756483
 20
5.05246613253455
 10
-3.3841608544111814
 20
5.051501343002485
 10
-3.384184567670018
 20
5.050536406906719
 10
-3.3842051219825153
 20
5.049571331900104
 10
-3.3842225164790314
 20
5.048606125635491
 10
-3.384236750289924
 20
5.047640795765732
 10
-3.384247822545551
 20
5.046675349943679
 10
-3.3842557323762703
 20
5.045709795822183
 10
-3.3842604789124393
 20
5.044744141054094
 10
-3.3842620612844163
 20
5.043778393292265
 10
-3.384257654285554
 20
5.042166406278014
 10
-3.3842444374632494
 20
5.040554840576425
 10
-3.384222417078927
 20
5.038943731610925
 10
-3.3841915993940095
 20
5.037333114804939
 10
-3.3841519906699222
 20
5.035723025581894
 10
-3.3841035971680884
 20
5.034113499365215
 10
-3.384046425149932
 20
5.032504571578329
 10
-3.383980480876877
 20
5.030896277644661
 10
-3.3839057706103475
 20
5.029288652987638
 10
-3.3838223006117665
 20
5.027681733030686
 10
-3.383730077142559
 20
5.026075553197232
 10
-3.383629106464148
 20
5.024470148910699
 10
-3.3835193948379585
 20
5.022865555594515
 10
-3.3834009485254137
 20
5.021261808672106
 10
-3.3832737737879377
 20
5.019658943566898
 10
-3.3831378768869538
 20
5.018056995702316
 10
-3.3829932640838867
 20
5.016456000501787
 10
-3.38283994164016
 20
5.014855993388736
 10
-3.382677915817198
 20
5.013257009786591
 10
-3.382507192876424
 20
5.011659085118777
 10
-3.382327779079262
 20
5.0100622548087195
 10
-3.3821396806871364
 20
5.008466554279844
 10
-3.381942903961471
 20
5.006872018955578
 10
-3.381737455163689
 20
5.005278684259347
 10
-3.3815233405552148
 20
5.003686585614576
 10
-3.381300566397473
 20
5.002095758444693
 10
-3.381069138951886
 20
5.000506238173122
 10
-3.380829064479879
 20
4.998918060223289
 10
-3.380580349242875
 20
4.997331260018623
 10
-3.380322999502299
 20
4.995745872982547
 10
-3.3800570215195744
 20
4.9941619345384884
 10
-3.3797824215561247
 20
4.992579480109872
 10
-3.379499205873374
 20
4.990998545120125
 10
-3.3792073807327463
 20
4.989419164992672
 10
-3.3789069523956656
 20
4.987841375150941
 10
-3.3785979271235558
 20
4.986265211018357
 10
-3.3782803111778406
 20
4.984690708018346
 10
-3.3779541108199442
 20
4.983117901574333
 10
-3.37761933231129
 20
4.981546827109747
 10
-3.3772759819133027
 20
4.979977520048011
 10
-3.376924065887406
 20
4.9784100158125515
 10
-3.3765635904950235
 20
4.976844349826796
 10
-3.3761945619975786
 20
4.975280557514169
 10
-3.3758169866564964
 20
4.973718674298097
 10
-3.3754308707332
 20
4.972158735602006
 10
-3.3750362204891133
 20
4.970600776849323
 10
-3.374633042185661
 20
4.969044833463472
 10
-3.374221342084266
 20
4.967490940867881
 10
-3.373801126446353
 20
4.965939134485975
 10
-3.3733724015333455
 20
4.96438944974118
 10
-3.3729351736066677
 20
4.9628419220569215
 10
-3.372489448927743
 20
4.961296586856627
 10
-3.3720352337579955
 20
4.959753479563722
 10
-3.3715725343588496
 20
4.958212635601631
 10
-3.3711013569917285
 20
4.956674090393783
 10
-3.3706217079180565
 20
4.955137879363601
 10
-3.3701335933992578
 20
4.953604037934513
 10
-3.3696370196967558
 20
4.952072601529943
 10
-3.3691319930719743
 20
4.950543605573319
 10
-3.3686185197863376
 20
4.949017085488067
 10
-3.3680966061012696
 20
4.9474930766976115
 10
-3.367566258278194
 20
4.94597161462538
 10
-3.3670274825785347
 20
4.944452734694797
 10
-3.3664802852637163
 20
4.942936472329289
  0
LWPOLYLINE
  5
3D
330
17
100
AcDbEntity
  8
0
100
AcDbPolyline
 90
65
 70
0
 10
-2.998306333040246
 20
4.76336586468549
 10
-2.9958475988480044
 20
4.764176689601033
 10
-2.9933975613677415
 20
4.765008559684126
 10
-2.990956342407343
 20
4.765861392666613
 10
-2.988524063774694
 20
4.7667351062803425
 10
-2.9861008472776804
 20
4.767629618257161
 10
-2.9836868147241877
 20
4.768544846328918
 10
-2.9812820879221014
 20
4.769480708227458
 10
-2.9788867886793065
 20
4.770437121684627
 10
-2.9765010388036894
 20
4.771414004432274
 10
-2.974124960103135
 20
4.772411274202246
 10
-2.971758674385529
 20
4.773428848726388
 10
-2.9694023034587564
 20
4.774466645736548
 10
-2.9670559691307035
 20
4.775524582964574
 10
-2.9647197932092557
 20
4.776602578142312
 10
-2.9623938975022983
 20
4.777700549001609
 10
-2.960078403817717
 20
4.778818413274312
 10
-2.957773433963397
 20
4.779956088692267
 10
-2.9554791097472237
 20
4.781113492987323
 10
-2.9531955529770832
 20
4.782290543891326
 10
-2.950922885460861
 20
4.783487159136122
 10
-2.9486612290064422
 20
4.784703256453559
 10
-2.9464107054217124
 20
4.785938753575484
 10
-2.9441714365145573
 20
4.787193568233743
 10
-2.941943544092862
 20
4.788467618160184
 10
-2.9397271499645123
 20
4.789760821086654
 10
-2.937522375937394
 20
4.791073094744999
 10
-2.9353293438193924
 20
4.792404356867067
 10
-2.933148175418393
 20
4.793754525184703
 10
-2.9309789925422813
 20
4.795123517429756
 10
-2.928821916998943
 20
4.796511251334072
 10
-2.9266770705962633
 20
4.7979176446295
 10
-2.9245445751421277
 20
4.799342615047884
 10
-2.9224245524444217
 20
4.800786080321072
 10
-2.920317124311031
 20
4.802247958180912
 10
-2.918222412549842
 20
4.8037281663592495
 10
-2.916140538968739
 20
4.805226622587932
 10
-2.914071625375607
 20
4.806743244598807
 10
-2.9120157935783335
 20
4.80827795012372
 10
-2.9099731653848018
 20
4.809830656894519
 10
-2.9079438626028993
 20
4.811401282643051
 10
-2.9059280070405107
 20
4.812989745101164
 10
-2.9039257205055216
 20
4.814595962000703
 10
-2.901937124805817
 20
4.816219851073516
 10
-2.899962341749283
 20
4.817861330051449
 10
-2.898001493143805
 20
4.819520316666349
 10
-2.896054700797269
 20
4.821196728650064
 10
-2.89412208651756
 20
4.822890483734441
 10
-2.892203772112563
 20
4.824601499651327
 10
-2.8902998793901644
 20
4.826329694132568
 10
-2.8884105301582492
 20
4.828074984910011
 10
-2.8865358462247035
 20
4.8298372897155035
 10
-2.8846759493974123
 20
4.831616526280893
 10
-2.8828309614842613
 20
4.833412612338025
 10
-2.8810010042931355
 20
4.835225465618747
 10
-2.879186199631922
 20
4.837055003854907
 10
-2.877386669308504
 20
4.83890114477835
 10
-2.875602535130769
 20
4.840763806120925
 10
-2.873833918906602
 20
4.842642905614477
 10
-2.8720809424438873
 20
4.844538360990855
 10
-2.8703437275505115
 20
4.8464500899819045
 10
-2.8686223960343606
 20
4.848378010319473
 10
-2.8669170697033195
 20
4.850322039735407
 10
-2.865227870365273
 20
4.852282095961554
 10
-2.8635549198281085
 20
4.854258096729762
  0
LWPOLYLINE
  5
3E
330
17
100
AcDbEntity
  8
0
100
AcDbPolyline
 90
65
 70
0
 10
-3.188849968279725
 20
5.138710786697365
 10
-3.190166282720935
 20
5.13835558756921
 10
-3.191481197559973
 20
5.137995755045337
 10
-3.192794700911728
 20
5.137631293821814
 10
-3.1941067808910906
 20
5.137262208594709
 10
-3.1954174256129497
 20
5.1368885040600905
 10
-3.1967266231921956
 20
5.136510184914027
 10
-3.198034361743718
 20
5.136127255852584
 10
-3.199340629382407
 20
5.135739721571832
 10
-3.200645414223152
 20
5.135347586767836
 10
-3.201948704380843
 20
5.134950856136668
 10
-3.2032504879703696
 20
5.1345495343743925
 10
-3.2045507531066217
 20
5.134143626177079
 10
-3.205849487904489
 20
5.133733136240796
 10
-3.2071466804788615
 20
5.13331806926161
 10
-3.2084423189446296
 20
5.132898429935589
 10
-3.209736391416682
 20
5.132474222958802
 10
-3.211028886009909
 20
5.132045453027316
 10
-3.2123197908392003
 20
5.131612124837199
 10
-3.213609094019446
 20
5.131174243084519
 10
-3.214896783665535
 20
5.130731812465346
 10
-3.2161828478923584
 20
5.130284837675744
 10
-3.2174672748148048
 20
5.129833323411783
 10
-3.218750052547765
 20
5.129377274369532
 10
-3.220031169206128
 20
5.128916695245058
 10
-3.221310612904784
 20
5.1284515907344295
 10
-3.222588371758623
 20
5.127981965533712
 10
-3.2238644338825346
 20
5.127507824338976
 10
-3.225138787391408
 20
5.127029171846289
 10
-3.226411420400134
 20
5.126546012751717
 10
-3.227682321023602
 20
5.126058351751331
 10
-3.228951477376701
 20
5.1255661935411965
 10
-3.2302188775743224
 20
5.125069542817383
 10
-3.231484509731355
 20
5.124568404275958
 10
-3.232748361962688
 20
5.124062782612988
 10
-3.234010422383213
 20
5.123552682524543
 10
-3.2352706791078183
 20
5.12303810870669
 10
-3.236529120251394
 20
5.122519065855496
 10
-3.23778573392883
 20
5.121995558667032
 10
-3.239040508255016
 20
5.121467591837362
 10
-3.240293431344842
 20
5.120935170062556
 10
-3.2415444913131983
 20
5.120398298038682
 10
-3.2427936762749736
 20
5.119856980461809
 10
-3.2440409743450584
 20
5.119311222028002
 10
-3.245286373638342
 20
5.118761027433331
 10
-3.246529862269715
 20
5.118206401373864
 10
-3.2477714283540666
 20
5.117647348545668
 10
-3.2490110600062865
 20
5.117083873644811
 10
-3.250248745341265
 20
5.116515981367361
 10
-3.251484472473891
 20
5.115943676409387
 10
-3.252718229519056
 20
5.115366963466956
 10
-3.253950004591648
 20
5.114785847236136
 10
-3.2551797858065576
 20
5.114200332412995
 10
-3.2564075612786745
 20
5.1136104236936
 10
-3.257633319122889
 20
5.113016125774021
 10
-3.25885704745409
 20
5.112417443350325
 10
-3.260078734387168
 20
5.111814381118578
 10
-3.261298368037012
 20
5.111206943774852
 10
-3.2625159365185126
 20
5.110595136015211
 10
-3.2637314279465595
 20
5.109978962535725
 10
-3.2649448304360424
 20
5.109358428032461
 10
-3.266156132101851
 20
5.108733537201488
 10
-3.2673653210588744
 20
5.108104294738873
 10
-3.268572385422004
 20
5.107470705340685
 10
-3.269777313306128
 20
5.10683277370299
  0
LWPOLYLINE
  5
3F
330
17
100
AcDbEntity
  8
0
100
AcDbPolyline
 90
65
 70
0
 10
-2.9574893047215047
 20
5.082422093430698
 10
-2.957138778480486
 20
5.083739660031076
 10
-2.956792962801437
 20
5.085058330845156
 10
-2.9564518596555467
 20
5.086378093234136
 10
-2.956115471014004
 20
5.087698934559218
 10
-2.955783798847998
 20
5.089020842181603
 10
-2.9554568451287175
 20
5.0903438034624875
 10
-2.9551346118273525
 20
5.091667805763075
 10
-2.954817100915091
 20
5.092992836444562
 10
-2.954504314363122
 20
5.094318882868151
 10
-2.954196254142635
 20
5.0956459323950405
 10
-2.953892922224819
 20
5.096973972386432
 10
-2.9535943205808626
 20
5.098302990203523
 10
-2.9533004511819554
 20
5.099632973207514
 10
-2.9530113159992855
 20
5.100963908759607
 10
-2.952726917004043
 20
5.102295784221
 10
-2.952447256167416
 20
5.103628586952892
 10
-2.952172335460594
 20
5.104962304316485
 10
-2.9519021568547656
 20
5.1062969236729785
 10
-2.9516367223211204
 20
5.107632432383572
 10
-2.951376033830847
 20
5.1089688178094645
 10
-2.9511200933551343
 20
5.110306067311857
 10
-2.950868902865172
 20
5.1116441682519485
 10
-2.950622464332148
 20
5.11298310799094
 10
-2.950380779727252
 20
5.114322873890031
 10
-2.9501438510216733
 20
5.11566345331042
 10
-2.9499116801866
 20
5.11700483361331
 10
-2.9496842691932224
 20
5.118347002159897
 10
-2.949461620012728
 20
5.119689946311384
 10
-2.9492437346163074
 20
5.121033653428969
 10
-2.949030614975148
 20
5.1223781108738535
 10
-2.9488222630604404
 20
5.123723306007236
 10
-2.948618680843372
 20
5.125069226190316
 10
-2.948419870295133
 20
5.126415858784296
 10
-2.948225833386912
 20
5.127763191150374
 10
-2.948036572089898
 20
5.129111210649748
 10
-2.9478520883752797
 20
5.130459904643622
 10
-2.947672384214247
 20
5.131809260493193
 10
-2.947497461577988
 20
5.133159265559661
 10
-2.9473273224376926
 20
5.134509907204228
 10
-2.9471619687645485
 20
5.135861172788092
 10
-2.9470014025297457
 20
5.137213049672453
 10
-2.946845625704473
 20
5.138565525218511
 10
-2.9466946402599197
 20
5.139918586787466
 10
-2.9465484481672743
 20
5.141272221740519
 10
-2.946407051397726
 20
5.142626417438868
 10
-2.9462704519224636
 20
5.1439811612437145
 10
-2.9461386517126766
 20
5.145336440516258
 10
-2.946011652739554
 20
5.146692242617696
 10
-2.945889456974284
 20
5.1480485549092325
 10
-2.945772066388056
 20
5.149405364752064
 10
-2.94565948295206
 20
5.150762659507392
 10
-2.945551708637484
 20
5.152120426536417
 10
-2.9454487454155167
 20
5.153478653200336
 10
-2.9453505952573478
 20
5.154837326860353
 10
-2.945257260134166
 20
5.156196434877664
 10
-2.9451687420171604
 20
5.157555964613472
 10
-2.9450850428775204
 20
5.158915903428975
 10
-2.945006164686434
 20
5.160276238685372
 10
-2.9449321094150913
 20
5.161636957743866
 10
-2.9448628790346807
 20
5.1629980479656545
 10
-2.9447984755163916
 20
5.164359496711938
 10
-2.944738900831412
 20
5.1657212913439166
 10
-2.9446841569509323
 20
5.167083419222791
 10
-2.9446342458461414
 20
5.1684458677097584
  0
LWPOLYLINE
  5
40
330
17
100
AcDbEntity
  8
0
100
AcDbPolyline
 90
65
 70
0
 10
-3.1219175395659104
 20
4.910202299748733
 10
-3.120951751365719
 20
4.909240047330176
 10
-3.1199826522057306
 20
4.908281316846615
 10
-3.1190102519998657
 20
4.907326116414713
 10
-3.1180345606620463
 20
4.9063744541511305
 10
-3.1170555881061928
 20
4.905426338172526
 10
-3.116073344246227
 20
4.904481776595562
 10
-3.1150878389960703
 20
4.9035407775368975
 10
-3.1140990822696426
 20
4.902603349113195
 10
-3.1131070839808666
 20
4.901669499441114
 10
-3.1121118540436625
 20
4.900739236637316
 10
-3.1111134023719518
 20
4.899812568818461
 10
-3.110111738879656
 20
4.898889504101208
 10
-3.1091068734806964
 20
4.897970050602221
 10
-3.108098816088993
 20
4.897054216438158
 10
-3.107087576618468
 20
4.896142009725681
 10
-3.1060731649830426
 20
4.8952334385814495
 10
-3.105055591096638
 20
4.894328511122126
 10
-3.1040348648731744
 20
4.893427235464368
 10
-3.103010996226575
 20
4.89252961972484
 10
-3.1019839950707584
 20
4.891635672020199
 10
-3.100953871319648
 20
4.890745400467108
 10
-3.099920634887164
 20
4.889858813182227
 10
-3.0988842956872276
 20
4.888975918282216
 10
-3.0978448636337603
 20
4.888096723883737
 10
-3.096802348640683
 20
4.887221238103448
 10
-3.095756760621917
 20
4.886349469058014
 10
-3.0947081094913838
 20
4.885481424864091
 10
-3.093656405163004
 20
4.884617113638342
 10
-3.092601657550699
 20
4.8837565434974275
 10
-3.0915438765683905
 20
4.882899722558007
 10
-3.090483072129999
 20
4.882046658936743
 10
-3.089419254149446
 20
4.881197360750296
 10
-3.0883524325406526
 20
4.880351836115324
 10
-3.0872826172175403
 20
4.87951009314849
 10
-3.08620981809403
 20
4.878672139966453
 10
-3.0851340450840428
 20
4.877837984685876
 10
-3.0840553081014996
 20
4.877007635423418
 10
-3.082973617060323
 20
4.8761811002957405
 10
-3.081888981874432
 20
4.875358387419502
 10
-3.0808014124577494
 20
4.874539504911366
 10
-3.0797109187241967
 20
4.873724460887991
 10
-3.078617510587694
 20
4.872913263466039
 10
-3.0775211979621626
 20
4.872105920762169
 10
-3.0764219907615242
 20
4.871302440893043
 10
-3.0753198988996995
 20
4.870502831975322
 10
-3.0742149322906105
 20
4.869707102125665
 10
-3.073107100848177
 20
4.868915259460733
 10
-3.071996414486322
 20
4.868127312097188
 10
-3.070882883118965
 20
4.86734326815169
 10
-3.069766516660028
 20
4.866563135740899
 10
-3.0686473250234325
 20
4.865786922981476
 10
-3.0675253181230993
 20
4.865014637990082
 10
-3.066400505872949
 20
4.864246288883376
 10
-3.0652728981869037
 20
4.863481883778022
 10
-3.0641425049788844
 20
4.862721430790676
 10
-3.063009336162812
 20
4.861964938038002
 10
-3.0618734016526084
 20
4.861212413636661
 10
-3.0607347113621937
 20
4.860463865703311
 10
-3.05959327520549
 20
4.859719302354614
 10
-3.0584491030964176
 20
4.858978731707231
 10
-3.0573022049488987
 20
4.858242161877823
 10
-3.0561525906768536
 20
4.857509600983049
 10
-3.055000270194204
 20
4.85678105713957
 10
-3.0538452534148712
 20
4.856056538464048
  0
LWPOLYLINE
  5
41
330
17
100
AcDbEntity
  8
0
100
AcDbPolyline
 90
65
 70
0
 10
-2.8846042871688518
 20
5.25587040012834
 10
-2.886712917872478
 20
5.257886706204044
 10
-2.8888397347659
 20
5.259880520491373
 10
-2.8909845497744957
 20
5.261851751330035
 10
-2.8931471748236435
 20
5.263800307059742
 10
-2.895327421838722
 20
5.265726096020206
 10
-2.8975251027451083
 20
5.267629026551139
 10
-2.899740029468181
 20
5.2695090069922506
 10
-2.9019720139333187
 20
5.271365945683251
 10
-2.904220868065898
 20
5.273199750963854
 10
-2.9064864037912983
 20
5.2750103311737675
 10
-2.908768433034897
 20
5.276797594652705
 10
-2.911066767722073
 20
5.278561449740377
 10
-2.913381219778204
 20
5.280301804776494
 10
-2.9157116011286672
 20
5.282018568100768
 10
-2.918057723698842
 20
5.283711648052909
 10
-2.920419399414106
 20
5.28538095297263
 10
-2.922796440199837
 20
5.28702639119964
 10
-2.9251886579814137
 20
5.28864787107365
 10
-2.9275958646842137
 20
5.290245300934372
 10
-2.9300178722336154
 20
5.291818589121518
 10
-2.9324544925549967
 20
5.293367643974799
 10
-2.934905537573736
 20
5.294892373833924
 10
-2.9373708192152104
 20
5.296392687038605
 10
-2.9398501494047986
 20
5.297868491928553
 10
-2.94234334006788
 20
5.29931969684348
 10
-2.944850203129831
 20
5.300746210123097
 10
-2.9473705505160295
 20
5.302147940107114
 10
-2.949904194151855
 20
5.303524795135242
 10
-2.952450945962685
 20
5.304876683547195
 10
-2.9550106178738975
 20
5.30620351368268
 10
-2.9575830218108705
 20
5.30750519388141
 10
-2.9601679696989818
 20
5.308781632483098
 10
-2.96276527346361
 20
5.310032737827451
 10
-2.9653747450301338
 20
5.311258418254184
 10
-2.9679961963239303
 20
5.312458582103004
 10
-2.9706294392703776
 20
5.3136331377136266
 10
-2.973274285794854
 20
5.31478199342576
 10
-2.975930547822738
 20
5.315905057579116
 10
-2.978598037279407
 20
5.317002238513406
 10
-2.9812765660902394
 20
5.31807344456834
 10
-2.9839659461806134
 20
5.31911858408363
 10
-2.9866659894759073
 20
5.320137565398988
 10
-2.989376507901499
 20
5.321130296854123
 10
-2.992097313382766
 20
5.322096686788747
 10
-2.9948282178450873
 20
5.323036643542572
 10
-2.997569033213841
 20
5.323950075455307
 10
-3.000319571414404
 20
5.324836890866666
 10
-3.0030796443721557
 20
5.325696998116357
 10
-3.0058490640124735
 20
5.326530305544093
 10
-3.008627642260736
 20
5.327336721489585
 10
-3.0114151910423206
 20
5.328116154292545
 10
-3.014211522282606
 20
5.328868512292681
 10
-3.01701644790697
 20
5.329593703829706
 10
-3.019829779840791
 20
5.330291637243331
 10
-3.0226513300094466
 20
5.330962220873268
 10
-3.0254809103383153
 20
5.331605363059227
 10
-3.028318332752775
 20
5.332220972140918
 10
-3.031163409178204
 20
5.332808956458055
 10
-3.03401595153998
 20
5.3333692243503465
 10
-3.036875771763482
 20
5.333901684157504
 10
-3.0397426817740865
 20
5.33440624421924
 10
-3.0426164934971727
 20
5.334882812875264
 10
-3.045497018858119
 20
5.335331298465289
 10
-3.0483840697823026
 20
5.335751609329024
  0
LWPOLYLINE
  5
42
330
17
100
AcDbEntity
  8
0
100
AcDbPolyline
 90
129
 70
0
 10
-3.375502890133479
 20
5.11510813869724
 10
-3.3757735169818903
 20
5.114014016710097
 10
-3.3760399272830828
 20
5.112918997716004
 10
-3.3763021195876535
 20
5.111823093773998
 10
-3.3765600924461983
 20
5.110726316943118
 10
-3.376813844409314
 20
5.109628679282403
 10
-3.377063374027596
 20
5.10853019285089
 10
-3.377308679851642
 20
5.10743086970762
 10
-3.377549760432047
 20
5.10633072191163
 10
-3.3777866143194073
 20
5.105229761521959
 10
-3.3780192400643205
 20
5.104128000597647
 10
-3.378247636217382
 20
5.1030254511977295
 10
-3.3784718013291877
 20
5.101922125381248
 10
-3.378691733950335
 20
5.100818035207241
 10
-3.378907432631419
 20
5.099713192734746
 10
-3.3791188959230376
 20
5.0986076100228015
 10
-3.379326122375786
 20
5.097501299130446
 10
-3.3795291105402603
 20
5.09639427211672
 10
-3.3797278589670574
 20
5.095286541040661
 10
-3.3799223662067734
 20
5.094178117961308
 10
-3.380112630810005
 20
5.093069014937698
 10
-3.3802986513273483
 20
5.091959244028871
 10
-3.3804804263093993
 20
5.090848817293866
 10
-3.3806579543067548
 20
5.089737746791721
 10
-3.3808312338700106
 20
5.088626044581475
 10
-3.3810002635497627
 20
5.087513722722166
 10
-3.381165041896609
 20
5.0864007932728335
 10
-3.381325567461144
 20
5.085287268292516
 10
-3.3814818387939654
 20
5.084173159840252
 10
-3.3816338544456688
 20
5.0830584799750795
 10
-3.3817816129668508
 20
5.081943240756037
 10
-3.381925112908107
 20
5.080827454242165
 10
-3.3820643528200343
 20
5.079711132492499
 10
-3.3821993312532297
 20
5.078594287566083
 10
-3.3823300467582884
 20
5.07747693152195
 10
-3.382456497885807
 20
5.07635907641914
 10
-3.3825786831863827
 20
5.075240734316694
 10
-3.3826966012106103
 20
5.074121917273649
 10
-3.3828102505090873
 20
5.0730026373490436
 10
-3.382919629632409
 20
5.071882906601917
 10
-3.3830247371311732
 20
5.070762737091306
 10
-3.3831255715559747
 20
5.069642140876253
 10
-3.3832221314574107
 20
5.068521130015793
 10
-3.3833144153860775
 20
5.067399716568966
 10
-3.383402421892571
 20
5.066277912594811
 10
-3.3834861495274877
 20
5.065155730152366
 10
-3.3835655968414238
 20
5.064033181300671
 10
-3.383640762384976
 20
5.062910278098762
 10
-3.38371164470874
 20
5.06178703260568
 10
-3.383778242363313
 20
5.060663456880463
 10
-3.38384055389929
 20
5.059539562982149
 10
-3.383898577867269
 20
5.058415362969777
 10
-3.383952312817845
 20
5.0572908689023865
 10
-3.384001757301615
 20
5.056166092839016
 10
-3.384046909869175
 20
5.055041046838703
 10
-3.3840877690711206
 20
5.053915742960486
 10
-3.3841243334580495
 20
5.052790193263404
 10
-3.3841566015805578
 20
5.051664409806498
 10
-3.3841845719892407
 20
5.050538404648803
 10
-3.3842082432346956
 20
5.04941218984936
 10
-3.3842276138675187
 20
5.048285777467206
 10
-3.384242682438306
 20
5.0471591795613815
 10
-3.3842534474976538
 20
5.046032408190924
 10
-3.3842599075961584
 20
5.044905475414873
 10
-3.3842620612844163
 20
5.043778393292265
 10
-3.384256723439858
 20
5.042004282755581
 10
-3.3842407160130037
 20
5.040230738529903
 10
-3.384214048164085
 20
5.0384578074599595
 10
-3.3841767290533333
 20
5.036685536390477
 10
-3.3841287678409793
 20
5.034913972166183
 10
-3.384070173687254
 20
5.033143161631803
 10
-3.38400095575239
 20
5.031373151632065
 10
-3.3839211231966178
 20
5.029603989011698
 10
-3.3838306851801683
 20
5.0278357206154265
 10
-3.3837296508632733
 20
5.026068393287978
 10
-3.3836180294061635
 20
5.02430205387408
 10
-3.383495829969071
 20
5.022536749218459
 10
-3.383363061712227
 20
5.0207725261658425
 10
-3.3832197337958623
 20
5.019009431560958
 10
-3.383065855380208
 20
5.017247512248532
 10
-3.382901435625496
 20
5.015486815073292
 10
-3.3827264836919575
 20
5.013727386879963
 10
-3.3825410087398233
 20
5.011969274513273
 10
-3.3823450199293252
 20
5.010212524817952
 10
-3.382138526420694
 20
5.008457184638723
 10
-3.3819215373741613
 20
5.006703300820315
 10
-3.3816940619499585
 20
5.004950920207455
 10
-3.381456109308316
 20
5.00320008964487
 10
-3.3812076886094666
 20
5.001450855977287
 10
-3.38094880901364
 20
4.999703266049432
 10
-3.380679479681069
 20
4.997957366706032
 10
-3.380399709771983
 20
4.9962132047918155
 10
-3.380109508446615
 20
4.99447082715151
 10
-3.3798088848651955
 20
4.992730280629841
 10
-3.379497848187956
 20
4.990991612071535
 10
-3.3791764075751276
 20
4.989254868321321
 10
-3.378844572186942
 20
4.987520096223926
 10
-3.3785023511836294
 20
4.985787342624074
 10
-3.378149753725422
 20
4.984056654366495
 10
-3.3777867889725512
 20
4.982328078295915
 10
-3.3774134660852475
 20
4.980601661257062
 10
-3.377029794223743
 20
4.978877450094662
 10
-3.376635782548269
 20
4.97715549165344
 10
-3.3762314402190556
 20
4.975435832778128
 10
-3.3758167763963356
 20
4.97371852031345
 10
-3.375391800240339
 20
4.972003601104133
 10
-3.3749565209112977
 20
4.9702911219949035
 10
-3.374510947569443
 20
4.968581129830491
 10
-3.3740550893750063
 20
4.96687367145562
 10
-3.373588955488218
 20
4.965168793715018
 10
-3.3731125550693104
 20
4.963466543453413
 10
-3.3726258972785144
 20
4.9617669675155325
 10
-3.3721289912760612
 20
4.9600701127461
 10
-3.3716218462221823
 20
4.958376025989848
 10
-3.3711044712771088
 20
4.9566847540915
 10
-3.370576875601072
 20
4.954996343895783
 10
-3.370039068354303
 20
4.953310842247426
 10
-3.3694910586970335
 20
4.951628295991153
 10
-3.3689328557894944
 20
4.949948751971694
 10
-3.368364468791917
 20
4.948272257033774
 10
-3.367785906864533
 20
4.946598858022122
 10
-3.367197179167573
 20
4.944928601781463
 10
-3.366598294861269
 20
4.943261535156525
 10
-3.3659892631058517
 20
4.941597704992035
 10
-3.3653700930615527
 20
4.939937158132721
 10
-3.364740793888603
 20
4.938279941423307
 10
-3.3641013747472344
 20
4.936626101708524
 10
-3.363451844797677
 20
4.934975685833097
 10
-3.3627922132001635
 20
4.933328740641751
  0
LWPOLYLINE
  5
43
330
17
100
AcDbEntity
  8
0
100
AcDbPolyline
 90
65
 70
0
 10
-3.0081496352648096
 20
4.760356641051217
 10
-3.00534917509859
 20
4.761174725285782
 10
-3.0025590960253568
 20
4.762019801243349
 10
-2.999779571625696
 20
4.762891751928055
 10
-2.997010775480192
 20
4.7637904603440315
 10
-2.99425288116943
 20
4.764715809495416
 10
-2.991506062273994
 20
4.765667682386343
 10
-2.988770492374471
 20
4.766645962020946
 10
-2.986046345051445
 20
4.76765053140336
 10
-2.9833337938855022
 20
4.768681273537721
 10
-2.980633012457226
 20
4.769738071428162
 10
-2.9779441743472024
 20
4.7708208080788195
 10
-2.9752674531360164
 20
4.7719293664938265
 10
-2.972603022404253
 20
4.773063629677318
 10
-2.9699510557324973
 20
4.774223480633429
 10
-2.967311726701334
 20
4.775408802366296
 10
-2.964685208891349
 20
4.7766194778800495
 10
-2.9620716758831267
 20
4.777855390178828
 10
-2.959471301257252
 20
4.779116422266765
 10
-2.9568842585943114
 20
4.780402457147995
 10
-2.9543107214748883
 20
4.7817133778266525
 10
-2.9517508634795684
 20
4.783049067306873
 10
-2.9492048581889367
 20
4.784409408592791
 10
-2.9466728791835783
 20
4.7857942846885395
 10
-2.9441551000440787
 20
4.787203578598255
 10
-2.9416516943510227
 20
4.788637173326074
 10
-2.9391628356849946
 20
4.790094951876127
 10
-2.9366886976265807
 20
4.791576797252551
 10
-2.9342294537563656
 20
4.7930825924594815
 10
-2.9317852776549342
 20
4.794612220501051
 10
-2.9293563429028713
 20
4.796165564381396
 10
-2.926942823080763
 20
4.797742507104651
 10
-2.924544891769193
 20
4.79934293167495
 10
-2.9221627225487476
 20
4.800966721096428
 10
-2.919796489000012
 20
4.802613758373219
 10
-2.91744636470357
 20
4.804283926509459
 10
-2.915112523240007
 20
4.805977108509283
 10
-2.9127951381899093
 20
4.807693187376825
 10
-2.91049438313386
 20
4.809432046116218
 10
-2.908210431652446
 20
4.8111935677316
 10
-2.905943457326252
 20
4.812977635227103
 10
-2.903693633735862
 20
4.814784131606863
 10
-2.901461134461862
 20
4.8166129398750135
 10
-2.899246133084837
 20
4.818463943035691
 10
-2.897048803185372
 20
4.820337024093029
 10
-2.894869318344052
 20
4.822232066051163
 10
-2.8927078521414615
 20
4.8241489519142275
 10
-2.8905645781581866
 20
4.826087564686357
 10
-2.888439669974812
 20
4.828047787371685
 10
-2.886333301171923
 20
4.830029502974348
 10
-2.884245645330104
 20
4.8320325944984805
 10
-2.882176876029941
 20
4.834056944948216
 10
-2.880127166852018
 20
4.83610243732769
 10
-2.878096691376921
 20
4.838168954641039
 10
-2.8760856231852343
 20
4.840256379892394
 10
-2.8740941358575434
 20
4.8423645960858925
 10
-2.8721224029744334
 20
4.844493486225668
 10
-2.8701705981164896
 20
4.846642933315855
 10
-2.8682388948642963
 20
4.84881282036059
 10
-2.86632746679844
 20
4.851003030364005
 10
-2.864436487499504
 20
4.853213446330238
 10
-2.8625661305480747
 20
4.855443951263421
 10
-2.860716569524736
 20
4.857694428167689
 10
-2.8588879780100744
 20
4.859964760047178
 10
-2.857080529584674
 20
4.862254829906021
  0
ENDSEC
  0
SECTION
  2
OBJECTS
  0
DICTIONARY
  5
A
330
0
100
AcDbDictionary
281
1
  3
ACAD_COLOR
350
B
  3
ACAD_GROUP
350
C
  3
ACAD_LAYOUT
350
D
  3
ACAD_MATERIAL
350
E
  3
ACAD_MLEADERSTYLE
350
F
  3
ACAD_MLINESTYLE
350
10
  3
ACAD_PLOTSETTINGS
350
11
  3
ACAD_PLOTSTYLENAME
350
12
  3
ACAD_SCALELIST
350
14
  3
ACAD_TABLESTYLE
350
15
  3
ACAD_VISUALSTYLE
350
16
  3
EZDXF_META
350
2D
  0
DICTIONARY
  5
B
330
A
100
AcDbDictionary
281
1
  0
DICTIONARY
  5
C
330
A
100
AcDbDictionary
281
1
  0
DICTIONARY
  5
D
330
A
100
AcDbDictionary
281
1
  3
Model
350
1A
  3
Layout1
350
1E
  0
DICTIONARY
  5
E
330
A
100
AcDbDictionary
281
1
  3
ByBlock
350
1F
  3
ByLayer
350
20
  3
Global
350
21
  0
DICTIONARY
  5
F
330
A
100
AcDbDictionary
281
1
  3
Standard
350
2C
  0
DICTIONARY
  5
10
330
A
100
AcDbDictionary
281
1
  3
Standard
350
22
  0
DICTIONARY
  5
11
330
A
100
AcDbDictionary
281
1
  0
ACDBDICTIONARYWDFLT
  5
12
330
A
100
AcDbDictionary
281
1
  3
Normal
350
13
100
AcDbDictionaryWithDefault
340
13
  0
ACDBPLACEHOLDER
  5
13
330
12
  0
DICTIONARY
  5
14
330
A
100
AcDbDictionary
281
1
  0
DICTIONARY
  5
15
330
A
100
AcDbDictionary
281
1
  0
DICTIONARY
  5
16
330
A
100
AcDbDictionary
281
1
  0
LAYOUT
  5
1A
330
D
100
AcDbPlotSettings
  1

  4
A3
  6

 40
7.5
 41
20.0
 42
7.5
 43
20.0
 44
420.0
 45
297.0
 46
0.0
 47
0.0
 48
0.0
 49
0.0
140
0.0
141
0.0
142
1.0
143
1.0
 70
1024
 72
1
 73
0
 74
5
  7

 75
16
 76
0
 77
2
 78
300
147
1.0
148
0.0
149
0.0
100
AcDbLayout
  1
Model
 70
1
 71
0
 10
0.0
 20
0.0
 11
420.0
 21
297.0
 12
0.0
 22
0.0
 32
0.0
 14
1e+20
 24
1e+20
 34
1e+20
 15
-1e+20
 25
-1e+20
 35
-1e+20
146
0.0
 13
0.0
 23
0.0
 33
0.0
 16
1.0
 26
0.0
 36
0.0
 17
0.0
 27
1.0
 37
0.0
 76
1
330
17
  0
LAYOUT
  5
1E
330
D
100
AcDbPlotSettings
  1

  4
A3
  6

 40
7.5
 41
20.0
 42
7.5
 43
20.0
 44
420.0
 45
297.0
 46
0.0
 47
0.0
 48
0.0
 49
0.0
140
0.0
141
0.0
142
1.0
143
1.0
 70
0
 72
1
 73
0
 74
5
  7

 75
16
 76
0
 77
2
 78
300
147
1.0
148
0.0
149
0.0
100
AcDbLayout
  1
Layout1
 70
1
 71
1
 10
0.0
 20
0.0
 11
420.0
 21
297.0
 12
0.0
 22
0.0
 32
0.0
 14
1e+20
 24
1e+20
 34
1e+20
 15
-1e+20
 25
-1e+20
 35
-1e+20
146
0.0
 13
0.0
 23
0.0
 33
0.0
 16
1.0
 26
0.0
 36
0.0
 17
0.0
 27
1.0
 37
0.0
 76
1
330
1B
  0
MATERIAL
  5
1F
102
{ACAD_REACTORS
330
E
102
}
330
E
100
AcDbMaterial
  1
ByBlock
  2

 70
0
 40
1.0
 71
1
 41
1.0
 91
-1023410177
 42
1.0
 72
1
  3

 73
1
 74
1
 75
1
 44
0.5
 73
0
 45
1.0
 46
1.0
 77
1
  4

 78
1
 79
1
170
1
 48
1.0
171
1
  6

172
1
173
1
174
1
140
1.0
141
1.0
175
1
  7

176
1
177
1
178
1
143
1.0
179
1
  8

270
1
271
1
272
1
145
1.0
146
1.0
273
1
  9

274
1
275
1
276
1
 42
1.0
 72
1
  3

 73
1
 74
1
 75
1
 94
63
  0
MATERIAL
  5
20
102
{ACAD_REACTORS
330
E
102
}
330
E
100
AcDbMaterial
  1
ByLayer
  2

 70
0
 40
1.0
 71
1
 41
1.0
 91
-1023410177
 42
1.0
 72
1
  3

 73
1
 74
1
 75
1
 44
0.5
 73
0
 45
1.0
 46
1.0
 77
1
  4

 78
1
 79
1
170
1
 48
1.0
171
1
  6

172
1
173
1
174
1
140
1.0
141
1.0
175
1
  7

176
1
177
1
178
1
143
1.0
179
1
  8

270
1
271
1
272
1
145
1.0
146
1.0
273
1
  9

274
1
275
1
276
1
 42
1.0
 72
1
  3

 73
1
 74
1
 75
1
 94
63
  0
MATERIAL
  5
21
102
{ACAD_REACTORS
330
E
102
}
330
E
100
AcDbMaterial
  1
Global
  2

 70
0
 40
1.0
 71
1
 41
1.0
 91
-1023410177
 42
1.0
 72
1
  3

 73
1
 74
1
 75
1
 44
0.5
 73
0
 45
1.0
 46
1.0
 77
1
  4

 78
1
 79
1
170
1
 48
1.0
171
1
  6

172
1
173
1
174
1
140
1.0
141
1.0
175
1
  7

176
1
177
1
178
1
143
1.0
179
1
  8

270
1
271
1
272
1
145
1.0
146
1.0
273
1
  9

274
1
275
1
276
1
 42
1.0
 72
1
  3

 73
1
 74
1
 75
1
 94
63
  0
MLINESTYLE
  5
22
102
{ACAD_REACTORS
330
10
102
}
330
10
100
AcDbMlineStyle
  2
Standard
 70
0
  3

 62
256
 51
90.0
 52
90.0
 71
2
 49
0.5
 62
256
  6
BYLAYER
 49
-0.5
 62
256
  6
BYLAYER
  0
MLEADERSTYLE
  5
2C
102
{ACAD_REACTORS
330
F
102
}
330
F
100
AcDbMLeaderStyle
179
2
170
2
171
1
172
0
 90
2
 40
0.0
 41
0.0
173
1
 91
-1056964608
 92
-2
290
1
 42
2.0
291
1
 43
8.0
  3
Standard
 44
4.0
300

342
29
174
1
175
1
176
0
178
1
 93
-1056964608
 45
4.0
292
0
297
0
 46
4.0
 94
-1056964608
 47
1.0
 49
1.0
140
1.0
294
1
141
0.0
177
0
142
1.0
295
0
296
0
143
3.75
271
0
272
9
273
9
  0
DICTIONARY
  5
2D
330
A
100
AcDbDictionary
280
1
281
1
  3
CREATED_BY_EZDXF
350
2E
  3
WRITTEN_BY_EZDXF
350
46
  0
DICTIONARYVAR
  5
2E
330
2D
100
DictionaryVariables
280
0
  1
1.4.3 @ 2026-05-01T15:52:42.374092+00:00
  0
DICTIONARYVAR
  5
46
330
2D
100
DictionaryVariables
280
0
  1
1.4.3 @ 2026-05-01T15:52:42.381837+00:00
  0
ENDSEC
  0
EOF
