  0
SECTION
  2
HEADER
  9
$ACADVER
  1
AC1024
  9
$ACADMAINTVER
 70
6
  9
$DWGCODEPAGE
  3
ANSI_1252
  9
$LASTSAVEDBY
  1
ezdxf
  9
$INSBASE
 10
0.0
 20
0.0
 30
0.0
  9
$EXTMIN
 10
1e+20
 20
1e+20
 30
1e+20
  9
$EXTMAX
 10
-1e+20
 20
-1e+20
 30
-1e+20
  9
$LIMMIN
 10
0.0
 20
0.0
  9
$LIMMAX
 10
420.0
 20
297.0
  9
$ORTHOMODE
 70
0
  9
$REGENMODE
 70
1
  9
$FILLMODE
 70
1
  9
$QTEXTMODE
 70
0
  9
$MIRRTEXT
 70
1
  9
$LTSCALE
 40
1.0
  9
$ATTMODE
 70
1
  9
$TEXTSIZE
 40
2.5
  9
$TRACEWID
 40
1.0
  9
$TEXTSTYLE
  7
Standard
  9
$CLAYER
  8
0
  9
$CELTYPE
  6
ByLayer
  9
$CECOLOR
 62
256
  9
$CELTSCALE
 40
1.0
  9
$DISPSILH
 70
0
  9
$DIMSCALE
 40
1.0
  9
$DIMASZ
 40
2.5
  9
$DIMEXO
 40
0.625
  9
$DIMDLI
 40
3.75
  9
$DIMRND
 40
0.0
  9
$DIMDLE
 40
0.0
  9
$DIMEXE
 40
1.25
  9
$DIMTP
 40
0.0
  9
$DIMTM
 40
0.0
  9
$DIMTXT
 40
2.5
  9
$DIMCEN
 40
2.5
  9
$DIMTSZ
 40
0.0
  9
$DIMTOL
 70
0
  9
$DIMLIM
 70
0
  9
$DIMTIH
 70
0
  9
$DIMTOH
 70
0
  9
$DIMSE1
 70
0
  9
$DIMSE2
 70
0
  9
$DIMTAD
 70
1
  9
$DIMZIN
 70
8
  9
$DIMBLK
  1

  9
$DIMASO
 70
1
  9
$DIMSHO
 70
1
  9
$DIMPOST
  1

  9
$DIMAPOST
  1

  9
$DIMALT
 70
0
  9
$DIMALTD
 70
3
  9
$DIMALTF
 40
0.03937007874
  9
$DIMLFAC
 40
1.0
  9
$DIMTOFL
 70
1
  9
$DIMTVP
 40
0.0
  9
$DIMTIX
 70
0
  9
$DIMSOXD
 70
0
  9
$DIMSAH
 70
0
  9
$DIMBLK1
  1

  9
$DIMBLK2
  1

  9
$DIMSTYLE
  2
ISO-25
  9
$DIMCLRD
 70
0
  9
$DIMCLRE
 70
0
  9
$DIMCLRT
 70
0
  9
$DIMTFAC
 40
1.0
  9
$DIMGAP
 40
0.625
  9
$DIMJUST
 70
0
  9
$DIMSD1
 70
0
  9
$DIMSD2
 70
0
  9
$DIMTOLJ
 70
0
  9
$DIMTZIN
 70
8
  9
$DIMALTZ
 70
0
  9
$DIMALTTZ
 70
0
  9
$DIMUPT
 70
0
  9
$DIMDEC
 70
2
  9
$DIMTDEC
 70
2
  9
$DIMALTU
 70
2
  9
$DIMALTTD
 70
3
  9
$DIMTXSTY
  7
Standard
  9
$DIMAUNIT
 70
0
  9
$DIMADEC
 70
0
  9
$DIMALTRND
 40
0.0
  9
$DIMAZIN
 70
0
  9
$DIMDSEP
 70
44
  9
$DIMATFIT
 70
3
  9
$DIMFRAC
 70
0
  9
$DIMLDRBLK
  1

  9
$DIMLUNIT
 70
2
  9
$DIMLWD
 70
-2
  9
$DIMLWE
 70
-2
  9
$DIMTMOVE
 70
0
  9
$DIMFXL
 40
1.0
  9
$DIMFXLON
 70
0
  9
$DIMJOGANG
 40
0.785398163397
  9
$DIMTFILL
 70
0
  9
$DIMTFILLCLR
 70
0
  9
$DIMARCSYM
 70
0
  9
$DIMLTYPE
  6

  9
$DIMLTEX1
  6

  9
$DIMLTEX2
  6

  9
$DIMTXTDIRECTION
 70
0
  9
$LUNITS
 70
2
  9
$LUPREC
 70
4
  9
$SKETCHINC
 40
1.0
  9
$FILLETRAD
 40
10.0
  9
$AUNITS
 70
0
  9
$AUPREC
 70
2
  9
$MENU
  1
.
  9
$ELEVATION
 40
0.0
  9
$PELEVATION
 40
0.0
  9
$THICKNESS
 40
0.0
  9
$LIMCHECK
 70
0
  9
$CHAMFERA
 40
0.0
  9
$CHAMFERB
 40
0.0
  9
$CHAMFERC
 40
0.0
  9
$CHAMFERD
 40
0.0
  9
$SKPOLY
 70
0
  9
$TDCREATE
 40
2461162.7449305556
  9
$TDUCREATE
 40
2458532.153996898
  9
$TDUPDATE
 40
2461162.7449305556
  9
$TDUUPDATE
 40
2458532.1544311
  9
$TDINDWG
 40
0.0
  9
$TDUSRTIMER
 40
0.0
  9
$USRTIMER
 70
1
  9
$ANGBASE
 50
0.0
  9
$ANGDIR
 70
0
  9
$PDMODE
 70
0
  9
$PDSIZE
 40
0.0
  9
$PLINEWID
 40
0.0
  9
$SPLFRAME
 70
0
  9
$SPLINETYPE
 70
6
  9
$SPLINESEGS
 70
8
  9
$HANDSEED
  5
77
  9
$SURFTAB1
 70
6
  9
$SURFTAB2
 70
6
  9
$SURFTYPE
 70
6
  9
$SURFU
 70
6
  9
$SURFV
 70
6
  9
$UCSBASE
  2

  9
$UCSNAME
  2

  9
$UCSORG
 10
0.0
 20
0.0
 30
0.0
  9
$UCSXDIR
 10
1.0
 20
0.0
 30
0.0
  9
$UCSYDIR
 10
0.0
 20
1.0
 30
0.0
  9
$UCSORTHOREF
  2

  9
$UCSORTHOVIEW
 70
0
  9
$UCSORGTOP
 10
0.0
 20
0.0
 30
0.0
  9
$UCSORGBOTTOM
 10
0.0
 20
0.0
 30
0.0
  9
$UCSORGLEFT
 10
0.0
 20
0.0
 30
0.0
  9
$UCSORGRIGHT
 10
0.0
 20
0.0
 30
0.0
  9
$UCSORGFRONT
 10
0.0
 20
0.0
 30
0.0
  9
$UCSORGBACK
 10
0.0
 20
0.0
 30
0.0
  9
$PUCSBASE
  2

  9
$PUCSNAME
  2

  9
$PUCSORG
 10
0.0
 20
0.0
 30
0.0
  9
$PUCSXDIR
 10
1.0
 20
0.0
 30
0.0
  9
$PUCSYDIR
 10
0.0
 20
1.0
 30
0.0
  9
$PUCSORTHOREF
  2

  9
$PUCSORTHOVIEW
 70
0
  9
$PUCSORGTOP
 10
0.0
 20
0.0
 30
0.0
  9
$PUCSORGBOTTOM
 10
0.0
 20
0.0
 30
0.0
  9
$PUCSORGLEFT
 10
0.0
 20
0.0
 30
0.0
  9
$PUCSORGRIGHT
 10
0.0
 20
0.0
 30
0.0
  9
$PUCSORGFRONT
 10
0.0
 20
0.0
 30
0.0
  9
$PUCSORGBACK
 10
0.0
 20
0.0
 30
0.0
  9
$USERI1
 70
0
  9
$USERI2
 70
0
  9
$USERI3
 70
0
  9
$USERI4
 70
0
  9
$USERI5
 70
0
  9
$USERR1
 40
0.0
  9
$USERR2
 40
0.0
  9
$USERR3
 40
0.0
  9
$USERR4
 40
0.0
  9
$USERR5
 40
0.0
  9
$WORLDVIEW
 70
1
  9
$SHADEDGE
 70
3
  9
$SHADEDIF
 70
70
  9
$TILEMODE
 70
1
  9
$MAXACTVP
 70
64
  9
$PINSBASE
 10
0.0
 20
0.0
 30
0.0
  9
$PLIMCHECK
 70
0
  9
$PEXTMIN
 10
1e+20
 20
1e+20
 30
1e+20
  9
$PEXTMAX
 10
-1e+20
 20
-1e+20
 30
-1e+20
  9
$PLIMMIN
 10
0.0
 20
0.0
  9
$PLIMMAX
 10
420.0
 20
297.0
  9
$UNITMODE
 70
0
  9
$VISRETAIN
 70
1
  9
$PLINEGEN
 70
0
  9
$PSLTSCALE
 70
1
  9
$TREEDEPTH
 70
3020
  9
$CMLSTYLE
  2
Standard
  9
$CMLJUST
 70
0
  9
$CMLSCALE
 40
20.0
  9
$PROXYGRAPHICS
 70
1
  9
$MEASUREMENT
 70
1
  9
$CELWEIGHT
370
-1
  9
$ENDCAPS
280
0
  9
$JOINSTYLE
280
0
  9
$LWDISPLAY
290
0
  9
$INSUNITS
 70
4
  9
$HYPERLINKBASE
  1

  9
$STYLESHEET
  1

  9
$XEDIT
290
1
  9
$CEPSNTYPE
380
0
  9
$PSTYLEMODE
290
1
  9
$FINGERPRINTGUID
  2
{DA9463E9-05D3-4224-A19D-4E8058C9865C}
  9
$VERSIONGUID
  2
{5DF67A85-8E30-4F87-AB57-4F7EF17BD2D5}
  9
$EXTNAMES
290
1
  9
$PSVPSCALE
 40
0.0
  9
$OLESTARTUP
290
0
  9
$SORTENTS
280
127
  9
$INDEXCTL
280
0
  9
$HIDETEXT
280
1
  9
$XCLIPFRAME
280
1
  9
$HALOGAP
280
0
  9
$OBSCOLOR
 70
257
  9
$OBSLTYPE
280
0
  9
$INTERSECTIONDISPLAY
280
0
  9
$INTERSECTIONCOLOR
 70
257
  9
$DIMASSOC
280
2
  9
$PROJECTNAME
  1

  9
$CAMERADISPLAY
290
0
  9
$LENSLENGTH
 40
50.0
  9
$CAMERAHEIGHT
 40
0.0
  9
$STEPSPERSEC
 40
24.0
  9
$STEPSIZE
 40
100.0
  9
$3DDWFPREC
 40
2.0
  9
$PSOLWIDTH
 40
0.005
  9
$PSOLHEIGHT
 40
0.08
  9
$LOFTANG1
 40
1.570796326795
  9
$LOFTANG2
 40
1.570796326795
  9
$LOFTMAG1
 40
0.0
  9
$LOFTMAG2
 40
0.0
  9
$LOFTPARAM
 70
7
  9
$LOFTNORMALS
280
1
  9
$LATITUDE
 40
37.795
  9
$LONGITUDE
 40
-122.394
  9
$NORTHDIRECTION
 40
0.0
  9
$TIMEZONE
 70
-8000
  9
$LIGHTGLYPHDISPLAY
280
1
  9
$TILEMODELIGHTSYNCH
280
1
  9
$CMATERIAL
347
20
  9
$SOLIDHIST
280
0
  9
$SHOWHIST
280
1
  9
$DWFFRAME
280
2
  9
$DGNFRAME
280
2
  9
$REALWORLDSCALE
290
1
  9
$INTERFERECOLOR
 62
256
  9
$CSHADOW
280
0
  9
$SHADOWPLANELOCATION
 40
0.0
  0
ENDSEC
  0
SECTION
  2
CLASSES
  0
CLASS
  1
ACDBDICTIONARYWDFLT
  2
AcDbDictionaryWithDefault
  3
ObjectDBX Classes
 90
0
 91
0
280
0
281
0
  0
CLASS
  1
SUN
  2
AcDbSun
  3
SCENEOE
 90
1153
 91
0
280
0
281
0
  0
CLASS
  1
VISUALSTYLE
  2
AcDbVisualStyle
  3
ObjectDBX Classes
 90
4095
 91
0
280
0
281
0
  0
CLASS
  1
MATERIAL
  2
AcDbMaterial
  3
ObjectDBX Classes
 90
1153
 91
0
280
0
281
0
  0
CLASS
  1
SCALE
  2
AcDbScale
  3
ObjectDBX Classes
 90
1153
 91
0
280
0
281
0
  0
CLASS
  1
TABLESTYLE
  2
AcDbTableStyle
  3
ObjectDBX Classes
 90
4095
 91
0
280
0
281
0
  0
CLASS
  1
MLEADERSTYLE
  2
AcDbMLeaderStyle
  3
ACDB_MLEADERSTYLE_CLASS
 90
4095
 91
0
280
0
281
0
  0
CLASS
  1
DICTIONARYVAR
  2
AcDbDictionaryVar
  3
ObjectDBX Classes
 90
0
 91
0
280
0
281
0
  0
CLASS
  1
CELLSTYLEMAP
  2
AcDbCellStyleMap
  3
ObjectDBX Classes
 90
1152
 91
0
280
0
281
0
  0
CLASS
  1
MENTALRAYRENDERSETTINGS
  2
AcDbMentalRayRenderSettings
  3
SCENEOE
 90
1024
 91
0
280
0
281
0
  0
CLASS
  1
ACDBDETAILVIEWSTYLE
  2
AcDbDetailViewStyle
  3
ObjectDBX Classes
 90
1025
 91
0
280
0
281
0
  0
CLASS
  1
ACDBSECTIONVIEWSTYLE
  2
AcDbSectionViewStyle
  3
ObjectDBX Classes
 90
1025
 91
0
280
0
281
0
  0
CLASS
  1
RASTERVARIABLES
  2
AcDbRasterVariables
  3
ISM
 90
0
 91
0
280
0
281
0
  0
CLASS
  1
ACDBPLACEHOLDER
  2
AcDbPlaceHolder
  3
ObjectDBX Classes
 90
0
 91
0
280
0
281
0
  0
CLASS
  1
LAYOUT
  2
AcDbLayout
  3
ObjectDBX Classes
 90
0
 91
0
280
0
281
0
  0
ENDSEC
  0
SECTION
  2
TABLES
  0
TABLE
  2
VPORT
  5
8
330
0
100
AcDbSymbolTable
 70
1
  0
VPORT
  5
23
330
8
100
AcDbSymbolTableRecord
100
AcDbViewportTableRecord
  2
*Active
 70
0
 10
0.0
 20
0.0
 11
1.0
 21
1.0
 12
0.0
 22
0.0
 13
0.0
 23
0.0
 14
0.5
 24
0.5
 15
0.5
 25
0.5
 16
0.0
 26
0.0
 36
1.0
 17
0.0
 27
0.0
 37
0.0
 40
1000.0
 41
1.34
 42
50.0
 43
0.0
 44
0.0
 50
0.0
 51
0.0
 71
0
 72
1000
 73
1
 74
3
 75
0
 76
0
 77
0
 78
0
281
0
 65
0
146
0.0
  0
ENDTAB
  0
TABLE
  2
LTYPE
  5
2
330
0
100
AcDbSymbolTable
 70
3
  0
LTYPE
  5
24
330
2
100
AcDbSymbolTableRecord
100
AcDbLinetypeTableRecord
  2
ByBlock
 70
0
  3

 72
65
 73
0
 40
0.0
  0
LTYPE
  5
25
330
2
100
AcDbSymbolTableRecord
100
AcDbLinetypeTableRecord
  2
ByLayer
 70
0
  3

 72
65
 73
0
 40
0.0
  0
LTYPE
  5
26
330
2
100
AcDbSymbolTableRecord
100
AcDbLinetypeTableRecord
  2
Continuous
 70
0
  3

 72
65
 73
0
 40
0.0
  0
ENDTAB
  0
TABLE
  2
LAYER
  5
1
330
0
100
AcDbSymbolTable
 70
2
  0
LAYER
  5
27
330
1
100
AcDbSymbolTableRecord
100
AcDbLayerTableRecord
  2
0
 70
0
 62
7
  6
Continuous
370
-3
390
13
347
21
  0
LAYER
  5
28
330
1
100
AcDbSymbolTableRecord
100
AcDbLayerTableRecord
  2
Defpoints
 70
0
 62
7
  6
Continuous
290
0
370
-3
390
13
347
21
  0
ENDTAB
  0
TABLE
  2
STYLE
  5
5
330
0
100
AcDbSymbolTable
 70
1
  0
STYLE
  5
29
330
5
100
AcDbSymbolTableRecord
100
AcDbTextStyleTableRecord
  2
Standard
 70
0
 40
0.0
 41
1.0
 50
0.0
 71
0
 42
2.5
  3
txt
  4

  0
ENDTAB
  0
TABLE
  2
VIEW
  5
7
330
0
100
AcDbSymbolTable
 70
0
  0
ENDTAB
  0
TABLE
  2
UCS
  5
6
330
0
100
AcDbSymbolTable
 70
0
  0
ENDTAB
  0
TABLE
  2
APPID
  5
3
330
0
100
AcDbSymbolTable
 70
3
  0
APPID
  5
2A
330
3
100
AcDbSymbolTableRecord
100
AcDbRegAppTableRecord
  2
ACAD
 70
0
  0
APPID
  5
74
330
3
100
AcDbSymbolTableRecord
100
AcDbRegAppTableRecord
  2
HATCHBACKGROUNDCOLOR
 70
0
  0
APPID
  5
75
330
3
100
AcDbSymbolTableRecord
100
AcDbRegAppTableRecord
  2
EZDXF
 70
0
  0
ENDTAB
  0
TABLE
  2
DIMSTYLE
  5
4
330
0
100
AcDbSymbolTable
 70
1
100
AcDbDimStyleTable
  0
DIMSTYLE
105
2B
330
4
100
AcDbSymbolTableRecord
100
AcDbDimStyleTableRecord
  2
Standard
 70
0
 40
1.0
 41
2.5
 42
0.625
 43
3.75
 44
1.25
 45
0.0
 46
0.0
 47
0.0
 48
0.0
 49
2.5
140
2.5
141
2.5
142
0.0
143
0.03937007874
144
1.0
145
0.0
146
1.0
147
0.625
148
0.0
 69
0
 70
0
 71
0
 72
0
 73
0
 74
0
 75
0
 76
0
 77
1
 78
8
 79
3
170
0
171
3
172
1
173
0
174
0
175
0
176
0
177
0
178
0
179
2
271
2
272
2
273
2
274
3
275
0
276
0
277
2
278
44
279
0
280
0
281
0
282
0
283
0
284
8
285
0
286
0
288
0
289
3
290
0
371
-2
372
-2
  0
ENDTAB
  0
TABLE
  2
BLOCK_RECORD
  5
9
330
0
100
AcDbSymbolTable
 70
2
  0
BLOCK_RECORD
  5
17
330
9
100
AcDbSymbolTableRecord
100
AcDbBlockTableRecord
  2
*Model_Space
340
1A
 70
0
280
1
281
0
  0
BLOCK_RECORD
  5
1B
330
9
100
AcDbSymbolTableRecord
100
AcDbBlockTableRecord
  2
*Paper_Space
340
1E
 70
0
280
1
281
0
  0
ENDTAB
  0
ENDSEC
  0
SECTION
  2
BLOCKS
  0
BLOCK
  5
18
330
17
100
AcDbEntity
  8
0
100
AcDbBlockBegin
  2
*Model_Space
 70
0
 10
0.0
 20
0.0
 30
0.0
  3
*Model_Space
  1

  0
ENDBLK
  5
19
330
17
100
AcDbEntity
  8
0
100
AcDbBlockEnd
  0
BLOCK
  5
1C
330
1B
100
AcDbEntity
  8
0
100
AcDbBlockBegin
  2
*Paper_Space
 70
0
 10
0.0
 20
0.0
 30
0.0
  3
*Paper_Space
  1

  0
ENDBLK
  5
1D
330
1B
100
AcDbEntity
  8
0
100
AcDbBlockEnd
  0
ENDSEC
  0
SECTION
  2
ENTITIES
  0
LWPOLYLINE
  5
2F
330
17
100
AcDbEntity
  8
0
100
AcDbPolyline
 90
4
 70
1
 10
0.1897500453981539
 20
10.873316242201957
 10
5.817228511008725
 20
10.873316242201957
 10
5.817228511008725
 20
10.754504839437892
 10
0.1897500453981539
 20
10.754504839437892
  0
LWPOLYLINE
  5
30
330
17
100
AcDbEntity
  8
0
100
AcDbPolyline
 90
4
 70
1
 10
6.826771896411631
 20
-1.812746578738861
 10
12.488305692386652
 20
-1.812746578738861
 10
12.488305692386652
 20
-1.9332048048397528
 10
6.826771896411631
 20
-1.9332048048397528
  0
LWPOLYLINE
  5
31
330
17
100
AcDbEntity
  8
0
100
AcDbPolyline
 90
4
 70
1
 10
8.874560716232383
 20
1.8371358833143991
 10
10.4405168725659
 20
1.8371358833143991
 10
10.4405168725659
 20
1.7166777403296418
 10
8.874560716232383
 20
1.7166777403296418
  0
LWPOLYLINE
  5
32
330
17
100
AcDbEntity
  8
0
100
AcDbPolyline
 90
4
 70
1
 10
0.19893105360967192
 20
-2.1603543944094628
 10
0.6807642230212043
 20
-2.1603543944094628
 10
0.6807642230212043
 20
-2.280812584372905
 10
0.19893105360967192
 20
-2.280812584372905
  0
LWPOLYLINE
  5
33
330
17
100
AcDbEntity
  8
0
100
AcDbPolyline
 90
4
 70
1
 10
0.19893128248018707
 20
-1.4376053991786089
 10
0.680763765280174
 20
-1.4376053991786089
 10
0.680763765280174
 20
-1.5580635421633664
 10
0.19893128248018707
 20
-1.5580635421633664
  0
LWPOLYLINE
  5
34
330
17
100
AcDbEntity
  8
0
100
AcDbPolyline
 90
4
 70
1
 10
0.19893128248018707
 20
-1.0762309015631821
 10
0.680763765280174
 20
-1.0762309015631821
 10
0.680763765280174
 20
-1.1966890445479395
 10
0.19893128248018707
 20
-1.1966890445479395
  0
LWPOLYLINE
  5
35
330
17
100
AcDbEntity
  8
0
100
AcDbPolyline
 90
4
 70
1
 10
0.19893128248018707
 20
-2.5217288920248895
 10
0.680763765280174
 20
-2.5217288920248895
 10
0.680763765280174
 20
-2.6421870350096466
 10
0.19893128248018707
 20
-2.6421870350096466
  0
LWPOLYLINE
  5
36
330
17
100
AcDbEntity
  8
0
100
AcDbPolyline
 90
4
 70
1
 10
2.655305009980059
 20
8.706865408220711
 10
3.379999067306878
 20
8.706865408220711
 10
3.379999067306878
 20
8.606766976745952
 10
2.655305009980059
 20
8.606766976745952
  0
LWPOLYLINE
  5
37
330
17
100
AcDbEntity
  8
0
100
AcDbPolyline
 90
4
 70
1
 10
2.535819182423167
 20
8.464977099536673
 10
3.4994847864514202
 20
8.464977099536673
 10
3.4994847864514202
 20
8.344518956551916
 10
2.535819182423167
 20
8.344518956551916
  0
LWPOLYLINE
  5
38
330
17
100
AcDbEntity
  8
0
100
AcDbPolyline
 90
4
 70
1
 10
6.826771896411631
 20
-2.3307158487804784
 10
7.308605065823164
 20
-2.3307158487804784
 10
7.308605065823164
 20
-2.4511740387439205
 10
6.826771896411631
 20
-2.4511740387439205
  0
LWPOLYLINE
  5
39
330
17
100
AcDbEntity
  8
0
100
AcDbPolyline
 90
4
 70
1
 10
6.826772619160628
 20
-1.2947763450319167
 10
7.308605101960615
 20
-1.2947763450319167
 10
7.308605101960615
 20
-1.4152344880166743
 10
6.826772619160628
 20
-1.4152344880166743
  0
LWPOLYLINE
  5
3A
330
17
100
AcDbEntity
  8
0
100
AcDbPolyline
 90
4
 70
1
 10
2.82947101506197
 20
-4.416234695773764
 10
3.1999907327678345
 20
-4.416234695773764
 10
3.1999907327678345
 20
-4.5217464485616485
 10
2.82947101506197
 20
-4.5217464485616485
  0
LWPOLYLINE
  5
3B
330
17
100
AcDbEntity
  8
0
100
AcDbPolyline
 90
4
 70
1
 10
-4.231993133639774
 20
-10.43783083856337
 10
-1.8085551621732883
 20
-10.43783083856337
 10
-1.8085551621732883
 20
-10.544031133841122
 10
-4.231993133639774
 20
-10.544031133841122
  0
LWPOLYLINE
  5
3C
330
17
100
AcDbEntity
  8
0
100
AcDbPolyline
 90
4
 70
1
 10
-12.259084872838041
 20
3.439229814646506
 10
-11.656794416899311
 20
3.439229814646506
 10
-11.656794416899311
 20
3.318771624683064
 10
-12.259084872838041
 20
3.318771624683064
  0
LWPOLYLINE
  5
3D
330
17
100
AcDbEntity
  8
0
100
AcDbPolyline
 90
4
 70
1
 10
-12.259083668256382
 20
5.02927772461255
 10
-11.626678297429386
 20
5.02927772461255
 10
-11.626678297429386
 20
4.908819581627792
 10
-12.259083668256382
 20
4.908819581627792
  0
LWPOLYLINE
  5
3E
330
17
100
AcDbEntity
  8
0
100
AcDbPolyline
 90
4
 70
1
 10
4.358028645095431
 20
-10.429628842049159
 10
5.022129691275614
 20
-10.429628842049159
 10
5.022129691275614
 20
-10.540312361390145
 10
4.358028645095431
 20
-10.540312361390145
  0
LWPOLYLINE
  5
3F
330
17
100
AcDbEntity
  8
0
100
AcDbPolyline
 90
4
 70
1
 10
4.148017662678715
 20
-10.709771893676267
 10
5.232141613266025
 20
-10.709771893676267
 10
5.232141613266025
 20
-10.830230024615208
 10
4.148017662678715
 20
-10.830230024615208
  0
LWPOLYLINE
  5
40
330
17
100
AcDbEntity
  8
0
100
AcDbPolyline
 90
4
 70
1
 10
-12.408216900513976
 20
-3.967007769082876
 10
-11.86615428679204
 20
-3.967007769082876
 10
-11.86615428679204
 20
-4.087465947000501
 10
-12.408216900513976
 20
-4.087465947000501
  0
LWPOLYLINE
  5
41
330
17
100
AcDbEntity
  8
0
100
AcDbPolyline
 90
4
 70
1
 10
-12.40820365011573
 20
-3.0033417193594087
 10
-11.866142132563104
 20
-3.0033417193594087
 10
-11.866142132563104
 20
-3.123799850298349
 10
-12.40820365011573
 20
-3.123799850298349
  0
LWPOLYLINE
  5
42
330
17
100
AcDbEntity
  8
0
100
AcDbPolyline
 90
4
 70
1
 10
5.492741074321061
 20
5.3882237856040005
 10
6.076446967375308
 20
5.3882237856040005
 10
6.076446967375308
 20
5.288455834721055
 10
5.492741074321061
 20
5.288455834721055
  0
LWPOLYLINE
  5
43
330
17
100
AcDbEntity
  8
0
100
AcDbPolyline
 90
4
 70
1
 10
8.77969918785934
 20
-6.937125009844865
 10
9.1410735650166
 20
-6.937125009844865
 10
9.1410735650166
 20
-7.057583140783806
 10
8.77969918785934
 20
-7.057583140783806
  0
LWPOLYLINE
  5
44
330
17
100
AcDbEntity
  8
0
100
AcDbPolyline
 90
4
 70
1
 10
8.788216664309969
 20
-6.738797626310553
 10
9.14959104146723
 20
-6.738797626310553
 10
9.14959104146723
 20
-6.8592557572494925
 10
8.788216664309969
 20
-6.8592557572494925
  0
LWPOLYLINE
  5
45
330
17
100
AcDbEntity
  8
0
100
AcDbPolyline
 90
4
 70
1
 10
4.358028645095431
 20
-10.20549823526161
 10
5.022129691275614
 20
-10.20549823526161
 10
5.022129691275614
 20
-10.316181754602598
 10
4.358028645095431
 20
-10.316181754602598
  0
LWPOLYLINE
  5
46
330
17
100
AcDbEntity
  8
0
100
AcDbPolyline
 90
4
 70
1
 10
4.358028645095431
 20
-9.981366905725068
 10
5.022129691275614
 20
-9.981366905725068
 10
5.022129691275614
 20
-10.092050425066054
 10
4.358028645095431
 20
-10.092050425066054
  0
LWPOLYLINE
  5
47
330
17
100
AcDbEntity
  8
0
100
AcDbPolyline
 90
4
 70
1
 10
-9.45391533509829
 20
-6.45529523735361
 10
-8.490249731070037
 20
-6.45529523735361
 10
-8.490249731070037
 20
-6.575753380338367
 10
-9.45391533509829
 20
-6.575753380338367
  0
LWPOLYLINE
  5
48
330
17
100
AcDbEntity
  8
0
100
AcDbPolyline
 90
4
 70
1
 10
-8.21395571535448
 20
9.755383755940436
 10
-7.611665163049217
 20
9.755383755940436
 10
-7.611665163049217
 20
9.634925565976994
 10
-8.21395571535448
 20
9.634925565976994
  0
LWPOLYLINE
  5
49
330
17
100
AcDbEntity
  8
0
100
AcDbPolyline
 90
4
 70
1
 10
-8.213953547107494
 20
10.598591639792094
 10
-7.611663862101025
 20
10.598591639792094
 10
-7.611663862101025
 20
10.478133496807336
 10
-8.213953547107494
 20
10.478133496807336
  0
LWPOLYLINE
  5
4A
330
17
100
AcDbEntity
  8
0
100
AcDbPolyline
 90
4
 70
1
 10
8.651802850703112
 20
8.655454465317453
 10
9.25970753651608
 20
8.655454465317453
 10
9.25970753651608
 20
8.554137029727773
 10
8.651802850703112
 20
8.554137029727773
  0
LWPOLYLINE
  5
4B
330
17
100
AcDbEntity
  8
0
100
AcDbPolyline
 90
4
 70
1
 10
8.478553773179817
 20
2.7820304190799487
 10
9.442219377208069
 20
2.7820304190799487
 10
9.442219377208069
 20
2.661572276095191
 10
8.478553773179817
 20
2.661572276095191
  0
LWPOLYLINE
  5
4C
330
17
100
AcDbEntity
  8
0
100
AcDbPolyline
 90
4
 70
1
 10
1.1438254086879724
 20
-8.17708390683968
 10
1.6256592165277841
 20
-8.17708390683968
 10
1.6256592165277841
 20
-8.297542096803124
 10
1.1438254086879724
 20
-8.297542096803124
  0
LWPOLYLINE
  5
4D
330
17
100
AcDbEntity
  8
0
100
AcDbPolyline
 90
4
 70
1
 10
1.1438255893752214
 20
-7.333877468486014
 10
1.6256587106034877
 20
-7.333877468486014
 10
1.6256587106034877
 20
-7.45433561147077
 10
1.1438255893752214
 20
-7.45433561147077
  0
LWPOLYLINE
  5
4E
330
17
100
AcDbEntity
  8
0
100
AcDbPolyline
 90
4
 70
1
 10
-9.302421363705943
 20
-0.9407643709727408
 10
-8.643282531439764
 20
-0.9407643709727408
 10
-8.643282531439764
 20
-1.0506208377972495
 10
-9.302421363705943
 20
-1.0506208377972495
  0
LWPOLYLINE
  5
4F
330
17
100
AcDbEntity
  8
0
100
AcDbPolyline
 90
257
 70
1
 10
4.330646215287618
 20
-0.4756611784781138
 10
4.330628075413893
 20
-0.47713927416616925
 10
4.330573666719499
 20
-0.47861647950465197
 10
4.330483021978201
 20
-0.48009190468030166
 10
4.330356195790999
 20
-0.4815646609521632
 10
4.330193264553247
 20
-0.4830338611869275
 10
4.329994326408631
 20
-0.48449862039331054
 10
4.32975950119005
 20
-0.48595805625513694
 10
4.329488930347434
 20
-0.4874112896628156
 10
4.329182776862543
 20
-0.4888574452428813
 10
4.328841225150787
 20
-0.4902956518852885
 10
4.328464480950147
 20
-0.49172504326813316
 10
4.328052771197241
 20
-0.4931447583794952
 10
4.32760634389063
 20
-0.49455394203607744
 10
4.32712546794143
 20
-0.4959517453983386
 10
4.326610433011333
 20
-0.4973373264817999
 10
4.32606154933812
 20
-0.4987098506642272
 10
4.325479147548794
 20
-0.5000684911883753
 10
4.324863578460415
 20
-0.5014124296599947
 10
4.324215212868784
 20
-0.5027408565408034
 10
4.323534441325088
 20
-0.5040529716361216
 10
4.322821673900652
 20
-0.5053479845768789
 10
4.322077339939918
 20
-0.5066251152957035
 10
4.321301887801833
 20
-0.5078835944968053
 10
4.320495784589768
 20
-0.5091226641193712
 10
4.319659515870156
 20
-0.5103415777941922
 10
4.318793585380004
 20
-0.5115396012932492
 10
4.31789851472346
 20
-0.5127160129719829
 10
4.3169748430576185
 20
-0.5138701042039867
 10
4.316023126767753
 20
-0.5150011798078574
 10
4.315043939132169
 20
-0.5161085584659442
 10
4.314037869976884
 20
-0.5171915731347512
 10
4.313005525320339
 20
-0.5182495714467388
 10
4.311947527008351
 20
-0.5192819161032846
 10
4.310864512339544
 20
-0.5202879852585692
 10
4.309757133681457
 20
-0.5212671728941534
 10
4.308626058077587
 20
-0.522218889184019
 10
4.307471966845583
 20
-0.5231425608498607
 10
4.306295555166849
 20
-0.5240376315064046
 10
4.3050975316677915
 20
-0.5249035619965566
 10
4.303878617992971
 20
-0.525739830716168
 10
4.302639548370405
 20
-0.526545933928233
 10
4.301381069169303
 20
-0.5273213860663182
 10
4.300103938450478
 20
-0.528065720027052
 10
4.2988089255097215
 20
-0.5287784874514884
 10
4.297496810414403
 20
-0.5294592589951839
 10
4.296168383533594
 20
-0.5301076245868153
 10
4.294824445061975
 20
-0.5307231936751946
 10
4.293465804537827
 20
-0.5313055954645206
 10
4.2920932803554
 20
-0.5318544791377329
 10
4.290707699271938
 20
-0.5323695140678304
 10
4.289309895909677
 20
-0.5328503900170302
 10
4.287900712253095
 20
-0.5332968173236412
 10
4.286480997141733
 20
-0.533708527076547
 10
4.285051605758888
 20
-0.5340852712771872
 10
4.283613399116481
 20
-0.5344268229889431
 10
4.282167243536415
 20
-0.5347329764738341
 10
4.280714010128737
 20
-0.5350035473164496
 10
4.27925457426691
 20
-0.5352383725350309
 10
4.277789815060527
 20
-0.5354373106796473
 10
4.276320614825763
 20
-0.5356002419173991
 10
4.274847858553901
 20
-0.5357270681046006
 10
4.273372433378252
 20
-0.5358177128458995
 10
4.271895228039769
 20
-0.5358721215402931
 10
4.270417132351714
 20
-0.5358902614140182
 10
4.2689390366636575
 20
-0.5358721215402931
 10
4.267461831325175
 20
-0.5358177128458995
 10
4.265986406149525
 20
-0.5357270681046006
 10
4.264513649877665
 20
-0.5356002419173991
 10
4.2630444496429
 20
-0.5354373106796473
 10
4.261579690436516
 20
-0.5352383725350309
 10
4.26012025457469
 20
-0.5350035473164496
 10
4.258667021167011
 20
-0.5347329764738341
 10
4.2572208655869455
 20
-0.5344268229889431
 10
4.255782658944539
 20
-0.5340852712771872
 10
4.254353267561694
 20
-0.533708527076547
 10
4.252933552450332
 20
-0.5332968173236412
 10
4.251524368793749
 20
-0.5328503900170302
 10
4.250126565431488
 20
-0.5323695140678304
 10
4.248740984348027
 20
-0.5318544791377329
 10
4.2473684601656
 20
-0.5313055954645206
 10
4.2460098196414515
 20
-0.5307231936751946
 10
4.244665881169833
 20
-0.5301076245868153
 10
4.2433374542890245
 20
-0.5294592589951839
 10
4.242025339193705
 20
-0.5287784874514884
 10
4.240730326252948
 20
-0.528065720027052
 10
4.239453195534123
 20
-0.5273213860663182
 10
4.238194716333021
 20
-0.526545933928233
 10
4.236955646710456
 20
-0.525739830716168
 10
4.235736733035635
 20
-0.5249035619965566
 10
4.234538709536578
 20
-0.5240376315064046
 10
4.233362297857845
 20
-0.5231425608498607
 10
4.23220820662584
 20
-0.522218889184019
 10
4.23107713102197
 20
-0.5212671728941534
 10
4.229969752363883
 20
-0.5202879852585692
 10
4.228886737695076
 20
-0.5192819161032846
 10
4.227828739383089
 20
-0.5182495714467388
 10
4.226796394726542
 20
-0.5171915731347512
 10
4.225790325571258
 20
-0.5161085584659442
 10
4.224811137935673
 20
-0.5150011798078574
 10
4.223859421645808
 20
-0.5138701042039867
 10
4.222935749979967
 20
-0.5127160129719829
 10
4.222040679323422
 20
-0.5115396012932492
 10
4.2211747488332705
 20
-0.5103415777941922
 10
4.220338480113659
 20
-0.5091226641193712
 10
4.219532376901594
 20
-0.5078835944968053
 10
4.218756924763508
 20
-0.5066251152957035
 10
4.2180125908027755
 20
-0.5053479845768789
 10
4.2172998233783385
 20
-0.5040529716361216
 10
4.216619051834643
 20
-0.5027408565408034
 10
4.215970686243011
 20
-0.5014124296599947
 10
4.215355117154632
 20
-0.5000684911883753
 10
4.2147727153653065
 20
-0.4987098506642272
 10
4.214223831692094
 20
-0.4973373264817999
 10
4.213708796761996
 20
-0.4959517453983386
 10
4.2132279208127965
 20
-0.49455394203607744
 10
4.212781493506186
 20
-0.4931447583794952
 10
4.212369783753281
 20
-0.49172504326813316
 10
4.21199303955264
 20
-0.4902956518852885
 10
4.211651487840884
 20
-0.4888574452428813
 10
4.211345334355992
 20
-0.4874112896628156
 10
4.211074763513378
 20
-0.48595805625513694
 10
4.210839938294796
 20
-0.48449862039331054
 10
4.210641000150179
 20
-0.4830338611869275
 10
4.210478068912428
 20
-0.4815646609521632
 10
4.210351242725226
 20
-0.48009190468030166
 10
4.210260597983927
 20
-0.47861647950465197
 10
4.210206189289534
 20
-0.47713927416616925
 10
4.210188049415809
 20
-0.4756611784781138
 10
4.210206189289534
 20
-0.47418308279005833
 10
4.210260597983927
 20
-0.47270587745157594
 10
4.210351242725226
 20
-0.47123045227592586
 10
4.210478068912428
 20
-0.46975769600406436
 10
4.210641000150179
 20
-0.4682884957693001
 10
4.210839938294796
 20
-0.46682373656291704
 10
4.211074763513378
 20
-0.46536430070109064
 10
4.211345334355992
 20
-0.4639110672934119
 10
4.211651487840884
 20
-0.4624649117133462
 10
4.21199303955264
 20
-0.46102670507093907
 10
4.212369783753281
 20
-0.4595973136880944
 10
4.212781493506186
 20
-0.45817759857673235
 10
4.2132279208127965
 20
-0.4567684149201501
 10
4.213708796761996
 20
-0.45537061155788894
 10
4.214223831692094
 20
-0.4539850304744276
 10
4.2147727153653065
 20
-0.45261250629200034
 10
4.215355117154632
 20
-0.45125386576785226
 10
4.215970686243011
 20
-0.4499099272962329
 10
4.216619051834643
 20
-0.44858150041542416
 10
4.2172998233783385
 20
-0.4472693853201059
 10
4.2180125908027755
 20
-0.44597437237934867
 10
4.218756924763508
 20
-0.44469724166052405
 10
4.219532376901594
 20
-0.4434387624594222
 10
4.220338480113659
 20
-0.44219969283685634
 10
4.2211747488332705
 20
-0.4409807791620353
 10
4.222040679323422
 20
-0.4397827556629784
 10
4.222935749979967
 20
-0.43860634398424464
 10
4.223859421645808
 20
-0.4374522527522408
 10
4.224811137935673
 20
-0.4363211771483701
 10
4.225790325571258
 20
-0.4352137984902834
 10
4.226796394726542
 20
-0.43413078382147635
 10
4.227828739383088
 20
-0.43307278550948874
 10
4.228886737695076
 20
-0.43204044085294296
 10
4.229969752363883
 20
-0.43103437169765835
 10
4.23107713102197
 20
-0.4300551840620742
 10
4.23220820662584
 20
-0.4291034677722085
 10
4.233362297857845
 20
-0.42817979610636686
 10
4.2345387095365785
 20
-0.427284725449823
 10
4.235736733035635
 20
-0.42641879495967094
 10
4.236955646710456
 20
-0.4255825262400595
 10
4.238194716333021
 20
-0.42477642302799457
 10
4.239453195534123
 20
-0.4240009708899094
 10
4.240730326252948
 20
-0.42325663692917553
 10
4.242025339193705
 20
-0.4225438695047391
 10
4.2433374542890245
 20
-0.4218630979610437
 10
4.244665881169833
 20
-0.4212147323694123
 10
4.2460098196414515
 20
-0.4205991632810329
 10
4.2473684601656
 20
-0.42001676149170697
 10
4.248740984348027
 20
-0.4194678778184947
 10
4.250126565431488
 20
-0.4189528428883971
 10
4.251524368793749
 20
-0.4184719669391974
 10
4.252933552450332
 20
-0.4180255396325864
 10
4.254353267561694
 20
-0.4176138298796805
 10
4.255782658944539
 20
-0.41723708567904033
 10
4.2572208655869455
 20
-0.41689553396728446
 10
4.258667021167011
 20
-0.41658938048239347
 10
4.26012025457469
 20
-0.4163188096397779
 10
4.261579690436516
 20
-0.4160839844211966
 10
4.2630444496429
 20
-0.41588504627658024
 10
4.264513649877665
 20
-0.4157221150388285
 10
4.265986406149525
 20
-0.41559528885162694
 10
4.267461831325175
 20
-0.41550464411032806
 10
4.2689390366636575
 20
-0.41545023541593445
 10
4.270417132351714
 20
-0.41543209554220933
 10
4.271895228039769
 20
-0.41545023541593445
 10
4.273372433378252
 20
-0.41550464411032806
 10
4.274847858553901
 20
-0.41559528885162694
 10
4.276320614825763
 20
-0.4157221150388285
 10
4.277789815060527
 20
-0.41588504627658024
 10
4.27925457426691
 20
-0.4160839844211966
 10
4.280714010128737
 20
-0.4163188096397779
 10
4.282167243536415
 20
-0.41658938048239347
 10
4.283613399116481
 20
-0.41689553396728446
 10
4.285051605758888
 20
-0.41723708567904033
 10
4.286480997141733
 20
-0.4176138298796805
 10
4.287900712253095
 20
-0.4180255396325864
 10
4.289309895909677
 20
-0.4184719669391974
 10
4.290707699271938
 20
-0.4189528428883971
 10
4.2920932803554
 20
-0.4194678778184947
 10
4.293465804537827
 20
-0.42001676149170697
 10
4.294824445061975
 20
-0.4205991632810329
 10
4.296168383533594
 20
-0.4212147323694123
 10
4.297496810414403
 20
-0.4218630979610437
 10
4.2988089255097215
 20
-0.4225438695047391
 10
4.300103938450478
 20
-0.42325663692917553
 10
4.301381069169303
 20
-0.4240009708899094
 10
4.302639548370405
 20
-0.42477642302799457
 10
4.303878617992971
 20
-0.4255825262400595
 10
4.3050975316677915
 20
-0.42641879495967094
 10
4.306295555166849
 20
-0.427284725449823
 10
4.307471966845583
 20
-0.42817979610636686
 10
4.308626058077587
 20
-0.4291034677722085
 10
4.309757133681457
 20
-0.4300551840620742
 10
4.310864512339544
 20
-0.43103437169765835
 10
4.311947527008351
 20
-0.43204044085294296
 10
4.313005525320339
 20
-0.43307278550948874
 10
4.314037869976884
 20
-0.43413078382147635
 10
4.315043939132169
 20
-0.4352137984902834
 10
4.316023126767753
 20
-0.4363211771483701
 10
4.3169748430576185
 20
-0.4374522527522408
 10
4.31789851472346
 20
-0.43860634398424464
 10
4.318793585380004
 20
-0.4397827556629784
 10
4.319659515870156
 20
-0.4409807791620353
 10
4.320495784589768
 20
-0.44219969283685634
 10
4.321301887801833
 20
-0.4434387624594222
 10
4.322077339939918
 20
-0.44469724166052405
 10
4.322821673900652
 20
-0.44597437237934867
 10
4.323534441325088
 20
-0.4472693853201059
 10
4.324215212868784
 20
-0.44858150041542416
 10
4.324863578460415
 20
-0.4499099272962329
 10
4.325479147548794
 20
-0.45125386576785226
 10
4.32606154933812
 20
-0.45261250629200034
 10
4.326610433011333
 20
-0.4539850304744276
 10
4.32712546794143
 20
-0.45537061155788894
 10
4.32760634389063
 20
-0.4567684149201501
 10
4.328052771197241
 20
-0.45817759857673235
 10
4.328464480950147
 20
-0.4595973136880944
 10
4.328841225150787
 20
-0.46102670507093907
 10
4.329182776862543
 20
-0.4624649117133462
 10
4.329488930347434
 20
-0.4639110672934119
 10
4.32975950119005
 20
-0.46536430070109064
 10
4.329994326408631
 20
-0.46682373656291704
 10
4.330193264553247
 20
-0.4682884957693001
 10
4.330356195790999
 20
-0.46975769600406436
 10
4.330483021978201
 20
-0.47123045227592586
 10
4.330573666719499
 20
-0.4727058774515756
 10
4.330628075413893
 20
-0.47418308279005833
 10
4.330646215287618
 20
-0.4756611784781138
  0
LWPOLYLINE
  5
50
330
17
100
AcDbEntity
  8
0
100
AcDbPolyline
 90
257
 70
1
 10
8.66714018667274
 20
-2.1018464177475344
 10
8.667120515373236
 20
-2.1034009554095356
 10
8.667061816835586
 20
-2.1049457943934144
 10
8.66696456410108
 20
-2.1064804616578785
 10
8.666829230211011
 20
-2.1080044841616377
 10
8.666656288206665
 20
-2.1095173888634022
 10
8.666446211129335
 20
-2.11101870272188
 10
8.666199472020315
 20
-2.112507952695781
 10
8.665916543920892
 20
-2.1139846657438146
 10
8.665597899872356
 20
-2.1154483688246892
 10
8.665244012916
 20
-2.1168985888971155
 10
8.664855356093113
 20
-2.1183348529198027
 10
8.664432402444987
 20
-2.1197566878514587
 10
8.663975625012913
 20
-2.121163620650795
 10
8.663485496838181
 20
-2.1225551782765177
 10
8.662962490962082
 20
-2.1239308876873393
 10
8.662407080425904
 20
-2.125290275841967
 10
8.66181973827094
 20
-2.1266328696991117
 10
8.661200937538483
 20
-2.127958196217482
 10
8.660551151269821
 20
-2.129265782355786
 10
8.659870852506245
 20
-2.1305551550727353
 10
8.659160514289043
 20
-2.131825841327038
 10
8.658420609659512
 20
-2.1330773680774024
 10
8.657651611658938
 20
-2.1343092622825393
 10
8.656853993328612
 20
-2.1355210509011577
 10
8.656028227709825
 20
-2.1367122608919673
 10
8.65517478784387
 20
-2.1378824192136765
 10
8.654294146772036
 20
-2.1390310528249947
 10
8.653386777535614
 20
-2.140157688684632
 10
8.652453153175891
 20
-2.141261853751297
 10
8.651493746734166
 20
-2.1423430749836982
 10
8.65050903125172
 20
-2.1434008793405472
 10
8.649499479769853
 20
-2.144434793780552
 10
8.648465565329847
 20
-2.145444345262421
 10
8.647407760973
 20
-2.146429060744865
 10
8.646326539740597
 20
-2.1473884671865924
 10
8.645222374673933
 20
-2.1483220915463126
 10
8.644095738814295
 20
-2.149229460782736
 10
8.642947105202976
 20
-2.1501101018545703
 10
8.641776946881269
 20
-2.150963541720526
 10
8.640585736890458
 20
-2.1517893073393117
 10
8.63937394827184
 20
-2.1525869256696364
 10
8.638142054066705
 20
-2.153355923670211
 10
8.63689052731634
 20
-2.1540958282997433
 10
8.635619841062038
 20
-2.154806166516943
 10
8.634330468345087
 20
-2.1554864652805197
 10
8.633022882206783
 20
-2.156136251549182
 10
8.631697555688412
 20
-2.1567550522816403
 10
8.63035496183127
 20
-2.1573423944366033
 10
8.62899557367664
 20
-2.1578978049727797
 10
8.627619864265819
 20
-2.1584208108488796
 10
8.626228306640096
 20
-2.1589109390236128
 10
8.62482137384076
 20
-2.159367716455687
 10
8.623399538909103
 20
-2.159790670103813
 10
8.621963274886417
 20
-2.1601793269267
 10
8.62051305481399
 20
-2.1605332138830553
 10
8.619049351733114
 20
-2.160851857931591
 10
8.617572638685083
 20
-2.1611347860310146
 10
8.61608338871118
 20
-2.161381525140036
 10
8.614582074852702
 20
-2.1615916022173645
 10
8.61306917015094
 20
-2.1617645442217097
 10
8.61154514764718
 20
-2.16189987811178
 10
8.610010480382714
 20
-2.1619971308462858
 10
8.608465641398837
 20
-2.1620558293839354
 10
8.606911103736834
 20
-2.162075500683439
 10
8.605356566074834
 20
-2.1620558293839354
 10
8.603811727090955
 20
-2.1619971308462858
 10
8.602277059826491
 20
-2.16189987811178
 10
8.60075303732273
 20
-2.1617645442217097
 10
8.599240132620967
 20
-2.1615916022173645
 10
8.59773881876249
 20
-2.161381525140036
 10
8.596249568788588
 20
-2.1611347860310146
 10
8.594772855740555
 20
-2.160851857931591
 10
8.59330915265968
 20
-2.1605332138830553
 10
8.591858932587254
 20
-2.1601793269267
 10
8.590422668564567
 20
-2.159790670103813
 10
8.58900083363291
 20
-2.159367716455687
 10
8.587593900833575
 20
-2.1589109390236128
 10
8.58620234320785
 20
-2.1584208108488796
 10
8.58482663379703
 20
-2.1578978049727797
 10
8.583467245642401
 20
-2.1573423944366033
 10
8.582124651785259
 20
-2.1567550522816403
 10
8.580799325266888
 20
-2.156136251549182
 10
8.579491739128583
 20
-2.1554864652805197
 10
8.578202366411633
 20
-2.154806166516943
 10
8.57693168015733
 20
-2.1540958282997433
 10
8.575680153406966
 20
-2.153355923670211
 10
8.574448259201828
 20
-2.1525869256696364
 10
8.573236470583211
 20
-2.1517893073393117
 10
8.572045260592402
 20
-2.150963541720526
 10
8.570875102270692
 20
-2.1501101018545703
 10
8.569726468659375
 20
-2.149229460782736
 10
8.568599832799737
 20
-2.1483220915463126
 10
8.567495667733073
 20
-2.1473884671865924
 10
8.566414446500671
 20
-2.146429060744865
 10
8.565356642143822
 20
-2.145444345262421
 10
8.564322727703818
 20
-2.144434793780552
 10
8.563313176221948
 20
-2.1434008793405472
 10
8.562328460739504
 20
-2.1423430749836982
 10
8.561369054297778
 20
-2.141261853751297
 10
8.560435429938057
 20
-2.140157688684632
 10
8.559528060701634
 20
-2.1390310528249947
 10
8.5586474196298
 20
-2.1378824192136765
 10
8.557793979763845
 20
-2.1367122608919673
 10
8.556968214145058
 20
-2.1355210509011577
 10
8.556170595814732
 20
-2.1343092622825393
 10
8.555401597814159
 20
-2.1330773680774024
 10
8.554661693184626
 20
-2.131825841327038
 10
8.553951354967426
 20
-2.1305551550727353
 10
8.553271056203847
 20
-2.129265782355786
 10
8.552621269935187
 20
-2.127958196217482
 10
8.55200246920273
 20
-2.1266328696991117
 10
8.551415127047767
 20
-2.125290275841967
 10
8.550859716511589
 20
-2.1239308876873393
 10
8.55033671063549
 20
-2.1225551782765177
 10
8.549846582460756
 20
-2.121163620650795
 10
8.549389805028683
 20
-2.1197566878514587
 10
8.548966851380557
 20
-2.1183348529198027
 10
8.54857819455767
 20
-2.1168985888971155
 10
8.548224307601313
 20
-2.1154483688246892
 10
8.547905663552779
 20
-2.1139846657438146
 10
8.547622735453356
 20
-2.112507952695781
 10
8.547375996344334
 20
-2.11101870272188
 10
8.547165919267004
 20
-2.1095173888634022
 10
8.54699297726266
 20
-2.1080044841616377
 10
8.54685764337259
 20
-2.1064804616578785
 10
8.546760390638084
 20
-2.1049457943934144
 10
8.546701692100434
 20
-2.1034009554095356
 10
8.546682020800931
 20
-2.1018464177475344
 10
8.546701692100434
 20
-2.1002918800855332
 10
8.546760390638084
 20
-2.0987470411016544
 10
8.54685764337259
 20
-2.0972123738371904
 10
8.54699297726266
 20
-2.095688351333431
 10
8.547165919267004
 20
-2.094175446631666
 10
8.547375996344334
 20
-2.092674132773189
 10
8.547622735453356
 20
-2.0911848827992876
 10
8.547905663552779
 20
-2.0897081697512543
 10
8.548224307601313
 20
-2.0882444666703797
 10
8.54857819455767
 20
-2.086794246597953
 10
8.548966851380557
 20
-2.085357982575266
 10
8.549389805028683
 20
-2.0839361476436102
 10
8.549846582460756
 20
-2.082529214844274
 10
8.55033671063549
 20
-2.081137657218551
 10
8.550859716511589
 20
-2.0797619478077296
 10
8.551415127047767
 20
-2.0784025596531013
 10
8.55200246920273
 20
-2.0770599657959568
 10
8.552621269935187
 20
-2.075734639277587
 10
8.553271056203847
 20
-2.0744270531392828
 10
8.553951354967426
 20
-2.0731376804223336
 10
8.554661693184626
 20
-2.0718669941680306
 10
8.555401597814159
 20
-2.070615467417666
 10
8.556170595814732
 20
-2.069383573212529
 10
8.556968214145058
 20
-2.0681717845939107
 10
8.557793979763845
 20
-2.0669805746031016
 10
8.5586474196298
 20
-2.0658104162813924
 10
8.559528060701634
 20
-2.064661782670074
 10
8.560435429938057
 20
-2.063535146810437
 10
8.561369054297778
 20
-2.062430981743772
 10
8.562328460739504
 20
-2.0613497605113706
 10
8.563313176221948
 20
-2.060291956154521
 10
8.564322727703818
 20
-2.0592580417145165
 10
8.565356642143822
 20
-2.058248490232648
 10
8.566414446500671
 20
-2.057263774750204
 10
8.567495667733073
 20
-2.056304368308476
 10
8.568599832799737
 20
-2.0553707439487563
 10
8.569726468659375
 20
-2.054463374712333
 10
8.570875102270692
 20
-2.0535827336404986
 10
8.572045260592402
 20
-2.0527292937745427
 10
8.573236470583211
 20
-2.051903528155757
 10
8.574448259201828
 20
-2.051105909825432
 10
8.575680153406966
 20
-2.0503369118248576
 10
8.57693168015733
 20
-2.0495970071953256
 10
8.578202366411633
 20
-2.0488866689781258
 10
8.579491739128583
 20
-2.048206370214549
 10
8.580799325266888
 20
-2.0475565839458865
 10
8.582124651785259
 20
-2.0469377832134286
 10
8.583467245642401
 20
-2.0463504410584656
 10
8.58482663379703
 20
-2.0457950305222887
 10
8.58620234320785
 20
-2.045272024646189
 10
8.587593900833575
 20
-2.0447818964714557
 10
8.58900083363291
 20
-2.044325119039382
 10
8.590422668564567
 20
-2.043902165391256
 10
8.591858932587254
 20
-2.043513508568369
 10
8.59330915265968
 20
-2.0431596216120136
 10
8.594772855740555
 20
-2.0428409775634777
 10
8.596249568788588
 20
-2.0425580494640543
 10
8.59773881876249
 20
-2.042311310355033
 10
8.599240132620967
 20
-2.0421012332777044
 10
8.60075303732273
 20
-2.0419282912733587
 10
8.602277059826491
 20
-2.0417929573832887
 10
8.603811727090955
 20
-2.041695704648783
 10
8.605356566074834
 20
-2.041637006111133
 10
8.606911103736834
 20
-2.04161733481163
 10
8.608465641398837
 20
-2.041637006111133
 10
8.610010480382714
 20
-2.041695704648783
 10
8.61154514764718
 20
-2.0417929573832887
 10
8.61306917015094
 20
-2.0419282912733587
 10
8.614582074852702
 20
-2.0421012332777044
 10
8.61608338871118
 20
-2.042311310355033
 10
8.617572638685083
 20
-2.0425580494640543
 10
8.619049351733114
 20
-2.0428409775634777
 10
8.62051305481399
 20
-2.0431596216120136
 10
8.621963274886417
 20
-2.043513508568369
 10
8.623399538909103
 20
-2.043902165391256
 10
8.62482137384076
 20
-2.044325119039382
 10
8.626228306640096
 20
-2.0447818964714557
 10
8.627619864265819
 20
-2.045272024646189
 10
8.62899557367664
 20
-2.0457950305222887
 10
8.63035496183127
 20
-2.0463504410584656
 10
8.631697555688412
 20
-2.0469377832134286
 10
8.633022882206783
 20
-2.0475565839458865
 10
8.634330468345087
 20
-2.048206370214549
 10
8.635619841062038
 20
-2.0488866689781258
 10
8.63689052731634
 20
-2.0495970071953256
 10
8.638142054066705
 20
-2.0503369118248576
 10
8.63937394827184
 20
-2.051105909825432
 10
8.640585736890458
 20
-2.051903528155757
 10
8.641776946881269
 20
-2.0527292937745427
 10
8.642947105202976
 20
-2.0535827336404986
 10
8.644095738814295
 20
-2.054463374712333
 10
8.645222374673933
 20
-2.0553707439487563
 10
8.646326539740597
 20
-2.056304368308476
 10
8.647407760973
 20
-2.057263774750204
 10
8.648465565329847
 20
-2.058248490232648
 10
8.649499479769853
 20
-2.0592580417145165
 10
8.65050903125172
 20
-2.060291956154521
 10
8.651493746734166
 20
-2.0613497605113706
 10
8.652453153175891
 20
-2.062430981743772
 10
8.653386777535614
 20
-2.063535146810437
 10
8.654294146772036
 20
-2.064661782670074
 10
8.65517478784387
 20
-2.0658104162813924
 10
8.656028227709825
 20
-2.0669805746031016
 10
8.656853993328612
 20
-2.0681717845939107
 10
8.657651611658938
 20
-2.069383573212529
 10
8.658420609659512
 20
-2.070615467417666
 10
8.659160514289043
 20
-2.0718669941680306
 10
8.659870852506245
 20
-2.0731376804223336
 10
8.660551151269821
 20
-2.0744270531392828
 10
8.661200937538483
 20
-2.075734639277587
 10
8.66181973827094
 20
-2.0770599657959568
 10
8.662407080425904
 20
-2.0784025596531013
 10
8.662962490962082
 20
-2.0797619478077296
 10
8.663485496838181
 20
-2.081137657218551
 10
8.663975625012913
 20
-2.082529214844274
 10
8.664432402444987
 20
-2.0839361476436102
 10
8.664855356093113
 20
-2.085357982575266
 10
8.665244012916
 20
-2.086794246597953
 10
8.665597899872356
 20
-2.0882444666703797
 10
8.665916543920892
 20
-2.0897081697512543
 10
8.666199472020315
 20
-2.0911848827992876
 10
8.666446211129335
 20
-2.092674132773189
 10
8.666656288206665
 20
-2.094175446631666
 10
8.666829230211011
 20
-2.095688351333431
 10
8.66696456410108
 20
-2.0972123738371904
 10
8.667061816835586
 20
-2.0987470411016544
 10
8.667120515373236
 20
-2.1002918800855332
 10
8.66714018667274
 20
-2.1018464177475344
  0
LWPOLYLINE
  5
51
330
17
100
AcDbEntity
  8
0
100
AcDbPolyline
 90
257
 70
1
 10
4.330646215287618
 20
-0.4756611784781138
 10
4.330628075413893
 20
-0.47713927416616925
 10
4.330573666719499
 20
-0.47861647950465197
 10
4.330483021978201
 20
-0.48009190468030166
 10
4.330356195790999
 20
-0.4815646609521632
 10
4.330193264553247
 20
-0.4830338611869275
 10
4.329994326408631
 20
-0.48449862039331054
 10
4.32975950119005
 20
-0.48595805625513694
 10
4.329488930347434
 20
-0.4874112896628156
 10
4.329182776862543
 20
-0.4888574452428813
 10
4.328841225150787
 20
-0.4902956518852885
 10
4.328464480950147
 20
-0.49172504326813316
 10
4.328052771197241
 20
-0.4931447583794952
 10
4.32760634389063
 20
-0.49455394203607744
 10
4.32712546794143
 20
-0.4959517453983386
 10
4.326610433011333
 20
-0.4973373264817999
 10
4.32606154933812
 20
-0.4987098506642272
 10
4.325479147548794
 20
-0.5000684911883753
 10
4.324863578460415
 20
-0.5014124296599947
 10
4.324215212868784
 20
-0.5027408565408034
 10
4.323534441325088
 20
-0.5040529716361216
 10
4.322821673900652
 20
-0.5053479845768789
 10
4.322077339939918
 20
-0.5066251152957035
 10
4.321301887801833
 20
-0.5078835944968053
 10
4.320495784589768
 20
-0.5091226641193712
 10
4.319659515870156
 20
-0.5103415777941922
 10
4.318793585380004
 20
-0.5115396012932492
 10
4.31789851472346
 20
-0.5127160129719829
 10
4.3169748430576185
 20
-0.5138701042039867
 10
4.316023126767753
 20
-0.5150011798078574
 10
4.315043939132169
 20
-0.5161085584659442
 10
4.314037869976884
 20
-0.5171915731347512
 10
4.313005525320339
 20
-0.5182495714467388
 10
4.311947527008351
 20
-0.5192819161032846
 10
4.310864512339544
 20
-0.5202879852585692
 10
4.309757133681457
 20
-0.5212671728941534
 10
4.308626058077587
 20
-0.522218889184019
 10
4.307471966845583
 20
-0.5231425608498607
 10
4.306295555166849
 20
-0.5240376315064046
 10
4.3050975316677915
 20
-0.5249035619965566
 10
4.303878617992971
 20
-0.525739830716168
 10
4.302639548370405
 20
-0.526545933928233
 10
4.301381069169303
 20
-0.5273213860663182
 10
4.300103938450478
 20
-0.528065720027052
 10
4.2988089255097215
 20
-0.5287784874514884
 10
4.297496810414403
 20
-0.5294592589951839
 10
4.296168383533594
 20
-0.5301076245868153
 10
4.294824445061975
 20
-0.5307231936751946
 10
4.293465804537827
 20
-0.5313055954645206
 10
4.2920932803554
 20
-0.5318544791377329
 10
4.290707699271938
 20
-0.5323695140678304
 10
4.289309895909677
 20
-0.5328503900170302
 10
4.287900712253095
 20
-0.5332968173236412
 10
4.286480997141733
 20
-0.533708527076547
 10
4.285051605758888
 20
-0.5340852712771872
 10
4.283613399116481
 20
-0.5344268229889431
 10
4.282167243536415
 20
-0.5347329764738341
 10
4.280714010128737
 20
-0.5350035473164496
 10
4.27925457426691
 20
-0.5352383725350309
 10
4.277789815060527
 20
-0.5354373106796473
 10
4.276320614825763
 20
-0.5356002419173991
 10
4.274847858553901
 20
-0.5357270681046006
 10
4.273372433378252
 20
-0.5358177128458995
 10
4.271895228039769
 20
-0.5358721215402931
 10
4.270417132351714
 20
-0.5358902614140182
 10
4.2689390366636575
 20
-0.5358721215402931
 10
4.267461831325175
 20
-0.5358177128458995
 10
4.265986406149525
 20
-0.5357270681046006
 10
4.264513649877665
 20
-0.5356002419173991
 10
4.2630444496429
 20
-0.5354373106796473
 10
4.261579690436516
 20
-0.5352383725350309
 10
4.26012025457469
 20
-0.5350035473164496
 10
4.258667021167011
 20
-0.5347329764738341
 10
4.2572208655869455
 20
-0.5344268229889431
 10
4.255782658944539
 20
-0.5340852712771872
 10
4.254353267561694
 20
-0.533708527076547
 10
4.252933552450332
 20
-0.5332968173236412
 10
4.251524368793749
 20
-0.5328503900170302
 10
4.250126565431488
 20
-0.5323695140678304
 10
4.248740984348027
 20
-0.5318544791377329
 10
4.2473684601656
 20
-0.5313055954645206
 10
4.2460098196414515
 20
-0.5307231936751946
 10
4.244665881169833
 20
-0.5301076245868153
 10
4.2433374542890245
 20
-0.5294592589951839
 10
4.242025339193705
 20
-0.5287784874514884
 10
4.240730326252948
 20
-0.528065720027052
 10
4.239453195534123
 20
-0.5273213860663182
 10
4.238194716333021
 20
-0.526545933928233
 10
4.236955646710456
 20
-0.525739830716168
 10
4.235736733035635
 20
-0.5249035619965566
 10
4.234538709536578
 20
-0.5240376315064046
 10
4.233362297857845
 20
-0.5231425608498607
 10
4.23220820662584
 20
-0.522218889184019
 10
4.23107713102197
 20
-0.5212671728941534
 10
4.229969752363883
 20
-0.5202879852585692
 10
4.228886737695076
 20
-0.5192819161032846
 10
4.227828739383089
 20
-0.5182495714467388
 10
4.226796394726542
 20
-0.5171915731347512
 10
4.225790325571258
 20
-0.5161085584659442
 10
4.224811137935673
 20
-0.5150011798078574
 10
4.223859421645808
 20
-0.5138701042039867
 10
4.222935749979967
 20
-0.5127160129719829
 10
4.222040679323422
 20
-0.5115396012932492
 10
4.2211747488332705
 20
-0.5103415777941922
 10
4.220338480113659
 20
-0.5091226641193712
 10
4.219532376901594
 20
-0.5078835944968053
 10
4.218756924763508
 20
-0.5066251152957035
 10
4.2180125908027755
 20
-0.5053479845768789
 10
4.2172998233783385
 20
-0.5040529716361216
 10
4.216619051834643
 20
-0.5027408565408034
 10
4.215970686243011
 20
-0.5014124296599947
 10
4.215355117154632
 20
-0.5000684911883753
 10
4.2147727153653065
 20
-0.4987098506642272
 10
4.214223831692094
 20
-0.4973373264817999
 10
4.213708796761996
 20
-0.4959517453983386
 10
4.2132279208127965
 20
-0.49455394203607744
 10
4.212781493506186
 20
-0.4931447583794952
 10
4.212369783753281
 20
-0.49172504326813316
 10
4.21199303955264
 20
-0.4902956518852885
 10
4.211651487840884
 20
-0.4888574452428813
 10
4.211345334355992
 20
-0.4874112896628156
 10
4.211074763513378
 20
-0.48595805625513694
 10
4.210839938294796
 20
-0.48449862039331054
 10
4.210641000150179
 20
-0.4830338611869275
 10
4.210478068912428
 20
-0.4815646609521632
 10
4.210351242725226
 20
-0.48009190468030166
 10
4.210260597983927
 20
-0.47861647950465197
 10
4.210206189289534
 20
-0.47713927416616925
 10
4.210188049415809
 20
-0.4756611784781138
 10
4.210206189289534
 20
-0.47418308279005833
 10
4.210260597983927
 20
-0.47270587745157594
 10
4.210351242725226
 20
-0.47123045227592586
 10
4.210478068912428
 20
-0.46975769600406436
 10
4.210641000150179
 20
-0.4682884957693001
 10
4.210839938294796
 20
-0.46682373656291704
 10
4.211074763513378
 20
-0.46536430070109064
 10
4.211345334355992
 20
-0.4639110672934119
 10
4.211651487840884
 20
-0.4624649117133462
 10
4.21199303955264
 20
-0.46102670507093907
 10
4.212369783753281
 20
-0.4595973136880944
 10
4.212781493506186
 20
-0.45817759857673235
 10
4.2132279208127965
 20
-0.4567684149201501
 10
4.213708796761996
 20
-0.45537061155788894
 10
4.214223831692094
 20
-0.4539850304744276
 10
4.2147727153653065
 20
-0.45261250629200034
 10
4.215355117154632
 20
-0.45125386576785226
 10
4.215970686243011
 20
-0.4499099272962329
 10
4.216619051834643
 20
-0.44858150041542416
 10
4.2172998233783385
 20
-0.4472693853201059
 10
4.2180125908027755
 20
-0.44597437237934867
 10
4.218756924763508
 20
-0.44469724166052405
 10
4.219532376901594
 20
-0.4434387624594222
 10
4.220338480113659
 20
-0.44219969283685634
 10
4.2211747488332705
 20
-0.4409807791620353
 10
4.222040679323422
 20
-0.4397827556629784
 10
4.222935749979967
 20
-0.43860634398424464
 10
4.223859421645808
 20
-0.4374522527522408
 10
4.224811137935673
 20
-0.4363211771483701
 10
4.225790325571258
 20
-0.4352137984902834
 10
4.226796394726542
 20
-0.43413078382147635
 10
4.227828739383088
 20
-0.43307278550948874
 10
4.228886737695076
 20
-0.43204044085294296
 10
4.229969752363883
 20
-0.43103437169765835
 10
4.23107713102197
 20
-0.4300551840620742
 10
4.23220820662584
 20
-0.4291034677722085
 10
4.233362297857845
 20
-0.42817979610636686
 10
4.2345387095365785
 20
-0.427284725449823
 10
4.235736733035635
 20
-0.42641879495967094
 10
4.236955646710456
 20
-0.4255825262400595
 10
4.238194716333021
 20
-0.42477642302799457
 10
4.239453195534123
 20
-0.4240009708899094
 10
4.240730326252948
 20
-0.42325663692917553
 10
4.242025339193705
 20
-0.4225438695047391
 10
4.2433374542890245
 20
-0.4218630979610437
 10
4.244665881169833
 20
-0.4212147323694123
 10
4.2460098196414515
 20
-0.4205991632810329
 10
4.2473684601656
 20
-0.42001676149170697
 10
4.248740984348027
 20
-0.4194678778184947
 10
4.250126565431488
 20
-0.4189528428883971
 10
4.251524368793749
 20
-0.4184719669391974
 10
4.252933552450332
 20
-0.4180255396325864
 10
4.254353267561694
 20
-0.4176138298796805
 10
4.255782658944539
 20
-0.41723708567904033
 10
4.2572208655869455
 20
-0.41689553396728446
 10
4.258667021167011
 20
-0.41658938048239347
 10
4.26012025457469
 20
-0.4163188096397779
 10
4.261579690436516
 20
-0.4160839844211966
 10
4.2630444496429
 20
-0.41588504627658024
 10
4.264513649877665
 20
-0.4157221150388285
 10
4.265986406149525
 20
-0.41559528885162694
 10
4.267461831325175
 20
-0.41550464411032806
 10
4.2689390366636575
 20
-0.41545023541593445
 10
4.270417132351714
 20
-0.41543209554220933
 10
4.271895228039769
 20
-0.41545023541593445
 10
4.273372433378252
 20
-0.41550464411032806
 10
4.274847858553901
 20
-0.41559528885162694
 10
4.276320614825763
 20
-0.4157221150388285
 10
4.277789815060527
 20
-0.41588504627658024
 10
4.27925457426691
 20
-0.4160839844211966
 10
4.280714010128737
 20
-0.4163188096397779
 10
4.282167243536415
 20
-0.41658938048239347
 10
4.283613399116481
 20
-0.41689553396728446
 10
4.285051605758888
 20
-0.41723708567904033
 10
4.286480997141733
 20
-0.4176138298796805
 10
4.287900712253095
 20
-0.4180255396325864
 10
4.289309895909677
 20
-0.4184719669391974
 10
4.290707699271938
 20
-0.4189528428883971
 10
4.2920932803554
 20
-0.4194678778184947
 10
4.293465804537827
 20
-0.42001676149170697
 10
4.294824445061975
 20
-0.4205991632810329
 10
4.296168383533594
 20
-0.4212147323694123
 10
4.297496810414403
 20
-0.4218630979610437
 10
4.2988089255097215
 20
-0.4225438695047391
 10
4.300103938450478
 20
-0.42325663692917553
 10
4.301381069169303
 20
-0.4240009708899094
 10
4.302639548370405
 20
-0.42477642302799457
 10
4.303878617992971
 20
-0.4255825262400595
 10
4.3050975316677915
 20
-0.42641879495967094
 10
4.306295555166849
 20
-0.427284725449823
 10
4.307471966845583
 20
-0.42817979610636686
 10
4.308626058077587
 20
-0.4291034677722085
 10
4.309757133681457
 20
-0.4300551840620742
 10
4.310864512339544
 20
-0.43103437169765835
 10
4.311947527008351
 20
-0.43204044085294296
 10
4.313005525320339
 20
-0.43307278550948874
 10
4.314037869976884
 20
-0.43413078382147635
 10
4.315043939132169
 20
-0.4352137984902834
 10
4.316023126767753
 20
-0.4363211771483701
 10
4.3169748430576185
 20
-0.4374522527522408
 10
4.31789851472346
 20
-0.43860634398424464
 10
4.318793585380004
 20
-0.4397827556629784
 10
4.319659515870156
 20
-0.4409807791620353
 10
4.320495784589768
 20
-0.44219969283685634
 10
4.321301887801833
 20
-0.4434387624594222
 10
4.322077339939918
 20
-0.44469724166052405
 10
4.322821673900652
 20
-0.44597437237934867
 10
4.323534441325088
 20
-0.4472693853201059
 10
4.324215212868784
 20
-0.44858150041542416
 10
4.324863578460415
 20
-0.4499099272962329
 10
4.325479147548794
 20
-0.45125386576785226
 10
4.32606154933812
 20
-0.45261250629200034
 10
4.326610433011333
 20
-0.4539850304744276
 10
4.32712546794143
 20
-0.45537061155788894
 10
4.32760634389063
 20
-0.4567684149201501
 10
4.328052771197241
 20
-0.45817759857673235
 10
4.328464480950147
 20
-0.4595973136880944
 10
4.328841225150787
 20
-0.46102670507093907
 10
4.329182776862543
 20
-0.4624649117133462
 10
4.329488930347434
 20
-0.4639110672934119
 10
4.32975950119005
 20
-0.46536430070109064
 10
4.329994326408631
 20
-0.46682373656291704
 10
4.330193264553247
 20
-0.4682884957693001
 10
4.330356195790999
 20
-0.46975769600406436
 10
4.330483021978201
 20
-0.47123045227592586
 10
4.330573666719499
 20
-0.4727058774515756
 10
4.330628075413893
 20
-0.47418308279005833
 10
4.330646215287618
 20
-0.4756611784781138
  0
LWPOLYLINE
  5
52
330
17
100
AcDbEntity
  8
0
100
AcDbPolyline
 90
257
 70
1
 10
8.66714018667274
 20
-2.1018464177475344
 10
8.667120515373236
 20
-2.1034009554095356
 10
8.667061816835586
 20
-2.1049457943934144
 10
8.66696456410108
 20
-2.1064804616578785
 10
8.666829230211011
 20
-2.1080044841616377
 10
8.666656288206665
 20
-2.1095173888634022
 10
8.666446211129335
 20
-2.11101870272188
 10
8.666199472020315
 20
-2.112507952695781
 10
8.665916543920892
 20
-2.1139846657438146
 10
8.665597899872356
 20
-2.1154483688246892
 10
8.665244012916
 20
-2.1168985888971155
 10
8.664855356093113
 20
-2.1183348529198027
 10
8.664432402444987
 20
-2.1197566878514587
 10
8.663975625012913
 20
-2.121163620650795
 10
8.663485496838181
 20
-2.1225551782765177
 10
8.662962490962082
 20
-2.1239308876873393
 10
8.662407080425904
 20
-2.125290275841967
 10
8.66181973827094
 20
-2.1266328696991117
 10
8.661200937538483
 20
-2.127958196217482
 10
8.660551151269821
 20
-2.129265782355786
 10
8.659870852506245
 20
-2.1305551550727353
 10
8.659160514289043
 20
-2.131825841327038
 10
8.658420609659512
 20
-2.1330773680774024
 10
8.657651611658938
 20
-2.1343092622825393
 10
8.656853993328612
 20
-2.1355210509011577
 10
8.656028227709825
 20
-2.1367122608919673
 10
8.65517478784387
 20
-2.1378824192136765
 10
8.654294146772036
 20
-2.1390310528249947
 10
8.653386777535614
 20
-2.140157688684632
 10
8.652453153175891
 20
-2.141261853751297
 10
8.651493746734166
 20
-2.1423430749836982
 10
8.65050903125172
 20
-2.1434008793405472
 10
8.649499479769853
 20
-2.144434793780552
 10
8.648465565329847
 20
-2.145444345262421
 10
8.647407760973
 20
-2.146429060744865
 10
8.646326539740597
 20
-2.1473884671865924
 10
8.645222374673933
 20
-2.1483220915463126
 10
8.644095738814295
 20
-2.149229460782736
 10
8.642947105202976
 20
-2.1501101018545703
 10
8.641776946881269
 20
-2.150963541720526
 10
8.640585736890458
 20
-2.1517893073393117
 10
8.63937394827184
 20
-2.1525869256696364
 10
8.638142054066705
 20
-2.153355923670211
 10
8.63689052731634
 20
-2.1540958282997433
 10
8.635619841062038
 20
-2.154806166516943
 10
8.634330468345087
 20
-2.1554864652805197
 10
8.633022882206783
 20
-2.156136251549182
 10
8.631697555688412
 20
-2.1567550522816403
 10
8.63035496183127
 20
-2.1573423944366033
 10
8.62899557367664
 20
-2.1578978049727797
 10
8.627619864265819
 20
-2.1584208108488796
 10
8.626228306640096
 20
-2.1589109390236128
 10
8.62482137384076
 20
-2.159367716455687
 10
8.623399538909103
 20
-2.159790670103813
 10
8.621963274886417
 20
-2.1601793269267
 10
8.62051305481399
 20
-2.1605332138830553
 10
8.619049351733114
 20
-2.160851857931591
 10
8.617572638685083
 20
-2.1611347860310146
 10
8.61608338871118
 20
-2.161381525140036
 10
8.614582074852702
 20
-2.1615916022173645
 10
8.61306917015094
 20
-2.1617645442217097
 10
8.61154514764718
 20
-2.16189987811178
 10
8.610010480382714
 20
-2.1619971308462858
 10
8.608465641398837
 20
-2.1620558293839354
 10
8.606911103736834
 20
-2.162075500683439
 10
8.605356566074834
 20
-2.1620558293839354
 10
8.603811727090955
 20
-2.1619971308462858
 10
8.602277059826491
 20
-2.16189987811178
 10
8.60075303732273
 20
-2.1617645442217097
 10
8.599240132620967
 20
-2.1615916022173645
 10
8.59773881876249
 20
-2.161381525140036
 10
8.596249568788588
 20
-2.1611347860310146
 10
8.594772855740555
 20
-2.160851857931591
 10
8.59330915265968
 20
-2.1605332138830553
 10
8.591858932587254
 20
-2.1601793269267
 10
8.590422668564567
 20
-2.159790670103813
 10
8.58900083363291
 20
-2.159367716455687
 10
8.587593900833575
 20
-2.1589109390236128
 10
8.58620234320785
 20
-2.1584208108488796
 10
8.58482663379703
 20
-2.1578978049727797
 10
8.583467245642401
 20
-2.1573423944366033
 10
8.582124651785259
 20
-2.1567550522816403
 10
8.580799325266888
 20
-2.156136251549182
 10
8.579491739128583
 20
-2.1554864652805197
 10
8.578202366411633
 20
-2.154806166516943
 10
8.57693168015733
 20
-2.1540958282997433
 10
8.575680153406966
 20
-2.153355923670211
 10
8.574448259201828
 20
-2.1525869256696364
 10
8.573236470583211
 20
-2.1517893073393117
 10
8.572045260592402
 20
-2.150963541720526
 10
8.570875102270692
 20
-2.1501101018545703
 10
8.569726468659375
 20
-2.149229460782736
 10
8.568599832799737
 20
-2.1483220915463126
 10
8.567495667733073
 20
-2.1473884671865924
 10
8.566414446500671
 20
-2.146429060744865
 10
8.565356642143822
 20
-2.145444345262421
 10
8.564322727703818
 20
-2.144434793780552
 10
8.563313176221948
 20
-2.1434008793405472
 10
8.562328460739504
 20
-2.1423430749836982
 10
8.561369054297778
 20
-2.141261853751297
 10
8.560435429938057
 20
-2.140157688684632
 10
8.559528060701634
 20
-2.1390310528249947
 10
8.5586474196298
 20
-2.1378824192136765
 10
8.557793979763845
 20
-2.1367122608919673
 10
8.556968214145058
 20
-2.1355210509011577
 10
8.556170595814732
 20
-2.1343092622825393
 10
8.555401597814159
 20
-2.1330773680774024
 10
8.554661693184626
 20
-2.131825841327038
 10
8.553951354967426
 20
-2.1305551550727353
 10
8.553271056203847
 20
-2.129265782355786
 10
8.552621269935187
 20
-2.127958196217482
 10
8.55200246920273
 20
-2.1266328696991117
 10
8.551415127047767
 20
-2.125290275841967
 10
8.550859716511589
 20
-2.1239308876873393
 10
8.55033671063549
 20
-2.1225551782765177
 10
8.549846582460756
 20
-2.121163620650795
 10
8.549389805028683
 20
-2.1197566878514587
 10
8.548966851380557
 20
-2.1183348529198027
 10
8.54857819455767
 20
-2.1168985888971155
 10
8.548224307601313
 20
-2.1154483688246892
 10
8.547905663552779
 20
-2.1139846657438146
 10
8.547622735453356
 20
-2.112507952695781
 10
8.547375996344334
 20
-2.11101870272188
 10
8.547165919267004
 20
-2.1095173888634022
 10
8.54699297726266
 20
-2.1080044841616377
 10
8.54685764337259
 20
-2.1064804616578785
 10
8.546760390638084
 20
-2.1049457943934144
 10
8.546701692100434
 20
-2.1034009554095356
 10
8.546682020800931
 20
-2.1018464177475344
 10
8.546701692100434
 20
-2.1002918800855332
 10
8.546760390638084
 20
-2.0987470411016544
 10
8.54685764337259
 20
-2.0972123738371904
 10
8.54699297726266
 20
-2.095688351333431
 10
8.547165919267004
 20
-2.094175446631666
 10
8.547375996344334
 20
-2.092674132773189
 10
8.547622735453356
 20
-2.0911848827992876
 10
8.547905663552779
 20
-2.0897081697512543
 10
8.548224307601313
 20
-2.0882444666703797
 10
8.54857819455767
 20
-2.086794246597953
 10
8.548966851380557
 20
-2.085357982575266
 10
8.549389805028683
 20
-2.0839361476436102
 10
8.549846582460756
 20
-2.082529214844274
 10
8.55033671063549
 20
-2.081137657218551
 10
8.550859716511589
 20
-2.0797619478077296
 10
8.551415127047767
 20
-2.0784025596531013
 10
8.55200246920273
 20
-2.0770599657959568
 10
8.552621269935187
 20
-2.075734639277587
 10
8.553271056203847
 20
-2.0744270531392828
 10
8.553951354967426
 20
-2.0731376804223336
 10
8.554661693184626
 20
-2.0718669941680306
 10
8.555401597814159
 20
-2.070615467417666
 10
8.556170595814732
 20
-2.069383573212529
 10
8.556968214145058
 20
-2.0681717845939107
 10
8.557793979763845
 20
-2.0669805746031016
 10
8.5586474196298
 20
-2.0658104162813924
 10
8.559528060701634
 20
-2.064661782670074
 10
8.560435429938057
 20
-2.063535146810437
 10
8.561369054297778
 20
-2.062430981743772
 10
8.562328460739504
 20
-2.0613497605113706
 10
8.563313176221948
 20
-2.060291956154521
 10
8.564322727703818
 20
-2.0592580417145165
 10
8.565356642143822
 20
-2.058248490232648
 10
8.566414446500671
 20
-2.057263774750204
 10
8.567495667733073
 20
-2.056304368308476
 10
8.568599832799737
 20
-2.0553707439487563
 10
8.569726468659375
 20
-2.054463374712333
 10
8.570875102270692
 20
-2.0535827336404986
 10
8.572045260592402
 20
-2.0527292937745427
 10
8.573236470583211
 20
-2.051903528155757
 10
8.574448259201828
 20
-2.051105909825432
 10
8.575680153406966
 20
-2.0503369118248576
 10
8.57693168015733
 20
-2.0495970071953256
 10
8.578202366411633
 20
-2.0488866689781258
 10
8.579491739128583
 20
-2.048206370214549
 10
8.580799325266888
 20
-2.0475565839458865
 10
8.582124651785259
 20
-2.0469377832134286
 10
8.583467245642401
 20
-2.0463504410584656
 10
8.58482663379703
 20
-2.0457950305222887
 10
8.58620234320785
 20
-2.045272024646189
 10
8.587593900833575
 20
-2.0447818964714557
 10
8.58900083363291
 20
-2.044325119039382
 10
8.590422668564567
 20
-2.043902165391256
 10
8.591858932587254
 20
-2.043513508568369
 10
8.59330915265968
 20
-2.0431596216120136
 10
8.594772855740555
 20
-2.0428409775634777
 10
8.596249568788588
 20
-2.0425580494640543
 10
8.59773881876249
 20
-2.042311310355033
 10
8.599240132620967
 20
-2.0421012332777044
 10
8.60075303732273
 20
-2.0419282912733587
 10
8.602277059826491
 20
-2.0417929573832887
 10
8.603811727090955
 20
-2.041695704648783
 10
8.605356566074834
 20
-2.041637006111133
 10
8.606911103736834
 20
-2.04161733481163
 10
8.608465641398837
 20
-2.041637006111133
 10
8.610010480382714
 20
-2.041695704648783
 10
8.61154514764718
 20
-2.0417929573832887
 10
8.61306917015094
 20
-2.0419282912733587
 10
8.614582074852702
 20
-2.0421012332777044
 10
8.61608338871118
 20
-2.042311310355033
 10
8.617572638685083
 20
-2.0425580494640543
 10
8.619049351733114
 20
-2.0428409775634777
 10
8.62051305481399
 20
-2.0431596216120136
 10
8.621963274886417
 20
-2.043513508568369
 10
8.623399538909103
 20
-2.043902165391256
 10
8.62482137384076
 20
-2.044325119039382
 10
8.626228306640096
 20
-2.0447818964714557
 10
8.627619864265819
 20
-2.045272024646189
 10
8.62899557367664
 20
-2.0457950305222887
 10
8.63035496183127
 20
-2.0463504410584656
 10
8.631697555688412
 20
-2.0469377832134286
 10
8.633022882206783
 20
-2.0475565839458865
 10
8.634330468345087
 20
-2.048206370214549
 10
8.635619841062038
 20
-2.0488866689781258
 10
8.63689052731634
 20
-2.0495970071953256
 10
8.638142054066705
 20
-2.0503369118248576
 10
8.63937394827184
 20
-2.051105909825432
 10
8.640585736890458
 20
-2.051903528155757
 10
8.641776946881269
 20
-2.0527292937745427
 10
8.642947105202976
 20
-2.0535827336404986
 10
8.644095738814295
 20
-2.054463374712333
 10
8.645222374673933
 20
-2.0553707439487563
 10
8.646326539740597
 20
-2.056304368308476
 10
8.647407760973
 20
-2.057263774750204
 10
8.648465565329847
 20
-2.058248490232648
 10
8.649499479769853
 20
-2.0592580417145165
 10
8.65050903125172
 20
-2.060291956154521
 10
8.651493746734166
 20
-2.0613497605113706
 10
8.652453153175891
 20
-2.062430981743772
 10
8.653386777535614
 20
-2.063535146810437
 10
8.654294146772036
 20
-2.064661782670074
 10
8.65517478784387
 20
-2.0658104162813924
 10
8.656028227709825
 20
-2.0669805746031016
 10
8.656853993328612
 20
-2.0681717845939107
 10
8.657651611658938
 20
-2.069383573212529
 10
8.658420609659512
 20
-2.070615467417666
 10
8.659160514289043
 20
-2.0718669941680306
 10
8.659870852506245
 20
-2.0731376804223336
 10
8.660551151269821
 20
-2.0744270531392828
 10
8.661200937538483
 20
-2.075734639277587
 10
8.66181973827094
 20
-2.0770599657959568
 10
8.662407080425904
 20
-2.0784025596531013
 10
8.662962490962082
 20
-2.0797619478077296
 10
8.663485496838181
 20
-2.081137657218551
 10
8.663975625012913
 20
-2.082529214844274
 10
8.664432402444987
 20
-2.0839361476436102
 10
8.664855356093113
 20
-2.085357982575266
 10
8.665244012916
 20
-2.086794246597953
 10
8.665597899872356
 20
-2.0882444666703797
 10
8.665916543920892
 20
-2.0897081697512543
 10
8.666199472020315
 20
-2.0911848827992876
 10
8.666446211129335
 20
-2.092674132773189
 10
8.666656288206665
 20
-2.094175446631666
 10
8.666829230211011
 20
-2.095688351333431
 10
8.66696456410108
 20
-2.0972123738371904
 10
8.667061816835586
 20
-2.0987470411016544
 10
8.667120515373236
 20
-2.1002918800855332
 10
8.66714018667274
 20
-2.1018464177475344
  0
LWPOLYLINE
  5
53
330
17
100
AcDbEntity
  8
0
100
AcDbPolyline
 90
4
 70
1
 10
2.655305009980059
 20
8.911644290202787
 10
3.379999067306878
 20
8.911644290202787
 10
3.379999067306878
 20
8.811545858728026
 10
2.655305009980059
 20
8.811545858728026
  0
LWPOLYLINE
  5
54
330
17
100
AcDbEntity
  8
0
100
AcDbPolyline
 90
4
 70
1
 10
2.6553053713545562
 20
9.116423172184861
 10
3.379999428681375
 20
9.116423172184861
 10
3.379999428681375
 20
9.016324740710102
 10
2.6553053713545562
 20
9.016324740710102
  0
LWPOLYLINE
  5
55
330
17
100
AcDbEntity
  8
0
100
AcDbPolyline
 90
4
 70
1
 10
-12.5
 20
3.0537634429403857
 10
-11.596563936648682
 20
3.0537634429403857
 10
-11.596563936648682
 20
2.9333052529769437
 10
-12.5
 20
2.9333052529769437
  0
LWPOLYLINE
  5
56
330
17
100
AcDbEntity
  8
0
100
AcDbPolyline
 90
4
 70
1
 10
-12.5
 20
5.4147434940278405
 10
-11.596563936648682
 20
5.4147434940278405
 10
-11.596563936648682
 20
5.294285304064398
 10
-12.5
 20
5.294285304064398
  0
LWPOLYLINE
  5
57
330
17
100
AcDbEntity
  8
0
100
AcDbPolyline
 90
4
 70
1
 10
9.29452775214218
 20
-3.5960268531973383
 10
10.017277024426814
 20
-3.5960268531973383
 10
10.017277024426814
 20
-3.71648507929823
 10
9.29452775214218
 20
-3.71648507929823
  0
LWPOLYLINE
  5
58
330
17
100
AcDbEntity
  8
0
100
AcDbPolyline
 90
4
 70
1
 10
9.17570540816291
 20
-4.2098628750062
 10
10.139371012191162
 20
-4.2098628750062
 10
10.139371012191162
 20
-4.330321017990959
 10
9.17570540816291
 20
-4.330321017990959
  0
LWPOLYLINE
  5
59
330
17
100
AcDbEntity
  8
0
100
AcDbPolyline
 90
4
 70
1
 10
-5.848069162254735
 20
-8.874236987320765
 10
-5.366235992843202
 20
-8.874236987320765
 10
-5.366235992843202
 20
-8.994695177284207
 10
-5.848069162254735
 20
-8.994695177284207
  0
LWPOLYLINE
  5
5A
330
17
100
AcDbEntity
  8
0
100
AcDbPolyline
 90
4
 70
1
 10
-5.8480680781312415
 20
-8.031029103469107
 10
-5.366235595331255
 20
-8.031029103469107
 10
-5.366235595331255
 20
-8.151487246453865
 10
-5.8480680781312415
 20
-8.151487246453865
  0
LWPOLYLINE
  5
5B
330
17
100
AcDbEntity
  8
0
100
AcDbPolyline
 90
4
 70
1
 10
-12.40050757789818
 20
-3.476192540166579
 10
-5.287719818463435
 20
-3.476192540166579
 10
-5.287719818463435
 20
-3.612976991504007
 10
-12.40050757789818
 20
-3.612976991504007
  0
LWPOLYLINE
  5
5C
330
17
100
AcDbEntity
  8
0
100
AcDbPolyline
 90
4
 70
1
 10
-8.126666910037132
 20
10.188540479180533
 10
-1.155320406220069
 20
10.188540479180533
 10
-1.155320406220069
 20
10.054476033457574
 10
-8.126666910037132
 20
10.054476033457574
  0
LWPOLYLINE
  5
5D
330
17
100
AcDbEntity
  8
0
100
AcDbPolyline
 90
65
 70
0
 10
4.17188945970036
 20
-0.11695446786225074
 10
4.183796965344065
 20
-0.10576556616598384
 10
4.196384181234098
 20
-0.09531238501308575
 10
4.209620797060144
 20
-0.08562009590829871
 10
4.223474938741654
 20
-0.07671203811051579
 10
4.237913245181372
 20
-0.06860966243129728
 10
4.252900948599643
 20
-0.061332479580815495
 10
4.268401958256032
 20
-0.05489801318560675
 10
4.284378947356676
 20
-0.04932175759127046
 10
4.300793442938076
 20
-0.04461714055172109
 10
4.3176059185108935
 20
-0.0407954908948436
 10
4.334775889240659
 20
-0.03786601124241074
 10
4.352262009436206
 20
-0.035835755849953715
 10
4.370022172111054
 20
-0.03470961361995034
 10
4.3880136103780245
 20
-0.03449029632923451
 10
4.406193000432903
 20
-0.03517833209897216
 10
4.4245165658791725
 20
-0.03677206412293544
 10
4.442940183142602
 20
-0.03926765465712807
 10
4.46141948772184
 20
-0.042659094261166
 10
4.479909981019183
 20
-0.046938216269147334
 10
4.498367137494228
 20
-0.05209471645517703
 10
4.5167465118824195
 20
-0.0581161778461824
 10
4.535003846220287
 20
-0.064988100622276
 10
4.553095176419659
 20
-0.07269393703266032
 10
4.570976938134209
 20
-0.08121513124299876
 10
4.5886060716634285
 20
-0.090531164018299
 10
4.605940125641384
 20
-0.10061960213371181
 10
4.6229373592606064
 20
-0.11145615239425911
 10
4.6395568427849305
 20
-0.1230147201334178
 10
4.655758556109256
 20
-0.13526747204968576
 10
4.671503485128896
 20
-0.14818490322982422
 10
4.686753715686454
 20
-0.16173590819737754
 10
4.701472524870004
 20
-0.17588785581538974
 10
4.71562446944272
 20
-0.19060666786294514
 10
4.72917547119102
 20
-0.20585690109631974
 10
4.742092898985698
 20
-0.22160183259714406
 10
4.754345647358452
 20
-0.23780354820204816
 10
4.765904211404575
 20
-0.2544230338008535
 10
4.776740757831458
 20
-0.27142026928346413
 10
4.786829191981812
 20
-0.2887543249092268
 10
4.796145220670203
 20
-0.3063834598667043
 10
4.804666410681625
 20
-0.32426522278652636
 10
4.812372242791197
 20
-0.34235655396528036
 10
4.819244161174939
 20
-0.3606138890542824
 10
4.825265618092629
 20
-0.37899326396354976
 10
4.830422113735153
 20
-0.39745042072835884
 10
4.834701231140379
 20
-0.41594091408345674
 10
4.838092666093494
 20
-0.43442021848830253
 10
4.840588251939797
 20
-0.45284383534560924
 10
4.842181979250192
 20
-0.4711674001550059
 10
4.8428700102920335
 20
-0.48934678934379455
 10
4.842650688270479
 20
-0.5073382265175433
 10
4.841524541318084
 20
-0.5250983878746707
 10
4.839494281223057
 20
-0.5425845065311701
 10
4.836564796899198
 20
-0.5597544755042699
 10
4.832743142613287
 20
-0.5765669491070312
 10
4.828038520998245
 20
-0.5929814425097292
 10
4.822462260892974
 20
-0.6089584292282721
 10
4.81602779006225
 20
-0.624459436304896
 10
4.808750602862355
 20
-0.6394471369519505
 10
4.800648222930297
 20
-0.6538854404356755
 10
4.791740160986491
 20
-0.6677395789835313
 10
4.782047867852479
 20
-0.6809761915058083
 10
4.7715946827968585
 20
-0.693563403929914
 10
4.760405777333798
 20
-0.7054709059538539
  0
LWPOLYLINE
  5
5E
330
17
100
AcDbEntity
  8
0
100
AcDbPolyline
 90
129
 70
1
 10
0.702608129076002
 20
0.43690410542390207
 10
0.6934330663336568
 20
0.4288309821401452
 10
0.6839474857058223
 20
0.42114031667891694
 10
0.6741742387870701
 20
0.41385063652693627
 10
0.6641368701852625
 20
0.40697950316218984
 10
0.6538595608005311
 20
0.40054346974679345
 10
0.6433670695713698
 20
0.39455804124897476
 10
0.632684673828183
 20
0.3890376370902467
 10
0.6218381083979837
 20
0.383995556407758
 10
0.61085350360694
 20
0.37944394601550674
 10
0.5997573223301313
 20
0.3753937711416018
 10
0.5885762962401643
 20
0.37185478901206814
 10
0.5773373614082318
 20
0.3688355253448337
 10
0.5660675934127581
 20
0.36634325381052923
 10
0.55479414211196
 20
0.36438397850957793
 10
0.5435441662374583
 20
0.3629624195077924
 10
0.5323447679665163
 20
0.36208200146532155
 10
0.5212229276305205
 20
0.36174484538634516
 10
0.5102054387169979
 20
0.3619517635093891
 10
0.4993188433217595
 20
0.3627022573505709
 10
0.4885893682066657
 20
0.3639945189044916
 10
0.4780428616170596
 20
0.36582543499987913
 10
0.4677047310110806
 20
0.3681905947994904
 10
0.4575998818508716
 20
0.37108430042620466
 10
0.44775265760314
 20
0.3744995806897085
 10
0.43818678109361325
 20
0.3784282078807038
 10
0.428925297356675
 20
0.3828607175921805
 10
0.41999051811785754
 20
0.3877864315200015
 10
0.4114039680429412
 20
0.393193483187873
 10
0.4031863328831498
 20
0.39906884653472563
 10
0.3953574096413629
 20
0.40539836729563555
 10
0.38793605887940263
 20
0.4121667971006892
 10
0.3809401592812882
 20
0.419357830209642
 10
0.3743865645819199
 20
0.426954142793874
 10
0.3682910629649555
 20
0.43493743467101165
 10
0.3626683390276933
 20
0.443288473391669
 10
0.3575319384045905
 20
0.4519871405721036
 10
0.3528942351346437
 20
0.4610124803611642
 10
0.3487664018512451
 20
0.4703427499247728
 10
0.34515838286632994
 20
0.4799554718263155
 10
0.3420788702136579
 20
0.4898274881767565
 10
0.33953528270894273
 20
0.499935016424021
 10
0.3375337480772753
 20
0.5102537066472466
 10
0.33607908819089716
 20
0.5207587002178748
 10
0.3351748074528875
 20
0.5314246896862653
 10
0.33482308435475
 20
0.5422259797495586
 10
0.33502476622823524
 20
0.5531365491539106
 10
0.3357793672040449
 20
0.5641301133819735
 10
0.33708506938233285
 20
0.5751801879745992
 10
0.3389387272121857
 20
0.5862601523342219
 10
0.3413358750695301
 20
0.5973433138562091
 10
0.3442707380152123
 20
0.6084029722336839
 10
0.3477362457073326
 20
0.6194124837809034
 10
0.35172404943431773
 20
0.6303453256202309
 10
0.3562245422276995
 20
0.6411751595780718
 10
0.36122688200614184
 20
0.6518758956358401
 10
0.36671901769496523
 20
0.662421754783099
 10
0.372687718258241
 20
0.6727873311214542
 10
0.37911860457351587
 20
0.6829476530695898
 10
0.3859961840723772
 20
0.6928782435219936
 10
0.3933038880634074
 20
0.7025551788164484
 10
0.40102411164761287
 20
0.7119551463682309
 10
0.40913825613016747
 20
0.7210555008321684
 10
0.41762677382629765
 20
0.729834318657261
 10
0.42646921515336705
 20
0.7382704509024339
 10
0.43564427789571225
 20
0.7463435741861908
 10
0.4451298585235468
 20
0.7540342396474191
 10
0.454903105442299
 20
0.7613239197993997
 10
0.46494047404410654
 20
0.7681950531641463
 10
0.4752177834288379
 20
0.7746310865795426
 10
0.48571027465799926
 20
0.7806165150773613
 10
0.496392670401186
 20
0.7861369192360894
 10
0.5072392358313854
 20
0.791178999918578
 10
0.518223840622429
 20
0.7957306103108293
 10
0.5293200218992377
 20
0.7997807851847343
 10
0.5405010479892047
 20
0.8033197673142679
 10
0.5517399828211372
 20
0.8063390309815024
 10
0.5630097508166109
 20
0.8088313025158068
 10
0.574283202117409
 20
0.8107905778167579
 10
0.5855331779919108
 20
0.8122121368185437
 10
0.5967325762628526
 20
0.8130925548610145
 10
0.6078544165988486
 20
0.8134297109399908
 10
0.618871905512371
 20
0.8132227928169469
 10
0.6297585009076095
 20
0.8124722989757653
 10
0.6404879760227034
 20
0.8111800374218445
 10
0.6510344826123093
 20
0.8093491213264569
 10
0.6613726132182884
 20
0.8069839615268456
 10
0.6714774623784975
 20
0.8040902559001314
 10
0.6813246866262291
 20
0.8006749756366275
 10
0.6908905631357558
 20
0.7967463484456322
 10
0.7001520468726941
 20
0.7923138387341556
 10
0.7090868261115115
 20
0.7873881248063346
 10
0.7176733761864278
 20
0.7819810731384631
 10
0.7258910113462194
 20
0.7761057097916104
 10
0.7337199345880062
 20
0.7697761890307004
 10
0.7411412853499664
 20
0.7630077592256467
 10
0.7481371849480808
 20
0.755816726116694
 10
0.7546907796474491
 20
0.748220413532462
 10
0.7607862812644135
 20
0.7402371216553245
 10
0.7664090052016757
 20
0.7318860829346671
 10
0.7715454058247786
 20
0.7231874157542325
 10
0.7761831090947254
 20
0.7141620759651718
 10
0.7803109423781239
 20
0.7048318064015632
 10
0.7839189613630392
 20
0.6952190845000206
 10
0.7869984740157113
 20
0.6853470681495794
 10
0.7895420615204264
 20
0.6752395399023149
 10
0.7915435961520937
 20
0.6649208496790895
 10
0.792998256038472
 20
0.6544158561084613
 10
0.7939025367764816
 20
0.6437498666400707
 10
0.7942542598746191
 20
0.6329485765767775
 10
0.7940525780011338
 20
0.6220380071724255
 10
0.7932979770253241
 20
0.6110444429443626
 10
0.7919922748470363
 20
0.5999943683517369
 10
0.7901386170171835
 20
0.5889144039921141
 10
0.787741469159839
 20
0.5778312424701268
 10
0.7848066062141568
 20
0.5667715840926522
 10
0.7813410985220366
 20
0.5557620725454326
 10
0.7773532947950512
 20
0.5448292307061051
 10
0.7728528020016694
 20
0.5339993967482644
 10
0.7678504622232272
 20
0.523298660690496
 10
0.7623583265344039
 20
0.5127528015432372
 10
0.7563896259711281
 20
0.502387225204882
 10
0.7499587396558532
 20
0.4922269032567462
 10
0.7430811601569919
 20
0.4822963128043425
 10
0.7357734561659617
 20
0.4726193775098877
 10
0.7280532325817561
 20
0.4632194099581051
 10
0.7199390880992015
 20
0.4541190554941675
 10
0.7114505704030715
 20
0.4453402376690751
 10
0.702608129076002
 20
0.43690410542390207
  0
LWPOLYLINE
  5
5F
330
17
100
AcDbEntity
  8
0
100
AcDbPolyline
 90
65
 70
0
 10
1.0091928953695877
 20
-0.21000283638258982
 10
1.002373987341389
 20
-0.20275489204219826
 10
0.9960005428869679
 20
-0.1950953724117306
 10
0.9900879161926193
 20
-0.1870427299452993
 10
0.9846503512942658
 20
-0.1786163641643851
 10
0.9797009477623266
 20
-0.16983657492268825
 10
0.9752516291437037
 20
-0.16072451350200226
 10
0.9713131142369125
 20
-0.1513021316569216
 10
0.9678948912695567
 20
-0.14159212873114177
 10
0.9650051950403575
 20
-0.1316178969727503
 10
0.9626509870808003
 20
-0.12140346518025076
 10
0.9608379388841951
 20
-0.11097344081508165
 10
0.9595704182425538
 20
-0.10035295072008453
 10
0.9588514787241947
 20
-0.08956758058673794
 10
0.9586828523174293
 20
-0.07864331331698313
 10
0.9590649452580507
 20
-0.06760646642813777
 10
0.9599968370506765
 20
-0.05648362865168787
 10
0.9614762826863018
 20
-0.04530159587870544
 10
0.9634997180507237
 20
-0.03408730660619641
 10
0.9660622685108036
 20
-0.02286777703990181
 10
0.9691577606578873
 20
-0.011670036009889537
 10
0.9727787371800858
 20
-0.000521059855733617
 10
0.9769164748275946
 20
0.010552292561851206
 10
0.9815610054277663
 20
0.021523344566360268
 10
0.9867011398993121
 20
0.032365665931949866
 10
0.9923244952077795
 20
0.04305313655616877
 10
0.9984175241973687
 20
0.05356000938557277
 10
1.004965548227216
 20
0.06386097244263465
 10
1.0119527925335277
 20
0.0739312098045152
 10
1.019362424232369
 20
0.08374646138679799
 10
1.0271765928715548
 20
0.09328308138815705
 10
1.0353764734339561
 20
0.10251809525516631
 10
1.0439423116886146
 20
0.11142925503001154
 10
1.0528534717804165
 20
0.11999509294777086
 10
1.0620884859436766
 20
0.12819497315414252
 10
1.0716251062198665
 20
0.13600914141902526
 10
1.0814403580548981
 20
0.14341877272619177
 10
1.0915105956468372
 20
0.15040601662440098
 10
1.1018115589107123
 20
0.1569540402307011
 10
1.1123184319231865
 20
0.1630470687823188
 10
1.123005902706291
 20
0.16867042363944582
 10
1.1338482242062
 20
0.17381055764736908
 10
1.1448192763201375
 20
0.17845508777275312
 10
1.1558926288219964
 20
0.18259282493545323
 10
1.1670416050350692
 20
0.1862138009639899
 10
1.1782393460984992
 20
0.1893092926097478
 10
1.189458875672632
 20
0.19187184256204562
 10
1.2006731649273803
 20
0.19389527741345225
 10
1.2118551976570466
 20
0.19537472253206573
 10
1.2229780353647288
 20
0.19630661380492787
 10
1.234014882159521
 20
0.19668870622428647
 10
1.2449391493101631
 20
0.19652007929601456
 10
1.2557245192996251
 20
0.19580113925716155
 10
1.266345009226312
 20
0.19453361809729328
 10
1.2767750333991505
 20
0.1927205693859764
 10
1.286989464975763
 20
0.19036636091646225
 10
1.2969636964952305
 20
0.1874766641832899
 10
1.3066736991596253
 20
0.18405844071915908
 10
1.3160960807214896
 20
0.18011992532398716
 10
1.32520814183781
 20
0.17567060622655428
 10
1.3339879307547258
 20
0.17072120222652998
 10
1.342414296191225
 20
0.16528363687194406
 10
1.3504669382944379
 20
0.15937100973431406
 10
1.3581264575437588
 20
0.15299756485063054
 10
1.3653744016373395
 20
0.1461786562568761
  0
LWPOLYLINE
  5
60
330
17
100
AcDbEntity
  8
0
100
AcDbPolyline
 90
65
 70
0
 10
5.228932644610765
 20
0.02157493390847302
 10
5.222322604995447
 20
0.015356170341482999
 10
5.2153372135776985
 20
0.009543664291322704
 10
5.207993298777682
 20
0.0041514185945079616
 10
5.200308552729812
 20
-0.0008075763564704698
 10
5.192301488660854
 20
-0.0053213739081422054
 10
5.183991396289934
 20
-0.009379099926589902
 10
5.175398295357917
 20
-0.012970978994193747
 10
5.166542887398094
 20
-0.016088357959467215
 10
5.157446505864379
 20
-0.018723726783258014
 10
5.1481310647371465
 20
-0.020870736631091655
 10
5.138619005730527
 20
-0.022524215168068414
 10
5.128933244228359
 20
-0.02368017901947248
 10
5.119097114079017
 20
-0.024335843367070883
 10
5.109134311382122
 20
-0.024489628657983965
 10
5.0990688374025686
 20
-0.024141164409967157
 10
5.088924940749368
 20
-0.023291290103935828
 10
5.078727058958625
 20
-0.021942053161580207
 10
5.068499759621375
 20
-0.020096704012949912
 10
5.058267681198097
 20
-0.017759688265880206
 10
5.0480554736625125
 20
-0.014936635996135306
 10
5.037887739117628
 20
-0.011634348184061092
 10
5.027788972527119
 20
-0.00786078033042805
 10
5.017783502704818
 20
-0.0036250232909319454
 10
5.0078954337044586
 20
0.001062718624473282
 10
4.998148586750911
 20
0.006191152234652989
 10
4.988566442852754
 20
0.01174792269355625
 10
4.979172086234471
 20
0.017719643254120496
 10
4.969988148724531
 20
0.02409192751812016
 10
4.9610367552333265
 20
0.030849424094260617
 10
4.952339470452326
 20
0.03797585358102476
 10
4.943917246902851
 20
0.04545404778517879
 10
4.935790374459599
 20
0.05326599108145372
 10
4.927978431470572
 20
0.06139286381376611
 10
4.920500237591113
 20
0.0698150876334193
 10
4.9133738084457095
 20
0.07851237266506075
 10
4.906616312226771
 20
0.08746376638676988
 10
4.900244028334956
 20
0.09664770410652085
 10
4.894272308160661
 20
0.10604206091341473
 10
4.8887155381011835
 20
0.11562420497852961
 10
4.88358710490262
 20
0.1253710520769795
 10
4.878899363410033
 20
0.1352591211998355
 10
4.874663606803538
 20
0.14526459112193538
 10
4.8708900393920445
 20
0.1553633577893003
 10
4.867587752030185
 20
0.16553109238791652
 10
4.864764700217643
 20
0.17574329995397833
 10
4.862427684933665
 20
0.18597537838440384
 10
4.8605823362528975
 20
0.19620267770545702
 10
4.859233099782051
 20
0.20640055945669558
 10
4.858383225950038
 20
0.21654445604718134
 10
4.8580347621774065
 20
0.22660992994095913
 10
4.858188547943928
 20
0.23657273252922462
 10
4.85884421276621
 20
0.24640886254734626
 10
4.860000177090231
 20
0.256094623896017
 10
4.861653656096619
 20
0.2656066827272331
 10
4.863800666409527
 20
0.27492212365757984
 10
4.866436035692935
 20
0.2840185049733982
 10
4.8695534151112625
 20
0.29287391269484075
 10
4.873145294624263
 20
0.30146701336856857
 10
4.87720302107938
 20
0.30977710546191123
 10
4.88171681905794
 20
0.3177841692346723
 10
4.886675814424997
 20
0.32546891496843927
 10
4.8920680605260785
 20
0.3328128294372049
 10
4.8978805669677214
 20
0.3397982205073526
 10
4.9040993310504915
 20
0.3464082598975817
  0
LWPOLYLINE
  5
61
330
17
100
AcDbEntity
  8
0
100
AcDbPolyline
 90
65
 70
0
 10
5.178220612490177
 20
-2.110827694274221
 10
5.168273845773706
 20
-2.1105243197879844
 10
5.158351041692483
 20
-2.1096149273083604
 10
5.1484761051512296
 20
-2.1081017076415356
 10
5.138672825737569
 20
-2.1059883062663136
 10
5.128964820410824
 20
-2.103279814551839
 10
5.119375476606689
 20
-2.099982757492039
 10
5.109927895894854
 20
-2.0961050779863433
 10
5.100644838325292
 20
-2.091656117704542
 10
5.091548667597308
 20
-2.086646594581887
 10
5.0826612971834235
 20
-2.0810885769986434
 10
5.074004137537907
 20
-2.074995454706304
 10
5.065598044517106
 20
-2.068381906570508
 10
5.057463269135865
 20
-2.0612638652083617
 10
5.049619408781053
 20
-2.053658478605373
 10
5.0420853599997475
 20
-2.045584068804447
 10
5.034879272975788
 20
-2.0370600877664797
 10
5.028018507804397
 20
-2.028107070508883
 10
5.021519592670188
 20
-2.0187465856349216
 10
5.015398184029321
 20
-2.0090011833730634
 10
5.009669028891728
 20
-1.9988943412514986
 10
5.004345929294269
 20
-1.9884504075387188
 10
4.999441709050421
 20
-1.9776945425864036
 10
4.994968182856586
 20
-1.9666526582159263
 10
4.990936127829448
 20
-1.9553513552945092
 10
4.987355257542961
 20
-1.9438178596513997
 10
4.984234198627492
 20
-1.9320799564884625
 10
4.981580469987516
 20
-1.9201659234431923
 10
4.979400464687914
 20
-1.9081044624654087
 10
4.9776994345525205
 20
-1.8959246306717412
 10
4.97648147751202
 20
-1.8836557703444898
 10
4.975749527731672
 20
-1.8713274382434946
 10
4.975505348542649
 20
-1.858969334401311
 10
4.975749528194018
 20
-1.8466112305732294
 10
4.976481478435598
 20
-1.8342828985145043
 10
4.977699435935106
 20
-1.8220140382575907
 10
4.979400466526175
 20
-1.8098342065621582
 10
4.981580472277025
 20
-1.7977727457102708
 10
4.984234201362733
 20
-1.7858587128182548
 10
4.9873552607173455
 20
-1.7741208098355594
 10
4.990936131435327
 20
-1.7625873143992465
 10
4.9949681868852736
 20
-1.7512860117106828
 10
4.999441713492212
 20
-1.7402441275985534
 10
5.004345934138462
 20
-1.7294882629294583
 10
5.009669034126653
 20
-1.7190443295240898
 10
5.015398189642368
 20
-1.7089374877333863
 10
5.021519598647833
 20
-1.6991920858250418
 10
5.028018514132239
 20
-1.6898316013263954
 10
5.034879279638584
 20
-1.6808785844650105
 10
5.042085366981446
 20
-1.672354603843198
 10
5.049619416064835
 20
-1.664280194477366
 10
5.057463276704182
 20
-1.6566748083273632
 10
5.065598052351725
 20
-1.6495567674350038
 10
5.074004145619955
 20
-1.6429432197846627
 10
5.0826613054934295
 20
-1.6368500979922782
 10
5.091548676115252
 20
-1.6312920809222833
 10
5.1006448470306545
 20
-1.6262825583249358
 10
5.109927904766663
 20
-1.6218335985792354
 10
5.119375485623571
 20
-1.6179559196191406
 10
5.128964829551056
 20
-1.6146588631131291
 10
5.138672834979133
 20
-1.611950371959296
 10
5.148476114471861
 20
-1.6098369711502176
 10
5.158351051069728
 20
-1.6083237520536742
 10
5.168273855184974
 20
-1.6074143601470958
 10
5.1782206221268305
 20
-1.6071109862352897
  0
LWPOLYLINE
  5
62
330
17
100
AcDbEntity
  8
0
100
AcDbPolyline
 90
65
 70
0
 10
4.422501564376951
 20
-1.600968318433189
 10
4.432448331093422
 20
-1.601271692919425
 10
4.442371135174645
 20
-1.6021810853990495
 10
4.452246071715899
 20
-1.6036943050658745
 10
4.46204935112956
 20
-1.605807706441096
 10
4.471757356456305
 20
-1.6085161981555707
 10
4.481346700260439
 20
-1.6118132552153703
 10
4.490794280972274
 20
-1.6156909347210666
 10
4.5000773385418364
 20
-1.6201398950028671
 10
4.5091735092698215
 20
-1.6251494181255224
 10
4.518060879683705
 20
-1.6307074357087665
 10
4.5267180393292215
 20
-1.6368005580011054
 10
4.535124132350022
 20
-1.6434141061369016
 10
4.543258907731264
 20
-1.6505321474990475
 10
4.551102768086075
 20
-1.6581375341020363
 10
4.558636816867381
 20
-1.666211943902963
 10
4.56584290389134
 20
-1.67473592494093
 10
4.572703669062731
 20
-1.6836889421985268
 10
4.57920258419694
 20
-1.6930494270724878
 10
4.5853239928378065
 20
-1.7027948293343464
 10
4.5910531479754
 20
-1.712901671455911
 10
4.59637624757286
 20
-1.7233456051686908
 10
4.601280467816707
 20
-1.7341014701210062
 10
4.605753994010543
 20
-1.7451433544914836
 10
4.60978604903768
 20
-1.7564446574129005
 10
4.613366919324167
 20
-1.76797815305601
 10
4.616487978239636
 20
-1.7797160562189476
 10
4.619141706879613
 20
-1.7916300892642176
 10
4.621321712179214
 20
-1.8036915502420012
 10
4.623022742314608
 20
-1.8158713820356687
 10
4.624240699355108
 20
-1.8281402423629203
 10
4.624972649135456
 20
-1.8404685744639153
 10
4.62521682832448
 20
-1.8528266783060987
 10
4.62497264867311
 20
-1.8651847821341807
 10
4.62424069843153
 20
-1.8775131141929053
 10
4.623022740932022
 20
-1.8897819744498194
 10
4.621321710340952
 20
-1.9019618061452517
 10
4.6191417045901035
 20
-1.9140232669971393
 10
4.616487975504395
 20
-1.9259372998891553
 10
4.613366916149784
 20
-1.9376752028718505
 10
4.609786045431801
 20
-1.9492086983081633
 10
4.605753989981855
 20
-1.9605100009967273
 10
4.601280463374916
 20
-1.9715518851088571
 10
4.596376242728667
 20
-1.982307749777952
 10
4.591053142740475
 20
-1.99275168318332
 10
4.58532398722476
 20
-2.002858524974024
 10
4.579202578219295
 20
-2.0126039268823686
 10
4.572703662734889
 20
-2.0219644113810147
 10
4.565842897228544
 20
-2.0309174282424
 10
4.558636809885682
 20
-2.0394414088642123
 10
4.551102760802293
 20
-2.0475158182300444
 10
4.543258900162947
 20
-2.0551212043800473
 10
4.535124124515403
 20
-2.0622392452724068
 10
4.5267180312471735
 20
-2.068852792922747
 10
4.518060871373699
 20
-2.074945914715132
 10
4.509173500751876
 20
-2.080503931785127
 10
4.500077329836474
 20
-2.0855134543824745
 10
4.490794272100466
 20
-2.089962414128175
 10
4.481346691243558
 20
-2.0938400930882697
 10
4.471757347316072
 20
-2.097137149594281
 10
4.462049341887996
 20
-2.0998456407481148
 10
4.452246062395267
 20
-2.1019590415571927
 10
4.4423711257974015
 20
-2.1034722606537364
 10
4.432448321682155
 20
-2.1043816525603147
 10
4.422501554740298
 20
-2.1046850264721204
  0
LWPOLYLINE
  5
63
330
17
100
AcDbEntity
  8
0
100
AcDbPolyline
 90
65
 70
0
 10
1.5242553407099073
 20
-3.706817370844314
 10
1.517007396369516
 20
-3.7136362788725124
 10
1.5093478767390482
 20
-3.7200097233269336
 10
1.501295234272617
 20
-3.725922350021283
 10
1.4928688684917029
 20
-3.7313599149196355
 10
1.484089079250006
 20
-3.7363093184515748
 10
1.47497701782932
 20
-3.7407586370701984
 10
1.4655546359842395
 20
-3.7446971519769896
 10
1.4558446330584598
 20
-3.7481153749443448
 10
1.4458704013000683
 20
-3.751005071173544
 10
1.4356559695075688
 20
-3.7533592791331016
 10
1.4252259451423996
 20
-3.7551723273297064
 10
1.4146054550474025
 20
-3.7564398479713472
 10
1.4038200849140559
 20
-3.757158787489707
 10
1.3928958176443011
 20
-3.7573274138964727
 10
1.3818589707554556
 20
-3.7569453209558508
 10
1.370736132979006
 20
-3.7560134291632252
 10
1.3595541002060234
 20
-3.7545339835276
 10
1.3483398109335143
 20
-3.752510548163178
 10
1.3371202813672198
 20
-3.7499479977030985
 10
1.3259225403372075
 20
-3.7468525055560145
 10
1.3147735641830518
 20
-3.7432315290338156
 10
1.303700211765467
 20
-3.739093791386307
 10
1.292729159760958
 20
-3.7344492607861355
 10
1.281886838395368
 20
-3.7293091263145897
 10
1.2711993677711493
 20
-3.7236857710061226
 10
1.2606924949417453
 20
-3.7175927420165333
 10
1.2503915318846837
 20
-3.7110447179866854
 10
1.2403212945228028
 20
-3.7040574736803746
 10
1.2305060429405201
 20
-3.696647841981533
 10
1.220969422939161
 20
-3.6888336733423475
 10
1.2117344090721516
 20
-3.6806337927799455
 10
1.2028232492973063
 20
-3.6720679545252866
 10
1.194257411379547
 20
-3.663156794433485
 10
1.1860575311731756
 20
-3.6539217802702253
 10
1.1782433629082927
 20
-3.6443851599940356
 10
1.1708337316011261
 20
-3.6345699081590035
 10
1.1638464877029169
 20
-3.6244996705670647
 10
1.1572984640966166
 20
-3.61419870730319
 10
1.151205435544999
 20
-3.6036918342907156
 10
1.145582080687872
 20
-3.5930043635076108
 10
1.1404419466799487
 20
-3.5821620420077016
 10
1.1357974165545646
 20
-3.571190989893765
 10
1.1316596793918645
 20
-3.560117637391906
 10
1.128038703363328
 20
-3.548968661178833
 10
1.12494321171757
 20
-3.5377709201154026
 10
1.122380661765272
 20
-3.52655139054127
 10
1.1203572269138653
 20
-3.515337101286522
 10
1.118877781795252
 20
-3.504155068556855
 10
1.11794589052239
 20
-3.4930322308491726
 10
1.1175637981030313
 20
-3.4819953840543807
 10
1.1177324250313032
 20
-3.471071116903739
 10
1.118451365070156
 20
-3.460285746914277
 10
1.1197188862300242
 20
-3.4496652569875903
 10
1.121531934941341
 20
-3.439235232814751
 10
1.1238861434108551
 20
-3.4290208012381393
 10
1.1267758401440273
 20
-3.4190465697186716
 10
1.1301940636081584
 20
-3.409336567054277
 10
1.1341325790033303
 20
-3.3999141854924124
 10
1.1385818981007632
 20
-3.390802124376092
 10
1.1435313021007874
 20
-3.3820223354591765
 10
1.1489688674553733
 20
-3.3735959700226763
 10
1.1548814945930033
 20
-3.365543327919464
 10
1.1612549394766867
 20
-3.357883808670143
 10
1.1680738480704413
 20
-3.3506358645765624
  0
LWPOLYLINE
  5
64
330
17
100
AcDbEntity
  8
0
100
AcDbPolyline
 90
65
 70
0
 10
5.420788701138959
 20
-3.878535985283523
 10
5.430882066174958
 20
-3.8890888293180295
 10
5.44048059298034
 20
-3.900087334652475
 10
5.449561140471807
 20
-3.911504984996048
 10
5.4581018163621176
 20
-3.923314253541454
 10
5.466082029940196
 20
-3.9354866693292783
 10
5.473482541713262
 20
-3.9479928858886075
 10
5.480285509791319
 20
-3.9608027519884215
 10
5.486474532902154
 20
-3.973885384329179
 10
5.492034689933156
 20
-3.987209241999352
 10
5.496952575904622
 20
-4.000742202517389
 10
5.501216334287812
 20
-4.014451639275794
 10
5.5048156855898505
 20
-4.028304500200589
 10
5.5077419521365485
 20
-4.042267387436555
 10
5.509988078993406
 20
-4.056306637866087
 10
5.5115486509743485
 20
-4.070388404267606
 10
5.512419905697194
 20
-4.084478736917793
 10
5.512599742654385
 20
-4.098543665440965
 10
5.512087728277094
 20
-4.112549280708235
 10
5.510885096980516
 20
-4.126461816589015
 10
5.508994748187825
 20
-4.140247731357762
 10
5.50642123933994
 20
-4.153873788559707
 10
5.503170774908012
 20
-4.167307137140603
 10
5.4992511914350555
 20
-4.180515390647321
 10
5.494671938642831
 20
-4.193466705308326
 10
5.489444056649523
 20
-4.206129856805817
 10
5.48358014935312
 20
-4.2184743155544115
 10
5.477094354044682
 20
-4.230470320304912
 10
5.470002307324758
 20
-4.242088949895682
 10
5.462321107405107
 20
-4.253302192978665
 10
5.454069272886634
 20
-4.2640830155519245
 10
5.445266698112904
 20
-4.274405426135905
 10
5.435934605206875
 20
-4.284244538436283
 10
5.426095492906497
 20
-4.293576631342312
 10
5.415773082322516
 20
-4.302379206116043
 10
5.404992259749256
 20
-4.310631040634514
 10
5.393779016666273
 20
-4.318312240554166
 10
5.382160387075503
 20
-4.32540428727409
 10
5.370164382325003
 20
-4.331890082582528
 10
5.357819923576408
 20
-4.337753989878931
 10
5.3451567720789175
 20
-4.342981871872238
 10
5.332205457417912
 20
-4.3475611246644625
 10
5.318997203911194
 20
-4.35148070813742
 10
5.305563855330298
 20
-4.354731172569348
 10
5.291937798128354
 20
-4.357304681417232
 10
5.278151883359606
 20
-4.359195030209924
 10
5.264239347478826
 20
-4.360397661506501
 10
5.250233732211556
 20
-4.360909675883792
 10
5.236168803688384
 20
-4.360729838926601
 10
5.222078471038198
 20
-4.359858584203755
 10
5.207996704636679
 20
-4.3582980122228125
 10
5.193957454207146
 20
-4.356051885365956
 10
5.179994566971181
 20
-4.3531256188192575
 10
5.166141706046385
 20
-4.349526267517218
 10
5.152432269287981
 20
-4.345262509134028
 10
5.138899308769943
 20
-4.340344623162562
 10
5.12557545109977
 20
-4.33478446613156
 10
5.112492818759012
 20
-4.328595443020726
 10
5.099682952659199
 20
-4.321792474942669
 10
5.087176736099869
 20
-4.3143919631696015
 10
5.075004320312045
 20
-4.306411749591524
 10
5.063195051766639
 20
-4.297871073701213
 10
5.051777401423067
 20
-4.288790526209746
 10
5.040778896088621
 20
-4.279191999404364
 10
5.030226052054116
 20
-4.269098634368366
  0
LWPOLYLINE
  5
65
330
17
100
AcDbEntity
  8
0
100
AcDbPolyline
 90
4
 70
1
 10
2.829440900520502
 20
-4.592768547022218
 10
3.199960618226367
 20
-4.592768547022218
 10
3.199960618226367
 20
-4.6982802998101025
 10
2.829440900520502
 20
-4.6982802998101025
  0
LWPOLYLINE
  5
66
330
17
100
AcDbEntity
  8
0
100
AcDbPolyline
 90
4
 70
1
 10
1.649912733431261
 20
-4.413131693420907
 10
2.020432451137125
 20
-4.413131693420907
 10
2.020432451137125
 20
-4.5186434462087925
 10
1.649912733431261
 20
-4.5186434462087925
  0
LWPOLYLINE
  5
67
330
17
100
AcDbEntity
  8
0
100
AcDbPolyline
 90
4
 70
1
 10
1.649882618889793
 20
-4.58966674925102
 10
2.0204023365956574
 20
-4.58966674925102
 10
2.0204023365956574
 20
-4.695178502038904
 10
1.649882618889793
 20
-4.695178502038904
  0
LWPOLYLINE
  5
68
330
17
100
AcDbEntity
  8
0
100
AcDbPolyline
 90
4
 70
1
 10
2.0336729356759733
 20
-3.99978166547878
 10
2.404192653381837
 20
-3.99978166547878
 10
2.404192653381837
 20
-4.1052934182666645
 10
2.0336729356759733
 20
-4.1052934182666645
  0
LWPOLYLINE
  5
69
330
17
100
AcDbEntity
  8
0
100
AcDbPolyline
 90
4
 70
1
 10
2.0336428211345052
 20
-4.1763149144364045
 10
2.4041625388403696
 20
-4.1763149144364045
 10
2.4041625388403696
 20
-4.28182666722429
 10
2.0336428211345052
 20
-4.28182666722429
  0
LWPOLYLINE
  5
6A
330
17
100
AcDbEntity
  8
0
100
AcDbPolyline
 90
4
 70
1
 10
3.6195467292782273
 20
-3.99978166547878
 10
3.9900664469840916
 20
-3.99978166547878
 10
3.9900664469840916
 20
-4.1052934182666645
 10
3.6195467292782273
 20
-4.1052934182666645
  0
LWPOLYLINE
  5
6B
330
17
100
AcDbEntity
  8
0
100
AcDbPolyline
 90
4
 70
1
 10
3.6195166147367592
 20
-4.1763149144364045
 10
3.9900363324426236
 20
-4.1763149144364045
 10
3.9900363324426236
 20
-4.28182666722429
 10
3.6195166147367592
 20
-4.28182666722429
  0
LWPOLYLINE
  5
6C
330
17
100
AcDbEntity
  8
0
100
AcDbPolyline
 90
4
 70
1
 10
4.009940321801168
 20
-4.42090847260959
 10
4.3804600395070326
 20
-4.42090847260959
 10
4.3804600395070326
 20
-4.526420225397476
 10
4.009940321801168
 20
-4.526420225397476
  0
LWPOLYLINE
  5
6D
330
17
100
AcDbEntity
  8
0
100
AcDbPolyline
 90
4
 70
1
 10
4.0099102072597
 20
-4.597443528439705
 10
4.380429924965564
 20
-4.597443528439705
 10
4.380429924965564
 20
-4.702955281227589
 10
4.0099102072597
 20
-4.702955281227589
  0
LWPOLYLINE
  5
6E
330
17
100
AcDbEntity
  8
0
100
AcDbPolyline
 90
4
 70
1
 10
-3.5369817993478896
 20
-10.755036458665916
 10
-2.515928732562465
 20
-10.755036458665916
 10
-2.515928732562465
 20
-10.873316242201957
 10
-3.5369817993478896
 20
-10.873316242201957
  0
LWPOLYLINE
  5
6F
330
17
100
AcDbEntity
  8
0
100
AcDbPolyline
 90
4
 70
1
 10
11.918034329930656
 20
-1.3583960844207812
 10
12.5
 20
-1.3583960844207812
 10
12.5
 20
-1.4826207482688862
 10
11.918034329930656
 20
-1.4826207482688862
  0
LWPOLYLINE
  5
70
330
17
100
AcDbEntity
  8
0
100
AcDbPolyline
 90
4
 70
1
 10
11.910371142792389
 20
-2.2567925997156033
 10
12.492336812861737
 20
-2.2567925997156033
 10
12.492336812861737
 20
-2.3810172635637086
 10
11.910371142792389
 20
-2.3810172635637086
  0
LWPOLYLINE
  5
71
330
17
100
AcDbEntity
  8
0
100
AcDbPolyline
 90
4
 70
1
 10
5.4888701511607705
 20
6.370683116075958
 10
6.072576044215017
 20
6.370683116075958
 10
6.072576044215017
 20
6.270915165193012
 10
5.4888701511607705
 20
6.270915165193012
  0
LWPOLYLINE
  5
72
330
17
100
AcDbEntity
  8
0
100
AcDbPolyline
 90
4
 70
1
 10
4.203550443101775
 20
-4.848574953565581
 10
5.215828216824154
 20
-4.848574953565581
 10
5.215828216824154
 20
-4.9453707160500615
 10
4.203550443101775
 20
-4.9453707160500615
  0
LWPOLYLINE
  5
73
330
17
100
AcDbEntity
  8
0
100
AcDbPolyline
 90
4
 70
1
 10
4.400532429381465
 20
-4.67353707227909
 10
4.984375211095408
 20
-4.67353707227909
 10
4.984375211095408
 20
-4.7755471868920525
 10
4.400532429381465
 20
-4.7755471868920525
  0
ENDSEC
  0
SECTION
  2
OBJECTS
  0
DICTIONARY
  5
A
330
0
100
AcDbDictionary
281
1
  3
ACAD_COLOR
350
B
  3
ACAD_GROUP
350
C
  3
ACAD_LAYOUT
350
D
  3
ACAD_MATERIAL
350
E
  3
ACAD_MLEADERSTYLE
350
F
  3
ACAD_MLINESTYLE
350
10
  3
ACAD_PLOTSETTINGS
350
11
  3
ACAD_PLOTSTYLENAME
350
12
  3
ACAD_SCALELIST
350
14
  3
ACAD_TABLESTYLE
350
15
  3
ACAD_VISUALSTYLE
350
16
  3
EZDXF_META
350
2D
  0
DICTIONARY
  5
B
330
A
100
AcDbDictionary
281
1
  0
DICTIONARY
  5
C
330
A
100
AcDbDictionary
281
1
  0
DICTIONARY
  5
D
330
A
100
AcDbDictionary
281
1
  3
Model
350
1A
  3
Layout1
350
1E
  0
DICTIONARY
  5
E
330
A
100
AcDbDictionary
281
1
  3
ByBlock
350
1F
  3
ByLayer
350
20
  3
Global
350
21
  0
DICTIONARY
  5
F
330
A
100
AcDbDictionary
281
1
  3
Standard
350
2C
  0
DICTIONARY
  5
10
330
A
100
AcDbDictionary
281
1
  3
Standard
350
22
  0
DICTIONARY
  5
11
330
A
100
AcDbDictionary
281
1
  0
ACDBDICTIONARYWDFLT
  5
12
330
A
100
AcDbDictionary
281
1
  3
Normal
350
13
100
AcDbDictionaryWithDefault
340
13
  0
ACDBPLACEHOLDER
  5
13
330
12
  0
DICTIONARY
  5
14
330
A
100
AcDbDictionary
281
1
  0
DICTIONARY
  5
15
330
A
100
AcDbDictionary
281
1
  0
DICTIONARY
  5
16
330
A
100
AcDbDictionary
281
1
  0
LAYOUT
  5
1A
330
D
100
AcDbPlotSettings
  1

  4
A3
  6

 40
7.5
 41
20.0
 42
7.5
 43
20.0
 44
420.0
 45
297.0
 46
0.0
 47
0.0
 48
0.0
 49
0.0
140
0.0
141
0.0
142
1.0
143
1.0
 70
1024
 72
1
 73
0
 74
5
  7

 75
16
 76
0
 77
2
 78
300
147
1.0
148
0.0
149
0.0
100
AcDbLayout
  1
Model
 70
1
 71
0
 10
0.0
 20
0.0
 11
420.0
 21
297.0
 12
0.0
 22
0.0
 32
0.0
 14
1e+20
 24
1e+20
 34
1e+20
 15
-1e+20
 25
-1e+20
 35
-1e+20
146
0.0
 13
0.0
 23
0.0
 33
0.0
 16
1.0
 26
0.0
 36
0.0
 17
0.0
 27
1.0
 37
0.0
 76
1
330
17
  0
LAYOUT
  5
1E
330
D
100
AcDbPlotSettings
  1

  4
A3
  6

 40
7.5
 41
20.0
 42
7.5
 43
20.0
 44
420.0
 45
297.0
 46
0.0
 47
0.0
 48
0.0
 49
0.0
140
0.0
141
0.0
142
1.0
143
1.0
 70
0
 72
1
 73
0
 74
5
  7

 75
16
 76
0
 77
2
 78
300
147
1.0
148
0.0
149
0.0
100
AcDbLayout
  1
Layout1
 70
1
 71
1
 10
0.0
 20
0.0
 11
420.0
 21
297.0
 12
0.0
 22
0.0
 32
0.0
 14
1e+20
 24
1e+20
 34
1e+20
 15
-1e+20
 25
-1e+20
 35
-1e+20
146
0.0
 13
0.0
 23
0.0
 33
0.0
 16
1.0
 26
0.0
 36
0.0
 17
0.0
 27
1.0
 37
0.0
 76
1
330
1B
  0
MATERIAL
  5
1F
102
{ACAD_REACTORS
330
E
102
}
330
E
100
AcDbMaterial
  1
ByBlock
  2

 70
0
 40
1.0
 71
1
 41
1.0
 91
-1023410177
 42
1.0
 72
1
  3

 73
1
 74
1
 75
1
 44
0.5
 73
0
 45
1.0
 46
1.0
 77
1
  4

 78
1
 79
1
170
1
 48
1.0
171
1
  6

172
1
173
1
174
1
140
1.0
141
1.0
175
1
  7

176
1
177
1
178
1
143
1.0
179
1
  8

270
1
271
1
272
1
145
1.0
146
1.0
273
1
  9

274
1
275
1
276
1
 42
1.0
 72
1
  3

 73
1
 74
1
 75
1
 94
63
  0
MATERIAL
  5
20
102
{ACAD_REACTORS
330
E
102
}
330
E
100
AcDbMaterial
  1
ByLayer
  2

 70
0
 40
1.0
 71
1
 41
1.0
 91
-1023410177
 42
1.0
 72
1
  3

 73
1
 74
1
 75
1
 44
0.5
 73
0
 45
1.0
 46
1.0
 77
1
  4

 78
1
 79
1
170
1
 48
1.0
171
1
  6

172
1
173
1
174
1
140
1.0
141
1.0
175
1
  7

176
1
177
1
178
1
143
1.0
179
1
  8

270
1
271
1
272
1
145
1.0
146
1.0
273
1
  9

274
1
275
1
276
1
 42
1.0
 72
1
  3

 73
1
 74
1
 75
1
 94
63
  0
MATERIAL
  5
21
102
{ACAD_REACTORS
330
E
102
}
330
E
100
AcDbMaterial
  1
Global
  2

 70
0
 40
1.0
 71
1
 41
1.0
 91
-1023410177
 42
1.0
 72
1
  3

 73
1
 74
1
 75
1
 44
0.5
 73
0
 45
1.0
 46
1.0
 77
1
  4

 78
1
 79
1
170
1
 48
1.0
171
1
  6

172
1
173
1
174
1
140
1.0
141
1.0
175
1
  7

176
1
177
1
178
1
143
1.0
179
1
  8

270
1
271
1
272
1
145
1.0
146
1.0
273
1
  9

274
1
275
1
276
1
 42
1.0
 72
1
  3

 73
1
 74
1
 75
1
 94
63
  0
MLINESTYLE
  5
22
102
{ACAD_REACTORS
330
10
102
}
330
10
100
AcDbMlineStyle
  2
Standard
 70
0
  3

 62
256
 51
90.0
 52
90.0
 71
2
 49
0.5
 62
256
  6
BYLAYER
 49
-0.5
 62
256
  6
BYLAYER
  0
MLEADERSTYLE
  5
2C
102
{ACAD_REACTORS
330
F
102
}
330
F
100
AcDbMLeaderStyle
179
2
170
2
171
1
172
0
 90
2
 40
0.0
 41
0.0
173
1
 91
-1056964608
 92
-2
290
1
 42
2.0
291
1
 43
8.0
  3
Standard
 44
4.0
300

342
29
174
1
175
1
176
0
178
1
 93
-1056964608
 45
4.0
292
0
297
0
 46
4.0
 94
-1056964608
 47
1.0
 49
1.0
140
1.0
294
1
141
0.0
177
0
142
1.0
295
0
296
0
143
3.75
271
0
272
9
273
9
  0
DICTIONARY
  5
2D
330
A
100
AcDbDictionary
280
1
281
1
  3
CREATED_BY_EZDXF
350
2E
  3
WRITTEN_BY_EZDXF
350
76
  0
DICTIONARYVAR
  5
2E
330
2D
100
DictionaryVariables
280
0
  1
1.4.3 @ 2026-05-01T15:52:42.165275+00:00
  0
DICTIONARYVAR
  5
76
330
2D
100
DictionaryVariables
280
0
  1
1.4.3 @ 2026-05-01T15:52:42.170280+00:00
  0
ENDSEC
  0
EOF
