<svg id="svg" xmlns="http://www.w3.org/2000/svg" xmlns:xlink="http://www.w3.org/1999/xlink" width="400" height="400" viewBox="0, 0, 400,400"><g id="svgg"><path id="path0" d="M192.819 92.631 C 117.399 96.691,70.027 178.025,103.175 246.543 C 137.823 318.160,237.378 328.128,285.015 264.750 C 340.399 191.062,285.016 87.668,192.819 92.631 M190.426 121.809 C 190.426 127.367,190.249 131.915,190.033 131.915 C 189.541 131.915,173.404 115.836,173.404 115.345 C 173.404 114.752,185.490 112.031,189.229 111.782 L 190.426 111.702 190.426 121.809 M220.346 113.633 C 223.491 114.377,226.063 115.145,226.063 115.339 C 226.061 115.753,209.743 131.915,209.326 131.915 C 209.170 131.915,209.043 127.336,209.043 121.740 L 209.043 111.565 211.835 111.922 C 213.371 112.119,217.201 112.889,220.346 113.633 M190.426 168.080 L 190.426 176.857 167.329 153.765 L 144.232 130.673 145.425 129.734 C 146.081 129.218,148.389 127.576,150.552 126.086 L 154.487 123.375 172.456 141.339 L 190.426 159.303 190.426 168.080 M251.995 128.295 C 253.531 129.427,254.787 130.526,254.787 130.737 C 254.787 130.949,244.495 141.412,231.915 153.989 L 209.043 176.857 209.043 168.086 L 209.043 159.314 226.946 141.406 L 244.848 123.497 247.025 124.867 C 248.223 125.620,250.459 127.163,251.995 128.295 M158.646 227.259 C 143.507 242.399,130.939 254.787,130.717 254.787 C 130.074 254.787,125.519 248.235,122.462 242.913 C 105.965 214.195,107.921 175.797,127.256 148.811 L 130.585 144.164 158.378 171.947 L 186.170 199.730 158.646 227.259 M272.890 150.069 C 291.203 176.806,293.198 211.277,278.118 240.426 C 275.076 246.306,269.534 254.787,268.733 254.787 C 268.521 254.787,255.902 242.340,240.691 227.128 L 213.036 199.468 240.668 171.832 C 261.235 151.263,268.468 144.337,268.959 144.744 C 269.321 145.045,271.091 147.441,272.890 150.069 M190.426 231.519 L 190.426 240.166 172.612 257.973 L 154.799 275.780 153.064 274.842 C 152.110 274.326,149.679 272.691,147.662 271.207 L 143.995 268.510 166.809 245.691 C 179.357 233.141,189.804 222.872,190.024 222.872 C 190.245 222.872,190.426 226.763,190.426 231.519 M254.787 268.734 C 254.787 269.185,247.657 274.305,245.847 275.155 C 244.702 275.692,243.425 274.536,226.831 257.948 L 209.043 240.166 209.043 231.388 L 209.043 222.611 231.915 245.479 C 244.495 258.056,254.787 268.521,254.787 268.734 M190.239 287.598 C 189.761 288.076,174.223 284.959,173.430 284.227 C 173.297 284.104,177.007 280.180,181.674 275.506 L 190.160 267.007 190.304 277.198 C 190.384 282.802,190.355 287.482,190.239 287.598 M225.532 284.104 C 225.532 284.656,211.887 287.761,209.441 287.765 C 209.222 287.766,209.043 283.161,209.043 277.533 L 209.043 267.300 217.287 275.532 C 221.822 280.059,225.532 283.917,225.532 284.104 " stroke="none" fill="#000000" fill-rule="evenodd"></path></g></svg>