  0
SECTION
  2
HEADER
  9
$ACADVER
  1
AC1024
  9
$ACADMAINTVER
 70
6
  9
$DWGCODEPAGE
  3
ANSI_1252
  9
$LASTSAVEDBY
  1
ezdxf
  9
$INSBASE
 10
0.0
 20
0.0
 30
0.0
  9
$EXTMIN
 10
1e+20
 20
1e+20
 30
1e+20
  9
$EXTMAX
 10
-1e+20
 20
-1e+20
 30
-1e+20
  9
$LIMMIN
 10
0.0
 20
0.0
  9
$LIMMAX
 10
420.0
 20
297.0
  9
$ORTHOMODE
 70
0
  9
$REGENMODE
 70
1
  9
$FILLMODE
 70
1
  9
$QTEXTMODE
 70
0
  9
$MIRRTEXT
 70
1
  9
$LTSCALE
 40
1.0
  9
$ATTMODE
 70
1
  9
$TEXTSIZE
 40
2.5
  9
$TRACEWID
 40
1.0
  9
$TEXTSTYLE
  7
Standard
  9
$CLAYER
  8
0
  9
$CELTYPE
  6
ByLayer
  9
$CECOLOR
 62
256
  9
$CELTSCALE
 40
1.0
  9
$DISPSILH
 70
0
  9
$DIMSCALE
 40
1.0
  9
$DIMASZ
 40
2.5
  9
$DIMEXO
 40
0.625
  9
$DIMDLI
 40
3.75
  9
$DIMRND
 40
0.0
  9
$DIMDLE
 40
0.0
  9
$DIMEXE
 40
1.25
  9
$DIMTP
 40
0.0
  9
$DIMTM
 40
0.0
  9
$DIMTXT
 40
2.5
  9
$DIMCEN
 40
2.5
  9
$DIMTSZ
 40
0.0
  9
$DIMTOL
 70
0
  9
$DIMLIM
 70
0
  9
$DIMTIH
 70
0
  9
$DIMTOH
 70
0
  9
$DIMSE1
 70
0
  9
$DIMSE2
 70
0
  9
$DIMTAD
 70
1
  9
$DIMZIN
 70
8
  9
$DIMBLK
  1

  9
$DIMASO
 70
1
  9
$DIMSHO
 70
1
  9
$DIMPOST
  1

  9
$DIMAPOST
  1

  9
$DIMALT
 70
0
  9
$DIMALTD
 70
3
  9
$DIMALTF
 40
0.03937007874
  9
$DIMLFAC
 40
1.0
  9
$DIMTOFL
 70
1
  9
$DIMTVP
 40
0.0
  9
$DIMTIX
 70
0
  9
$DIMSOXD
 70
0
  9
$DIMSAH
 70
0
  9
$DIMBLK1
  1

  9
$DIMBLK2
  1

  9
$DIMSTYLE
  2
ISO-25
  9
$DIMCLRD
 70
0
  9
$DIMCLRE
 70
0
  9
$DIMCLRT
 70
0
  9
$DIMTFAC
 40
1.0
  9
$DIMGAP
 40
0.625
  9
$DIMJUST
 70
0
  9
$DIMSD1
 70
0
  9
$DIMSD2
 70
0
  9
$DIMTOLJ
 70
0
  9
$DIMTZIN
 70
8
  9
$DIMALTZ
 70
0
  9
$DIMALTTZ
 70
0
  9
$DIMUPT
 70
0
  9
$DIMDEC
 70
2
  9
$DIMTDEC
 70
2
  9
$DIMALTU
 70
2
  9
$DIMALTTD
 70
3
  9
$DIMTXSTY
  7
Standard
  9
$DIMAUNIT
 70
0
  9
$DIMADEC
 70
0
  9
$DIMALTRND
 40
0.0
  9
$DIMAZIN
 70
0
  9
$DIMDSEP
 70
44
  9
$DIMATFIT
 70
3
  9
$DIMFRAC
 70
0
  9
$DIMLDRBLK
  1

  9
$DIMLUNIT
 70
2
  9
$DIMLWD
 70
-2
  9
$DIMLWE
 70
-2
  9
$DIMTMOVE
 70
0
  9
$DIMFXL
 40
1.0
  9
$DIMFXLON
 70
0
  9
$DIMJOGANG
 40
0.785398163397
  9
$DIMTFILL
 70
0
  9
$DIMTFILLCLR
 70
0
  9
$DIMARCSYM
 70
0
  9
$DIMLTYPE
  6

  9
$DIMLTEX1
  6

  9
$DIMLTEX2
  6

  9
$DIMTXTDIRECTION
 70
0
  9
$LUNITS
 70
2
  9
$LUPREC
 70
4
  9
$SKETCHINC
 40
1.0
  9
$FILLETRAD
 40
10.0
  9
$AUNITS
 70
0
  9
$AUPREC
 70
2
  9
$MENU
  1
.
  9
$ELEVATION
 40
0.0
  9
$PELEVATION
 40
0.0
  9
$THICKNESS
 40
0.0
  9
$LIMCHECK
 70
0
  9
$CHAMFERA
 40
0.0
  9
$CHAMFERB
 40
0.0
  9
$CHAMFERC
 40
0.0
  9
$CHAMFERD
 40
0.0
  9
$SKPOLY
 70
0
  9
$TDCREATE
 40
2461162.7449305556
  9
$TDUCREATE
 40
2458532.153996898
  9
$TDUPDATE
 40
2461162.7449305556
  9
$TDUUPDATE
 40
2458532.1544311
  9
$TDINDWG
 40
0.0
  9
$TDUSRTIMER
 40
0.0
  9
$USRTIMER
 70
1
  9
$ANGBASE
 50
0.0
  9
$ANGDIR
 70
0
  9
$PDMODE
 70
0
  9
$PDSIZE
 40
0.0
  9
$PLINEWID
 40
0.0
  9
$SPLFRAME
 70
0
  9
$SPLINETYPE
 70
6
  9
$SPLINESEGS
 70
8
  9
$HANDSEED
  5
3D
  9
$SURFTAB1
 70
6
  9
$SURFTAB2
 70
6
  9
$SURFTYPE
 70
6
  9
$SURFU
 70
6
  9
$SURFV
 70
6
  9
$UCSBASE
  2

  9
$UCSNAME
  2

  9
$UCSORG
 10
0.0
 20
0.0
 30
0.0
  9
$UCSXDIR
 10
1.0
 20
0.0
 30
0.0
  9
$UCSYDIR
 10
0.0
 20
1.0
 30
0.0
  9
$UCSORTHOREF
  2

  9
$UCSORTHOVIEW
 70
0
  9
$UCSORGTOP
 10
0.0
 20
0.0
 30
0.0
  9
$UCSORGBOTTOM
 10
0.0
 20
0.0
 30
0.0
  9
$UCSORGLEFT
 10
0.0
 20
0.0
 30
0.0
  9
$UCSORGRIGHT
 10
0.0
 20
0.0
 30
0.0
  9
$UCSORGFRONT
 10
0.0
 20
0.0
 30
0.0
  9
$UCSORGBACK
 10
0.0
 20
0.0
 30
0.0
  9
$PUCSBASE
  2

  9
$PUCSNAME
  2

  9
$PUCSORG
 10
0.0
 20
0.0
 30
0.0
  9
$PUCSXDIR
 10
1.0
 20
0.0
 30
0.0
  9
$PUCSYDIR
 10
0.0
 20
1.0
 30
0.0
  9
$PUCSORTHOREF
  2

  9
$PUCSORTHOVIEW
 70
0
  9
$PUCSORGTOP
 10
0.0
 20
0.0
 30
0.0
  9
$PUCSORGBOTTOM
 10
0.0
 20
0.0
 30
0.0
  9
$PUCSORGLEFT
 10
0.0
 20
0.0
 30
0.0
  9
$PUCSORGRIGHT
 10
0.0
 20
0.0
 30
0.0
  9
$PUCSORGFRONT
 10
0.0
 20
0.0
 30
0.0
  9
$PUCSORGBACK
 10
0.0
 20
0.0
 30
0.0
  9
$USERI1
 70
0
  9
$USERI2
 70
0
  9
$USERI3
 70
0
  9
$USERI4
 70
0
  9
$USERI5
 70
0
  9
$USERR1
 40
0.0
  9
$USERR2
 40
0.0
  9
$USERR3
 40
0.0
  9
$USERR4
 40
0.0
  9
$USERR5
 40
0.0
  9
$WORLDVIEW
 70
1
  9
$SHADEDGE
 70
3
  9
$SHADEDIF
 70
70
  9
$TILEMODE
 70
1
  9
$MAXACTVP
 70
64
  9
$PINSBASE
 10
0.0
 20
0.0
 30
0.0
  9
$PLIMCHECK
 70
0
  9
$PEXTMIN
 10
1e+20
 20
1e+20
 30
1e+20
  9
$PEXTMAX
 10
-1e+20
 20
-1e+20
 30
-1e+20
  9
$PLIMMIN
 10
0.0
 20
0.0
  9
$PLIMMAX
 10
420.0
 20
297.0
  9
$UNITMODE
 70
0
  9
$VISRETAIN
 70
1
  9
$PLINEGEN
 70
0
  9
$PSLTSCALE
 70
1
  9
$TREEDEPTH
 70
3020
  9
$CMLSTYLE
  2
Standard
  9
$CMLJUST
 70
0
  9
$CMLSCALE
 40
20.0
  9
$PROXYGRAPHICS
 70
1
  9
$MEASUREMENT
 70
1
  9
$CELWEIGHT
370
-1
  9
$ENDCAPS
280
0
  9
$JOINSTYLE
280
0
  9
$LWDISPLAY
290
0
  9
$INSUNITS
 70
4
  9
$HYPERLINKBASE
  1

  9
$STYLESHEET
  1

  9
$XEDIT
290
1
  9
$CEPSNTYPE
380
0
  9
$PSTYLEMODE
290
1
  9
$FINGERPRINTGUID
  2
{21B8D0FA-7ACB-4171-AAC1-DAB9B3C3B799}
  9
$VERSIONGUID
  2
{D2665ACB-7D3C-4F53-9A02-41E2B00D0CD5}
  9
$EXTNAMES
290
1
  9
$PSVPSCALE
 40
0.0
  9
$OLESTARTUP
290
0
  9
$SORTENTS
280
127
  9
$INDEXCTL
280
0
  9
$HIDETEXT
280
1
  9
$XCLIPFRAME
280
1
  9
$HALOGAP
280
0
  9
$OBSCOLOR
 70
257
  9
$OBSLTYPE
280
0
  9
$INTERSECTIONDISPLAY
280
0
  9
$INTERSECTIONCOLOR
 70
257
  9
$DIMASSOC
280
2
  9
$PROJECTNAME
  1

  9
$CAMERADISPLAY
290
0
  9
$LENSLENGTH
 40
50.0
  9
$CAMERAHEIGHT
 40
0.0
  9
$STEPSPERSEC
 40
24.0
  9
$STEPSIZE
 40
100.0
  9
$3DDWFPREC
 40
2.0
  9
$PSOLWIDTH
 40
0.005
  9
$PSOLHEIGHT
 40
0.08
  9
$LOFTANG1
 40
1.570796326795
  9
$LOFTANG2
 40
1.570796326795
  9
$LOFTMAG1
 40
0.0
  9
$LOFTMAG2
 40
0.0
  9
$LOFTPARAM
 70
7
  9
$LOFTNORMALS
280
1
  9
$LATITUDE
 40
37.795
  9
$LONGITUDE
 40
-122.394
  9
$NORTHDIRECTION
 40
0.0
  9
$TIMEZONE
 70
-8000
  9
$LIGHTGLYPHDISPLAY
280
1
  9
$TILEMODELIGHTSYNCH
280
1
  9
$CMATERIAL
347
20
  9
$SOLIDHIST
280
0
  9
$SHOWHIST
280
1
  9
$DWFFRAME
280
2
  9
$DGNFRAME
280
2
  9
$REALWORLDSCALE
290
1
  9
$INTERFERECOLOR
 62
256
  9
$CSHADOW
280
0
  9
$SHADOWPLANELOCATION
 40
0.0
  0
ENDSEC
  0
SECTION
  2
CLASSES
  0
CLASS
  1
ACDBDICTIONARYWDFLT
  2
AcDbDictionaryWithDefault
  3
ObjectDBX Classes
 90
0
 91
0
280
0
281
0
  0
CLASS
  1
SUN
  2
AcDbSun
  3
SCENEOE
 90
1153
 91
0
280
0
281
0
  0
CLASS
  1
VISUALSTYLE
  2
AcDbVisualStyle
  3
ObjectDBX Classes
 90
4095
 91
0
280
0
281
0
  0
CLASS
  1
MATERIAL
  2
AcDbMaterial
  3
ObjectDBX Classes
 90
1153
 91
0
280
0
281
0
  0
CLASS
  1
SCALE
  2
AcDbScale
  3
ObjectDBX Classes
 90
1153
 91
0
280
0
281
0
  0
CLASS
  1
TABLESTYLE
  2
AcDbTableStyle
  3
ObjectDBX Classes
 90
4095
 91
0
280
0
281
0
  0
CLASS
  1
MLEADERSTYLE
  2
AcDbMLeaderStyle
  3
ACDB_MLEADERSTYLE_CLASS
 90
4095
 91
0
280
0
281
0
  0
CLASS
  1
DICTIONARYVAR
  2
AcDbDictionaryVar
  3
ObjectDBX Classes
 90
0
 91
0
280
0
281
0
  0
CLASS
  1
CELLSTYLEMAP
  2
AcDbCellStyleMap
  3
ObjectDBX Classes
 90
1152
 91
0
280
0
281
0
  0
CLASS
  1
MENTALRAYRENDERSETTINGS
  2
AcDbMentalRayRenderSettings
  3
SCENEOE
 90
1024
 91
0
280
0
281
0
  0
CLASS
  1
ACDBDETAILVIEWSTYLE
  2
AcDbDetailViewStyle
  3
ObjectDBX Classes
 90
1025
 91
0
280
0
281
0
  0
CLASS
  1
ACDBSECTIONVIEWSTYLE
  2
AcDbSectionViewStyle
  3
ObjectDBX Classes
 90
1025
 91
0
280
0
281
0
  0
CLASS
  1
RASTERVARIABLES
  2
AcDbRasterVariables
  3
ISM
 90
0
 91
0
280
0
281
0
  0
CLASS
  1
ACDBPLACEHOLDER
  2
AcDbPlaceHolder
  3
ObjectDBX Classes
 90
0
 91
0
280
0
281
0
  0
CLASS
  1
LAYOUT
  2
AcDbLayout
  3
ObjectDBX Classes
 90
0
 91
0
280
0
281
0
  0
ENDSEC
  0
SECTION
  2
TABLES
  0
TABLE
  2
VPORT
  5
8
330
0
100
AcDbSymbolTable
 70
1
  0
VPORT
  5
23
330
8
100
AcDbSymbolTableRecord
100
AcDbViewportTableRecord
  2
*Active
 70
0
 10
0.0
 20
0.0
 11
1.0
 21
1.0
 12
0.0
 22
0.0
 13
0.0
 23
0.0
 14
0.5
 24
0.5
 15
0.5
 25
0.5
 16
0.0
 26
0.0
 36
1.0
 17
0.0
 27
0.0
 37
0.0
 40
1000.0
 41
1.34
 42
50.0
 43
0.0
 44
0.0
 50
0.0
 51
0.0
 71
0
 72
1000
 73
1
 74
3
 75
0
 76
0
 77
0
 78
0
281
0
 65
0
146
0.0
  0
ENDTAB
  0
TABLE
  2
LTYPE
  5
2
330
0
100
AcDbSymbolTable
 70
3
  0
LTYPE
  5
24
330
2
100
AcDbSymbolTableRecord
100
AcDbLinetypeTableRecord
  2
ByBlock
 70
0
  3

 72
65
 73
0
 40
0.0
  0
LTYPE
  5
25
330
2
100
AcDbSymbolTableRecord
100
AcDbLinetypeTableRecord
  2
ByLayer
 70
0
  3

 72
65
 73
0
 40
0.0
  0
LTYPE
  5
26
330
2
100
AcDbSymbolTableRecord
100
AcDbLinetypeTableRecord
  2
Continuous
 70
0
  3

 72
65
 73
0
 40
0.0
  0
ENDTAB
  0
TABLE
  2
LAYER
  5
1
330
0
100
AcDbSymbolTable
 70
2
  0
LAYER
  5
27
330
1
100
AcDbSymbolTableRecord
100
AcDbLayerTableRecord
  2
0
 70
0
 62
7
  6
Continuous
370
-3
390
13
347
21
  0
LAYER
  5
28
330
1
100
AcDbSymbolTableRecord
100
AcDbLayerTableRecord
  2
Defpoints
 70
0
 62
7
  6
Continuous
290
0
370
-3
390
13
347
21
  0
ENDTAB
  0
TABLE
  2
STYLE
  5
5
330
0
100
AcDbSymbolTable
 70
1
  0
STYLE
  5
29
330
5
100
AcDbSymbolTableRecord
100
AcDbTextStyleTableRecord
  2
Standard
 70
0
 40
0.0
 41
1.0
 50
0.0
 71
0
 42
2.5
  3
txt
  4

  0
ENDTAB
  0
TABLE
  2
VIEW
  5
7
330
0
100
AcDbSymbolTable
 70
0
  0
ENDTAB
  0
TABLE
  2
UCS
  5
6
330
0
100
AcDbSymbolTable
 70
0
  0
ENDTAB
  0
TABLE
  2
APPID
  5
3
330
0
100
AcDbSymbolTable
 70
3
  0
APPID
  5
2A
330
3
100
AcDbSymbolTableRecord
100
AcDbRegAppTableRecord
  2
ACAD
 70
0
  0
APPID
  5
3A
330
3
100
AcDbSymbolTableRecord
100
AcDbRegAppTableRecord
  2
HATCHBACKGROUNDCOLOR
 70
0
  0
APPID
  5
3B
330
3
100
AcDbSymbolTableRecord
100
AcDbRegAppTableRecord
  2
EZDXF
 70
0
  0
ENDTAB
  0
TABLE
  2
DIMSTYLE
  5
4
330
0
100
AcDbSymbolTable
 70
1
100
AcDbDimStyleTable
  0
DIMSTYLE
105
2B
330
4
100
AcDbSymbolTableRecord
100
AcDbDimStyleTableRecord
  2
Standard
 70
0
 40
1.0
 41
2.5
 42
0.625
 43
3.75
 44
1.25
 45
0.0
 46
0.0
 47
0.0
 48
0.0
 49
2.5
140
2.5
141
2.5
142
0.0
143
0.03937007874
144
1.0
145
0.0
146
1.0
147
0.625
148
0.0
 69
0
 70
0
 71
0
 72
0
 73
0
 74
0
 75
0
 76
0
 77
1
 78
8
 79
3
170
0
171
3
172
1
173
0
174
0
175
0
176
0
177
0
178
0
179
2
271
2
272
2
273
2
274
3
275
0
276
0
277
2
278
44
279
0
280
0
281
0
282
0
283
0
284
8
285
0
286
0
288
0
289
3
290
0
371
-2
372
-2
  0
ENDTAB
  0
TABLE
  2
BLOCK_RECORD
  5
9
330
0
100
AcDbSymbolTable
 70
2
  0
BLOCK_RECORD
  5
17
330
9
100
AcDbSymbolTableRecord
100
AcDbBlockTableRecord
  2
*Model_Space
340
1A
 70
0
280
1
281
0
  0
BLOCK_RECORD
  5
1B
330
9
100
AcDbSymbolTableRecord
100
AcDbBlockTableRecord
  2
*Paper_Space
340
1E
 70
0
280
1
281
0
  0
ENDTAB
  0
ENDSEC
  0
SECTION
  2
BLOCKS
  0
BLOCK
  5
18
330
17
100
AcDbEntity
  8
0
100
AcDbBlockBegin
  2
*Model_Space
 70
0
 10
0.0
 20
0.0
 30
0.0
  3
*Model_Space
  1

  0
ENDBLK
  5
19
330
17
100
AcDbEntity
  8
0
100
AcDbBlockEnd
  0
BLOCK
  5
1C
330
1B
100
AcDbEntity
  8
0
100
AcDbBlockBegin
  2
*Paper_Space
 70
0
 10
0.0
 20
0.0
 30
0.0
  3
*Paper_Space
  1

  0
ENDBLK
  5
1D
330
1B
100
AcDbEntity
  8
0
100
AcDbBlockEnd
  0
ENDSEC
  0
SECTION
  2
ENTITIES
  0
LWPOLYLINE
  5
2F
330
17
100
AcDbEntity
  8
0
100
AcDbPolyline
 90
192
 70
1
 10
-0.8092736362466935
 20
12.462479805498019
 10
-1.2185658915731798
 20
12.433765745686179
 10
-1.6229335858456513
 20
12.392109671897149
 10
-2.0222368568645455
 20
12.337751715735564
 10
-2.4163358424302963
 20
12.27093200880606
 10
-2.8050906803433553
 20
12.191890682713272
 10
-3.18836150840415
 20
12.100867869061842
 10
-3.5660084644131276
 20
11.998103699456395
 10
-3.9378916861707096
 20
11.88383830550158
 10
-4.303871311477357
 20
11.758311818802028
 10
-4.663807478133494
 20
11.621764370962374
 10
-5.017560323939565
 20
11.474436093587256
 10
-5.3649899866960045
 20
11.31656711828131
 10
-5.705956604203257
 20
11.148397576649172
 10
-6.040320314261756
 20
10.97016760029548
 10
-6.367941254671943
 20
10.782117320824868
 10
-6.688679563234259
 20
10.584486869841976
 10
-7.0023953777491315
 20
10.377516378951432
 10
-7.308948836017012
 20
10.161445979757884
 10
-7.608200075838335
 20
9.936515803865964
 10
-7.90000923501354
 20
9.702965982880302
 10
-8.184236451343063
 20
9.461036648405539
 10
-8.460741862627344
 20
9.210967932046314
 10
-8.729385606666819
 20
8.95299996540726
 10
-8.990027821261934
 20
8.687372880093015
 10
-9.24252864421312
 20
8.414326807708214
 10
-9.486748213320817
 20
8.134101879857496
 10
-9.722546666385472
 20
7.8469382281454925
 10
-9.949784141207509
 20
7.553075984176846
 10
-10.168320775587379
 20
7.2527552795561885
 10
-10.378016707325518
 20
6.946216245888157
 10
-10.57873207422236
 20
6.633699014777386
 10
-10.77032701407835
 20
6.315443717828518
 10
-10.952661664693919
 20
5.991690486646186
 10
-11.125596163869513
 20
5.662679452835026
 10
-11.288990649405571
 20
5.32865074799967
 10
-11.442705259102523
 20
4.989844503744758
 10
-11.586600130760816
 20
4.646500851674933
 10
-11.720535402180886
 20
4.298859923394821
 10
-11.844371211163171
 20
3.947161850509066
 10
-11.95796769550811
 20
3.591646764622299
 10
-12.061184993016143
 20
3.2325547973391573
 10
-12.153883241487707
 20
2.870126080264279
 10
-12.235922578723242
 20
2.504600745002304
 10
-12.307163142523185
 20
2.136218923157861
 10
-12.367465070687976
 20
1.7652207463355905
 10
-12.416688501018053
 20
1.3918463461401274
 10
-12.454693571313856
 20
1.0163358541761047
 10
-12.481340419375822
 20
0.6389294020481682
 10
-12.49648918300439
 20
0.2598671213609473
 10
-12.500000000000002
 20
-0.1206108562809154
 10
-12.491733008163092
 20
-0.5022643992727907
 10
-12.4715483452941
 20
-0.8848533760100423
 10
-12.439306149193467
 20
-1.2681376548880312
 10
-12.394866557661626
 20
-1.6518771043021183
 10
-12.338089708499023
 20
-2.0358315926476704
 10
-12.268835739506091
 20
-2.419760988320049
 10
-12.186964788483275
 20
-2.803425159714624
 10
-12.092336993231006
 20
-3.1865839752267533
 10
-11.984812491549727
 20
-3.5689973032518005
 10
-11.864251421239876
 20
-3.9504250121851303
 10
-11.730513920101892
 20
-4.330626970422106
 10
-11.583460125936213
 20
-4.709363046358092
 10
-11.42295017654328
 20
-5.086393108388457
 10
-11.248844209723527
 20
-5.461477024908552
 10
-11.054220976838474
 20
-5.847161323084922
 10
-10.848836673498711
 20
-6.222297761230101
 10
-10.633002692474928
 20
-6.586855161417795
 10
-10.40703042653782
 20
-6.940802345721727
 10
-10.171231268458083
 20
-7.284108136215599
 10
-9.925916611006402
 20
-7.6167413549731195
 10
-9.67139784695347
 20
-7.938670824068003
 10
-9.407986369069977
 20
-8.249865365573953
 10
-9.135993570126622
 20
-8.550293801564692
 10
-8.855730842894094
 20
-8.83992495411392
 10
-8.567509580143083
 20
-9.11872764529536
 10
-8.27164117464428
 20
-9.386670697182701
 10
-7.968437019168384
 20
-9.643722931849664
 10
-7.658208506486077
 20
-9.889853171369973
 10
-7.341267029368061
 20
-10.125030237817322
 10
-7.017923980585019
 20
-10.349222953265427
 10
-6.688490752907647
 20
-10.562400139787995
 10
-6.353278739106643
 20
-10.764530619458737
 10
-6.012599331952686
 20
-10.955583214351366
 10
-5.666763924216478
 20
-11.135526746539593
 10
-5.316083908668712
 20
-11.304330038097126
 10
-4.960870678080072
 20
-11.461961911097681
 10
-4.601435625221253
 20
-11.608391187614957
 10
-4.2380901428629505
 20
-11.743586689722674
 10
-3.8711456237758557
 20
-11.867517239494543
 10
-3.5009134607306547
 20
-11.98015165900427
 10
-3.1277050464980505
 20
-12.081458770325552
 10
-2.7518317738487235
 20
-12.171407395532128
 10
-2.37360503555337
 20
-12.249966356697687
 10
-1.9933362243826807
 20
-12.317104475895958
 10
-1.6113367331073583
 20
-12.372790575200632
 10
-1.2279179544980796
 20
-12.416993476685425
 10
-0.8433912813255481
 20
-12.449682002424051
 10
-0.45806810636044704
 20
-12.470824974490219
 10
-0.07225982237346977
 20
-12.480391214957638
 10
0.31372217786468376
 20
-12.478349545900024
 10
0.6995665015833268
 20
-12.464668789391078
 10
1.0849617560117695
 20
-12.439317767504521
 10
1.4695965483793183
 20
-12.402265302314046
 10
1.8531594859152867
 20
-12.35348021589339
 10
2.235339175848971
 20
-12.292931330316238
 10
2.615824225409682
 20
-12.220587467656317
 10
2.9943032418267355
 20
-12.136417449987325
 10
3.3704648323294353
 20
-12.040390099382988
 10
3.743997604147085
 20
-11.932474237917003
 10
4.114590164509001
 20
-11.812638687663082
 10
4.481931120644482
 20
-11.680852270694938
 10
4.845709079782844
 20
-11.537083809086278
 10
5.205612649153391
 20
-11.38130212491082
 10
5.561330435985428
 20
-11.213476040242274
 10
5.912551047508275
 20
-11.03357437715434
 10
6.258963090951224
 20
-10.841565957720743
 10
6.600255173543596
 20
-10.637419604015182
 10
6.9361159025146915
 20
-10.421104138111362
 10
7.266233885093823
 20
-10.19258838208301
 10
7.590297728510291
 20
-9.951841158003822
 10
7.9079960399934075
 20
-9.698831287947526
 10
8.219017426772487
 20
-9.433527593987812
 10
8.52305049607683
 20
-9.1558988981984
 10
8.81978385513575
 20
-8.865914022653001
 10
9.10890611117855
 20
-8.563541789425328
 10
9.390105871434542
 20
-8.248751020589085
 10
9.66307174313303
 20
-7.92151053821798
 10
9.92749233350332
 20
-7.581789164385736
 10
10.220411345913194
 20
-7.1770635761109975
 10
10.494631772194854
 20
-6.767638453205358
 10
10.750350731368815
 20
-6.353881797552829
 10
10.98776534245557
 20
-5.93616161103743
 10
11.20707272447565
 20
-5.51484589554317
 10
11.40846999644955
 20
-5.090302652954065
 10
11.592154277397785
 20
-4.662899885154135
 10
11.758322686340861
 20
-4.233005594027386
 10
11.90717234229929
 20
-3.8009877814578465
 10
12.038900364293587
 20
-3.3672144493295204
 10
12.153703871344247
 20
-2.932053599526429
 10
12.25177998247178
 20
-2.49587323393258
 10
12.333325816696714
 20
-2.059041354431991
 10
12.398538493039538
 20
-1.6219259629086862
 10
12.44761513052077
 20
-1.1848950612466669
 10
12.480752848160918
 20
-0.7483166513299541
 10
12.498148764980487
 20
-0.3125587350425654
 10
12.5
 20
0.12201068573148803
 10
12.486503672239953
 20
0.5550236091081886
 10
12.457856900720857
 20
0.9861120332035187
 10
12.414256804463225
 20
1.4149079561334736
 10
12.355900502487563
 20
1.8410433760140328
 10
12.282985113814377
 20
2.264150290961178
 10
12.195707757464186
 20
2.6838606990908955
 10
12.094265552457493
 20
3.0998065985191707
 10
11.978855617814805
 20
3.511619987361992
 10
11.849675072556634
 20
3.9189328637353458
 10
11.706921035703486
 20
4.321377225755207
 10
11.550790626275889
 20
4.71858507153757
 10
11.381480963294324
 20
5.110188399198414
 10
11.199189165779304
 20
5.495819206853729
 10
11.004112352751362
 20
5.875109492619495
 10
10.79644764323099
 20
6.247691254611704
 10
10.576392156238699
 20
6.613196490946331
 10
10.344143010794992
 20
6.971257199739371
 10
10.099897325920397
 20
7.321505379106808
 10
9.843852220635394
 20
7.663573027164618
 10
9.576204813960526
 20
7.997092142028794
 10
9.297152224916275
 20
8.321694721815321
 10
9.006891572523164
 20
8.637012764640177
 10
8.7056199758017
 20
8.942678268619355
 10
8.393534553772389
 20
9.238323231868836
 10
8.070832425455745
 20
9.523579652504608
 10
7.7377107098722675
 20
9.798079528642655
 10
7.394366526042471
 20
10.061454858398957
 10
7.040996992986874
 20
10.313337639889504
 10
6.677799229725978
 20
10.553359871230281
 10
6.304970355280287
 20
10.781153550537272
 10
5.922707488670317
 20
10.996350675926461
 10
5.531207748916572
 20
11.198583245513838
 10
5.1306682550395735
 20
11.38748325741538
 10
4.721286126059814
 20
11.562682709747074
 10
4.30325848099781
 20
11.723813600624913
 10
3.876782438874075
 20
11.870507928164873
 10
3.442055118709108
 20
12.002397690482944
 10
2.999273639523434
 20
12.11911488569511
 10
2.548635120337542
 20
12.220291511917353
 10
2.0903366801719594
 20
12.305559567265659
 10
1.6245754380471897
 20
12.374551049856018
 10
1.1515485129837364
 20
12.426897957804409
 10
0.6714530240021096
 20
12.46223228922682
 10
0.18448609012282613
 20
12.480186042239236
 10
-0.30915516963361056
 20
12.480391214957638
  0
LWPOLYLINE
  5
30
330
17
100
AcDbEntity
  8
0
100
AcDbPolyline
 90
194
 70
1
 10
-1.0879525481909404
 20
9.064530247324498
 10
-1.0879675840704108
 20
9.034277571821287
 10
-1.0880124464861916
 20
9.004206622287006
 10
-1.0880867676043189
 20
8.974326829131433
 10
-1.0881901795908324
 20
8.944647622764357
 10
-1.0883223146117778
 20
8.915178433595553
 10
-1.0884828048331883
 20
8.885928692034806
 10
-1.0886712824211064
 20
8.856907828491893
 10
-1.0888873795415683
 20
8.8281252733766
 10
-1.0891307283606237
 20
8.799590457098704
 10
-1.0894009610443052
 20
8.771312810067993
 10
-1.0896977097586522
 20
8.743301762694243
 10
-1.0900206066697111
 20
8.715566745387234
 10
-1.0903692839435177
 20
8.688117188556753
 10
-1.090743373746115
 20
8.660962522612575
 10
-1.091142508243539
 20
8.634112177964488
 10
-1.0915663196018361
 20
8.60757558502227
 10
-1.0920144399870388
 20
8.5813621741957
 10
-1.0924865015651932
 20
8.555481375894562
 10
-1.0929821365023358
 20
8.52994262052864
 10
-1.0935009769645092
 20
8.504755338507712
 10
-1.094042655117756
 20
8.479928960241558
 10
-1.094606803128109
 20
8.455472916139962
 10
-1.095193053161618
 20
8.431396636612705
 10
-1.0958010373843123
 20
8.407709552069567
 10
-1.0964303879622415
 20
8.384421092920334
 10
-1.0970807370614382
 20
8.36154068957478
 10
-1.0977517168479485
 20
8.339077772442693
 10
-1.0984429594878151
 20
8.317041771933845
 10
-1.099154097147068
 20
8.295442118458032
 10
-1.0998847619917527
 20
8.274288242425024
 10
-1.100634586187909
 20
8.253589574244605
 10
-1.101403201901583
 20
8.233355544326557
 10
-1.1021902412988074
 20
8.21359558308066
 10
-1.1029953365456184
 20
8.194319120916699
 10
-1.1038181198080623
 20
8.175535588244452
 10
-1.104658223252185
 20
8.157254415473702
 10
-1.1055152790440193
 20
8.139485033014234
 10
-1.1063889193496081
 20
8.122236871275817
 10
-1.107278776334994
 20
8.105519360668245
 10
-1.1081844821662068
 20
8.089341931601291
 10
-1.1091056690092957
 20
8.073714014484748
 10
-1.1100419690303003
 20
8.05864503972838
 10
-1.1109930143952598
 20
8.044144437741988
 10
-1.1119584372702107
 20
8.030221638935338
 10
-1.1129378698211958
 20
8.016886073718217
 10
-1.1139309442142609
 20
8.004147172500407
 10
-1.1149372926154388
 20
7.992014365691686
 10
-1.1159565471907693
 20
7.980497083701839
 10
-1.1169883401062983
 20
7.96960475694065
 10
-1.1180323035280622
 20
7.959346815817894
 10
-1.1190880696221033
 20
7.949732690743353
 10
-1.1201552705544582
 20
7.940771812126812
 10
-1.1212335384911694
 20
7.932473610378054
 10
-1.1223225055982766
 20
7.924847515906851
 10
-1.1234218040418222
 20
7.917902959122992
 10
-1.124531065987843
 20
7.911649370436259
 10
-1.1256499236023811
 20
7.906096180256432
 10
-1.1267780090514765
 20
7.901252818993286
 10
-1.1279149545011682
 20
7.897128717056612
 10
-1.1290603921174993
 20
7.893733304856186
 10
-1.1302139540665093
 20
7.891076012801792
 10
-1.131375272514234
 20
7.889166271303211
 10
-1.1325439796267167
 20
7.888013510770219
 10
-1.1337197075699998
 20
7.887627161612607
 10
-1.137725789891819
 20
7.888984549332476
 10
-1.1443160337235943
 20
7.893000441004134
 10
-1.1534057253050949
 20
7.899590429395656
 10
-1.1649101508761026
 20
7.90867010727512
 10
-1.1787445966763934
 20
7.920155067410599
 10
-1.1948243489457462
 20
7.933960902570174
 10
-1.2130646939239362
 20
7.950003205521918
 10
-1.2333809178507324
 20
7.968197569033911
 10
-1.2556883069659175
 20
7.988459585874218
 10
-1.2799021475092662
 20
8.010704848810931
 10
-1.3059377257205549
 20
8.034848950612114
 10
-1.333710327839562
 20
8.06080748404585
 10
-1.3631352401060663
 20
8.088496041880205
 10
-1.3941277487598338
 20
8.117830216883272
 10
-1.4266031400406498
 20
8.148725601823111
 10
-1.4604767001882863
 20
8.181097789467811
 10
-1.4956637154425227
 20
8.214862372585438
 10
-1.5320794720431343
 20
8.249934943944071
 10
-1.5696392562298964
 20
8.286231096311791
 10
-1.6082583542425883
 20
8.323666422456666
 10
-1.647852052320979
 20
8.36215651514678
 10
-1.68833563670485
 20
8.401616967150208
 10
-1.7296243936339777
 20
8.44196337123502
 10
-1.771633609348147
 20
8.483111320169296
 10
-1.8142785700871138
 20
8.524976406721116
 10
-1.8574745620906703
 20
8.56747422365855
 10
-1.9011368715985921
 20
8.610520363749679
 10
-1.945180784850638
 20
8.654030419762572
 10
-1.9895215880866068
 20
8.69791998446531
 10
-2.034074567546271
 20
8.74210465062597
 10
-2.0787550094693956
 20
8.786500011012631
 10
-2.1234782000957635
 20
8.831021658393363
 10
-2.1681594256651535
 20
8.875585185536243
 10
-2.212713972417334
 20
8.920106185209352
 10
-2.2570571265920942
 20
8.96450025018076
 10
-2.30110417442919
 20
9.008682973218546
 10
-2.3447704021684226
 20
9.052569947090785
 10
-2.3879710960495486
 20
9.096076764565558
 10
-2.4306215423123563
 20
9.139119018410934
 10
-2.4726370271966185
 20
9.181612301394994
 10
-2.513932836942107
 20
9.223472206285814
 10
-2.5544242577886007
 20
9.264614325851468
 10
-2.594026575975875
 20
9.304954252860032
 10
-2.6326550777437125
 20
9.344407580079583
 10
-2.670225049331885
 20
9.382889900278197
 10
-2.7066517769801655
 20
9.42031680622395
 10
-2.7418505469283354
 20
9.45660389068492
 10
-2.7757366454161674
 20
9.491666746429186
 10
-2.8082253586834467
 20
9.525420966224813
 10
-2.8392319729699325
 20
9.557782142839885
 10
-2.868671774515417
 20
9.588665869042478
 10
-2.8964600495596655
 20
9.61798773760067
 10
-2.922512084342464
 20
9.64566334128253
 10
-2.9467431651035807
 20
9.671608272856142
 10
-2.9690685780827986
 20
9.69573812508958
 10
-2.9894036095198895
 20
9.717968490750915
 10
-3.007663545654632
 20
9.738214962608229
 10
-3.0237636727268025
 20
9.756393133429597
 10
-3.037619276976176
 20
9.772418595983096
 10
-3.0491456446425245
 20
9.786206943036795
 10
-3.0582580619656308
 20
9.79767376735878
 10
-3.06487181518527
 20
9.806734661717122
 10
-3.068902190541218
 20
9.813305218879897
 10
-3.0702644742732503
 20
9.817301031615184
 10
-3.0692426781784907
 20
9.820717604930152
 10
-3.066213598837699
 20
9.824484931914977
 10
-3.061231699666101
 20
9.828590751437662
 10
-3.054351444078916
 20
9.833022802366218
 10
-3.0456272954913737
 20
9.837768823568647
 10
-3.035113717318691
 20
9.842816553912956
 10
-3.022865172976097
 20
9.84815373226715
 10
-3.0089361258788108
 20
9.85376809749924
 10
-2.993381039442066
 20
9.859647388477224
 10
-2.976254377081075
 20
9.865779344069118
 10
-2.9576106022110715
 20
9.872151703142919
 10
-2.9375041782472775
 20
9.878752204566638
 10
-2.91598956860491
 20
9.885568587208281
 10
-2.893121236699198
 20
9.892588589935855
 10
-2.8689536459453677
 20
9.89979995161736
 10
-2.8435412597586454
 20
9.907190411120808
 10
-2.816938541554248
 20
9.914747707314207
 10
-2.7891999547473976
 20
9.922459579065558
 10
-2.760379962753327
 20
9.930313765242872
 10
-2.730533028987257
 20
9.93829800471415
 10
-2.699713616864406
 20
9.9464000363474
 10
-2.6679761898000103
 20
9.954607599010629
 10
-2.6353752112092836
 20
9.96290843157184
 10
-2.6019651445074543
 20
9.971290272899044
 10
-2.567800453109743
 20
9.979740861860247
 10
-2.532935600431376
 20
9.98824793732345
 10
-2.4974250498875783
 20
9.996799238156663
 10
-2.461323264893574
 20
10.00538250322789
 10
-2.4246847088645853
 20
10.01398547140514
 10
-2.387563845215839
 20
10.022595881556418
 10
-2.350015137362551
 20
10.03120147254973
 10
-2.312093048719958
 20
10.039789983253078
 10
-2.273852042703272
 20
10.048349152534476
 10
-2.235346582727733
 20
10.056866719261928
 10
-2.1966311322085446
 20
10.065330422303433
 10
-2.157760154560942
 20
10.073728000527005
 10
-2.118788113200152
 20
10.08204719280065
 10
-2.079769471541397
 20
10.090275737992368
 10
-2.0407586929998938
 20
10.098401374970166
 10
-2.001810240990872
 20
10.106411842602057
 10
-1.9629785789295573
 20
10.114294879756045
 10
-1.9243181702311698
 20
10.12203822530013
 10
-1.8858834783109386
 20
10.129629618102324
 10
-1.8477289665840804
 20
10.137056797030631
 10
-1.809909098465828
 20
10.144307500953058
 10
-1.7724783373713973
 20
10.151369468737611
 10
-1.7354911467160148
 20
10.158230439252298
 10
-1.6990019899149067
 20
10.16487815136512
 10
-1.6630653303832992
 20
10.171300343944088
 10
-1.627735631536412
 20
10.177484755857206
 10
-1.593067356789468
 20
10.183419125972478
 10
-1.5591149695576965
 20
10.189091193157916
 10
-1.525932933256314
 20
10.194488696281521
 10
-1.4935757113005568
 20
10.199599374211301
 10
-1.462097767105634
 20
10.20441096581526
 10
-1.4315535640867825
 20
10.208911209961409
 10
-1.4019975656592145
 20
10.21308784551775
 10
-1.3734842352381669
 20
10.216928611352293
 10
-1.3460680362388522
 20
10.220421246333038
 10
-1.3198034320765035
 20
10.223553489327996
 10
-1.2947448861663369
 20
10.226313079205172
 10
-1.2709468619235853
 20
10.22868775483257
 10
-1.248463822763465
 20
10.2306652550782
 10
-1.2273502321012022
 20
10.232233318810065
 10
-1.0879525481909404
 20
10.241549788912673
  0
LWPOLYLINE
  5
31
330
17
100
AcDbEntity
  8
0
100
AcDbPolyline
 90
258
 70
1
 10
2.3964072701842665
 20
10.016673491810986
 10
2.413525651838722
 20
10.012610311707538
 10
2.4305409573550576
 20
10.008544631399351
 10
2.447447858471785
 20
10.004478044833585
 10
2.4642410269274198
 20
10.000412145957391
 10
2.48091513446047
 20
9.996348528717935
 10
2.49746485280944
 20
9.992288787062375
 10
2.5138848537128324
 20
9.988234514937869
 10
2.5301698089091755
 20
9.984187306291576
 10
2.546314390136971
 20
9.980148755070656
 10
2.5623132691347235
 20
9.97612045522227
 10
2.5781611176409456
 20
9.972104000693575
 10
2.5938526073941546
 20
9.96810098543173
 10
2.609382410132843
 20
9.964113003383897
 10
2.624745197595539
 20
9.96014164849723
 10
2.639935641520738
 20
9.956188514718892
 10
2.6549484136469608
 20
9.95225519599604
 10
2.669778185712707
 20
9.948343286275838
 10
2.684419629456494
 20
9.94445437950544
 10
2.698867416616827
 20
9.940590069632009
 10
2.7131162189322153
 20
9.9367519506027
 10
2.7271607081411764
 20
9.932941616364674
 10
2.7409955559822055
 20
9.929160660865096
 10
2.7546154341938243
 20
9.925410678051115
 10
2.768015014514538
 20
9.921693261869896
 10
2.781188968682859
 20
9.918010006268597
 10
2.794131968437291
 20
9.914362505194378
 10
2.80683868551635
 20
9.910752352594397
 10
2.8193037916585406
 20
9.907181142415816
 10
2.8315219586023783
 20
9.90365046860579
 10
2.843487858086368
 20
9.90016192511148
 10
2.8551961618490176
 20
9.896717105880047
 10
2.866641541628843
 20
9.893317604858646
 10
2.877818669164349
 20
9.889965015994443
 10
2.8887222161940502
 20
9.886660933234591
 10
2.8993468544564487
 20
9.883406950526252
 10
2.909687255690056
 20
9.880204661816585
 10
2.9197380916333913
 20
9.877055661052745
 10
2.9294940340249487
 20
9.873961542181899
 10
2.93894975460325
 20
9.870923899151201
 10
2.948099925106801
 20
9.867944325907809
 10
2.956939217274109
 20
9.865024416398889
 10
2.965462302843687
 20
9.862165764571591
 10
2.973663853554046
 20
9.859369964373084
 10
2.9815385411436877
 20
9.856638609750519
 10
2.9890810373511303
 20
9.853973294651059
 10
2.9962860139148795
 20
9.851375613021862
 10
3.0031481425734468
 20
9.848847158810086
 10
3.00966209506534
 20
9.846389525962895
 10
3.015822543129062
 20
9.844004308427447
 10
3.02162415850314
 20
9.841693100150897
 10
3.02706161292607
 20
9.839457495080406
 10
3.03212957813636
 20
9.837299087163133
 10
3.036822725872528
 20
9.835219470346239
 10
3.0411357278730864
 20
9.833220238576882
 10
3.045063255876533
 20
9.831302985802221
 10
3.0485999816213805
 20
9.829469305969413
 10
3.0517405768461394
 20
9.827720793025623
 10
3.0544797132893255
 20
9.82605904091801
 10
3.0568120626894437
 20
9.824485643593727
 10
3.0587322967850055
 20
9.823002194999935
 10
3.0602350873145134
 20
9.821610289083797
 10
3.061315106016488
 20
9.820311519792469
 10
3.061967024629429
 20
9.81910748107311
 10
3.062185514891853
 20
9.81799976687288
 10
3.0607972388927243
 20
9.814410747844322
 10
3.0567114951967063
 20
9.808220337749892
 10
3.0500141570406254
 20
9.799513591529145
 10
3.040791097661322
 20
9.788375564121624
 10
3.0291281902956326
 20
9.774891310466883
 10
3.0151113081803937
 20
9.759145885504466
 10
2.9988263245524425
 20
9.741224344173926
 10
2.9803591126486113
 20
9.721211741414807
 10
2.9597955457057443
 20
9.699193132166664
 10
2.937221496960668
 20
9.67525357136904
 10
2.912722839650222
 20
9.64947811396149
 10
2.886385447011243
 20
9.621951814883554
 10
2.858295192280568
 20
9.592759729074789
 10
2.828537948695033
 20
9.561986911474737
 10
2.797199589491469
 20
9.529718417022952
 10
2.7643659879067215
 20
9.496039300658982
 10
2.730123017177621
 20
9.46103461732237
 10
2.694556550541008
 20
9.424789421952672
 10
2.6577524612337116
 20
9.387388769489435
 10
2.6197966224925686
 20
9.348917714872206
 10
2.5807749075544226
 20
9.309461313040533
 10
2.540773189656107
 20
9.269104618933966
 10
2.499877342034451
 20
9.227932687492055
 10
2.4581732379262955
 20
9.18603057365435
 10
2.4157467505684838
 20
9.143483332360393
 10
2.372683753197838
 20
9.10037601854974
 10
2.3290701190512064
 20
9.056793687161935
 10
2.284991721365418
 20
9.012821393136532
 10
2.2405344333773125
 20
8.968544191413073
 10
2.195784128323724
 20
8.924047136931112
 10
2.1508266794414888
 20
8.879415284630193
 10
2.1057479599674465
 20
8.83473368944987
 10
2.0606338431384277
 20
8.790087406329688
 10
2.015570202191275
 20
8.745561490209198
 10
1.9706429103628191
 20
8.70124099602795
 10
1.9259378408898997
 20
8.65721097872549
 10
1.8815408670093468
 20
8.613556493241363
 10
1.83753786195801
 20
8.570362594515128
 10
1.7940146989727064
 20
8.527714337486321
 10
1.751057251290289
 20
8.485696777094502
 10
1.708751392147585
 20
8.444394968279214
 10
1.6671829947814336
 20
8.403893965980007
 10
1.6264379324286653
 20
8.36427882513643
 10
1.5866020783261297
 20
8.325634600688032
 10
1.5477613057106472
 20
8.288046347574358
 10
1.5100014878190673
 20
8.251599120734964
 10
1.4734084978882138
 20
8.216377975109392
 10
1.4380682091549295
 20
8.182467965637196
 10
1.4040664948560548
 20
8.149954147257922
 10
1.3714892282284195
 20
8.118921574911116
 10
1.34042228250886
 20
8.089455303536335
 10
1.3109515309342135
 20
8.061640388073117
 10
1.2831628467413194
 20
8.035561883461018
 10
1.2571421031670116
 20
8.011304844639586
 10
1.2329751734481227
 20
7.988954326548369
 10
1.2107479308214932
 20
7.968595384126914
 10
1.1905462485239562
 20
7.950313072314771
 10
1.1724559997923516
 20
7.934192446051489
 10
1.1565630578635129
 20
7.920318560276618
 10
1.1429532959742765
 20
7.908776469929701
 10
1.1317125873614795
 20
7.899651229950295
 10
1.1229268052619548
 20
7.893027895277946
 10
1.1166818229125457
 20
7.888991520852199
 10
1.1130635135500822
 20
7.887627161612607
 10
1.1122144470407749
 20
7.888016144248136
 10
1.1113705888471013
 20
7.889176762567455
 10
1.110532200184485
 20
7.891099522189659
 10
1.1096995422683438
 20
7.893774928733842
 10
1.1088728763140943
 20
7.8971934878191
 10
1.1080524635371674
 20
7.9013457050645295
 10
1.1072385651529733
 20
7.906222086089225
 10
1.1064314423769428
 20
7.911813136512282
 10
1.1056313564244895
 20
7.918109361952791
 10
1.1048385685110342
 20
7.925101268029856
 10
1.1040533398520007
 20
7.932779360362563
 10
1.103275931662806
 20
7.941134144570013
 10
1.1025066051588777
 20
7.950156126271296
 10
1.101745621555629
 20
7.959835811085515
 10
1.1009932420684843
 20
7.9701637046317595
 10
1.100249727912864
 20
7.981130312529129
 10
1.0995153403041886
 20
7.992726140396713
 10
1.0987903404578785
 20
8.004941693853608
 10
1.0980749895893578
 20
8.017767478518914
 10
1.097369548914037
 20
8.031194000011718
 10
1.0966742796473496
 20
8.045211763951125
 10
1.0959894430047132
 20
8.059811275956225
 10
1.095315300201548
 20
8.074983041646112
 10
1.0946521124532618
 20
8.090717566639881
 10
1.0940001409752975
 20
8.107005356556632
 10
1.0933596469830598
 20
8.123836917015455
 10
1.0927308916919756
 20
8.141202753635449
 10
1.092114136317462
 20
8.159093372035706
 10
1.0915096420749462
 20
8.177499277835318
 10
1.0909176701798422
 20
8.19641097665339
 10
1.0903384818475739
 20
8.21581897410901
 10
1.0897723382935613
 20
8.23571377582128
 10
1.0892195007332257
 20
8.256085887409284
 10
1.0886802303819905
 20
8.276925814492127
 10
1.088154788455273
 20
8.298224062688899
 10
1.087643436168497
 20
8.3199711376187
 10
1.0871464347370698
 20
8.342157544900617
 10
1.0866640453764351
 20
8.364773790153752
 10
1.0861965293019937
 20
8.3878103789972
 10
1.0857441477291792
 20
8.411257817050053
 10
1.0853071618734087
 20
8.43510660993141
 10
1.0848858329500997
 20
8.459347263260364
 10
1.0844804221746724
 20
8.483970282656006
 10
1.0840911907625512
 20
8.508966173737438
 10
1.0837183999291526
 20
8.534325442123752
 10
1.0833623108899044
 20
8.560038593434042
 10
1.0830231848602268
 20
8.586096133287407
 10
1.0827012830555303
 20
8.612488567302943
 10
1.0823968666912456
 20
8.639206401099736
 10
1.0821101969827895
 20
8.66624014029689
 10
1.0818415351455832
 20
8.6935802905135
 10
1.0815911423950533
 20
8.72121735736866
 10
1.0813592799466074
 20
8.749141846481457
 10
1.0811462090156756
 20
8.777344263470999
 10
1.080952190817679
 20
8.805815113956374
 10
1.0807774865680342
 20
8.834544903556676
 10
1.0806223574821652
 20
8.863524137891005
 10
1.0804870647754896
 20
8.892743322578454
 10
1.0803718696634308
 20
8.922192963238121
 10
1.0802770333614127
 20
8.951863565489093
 10
1.0802028170848461
 20
8.981745634950475
 10
1.0801494820491648
 20
9.011829677241355
 10
1.080117289469779
 20
9.04210619798083
 10
1.0801065005621098
 20
9.072565702787998
 10
1.0801065005621098
 20
10.257504243963389
 10
1.4052513071431116
 20
10.215929496130503
 10
1.4138304731757585
 20
10.214805491061746
 10
1.4227930314785329
 20
10.213585334728988
 10
1.432131041635741
 20
10.212270623744846
 10
1.4418365632316827
 20
10.21086295472195
 10
1.4519016558506648
 20
10.209363924272916
 10
1.4623183790769865
 20
10.207775129010372
 10
1.4730787924949482
 20
10.206098165546937
 10
1.484174955688856
 20
10.204334630495234
 10
1.4955989282430098
 20
10.202486120467887
 10
1.5073427697417094
 20
10.200554232077518
 10
1.5193985397692646
 20
10.19854056193675
 10
1.5317582979099689
 20
10.196446706658207
 10
1.5444141037481314
 20
10.19427426285451
 10
1.5573580168680525
 20
10.19202482713828
 10
1.5705820968540283
 20
10.189699996122144
 10
1.5840784032903656
 20
10.18730136641872
 10
1.5978389957613741
 20
10.184830534640634
 10
1.6118559338513467
 20
10.182289097400508
 10
1.626121277144587
 20
10.179678651310963
 10
1.6406270852253977
 20
10.177000792984625
 10
1.655365417678082
 20
10.174257119034117
 10
1.67032833408694
 20
10.171449226072056
 10
1.685507894036278
 20
10.168578710711067
 10
1.7008961571103989
 20
10.165647169563776
 10
1.7164851828935963
 20
10.162656199242804
 10
1.7322670309701798
 20
10.159607396360773
 10
1.7482337609244492
 20
10.156502357530302
 10
1.7643774323407075
 20
10.153342679364021
 10
1.7806901048032613
 20
10.150129958474547
 10
1.7971638378964039
 20
10.146865791474507
 10
1.8137906912044415
 20
10.143551774976519
 10
1.8305627243116775
 20
10.140189505593211
 10
1.8474719968024114
 20
10.136780579937202
 10
1.8645105682609566
 20
10.133326594621115
 10
1.8816704982715995
 20
10.129829146257574
 10
1.8989438464186466
 20
10.126289831459202
 10
1.9163226722864075
 20
10.122710246838619
 10
1.933799035459179
 20
10.119091989008446
 10
1.9513649955212609
 20
10.115436654581313
 10
1.9690126120569627
 20
10.111745840169839
 10
1.986733944650581
 20
10.108021142386644
 10
2.004521052886419
 20
10.104264157844353
 10
2.022365996348783
 20
10.100476483155592
 10
2.040260834621963
 20
10.096659714932976
 10
2.0581976272902756
 20
10.092815449789136
 10
2.076168433938017
 20
10.088945284336688
 10
2.094165314149487
 20
10.085050815188257
 10
2.1121803275089928
 20
10.081133638956468
 10
2.130205533600833
 20
10.07719535225394
 10
2.148232992009315
 20
10.073237551693296
 10
2.1662547623187343
 20
10.069261833887166
 10
2.184262904113395
 20
10.065269795448163
 10
2.202249476977607
 20
10.061263032988913
 10
2.220206540495656
 20
10.057243143122042
 10
2.2381261542518556
 20
10.053211722460164
 10
2.2560003778305124
 20
10.049170367615913
 10
2.273821270815919
 20
10.045120675201904
 10
2.2915808927923855
 20
10.041064241830762
 10
2.3092713033442087
 20
10.03700266411511
 10
2.326884562055688
 20
10.03293753866757
 10
2.3444127285111334
 20
10.028870462100766
 10
2.361847862294841
 20
10.024803031027318
 10
2.379182022991121
 20
10.020736842059849
  0
LWPOLYLINE
  5
32
330
17
100
AcDbEntity
  8
0
100
AcDbPolyline
 90
72
 70
1
 10
-1.0879525481909404
 20
3.676000395852601
 10
-1.0879525481909404
 20
2.6538671697202774
 10
-3.777733922690006
 20
5.343066264837934
 10
-6.467515297189075
 20
8.032265359955588
 10
-6.328583436783939
 20
8.141617427784942
 10
-6.324862309833318
 20
8.144529678528807
 10
-6.320864158598071
 20
8.147630606770349
 10
-6.316593772916079
 20
8.150916806047249
 10
-6.3120559426251965
 20
8.154384869897175
 10
-6.307255457563303
 20
8.158031391857811
 10
-6.302197107568257
 20
8.161852965466833
 10
-6.29688568247793
 20
8.165846184261909
 10
-6.291325972130197
 20
8.170007641780725
 10
-6.285522766362912
 20
8.174333931560955
 10
-6.279480855013954
 20
8.178821647140273
 10
-6.2732050279211915
 20
8.183467382056358
 10
-6.266700074922482
 20
8.188267729846885
 10
-6.259970785855707
 20
8.193219284049531
 10
-6.253021950558722
 20
8.198318638201975
 10
-6.245858358869403
 20
8.203562385841888
 10
-6.238484800625618
 20
8.20894712050695
 10
-6.23090606566523
 20
8.21446943573484
 10
-6.2231269438261165
 20
8.22012592506323
 10
-6.215152224946134
 20
8.225913182029798
 10
-6.206986698863155
 20
8.231827800172217
 10
-6.198635155415049
 20
8.237866373028172
 10
-6.190102384439684
 20
8.244025494135332
 10
-6.181393175774924
 20
8.250301757031377
 10
-6.172512319258649
 20
8.256691755253982
 10
-6.1634646047287065
 20
8.263192082340822
 10
-6.154254822022988
 20
8.269799331829578
 10
-6.1448877609793415
 20
8.276510097257924
 10
-6.135368211435646
 20
8.283320972163533
 10
-6.125700963229769
 20
8.290228550084091
 10
-6.115890806199574
 20
8.297229424557266
 10
-6.1059425301829355
 20
8.304320189120736
 10
-6.095860925017713
 20
8.311497437312177
 10
-6.085650780541781
 20
8.31875776266927
 10
-6.0753168865930025
 20
8.326097758729684
 10
-6.064864033009255
 20
8.333514019031103
 10
-6.054297009628392
 20
8.341003137111201
 10
-6.043620606288301
 20
8.348561706507653
 10
-6.032839612826832
 20
8.356186320758134
 10
-6.021958819081862
 20
8.363873573400326
 10
-6.010983014891254
 20
8.3716200579719
 10
-5.99991699009288
 20
8.379422368010536
 10
-5.988765534524609
 20
8.387277097053909
 10
-5.977533438024303
 20
8.395180838639696
 10
-5.966225490429841
 20
8.403130186305573
 10
-5.954846481579077
 20
8.411121733589214
 10
-5.943401201309891
 20
8.419152074028302
 10
-5.9318944394601445
 20
8.42721780116051
 10
-5.9203309858677065
 20
8.435315508523509
 10
-5.908715630370448
 20
8.443441789654987
 10
-5.897053162806234
 20
8.451593238092608
 10
-5.8853483730129295
 20
8.459766447374061
 10
-5.873606050828412
 20
8.467958011037014
 10
-5.861830986090539
 20
8.476164522619143
 10
-5.850027968637185
 20
8.48438257565813
 10
-5.8382017883062165
 20
8.492608763691646
 10
-5.8263572349355055
 20
8.500839680257373
 10
-5.814499098362912
 20
8.509071918892982
 10
-5.802632168426308
 20
8.517302073136152
 10
-5.790761234963563
 20
8.525526736524561
 10
-5.778891087812543
 20
8.533742502595885
 10
-5.767026516811116
 20
8.541945964887796
 10
-5.755172311797152
 20
8.550133716937978
 10
-5.743333262608518
 20
8.558302352284102
 10
-5.731514159083083
 20
8.566448464463845
 10
-5.273260285911077
 20
8.882160345065957
 10
-3.1806646449891502
 20
6.790146983525442
 10
-1.0879525481909404
 20
4.698133621984928
  0
LWPOLYLINE
  5
33
330
17
100
AcDbEntity
  8
0
100
AcDbPolyline
 90
198
 70
1
 10
6.082119298652076
 20
8.309197433755596
 10
6.09047980560961
 20
8.303021188378327
 10
6.098789945969284
 20
8.296852851431197
 10
6.107047118238744
 20
8.290694701885476
 10
6.115248720925639
 20
8.284549018712434
 10
6.123392152537616
 20
8.278418080883345
 10
6.13147481158231
 20
8.272304167369484
 10
6.139494096567388
 20
8.266209557142124
 10
6.147447406000477
 20
8.260136529172536
 10
6.155332138389233
 20
8.254087362431994
 10
6.1631456922413035
 20
8.248064335891769
 10
6.170885466064334
 20
8.242069728523138
 10
6.178548858365964
 20
8.236105819297368
 10
6.186133267653845
 20
8.230174887185736
 10
6.193636092435629
 20
8.224279211159512
 10
6.201054731218958
 20
8.218421070189972
 10
6.208386582511478
 20
8.212602743248388
 10
6.21562904482084
 20
8.20682650930603
 10
6.222779516654679
 20
8.201094647334168
 10
6.229835396520646
 20
8.195409436304086
 10
6.236794082926397
 20
8.189773155187044
 10
6.243652974379574
 20
8.184188082954323
 10
6.250409469387816
 20
8.178656498577196
 10
6.257060966458769
 20
8.173180681026928
 10
6.263604864100096
 20
8.167762909274803
 10
6.270038560819432
 20
8.162405462292083
 10
6.27635945512442
 20
8.157110619050048
 10
6.2825649455227115
 20
8.15188065851997
 10
6.288652430521952
 20
8.146717859673117
 10
6.294619308629794
 20
8.141624501480766
 10
6.300462978353878
 20
8.136602862914192
 10
6.306180838201844
 20
8.131655222944659
 10
6.3117702866813525
 20
8.12678386054345
 10
6.3172287223000385
 20
8.12199105468183
 10
6.3225535435655535
 20
8.117279084331074
 10
6.327742148985548
 20
8.112650228462456
 10
6.332791937067658
 20
8.10810676604725
 10
6.337700306319539
 20
8.103650976056725
 10
6.342464655248834
 20
8.099285137462159
 10
6.347082382363197
 20
8.095011529234817
 10
6.351550886170261
 20
8.090832430345982
 10
6.355867565177677
 20
8.086750119766915
 10
6.360029817893099
 20
8.082766876468899
 10
6.364035042824166
 20
8.078884979423202
 10
6.36788063847853
 20
8.075106707601098
 10
6.371564003363828
 20
8.07143433997386
 10
6.3750825359877155
 20
8.067870155512757
 10
6.378433634857838
 20
8.064416433189066
 10
6.381614698481841
 20
8.06107545197406
 10
6.384623125367367
 20
8.05784949083901
 10
6.387456314022067
 20
8.054740828755188
 10
6.390111662953585
 20
8.051751744693872
 10
6.392586570669568
 20
8.048884517626323
 10
6.394878435677668
 20
8.046141426523828
 10
6.396984656485525
 20
8.043524750357651
 10
6.398902631600787
 20
8.041036768099065
 10
6.400629759531107
 20
8.038679758719347
 10
6.402163438784118
 20
8.036456001189768
 10
6.403501067867478
 20
8.0343677744816
 10
6.404640045288824
 20
8.032417357566116
 10
6.405577769555813
 20
8.030607029414586
 10
6.406311639176086
 20
8.02893906899829
 10
6.406839052657289
 20
8.027415755288494
 10
6.407157408507073
 20
8.026039367256475
 10
6.407264105233078
 20
8.024812183873502
 10
6.4063898065580105
 20
8.022784161100398
 10
6.403781133445924
 20
8.01902911257308
 10
6.399459420266484
 20
8.013568727167858
 10
6.393446001389364
 20
8.00642469376105
 10
6.385762211184229
 20
7.997618701228953
 10
6.376429384020749
 20
7.987172438447897
 10
6.365468854268601
 20
7.975107594294179
 10
6.352901956297443
 20
7.961445857644119
 10
6.338750024476952
 20
7.946208917374026
 10
6.3230343931767905
 20
7.929418462360212
 10
6.305776396766641
 20
7.911096181478988
 10
6.286997369616153
 20
7.891263763606669
 10
6.266718646095016
 20
7.869942897619563
 10
6.244961560572882
 20
7.847155272393984
 10
6.221747447419435
 20
7.822922576806241
 10
6.197097641004338
 20
7.7972664997326495
 10
6.171033475697255
 20
7.770208730049515
 10
6.143576285867862
 20
7.741770956633159
 10
6.114747405885828
 20
7.7119748683598885
 10
6.084568170120819
 20
7.68084215410601
 10
6.0530599129425084
 20
7.64839450274784
 10
6.020243968720565
 20
7.6146536031616945
 10
5.986141671824652
 20
7.579641144223878
 10
5.950774356624448
 20
7.543378814810708
 10
5.914163357489618
 20
7.50588830379849
 10
5.876330008789824
 20
7.467191300063542
 10
5.837295644894747
 20
7.4273094924821725
 10
5.797081600174048
 20
7.386264569930691
 10
5.755709208997407
 20
7.344078221285415
 10
5.713199805734482
 20
7.300772135422656
 10
5.669574724754949
 20
7.256368001218715
 10
5.624855300428472
 20
7.210887507549918
 10
5.579062867124722
 20
7.164352343292565
 10
5.532218759213375
 20
7.116784197322979
 10
5.484344311064089
 20
7.0682047585174645
 10
5.435460857046545
 20
7.0186357157523345
 10
5.385589731530399
 20
6.968098757903899
 10
5.334752268885333
 20
6.916615573848473
 10
5.282969803481013
 20
6.8642078524623695
 10
5.230263669687103
 20
6.810897282621895
 10
5.176655201873274
 20
6.756705553203364
 10
5.12216573440921
 20
6.70165435308309
 10
5.066816601664555
 20
6.645765371137384
 10
5.010629138008993
 20
6.589060296242555
 10
4.953624677812191
 20
6.531560817274917
 10
4.89582455544382
 20
6.473288623110782
 10
4.837250105273547
 20
6.414265402626458
 10
4.777922661671042
 20
6.354512844698263
 10
4.717863559005975
 20
6.294052638202502
 10
4.65709413164801
 20
6.232906472015493
 10
4.595635713966826
 20
6.171096035013549
 10
4.5335096403320865
 20
6.108643016072971
 10
4.470737245113465
 20
6.045569104070078
 10
4.407339862680625
 20
5.981895987881186
 10
4.343338827403237
 20
5.9176453563826
 10
4.278755473650972
 20
5.852838898450636
 10
4.213611135793498
 20
5.7874983029616
 10
4.147927148200488
 20
5.721645258791808
 10
4.081724845241606
 20
5.655301454817572
 10
4.01502556128653
 20
5.588488579915203
 10
3.947850630704915
 20
5.521228322961015
 10
3.880221387866444
 20
5.453542372831311
 10
3.812159167140777
 20
5.385452418402415
 10
3.7436853028975925
 20
5.3169801485506305
 10
1.0801065005621098
 20
2.6538671697202774
 10
1.0801065005621098
 20
3.6753016605949056
 10
1.0801065005621098
 20
4.6968526073458206
 10
3.1650160536493845
 20
6.782344439814508
 10
5.24980915086038
 20
8.86795272815948
 10
5.503333593527586
 20
8.708408177652325
 10
5.50996108276901
 20
8.704230799764405
 10
5.5167610115046095
 20
8.699921857264728
 10
5.523728747158863
 20
8.69548455137493
 10
5.530859657156246
 20
8.690922083316647
 10
5.538149108921239
 20
8.68623765431151
 10
5.545592469878316
 20
8.681434465581159
 10
5.55318510745195
 20
8.676515718347233
 10
5.560922389066626
 20
8.67148461383136
 10
5.56879968214682
 20
8.66634435325518
 10
5.576812354117009
 20
8.661098137840328
 10
5.584955772401664
 20
8.655749168808446
 10
5.5932253044252676
 20
8.65030064738116
 10
5.601616317612293
 20
8.64475577478011
 10
5.610124179387221
 20
8.639117752226932
 10
5.618744257174533
 20
8.633389780943265
 10
5.627471918398699
 20
8.627575062150738
 10
5.636302530484193
 20
8.621676797070988
 10
5.6452314608555
 20
8.615698186925657
 10
5.654254076937092
 20
8.609642432936377
 10
5.663365746153453
 20
8.603512736324781
 10
5.672561835929047
 20
8.59731229831251
 10
5.6818377136883695
 20
8.591044320121195
 10
5.691188746855881
 20
8.584712002972473
 10
5.70061030285607
 20
8.578318548087987
 10
5.710097749113402
 20
8.57186715668936
 10
5.719646453052363
 20
8.565361029998236
 10
5.729251782097427
 20
8.55880336923625
 10
5.738909103673077
 20
8.552197375625035
 10
5.748613785203782
 20
8.545546250386233
 10
5.758361194114022
 20
8.538853194741469
 10
5.768146697828269
 20
8.532121409912389
 10
5.777965663771015
 20
8.525354097120625
 10
5.787813459366721
 20
8.518554457587813
 10
5.797685452039868
 20
8.511725692535586
 10
5.807577009214942
 20
8.504871003185583
 10
5.817483498316412
 20
8.497993590759442
 10
5.82740028676876
 20
8.491096656478797
 10
5.837322741996452
 20
8.484183401565279
 10
5.847246231423978
 20
8.477257027240528
 10
5.857166122475812
 20
8.470320734726181
 10
5.867077782576424
 20
8.463377725243872
 10
5.876976579150299
 20
8.456431200015238
 10
5.886857879621911
 20
8.44948436026191
 10
5.896717051415741
 20
8.44254040720553
 10
5.906549461956262
 20
8.43560254206773
 10
5.916350478667948
 20
8.42867396607015
 10
5.926115468975285
 20
8.42175788043442
 10
5.935839800302738
 20
8.414857486382179
 10
5.945518840074795
 20
8.407975985135064
 10
5.955147955715929
 20
8.401116577914706
 10
5.964722514650617
 20
8.394282465942748
 10
5.974237884303332
 20
8.38747685044082
 10
5.983689432098561
 20
8.380702932630559
 10
5.993072525460776
 20
8.373963913733604
 10
6.002382531814451
 20
8.367262994971588
 10
6.01161481858407
 20
8.360603377566143
 10
6.0207647531941015
 20
8.353988262738913
 10
6.029827703069025
 20
8.347420851711526
 10
6.038799035633326
 20
8.340904345705624
 10
6.04767411831147
 20
8.33444194594284
 10
6.056448318527942
 20
8.328036853644809
 10
6.065117003707212
 20
8.321692270033164
 10
6.073675541273766
 20
8.31541139632955
  0
LWPOLYLINE
  5
34
330
17
100
AcDbEntity
  8
0
100
AcDbPolyline
 90
196
 70
1
 10
-4.78892029645177
 20
-3.2157419066750115
 10
-4.871338481786451
 20
-3.2981501742643373
 10
-4.953292026193296
 20
-3.380063294696339
 10
-5.034754874766824
 20
-3.4614555835649434
 10
-5.11570097260154
 20
-3.5423013564641
 10
-5.19610426479196
 20
-3.6225749289877323
 10
-5.2759386964326
 20
-3.7022506167297826
 10
-5.355178212617967
 20
-3.7813027352841884
 10
-5.433796758442581
 20
-3.859705600244882
 10
-5.511768279000953
 20
-3.9374335272058043
 10
-5.589066719387593
 20
-4.014460831760891
 10
-5.665666024697016
 20
-4.090761829504075
 10
-5.741540140023736
 20
-4.16631083602929
 10
-5.816663010462267
 20
-4.24108216693048
 10
-5.891008581107113
 20
-4.315050137801579
 10
-5.964550797052797
 20
-4.388189064236526
 10
-6.03726360339383
 20
-4.460473261829247
 10
-6.109120945224725
 20
-4.5318770461736895
 10
-6.180096767639993
 20
-4.602374732863783
 10
-6.250165015734151
 20
-4.671940637493466
 10
-6.319299634601706
 20
-4.740549075656679
 10
-6.387474569337175
 20
-4.808174362947347
 10
-6.454663765035074
 20
-4.874790814959425
 10
-6.520841166789905
 20
-4.940372747286828
 10
-6.585980719696195
 20
-5.004894475523507
 10
-6.650056368848446
 20
-5.068330315263391
 10
-6.713042059341177
 20
-5.130654582100419
 10
-6.774911736268897
 20
-5.19184159162853
 10
-6.835639344726127
 20
-5.2518656594416555
 10
-6.895198829807371
 20
-5.310701101133739
 10
-6.953564136607148
 20
-5.368322232298709
 10
-7.010709210219966
 20
-5.424703368530498
 10
-7.066607995740343
 20
-5.47981882542306
 10
-7.121234438262787
 20
-5.533642918570316
 10
-7.174562482881818
 20
-5.586149963566206
 10
-7.226566074691941
 20
-5.63731427600467
 10
-7.277219158787676
 20
-5.687110171479636
 10
-7.326495680263531
 20
-5.735511965585046
 10
-7.37436958421402
 20
-5.78249397391484
 10
-7.420814815733657
 20
-5.828030512062952
 10
-7.465805319916954
 20
-5.8720958956233105
 10
-7.509315041858429
 20
-5.914664440189858
 10
-7.5513179266525885
 20
-5.955710461356538
 10
-7.591787919393948
 20
-5.995208274717273
 10
-7.6306989651770225
 20
-6.03313219586601
 10
-7.66802500909632
 20
-6.069456540396682
 10
-7.703739996246361
 20
-6.104155623903223
 10
-7.737817871721652
 20
-6.1372037619795705
 10
-7.770232580616707
 20
-6.168575270219657
 10
-7.8009580680260395
 20
-6.198244464217428
 10
-7.829968279044167
 20
-6.226185659566813
 10
-7.857237158765599
 20
-6.2523731718617555
 10
-7.882738652284847
 20
-6.276781316696181
 10
-7.906446704696425
 20
-6.299384409664034
 10
-7.928335261094848
 20
-6.320156766359248
 10
-7.9483782665746245
 20
-6.339072702375761
 10
-7.966549666230271
 20
-6.356106533307508
 10
-7.982823405156305
 20
-6.371232574748424
 10
-7.99717342844723
 20
-6.384425142292443
 10
-8.009573681197562
 20
-6.3956585515335105
 10
-8.01999810850182
 20
-6.404907118065554
 10
-8.028420655454514
 20
-6.412145157482514
 10
-8.034815267150154
 20
-6.417346985378326
 10
-8.039155888683252
 20
-6.4204869173469294
 10
-8.041416465148329
 20
-6.421539268982254
 10
-8.045257788064735
 20
-6.420983874353958
 10
-8.049752037583524
 20
-6.419331518893582
 10
-8.054884793547282
 20
-6.416602945237916
 10
-8.060641635798602
 20
-6.412818896023723
 10
-8.067008144180072
 20
-6.40800011388779
 10
-8.073969898534283
 20
-6.402167341466891
 10
-8.081512478703827
 20
-6.395341321397806
 10
-8.089621464531286
 20
-6.387542796317305
 10
-8.098282435859257
 20
-6.378792508862173
 10
-8.10748097253033
 20
-6.369111201669183
 10
-8.117202654387091
 20
-6.358519617375118
 10
-8.127433061272129
 20
-6.34703849861675
 10
-8.138157773028041
 20
-6.33468858803086
 10
-8.149362369497407
 20
-6.321490628254225
 10
-8.161032430522821
 20
-6.307465361923621
 10
-8.173153535946877
 20
-6.292633531675824
 10
-8.185711265612163
 20
-6.277015880147617
 10
-8.198691199361265
 20
-6.260633149975772
 10
-8.212078917036772
 20
-6.243506083797063
 10
-8.225859998481283
 20
-6.225655424248276
 10
-8.240020023537376
 20
-6.207101913966187
 10
-8.254544572047653
 20
-6.187866295587568
 10
-8.269419223854692
 20
-6.167969311749204
 10
-8.28462955880109
 20
-6.1474317050878655
 10
-8.300161156729438
 20
-6.126274218240338
 10
-8.31599959748232
 20
-6.104517593843388
 10
-8.332130460902327
 20
-6.0821825745338005
 10
-8.348539326832054
 20
-6.059289902948346
 10
-8.365211775114087
 20
-6.035860321723815
 10
-8.382133385591011
 20
-6.011914573496974
 10
-8.399289738105425
 20
-5.987473400904605
 10
-8.416666412499918
 20
-5.9625575465834855
 10
-8.434248988617071
 20
-5.937187753170382
 10
-8.452023046299484
 20
-5.911384763302091
 10
-8.469974165389738
 20
-5.8851693196153745
 10
-8.488087925730431
 20
-5.858562164747021
 10
-8.506349907164147
 20
-5.8315840413338
 10
-8.524745689533477
 20
-5.80425569201249
 10
-8.543260852681012
 20
-5.776597859419875
 10
-8.561880976449345
 20
-5.748631286192722
 10
-8.580591640681057
 20
-5.720376714967819
 10
-8.599378425218747
 20
-5.691854888381935
 10
-8.618226909905
 20
-5.663086549071855
 10
-8.637122674582404
 20
-5.6340924396743475
 10
-8.656051299093553
 20
-5.604893302826195
 10
-8.674998363281038
 20
-5.575509881164178
 10
-8.693949446987444
 20
-5.545962917325068
 10
-8.712890130055364
 20
-5.5162731539456455
 10
-8.731805992327386
 20
-5.486461333662689
 10
-8.7506826136461
 20
-5.456548199112969
 10
-8.769505573854095
 20
-5.426554492933279
 10
-8.788260452793967
 20
-5.396500957760381
 10
-8.8069328303083
 20
-5.366408336231057
 10
-8.825508286239682
 20
-5.336297370982081
 10
-8.843972400430708
 20
-5.306188804650236
 10
-8.862310752723966
 20
-5.276103379872298
 10
-8.880508922962044
 20
-5.246061839285044
 10
-8.898552490987534
 20
-5.216084925525258
 10
-8.916427036643025
 20
-5.186193381229703
 10
-8.934118139771108
 20
-5.1564079490351675
 10
-8.95161138021437
 20
-5.126749371578426
 10
-8.9688923378154
 20
-5.097238391496254
 10
-8.985946592416797
 20
-5.067895751425433
 10
-9.002759723861141
 20
-5.038742194002737
 10
-9.091241220662546
 20
-4.8811581043216945
 10
-9.176577689129186
 20
-4.721978926663077
 10
-9.25877199196883
 20
-4.561260880982549
 10
-9.337826991889253
 20
-4.399060187235757
 10
-9.413745551598229
 20
-4.2354330653783645
 10
-9.486530533803537
 20
-4.070435735366023
 10
-9.556184801212945
 20
-3.9041244171543847
 10
-9.62271121653423
 20
-3.7365553306991095
 10
-9.686112642475162
 20
-3.5677846959558495
 10
-9.746391941743523
 20
-3.397868732880264
 10
-9.80355197704708
 20
-3.226863661428009
 10
-9.857595611093613
 20
-3.05482570155473
 10
-9.908525706590895
 20
-2.8818110732160958
 10
-9.956345126246697
 20
-2.7078759963677497
 10
-10.001056732768795
 20
-2.533076690965354
 10
-10.042663388864963
 20
-2.357469376964564
 10
-10.081167957242975
 20
-2.181110274321033
 10
-10.116573300610609
 20
-2.004055602990416
 10
-10.148882281675633
 20
-1.8263615829283728
 10
-10.178097763145821
 20
-1.6480844340905523
 10
-10.204222607728955
 20
-1.4692803764326168
 10
-10.227259678132803
 20
-1.2900056299102125
 10
-10.247211837065143
 20
-1.110316414479005
 10
-10.264081947233747
 20
-0.9302689500946401
 10
-10.277872871346387
 20
-0.7499194567127804
 10
-10.288587472110839
 20
-0.5693241542890783
 10
-10.296228612234877
 20
-0.38853926277918643
 10
-10.30079915442628
 20
-0.2076210021387672
 10
-10.302301961392816
 20
-0.026625592323469737
 10
-10.300739895842261
 20
0.15439074671104677
 10
-10.296115820482388
 20
0.33537179500913644
 10
-10.288432598020975
 20
0.5162613326151302
 10
-10.27769309116579
 20
0.6970031395733789
 10
-10.26390016262462
 20
0.8775409959282233
 10
-10.247056675105224
 20
1.0578186817240176
 10
-10.227165491315384
 20
1.2377799770050961
 10
-10.20422947396287
 20
1.4173686618158094
 10
-10.178251485755464
 20
1.5965285162005054
 10
-10.149234389400933
 20
1.7752033202035178
 10
-10.117181047607055
 20
1.9533368538692044
 10
-10.082094323081602
 20
2.130872897241899
 10
-10.043977078532349
 20
2.3077552303659465
 10
-10.002832176667068
 20
2.4839276332857003
 10
-9.958662480193537
 20
2.659333886045502
 10
-9.911470851819528
 20
2.8339177686896884
 10
-9.861260154252815
 20
3.0076230612626143
 10
-9.808033250201177
 20
3.18039354380862
 10
-9.751793002372382
 20
3.352172996372046
 10
-9.692542273474206
 20
3.5229051989972446
 10
-9.630283926214425
 20
3.692533931728559
 10
-9.56502082330081
 20
3.8610029746103294
 10
-9.496755827441142
 20
4.028256107686901
 10
-9.425491801343187
 20
4.194237111002625
 10
-9.351231607714718
 20
4.358889764601841
 10
-9.27397810926352
 20
4.522157848528893
 10
-9.19373416869736
 20
4.683985142828127
 10
-9.110502648724012
 20
4.8443154275438856
 10
-9.024286412051252
 20
5.003092482720517
 10
-8.935088321386853
 20
5.160260088402362
 10
-8.84291123943859
 20
5.3157620246337745
 10
-8.747758028914241
 20
5.469542071459085
 10
-8.649631552521571
 20
5.621544008922649
 10
-8.548534672968362
 20
5.7717116170688065
 10
-8.444470252962386
 20
5.919988675941901
 10
-8.056788640817631
 20
6.461159133027117
 10
-4.8201304712955055
 20
3.2256655222678123
 10
-1.5835887576496595
 20
-0.009828088491488505
  0
LWPOLYLINE
  5
35
330
17
100
AcDbEntity
  8
0
100
AcDbPolyline
 90
322
 70
1
 10
8.515464833576871
 20
5.7734871835784
 10
8.614040927900973
 20
5.626879527581584
 10
8.709831322356168
 20
5.478987331425973
 10
8.802833999186605
 20
5.329845395402715
 10
8.89304694063643
 20
5.179488519802964
 10
8.98046812894978
 20
5.027951504917876
 10
9.065095546370825
 20
4.875269151038603
 10
9.146927175143706
 20
4.721476258456309
 10
9.225960997512551
 20
4.5666076274621386
 10
9.302194995721537
 20
4.410698058347255
 10
9.375627152014802
 20
4.253782351402805
 10
9.446255448636483
 20
4.095895306919953
 10
9.514077867830741
 20
3.9370717251898406
 10
9.579092391841721
 20
3.7773464065036326
 10
9.641297002913559
 20
3.6167541511524854
 10
9.700689683290419
 20
3.455329759427541
 10
9.757268415216435
 20
3.29310803161997
 10
9.811031180935771
 20
3.130123768020914
 10
9.861975962692567
 20
2.96641176892154
 10
9.91010074273097
 20
2.8020068346129934
 10
9.955403503295122
 20
2.6369437653864307
 10
9.997882226629189
 20
2.4712573615330076
 10
10.037534894977306
 20
2.3049824233438803
 10
10.07435949058361
 20
2.1381537511102016
 10
10.108353995692264
 20
1.9708061451231278
 10
10.139516392547424
 20
1.8029744056738077
 10
10.167844663393222
 20
1.634693333053408
 10
10.193336790473813
 20
1.4659977275530742
 10
10.215990756033346
 20
1.2969223894639628
 10
10.23580454231596
 20
1.1275021190772263
 10
10.252776131565808
 20
0.9577717166840276
 10
10.26690350602705
 20
0.7877659825755159
 10
10.278184647943814
 20
0.6175197170428474
 10
10.286617539560257
 20
0.4470677203771715
 10
10.29220016312053
 20
0.27644479286964424
 10
10.294930500868782
 20
0.10568573481142836
 10
10.294806535049155
 20
-0.06517465350632679
 10
10.291826247905794
 20
-0.2361015717924651
 10
10.285987621682855
 20
-0.4070602197558305
 10
10.277288638624487
 20
-0.5780157971052803
 10
10.265727280974827
 20
-0.7489335035496384
 10
10.251301530978033
 20
-0.9197785387977686
 10
10.234009370878253
 20
-1.090516102558505
 10
10.213848782919625
 20
-1.2611113945407018
 10
10.19081774934631
 20
-1.4315296144531924
 10
10.164914252402447
 20
-1.6017359620048341
 10
10.136136274332186
 20
-1.771695636904468
 10
10.104481797379682
 20
-1.9413738388609376
 10
10.069948803789064
 20
-2.1107357675830873
 10
10.032535275804504
 20
-2.2797466227797636
 10
9.99223919567014
 20
-2.4483716041598145
 10
9.949058545630109
 20
-2.61657591143208
 10
9.902991307928575
 20
-2.7843247443054113
 10
9.854035464809677
 20
-2.9515833024886486
 10
9.802188998517565
 20
-3.1183167856906393
 10
9.74744989129639
 20
-3.284490393620227
 10
9.689816125390301
 20
-3.45006932598626
 10
9.629285683043435
 20
-3.615018782497581
 10
9.56585654649995
 20
-3.779303962863038
 10
9.499526698003994
 20
-3.942890066791471
 10
9.43029411979971
 20
-4.105742293991734
 10
9.358156794131247
 20
-4.267825844172663
 10
9.283112703242752
 20
-4.429105917043108
 10
9.20515982937838
 20
-4.589547712311913
 10
9.124296154782272
 20
-4.749116429687923
 10
9.107480254365617
 20
-4.781431509333383
 10
9.090257180413689
 20
-4.814160754024816
 10
9.072646233547534
 20
-4.847274625095965
 10
9.05466671438818
 20
-4.880743583880593
 10
9.036337923556653
 20
-4.914538091712427
 10
9.017679161674002
 20
-4.948628609925233
 10
8.998709729361268
 20
-4.982985599852755
 10
8.979448927239485
 20
-5.0175795228287425
 10
8.959916055929671
 20
-5.052380840186938
 10
8.940130416052886
 20
-5.087360013261098
 10
8.920111308230153
 20
-5.122487503384969
 10
8.899878033082512
 20
-5.157733771892298
 10
8.879449891230994
 20
-5.19306928011683
 10
8.85884618329665
 20
-5.228464489392323
 10
8.83808620990051
 20
-5.263889861052523
 10
8.817189271663608
 20
-5.2993158564311695
 10
8.796174669206977
 20
-5.334712936862026
 10
8.775061703151655
 20
-5.3700515636788335
 10
8.753869674118683
 20
-5.405302198215333
 10
8.73261788272909
 20
-5.440435301805288
 10
8.711325629603916
 20
-5.475421335782434
 10
8.690012215364213
 20
-5.510230761480528
 10
8.66869694063099
 20
-5.544834040233318
 10
8.647399106025299
 20
-5.579201633374551
 10
8.626138012168173
 20
-5.613304002237978
 10
8.604932959680657
 20
-5.647111608157338
 10
8.583803249183775
 20
-5.680594912466396
 10
8.562768181298566
 20
-5.713724376498889
 10
8.54184705664607
 20
-5.746470461588565
 10
8.521059175847329
 20
-5.7788036290691815
 10
8.500423839523359
 20
-5.810694340274478
 10
8.479960348295217
 20
-5.842113056538208
 10
8.459688002783933
 20
-5.87303023919412
 10
8.439626103610541
 20
-5.903416349575962
 10
8.41979395139608
 20
-5.933241849017487
 10
8.400210846761587
 20
-5.96247719885243
 10
8.3808960903281
 20
-5.991092860414556
 10
8.361868982716647
 20
-6.019059295037605
 10
8.34314882454827
 20
-6.046346964055335
 10
8.324754916444011
 20
-6.0729263288014765
 10
8.306706559024889
 20
-6.09876785060979
 10
8.289023052911963
 20
-6.123841990814029
 10
8.271723698726257
 20
-6.148119210747931
 10
8.254827797088815
 20
-6.17156997174526
 10
8.238354648620655
 20
-6.194164735139744
 10
8.22232355394283
 20
-6.215873962265141
 10
8.206753813676373
 20
-6.2366681144552105
 10
8.191664728442325
 20
-6.256517653043685
 10
8.177075598861707
 20
-6.2753930393643245
 10
8.163005725555575
 20
-6.293264734750871
 10
8.149474409144947
 20
-6.310103200537074
 10
8.136500950250877
 20
-6.3258788980566845
 10
8.124104649494388
 20
-6.3405622886434525
 10
8.112304807496526
 20
-6.354123833631119
 10
8.10112072487832
 20
-6.366533994353441
 10
8.09057170226081
 20
-6.377763232144168
 10
8.080677040265037
 20
-6.387782008337042
 10
8.071456039512027
 20
-6.396560784265815
 10
8.062928000622815
 20
-6.404070021264234
 10
8.05511222421845
 20
-6.410280180666054
 10
8.048028010919962
 20
-6.415161723805013
 10
8.04169466134839
 20
-6.418685112014868
 10
8.036131476124766
 20
-6.420820806629365
 10
8.03135775587013
 20
-6.421539268982254
 10
8.029146582882117
 20
-6.420481905387103
 10
8.024845065475196
 20
-6.417327019279909
 10
8.018479365173405
 20
-6.412100417678054
 10
8.010075643500766
 20
-6.404827907598924
 10
7.999660061981297
 20
-6.395535296059897
 10
7.9872587821390315
 20
-6.384248390078363
 10
7.972897965498002
 20
-6.370992996671703
 10
7.956603773582222
 20
-6.355794922857296
 10
7.9384023679157245
 20
-6.338679975652533
 10
7.918319910022542
 20
-6.319673962074792
 10
7.896382561426682
 20
-6.298802689141465
 10
7.872616483652183
 20
-6.2760919638699235
 10
7.847047838223085
 20
-6.251567593277561
 10
7.81970278666338
 20
-6.225255384381757
 10
7.7906074904971225
 20
-6.197181144199896
 10
7.759788111248325
 20
-6.167370679749362
 10
7.727270810441013
 20
-6.135849798047535
 10
7.693081749599227
 20
-6.102644306111801
 10
7.65724709024698
 20
-6.067780010959549
 10
7.619792993908291
 20
-6.031282719608152
 10
7.580745622107201
 20
-5.993178239075002
 10
7.540131136367735
 20
-5.953492376377481
 10
7.497975698213912
 20
-5.912250938532966
 10
7.45430546916976
 20
-5.869479732558855
 10
7.409146610759311
 20
-5.825204565472518
 10
7.362525284506579
 20
-5.779451244291339
 10
7.314467651935602
 20
-5.732245576032711
 10
7.264999874570394
 20
-5.68361336771401
 10
7.2141481139349946
 20
-5.633580426352626
 10
7.161938531553423
 20
-5.582172558965935
 10
7.108397288949706
 20
-5.529415572571325
 10
7.0535505476478635
 20
-5.475335274186181
 10
6.997424469171934
 20
-5.419957470827879
 10
6.940045215045938
 20
-5.363307969513813
 10
6.881438946793896
 20
-5.305412577261361
 10
6.821631825939838
 20
-5.246297101087909
 10
6.760650014007794
 20
-5.185987348010835
 10
6.6985196725217815
 20
-5.124509125047531
 10
6.635266963005833
 20
-5.061888239215376
 10
6.5709180469839765
 20
-4.998150497531749
 10
6.50549908598023
 20
-4.933321707014038
 10
6.439036241518629
 20
-4.8674276746796385
 10
6.37155567512319
 20
-4.800494207545912
 10
6.3030835483179475
 20
-4.732547112630256
 10
6.233646022626921
 20
-4.663612196950049
 10
6.1632692595741405
 20
-4.5937152675226764
 10
6.091979420683635
 20
-4.522882131365525
 10
6.019802667479421
 20
-4.4511385954959675
 10
5.946765161485529
 20
-4.378510466931406
 10
5.872893064225991
 20
-4.305023552689206
 10
5.798212537224823
 20
-4.23070365978676
 10
5.722749742006059
 20
-4.1555765952414525
 10
5.6465308400937175
 20
-4.079668166070664
 10
5.569581993011833
 20
-4.003004179291778
 10
5.491929362284427
 20
-3.925610441922179
 10
5.41359910943553
 20
-3.847512760979248
 10
5.334617395989158
 20
-3.768736943480375
 10
5.2550103834693465
 20
-3.6893087964429396
 10
5.174804233400117
 20
-3.609254126884323
 10
5.094025107305498
 20
-3.5285987418219147
 10
5.012699166709515
 20
-3.4473684482730893
 10
4.9308525731361925
 20
-3.36558905325524
 10
4.848511488109557
 20
-3.283286363785744
 10
4.765702073153636
 20
-3.200486186881992
 10
1.5451148145585059
 20
0.020683351094551113
 10
4.763023587999137
 20
3.2390579480403114
 10
4.874161758026725
 20
3.3501805544266565
 10
4.983042856229461
 20
3.4589926251217316
 10
5.089684453342594
 20
3.5655109792000816
 10
5.194104120101362
 20
3.669752435736247
 10
5.296319427240998
 20
3.7717338138047563
 10
5.396347945496753
 20
3.8714719324801616
 10
5.49420724560386
 20
3.9689836108370025
 10
5.589914898297561
 20
4.064285667949805
 10
5.683488474313093
 20
4.157394922893121
 10
5.774945544385698
 20
4.248328194741487
 10
5.864303679250618
 20
4.337102302569441
 10
5.951580449643094
 20
4.423734065451523
 10
6.036793426298353
 20
4.508240302462266
 10
6.1199601799516525
 20
4.590637832676225
 10
6.201098281338222
 20
4.670943475167926
 10
6.280225301193306
 20
4.749174049011907
 10
6.357358810252138
 20
4.82534637328272
 10
6.432516379249961
 20
4.899477267054891
 10
6.505715578922027
 20
4.971583549402972
 10
6.5769739800035545
 20
5.0416820394014925
 10
6.646309153229799
 20
5.109789556124994
 10
6.713738669335993
 20
5.175922918648018
 10
6.779280099057377
 20
5.240098946045108
 10
6.842951013129198
 20
5.302334457390795
 10
6.904768982286691
 20
5.362646271759622
 10
6.964751577265088
 20
5.421051208226131
 10
7.022916368799637
 20
5.477566085864855
 10
7.079280927625585
 20
5.532207723750334
 10
7.133862824478158
 20
5.584992940957119
 10
7.186679630092612
 20
5.635938556559741
 10
7.237748915204171
 20
5.685061389632733
 10
7.287088250548072
 20
5.732378259250644
 10
7.334715206859572
 20
5.777905984488007
 10
7.380647354873908
 20
5.8216613844193725
 10
7.424902265326304
 20
5.863661278119263
 10
7.467497508952016
 20
5.9039224846622345
 10
7.508450656486278
 20
5.942461823122816
 10
7.547779278664327
 20
5.979296112575549
 10
7.585500946221408
 20
6.014442172094974
 10
7.6216332298927645
 20
6.047916820755632
 10
7.656193700413625
 20
6.079736877632057
 10
7.689199928519236
 20
6.109919161798798
 10
7.720669484944839
 20
6.138480492330383
 10
7.750619940425667
 20
6.165437688301359
 10
7.779068865696972
 20
6.190807568786261
 10
7.806033831493984
 20
6.214606952859635
 10
7.831532408551949
 20
6.23685265959601
 10
7.855582167606086
 20
6.257561508069935
 10
7.8782006793916715
 20
6.276750317355948
 10
7.899405514643917
 20
6.294435906528581
 10
7.919214244098076
 20
6.310635094662383
 10
7.937644438489377
 20
6.325364700831888
 10
7.954713668553072
 20
6.338641544111636
 10
7.970439505024397
 20
6.350482443576169
 10
7.984839518638591
 20
6.36090421830002
 10
7.997931280130894
 20
6.369923687357738
 10
8.00973236023654
 20
6.377557669823852
 10
8.020260329690778
 20
6.383822984772911
 10
8.029532759228845
 20
6.388736451279447
 10
8.037567219585977
 20
6.392314888418004
 10
8.04438128149742
 20
6.39457511526312
 10
8.04999251569841
 20
6.395533950889334
 10
8.05441849292419
 20
6.395208214371182
 10
8.057676783909997
 20
6.393614724783211
 10
8.059772377070727
 20
6.391793740108703
 10
8.062104484802157
 20
6.389620335849667
 10
8.064669431430149
 20
6.387099477764556
 10
8.067463541280567
 20
6.384236131611834
 10
8.07048313867929
 20
6.381035263149957
 10
8.073724547952157
 20
6.377501838137378
 10
8.077184093425055
 20
6.3736408223325585
 10
8.080858099423853
 20
6.369457181493956
 10
8.084742890274397
 20
6.3649558813800295
 10
8.088834790302567
 20
6.360141887749232
 10
8.093130123834214
 20
6.355020166360019
 10
8.097625215195217
 20
6.349595682970858
 10
8.102316388711436
 20
6.3438734033402
 10
8.10719996870874
 20
6.337858293226502
 10
8.112272279512986
 20
6.331555318388224
 10
8.117529645450048
 20
6.324969444583822
 10
8.122968390845784
 20
6.318105637571753
 10
8.128584840026075
 20
6.310968863110477
 10
8.134375317316767
 20
6.303564086958451
 10
8.140336147043733
 20
6.295896274874128
 10
8.146463653532841
 20
6.287970392615965
 10
8.152754161109945
 20
6.279791405942438
 10
8.159203994100922
 20
6.271364280611975
 10
8.165809476831637
 20
6.262693982383058
 10
8.172566933627946
 20
6.25378547701413
 10
8.179472688815732
 20
6.24464373026365
 10
8.186523066720842
 20
6.235273707890089
 10
8.193714391669154
 20
6.225680375651888
 10
8.201042987986515
 20
6.21586869930751
 10
8.208505179998815
 20
6.205843644615417
 10
8.216097292031904
 20
6.1956101773340615
 10
8.223815648411652
 20
6.185173263221904
 10
8.231656573463923
 20
6.174537868037396
 10
8.239616391514579
 20
6.163708957539007
 10
8.247691426889492
 20
6.152691497485183
 10
8.255878003914527
 20
6.141490453634385
 10
8.264172446915536
 20
6.130110791745073
 10
8.272571080218407
 20
6.118557477575702
 10
8.28107022814898
 20
6.1068354768847275
 10
8.289666215033144
 20
6.094949755430612
 10
8.298355365196743
 20
6.082905278971815
 10
8.30713400296567
 20
6.070707013266784
 10
8.315998452665756
 20
6.058359924073985
 10
8.324945038622891
 20
6.045868977151871
 10
8.33397008516293
 20
6.0332391382589
 10
8.34306991661174
 20
6.020475373153532
 10
8.352240857295193
 20
6.007582647594228
 10
8.361479231539152
 20
5.994565927339435
 10
8.370781363669467
 20
5.981430178147617
 10
8.38014357801202
 20
5.968180365777234
 10
8.389562198892675
 20
5.954821455986737
 10
8.39903355063729
 20
5.94135841453459
 10
8.40855395757174
 20
5.927796207179247
 10
8.418119744021881
 20
5.914139799679162
 10
8.427727234313585
 20
5.900394157792801
 10
8.437372752772712
 20
5.886564247278616
 10
8.447052623725126
 20
5.8726550338950645
 10
8.456763171496698
 20
5.858671483400605
 10
8.466500720413293
 20
5.844618561553694
 10
8.476261594800773
 20
5.830501234112793
 10
8.486042118985008
 20
5.816324466836354
 10
8.495838617291856
 20
5.802093225482834
 10
8.505647414047194
 20
5.787812475810697
  0
LWPOLYLINE
  5
36
330
17
100
AcDbEntity
  8
0
100
AcDbPolyline
 90
198
 70
1
 10
-1.0879525481909404
 20
-3.711843939638863
 10
-1.0879525481909404
 20
-4.71883790185445
 10
-3.1624975282890646
 20
-6.792567690818599
 10
-5.236926052510906
 20
-8.866297479782741
 10
-5.438976997861207
 20
-8.75706186782967
 10
-5.444309899479251
 20
-8.754150210595677
 10
-5.449889721637415
 20
-8.751051048667927
 10
-5.455711423944248
 20
-8.747767767185051
 10
-5.461769966008328
 20
-8.744303751285655
 10
-5.468060307438212
 20
-8.740662386108355
 10
-5.474577407842474
 20
-8.736847056791783
 10
-5.481316226829666
 20
-8.73286114847453
 10
-5.488271724008367
 20
-8.728708046295226
 10
-5.495438858987133
 20
-8.724391135392485
 10
-5.50281259137453
 20
-8.719913800904923
 10
-5.510387880779132
 20
-8.715279427971156
 10
-5.518159686809494
 20
-8.710491401729787
 10
-5.526122969074181
 20
-8.705553107319448
 10
-5.534272687181767
 20
-8.70046792987876
 10
-5.54260380074081
 20
-8.69523925454632
 10
-5.551111269359874
 20
-8.689870466460748
 10
-5.559790052647533
 20
-8.684364950760665
 10
-5.568635110212338
 20
-8.678726092584691
 10
-5.577641401662873
 20
-8.672957277071431
 10
-5.586803886607686
 20
-8.667061889359507
 10
-5.596117524655351
 20
-8.661043314587532
 10
-5.605577275414425
 20
-8.65490493789413
 10
-5.615178098493486
 20
-8.6486501444179
 10
-5.624914953501086
 20
-8.642282319297477
 10
-5.634782800045799
 20
-8.635804847671455
 10
-5.644776597736187
 20
-8.62922111467847
 10
-5.654891306180815
 20
-8.622534505457129
 10
-5.665121884988251
 20
-8.615748405146048
 10
-5.675463293767052
 20
-8.608866198883844
 10
-5.685910492125794
 20
-8.601891271809128
 10
-5.696458439673035
 20
-8.594827009060522
 10
-5.707102096017342
 20
-8.587676795776638
 10
-5.717836420767282
 20
-8.58044401709609
 10
-5.728656373531416
 20
-8.573132058157503
 10
-5.739556913918313
 20
-8.56574430409949
 10
-5.750533001536532
 20
-8.558284140060643
 10
-5.761579595994648
 20
-8.550754951179611
 10
-5.772691656901222
 20
-8.543160122594998
 10
-5.783864143864814
 20
-8.535503039445414
 10
-5.795092016493993
 20
-8.527787086869477
 10
-5.806370234397326
 20
-8.520015650005814
 10
-5.817693757183373
 20
-8.512192113993018
 10
-5.829057544460709
 20
-8.504319863969725
 10
-5.840456555837888
 20
-8.496402285074543
 10
-5.85188575092348
 20
-8.488442762446084
 10
-5.863340089326052
 20
-8.480444681222973
 10
-5.874814530654166
 20
-8.472411426543815
 10
-5.886304034516384
 20
-8.464346383547234
 10
-5.897803560521279
 20
-8.456252937371847
 10
-5.909308068277415
 20
-8.448134473156264
 10
-5.920812517393348
 20
-8.439994376039094
 10
-5.932311867477656
 20
-8.43183603115897
 10
-5.9438010781388915
 20
-8.423662823654492
 10
-5.9552751089856315
 20
-8.415478138664293
 10
-5.966728919626434
 20
-8.407285361326966
 10
-5.978157469669865
 20
-8.399087876781147
 10
-5.989555718724488
 20
-8.39088907016544
 10
-6.0009186263988745
 20
-8.382692326618464
 10
-6.012241152301583
 20
-8.374501031278838
 10
-6.023518256041182
 20
-8.366318569285166
 10
-6.034744897226235
 20
-8.358148325776078
 10
-6.045916035465311
 20
-8.349993685890183
 10
-6.057026630366968
 20
-8.341858034766105
 10
-6.0680716415397775
 20
-8.333744757542442
 10
-6.4951153398680495
 20
-8.019663259208286
 10
-3.838290978356956
 20
-5.362256618315781
 10
-3.7699759019925034
 20
-5.293945915976895
 10
-3.7020408940652256
 20
-5.226045620380479
 10
-3.634507614131338
 20
-5.158577023248785
 10
-3.5673977217470525
 20
-5.091561416304068
 10
-3.5007328764685823
 20
-5.025020091268581
 10
-3.434534737852139
 20
-4.958974339864577
 10
-3.3688249654539417
 20
-4.893445453814316
 10
-3.3036252188301964
 20
-4.828454724840042
 10
-3.2389571575371248
 20
-4.764023444664015
 10
-3.174842441130936
 20
-4.700172905008485
 10
-3.1113027291678423
 20
-4.6369243975957115
 10
-3.0483596812040563
 20
-4.574299214147938
 10
-2.9860349567958
 20
-4.512318646387432
 10
-2.9243502154992758
 20
-4.451003986036435
 10
-2.8633271168707024
 20
-4.390376524817209
 10
-2.802987320466295
 20
-4.330457554451996
 10
-2.743352485842264
 20
-4.271268366663066
 10
-2.684444272554824
 20
-4.212830253172664
 10
-2.626284340160194
 20
-4.155164505703042
 10
-2.568894348214576
 20
-4.098292415976456
 10
-2.51229595627419
 20
-4.04223527571516
 10
-2.4565108238952504
 20
-3.9870143766414055
 10
-2.4015606106339704
 20
-3.932651010477448
 10
-2.3474669760465616
 20
-3.8791664689455465
 10
-2.2942515796892367
 20
-3.826582043767946
 10
-2.241936081118218
 20
-3.774919026666904
 10
-2.1905421398897076
 20
-3.724198709364669
 10
-2.1400914155599247
 20
-3.674442383583507
 10
-2.0906055676850777
 20
-3.6256713410456594
 10
-2.042106255821386
 20
-3.5779068734733874
 10
-1.994615139525065
 20
-3.5311702725889367
 10
-1.9481538783523207
 20
-3.4854828301145755
 10
-1.9027441318593683
 20
-3.440865837772542
 10
-1.8584075596024268
 20
-3.397340587285092
 10
-1.8151658211377022
 20
-3.3549283703744894
 10
-1.773040576021413
 20
-3.3136504787629804
 10
-1.732053483809775
 20
-3.2735282041728193
 10
-1.692226204058997
 20
-3.234582838326262
 10
-1.6535803963252915
 20
-3.1968356729455594
 10
-1.6161377201648774
 20
-3.16030799975297
 10
-1.5799198351339603
 20
-3.1250211104707395
 10
-1.5449484007887657
 20
-3.0909962968211255
 10
-1.5112450766854961
 20
-3.0582548505263807
 10
-1.478831522380367
 20
-3.02681806330877
 10
-1.4477293974295973
 20
-2.9967072268905275
 10
-1.4179603613893959
 20
-2.9679436329939257
 10
-1.3895460738159753
 20
-2.9405485733412027
 10
-1.3625081942655541
 20
-2.914543339654624
 10
-1.3368683822943417
 20
-2.8899492236564317
 10
-1.3126482974585567
 20
-2.86678751706889
 10
-1.2898695993144016
 20
-2.8450795116142507
 10
-1.2685539474181018
 20
-2.8248464990147593
 10
-1.248723001325863
 20
-2.806109770992684
 10
-1.2303984205939043
 20
-2.7888906192702634
 10
-1.2136018647784346
 20
-2.7732103355697624
 10
-1.1983549934356694
 20
-2.759090211613426
 10
-1.1846794661218243
 20
-2.7465515391235162
 10
-1.1725969423931082
 20
-2.7356156098222812
 10
-1.1621290818057404
 20
-2.7263037154319765
 10
-1.1532975439159294
 20
-2.71863714767485
 10
-1.1461239882798913
 20
-2.7126371982731703
 10
-1.1406300744538378
 20
-2.7083251589491755
 10
-1.136837461993985
 20
-2.705722321425128
 10
-1.1347678104565415
 20
-2.704849977423276
 10
-1.133564874794819
 20
-2.7051805153296367
 10
-1.1323691385499477
 20
-2.7061667519203936
 10
-1.131180977552278
 20
-2.707800621503061
 10
-1.1300007676321613
 20
-2.710074058385169
 10
-1.1288288846199408
 20
-2.7129789968742286
 10
-1.1276657043459741
 20
-2.716507371277764
 10
-1.1265116026406152
 20
-2.7206511159032862
 10
-1.1253669553342045
 20
-2.725402165058322
 10
-1.1242321382570997
 20
-2.7307524530503824
 10
-1.1231075272396476
 20
-2.7366939141869944
 10
-1.1219934981121957
 20
-2.7432184827756694
 10
-1.1208904267051012
 20
-2.750318093123931
 10
-1.119798688848705
 20
-2.7579846795393
 10
-1.1187186603733674
 20
-2.766210176329287
 10
-1.1176507171094359
 20
-2.7749865178014193
 10
-1.1165952348872543
 20
-2.7843056382632114
 10
-1.11555258953718
 20
-2.7941594720221836
 10
-1.1145231568895604
 20
-2.804539953385847
 10
-1.113507312774749
 20
-2.815439016661735
 10
-1.1125054330230901
 20
-2.8268485961573555
 10
-1.111517893464941
 20
-2.8387606261802327
 10
-1.1105450699306423
 20
-2.8511670410378835
 10
-1.1095873382505512
 20
-2.864059775037825
 10
-1.1086450742550218
 20
-2.8774307624875792
 10
-1.1077186537743913
 20
-2.891271937694662
 10
-1.10680845263902
 20
-2.9055752349665953
 10
-1.1059148466792623
 20
-2.9203325886108926
 10
-1.1050382117254522
 20
-2.9355359329350774
 10
-1.104178923607963
 20
-2.951177202246675
 10
-1.1033373581571229
 20
-2.967248330853185
 10
-1.1025138912032952
 20
-2.983741253062145
 10
-1.1017088985768242
 20
-3.000647903181063
 10
-1.100922756108057
 20
-3.017960215517466
 10
-1.100155839627354
 20
-3.035670124378861
 10
-1.0994085249650598
 20
-3.0537695640727827
 10
-1.0986811879515277
 20
-3.0722504689067383
 10
-1.0979742044171021
 20
-3.0911047731882446
 10
-1.0972879501921333
 20
-3.1103244112248327
 10
-1.096622801106982
 20
-3.1299013173240073
 10
-1.0959791329919892
 20
-3.149827425793301
 10
-1.095357321677505
 20
-3.1700946709402196
 10
-1.0947577429938835
 20
-3.1906949870722925
 10
-1.094180772771472
 20
-3.211620308497034
 10
-1.0936267868406213
 20
-3.2328625695219553
 10
-1.0930961610316852
 20
-3.2544137044545964
 10
-1.0925892711750078
 20
-3.2762656476024516
 10
-1.092106493100946
 20
-3.2984103332730554
 10
-1.0916482026398442
 20
-3.3208396957739184
 10
-1.091214775622056
 20
-3.3435456694125674
 10
-1.0908065878779323
 20
-3.3665201884965135
 10
-1.0904240152378235
 20
-3.389755187333284
 10
-1.0900674335320737
 20
-3.413242600230386
 10
-1.0897372185910401
 20
-3.436974361495351
 10
-1.08943374624507
 20
-3.460942405435686
 10
-1.0891573923245141
 20
-3.4851386663589183
 10
-1.0889085326597199
 20
-3.509555078572565
 10
-1.088687543081044
 20
-3.5341835763841405
 10
-1.088494799418831
 20
-3.559016094101169
 10
-1.0883306775034347
 20
-3.5840445660311673
 10
-1.0881955531652021
 20
-3.609260926481653
 10
-1.088089802234491
 20
-3.6346571097601474
 10
-1.088013800541638
 20
-3.660225050174167
 10
-1.0879679239170044
 20
-3.6859566820312333
  0
LWPOLYLINE
  5
37
330
17
100
AcDbEntity
  8
0
100
AcDbPolyline
 90
196
 70
1
 10
6.407264105233078
 20
-8.045749375495587
 10
6.406661483922898
 20
-8.048605595975948
 10
6.404875743339212
 20
-8.052234473012607
 10
6.401940068502311
 20
-8.056612180027557
 10
6.397887644432482
 20
-8.061714890442754
 10
6.392751656150015
 20
-8.067518777680199
 10
6.386565288675193
 20
-8.074000015161863
 10
6.379361727028307
 20
-8.08113477630973
 10
6.3711741562296424
 20
-8.088899234545773
 10
6.362035761299489
 20
-8.09726956329198
 10
6.351979727258135
 20
-8.106221935970314
 10
6.341039239125865
 20
-8.115732526002782
 10
6.329247481922967
 20
-8.125777506811348
 10
6.316637640669736
 20
-8.13633305181797
 10
6.303242900386451
 20
-8.147375334444671
 10
6.289096446093403
 20
-8.158880528113409
 10
6.274231462810883
 20
-8.170824806246154
 10
6.258681135559173
 20
-8.183184342264912
 10
6.2424786493585644
 20
-8.195935309591635
 10
6.225657189229344
 20
-8.209053881648325
 10
6.208249940191794
 20
-8.222516231856936
 10
6.190290087266214
 20
-8.23629853363948
 10
6.171810815472881
 20
-8.250376960417915
 10
6.152845309832093
 20
-8.264727685614224
 10
6.133426755364132
 20
-8.27932688265038
 10
6.113588337089279
 20
-8.294150724948382
 10
6.093363240027828
 20
-8.309175385930196
 10
6.072784649200067
 20
-8.32437703901781
 10
6.051885749626287
 20
-8.339731857633197
 10
6.030699726326774
 20
-8.355216015198335
 10
6.009259764321806
 20
-8.370805685135204
 10
5.987599048631685
 20
-8.386477040865795
 10
5.965750764276696
 20
-8.402206255812072
 10
5.943748096277115
 20
-8.417969503396021
 10
5.921624229653245
 20
-8.433742957039632
 10
5.899412349425365
 20
-8.449502790164876
 10
5.877145640613763
 20
-8.465225176193728
 10
5.854857288238727
 20
-8.480886288548172
 10
5.83258047732055
 20
-8.49646230065019
 10
5.81034839287952
 20
-8.511929385921755
 10
5.788194219935911
 20
-8.52726371778486
 10
5.76615114351002
 20
-8.54244146966147
 10
5.744252348622146
 20
-8.557438814973576
 10
5.72253102029256
 20
-8.572231927143148
 10
5.701020343541552
 20
-8.586796979592172
 10
5.679753503389415
 20
-8.601110145742627
 10
5.658763684856438
 20
-8.615147599016497
 10
5.6380840729629025
 20
-8.628885512835748
 10
5.617747852729101
 20
-8.642300060622382
 10
5.59778820917532
 20
-8.655367415798347
 10
5.578238327321841
 20
-8.668063751785654
 10
5.559131392188968
 20
-8.680365242006262
 10
5.540500588796975
 20
-8.692248059882168
 10
5.522379102166149
 20
-8.703688378835336
 10
5.504800117316784
 20
-8.714662372287751
 10
5.487796819269168
 20
-8.725146213661402
 10
5.4714023930435856
 20
-8.735116076378254
 10
5.455650023660326
 20
-8.744548133860292
 10
5.440572896139674
 20
-8.753418559529504
 10
5.42620419550192
 20
-8.761703526807853
 10
5.412577106767352
 20
-8.769379209117334
 10
5.399724814956261
 20
-8.776421779879925
 10
5.387680505088924
 20
-8.782807412517595
 10
5.376477362185637
 20
-8.78851228045234
 10
5.366148571266691
 20
-8.793512557106121
 10
5.359880161270291
 20
-8.796293462250478
 10
5.353548758375545
 20
-8.798748938293478
 10
5.3471138875195505
 20
-8.800842364432393
 10
5.340535073639408
 20
-8.802537119864546
 10
5.333771841672229
 20
-8.803796583787191
 10
5.326783716555109
 20
-8.804584135397649
 10
5.319530223225154
 20
-8.804863153893196
 10
5.311970886619467
 20
-8.80459701847112
 10
5.304065231675146
 20
-8.803749108328716
 10
5.295772783329299
 20
-8.802282802663283
 10
5.2870530665190225
 20
-8.8001614806721
 10
5.277865606181437
 20
-8.79734852155245
 10
5.268169927253623
 20
-8.79380730450164
 10
5.2579255546726955
 20
-8.789501208716967
 10
5.247092013375755
 20
-8.784393613395695
 10
5.235628828299908
 20
-8.778447897735129
 10
5.22349552438225
 20
-8.771627440932562
 10
5.210651626559886
 20
-8.763895622185284
 10
5.197056659769919
 20
-8.75521582069058
 10
5.18267014894946
 20
-8.745551415645737
 10
5.167451619035607
 20
-8.734865786248061
 10
5.151360594965452
 20
-8.723122311694837
 10
5.134356601676107
 20
-8.710284371183345
 10
5.116399164104687
 20
-8.696315343910877
 10
5.097447807188274
 20
-8.681178609074738
 10
5.077462055863976
 20
-8.664837545872205
 10
5.056401435068904
 20
-8.647255533500578
 10
5.034225469740152
 20
-8.628395951157138
 10
5.010893684814837
 20
-8.608222178039187
 10
4.98636560523004
 20
-8.586697593343995
 10
4.960600755922883
 20
-8.563785576268875
 10
4.933558661830459
 20
-8.539449506011113
 10
4.905198847889875
 20
-8.513652761767984
 10
4.875480839038229
 20
-8.486358722736794
 10
4.844364160212634
 20
-8.457530768114836
 10
4.8118083363501825
 20
-8.427132277099387
 10
4.77777289238798
 20
-8.395126628887743
 10
4.742217353263133
 20
-8.361477202677193
 10
4.705101243912738
 20
-8.32614737766503
 10
4.6663840892739055
 20
-8.28910053304855
 10
4.626025414283734
 20
-8.25030004802504
 10
4.583984743879317
 20
-8.209709301791783
 10
4.540221602997782
 20
-8.167291673546075
 10
4.494695516576204
 20
-8.12301054248521
 10
4.447366009551708
 20
-8.076829287806474
 10
4.398192606861388
 20
-8.028711288707155
 10
4.347134833442342
 20
-7.978619924384554
 10
4.29415221423168
 20
-7.926518574035951
 10
4.239204274166501
 20
-7.872370616858637
 10
4.182250538183905
 20
-7.816139432049903
 10
4.123250531221006
 20
-7.757788398807046
 10
4.062163778214896
 20
-7.697280896327356
 10
3.998949804102685
 20
-7.634580303808116
 10
3.93356813382147
 20
-7.569650000446618
 10
3.8659782923083603
 20
-7.502453365440164
 10
3.7961398045004526
 20
-7.432953777986026
 10
3.7240121953348497
 20
-7.3611146172815065
 10
3.649554989748655
 20
-7.286899262523896
 10
3.572727712678982
 20
-7.210271092910485
 10
3.49348988906292
 20
-7.131193487638557
 10
3.4118010438375723
 20
-7.049629825905409
 10
3.327620701940052
 20
-6.9655434869083255
 10
3.240908388307455
 20
-6.878897849844602
 10
3.1516236278768854
 20
-6.789656293911531
 10
1.0801065005621098
 20
-4.71883790185445
 10
1.0801065005621098
 20
-3.6965882198458435
 10
1.0801065005621098
 20
-2.6744549937135162
 10
3.7436853028975925
 20
-5.337567972543873
 10
3.812159167140777
 20
-5.406040411652587
 10
3.8802213878664404
 20
-5.474130868521353
 10
3.947850630704915
 20
-5.541817646277463
 10
4.01502556128653
 20
-5.609079048048215
 10
4.081724845241606
 20
-5.675893376960907
 10
4.147927148200488
 20
-5.742238936142845
 10
4.213611135793498
 20
-5.80809402872132
 10
4.278755473650972
 20
-5.873436957823626
 10
4.343338827403233
 20
-5.938246026577067
 10
4.407339862680625
 20
-6.0024995381089425
 10
4.470737245113465
 20
-6.066175795546545
 10
4.5335096403320865
 20
-6.129253102017168
 10
4.595635713966826
 20
-6.191709760648122
 10
4.65709413164801
 20
-6.253524074566703
 10
4.717863559005975
 20
-6.314674346900198
 10
4.777922661671042
 20
-6.375138880775912
 10
4.837250105273547
 20
-6.434895979321136
 10
4.89582455544382
 20
-6.493923945663183
 10
4.953624677812191
 20
-6.552201082929332
 10
5.010629138008993
 20
-6.609705694246896
 10
5.066816601664555
 20
-6.666416082743168
 10
5.122165734409206
 20
-6.722310551545442
 10
5.176655201873277
 20
-6.777367403781018
 10
5.230263669687103
 20
-6.831564942577197
 10
5.282969803481013
 20
-6.884881471061268
 10
5.334752268885335
 20
-6.937295292360549
 10
5.385589731530399
 20
-6.988784709602314
 10
5.435460857046545
 20
-7.039328025913867
 10
5.484344311064089
 20
-7.088903544422517
 10
5.532218759213375
 20
-7.137489568255555
 10
5.579062867124722
 20
-7.185064400540269
 10
5.624855300428472
 20
-7.231606344403976
 10
5.669574724754949
 20
-7.277093702973958
 10
5.713199805734482
 20
-7.321504779377526
 10
5.755709208997407
 20
-7.364817876741961
 10
5.797081600174048
 20
-7.407011298194575
 10
5.837295644894747
 20
-7.4480633468626625
 10
5.876330008789824
 20
-7.487952325873513
 10
5.914163357489618
 20
-7.526656538354437
 10
5.950774356624448
 20
-7.564154287432722
 10
5.986141671824652
 20
-7.6004238762356735
 10
6.020243968720565
 20
-7.635443607890586
 10
6.0530599129425084
 20
-7.669191785524757
 10
6.084568170120819
 20
-7.701646712265489
 10
6.114747405885828
 20
-7.7327866912400705
 10
6.143576285867862
 20
-7.762590025575799
 10
6.171033475697253
 20
-7.791035018399989
 10
6.197097641004338
 20
-7.818099972839919
 10
6.221747447419435
 20
-7.843763192022903
 10
6.244961560572882
 20
-7.868002979076226
 10
6.266718646095012
 20
-7.890797637127183
 10
6.286997369616156
 20
-7.912125469303089
 10
6.305776396766641
 20
-7.93196477873123
 10
6.3230343931767905
 20
-7.950293868538907
 10
6.338750024476952
 20
-7.967091041853409
 10
6.352901956297443
 20
-7.982334601802046
 10
6.365468854268601
 20
-7.996002851512109
 10
6.376429384020749
 20
-8.008074094110912
 10
6.385762211184229
 20
-8.018526632725719
 10
6.393446001389364
 20
-8.02733877048386
 10
6.399459420266484
 20
-8.034488810512624
 10
6.403781133445924
 20
-8.039955055939293
 10
6.4063898065580105
 20
-8.043715809891184
  0
LWPOLYLINE
  5
38
330
17
100
AcDbEntity
  8
0
100
AcDbPolyline
 90
194
 70
1
 10
-1.1097297970557836
 20
-10.242573025690438
 10
-1.1136104360027197
 20
-10.244878386828608
 10
-1.119980711128328
 20
-10.246586417601602
 10
-1.1287611782936757
 20
-10.247713057481
 10
-1.1398723933598374
 20
-10.24827424593841
 10
-1.1532349121878807
 20
-10.248285922445419
 10
-1.1687692906388765
 20
-10.247764026473611
 10
-1.1863960845738926
 20
-10.246724497494588
 10
-1.2060358498540065
 20
-10.245183274979928
 10
-1.2276091423402793
 20
-10.24315629840124
 10
-1.2510365178937854
 20
-10.24065950723011
 10
-1.2762385323755956
 20
-10.237708840938124
 10
-1.3031357416467777
 20
-10.234320238996881
 10
-1.331648701568406
 20
-10.230509640877976
 10
-1.3616979680015446
 20
-10.226292986052988
 10
-1.3932040968072716
 20
-10.221686213993523
 10
-1.4260876438466477
 20
-10.216705264171168
 10
-1.4602691649807504
 20
-10.21136607605751
 10
-1.4956692160706542
 20
-10.205684589124148
 10
-1.5322083529774169
 20
-10.19967674284267
 10
-1.5698071315621094
 20
-10.193358476684667
 10
-1.608386107685816
 20
-10.186745730121736
 10
-1.647865837209591
 20
-10.179854442625466
 10
-1.6881668759945152
 20
-10.172700553667438
 10
-1.7292097799016566
 20
-10.165300002719267
 10
-1.7709151047920828
 20
-10.157668729252533
 10
-1.8132034065268645
 20
-10.149822672738825
 10
-1.8559952409670697
 20
-10.141777772649743
 10
-1.8992111639737759
 20
-10.133549968456872
 10
-1.9427717314080442
 20
-10.125155199631807
 10
-1.9865974991309518
 20
-10.116609405646134
 10
-2.030609023003567
 20
-10.107928525971452
 10
-2.074726858886957
 20
-10.099128500079358
 10
-2.1188715626422
 20
-10.090225267441426
 10
-2.1629636901303595
 20
-10.081234767529265
 10
-2.2069237972125038
 20
-10.072172939814463
 10
-2.250672439749707
 20
-10.063055723768606
 10
-2.294130173603037
 20
-10.0538990588633
 10
-2.3372175546335674
 20
-10.044718884570125
 10
-2.3798551387023665
 20
-10.035531140360668
 10
-2.421963481670502
 20
-10.026351765706535
 10
-2.4634631393990483
 20
-10.017196700079312
 10
-2.5042746677490726
 20
-10.008081882950588
 10
-2.544318622581646
 20
-9.999023253791952
 10
-2.5835155597578394
 20
-9.990036752075016
 10
-2.621786035138724
 20
-9.98113831727134
 10
-2.6590506045853646
 20
-9.972343888852544
 10
-2.695229823958841
 20
-9.96366940629021
 10
-2.730244249120212
 20
-9.95513080905592
 10
-2.7640144359305547
 20
-9.946744036621292
 10
-2.7964609402509435
 20
-9.938525028457894
 10
-2.8275043179424393
 20
-9.930489724037319
 10
-2.8570651248661165
 20
-9.922654062831167
 10
-2.8850639168830425
 20
-9.915033984311044
 10
-2.911421249854289
 20
-9.90764542794851
 10
-2.9360576796409332
 20
-9.900504333215187
 10
-2.958893762104033
 20
-9.893626639582646
 10
-2.9798500531046686
 20
-9.887028286522492
 10
-2.9988471085039055
 20
-9.880725213506302
 10
-3.0158054841628137
 20
-9.874733360005687
 10
-3.0306457359424646
 20
-9.869068665492227
 10
-3.0432884197039325
 20
-9.863747069437515
 10
-3.0536540913082786
 20
-9.858784511313152
 10
-3.061663306616577
 20
-9.854196930590724
 10
-3.0672366214899016
 20
-9.85000026674181
 10
-3.067636145144994
 20
-9.849005975564676
 10
-3.0673877852546085
 20
-9.847371405409351
 10
-3.0664992343463284
 20
-9.845104688604911
 10
-3.064978184947755
 20
-9.842213957480427
 10
-3.062832329586486
 20
-9.838707344364964
 10
-3.0600693607901057
 20
-9.834592981587594
 10
-3.0566969710862213
 20
-9.829879001477378
 10
-3.0527228530024173
 20
-9.824573536363387
 10
-3.0481546990662913
 20
-9.818684718574685
 10
-3.043000201805441
 20
-9.812220680440353
 10
-3.0372670537474566
 20
-9.805189554289448
 10
-3.030962947419927
 20
-9.797599472451044
 10
-3.024095575350462
 20
-9.789458567254194
 10
-3.016672630066643
 20
-9.780774971027993
 10
-3.0087018040960674
 20
-9.771556816101484
 10
-3.0001907899663296
 20
-9.761812234803756
 10
-2.991147280205027
 20
-9.751549359463857
 10
-2.981578967339761
 20
-9.740776322410865
 10
-2.9714935438981085
 20
-9.729501255973853
 10
-2.960898702407674
 20
-9.717732292481877
 10
-2.9498021353960486
 20
-9.705477564264019
 10
-2.93821153539083
 20
-9.692745203649336
 10
-2.9261345949196085
 20
-9.679543342966902
 10
-2.913579006509986
 20
-9.665880114545788
 10
-2.9005524626895522
 20
-9.651763650715047
 10
-2.8870626559858987
 20
-9.637202083803762
 10
-2.8731172789266233
 20
-9.622203546140994
 10
-2.858724024039323
 20
-9.606776170055817
 10
-2.8438905838515893
 20
-9.590928087877288
 10
-2.8286246508910096
 20
-9.574667431934497
 10
-2.812933917685191
 20
-9.558002334556493
 10
-2.796826076761722
 20
-9.54094092807234
 10
-2.780308820648189
 20
-9.523491344811124
 10
-2.7633898418722045
 20
-9.505661717101908
 10
-2.746076832961348
 20
-9.48746017727375
 10
-2.728377486443221
 20
-9.468894857655723
 10
-2.7102994948454175
 20
-9.449973890576896
 10
-2.691850550695522
 20
-9.43070540836634
 10
-2.673038346521142
 20
-9.411097543353126
 10
-2.6538705748498685
 20
-9.391158427866309
 10
-2.6343549282092926
 20
-9.370896194234966
 10
-2.614499099127008
 20
-9.35031897478817
 10
-2.5943107801306162
 20
-9.32943490185498
 10
-2.5737976637477042
 20
-9.308252107764467
 10
-2.55296744250587
 20
-9.286778724845696
 10
-2.5318278089327078
 20
-9.265022885427744
 10
-2.5103864555558117
 20
-9.24299272183967
 10
-2.4886510749027693
 20
-9.220696366410543
 10
-2.466629359501188
 20
-9.198141951469442
 10
-2.4443290018786565
 20
-9.17533760934542
 10
-2.4217576945627677
 20
-9.152291472367558
 10
-2.398923130081116
 20
-9.129011672864907
 10
-2.37583300096129
 20
-9.105506343166557
 10
-2.3524949997308995
 20
-9.081783615601566
 10
-2.3289168189175293
 20
-9.057851622498994
 10
-2.3051061510487703
 20
-9.033718496187927
 10
-2.28107068865222
 20
-9.009392368997416
 10
-2.2568181242554792
 20
-8.984881373256533
 10
-2.2323561503861358
 20
-8.960193641294351
 10
-2.207692459571784
 20
-8.935337305439935
 10
-2.182834744340021
 20
-8.910320498022353
 10
-2.157790697218438
 20
-8.88515135137068
 10
-2.1325680107346323
 20
-8.85983799781397
 10
-2.107174377416199
 20
-8.83438856968131
 10
-1.1189298112821093
 20
-7.84463007715555
 10
-1.102160165097415
 20
-9.03143191235146
 10
-1.1017327429245953
 20
-9.061942985880515
 10
-1.1013238563847974
 20
-9.09228673227434
 10
-1.100933446837818
 20
-9.122453449245887
 10
-1.100561455643468
 20
-9.152433434508096
 10
-1.1002078241615476
 20
-9.182216985773902
 10
-1.0998724937518545
 20
-9.211794400756256
 10
-1.0995554057742019
 20
-9.241155977168106
 10
-1.0992565015883873
 20
-9.270292012722395
 10
-1.0989757225542145
 20
-9.299192805132064
 10
-1.0987130100314872
 20
-9.32784865211005
 10
-1.0984683053800162
 20
-9.35624985136931
 10
-1.0982415499595917
 20
-9.384386700622777
 10
-1.0980326851300277
 20
-9.412249497583401
 10
-1.0978416522511245
 20
-9.43982853996414
 10
-1.0976683926826827
 20
-9.467114125477918
 10
-1.0975128477845162
 20
-9.494096551837682
 10
-1.0973749589164152
 20
-9.520766116756372
 10
-1.0972546674381873
 20
-9.547113117946932
 10
-1.0971519147096394
 20
-9.573127853122323
 10
-1.0970666420905721
 20
-9.598800619995474
 10
-1.0969987909407923
 20
-9.624121716279335
 10
-1.096948302620101
 20
-9.64908143968685
 10
-1.0969151184883015
 20
-9.673670087930958
 10
-1.0968991799051946
 20
-9.697877958724614
 10
-1.096900428230594
 20
-9.721695349780745
 10
-1.0969188048242904
 20
-9.745112558812304
 10
-1.096954251046094
 20
-9.76811988353224
 10
-1.0970067082558086
 20
-9.790707621653489
 10
-1.097076117813235
 20
-9.812866070888994
 10
-1.097162421078177
 20
-9.834585528951717
 10
-1.0972655594104415
 20
-9.855856293554579
 10
-1.0973854741698292
 20
-9.87666866241053
 10
-1.0975221067161438
 20
-9.897012933232526
 10
-1.0976753984091894
 20
-9.91687940373349
 10
-1.0978452906087728
 20
-9.936258371626383
 10
-1.098031724674688
 20
-9.955140134624143
 10
-1.0982346419667486
 20
-9.973514990439716
 10
-1.0984539838447522
 20
-9.991373236786046
 10
-1.0986896916685058
 20
-10.008705171376077
 10
-1.0989417067978098
 20
-10.025501091922754
 10
-1.0992099705924678
 20
-10.041751296139017
 10
-1.0994944244122875
 20
-10.057446081737805
 10
-1.099795009617069
 20
-10.072575746432081
 10
-1.1001116675666163
 20
-10.087130587934764
 10
-1.1004443396207297
 20
-10.10110090395882
 10
-1.1007929671392198
 20
-10.114476992217183
 10
-1.101157491481884
 20
-10.127249150422786
 10
-1.1015378540085323
 20
-10.139407676288597
 10
-1.1019339960789591
 20
-10.150942867527544
 10
-1.1023458590529778
 20
-10.161845021852576
 10
-1.1027733842903824
 20
-10.172104436976628
 10
-1.10321651315098
 20
-10.181711410612666
 10
-1.1036751869945778
 20
-10.19065624047361
 10
-1.1041493471809762
 20
-10.19892922427242
 10
-1.1046389350699792
 20
-10.20652065972203
 10
-1.1051438920213905
 20
-10.213420844535385
 10
-1.1056641593950105
 20
-10.219620076425436
 10
-1.10619967855065
 20
-10.225108653105124
 10
-1.106750390848106
 20
-10.229876872287386
 10
-1.1073162376471821
 20
-10.233915031685171
 10
-1.107897160307686
 20
-10.237213429011428
 10
-1.1084931001894176
 20
-10.239762361979098
 10
-1.1091039986521811
 20
-10.24155212830112
  0
LWPOLYLINE
  5
39
330
17
100
AcDbEntity
  8
0
100
AcDbPolyline
 90
194
 70
1
 10
3.0003474445857985
 20
-9.835676193959053
 10
2.9991946334090036
 20
-9.838904735706992
 10
2.9957803470616966
 20
-9.84255372233286
 10
2.9901708063185035
 20
-9.846608083306146
 10
2.982432231954039
 20
-9.851052748096357
 10
2.972630844742926
 20
-9.855872646173005
 10
2.960832865459789
 20
-9.861052707005577
 10
2.947104514879245
 20
-9.86657786006358
 10
2.9315120137759214
 20
-9.872433034816517
 10
2.914121582924424
 20
-9.878603160733885
 10
2.8949994430993855
 20
-9.885073167285187
 10
2.874211815075424
 20
-9.891827983939933
 10
2.851824919627159
 20
-9.898852540167608
 10
2.827904977529215
 20
-9.906131765437722
 10
2.8025182095562085
 20
-9.913650589219786
 10
2.7757308364827677
 20
-9.921393940983283
 10
2.747609079083498
 20
-9.929346750197729
 10
2.7182191581330355
 20
-9.937493946332623
 10
2.687627294405995
 20
-9.945820458857467
 10
2.655899708676996
 20
-9.954311217241745
 10
2.6231026217206663
 20
-9.962951150954982
 10
2.5893022543116153
 20
-9.971725189466673
 10
2.554564827224469
 20
-9.98061826224631
 10
2.518956561233855
 20
-9.989615298763397
 10
2.482543677114383
 20
-9.99870122848745
 10
2.4453923956406816
 20
-10.007860980887958
 10
2.407568937587363
 20
-10.01707948543442
 10
2.3691395237290584
 20
-10.026341671596347
 10
2.3301703748403817
 20
-10.035632468843234
 10
2.2907277116959603
 20
-10.04493680664458
 10
2.2508777550704067
 20
-10.054239614469894
 10
2.2106867257383467
 20
-10.063525821788673
 10
2.1702208444743984
 20
-10.072780358070421
 10
2.129546332053185
 20
-10.081988152784628
 10
2.0887294092493276
 20
-10.091134135400813
 10
2.0478362968374424
 20
-10.10020323538847
 10
2.006933215592164
 20
-10.109180382217104
 10
1.966086386288086
 20
-10.118050505356202
 10
1.9253620296998557
 20
-10.12679853427528
 10
1.884826366602086
 20
-10.135409398443837
 10
1.844545617769392
 20
-10.14386802733137
 10
1.8045860039763961
 20
-10.152159350407386
 10
1.765013745997727
 20
-10.160268297141382
 10
1.7258950646079938
 20
-10.168179797002868
 10
1.687296180581825
 20
-10.175878779461332
 10
1.6492833146938426
 20
-10.18335017398628
 10
1.6119226877186623
 20
-10.190578910047218
 10
1.5752805204309028
 20
-10.197549917113639
 10
1.539423033605193
 20
-10.204248124655061
 10
1.5044164480161517
 20
-10.210658462140975
 10
1.470326984438391
 20
-10.216765859040878
 10
1.437220863646543
 20
-10.222555244824267
 10
1.4051643064152264
 20
-10.228011548960668
 10
1.3742235335190536
 20
-10.23311970091956
 10
1.3444647657326532
 20
-10.23786463017045
 10
1.315954223830644
 20
-10.242231266182838
 10
1.288758128587645
 20
-10.246204538426232
 10
1.2629427007782816
 20
-10.249769376370129
 10
1.238574161177166
 20
-10.252910709484036
 10
1.2157187305589299
 20
-10.255613467237438
 10
1.194442629698189
 20
-10.25786257909986
 10
1.1748120793695591
 20
-10.25964297454078
 10
1.1568933003476718
 20
-10.260939583029717
 10
1.1407525134071366
 20
-10.261737334036166
 10
1.1264559393225815
 20
-10.26202115702963
 10
1.1252639205107697
 20
-10.261635339631983
 10
1.1240790957848878
 20
-10.260473336604385
 10
1.122901835644349
 20
-10.258544698302483
 10
1.1217325105885825
 20
-10.25585897508191
 10
1.120571491117008
 20
-10.252425717298307
 10
1.1194191477290578
 20
-10.248254475307316
 10
1.1182758509241384
 20
-10.243354799464562
 10
1.1171419712016926
 20
-10.237736240125692
 10
1.1160178790611297
 20
-10.231408347646342
 10
1.1149039450018792
 20
-10.224380672382155
 10
1.1138005395233606
 20
-10.216662764688762
 10
1.1127080331249932
 20
-10.208264174921803
 10
1.1116267963062167
 20
-10.19919445343691
 10
1.110557199566437
 20
-10.18946315058973
 10
1.109499613405087
 20
-10.179079816735895
 10
1.1084544083215861
 20
-10.168054002231045
 10
1.1074219548153605
 20
-10.156395257430818
 10
1.1064026233858297
 20
-10.144113132690855
 10
1.1053967845324195
 20
-10.131217178366793
 10
1.1044048087545564
 20
-10.117716944814262
 10
1.1034270665516563
 20
-10.10362198238891
 10
1.1024639284231452
 20
-10.08894184144636
 10
1.101515764868453
 20
-10.07368607234227
 10
1.100582946386992
 20
-10.057864225432258
 10
1.0996658434781954
 20
-10.041485851071977
 10
1.0987648266414791
 20
-10.024560499617058
 10
1.0978802663762692
 20
-10.007097721423145
 10
1.0970125331819884
 20
-9.989107066845866
 10
1.0961619975580632
 20
-9.970598086240868
 10
1.0953290300039158
 20
-9.951580329963779
 10
1.0945140010189662
 20
-9.932063348370244
 10
1.093717281102637
 20
-9.912056691815897
 10
1.0929392407543577
 20
-9.89156991065639
 10
1.0921802504735474
 20
-9.870612555247343
 10
1.0914406807596293
 20
-9.849194175944387
 10
1.090720902112026
 20
-9.827324323103182
 10
1.0900212850301605
 20
-9.805012547079363
 10
1.0893422000134654
 20
-9.782268398228554
 10
1.0886840175613466
 20
-9.7591014269064
 10
1.0880471081732472
 20
-9.735521183468537
 10
1.0874318423485734
 20
-9.711537218270612
 10
1.086838590586758
 20
-9.68715908166825
 10
1.0862677233872233
 20
-9.662396324017095
 10
1.085719611249389
 20
-9.637258495672787
 10
1.0851946246726782
 20
-9.611755146990957
 10
1.0846931341565167
 20
-9.585895828327253
 10
1.0842155102003372
 20
-9.559690090037304
 10
1.0837621233035464
 20
-9.533147482476748
 10
1.0833333439655697
 20
-9.506277556001233
 10
1.0829295426858403
 20
-9.479089860966376
 10
1.0825510899637774
 20
-9.451593947727831
 10
1.0821983562988007
 20
-9.423799366641237
 10
1.0818717121903363
 20
-9.395715668062229
 10
1.08157152813781
 20
-9.367352402346441
 10
1.0812981746406416
 20
-9.338719119849511
 10
1.0810520221982538
 20
-9.309825370927086
 10
1.080833441310076
 20
-9.280680705934794
 10
1.080642802475521
 20
-9.251294675228278
 10
1.0804804761940183
 20
-9.22167682916317
 10
1.0803468329649941
 20
-9.191836718095109
 10
1.0802422432878676
 20
-9.16178389237974
 10
1.0801670776620618
 20
-9.131527902372692
 10
1.0801217065870026
 20
-9.101078298429613
 10
1.0801065005621098
 20
-9.070444630906133
 10
1.0801065005621098
 20
-7.878751648906351
 10
2.0401687446358125
 20
-8.83741642246466
 10
2.0648530665817164
 20
-8.8620703274741
 10
2.0893889621939112
 20
-8.886602106277953
 10
2.1137687416102615
 20
-8.911003757154862
 10
2.137984714968639
 20
-8.93526727838347
 10
2.1620291924069077
 20
-8.959384668242423
 10
2.1858944840629393
 20
-8.98334792501036
 10
2.2095729000746087
 20
-9.00714904696592
 10
2.2330567505797805
 20
-9.030780032387742
 10
2.2563383457163155
 20
-9.054232879554476
 10
2.279409995622092
 20
-9.077499586744759
 10
2.302264010434982
 20
-9.100572152237243
 10
2.3248927002928426
 20
-9.123442574310564
 10
2.3472883753335587
 20
-9.146102851243368
 10
2.369443345694985
 20
-9.168544981314286
 10
2.3913499215149994
 20
-9.190760962801976
 10
2.413000412931467
 20
-9.212742793985058
 10
2.434387130082259
 20
-9.234482473142199
 10
2.4555023831052396
 20
-9.255971998552022
 10
2.476338482138287
 20
-9.277203368493181
 10
2.496887737319266
 20
-9.298168581244324
 10
2.517142458786038
 20
-9.318859635084072
 10
2.537094956676484
 20
-9.339268528291088
 10
2.5567375411284625
 20
-9.359387259143999
 10
2.576062522279858
 20
-9.379207825921458
 10
2.5950622102685212
 20
-9.398722226902104
 10
2.6137289152323246
 20
-9.417922460364574
 10
2.6320549473091455
 20
-9.436800524587525
 10
2.650032616636858
 20
-9.455348417849578
 10
2.667654233353311
 20
-9.47355813842939
 10
2.6849121075963924
 20
-9.491421684605596
 10
2.7017985495039634
 20
-9.508931054656843
 10
2.718305869213892
 20
-9.526078246861777
 10
2.7344263768640493
 20
-9.542855259499035
 10
2.750152382592303
 20
-9.559254090847261
 10
2.765476196536522
 20
-9.575266739185087
 10
2.780390128834581
 20
-9.59088520279117
 10
2.7948864896243406
 20
-9.606101479944144
 10
2.8089575890436755
 20
-9.620907568922659
 10
2.8225957372304573
 20
-9.635295468005351
 10
2.8357932443225407
 20
-9.649257175470861
 10
2.8485424204578136
 20
-9.662784689597833
 10
2.8608355757741344
 20
-9.675870008664905
 10
2.87266502040937
 20
-9.688505130950727
 10
2.8840230645014033
 20
-9.700682054733944
 10
2.8949020181880845
 20
-9.71239277829319
 10
2.905294191607292
 20
-9.723629299907113
 10
2.9151918948969033
 20
-9.734383617854347
 10
2.92458743819477
 20
-9.744647730413535
 10
2.9334731316387774
 20
-9.754413635863328
 10
2.941841285366776
 20
-9.763673332482366
 10
2.9496842095166613
 20
-9.772418818549292
 10
2.9569942142262735
 20
-9.78064209234274
 10
2.963763609633505
 20
-9.788335152141359
 10
2.9699847058762097
 20
-9.795489996223786
 10
2.975649813092263
 20
-9.802098622868675
 10
2.9807512414195356
 20
-9.808153030354656
 10
2.9852813009958887
 20
-9.813645216960376
 10
2.9892323019592046
 20
-9.818567180964475
 10
2.9925965544473367
 20
-9.822910920645603
 10
2.995366368598171
 20
-9.826668434282395
 10
2.9975340545495612
 20
-9.829831720153487
 10
2.999091922439382
 20
-9.832392776537542
 10
3.0000322824055052
 20
-9.834343601713176
  0
ENDSEC
  0
SECTION
  2
OBJECTS
  0
DICTIONARY
  5
A
330
0
100
AcDbDictionary
281
1
  3
ACAD_COLOR
350
B
  3
ACAD_GROUP
350
C
  3
ACAD_LAYOUT
350
D
  3
ACAD_MATERIAL
350
E
  3
ACAD_MLEADERSTYLE
350
F
  3
ACAD_MLINESTYLE
350
10
  3
ACAD_PLOTSETTINGS
350
11
  3
ACAD_PLOTSTYLENAME
350
12
  3
ACAD_SCALELIST
350
14
  3
ACAD_TABLESTYLE
350
15
  3
ACAD_VISUALSTYLE
350
16
  3
EZDXF_META
350
2D
  0
DICTIONARY
  5
B
330
A
100
AcDbDictionary
281
1
  0
DICTIONARY
  5
C
330
A
100
AcDbDictionary
281
1
  0
DICTIONARY
  5
D
330
A
100
AcDbDictionary
281
1
  3
Model
350
1A
  3
Layout1
350
1E
  0
DICTIONARY
  5
E
330
A
100
AcDbDictionary
281
1
  3
ByBlock
350
1F
  3
ByLayer
350
20
  3
Global
350
21
  0
DICTIONARY
  5
F
330
A
100
AcDbDictionary
281
1
  3
Standard
350
2C
  0
DICTIONARY
  5
10
330
A
100
AcDbDictionary
281
1
  3
Standard
350
22
  0
DICTIONARY
  5
11
330
A
100
AcDbDictionary
281
1
  0
ACDBDICTIONARYWDFLT
  5
12
330
A
100
AcDbDictionary
281
1
  3
Normal
350
13
100
AcDbDictionaryWithDefault
340
13
  0
ACDBPLACEHOLDER
  5
13
330
12
  0
DICTIONARY
  5
14
330
A
100
AcDbDictionary
281
1
  0
DICTIONARY
  5
15
330
A
100
AcDbDictionary
281
1
  0
DICTIONARY
  5
16
330
A
100
AcDbDictionary
281
1
  0
LAYOUT
  5
1A
330
D
100
AcDbPlotSettings
  1

  4
A3
  6

 40
7.5
 41
20.0
 42
7.5
 43
20.0
 44
420.0
 45
297.0
 46
0.0
 47
0.0
 48
0.0
 49
0.0
140
0.0
141
0.0
142
1.0
143
1.0
 70
1024
 72
1
 73
0
 74
5
  7

 75
16
 76
0
 77
2
 78
300
147
1.0
148
0.0
149
0.0
100
AcDbLayout
  1
Model
 70
1
 71
0
 10
0.0
 20
0.0
 11
420.0
 21
297.0
 12
0.0
 22
0.0
 32
0.0
 14
1e+20
 24
1e+20
 34
1e+20
 15
-1e+20
 25
-1e+20
 35
-1e+20
146
0.0
 13
0.0
 23
0.0
 33
0.0
 16
1.0
 26
0.0
 36
0.0
 17
0.0
 27
1.0
 37
0.0
 76
1
330
17
  0
LAYOUT
  5
1E
330
D
100
AcDbPlotSettings
  1

  4
A3
  6

 40
7.5
 41
20.0
 42
7.5
 43
20.0
 44
420.0
 45
297.0
 46
0.0
 47
0.0
 48
0.0
 49
0.0
140
0.0
141
0.0
142
1.0
143
1.0
 70
0
 72
1
 73
0
 74
5
  7

 75
16
 76
0
 77
2
 78
300
147
1.0
148
0.0
149
0.0
100
AcDbLayout
  1
Layout1
 70
1
 71
1
 10
0.0
 20
0.0
 11
420.0
 21
297.0
 12
0.0
 22
0.0
 32
0.0
 14
1e+20
 24
1e+20
 34
1e+20
 15
-1e+20
 25
-1e+20
 35
-1e+20
146
0.0
 13
0.0
 23
0.0
 33
0.0
 16
1.0
 26
0.0
 36
0.0
 17
0.0
 27
1.0
 37
0.0
 76
1
330
1B
  0
MATERIAL
  5
1F
102
{ACAD_REACTORS
330
E
102
}
330
E
100
AcDbMaterial
  1
ByBlock
  2

 70
0
 40
1.0
 71
1
 41
1.0
 91
-1023410177
 42
1.0
 72
1
  3

 73
1
 74
1
 75
1
 44
0.5
 73
0
 45
1.0
 46
1.0
 77
1
  4

 78
1
 79
1
170
1
 48
1.0
171
1
  6

172
1
173
1
174
1
140
1.0
141
1.0
175
1
  7

176
1
177
1
178
1
143
1.0
179
1
  8

270
1
271
1
272
1
145
1.0
146
1.0
273
1
  9

274
1
275
1
276
1
 42
1.0
 72
1
  3

 73
1
 74
1
 75
1
 94
63
  0
MATERIAL
  5
20
102
{ACAD_REACTORS
330
E
102
}
330
E
100
AcDbMaterial
  1
ByLayer
  2

 70
0
 40
1.0
 71
1
 41
1.0
 91
-1023410177
 42
1.0
 72
1
  3

 73
1
 74
1
 75
1
 44
0.5
 73
0
 45
1.0
 46
1.0
 77
1
  4

 78
1
 79
1
170
1
 48
1.0
171
1
  6

172
1
173
1
174
1
140
1.0
141
1.0
175
1
  7

176
1
177
1
178
1
143
1.0
179
1
  8

270
1
271
1
272
1
145
1.0
146
1.0
273
1
  9

274
1
275
1
276
1
 42
1.0
 72
1
  3

 73
1
 74
1
 75
1
 94
63
  0
MATERIAL
  5
21
102
{ACAD_REACTORS
330
E
102
}
330
E
100
AcDbMaterial
  1
Global
  2

 70
0
 40
1.0
 71
1
 41
1.0
 91
-1023410177
 42
1.0
 72
1
  3

 73
1
 74
1
 75
1
 44
0.5
 73
0
 45
1.0
 46
1.0
 77
1
  4

 78
1
 79
1
170
1
 48
1.0
171
1
  6

172
1
173
1
174
1
140
1.0
141
1.0
175
1
  7

176
1
177
1
178
1
143
1.0
179
1
  8

270
1
271
1
272
1
145
1.0
146
1.0
273
1
  9

274
1
275
1
276
1
 42
1.0
 72
1
  3

 73
1
 74
1
 75
1
 94
63
  0
MLINESTYLE
  5
22
102
{ACAD_REACTORS
330
10
102
}
330
10
100
AcDbMlineStyle
  2
Standard
 70
0
  3

 62
256
 51
90.0
 52
90.0
 71
2
 49
0.5
 62
256
  6
BYLAYER
 49
-0.5
 62
256
  6
BYLAYER
  0
MLEADERSTYLE
  5
2C
102
{ACAD_REACTORS
330
F
102
}
330
F
100
AcDbMLeaderStyle
179
2
170
2
171
1
172
0
 90
2
 40
0.0
 41
0.0
173
1
 91
-1056964608
 92
-2
290
1
 42
2.0
291
1
 43
8.0
  3
Standard
 44
4.0
300

342
29
174
1
175
1
176
0
178
1
 93
-1056964608
 45
4.0
292
0
297
0
 46
4.0
 94
-1056964608
 47
1.0
 49
1.0
140
1.0
294
1
141
0.0
177
0
142
1.0
295
0
296
0
143
3.75
271
0
272
9
273
9
  0
DICTIONARY
  5
2D
330
A
100
AcDbDictionary
280
1
281
1
  3
CREATED_BY_EZDXF
350
2E
  3
WRITTEN_BY_EZDXF
350
3C
  0
DICTIONARYVAR
  5
2E
330
2D
100
DictionaryVariables
280
0
  1
1.4.3 @ 2026-05-01T15:52:42.121793+00:00
  0
DICTIONARYVAR
  5
3C
330
2D
100
DictionaryVariables
280
0
  1
1.4.3 @ 2026-05-01T15:52:42.127532+00:00
  0
ENDSEC
  0
EOF
